<?xml version="1.0" encoding="utf-8"?>
<svg xmlns="http://www.w3.org/2000/svg" xmlns:xlink="http://www.w3.org/1999/xlink" width="600" height="400" viewBox="0 0 2400 1600">
<defs>
  <clipPath id="clip520">
    <rect x="0" y="0" width="2400" height="1600"/>
  </clipPath>
</defs>
<path clip-path="url(#clip520)" d="M0 1600 L2400 1600 L2400 0 L0 0  Z" fill="#ffffff" fill-rule="evenodd" fill-opacity="1"/>
<defs>
  <clipPath id="clip521">
    <rect x="219" y="47" width="2134" height="1377"/>
  </clipPath>
</defs>
<path clip-path="url(#clip520)" d="M219.866 1423.18 L2352.76 1423.18 L2352.76 47.2441 L219.866 47.2441  Z" fill="#ffffff" fill-rule="evenodd" fill-opacity="1"/>
<polyline clip-path="url(#clip521)" style="stroke:#000000; stroke-linecap:round; stroke-linejoin:round; stroke-width:2; stroke-opacity:0.1; fill:none" points="274.703,1423.18 274.703,47.2441 "/>
<polyline clip-path="url(#clip521)" style="stroke:#000000; stroke-linecap:round; stroke-linejoin:round; stroke-width:2; stroke-opacity:0.1; fill:none" points="827.494,1423.18 827.494,47.2441 "/>
<polyline clip-path="url(#clip521)" style="stroke:#000000; stroke-linecap:round; stroke-linejoin:round; stroke-width:2; stroke-opacity:0.1; fill:none" points="1380.29,1423.18 1380.29,47.2441 "/>
<polyline clip-path="url(#clip521)" style="stroke:#000000; stroke-linecap:round; stroke-linejoin:round; stroke-width:2; stroke-opacity:0.1; fill:none" points="1933.08,1423.18 1933.08,47.2441 "/>
<polyline clip-path="url(#clip521)" style="stroke:#000000; stroke-linecap:round; stroke-linejoin:round; stroke-width:2; stroke-opacity:0.1; fill:none" points="219.866,1278.87 2352.76,1278.87 "/>
<polyline clip-path="url(#clip521)" style="stroke:#000000; stroke-linecap:round; stroke-linejoin:round; stroke-width:2; stroke-opacity:0.1; fill:none" points="219.866,963.293 2352.76,963.293 "/>
<polyline clip-path="url(#clip521)" style="stroke:#000000; stroke-linecap:round; stroke-linejoin:round; stroke-width:2; stroke-opacity:0.1; fill:none" points="219.866,647.719 2352.76,647.719 "/>
<polyline clip-path="url(#clip521)" style="stroke:#000000; stroke-linecap:round; stroke-linejoin:round; stroke-width:2; stroke-opacity:0.1; fill:none" points="219.866,332.145 2352.76,332.145 "/>
<polyline clip-path="url(#clip520)" style="stroke:#000000; stroke-linecap:round; stroke-linejoin:round; stroke-width:4; stroke-opacity:1; fill:none" points="219.866,1423.18 2352.76,1423.18 "/>
<polyline clip-path="url(#clip520)" style="stroke:#000000; stroke-linecap:round; stroke-linejoin:round; stroke-width:4; stroke-opacity:1; fill:none" points="274.703,1423.18 274.703,1404.28 "/>
<polyline clip-path="url(#clip520)" style="stroke:#000000; stroke-linecap:round; stroke-linejoin:round; stroke-width:4; stroke-opacity:1; fill:none" points="827.494,1423.18 827.494,1404.28 "/>
<polyline clip-path="url(#clip520)" style="stroke:#000000; stroke-linecap:round; stroke-linejoin:round; stroke-width:4; stroke-opacity:1; fill:none" points="1380.29,1423.18 1380.29,1404.28 "/>
<polyline clip-path="url(#clip520)" style="stroke:#000000; stroke-linecap:round; stroke-linejoin:round; stroke-width:4; stroke-opacity:1; fill:none" points="1933.08,1423.18 1933.08,1404.28 "/>
<path clip-path="url(#clip520)" d="M274.703 1454.1 Q271.092 1454.1 269.263 1457.66 Q267.458 1461.2 267.458 1468.33 Q267.458 1475.44 269.263 1479.01 Q271.092 1482.55 274.703 1482.55 Q278.337 1482.55 280.143 1479.01 Q281.972 1475.44 281.972 1468.33 Q281.972 1461.2 280.143 1457.66 Q278.337 1454.1 274.703 1454.1 M274.703 1450.39 Q280.513 1450.39 283.569 1455 Q286.648 1459.58 286.648 1468.33 Q286.648 1477.06 283.569 1481.67 Q280.513 1486.25 274.703 1486.25 Q268.893 1486.25 265.814 1481.67 Q262.759 1477.06 262.759 1468.33 Q262.759 1459.58 265.814 1455 Q268.893 1450.39 274.703 1450.39 Z" fill="#000000" fill-rule="nonzero" fill-opacity="1" /><path clip-path="url(#clip520)" d="M787.101 1481.64 L794.74 1481.64 L794.74 1455.28 L786.43 1456.95 L786.43 1452.69 L794.694 1451.02 L799.37 1451.02 L799.37 1481.64 L807.008 1481.64 L807.008 1485.58 L787.101 1485.58 L787.101 1481.64 Z" fill="#000000" fill-rule="nonzero" fill-opacity="1" /><path clip-path="url(#clip520)" d="M826.453 1454.1 Q822.842 1454.1 821.013 1457.66 Q819.207 1461.2 819.207 1468.33 Q819.207 1475.44 821.013 1479.01 Q822.842 1482.55 826.453 1482.55 Q830.087 1482.55 831.892 1479.01 Q833.721 1475.44 833.721 1468.33 Q833.721 1461.2 831.892 1457.66 Q830.087 1454.1 826.453 1454.1 M826.453 1450.39 Q832.263 1450.39 835.318 1455 Q838.397 1459.58 838.397 1468.33 Q838.397 1477.06 835.318 1481.67 Q832.263 1486.25 826.453 1486.25 Q820.643 1486.25 817.564 1481.67 Q814.508 1477.06 814.508 1468.33 Q814.508 1459.58 817.564 1455 Q820.643 1450.39 826.453 1450.39 Z" fill="#000000" fill-rule="nonzero" fill-opacity="1" /><path clip-path="url(#clip520)" d="M856.615 1454.1 Q853.003 1454.1 851.175 1457.66 Q849.369 1461.2 849.369 1468.33 Q849.369 1475.44 851.175 1479.01 Q853.003 1482.55 856.615 1482.55 Q860.249 1482.55 862.054 1479.01 Q863.883 1475.44 863.883 1468.33 Q863.883 1461.2 862.054 1457.66 Q860.249 1454.1 856.615 1454.1 M856.615 1450.39 Q862.425 1450.39 865.48 1455 Q868.559 1459.58 868.559 1468.33 Q868.559 1477.06 865.48 1481.67 Q862.425 1486.25 856.615 1486.25 Q850.804 1486.25 847.726 1481.67 Q844.67 1477.06 844.67 1468.33 Q844.67 1459.58 847.726 1455 Q850.804 1450.39 856.615 1450.39 Z" fill="#000000" fill-rule="nonzero" fill-opacity="1" /><path clip-path="url(#clip520)" d="M1343.98 1481.64 L1360.3 1481.64 L1360.3 1485.58 L1338.35 1485.58 L1338.35 1481.64 Q1341.01 1478.89 1345.6 1474.26 Q1350.2 1469.61 1351.39 1468.27 Q1353.63 1465.74 1354.51 1464.01 Q1355.41 1462.25 1355.41 1460.56 Q1355.41 1457.8 1353.47 1456.07 Q1351.55 1454.33 1348.45 1454.33 Q1346.25 1454.33 1343.79 1455.09 Q1341.36 1455.86 1338.58 1457.41 L1338.58 1452.69 Q1341.41 1451.55 1343.86 1450.97 Q1346.32 1450.39 1348.35 1450.39 Q1353.72 1450.39 1356.92 1453.08 Q1360.11 1455.77 1360.11 1460.26 Q1360.11 1462.39 1359.3 1464.31 Q1358.51 1466.2 1356.41 1468.8 Q1355.83 1469.47 1352.73 1472.69 Q1349.63 1475.88 1343.98 1481.64 Z" fill="#000000" fill-rule="nonzero" fill-opacity="1" /><path clip-path="url(#clip520)" d="M1380.11 1454.1 Q1376.5 1454.1 1374.67 1457.66 Q1372.87 1461.2 1372.87 1468.33 Q1372.87 1475.44 1374.67 1479.01 Q1376.5 1482.55 1380.11 1482.55 Q1383.75 1482.55 1385.55 1479.01 Q1387.38 1475.44 1387.38 1468.33 Q1387.38 1461.2 1385.55 1457.66 Q1383.75 1454.1 1380.11 1454.1 M1380.11 1450.39 Q1385.92 1450.39 1388.98 1455 Q1392.06 1459.58 1392.06 1468.33 Q1392.06 1477.06 1388.98 1481.67 Q1385.92 1486.25 1380.11 1486.25 Q1374.3 1486.25 1371.22 1481.67 Q1368.17 1477.06 1368.17 1468.33 Q1368.17 1459.58 1371.22 1455 Q1374.3 1450.39 1380.11 1450.39 Z" fill="#000000" fill-rule="nonzero" fill-opacity="1" /><path clip-path="url(#clip520)" d="M1410.27 1454.1 Q1406.66 1454.1 1404.83 1457.66 Q1403.03 1461.2 1403.03 1468.33 Q1403.03 1475.44 1404.83 1479.01 Q1406.66 1482.55 1410.27 1482.55 Q1413.91 1482.55 1415.71 1479.01 Q1417.54 1475.44 1417.54 1468.33 Q1417.54 1461.2 1415.71 1457.66 Q1413.91 1454.1 1410.27 1454.1 M1410.27 1450.39 Q1416.08 1450.39 1419.14 1455 Q1422.22 1459.58 1422.22 1468.33 Q1422.22 1477.06 1419.14 1481.67 Q1416.08 1486.25 1410.27 1486.25 Q1404.46 1486.25 1401.39 1481.67 Q1398.33 1477.06 1398.33 1468.33 Q1398.33 1459.58 1401.39 1455 Q1404.46 1450.39 1410.27 1450.39 Z" fill="#000000" fill-rule="nonzero" fill-opacity="1" /><path clip-path="url(#clip520)" d="M1906.84 1466.95 Q1910.19 1467.66 1912.07 1469.93 Q1913.97 1472.2 1913.97 1475.53 Q1913.97 1480.65 1910.45 1483.45 Q1906.93 1486.25 1900.45 1486.25 Q1898.27 1486.25 1895.96 1485.81 Q1893.67 1485.39 1891.21 1484.54 L1891.21 1480.02 Q1893.16 1481.16 1895.47 1481.74 Q1897.79 1482.32 1900.31 1482.32 Q1904.71 1482.32 1907 1480.58 Q1909.32 1478.84 1909.32 1475.53 Q1909.32 1472.48 1907.16 1470.77 Q1905.03 1469.03 1901.21 1469.03 L1897.19 1469.03 L1897.19 1465.19 L1901.4 1465.19 Q1904.85 1465.19 1906.68 1463.82 Q1908.51 1462.43 1908.51 1459.84 Q1908.51 1457.18 1906.61 1455.77 Q1904.73 1454.33 1901.21 1454.33 Q1899.29 1454.33 1897.09 1454.75 Q1894.89 1455.16 1892.26 1456.04 L1892.26 1451.88 Q1894.92 1451.14 1897.23 1450.77 Q1899.57 1450.39 1901.63 1450.39 Q1906.95 1450.39 1910.06 1452.83 Q1913.16 1455.23 1913.16 1459.35 Q1913.16 1462.22 1911.51 1464.21 Q1909.87 1466.18 1906.84 1466.95 Z" fill="#000000" fill-rule="nonzero" fill-opacity="1" /><path clip-path="url(#clip520)" d="M1932.83 1454.1 Q1929.22 1454.1 1927.39 1457.66 Q1925.59 1461.2 1925.59 1468.33 Q1925.59 1475.44 1927.39 1479.01 Q1929.22 1482.55 1932.83 1482.55 Q1936.47 1482.55 1938.27 1479.01 Q1940.1 1475.44 1940.1 1468.33 Q1940.1 1461.2 1938.27 1457.66 Q1936.47 1454.1 1932.83 1454.1 M1932.83 1450.39 Q1938.64 1450.39 1941.7 1455 Q1944.78 1459.58 1944.78 1468.33 Q1944.78 1477.06 1941.7 1481.67 Q1938.64 1486.25 1932.83 1486.25 Q1927.02 1486.25 1923.94 1481.67 Q1920.89 1477.06 1920.89 1468.33 Q1920.89 1459.58 1923.94 1455 Q1927.02 1450.39 1932.83 1450.39 Z" fill="#000000" fill-rule="nonzero" fill-opacity="1" /><path clip-path="url(#clip520)" d="M1963 1454.1 Q1959.38 1454.1 1957.56 1457.66 Q1955.75 1461.2 1955.75 1468.33 Q1955.75 1475.44 1957.56 1479.01 Q1959.38 1482.55 1963 1482.55 Q1966.63 1482.55 1968.44 1479.01 Q1970.26 1475.44 1970.26 1468.33 Q1970.26 1461.2 1968.44 1457.66 Q1966.63 1454.1 1963 1454.1 M1963 1450.39 Q1968.81 1450.39 1971.86 1455 Q1974.94 1459.58 1974.94 1468.33 Q1974.94 1477.06 1971.86 1481.67 Q1968.81 1486.25 1963 1486.25 Q1957.19 1486.25 1954.11 1481.67 Q1951.05 1477.06 1951.05 1468.33 Q1951.05 1459.58 1954.11 1455 Q1957.19 1450.39 1963 1450.39 Z" fill="#000000" fill-rule="nonzero" fill-opacity="1" /><path clip-path="url(#clip520)" d="M1197.27 1525.81 L1197.27 1543.66 L1205.36 1543.66 Q1209.84 1543.66 1212.29 1541.34 Q1214.74 1539.02 1214.74 1534.72 Q1214.74 1530.45 1212.29 1528.13 Q1209.84 1525.81 1205.36 1525.81 L1197.27 1525.81 M1190.84 1520.52 L1205.36 1520.52 Q1213.34 1520.52 1217.42 1524.15 Q1221.52 1527.75 1221.52 1534.72 Q1221.52 1541.75 1217.42 1545.35 Q1213.34 1548.95 1205.36 1548.95 L1197.27 1548.95 L1197.27 1568.04 L1190.84 1568.04 L1190.84 1520.52 Z" fill="#000000" fill-rule="nonzero" fill-opacity="1" /><path clip-path="url(#clip520)" d="M1258.06 1548.76 L1258.06 1551.62 L1231.14 1551.62 Q1231.52 1557.67 1234.76 1560.85 Q1238.04 1564 1243.87 1564 Q1247.24 1564 1250.39 1563.17 Q1253.58 1562.35 1256.69 1560.69 L1256.69 1566.23 Q1253.54 1567.57 1250.23 1568.27 Q1246.92 1568.97 1243.52 1568.97 Q1234.99 1568.97 1229.99 1564 Q1225.03 1559.04 1225.03 1550.57 Q1225.03 1541.82 1229.74 1536.69 Q1234.48 1531.54 1242.5 1531.54 Q1249.69 1531.54 1253.86 1536.18 Q1258.06 1540.8 1258.06 1548.76 M1252.21 1547.04 Q1252.14 1542.23 1249.5 1539.37 Q1246.89 1536.5 1242.56 1536.5 Q1237.66 1536.5 1234.7 1539.27 Q1231.77 1542.04 1231.33 1547.07 L1252.21 1547.04 Z" fill="#000000" fill-rule="nonzero" fill-opacity="1" /><path clip-path="url(#clip520)" d="M1288.33 1537.87 Q1287.35 1537.3 1286.17 1537.04 Q1285.02 1536.76 1283.62 1536.76 Q1278.66 1536.76 1275.98 1540 Q1273.34 1543.22 1273.34 1549.27 L1273.34 1568.04 L1267.45 1568.04 L1267.45 1532.4 L1273.34 1532.4 L1273.34 1537.93 Q1275.19 1534.69 1278.15 1533.13 Q1281.11 1531.54 1285.34 1531.54 Q1285.95 1531.54 1286.68 1531.63 Q1287.41 1531.7 1288.3 1531.85 L1288.33 1537.87 Z" fill="#000000" fill-rule="nonzero" fill-opacity="1" /><path clip-path="url(#clip520)" d="M1294.48 1532.4 L1300.33 1532.4 L1300.33 1568.04 L1294.48 1568.04 L1294.48 1532.4 M1294.48 1518.52 L1300.33 1518.52 L1300.33 1525.93 L1294.48 1525.93 L1294.48 1518.52 Z" fill="#000000" fill-rule="nonzero" fill-opacity="1" /><path clip-path="url(#clip520)" d="M1326.4 1536.5 Q1321.69 1536.5 1318.95 1540.19 Q1316.21 1543.85 1316.21 1550.25 Q1316.21 1556.65 1318.92 1560.34 Q1321.66 1564 1326.4 1564 Q1331.08 1564 1333.82 1560.31 Q1336.55 1556.62 1336.55 1550.25 Q1336.55 1543.92 1333.82 1540.23 Q1331.08 1536.5 1326.4 1536.5 M1326.4 1531.54 Q1334.04 1531.54 1338.4 1536.5 Q1342.76 1541.47 1342.76 1550.25 Q1342.76 1559 1338.4 1564 Q1334.04 1568.97 1326.4 1568.97 Q1318.73 1568.97 1314.37 1564 Q1310.04 1559 1310.04 1550.25 Q1310.04 1541.47 1314.37 1536.5 Q1318.73 1531.54 1326.4 1531.54 Z" fill="#000000" fill-rule="nonzero" fill-opacity="1" /><path clip-path="url(#clip520)" d="M1375.92 1537.81 L1375.92 1518.52 L1381.78 1518.52 L1381.78 1568.04 L1375.92 1568.04 L1375.92 1562.7 Q1374.08 1565.88 1371.25 1567.44 Q1368.44 1568.97 1364.5 1568.97 Q1358.04 1568.97 1353.96 1563.81 Q1349.92 1558.65 1349.92 1550.25 Q1349.92 1541.85 1353.96 1536.69 Q1358.04 1531.54 1364.5 1531.54 Q1368.44 1531.54 1371.25 1533.1 Q1374.08 1534.62 1375.92 1537.81 M1355.97 1550.25 Q1355.97 1556.71 1358.61 1560.4 Q1361.28 1564.07 1365.93 1564.07 Q1370.58 1564.07 1373.25 1560.4 Q1375.92 1556.71 1375.92 1550.25 Q1375.92 1543.79 1373.25 1540.13 Q1370.58 1536.44 1365.93 1536.44 Q1361.28 1536.44 1358.61 1540.13 Q1355.97 1543.79 1355.97 1550.25 Z" fill="#000000" fill-rule="nonzero" fill-opacity="1" /><polyline clip-path="url(#clip520)" style="stroke:#000000; stroke-linecap:round; stroke-linejoin:round; stroke-width:4; stroke-opacity:1; fill:none" points="219.866,1423.18 219.866,47.2441 "/>
<polyline clip-path="url(#clip520)" style="stroke:#000000; stroke-linecap:round; stroke-linejoin:round; stroke-width:4; stroke-opacity:1; fill:none" points="219.866,1278.87 238.764,1278.87 "/>
<polyline clip-path="url(#clip520)" style="stroke:#000000; stroke-linecap:round; stroke-linejoin:round; stroke-width:4; stroke-opacity:1; fill:none" points="219.866,963.293 238.764,963.293 "/>
<polyline clip-path="url(#clip520)" style="stroke:#000000; stroke-linecap:round; stroke-linejoin:round; stroke-width:4; stroke-opacity:1; fill:none" points="219.866,647.719 238.764,647.719 "/>
<polyline clip-path="url(#clip520)" style="stroke:#000000; stroke-linecap:round; stroke-linejoin:round; stroke-width:4; stroke-opacity:1; fill:none" points="219.866,332.145 238.764,332.145 "/>
<path clip-path="url(#clip520)" d="M128.288 1264.66 Q124.677 1264.66 122.848 1268.23 Q121.043 1271.77 121.043 1278.9 Q121.043 1286.01 122.848 1289.57 Q124.677 1293.11 128.288 1293.11 Q131.922 1293.11 133.728 1289.57 Q135.556 1286.01 135.556 1278.9 Q135.556 1271.77 133.728 1268.23 Q131.922 1264.66 128.288 1264.66 M128.288 1260.96 Q134.098 1260.96 137.154 1265.57 Q140.232 1270.15 140.232 1278.9 Q140.232 1287.63 137.154 1292.23 Q134.098 1296.82 128.288 1296.82 Q122.478 1296.82 119.399 1292.23 Q116.343 1287.63 116.343 1278.9 Q116.343 1270.15 119.399 1265.57 Q122.478 1260.96 128.288 1260.96 Z" fill="#000000" fill-rule="nonzero" fill-opacity="1" /><path clip-path="url(#clip520)" d="M148.45 1290.27 L153.334 1290.27 L153.334 1296.15 L148.45 1296.15 L148.45 1290.27 Z" fill="#000000" fill-rule="nonzero" fill-opacity="1" /><path clip-path="url(#clip520)" d="M167.547 1292.21 L183.866 1292.21 L183.866 1296.15 L161.922 1296.15 L161.922 1292.21 Q164.584 1289.46 169.167 1284.83 Q173.774 1280.17 174.954 1278.83 Q177.2 1276.31 178.079 1274.57 Q178.982 1272.81 178.982 1271.12 Q178.982 1268.37 177.038 1266.63 Q175.116 1264.9 172.014 1264.9 Q169.815 1264.9 167.362 1265.66 Q164.931 1266.42 162.153 1267.98 L162.153 1263.25 Q164.977 1262.12 167.431 1261.54 Q169.885 1260.96 171.922 1260.96 Q177.292 1260.96 180.487 1263.65 Q183.681 1266.33 183.681 1270.82 Q183.681 1272.95 182.871 1274.87 Q182.084 1276.77 179.977 1279.36 Q179.399 1280.04 176.297 1283.25 Q173.195 1286.45 167.547 1292.21 Z" fill="#000000" fill-rule="nonzero" fill-opacity="1" /><path clip-path="url(#clip520)" d="M126.205 949.091 Q122.593 949.091 120.765 952.656 Q118.959 956.198 118.959 963.327 Q118.959 970.434 120.765 973.999 Q122.593 977.54 126.205 977.54 Q129.839 977.54 131.644 973.999 Q133.473 970.434 133.473 963.327 Q133.473 956.198 131.644 952.656 Q129.839 949.091 126.205 949.091 M126.205 945.388 Q132.015 945.388 135.07 949.994 Q138.149 954.577 138.149 963.327 Q138.149 972.054 135.07 976.661 Q132.015 981.244 126.205 981.244 Q120.394 981.244 117.316 976.661 Q114.26 972.054 114.26 963.327 Q114.26 954.577 117.316 949.994 Q120.394 945.388 126.205 945.388 Z" fill="#000000" fill-rule="nonzero" fill-opacity="1" /><path clip-path="url(#clip520)" d="M146.366 974.693 L151.251 974.693 L151.251 980.573 L146.366 980.573 L146.366 974.693 Z" fill="#000000" fill-rule="nonzero" fill-opacity="1" /><path clip-path="url(#clip520)" d="M174.283 950.087 L162.477 968.536 L174.283 968.536 L174.283 950.087 M173.056 946.013 L178.936 946.013 L178.936 968.536 L183.866 968.536 L183.866 972.424 L178.936 972.424 L178.936 980.573 L174.283 980.573 L174.283 972.424 L158.681 972.424 L158.681 967.911 L173.056 946.013 Z" fill="#000000" fill-rule="nonzero" fill-opacity="1" /><path clip-path="url(#clip520)" d="M126.529 633.518 Q122.918 633.518 121.089 637.082 Q119.283 640.624 119.283 647.754 Q119.283 654.86 121.089 658.425 Q122.918 661.967 126.529 661.967 Q130.163 661.967 131.968 658.425 Q133.797 654.86 133.797 647.754 Q133.797 640.624 131.968 637.082 Q130.163 633.518 126.529 633.518 M126.529 629.814 Q132.339 629.814 135.394 634.42 Q138.473 639.004 138.473 647.754 Q138.473 656.48 135.394 661.087 Q132.339 665.67 126.529 665.67 Q120.718 665.67 117.64 661.087 Q114.584 656.48 114.584 647.754 Q114.584 639.004 117.64 634.42 Q120.718 629.814 126.529 629.814 Z" fill="#000000" fill-rule="nonzero" fill-opacity="1" /><path clip-path="url(#clip520)" d="M146.691 659.119 L151.575 659.119 L151.575 664.999 L146.691 664.999 L146.691 659.119 Z" fill="#000000" fill-rule="nonzero" fill-opacity="1" /><path clip-path="url(#clip520)" d="M172.339 645.856 Q169.19 645.856 167.339 648.008 Q165.51 650.161 165.51 653.911 Q165.51 657.638 167.339 659.814 Q169.19 661.967 172.339 661.967 Q175.487 661.967 177.315 659.814 Q179.167 657.638 179.167 653.911 Q179.167 650.161 177.315 648.008 Q175.487 645.856 172.339 645.856 M181.621 631.203 L181.621 635.462 Q179.862 634.629 178.056 634.189 Q176.274 633.749 174.514 633.749 Q169.885 633.749 167.431 636.874 Q165.001 639.999 164.653 646.319 Q166.019 644.305 168.079 643.24 Q170.139 642.152 172.616 642.152 Q177.825 642.152 180.834 645.323 Q183.866 648.471 183.866 653.911 Q183.866 659.235 180.718 662.453 Q177.57 665.67 172.339 665.67 Q166.343 665.67 163.172 661.087 Q160.001 656.48 160.001 647.754 Q160.001 639.559 163.89 634.698 Q167.778 629.814 174.329 629.814 Q176.089 629.814 177.871 630.161 Q179.676 630.508 181.621 631.203 Z" fill="#000000" fill-rule="nonzero" fill-opacity="1" /><path clip-path="url(#clip520)" d="M126.783 317.944 Q123.172 317.944 121.343 321.509 Q119.538 325.05 119.538 332.18 Q119.538 339.287 121.343 342.851 Q123.172 346.393 126.783 346.393 Q130.417 346.393 132.223 342.851 Q134.052 339.287 134.052 332.18 Q134.052 325.05 132.223 321.509 Q130.417 317.944 126.783 317.944 M126.783 314.24 Q132.593 314.24 135.649 318.847 Q138.728 323.43 138.728 332.18 Q138.728 340.907 135.649 345.513 Q132.593 350.097 126.783 350.097 Q120.973 350.097 117.894 345.513 Q114.839 340.907 114.839 332.18 Q114.839 323.43 117.894 318.847 Q120.973 314.24 126.783 314.24 Z" fill="#000000" fill-rule="nonzero" fill-opacity="1" /><path clip-path="url(#clip520)" d="M146.945 343.546 L151.829 343.546 L151.829 349.425 L146.945 349.425 L146.945 343.546 Z" fill="#000000" fill-rule="nonzero" fill-opacity="1" /><path clip-path="url(#clip520)" d="M172.014 333.013 Q168.681 333.013 166.76 334.796 Q164.862 336.578 164.862 339.703 Q164.862 342.828 166.76 344.611 Q168.681 346.393 172.014 346.393 Q175.348 346.393 177.269 344.611 Q179.19 342.805 179.19 339.703 Q179.19 336.578 177.269 334.796 Q175.371 333.013 172.014 333.013 M167.339 331.023 Q164.329 330.282 162.64 328.222 Q160.973 326.162 160.973 323.199 Q160.973 319.055 163.913 316.648 Q166.876 314.24 172.014 314.24 Q177.176 314.24 180.116 316.648 Q183.056 319.055 183.056 323.199 Q183.056 326.162 181.366 328.222 Q179.7 330.282 176.714 331.023 Q180.093 331.81 181.968 334.101 Q183.866 336.393 183.866 339.703 Q183.866 344.726 180.788 347.411 Q177.732 350.097 172.014 350.097 Q166.297 350.097 163.218 347.411 Q160.163 344.726 160.163 339.703 Q160.163 336.393 162.061 334.101 Q163.959 331.81 167.339 331.023 M165.626 323.638 Q165.626 326.324 167.292 327.828 Q168.982 329.333 172.014 329.333 Q175.024 329.333 176.714 327.828 Q178.426 326.324 178.426 323.638 Q178.426 320.953 176.714 319.449 Q175.024 317.944 172.014 317.944 Q168.982 317.944 167.292 319.449 Q165.626 320.953 165.626 323.638 Z" fill="#000000" fill-rule="nonzero" fill-opacity="1" /><path clip-path="url(#clip520)" d="M18.0438 1012.92 L24.314 1012.92 Q22.5634 1016.58 21.704 1019.82 Q20.8447 1023.07 20.8447 1026.09 Q20.8447 1031.34 22.8817 1034.21 Q24.9187 1037.04 28.6745 1037.04 Q31.8255 1037.04 33.4488 1035.16 Q35.0402 1033.25 36.0269 1027.97 L36.8226 1024.09 Q38.1912 1016.89 41.6605 1013.49 Q45.098 1010.05 50.8908 1010.05 Q57.7976 1010.05 61.3624 1014.7 Q64.9272 1019.31 64.9272 1028.26 Q64.9272 1031.63 64.1633 1035.45 Q63.3994 1039.24 61.9035 1043.31 L55.2831 1043.31 Q57.4793 1039.4 58.5933 1035.64 Q59.7073 1031.89 59.7073 1028.26 Q59.7073 1022.75 57.543 1019.76 Q55.3786 1016.77 51.3682 1016.77 Q47.8671 1016.77 45.8937 1018.93 Q43.9204 1021.06 42.9337 1025.97 L42.1698 1029.88 Q40.7375 1037.07 37.682 1040.29 Q34.6264 1043.5 29.1837 1043.5 Q22.8817 1043.5 19.2532 1039.08 Q15.6248 1034.62 15.6248 1026.82 Q15.6248 1023.48 16.2295 1020.01 Q16.8343 1016.54 18.0438 1012.92 Z" fill="#000000" fill-rule="nonzero" fill-opacity="1" /><path clip-path="url(#clip520)" d="M18.2347 994.487 L28.3562 994.487 L28.3562 982.424 L32.9077 982.424 L32.9077 994.487 L52.2594 994.487 Q56.6199 994.487 57.8613 993.31 Q59.1026 992.1 59.1026 988.44 L59.1026 982.424 L64.0042 982.424 L64.0042 988.44 Q64.0042 995.219 61.4897 997.797 Q58.9434 1000.38 52.2594 1000.38 L32.9077 1000.38 L32.9077 1004.67 L28.3562 1004.67 L28.3562 1000.38 L18.2347 1000.38 L18.2347 994.487 Z" fill="#000000" fill-rule="nonzero" fill-opacity="1" /><path clip-path="url(#clip520)" d="M32.4621 960.908 Q32.4621 965.619 36.1542 968.356 Q39.8145 971.093 46.212 971.093 Q52.6095 971.093 56.3017 968.388 Q59.9619 965.651 59.9619 960.908 Q59.9619 956.229 56.2698 953.492 Q52.5777 950.755 46.212 950.755 Q39.8781 950.755 36.186 953.492 Q32.4621 956.229 32.4621 960.908 M27.4968 960.908 Q27.4968 953.269 32.4621 948.909 Q37.4273 944.548 46.212 944.548 Q54.9649 944.548 59.9619 948.909 Q64.9272 953.269 64.9272 960.908 Q64.9272 968.579 59.9619 972.939 Q54.9649 977.268 46.212 977.268 Q37.4273 977.268 32.4621 972.939 Q27.4968 968.579 27.4968 960.908 Z" fill="#000000" fill-rule="nonzero" fill-opacity="1" /><path clip-path="url(#clip520)" d="M33.8307 914.184 Q33.2578 915.17 33.0032 916.348 Q32.7167 917.494 32.7167 918.894 Q32.7167 923.86 35.9632 926.533 Q39.1779 929.175 45.2253 929.175 L64.0042 929.175 L64.0042 935.063 L28.3562 935.063 L28.3562 929.175 L33.8944 929.175 Q30.6479 927.329 29.0883 924.369 Q27.4968 921.409 27.4968 917.176 Q27.4968 916.571 27.5923 915.839 Q27.656 915.107 27.8151 914.216 L33.8307 914.184 Z" fill="#000000" fill-rule="nonzero" fill-opacity="1" /><path clip-path="url(#clip520)" d="M46.0847 891.84 Q46.0847 898.938 47.7079 901.675 Q49.3312 904.412 53.2461 904.412 Q56.3653 904.412 58.2114 902.375 Q60.0256 900.307 60.0256 896.774 Q60.0256 891.904 56.5881 888.976 Q53.1188 886.016 47.3897 886.016 L46.0847 886.016 L46.0847 891.84 M43.6657 880.159 L64.0042 880.159 L64.0042 886.016 L58.5933 886.016 Q61.8398 888.021 63.3994 891.013 Q64.9272 894.005 64.9272 898.333 Q64.9272 903.808 61.8716 907.054 Q58.7843 910.269 53.6281 910.269 Q47.6125 910.269 44.5569 906.259 Q41.5014 902.216 41.5014 894.227 L41.5014 886.016 L40.9285 886.016 Q36.8862 886.016 34.6901 888.689 Q32.4621 891.331 32.4621 896.137 Q32.4621 899.193 33.1941 902.089 Q33.9262 904.985 35.3903 907.659 L29.9795 907.659 Q28.7381 904.444 28.1334 901.421 Q27.4968 898.397 27.4968 895.532 Q27.4968 887.798 31.5072 883.979 Q35.5176 880.159 43.6657 880.159 Z" fill="#000000" fill-rule="nonzero" fill-opacity="1" /><path clip-path="url(#clip520)" d="M45.7664 844.638 Q39.4007 844.638 35.8996 847.28 Q32.3984 849.89 32.3984 854.633 Q32.3984 859.343 35.8996 861.985 Q39.4007 864.595 45.7664 864.595 Q52.1003 864.595 55.6014 861.985 Q59.1026 859.343 59.1026 854.633 Q59.1026 849.89 55.6014 847.28 Q52.1003 844.638 45.7664 844.638 M59.58 838.782 Q68.683 838.782 73.1071 842.824 Q77.5631 846.866 77.5631 855.206 Q77.5631 858.293 77.0857 861.03 Q76.6401 863.767 75.6852 866.346 L69.9879 866.346 Q71.3884 863.767 72.0568 861.253 Q72.7252 858.739 72.7252 856.129 Q72.7252 850.368 69.7015 847.503 Q66.7096 844.638 60.6303 844.638 L57.7339 844.638 Q60.885 846.453 62.4446 849.285 Q64.0042 852.118 64.0042 856.065 Q64.0042 862.622 59.0071 866.632 Q54.01 870.642 45.7664 870.642 Q37.491 870.642 32.4939 866.632 Q27.4968 862.622 27.4968 856.065 Q27.4968 852.118 29.0564 849.285 Q30.616 846.453 33.7671 844.638 L28.3562 844.638 L28.3562 838.782 L59.58 838.782 Z" fill="#000000" fill-rule="nonzero" fill-opacity="1" /><path clip-path="url(#clip520)" d="M44.7161 796.227 L47.5806 796.227 L47.5806 823.154 Q53.6281 822.772 56.8109 819.526 Q59.9619 816.247 59.9619 810.423 Q59.9619 807.049 59.1344 803.898 Q58.3069 800.715 56.6518 797.596 L62.1899 797.596 Q63.5267 800.747 64.227 804.057 Q64.9272 807.367 64.9272 810.773 Q64.9272 819.303 59.9619 824.3 Q54.9967 829.265 46.5303 829.265 Q37.7774 829.265 32.6531 824.555 Q27.4968 819.812 27.4968 811.791 Q27.4968 804.598 32.1438 800.429 Q36.7589 796.227 44.7161 796.227 M42.9973 802.084 Q38.1912 802.147 35.3266 804.789 Q32.4621 807.399 32.4621 811.728 Q32.4621 816.629 35.2312 819.589 Q38.0002 822.518 43.0292 822.963 L42.9973 802.084 Z" fill="#000000" fill-rule="nonzero" fill-opacity="1" /><path clip-path="url(#clip520)" d="M14.479 765.895 L14.479 760.038 L64.0042 760.038 L64.0042 765.895 L14.479 765.895 Z" fill="#000000" fill-rule="nonzero" fill-opacity="1" /><path clip-path="url(#clip520)" d="M44.7161 717.293 L47.5806 717.293 L47.5806 744.219 Q53.6281 743.838 56.8109 740.591 Q59.9619 737.313 59.9619 731.488 Q59.9619 728.114 59.1344 724.963 Q58.3069 721.78 56.6518 718.661 L62.1899 718.661 Q63.5267 721.812 64.227 725.122 Q64.9272 728.432 64.9272 731.838 Q64.9272 740.368 59.9619 745.365 Q54.9967 750.331 46.5303 750.331 Q37.7774 750.331 32.6531 745.62 Q27.4968 740.877 27.4968 732.857 Q27.4968 725.663 32.1438 721.494 Q36.7589 717.293 44.7161 717.293 M42.9973 723.149 Q38.1912 723.213 35.3266 725.854 Q32.4621 728.464 32.4621 732.793 Q32.4621 737.695 35.2312 740.655 Q38.0002 743.583 43.0292 744.028 L42.9973 723.149 Z" fill="#000000" fill-rule="nonzero" fill-opacity="1" /><path clip-path="url(#clip520)" d="M28.3562 711.882 L28.3562 705.675 L58.275 694.535 L28.3562 683.395 L28.3562 677.189 L64.0042 690.557 L64.0042 698.514 L28.3562 711.882 Z" fill="#000000" fill-rule="nonzero" fill-opacity="1" /><path clip-path="url(#clip520)" d="M44.7161 638.612 L47.5806 638.612 L47.5806 665.539 Q53.6281 665.157 56.8109 661.911 Q59.9619 658.633 59.9619 652.808 Q59.9619 649.434 59.1344 646.283 Q58.3069 643.1 56.6518 639.981 L62.1899 639.981 Q63.5267 643.132 64.227 646.442 Q64.9272 649.752 64.9272 653.158 Q64.9272 661.688 59.9619 666.685 Q54.9967 671.65 46.5303 671.65 Q37.7774 671.65 32.6531 666.94 Q27.4968 662.197 27.4968 654.177 Q27.4968 646.983 32.1438 642.814 Q36.7589 638.612 44.7161 638.612 M42.9973 644.469 Q38.1912 644.532 35.3266 647.174 Q32.4621 649.784 32.4621 654.113 Q32.4621 659.014 35.2312 661.975 Q38.0002 664.903 43.0292 665.348 L42.9973 644.469 Z" fill="#000000" fill-rule="nonzero" fill-opacity="1" /><path clip-path="url(#clip520)" d="M14.479 629 L14.479 623.144 L64.0042 623.144 L64.0042 629 L14.479 629 Z" fill="#000000" fill-rule="nonzero" fill-opacity="1" /><path clip-path="url(#clip520)" d="M14.479 590.71 L14.479 577.215 L19.0304 577.215 L19.0304 584.854 L68.0464 584.854 L68.0464 577.215 L72.5979 577.215 L72.5979 590.71 L14.479 590.71 Z" fill="#000000" fill-rule="nonzero" fill-opacity="1" /><path clip-path="url(#clip520)" d="M58.657 559.073 L77.5631 559.073 L77.5631 564.961 L28.3562 564.961 L28.3562 559.073 L33.7671 559.073 Q30.5842 557.227 29.0564 554.426 Q27.4968 551.593 27.4968 547.678 Q27.4968 541.185 32.6531 537.143 Q37.8093 533.069 46.212 533.069 Q54.6147 533.069 59.771 537.143 Q64.9272 541.185 64.9272 547.678 Q64.9272 551.593 63.3994 554.426 Q61.8398 557.227 58.657 559.073 M46.212 539.148 Q39.7508 539.148 36.0905 541.822 Q32.3984 544.464 32.3984 549.111 Q32.3984 553.758 36.0905 556.431 Q39.7508 559.073 46.212 559.073 Q52.6732 559.073 56.3653 556.431 Q60.0256 553.758 60.0256 549.111 Q60.0256 544.464 56.3653 541.822 Q52.6732 539.148 46.212 539.148 Z" fill="#000000" fill-rule="nonzero" fill-opacity="1" /><path clip-path="url(#clip520)" d="M55.9197 522.534 L55.9197 515.818 L64.0042 515.818 L64.0042 522.534 L55.9197 522.534 Z" fill="#000000" fill-rule="nonzero" fill-opacity="1" /><path clip-path="url(#clip520)" d="M49.9359 503.246 L28.3562 503.246 L28.3562 497.389 L49.7131 497.389 Q54.7739 497.389 57.3202 495.416 Q59.8346 493.442 59.8346 489.496 Q59.8346 484.753 56.8109 482.016 Q53.7872 479.247 48.5673 479.247 L28.3562 479.247 L28.3562 473.39 L64.0042 473.39 L64.0042 479.247 L58.5296 479.247 Q61.7762 481.379 63.3676 484.212 Q64.9272 487.013 64.9272 490.737 Q64.9272 496.88 61.1078 500.063 Q57.2883 503.246 49.9359 503.246 M27.4968 488.509 L27.4968 488.509 Z" fill="#000000" fill-rule="nonzero" fill-opacity="1" /><path clip-path="url(#clip520)" d="M55.9197 460.5 L55.9197 453.784 L64.0042 453.784 L64.0042 460.5 L55.9197 460.5 Z" fill="#000000" fill-rule="nonzero" fill-opacity="1" /><path clip-path="url(#clip520)" d="M14.479 426.921 L72.5979 426.921 L72.5979 440.416 L68.0464 440.416 L68.0464 432.809 L19.0304 432.809 L19.0304 440.416 L14.479 440.416 L14.479 426.921 Z" fill="#000000" fill-rule="nonzero" fill-opacity="1" /><polyline clip-path="url(#clip521)" style="stroke:#009af9; stroke-linecap:round; stroke-linejoin:round; stroke-width:12; stroke-opacity:1; fill:none" points="280.231,800.616 285.759,795.727 291.287,790.838 296.815,785.949 302.343,782.317 307.871,781.351 313.399,776.462 318.926,771.572 324.454,766.683 329.982,761.794 335.51,756.904 341.038,752.015 346.566,747.126 352.094,742.237 357.622,737.347 363.15,732.458 368.678,727.569 374.206,727.999 379.733,734.146 385.261,737.057 390.789,739.957 396.317,746.104 401.845,749.061 407.373,745.066 412.901,746.889 418.429,743.481 423.957,742.207 429.485,737.318 435.013,732.428 440.541,727.539 446.068,726.229 451.596,721.477 457.124,720.82 462.652,724.421 468.18,729.919 473.708,733.135 479.236,728.246 484.764,723.357 490.292,718.467 495.82,715.295 501.348,715.126 506.875,718.978 512.403,721.532 517.931,723 523.459,725.913 528.987,721.508 534.515,717.058 540.043,712.661 545.571,707.947 551.099,703.057 556.627,698.543 562.155,696.448 567.683,692.928 573.21,688.039 578.738,684.286 584.266,686.839 589.794,687.687 595.322,690.125 600.85,690.471 606.378,685.582 611.906,680.692 617.434,675.852 622.962,675.18 628.49,676.764 634.017,672.579 639.545,667.69 645.073,662.967 650.601,663.807 656.129,660.489 661.657,661.845 667.185,661.064 672.713,657.082 678.241,653.949 683.769,650.642 689.297,646.736 694.824,643.74 700.352,648.168 705.88,652.715 711.408,657.059 716.936,655.019 722.464,655.578 727.992,652.145 733.52,656.526 739.048,659.072 744.576,654.872 750.104,653.97 755.632,652.816 761.159,647.927 766.687,643.038 772.215,638.148 777.743,633.547 783.271,630.012 788.799,634.358 794.327,637.965 799.855,643.022 805.383,647.618 810.911,644.724 816.439,643.172 821.966,641.248 827.494,641.964 833.022,641.9 838.55,638.398 844.078,635.439 849.606,632.236 855.134,629.635 860.662,627.153 866.19,625.553 871.718,626.717 877.246,625.572 882.773,623.075 888.301,622.122 893.829,622.005 899.357,620.459 904.885,621.011 910.413,623.736 915.941,629.148 921.469,635.21 926.997,638.92 932.525,636.64 938.053,635.094 943.581,633.548 949.108,632.002 954.636,632.596 960.164,631.05 965.692,629.504 971.22,627.73 976.748,626.184 982.276,624.638 987.804,623.092 993.332,621.546 998.86,620 1004.39,618.454 1009.92,616.908 1015.44,617.896 1020.97,619.369 1026.5,618.918 1032.03,617.372 1037.56,615.826 1043.08,614.28 1048.61,617.149 1054.14,620.878 1059.67,620.861 1065.19,620.29 1070.72,623.067 1076.25,627.02 1081.78,627.841 1087.31,627.405 1092.83,625.859 1098.36,625.5 1103.89,623.954 1109.42,622.355 1114.95,620.809 1120.47,619.263 1126,617.717 1131.53,616.171 1137.06,615.977 1142.59,614.431 1148.11,612.885 1153.64,611.339 1159.17,611.844 1164.7,610.298 1170.22,610.964 1175.75,614.693 1181.28,618.971 1186.81,617.425 1192.34,616.85 1197.86,620.174 1203.39,621.091 1208.92,619.342 1214.45,620.864 1219.98,627.01 1225.5,633.157 1231.03,638.878 1236.56,640.036 1242.09,638.49 1247.62,638.472 1253.14,643.462 1258.67,649.608 1264.2,655.755 1269.73,660.607 1275.26,665.866 1280.78,669.713 1286.31,672.625 1291.84,676.201 1297.37,680.955 1302.89,687.101 1308.42,685.555 1313.95,684.009 1319.48,681.65 1325.01,679.687 1330.53,678.141 1336.06,681.982 1341.59,688.047 1347.12,694.194 1352.65,700.34 1358.17,705.2 1363.7,709.608 1369.23,712.647 1374.76,712.125 1380.29,715.43 1385.81,719.123 1391.34,719.752 1396.87,720.734 1402.4,722.473 1407.93,727.139 1413.45,725.937 1418.98,723.708 1424.51,725.91 1430.04,729.554 1435.56,729.269 1441.09,730.284 1446.62,731.987 1452.15,737.209 1457.68,743.356 1463.2,749.347 1468.73,754.115 1474.26,758.569 1479.79,764.716 1485.32,770.863 1490.84,777.01 1496.37,783.157 1501.9,789.304 1507.43,795.451 1512.96,801.598 1518.48,805.555 1524.01,809.21 1529.54,813.054 1535.07,814.704 1540.6,813.795 1546.12,813.82 1551.65,818.774 1557.18,824.921 1562.71,831.068 1568.23,836.929 1573.76,838.684 1579.29,837.603 1584.82,834.891 1590.35,834.646 1595.87,833.602 1601.4,833.306 1606.93,834.508 1612.46,840.655 1617.99,846.801 1623.51,848.021 1629.04,847.579 1634.57,853.726 1640.1,859.873 1645.63,858.437 1651.15,858.006 1656.68,857.303 1662.21,858.284 1667.74,864.431 1673.26,870.577 1678.79,873.501 1684.32,871.188 1689.85,871.213 1695.38,867.621 1700.9,864.27 1706.43,867.188 1711.96,864.562 1717.49,861.76 1723.02,863.98 1728.54,870.127 1734.07,876.273 1739.6,880.735 1745.13,885.892 1750.66,888.831 1756.18,894.597 1761.71,900.744 1767.24,904.635 1772.77,907.172 1778.3,911.048 1783.82,912.914 1789.35,910.025 1794.88,907.666 1800.41,913.813 1805.93,919.96 1811.46,924.645 1816.99,921.873 1822.52,920.123 1828.05,925.399 1833.57,931.546 1839.1,937.693 1844.63,941.386 1850.16,946.971 1855.69,950.145 1861.21,953.125 1866.74,951.953 1872.27,951.963 1877.8,958.11 1883.33,964.257 1888.85,970.403 1894.38,976.55 1899.91,979.835 1905.44,976.059 1910.97,972.978 1916.49,975.758 1922.02,973.878 1927.55,975.329 1933.08,977.758 1938.6,979.39 1944.13,983.894 1949.66,987.695 1955.19,986.465 1960.72,984.747 1966.24,984.478 1971.77,990.181 1977.3,996.328 1982.83,1002.29 1988.36,1005.12 1993.88,1002.51 1999.41,998.402 2004.94,993.512 2010.47,988.805 2016,984.595 2021.52,981.508 2027.05,976.938 2032.58,972.048 2038.11,971.173 2043.64,968.389 2049.16,964.627 2054.69,959.866 2060.22,954.976 2065.75,952.856 2071.27,950.959 2076.8,949.995 2082.33,954.61 2087.86,949.915 2093.39,945.375 2098.91,944.947 2104.44,940.058 2109.97,935.169 2115.5,930.279 2121.03,925.39 2126.55,920.501 2132.08,916.565 2137.61,912.583 2143.14,907.693 2148.67,902.804 2154.19,897.915 2159.72,893.026 2165.25,888.902 2170.78,884.013 2176.3,879.124 2181.83,874.234 2187.36,869.712 2192.89,870.984 2198.42,873.443 2203.94,876.227 2209.47,872.831 2215,867.942 2220.53,863.053 2226.06,858.163 2231.58,853.274 2237.11,848.385 2242.64,843.495 2248.17,838.606 2253.7,833.717 2259.22,828.828 2264.75,824.055 2270.28,821.188 2275.81,818.687 2281.34,815.284 2286.86,810.395 2292.39,805.506 "/>
<polyline clip-path="url(#clip521)" style="stroke:#e26f46; stroke-linecap:round; stroke-linejoin:round; stroke-width:12; stroke-opacity:1; fill:none" points="280.231,795.532 285.759,785.559 291.287,775.585 296.815,765.611 302.343,756.254 307.871,748.201 313.399,738.227 318.926,728.254 324.454,718.28 329.982,708.306 335.51,698.333 341.038,688.359 346.566,678.386 352.094,668.412 357.622,658.438 363.15,648.465 368.678,638.491 374.206,631.122 379.733,626.552 385.261,620.397 390.789,614.237 396.317,609.667 401.845,603.535 407.373,593.999 412.901,587.312 418.429,578.063 423.957,569.86 429.485,559.886 435.013,549.913 440.541,539.939 446.068,531.718 451.596,521.812 457.124,513.91 462.652,508.094 468.18,503.205 473.708,497.2 479.236,487.227 484.764,477.253 490.292,467.28 495.82,458.146 501.348,450.484 506.875,444.79 512.403,438.461 517.931,431.6 523.459,425.446 528.987,419.8 534.515,413.748 540.043,405.416 545.571,397.005 551.099,387.031 556.627,380.41 562.155,371.804 567.683,363.559 573.21,353.585 578.738,344.168 584.266,337.838 589.794,330.674 595.322,324.287 600.85,316.877 606.378,306.904 611.906,296.93 617.434,287.392 622.962,279.483 628.49,272.679 634.017,263.05 639.545,253.077 645.073,244.59 650.601,237.422 656.129,241.5 661.657,237.166 667.185,229.204 672.713,227.339 678.241,222.603 683.769,215.03 689.297,213.849 694.824,220.803 700.352,215.39 705.88,210.037 711.408,204.584 716.936,196.005 722.464,188.699 727.992,188.427 733.52,182.992 739.048,176.658 744.576,167.022 750.104,159.001 755.632,150.856 761.159,140.882 766.687,130.909 772.215,120.935 777.743,111.102 783.271,107.38 788.799,101.928 794.327,96.6193 799.855,91.5154 805.383,86.1857 810.911,94.0456 816.439,102.668 821.966,113.867 827.494,120.465 833.022,115.678 838.55,118.105 844.078,125.388 849.606,130.485 855.134,140.964 860.662,152.506 866.19,157.176 871.718,154.142 877.246,164.364 882.773,175.773 888.301,187.288 893.829,198.59 899.357,218.5 904.885,231.733 910.413,232.698 915.941,230.465 921.469,226.166 926.997,226.666 932.525,240.019 938.053,259.93 943.581,279.84 949.108,299.75 954.636,312.85 960.164,332.761 965.692,352.671 971.22,370.539 976.748,390.449 982.276,410.36 987.804,430.27 993.332,450.18 998.86,470.091 1004.39,490.001 1009.92,509.912 1015.44,521.759 1020.97,532.061 1026.5,548.487 1032.03,568.397 1037.56,588.308 1043.08,608.218 1048.61,614.077 1054.14,617.201 1059.67,632.246 1065.19,649.053 1070.72,655.206 1076.25,657.619 1081.78,669.995 1087.31,686.373 1092.83,706.284 1098.36,722.419 1103.89,742.329 1109.42,761.767 1114.95,781.677 1120.47,801.587 1126,821.498 1131.53,841.408 1137.06,857.014 1142.59,876.924 1148.11,896.834 1153.64,916.745 1159.17,930.129 1164.7,950.039 1170.22,962.911 1175.75,966.034 1181.28,967.411 1186.81,987.321 1192.34,1004.14 1197.86,1008.55 1203.39,1020.63 1208.92,1038.72 1214.45,1048.87 1219.98,1044.3 1225.5,1039.73 1231.03,1036.52 1236.56,1047.82 1242.09,1067.73 1247.62,1082.78 1253.14,1081.89 1258.67,1077.32 1264.2,1072.75 1269.73,1072.3 1275.26,1070.56 1280.78,1073.31 1286.31,1079.03 1291.84,1082.64 1297.37,1082.51 1302.89,1077.94 1308.42,1097.85 1313.95,1117.76 1319.48,1130.4 1325.01,1146.58 1330.53,1166.49 1336.06,1169.26 1341.59,1164.95 1347.12,1160.38 1352.65,1155.81 1358.17,1155.34 1363.7,1156.3 1369.23,1161.62 1374.76,1178.27 1380.29,1182.74 1385.81,1185.98 1391.34,1198.97 1396.87,1210.84 1402.4,1220.29 1407.93,1220.43 1413.45,1234.17 1418.98,1247.98 1424.51,1246.74 1430.04,1247.97 1435.56,1261.9 1441.09,1273.66 1446.62,1283.23 1452.15,1281.6 1457.68,1277.03 1463.2,1272.96 1468.73,1272.78 1474.26,1273.59 1479.79,1269.02 1485.32,1264.45 1490.84,1259.88 1496.37,1255.31 1501.9,1250.74 1507.43,1246.17 1512.96,1241.6 1518.48,1244 1524.01,1247.36 1529.54,1250.11 1535.07,1259.85 1540.6,1277.14 1546.12,1292.05 1551.65,1291.28 1557.18,1286.71 1562.71,1282.14 1568.23,1278.48 1573.76,1279.85 1579.29,1290.42 1584.82,1299.9 1590.35,1308.53 1595.87,1316.87 1601.4,1327.67 1606.93,1338.83 1612.46,1334.26 1617.99,1329.69 1623.51,1338.05 1629.04,1353.31 1634.57,1348.74 1640.1,1344.17 1645.63,1350.24 1651.15,1355.71 1656.68,1366.86 1662.21,1378.73 1667.74,1374.16 1673.26,1369.59 1678.79,1368.32 1684.32,1372.57 1689.85,1376.63 1695.38,1378.26 1700.9,1380.25 1706.43,1374.1 1711.96,1373.62 1717.49,1382.3 1723.02,1384.24 1728.54,1379.67 1734.07,1375.1 1739.6,1371.17 1745.13,1366.12 1750.66,1359.98 1756.18,1356.62 1761.71,1352.05 1767.24,1346.37 1772.77,1340.04 1778.3,1334.35 1783.82,1329.94 1789.35,1337.84 1794.88,1350.49 1800.41,1345.92 1805.93,1341.35 1811.46,1336.06 1816.99,1343.89 1822.52,1349.18 1828.05,1347.38 1833.57,1342.81 1839.1,1338.24 1844.63,1332.47 1850.16,1329.69 1855.69,1330.53 1861.21,1331.51 1866.74,1338.43 1872.27,1344.53 1877.8,1339.96 1883.33,1335.39 1888.85,1330.82 1894.38,1326.25 1899.91,1320.28 1905.44,1320.26 1910.97,1326.45 1916.49,1320.63 1922.02,1328.23 1927.55,1323.21 1933.08,1318.74 1938.6,1316.98 1944.13,1311.6 1949.66,1305.88 1955.19,1300.23 1960.72,1304.5 1966.24,1307.4 1971.77,1302.61 1977.3,1298.04 1982.83,1293.38 1988.36,1287.19 1993.88,1281.68 1999.41,1278.71 2004.94,1268.74 2010.47,1260.39 2016,1256.49 2021.52,1254.68 2027.05,1247.56 2032.58,1237.58 2038.11,1229.57 2043.64,1220.63 2049.16,1212.92 2054.69,1204.1 2060.22,1194.12 2065.75,1185.5 2071.27,1177 2076.8,1168.94 2082.33,1163.62 2087.86,1155.4 2093.39,1145.59 2098.91,1137.8 2104.44,1127.83 2109.97,1117.86 2115.5,1107.88 2121.03,1097.91 2126.55,1087.94 2132.08,1079.69 2137.61,1070.17 2143.14,1060.19 2148.67,1050.22 2154.19,1040.24 2159.72,1030.27 2165.25,1020.67 2170.78,1010.7 2176.3,1000.72 2181.83,990.751 2187.36,980.957 2192.89,974 2198.42,967.625 2203.94,961.408 2209.47,952.165 2215,942.192 2220.53,932.218 2226.06,922.245 2231.58,912.271 2237.11,902.297 2242.64,892.324 2248.17,882.35 2253.7,872.377 2259.22,862.403 2264.75,852.486 2270.28,843.503 2275.81,834.699 2281.34,825.453 2286.86,815.479 2292.39,805.506 "/>
<polyline clip-path="url(#clip521)" style="stroke:#3da44d; stroke-linecap:round; stroke-linejoin:round; stroke-width:12; stroke-opacity:1; fill:none" points="280.231,648.695 285.759,649.67 291.287,650.646 296.815,651.622 302.343,652.467 307.871,653.037 313.399,654.012 318.926,654.988 324.454,655.964 329.982,656.939 335.51,657.915 341.038,658.891 346.566,659.866 352.094,660.842 357.622,661.818 363.15,662.793 368.678,663.769 374.206,664.194 379.733,664.027 385.261,664.196 390.789,664.365 396.317,664.198 401.845,664.362 407.373,665.245 412.901,665.526 418.429,666.348 423.957,666.95 429.485,667.925 435.013,668.901 440.541,669.877 446.068,670.482 451.596,671.443 457.124,671.981 462.652,672.078 468.18,671.978 473.708,672.115 479.236,673.091 484.764,674.066 490.292,675.042 495.82,675.84 501.348,676.327 506.875,676.398 512.403,676.603 517.931,676.921 523.459,677.089 528.987,677.761 534.515,678.461 540.043,679.299 545.571,680.165 551.099,681.141 556.627,681.882 562.155,682.568 567.683,683.337 573.21,684.312 578.738,685.17 584.266,685.376 589.794,685.757 595.322,685.975 600.85,686.408 606.378,687.384 611.906,688.36 617.434,689.305 622.962,689.844 628.49,690.149 634.017,691.052 639.545,692.028 645.073,692.899 650.601,693.282 656.129,693.272 661.657,693.441 667.185,693.992 672.713,694.399 678.241,694.921 683.769,695.633 689.297,695.992 694.824,695.78 700.352,695.791 705.88,695.79 711.408,695.81 716.936,696.491 722.464,696.903 727.992,697.171 733.52,697.187 739.048,697.393 744.576,698.297 750.104,698.86 755.632,699.449 761.159,700.425 766.687,701.4 772.215,702.376 777.743,703.322 783.271,703.811 788.799,703.831 794.327,703.896 799.855,703.842 805.383,703.836 810.911,703.561 816.439,703.14 821.966,702.587 827.494,702.126 833.022,702.427 838.55,702.533 844.078,702.298 849.606,702.217 855.134,701.758 860.662,701.225 866.19,701.053 871.718,701.155 877.246,700.606 882.773,700.082 888.301,699.438 893.829,698.747 899.357,697.626 904.885,696.766 910.413,696.507 915.941,696.249 921.469,696.072 926.997,695.769 932.525,695.109 938.053,693.989 943.581,692.868 949.108,691.748 954.636,690.893 960.164,689.773 965.692,688.652 971.22,687.675 976.748,686.555 982.276,685.435 987.804,684.314 993.332,683.194 998.86,682.074 1004.39,680.953 1009.92,679.833 1015.44,679.027 1020.97,678.281 1026.5,677.296 1032.03,676.176 1037.56,675.055 1043.08,673.935 1048.61,673.362 1054.14,672.896 1059.67,671.965 1065.19,670.965 1070.72,670.381 1076.25,669.942 1081.78,669.115 1087.31,668.133 1092.83,667.012 1098.36,666.039 1103.89,664.919 1109.42,663.832 1114.95,662.711 1120.47,661.591 1126,660.471 1131.53,659.35 1137.06,658.398 1142.59,657.277 1148.11,656.157 1153.64,655.037 1159.17,654.171 1164.7,653.05 1170.22,652.204 1175.75,651.738 1181.28,651.339 1186.81,650.219 1192.34,649.219 1197.86,648.702 1203.39,647.887 1208.92,646.894 1214.45,646.154 1219.98,645.988 1225.5,645.821 1231.03,645.601 1236.56,644.816 1242.09,643.696 1247.62,642.765 1253.14,642.455 1258.67,642.288 1264.2,642.121 1269.73,641.794 1275.26,641.517 1280.78,641.066 1286.31,640.498 1291.84,640.013 1297.37,639.673 1302.89,639.506 1308.42,638.386 1313.95,637.266 1319.48,636.655 1325.01,635.796 1330.53,634.676 1336.06,634.223 1341.59,634.047 1347.12,633.88 1352.65,633.713 1358.17,633.387 1363.7,633.005 1369.23,632.453 1374.76,631.459 1380.29,630.94 1385.81,630.47 1391.34,629.619 1396.87,628.812 1402.4,628.099 1407.93,627.749 1413.45,626.985 1418.98,626.293 1424.51,626.209 1430.04,625.866 1435.56,625.024 1441.09,624.221 1446.62,623.503 1452.15,623.222 1457.68,623.055 1463.2,622.869 1468.73,622.532 1474.26,622.155 1479.79,621.989 1485.32,621.822 1490.84,621.655 1496.37,621.488 1501.9,621.322 1507.43,621.155 1512.96,620.988 1518.48,620.55 1524.01,620.075 1529.54,619.623 1535.07,618.898 1540.6,617.894 1546.12,616.968 1551.65,616.654 1557.18,616.487 1562.71,616.32 1568.23,616.118 1573.76,615.905 1579.29,615.329 1584.82,614.94 1590.35,614.424 1595.87,613.983 1601.4,613.336 1606.93,612.556 1612.46,612.39 1617.99,612.223 1623.51,611.616 1629.04,610.703 1634.57,610.536 1640.1,610.369 1645.63,610.099 1651.15,609.791 1656.68,609.152 1662.21,608.345 1667.74,608.178 1673.26,608.011 1678.79,607.876 1684.32,607.782 1689.85,607.529 1695.38,607.691 1700.9,607.813 1706.43,607.98 1711.96,608.202 1717.49,607.869 1723.02,607.587 1728.54,607.42 1734.07,607.253 1739.6,607.17 1745.13,607.106 1750.66,607.271 1756.18,607.057 1761.71,606.89 1767.24,606.957 1772.77,607.164 1778.3,607.233 1783.82,607.37 1789.35,607.091 1794.88,606.481 1800.41,606.314 1805.93,606.147 1811.46,606.132 1816.99,605.85 1822.52,605.65 1828.05,605.375 1833.57,605.209 1839.1,605.042 1844.63,605.129 1850.16,604.893 1855.69,604.608 1861.21,604.33 1866.74,603.987 1872.27,603.608 1877.8,603.442 1883.33,603.275 1888.85,603.108 1894.38,602.941 1899.91,603.071 1905.44,603.349 1910.97,603.191 1916.49,603.348 1922.02,603.014 1927.55,603.219 1933.08,603.318 1938.6,603.308 1944.13,603.311 1949.66,603.387 1955.19,603.827 1960.72,603.689 1966.24,603.529 1971.77,603.408 1977.3,603.241 1982.83,603.094 1988.36,603.271 1993.88,603.803 1999.41,604.287 2004.94,605.263 2010.47,606.124 2016,606.674 2021.52,607.012 2027.05,607.788 2032.58,608.764 2038.11,609.324 2043.64,610.082 2049.16,610.835 2054.69,611.73 2060.22,612.705 2065.75,613.395 2071.27,614.06 2076.8,614.63 2082.33,614.622 2087.86,615.475 2093.39,616.415 2098.91,616.928 2104.44,617.904 2109.97,618.88 2115.5,619.855 2121.03,620.831 2126.55,621.807 2132.08,622.605 2137.61,623.487 2143.14,624.463 2148.67,625.438 2154.19,626.414 2159.72,627.39 2165.25,628.286 2170.78,629.262 2176.3,630.238 2181.83,631.213 2187.36,632.151 2192.89,632.489 2198.42,632.704 2203.94,632.885 2209.47,633.706 2215,634.682 2220.53,635.658 2226.06,636.633 2231.58,637.609 2237.11,638.585 2242.64,639.56 2248.17,640.536 2253.7,641.512 2259.22,642.487 2264.75,643.451 2270.28,644.217 2275.81,644.946 2281.34,645.768 2286.86,646.743 2292.39,647.719 "/>
<path clip-path="url(#clip520)" d="M1588.54 300.469 L2281.66 300.469 L2281.66 93.1086 L1588.54 93.1086  Z" fill="#ffffff" fill-rule="evenodd" fill-opacity="1"/>
<polyline clip-path="url(#clip520)" style="stroke:#000000; stroke-linecap:round; stroke-linejoin:round; stroke-width:4; stroke-opacity:1; fill:none" points="1588.54,300.469 2281.66,300.469 2281.66,93.1086 1588.54,93.1086 1588.54,300.469 "/>
<polyline clip-path="url(#clip520)" style="stroke:#009af9; stroke-linecap:round; stroke-linejoin:round; stroke-width:12; stroke-opacity:1; fill:none" points="1612.23,144.949 1754.43,144.949 "/>
<path clip-path="url(#clip520)" d="M1778.13 127.669 L1799.98 127.669 L1799.98 131.604 L1782.8 131.604 L1782.8 141.835 L1799.26 141.835 L1799.26 145.77 L1782.8 145.77 L1782.8 158.293 L1800.39 158.293 L1800.39 162.229 L1778.13 162.229 L1778.13 127.669 Z" fill="#000000" fill-rule="nonzero" fill-opacity="1" /><path clip-path="url(#clip520)" d="M1828.8 128.803 L1828.8 133.363 Q1826.13 132.09 1823.77 131.465 Q1821.41 130.84 1819.21 130.84 Q1815.39 130.84 1813.31 132.321 Q1811.25 133.803 1811.25 136.534 Q1811.25 138.826 1812.62 140.007 Q1814 141.164 1817.85 141.882 L1820.67 142.46 Q1825.9 143.456 1828.38 145.979 Q1830.88 148.479 1830.88 152.692 Q1830.88 157.715 1827.5 160.307 Q1824.14 162.9 1817.64 162.9 Q1815.19 162.9 1812.41 162.344 Q1809.65 161.789 1806.69 160.701 L1806.69 155.886 Q1809.54 157.483 1812.27 158.293 Q1815 159.104 1817.64 159.104 Q1821.64 159.104 1823.82 157.53 Q1826 155.956 1826 153.039 Q1826 150.493 1824.42 149.057 Q1822.87 147.622 1819.31 146.905 L1816.46 146.349 Q1811.23 145.307 1808.89 143.085 Q1806.55 140.863 1806.55 136.905 Q1806.55 132.321 1809.77 129.682 Q1813.01 127.044 1818.68 127.044 Q1821.11 127.044 1823.63 127.483 Q1826.16 127.923 1828.8 128.803 Z" fill="#000000" fill-rule="nonzero" fill-opacity="1" /><path clip-path="url(#clip520)" d="M1857.69 170.099 L1857.69 173.409 L1833.06 173.409 L1833.06 170.099 L1857.69 170.099 Z" fill="#000000" fill-rule="nonzero" fill-opacity="1" /><path clip-path="url(#clip520)" d="M1861.87 127.669 L1866.55 127.669 L1866.55 141.835 L1883.54 141.835 L1883.54 127.669 L1888.22 127.669 L1888.22 162.229 L1883.54 162.229 L1883.54 145.77 L1866.55 145.77 L1866.55 162.229 L1861.87 162.229 L1861.87 127.669 Z" fill="#000000" fill-rule="nonzero" fill-opacity="1" /><path clip-path="url(#clip520)" d="M1908.12 164.636 Q1906.32 169.266 1904.61 170.678 Q1902.89 172.09 1900.02 172.09 L1896.62 172.09 L1896.62 168.525 L1899.12 168.525 Q1900.88 168.525 1901.85 167.692 Q1902.82 166.858 1904 163.756 L1904.77 161.812 L1894.28 136.303 L1898.8 136.303 L1906.9 156.581 L1915 136.303 L1919.51 136.303 L1908.12 164.636 Z" fill="#000000" fill-rule="nonzero" fill-opacity="1" /><path clip-path="url(#clip520)" d="M1942.45 140.238 L1942.45 126.21 L1946.71 126.21 L1946.71 162.229 L1942.45 162.229 L1942.45 158.34 Q1941.11 160.655 1939.05 161.789 Q1937.01 162.9 1934.14 162.9 Q1929.44 162.9 1926.48 159.15 Q1923.54 155.4 1923.54 149.289 Q1923.54 143.178 1926.48 139.428 Q1929.44 135.678 1934.14 135.678 Q1937.01 135.678 1939.05 136.812 Q1941.11 137.923 1942.45 140.238 M1927.94 149.289 Q1927.94 153.988 1929.86 156.673 Q1931.81 159.335 1935.18 159.335 Q1938.56 159.335 1940.51 156.673 Q1942.45 153.988 1942.45 149.289 Q1942.45 144.59 1940.51 141.928 Q1938.56 139.243 1935.18 139.243 Q1931.81 139.243 1929.86 141.928 Q1927.94 144.59 1927.94 149.289 Z" fill="#000000" fill-rule="nonzero" fill-opacity="1" /><path clip-path="url(#clip520)" d="M1970.51 140.284 Q1969.79 139.868 1968.93 139.682 Q1968.1 139.474 1967.08 139.474 Q1963.47 139.474 1961.53 141.835 Q1959.61 144.173 1959.61 148.571 L1959.61 162.229 L1955.32 162.229 L1955.32 136.303 L1959.61 136.303 L1959.61 140.331 Q1960.95 137.969 1963.1 136.835 Q1965.25 135.678 1968.33 135.678 Q1968.77 135.678 1969.3 135.747 Q1969.84 135.794 1970.49 135.909 L1970.51 140.284 Z" fill="#000000" fill-rule="nonzero" fill-opacity="1" /><path clip-path="url(#clip520)" d="M1983.98 139.289 Q1980.55 139.289 1978.56 141.974 Q1976.57 144.636 1976.57 149.289 Q1976.57 153.942 1978.54 156.627 Q1980.53 159.289 1983.98 159.289 Q1987.38 159.289 1989.37 156.604 Q1991.37 153.918 1991.37 149.289 Q1991.37 144.682 1989.37 141.997 Q1987.38 139.289 1983.98 139.289 M1983.98 135.678 Q1989.54 135.678 1992.71 139.289 Q1995.88 142.9 1995.88 149.289 Q1995.88 155.655 1992.71 159.289 Q1989.54 162.9 1983.98 162.9 Q1978.4 162.9 1975.23 159.289 Q1972.08 155.655 1972.08 149.289 Q1972.08 142.9 1975.23 139.289 Q1978.4 135.678 1983.98 135.678 Z" fill="#000000" fill-rule="nonzero" fill-opacity="1" /><path clip-path="url(#clip520)" d="M2022.64 170.099 L2022.64 173.409 L1998.01 173.409 L1998.01 170.099 L2022.64 170.099 Z" fill="#000000" fill-rule="nonzero" fill-opacity="1" /><path clip-path="url(#clip520)" d="M2043.22 146.025 Q2044.72 146.534 2046.13 148.201 Q2047.57 149.868 2049 152.784 L2053.75 162.229 L2048.73 162.229 L2044.3 153.363 Q2042.59 149.891 2040.97 148.756 Q2039.37 147.622 2036.6 147.622 L2031.5 147.622 L2031.5 162.229 L2026.83 162.229 L2026.83 127.669 L2037.38 127.669 Q2043.31 127.669 2046.23 130.145 Q2049.14 132.622 2049.14 137.622 Q2049.14 140.886 2047.61 143.039 Q2046.11 145.192 2043.22 146.025 M2031.5 131.511 L2031.5 143.78 L2037.38 143.78 Q2040.76 143.78 2042.48 142.229 Q2044.21 140.655 2044.21 137.622 Q2044.21 134.59 2042.48 133.062 Q2040.76 131.511 2037.38 131.511 L2031.5 131.511 Z" fill="#000000" fill-rule="nonzero" fill-opacity="1" /><path clip-path="url(#clip520)" d="M2079.63 148.201 L2079.63 150.284 L2060.05 150.284 Q2060.32 154.682 2062.68 156.997 Q2065.07 159.289 2069.3 159.289 Q2071.76 159.289 2074.05 158.687 Q2076.36 158.085 2078.63 156.881 L2078.63 160.909 Q2076.34 161.881 2073.93 162.391 Q2071.53 162.9 2069.05 162.9 Q2062.85 162.9 2059.21 159.289 Q2055.6 155.678 2055.6 149.52 Q2055.6 143.155 2059.03 139.428 Q2062.48 135.678 2068.31 135.678 Q2073.54 135.678 2076.57 139.057 Q2079.63 142.414 2079.63 148.201 M2075.37 146.951 Q2075.32 143.456 2073.4 141.372 Q2071.5 139.289 2068.36 139.289 Q2064.79 139.289 2062.64 141.303 Q2060.51 143.317 2060.18 146.974 L2075.37 146.951 Z" fill="#000000" fill-rule="nonzero" fill-opacity="1" /><path clip-path="url(#clip520)" d="M2103.15 137.067 L2103.15 141.094 Q2101.34 140.169 2099.4 139.706 Q2097.45 139.243 2095.37 139.243 Q2092.2 139.243 2090.6 140.215 Q2089.03 141.187 2089.03 143.131 Q2089.03 144.613 2090.16 145.469 Q2091.3 146.303 2094.72 147.067 L2096.18 147.391 Q2100.72 148.363 2102.61 150.145 Q2104.54 151.905 2104.54 155.076 Q2104.54 158.687 2101.67 160.793 Q2098.82 162.9 2093.82 162.9 Q2091.73 162.9 2089.47 162.483 Q2087.22 162.09 2084.72 161.28 L2084.72 156.881 Q2087.08 158.108 2089.37 158.733 Q2091.67 159.335 2093.91 159.335 Q2096.92 159.335 2098.54 158.317 Q2100.16 157.275 2100.16 155.4 Q2100.16 153.664 2098.98 152.738 Q2097.82 151.812 2093.86 150.956 L2092.38 150.608 Q2088.42 149.775 2086.67 148.062 Q2084.91 146.326 2084.91 143.317 Q2084.91 139.659 2087.5 137.669 Q2090.09 135.678 2094.86 135.678 Q2097.22 135.678 2099.3 136.025 Q2101.39 136.372 2103.15 137.067 Z" fill="#000000" fill-rule="nonzero" fill-opacity="1" /><path clip-path="url(#clip520)" d="M2133.49 148.201 L2133.49 150.284 L2113.91 150.284 Q2114.19 154.682 2116.55 156.997 Q2118.93 159.289 2123.17 159.289 Q2125.62 159.289 2127.92 158.687 Q2130.23 158.085 2132.5 156.881 L2132.5 160.909 Q2130.21 161.881 2127.8 162.391 Q2125.39 162.9 2122.92 162.9 Q2116.71 162.9 2113.08 159.289 Q2109.47 155.678 2109.47 149.52 Q2109.47 143.155 2112.89 139.428 Q2116.34 135.678 2122.17 135.678 Q2127.41 135.678 2130.44 139.057 Q2133.49 142.414 2133.49 148.201 M2129.23 146.951 Q2129.19 143.456 2127.27 141.372 Q2125.37 139.289 2122.22 139.289 Q2118.66 139.289 2116.5 141.303 Q2114.37 143.317 2114.05 146.974 L2129.23 146.951 Z" fill="#000000" fill-rule="nonzero" fill-opacity="1" /><path clip-path="url(#clip520)" d="M2155.51 140.284 Q2154.79 139.868 2153.93 139.682 Q2153.1 139.474 2152.08 139.474 Q2148.47 139.474 2146.53 141.835 Q2144.6 144.173 2144.6 148.571 L2144.6 162.229 L2140.32 162.229 L2140.32 136.303 L2144.6 136.303 L2144.6 140.331 Q2145.95 137.969 2148.1 136.835 Q2150.25 135.678 2153.33 135.678 Q2153.77 135.678 2154.3 135.747 Q2154.84 135.794 2155.48 135.909 L2155.51 140.284 Z" fill="#000000" fill-rule="nonzero" fill-opacity="1" /><path clip-path="url(#clip520)" d="M2156.92 136.303 L2161.43 136.303 L2169.54 158.062 L2177.64 136.303 L2182.15 136.303 L2172.43 162.229 L2166.64 162.229 L2156.92 136.303 Z" fill="#000000" fill-rule="nonzero" fill-opacity="1" /><path clip-path="url(#clip520)" d="M2198.08 139.289 Q2194.65 139.289 2192.66 141.974 Q2190.67 144.636 2190.67 149.289 Q2190.67 153.942 2192.64 156.627 Q2194.63 159.289 2198.08 159.289 Q2201.48 159.289 2203.47 156.604 Q2205.46 153.918 2205.46 149.289 Q2205.46 144.682 2203.47 141.997 Q2201.48 139.289 2198.08 139.289 M2198.08 135.678 Q2203.63 135.678 2206.8 139.289 Q2209.97 142.9 2209.97 149.289 Q2209.97 155.655 2206.8 159.289 Q2203.63 162.9 2198.08 162.9 Q2192.5 162.9 2189.33 159.289 Q2186.18 155.655 2186.18 149.289 Q2186.18 142.9 2189.33 139.289 Q2192.5 135.678 2198.08 135.678 Z" fill="#000000" fill-rule="nonzero" fill-opacity="1" /><path clip-path="url(#clip520)" d="M2217.04 136.303 L2221.29 136.303 L2221.29 162.229 L2217.04 162.229 L2217.04 136.303 M2217.04 126.21 L2221.29 126.21 L2221.29 131.604 L2217.04 131.604 L2217.04 126.21 Z" fill="#000000" fill-rule="nonzero" fill-opacity="1" /><path clip-path="url(#clip520)" d="M2245.23 140.284 Q2244.51 139.868 2243.66 139.682 Q2242.82 139.474 2241.8 139.474 Q2238.19 139.474 2236.25 141.835 Q2234.33 144.173 2234.33 148.571 L2234.33 162.229 L2230.04 162.229 L2230.04 136.303 L2234.33 136.303 L2234.33 140.331 Q2235.67 137.969 2237.82 136.835 Q2239.97 135.678 2243.05 135.678 Q2243.49 135.678 2244.03 135.747 Q2244.56 135.794 2245.21 135.909 L2245.23 140.284 Z" fill="#000000" fill-rule="nonzero" fill-opacity="1" /><polyline clip-path="url(#clip520)" style="stroke:#e26f46; stroke-linecap:round; stroke-linejoin:round; stroke-width:12; stroke-opacity:1; fill:none" points="1612.23,196.789 1754.43,196.789 "/>
<path clip-path="url(#clip520)" d="M1778.13 179.509 L1797.99 179.509 L1797.99 183.444 L1782.8 183.444 L1782.8 193.629 L1796.5 193.629 L1796.5 197.564 L1782.8 197.564 L1782.8 214.069 L1778.13 214.069 L1778.13 179.509 Z" fill="#000000" fill-rule="nonzero" fill-opacity="1" /><path clip-path="url(#clip520)" d="M1821.78 197.865 Q1823.29 198.374 1824.7 200.041 Q1826.13 201.708 1827.57 204.624 L1832.31 214.069 L1827.29 214.069 L1822.87 205.203 Q1821.16 201.731 1819.54 200.596 Q1817.94 199.462 1815.16 199.462 L1810.07 199.462 L1810.07 214.069 L1805.39 214.069 L1805.39 179.509 L1815.95 179.509 Q1821.88 179.509 1824.79 181.985 Q1827.71 184.462 1827.71 189.462 Q1827.71 192.726 1826.18 194.879 Q1824.68 197.032 1821.78 197.865 M1810.07 183.351 L1810.07 195.62 L1815.95 195.62 Q1819.33 195.62 1821.04 194.069 Q1822.78 192.495 1822.78 189.462 Q1822.78 186.43 1821.04 184.902 Q1819.33 183.351 1815.95 183.351 L1810.07 183.351 Z" fill="#000000" fill-rule="nonzero" fill-opacity="1" /><path clip-path="url(#clip520)" d="M1857.85 221.939 L1857.85 225.249 L1833.22 225.249 L1833.22 221.939 L1857.85 221.939 Z" fill="#000000" fill-rule="nonzero" fill-opacity="1" /><path clip-path="url(#clip520)" d="M1862.04 179.509 L1866.71 179.509 L1866.71 193.675 L1883.7 193.675 L1883.7 179.509 L1888.38 179.509 L1888.38 214.069 L1883.7 214.069 L1883.7 197.61 L1866.71 197.61 L1866.71 214.069 L1862.04 214.069 L1862.04 179.509 Z" fill="#000000" fill-rule="nonzero" fill-opacity="1" /><path clip-path="url(#clip520)" d="M1908.29 216.476 Q1906.48 221.106 1904.77 222.518 Q1903.06 223.93 1900.18 223.93 L1896.78 223.93 L1896.78 220.365 L1899.28 220.365 Q1901.04 220.365 1902.01 219.532 Q1902.99 218.698 1904.17 215.596 L1904.93 213.652 L1894.44 188.143 L1898.96 188.143 L1907.06 208.421 L1915.16 188.143 L1919.68 188.143 L1908.29 216.476 Z" fill="#000000" fill-rule="nonzero" fill-opacity="1" /><path clip-path="url(#clip520)" d="M1942.62 192.078 L1942.62 178.05 L1946.87 178.05 L1946.87 214.069 L1942.62 214.069 L1942.62 210.18 Q1941.27 212.495 1939.21 213.629 Q1937.18 214.74 1934.31 214.74 Q1929.61 214.74 1926.64 210.99 Q1923.7 207.24 1923.7 201.129 Q1923.7 195.018 1926.64 191.268 Q1929.61 187.518 1934.31 187.518 Q1937.18 187.518 1939.21 188.652 Q1941.27 189.763 1942.62 192.078 M1928.1 201.129 Q1928.1 205.828 1930.02 208.513 Q1931.97 211.175 1935.35 211.175 Q1938.73 211.175 1940.67 208.513 Q1942.62 205.828 1942.62 201.129 Q1942.62 196.43 1940.67 193.768 Q1938.73 191.083 1935.35 191.083 Q1931.97 191.083 1930.02 193.768 Q1928.1 196.43 1928.1 201.129 Z" fill="#000000" fill-rule="nonzero" fill-opacity="1" /><path clip-path="url(#clip520)" d="M1970.67 192.124 Q1969.95 191.708 1969.1 191.522 Q1968.26 191.314 1967.24 191.314 Q1963.63 191.314 1961.69 193.675 Q1959.77 196.013 1959.77 200.411 L1959.77 214.069 L1955.49 214.069 L1955.49 188.143 L1959.77 188.143 L1959.77 192.171 Q1961.11 189.809 1963.26 188.675 Q1965.42 187.518 1968.49 187.518 Q1968.93 187.518 1969.47 187.587 Q1970 187.634 1970.65 187.749 L1970.67 192.124 Z" fill="#000000" fill-rule="nonzero" fill-opacity="1" /><path clip-path="url(#clip520)" d="M1984.14 191.129 Q1980.72 191.129 1978.73 193.814 Q1976.74 196.476 1976.74 201.129 Q1976.74 205.782 1978.7 208.467 Q1980.69 211.129 1984.14 211.129 Q1987.55 211.129 1989.54 208.444 Q1991.53 205.758 1991.53 201.129 Q1991.53 196.522 1989.54 193.837 Q1987.55 191.129 1984.14 191.129 M1984.14 187.518 Q1989.7 187.518 1992.87 191.129 Q1996.04 194.74 1996.04 201.129 Q1996.04 207.495 1992.87 211.129 Q1989.7 214.74 1984.14 214.74 Q1978.56 214.74 1975.39 211.129 Q1972.24 207.495 1972.24 201.129 Q1972.24 194.74 1975.39 191.129 Q1978.56 187.518 1984.14 187.518 Z" fill="#000000" fill-rule="nonzero" fill-opacity="1" /><path clip-path="url(#clip520)" d="M2022.8 221.939 L2022.8 225.249 L1998.17 225.249 L1998.17 221.939 L2022.8 221.939 Z" fill="#000000" fill-rule="nonzero" fill-opacity="1" /><path clip-path="url(#clip520)" d="M2043.38 197.865 Q2044.88 198.374 2046.3 200.041 Q2047.73 201.708 2049.17 204.624 L2053.91 214.069 L2048.89 214.069 L2044.47 205.203 Q2042.75 201.731 2041.13 200.596 Q2039.54 199.462 2036.76 199.462 L2031.67 199.462 L2031.67 214.069 L2026.99 214.069 L2026.99 179.509 L2037.55 179.509 Q2043.47 179.509 2046.39 181.985 Q2049.3 184.462 2049.3 189.462 Q2049.3 192.726 2047.78 194.879 Q2046.27 197.032 2043.38 197.865 M2031.67 183.351 L2031.67 195.62 L2037.55 195.62 Q2040.92 195.62 2042.64 194.069 Q2044.37 192.495 2044.37 189.462 Q2044.37 186.43 2042.64 184.902 Q2040.92 183.351 2037.55 183.351 L2031.67 183.351 Z" fill="#000000" fill-rule="nonzero" fill-opacity="1" /><path clip-path="url(#clip520)" d="M2079.79 200.041 L2079.79 202.124 L2060.21 202.124 Q2060.49 206.522 2062.85 208.837 Q2065.23 211.129 2069.47 211.129 Q2071.92 211.129 2074.21 210.527 Q2076.53 209.925 2078.8 208.721 L2078.8 212.749 Q2076.5 213.721 2074.1 214.231 Q2071.69 214.74 2069.21 214.74 Q2063.01 214.74 2059.37 211.129 Q2055.76 207.518 2055.76 201.36 Q2055.76 194.995 2059.19 191.268 Q2062.64 187.518 2068.47 187.518 Q2073.7 187.518 2076.73 190.897 Q2079.79 194.254 2079.79 200.041 M2075.53 198.791 Q2075.48 195.296 2073.56 193.212 Q2071.67 191.129 2068.52 191.129 Q2064.95 191.129 2062.8 193.143 Q2060.67 195.157 2060.35 198.814 L2075.53 198.791 Z" fill="#000000" fill-rule="nonzero" fill-opacity="1" /><path clip-path="url(#clip520)" d="M2103.31 188.907 L2103.31 192.934 Q2101.5 192.009 2099.56 191.546 Q2097.61 191.083 2095.53 191.083 Q2092.36 191.083 2090.76 192.055 Q2089.19 193.027 2089.19 194.971 Q2089.19 196.453 2090.32 197.309 Q2091.46 198.143 2094.88 198.907 L2096.34 199.231 Q2100.88 200.203 2102.78 201.985 Q2104.7 203.745 2104.7 206.916 Q2104.7 210.527 2101.83 212.633 Q2098.98 214.74 2093.98 214.74 Q2091.9 214.74 2089.63 214.323 Q2087.38 213.93 2084.88 213.12 L2084.88 208.721 Q2087.24 209.948 2089.54 210.573 Q2091.83 211.175 2094.07 211.175 Q2097.08 211.175 2098.7 210.157 Q2100.32 209.115 2100.32 207.24 Q2100.32 205.504 2099.14 204.578 Q2097.98 203.652 2094.03 202.796 L2092.55 202.448 Q2088.59 201.615 2086.83 199.902 Q2085.07 198.166 2085.07 195.157 Q2085.07 191.499 2087.66 189.509 Q2090.25 187.518 2095.02 187.518 Q2097.38 187.518 2099.47 187.865 Q2101.55 188.212 2103.31 188.907 Z" fill="#000000" fill-rule="nonzero" fill-opacity="1" /><path clip-path="url(#clip520)" d="M2133.66 200.041 L2133.66 202.124 L2114.07 202.124 Q2114.35 206.522 2116.71 208.837 Q2119.1 211.129 2123.33 211.129 Q2125.79 211.129 2128.08 210.527 Q2130.39 209.925 2132.66 208.721 L2132.66 212.749 Q2130.37 213.721 2127.96 214.231 Q2125.55 214.74 2123.08 214.74 Q2116.87 214.74 2113.24 211.129 Q2109.63 207.518 2109.63 201.36 Q2109.63 194.995 2113.05 191.268 Q2116.5 187.518 2122.34 187.518 Q2127.57 187.518 2130.6 190.897 Q2133.66 194.254 2133.66 200.041 M2129.4 198.791 Q2129.35 195.296 2127.43 193.212 Q2125.53 191.129 2122.38 191.129 Q2118.82 191.129 2116.67 193.143 Q2114.54 195.157 2114.21 198.814 L2129.4 198.791 Z" fill="#000000" fill-rule="nonzero" fill-opacity="1" /><path clip-path="url(#clip520)" d="M2155.67 192.124 Q2154.95 191.708 2154.1 191.522 Q2153.26 191.314 2152.24 191.314 Q2148.63 191.314 2146.69 193.675 Q2144.77 196.013 2144.77 200.411 L2144.77 214.069 L2140.48 214.069 L2140.48 188.143 L2144.77 188.143 L2144.77 192.171 Q2146.11 189.809 2148.26 188.675 Q2150.42 187.518 2153.49 187.518 Q2153.93 187.518 2154.47 187.587 Q2155 187.634 2155.65 187.749 L2155.67 192.124 Z" fill="#000000" fill-rule="nonzero" fill-opacity="1" /><path clip-path="url(#clip520)" d="M2157.08 188.143 L2161.6 188.143 L2169.7 209.902 L2177.8 188.143 L2182.31 188.143 L2172.59 214.069 L2166.8 214.069 L2157.08 188.143 Z" fill="#000000" fill-rule="nonzero" fill-opacity="1" /><path clip-path="url(#clip520)" d="M2198.24 191.129 Q2194.81 191.129 2192.82 193.814 Q2190.83 196.476 2190.83 201.129 Q2190.83 205.782 2192.8 208.467 Q2194.79 211.129 2198.24 211.129 Q2201.64 211.129 2203.63 208.444 Q2205.62 205.758 2205.62 201.129 Q2205.62 196.522 2203.63 193.837 Q2201.64 191.129 2198.24 191.129 M2198.24 187.518 Q2203.79 187.518 2206.97 191.129 Q2210.14 194.74 2210.14 201.129 Q2210.14 207.495 2206.97 211.129 Q2203.79 214.74 2198.24 214.74 Q2192.66 214.74 2189.49 211.129 Q2186.34 207.495 2186.34 201.129 Q2186.34 194.74 2189.49 191.129 Q2192.66 187.518 2198.24 187.518 Z" fill="#000000" fill-rule="nonzero" fill-opacity="1" /><path clip-path="url(#clip520)" d="M2217.2 188.143 L2221.46 188.143 L2221.46 214.069 L2217.2 214.069 L2217.2 188.143 M2217.2 178.05 L2221.46 178.05 L2221.46 183.444 L2217.2 183.444 L2217.2 178.05 Z" fill="#000000" fill-rule="nonzero" fill-opacity="1" /><path clip-path="url(#clip520)" d="M2245.39 192.124 Q2244.67 191.708 2243.82 191.522 Q2242.98 191.314 2241.97 191.314 Q2238.35 191.314 2236.41 193.675 Q2234.49 196.013 2234.49 200.411 L2234.49 214.069 L2230.21 214.069 L2230.21 188.143 L2234.49 188.143 L2234.49 192.171 Q2235.83 189.809 2237.98 188.675 Q2240.14 187.518 2243.22 187.518 Q2243.66 187.518 2244.19 187.587 Q2244.72 187.634 2245.37 187.749 L2245.39 192.124 Z" fill="#000000" fill-rule="nonzero" fill-opacity="1" /><polyline clip-path="url(#clip520)" style="stroke:#3da44d; stroke-linecap:round; stroke-linejoin:round; stroke-width:12; stroke-opacity:1; fill:none" points="1612.23,248.629 1754.43,248.629 "/>
<path clip-path="url(#clip520)" d="M1778.13 231.349 L1784.42 231.349 L1799.75 260.261 L1799.75 231.349 L1804.28 231.349 L1804.28 265.909 L1797.99 265.909 L1782.66 236.997 L1782.66 265.909 L1778.13 265.909 L1778.13 231.349 Z" fill="#000000" fill-rule="nonzero" fill-opacity="1" /><path clip-path="url(#clip520)" d="M1827.62 234.52 Q1822.52 234.52 1819.51 238.316 Q1816.53 242.112 1816.53 248.663 Q1816.53 255.191 1819.51 258.987 Q1822.52 262.784 1827.62 262.784 Q1832.71 262.784 1835.67 258.987 Q1838.66 255.191 1838.66 248.663 Q1838.66 242.112 1835.67 238.316 Q1832.71 234.52 1827.62 234.52 M1827.62 230.724 Q1834.88 230.724 1839.24 235.608 Q1843.59 240.469 1843.59 248.663 Q1843.59 256.835 1839.24 261.719 Q1834.88 266.58 1827.62 266.58 Q1820.32 266.58 1815.95 261.719 Q1811.6 256.858 1811.6 248.663 Q1811.6 240.469 1815.95 235.608 Q1820.32 230.724 1827.62 230.724 Z" fill="#000000" fill-rule="nonzero" fill-opacity="1" /><path clip-path="url(#clip520)" d="M1870.42 273.779 L1870.42 277.089 L1845.79 277.089 L1845.79 273.779 L1870.42 273.779 Z" fill="#000000" fill-rule="nonzero" fill-opacity="1" /><path clip-path="url(#clip520)" d="M1874.61 231.349 L1879.28 231.349 L1879.28 245.515 L1896.27 245.515 L1896.27 231.349 L1900.95 231.349 L1900.95 265.909 L1896.27 265.909 L1896.27 249.45 L1879.28 249.45 L1879.28 265.909 L1874.61 265.909 L1874.61 231.349 Z" fill="#000000" fill-rule="nonzero" fill-opacity="1" /><path clip-path="url(#clip520)" d="M1920.86 268.316 Q1919.05 272.946 1917.34 274.358 Q1915.62 275.77 1912.75 275.77 L1909.35 275.77 L1909.35 272.205 L1911.85 272.205 Q1913.61 272.205 1914.58 271.372 Q1915.56 270.538 1916.74 267.436 L1917.5 265.492 L1907.01 239.983 L1911.53 239.983 L1919.63 260.261 L1927.73 239.983 L1932.24 239.983 L1920.86 268.316 Z" fill="#000000" fill-rule="nonzero" fill-opacity="1" /><path clip-path="url(#clip520)" d="M1955.18 243.918 L1955.18 229.89 L1959.44 229.89 L1959.44 265.909 L1955.18 265.909 L1955.18 262.02 Q1953.84 264.335 1951.78 265.469 Q1949.74 266.58 1946.87 266.58 Q1942.18 266.58 1939.21 262.83 Q1936.27 259.08 1936.27 252.969 Q1936.27 246.858 1939.21 243.108 Q1942.18 239.358 1946.87 239.358 Q1949.74 239.358 1951.78 240.492 Q1953.84 241.603 1955.18 243.918 M1940.67 252.969 Q1940.67 257.668 1942.59 260.353 Q1944.54 263.015 1947.92 263.015 Q1951.3 263.015 1953.24 260.353 Q1955.18 257.668 1955.18 252.969 Q1955.18 248.27 1953.24 245.608 Q1951.3 242.923 1947.92 242.923 Q1944.54 242.923 1942.59 245.608 Q1940.67 248.27 1940.67 252.969 Z" fill="#000000" fill-rule="nonzero" fill-opacity="1" /><path clip-path="url(#clip520)" d="M1983.24 243.964 Q1982.52 243.548 1981.67 243.362 Q1980.83 243.154 1979.81 243.154 Q1976.2 243.154 1974.26 245.515 Q1972.34 247.853 1972.34 252.251 L1972.34 265.909 L1968.05 265.909 L1968.05 239.983 L1972.34 239.983 L1972.34 244.011 Q1973.68 241.649 1975.83 240.515 Q1977.99 239.358 1981.06 239.358 Q1981.5 239.358 1982.04 239.427 Q1982.57 239.474 1983.22 239.589 L1983.24 243.964 Z" fill="#000000" fill-rule="nonzero" fill-opacity="1" /><path clip-path="url(#clip520)" d="M1996.71 242.969 Q1993.29 242.969 1991.3 245.654 Q1989.3 248.316 1989.3 252.969 Q1989.3 257.622 1991.27 260.307 Q1993.26 262.969 1996.71 262.969 Q2000.11 262.969 2002.11 260.284 Q2004.1 257.598 2004.1 252.969 Q2004.1 248.362 2002.11 245.677 Q2000.11 242.969 1996.71 242.969 M1996.71 239.358 Q2002.27 239.358 2005.44 242.969 Q2008.61 246.58 2008.61 252.969 Q2008.61 259.335 2005.44 262.969 Q2002.27 266.58 1996.71 266.58 Q1991.13 266.58 1987.96 262.969 Q1984.81 259.335 1984.81 252.969 Q1984.81 246.58 1987.96 242.969 Q1991.13 239.358 1996.71 239.358 Z" fill="#000000" fill-rule="nonzero" fill-opacity="1" /><path clip-path="url(#clip520)" d="M2035.37 273.779 L2035.37 277.089 L2010.74 277.089 L2010.74 273.779 L2035.37 273.779 Z" fill="#000000" fill-rule="nonzero" fill-opacity="1" /><path clip-path="url(#clip520)" d="M2055.95 249.705 Q2057.45 250.214 2058.86 251.881 Q2060.3 253.548 2061.74 256.464 L2066.48 265.909 L2061.46 265.909 L2057.04 257.043 Q2055.32 253.571 2053.7 252.436 Q2052.11 251.302 2049.33 251.302 L2044.24 251.302 L2044.24 265.909 L2039.56 265.909 L2039.56 231.349 L2050.11 231.349 Q2056.04 231.349 2058.96 233.825 Q2061.87 236.302 2061.87 241.302 Q2061.87 244.566 2060.35 246.719 Q2058.84 248.872 2055.95 249.705 M2044.24 235.191 L2044.24 247.46 L2050.11 247.46 Q2053.49 247.46 2055.21 245.909 Q2056.94 244.335 2056.94 241.302 Q2056.94 238.27 2055.21 236.742 Q2053.49 235.191 2050.11 235.191 L2044.24 235.191 Z" fill="#000000" fill-rule="nonzero" fill-opacity="1" /><path clip-path="url(#clip520)" d="M2092.36 251.881 L2092.36 253.964 L2072.78 253.964 Q2073.05 258.362 2075.42 260.677 Q2077.8 262.969 2082.04 262.969 Q2084.49 262.969 2086.78 262.367 Q2089.1 261.765 2091.36 260.561 L2091.36 264.589 Q2089.07 265.561 2086.67 266.071 Q2084.26 266.58 2081.78 266.58 Q2075.58 266.58 2071.94 262.969 Q2068.33 259.358 2068.33 253.2 Q2068.33 246.835 2071.76 243.108 Q2075.21 239.358 2081.04 239.358 Q2086.27 239.358 2089.3 242.737 Q2092.36 246.094 2092.36 251.881 M2088.1 250.631 Q2088.05 247.136 2086.13 245.052 Q2084.23 242.969 2081.09 242.969 Q2077.52 242.969 2075.37 244.983 Q2073.24 246.997 2072.92 250.654 L2088.1 250.631 Z" fill="#000000" fill-rule="nonzero" fill-opacity="1" /><path clip-path="url(#clip520)" d="M2115.88 240.747 L2115.88 244.774 Q2114.07 243.849 2112.13 243.386 Q2110.18 242.923 2108.1 242.923 Q2104.93 242.923 2103.33 243.895 Q2101.76 244.867 2101.76 246.811 Q2101.76 248.293 2102.89 249.149 Q2104.03 249.983 2107.45 250.747 L2108.91 251.071 Q2113.45 252.043 2115.35 253.825 Q2117.27 255.585 2117.27 258.756 Q2117.27 262.367 2114.4 264.473 Q2111.55 266.58 2106.55 266.58 Q2104.47 266.58 2102.2 266.163 Q2099.95 265.77 2097.45 264.96 L2097.45 260.561 Q2099.81 261.788 2102.11 262.413 Q2104.4 263.015 2106.64 263.015 Q2109.65 263.015 2111.27 261.997 Q2112.89 260.955 2112.89 259.08 Q2112.89 257.344 2111.71 256.418 Q2110.55 255.492 2106.6 254.636 L2105.11 254.288 Q2101.16 253.455 2099.4 251.742 Q2097.64 250.006 2097.64 246.997 Q2097.64 243.339 2100.23 241.349 Q2102.82 239.358 2107.59 239.358 Q2109.95 239.358 2112.04 239.705 Q2114.12 240.052 2115.88 240.747 Z" fill="#000000" fill-rule="nonzero" fill-opacity="1" /><path clip-path="url(#clip520)" d="M2146.23 251.881 L2146.23 253.964 L2126.64 253.964 Q2126.92 258.362 2129.28 260.677 Q2131.67 262.969 2135.9 262.969 Q2138.35 262.969 2140.65 262.367 Q2142.96 261.765 2145.23 260.561 L2145.23 264.589 Q2142.94 265.561 2140.53 266.071 Q2138.12 266.58 2135.65 266.58 Q2129.44 266.58 2125.81 262.969 Q2122.2 259.358 2122.2 253.2 Q2122.2 246.835 2125.62 243.108 Q2129.07 239.358 2134.91 239.358 Q2140.14 239.358 2143.17 242.737 Q2146.23 246.094 2146.23 251.881 M2141.97 250.631 Q2141.92 247.136 2140 245.052 Q2138.1 242.969 2134.95 242.969 Q2131.39 242.969 2129.23 244.983 Q2127.11 246.997 2126.78 250.654 L2141.97 250.631 Z" fill="#000000" fill-rule="nonzero" fill-opacity="1" /><path clip-path="url(#clip520)" d="M2168.24 243.964 Q2167.52 243.548 2166.67 243.362 Q2165.83 243.154 2164.81 243.154 Q2161.2 243.154 2159.26 245.515 Q2157.34 247.853 2157.34 252.251 L2157.34 265.909 L2153.05 265.909 L2153.05 239.983 L2157.34 239.983 L2157.34 244.011 Q2158.68 241.649 2160.83 240.515 Q2162.98 239.358 2166.06 239.358 Q2166.5 239.358 2167.04 239.427 Q2167.57 239.474 2168.22 239.589 L2168.24 243.964 Z" fill="#000000" fill-rule="nonzero" fill-opacity="1" /><path clip-path="url(#clip520)" d="M2169.65 239.983 L2174.16 239.983 L2182.27 261.742 L2190.37 239.983 L2194.88 239.983 L2185.16 265.909 L2179.37 265.909 L2169.65 239.983 Z" fill="#000000" fill-rule="nonzero" fill-opacity="1" /><path clip-path="url(#clip520)" d="M2210.81 242.969 Q2207.38 242.969 2205.39 245.654 Q2203.4 248.316 2203.4 252.969 Q2203.4 257.622 2205.37 260.307 Q2207.36 262.969 2210.81 262.969 Q2214.21 262.969 2216.2 260.284 Q2218.19 257.598 2218.19 252.969 Q2218.19 248.362 2216.2 245.677 Q2214.21 242.969 2210.81 242.969 M2210.81 239.358 Q2216.36 239.358 2219.54 242.969 Q2222.71 246.58 2222.71 252.969 Q2222.71 259.335 2219.54 262.969 Q2216.36 266.58 2210.81 266.58 Q2205.23 266.58 2202.06 262.969 Q2198.91 259.335 2198.91 252.969 Q2198.91 246.58 2202.06 242.969 Q2205.23 239.358 2210.81 239.358 Z" fill="#000000" fill-rule="nonzero" fill-opacity="1" /><path clip-path="url(#clip520)" d="M2229.77 239.983 L2234.03 239.983 L2234.03 265.909 L2229.77 265.909 L2229.77 239.983 M2229.77 229.89 L2234.03 229.89 L2234.03 235.284 L2229.77 235.284 L2229.77 229.89 Z" fill="#000000" fill-rule="nonzero" fill-opacity="1" /><path clip-path="url(#clip520)" d="M2257.96 243.964 Q2257.24 243.548 2256.39 243.362 Q2255.55 243.154 2254.53 243.154 Q2250.92 243.154 2248.98 245.515 Q2247.06 247.853 2247.06 252.251 L2247.06 265.909 L2242.78 265.909 L2242.78 239.983 L2247.06 239.983 L2247.06 244.011 Q2248.4 241.649 2250.55 240.515 Q2252.71 239.358 2255.78 239.358 Q2256.22 239.358 2256.76 239.427 Q2257.29 239.474 2257.94 239.589 L2257.96 243.964 Z" fill="#000000" fill-rule="nonzero" fill-opacity="1" /></svg>
