<?xml version="1.0" encoding="utf-8"?>
<svg xmlns="http://www.w3.org/2000/svg" xmlns:xlink="http://www.w3.org/1999/xlink" width="600" height="400" viewBox="0 0 2400 1600">
<defs>
  <clipPath id="clip260">
    <rect x="0" y="0" width="2400" height="1600"/>
  </clipPath>
</defs>
<path clip-path="url(#clip260)" d="M0 1600 L2400 1600 L2400 0 L0 0  Z" fill="#ffffff" fill-rule="evenodd" fill-opacity="1"/>
<defs>
  <clipPath id="clip261">
    <rect x="480" y="0" width="1681" height="1600"/>
  </clipPath>
</defs>
<path clip-path="url(#clip260)" d="M219.866 1423.18 L2352.76 1423.18 L2352.76 47.2441 L219.866 47.2441  Z" fill="#ffffff" fill-rule="evenodd" fill-opacity="1"/>
<defs>
  <clipPath id="clip262">
    <rect x="219" y="47" width="2134" height="1377"/>
  </clipPath>
</defs>
<polyline clip-path="url(#clip262)" style="stroke:#000000; stroke-linecap:round; stroke-linejoin:round; stroke-width:2; stroke-opacity:0.1; fill:none" points="274.703,1423.18 274.703,47.2441 "/>
<polyline clip-path="url(#clip262)" style="stroke:#000000; stroke-linecap:round; stroke-linejoin:round; stroke-width:2; stroke-opacity:0.1; fill:none" points="827.494,1423.18 827.494,47.2441 "/>
<polyline clip-path="url(#clip262)" style="stroke:#000000; stroke-linecap:round; stroke-linejoin:round; stroke-width:2; stroke-opacity:0.1; fill:none" points="1380.29,1423.18 1380.29,47.2441 "/>
<polyline clip-path="url(#clip262)" style="stroke:#000000; stroke-linecap:round; stroke-linejoin:round; stroke-width:2; stroke-opacity:0.1; fill:none" points="1933.08,1423.18 1933.08,47.2441 "/>
<polyline clip-path="url(#clip262)" style="stroke:#000000; stroke-linecap:round; stroke-linejoin:round; stroke-width:2; stroke-opacity:0.1; fill:none" points="219.866,1324.92 2352.76,1324.92 "/>
<polyline clip-path="url(#clip262)" style="stroke:#000000; stroke-linecap:round; stroke-linejoin:round; stroke-width:2; stroke-opacity:0.1; fill:none" points="219.866,984.745 2352.76,984.745 "/>
<polyline clip-path="url(#clip262)" style="stroke:#000000; stroke-linecap:round; stroke-linejoin:round; stroke-width:2; stroke-opacity:0.1; fill:none" points="219.866,644.572 2352.76,644.572 "/>
<polyline clip-path="url(#clip262)" style="stroke:#000000; stroke-linecap:round; stroke-linejoin:round; stroke-width:2; stroke-opacity:0.1; fill:none" points="219.866,304.4 2352.76,304.4 "/>
<polyline clip-path="url(#clip260)" style="stroke:#000000; stroke-linecap:round; stroke-linejoin:round; stroke-width:4; stroke-opacity:1; fill:none" points="219.866,1423.18 2352.76,1423.18 "/>
<polyline clip-path="url(#clip260)" style="stroke:#000000; stroke-linecap:round; stroke-linejoin:round; stroke-width:4; stroke-opacity:1; fill:none" points="274.703,1423.18 274.703,1404.28 "/>
<polyline clip-path="url(#clip260)" style="stroke:#000000; stroke-linecap:round; stroke-linejoin:round; stroke-width:4; stroke-opacity:1; fill:none" points="827.494,1423.18 827.494,1404.28 "/>
<polyline clip-path="url(#clip260)" style="stroke:#000000; stroke-linecap:round; stroke-linejoin:round; stroke-width:4; stroke-opacity:1; fill:none" points="1380.29,1423.18 1380.29,1404.28 "/>
<polyline clip-path="url(#clip260)" style="stroke:#000000; stroke-linecap:round; stroke-linejoin:round; stroke-width:4; stroke-opacity:1; fill:none" points="1933.08,1423.18 1933.08,1404.28 "/>
<path clip-path="url(#clip260)" d="M274.703 1454.1 Q271.092 1454.1 269.263 1457.66 Q267.458 1461.2 267.458 1468.33 Q267.458 1475.44 269.263 1479.01 Q271.092 1482.55 274.703 1482.55 Q278.337 1482.55 280.143 1479.01 Q281.972 1475.44 281.972 1468.33 Q281.972 1461.2 280.143 1457.66 Q278.337 1454.1 274.703 1454.1 M274.703 1450.39 Q280.513 1450.39 283.569 1455 Q286.648 1459.58 286.648 1468.33 Q286.648 1477.06 283.569 1481.67 Q280.513 1486.25 274.703 1486.25 Q268.893 1486.25 265.814 1481.67 Q262.759 1477.06 262.759 1468.33 Q262.759 1459.58 265.814 1455 Q268.893 1450.39 274.703 1450.39 Z" fill="#000000" fill-rule="nonzero" fill-opacity="1" /><path clip-path="url(#clip260)" d="M787.101 1481.64 L794.74 1481.64 L794.74 1455.28 L786.43 1456.95 L786.43 1452.69 L794.694 1451.02 L799.37 1451.02 L799.37 1481.64 L807.008 1481.64 L807.008 1485.58 L787.101 1485.58 L787.101 1481.64 Z" fill="#000000" fill-rule="nonzero" fill-opacity="1" /><path clip-path="url(#clip260)" d="M826.453 1454.1 Q822.842 1454.1 821.013 1457.66 Q819.207 1461.2 819.207 1468.33 Q819.207 1475.44 821.013 1479.01 Q822.842 1482.55 826.453 1482.55 Q830.087 1482.55 831.892 1479.01 Q833.721 1475.44 833.721 1468.33 Q833.721 1461.2 831.892 1457.66 Q830.087 1454.1 826.453 1454.1 M826.453 1450.39 Q832.263 1450.39 835.318 1455 Q838.397 1459.58 838.397 1468.33 Q838.397 1477.06 835.318 1481.67 Q832.263 1486.25 826.453 1486.25 Q820.643 1486.25 817.564 1481.67 Q814.508 1477.06 814.508 1468.33 Q814.508 1459.58 817.564 1455 Q820.643 1450.39 826.453 1450.39 Z" fill="#000000" fill-rule="nonzero" fill-opacity="1" /><path clip-path="url(#clip260)" d="M856.615 1454.1 Q853.003 1454.1 851.175 1457.66 Q849.369 1461.2 849.369 1468.33 Q849.369 1475.44 851.175 1479.01 Q853.003 1482.55 856.615 1482.55 Q860.249 1482.55 862.054 1479.01 Q863.883 1475.44 863.883 1468.33 Q863.883 1461.2 862.054 1457.66 Q860.249 1454.1 856.615 1454.1 M856.615 1450.39 Q862.425 1450.39 865.48 1455 Q868.559 1459.58 868.559 1468.33 Q868.559 1477.06 865.48 1481.67 Q862.425 1486.25 856.615 1486.25 Q850.804 1486.25 847.726 1481.67 Q844.67 1477.06 844.67 1468.33 Q844.67 1459.58 847.726 1455 Q850.804 1450.39 856.615 1450.39 Z" fill="#000000" fill-rule="nonzero" fill-opacity="1" /><path clip-path="url(#clip260)" d="M1343.98 1481.64 L1360.3 1481.64 L1360.3 1485.58 L1338.35 1485.58 L1338.35 1481.64 Q1341.01 1478.89 1345.6 1474.26 Q1350.2 1469.61 1351.39 1468.27 Q1353.63 1465.74 1354.51 1464.01 Q1355.41 1462.25 1355.41 1460.56 Q1355.41 1457.8 1353.47 1456.07 Q1351.55 1454.33 1348.45 1454.33 Q1346.25 1454.33 1343.79 1455.09 Q1341.36 1455.86 1338.58 1457.41 L1338.58 1452.69 Q1341.41 1451.55 1343.86 1450.97 Q1346.32 1450.39 1348.35 1450.39 Q1353.72 1450.39 1356.92 1453.08 Q1360.11 1455.77 1360.11 1460.26 Q1360.11 1462.39 1359.3 1464.31 Q1358.51 1466.2 1356.41 1468.8 Q1355.83 1469.47 1352.73 1472.69 Q1349.63 1475.88 1343.98 1481.64 Z" fill="#000000" fill-rule="nonzero" fill-opacity="1" /><path clip-path="url(#clip260)" d="M1380.11 1454.1 Q1376.5 1454.1 1374.67 1457.66 Q1372.87 1461.2 1372.87 1468.33 Q1372.87 1475.44 1374.67 1479.01 Q1376.5 1482.55 1380.11 1482.55 Q1383.75 1482.55 1385.55 1479.01 Q1387.38 1475.44 1387.38 1468.33 Q1387.38 1461.2 1385.55 1457.66 Q1383.75 1454.1 1380.11 1454.1 M1380.11 1450.39 Q1385.92 1450.39 1388.98 1455 Q1392.06 1459.58 1392.06 1468.33 Q1392.06 1477.06 1388.98 1481.67 Q1385.92 1486.25 1380.11 1486.25 Q1374.3 1486.25 1371.22 1481.67 Q1368.17 1477.06 1368.17 1468.33 Q1368.17 1459.58 1371.22 1455 Q1374.3 1450.39 1380.11 1450.39 Z" fill="#000000" fill-rule="nonzero" fill-opacity="1" /><path clip-path="url(#clip260)" d="M1410.27 1454.1 Q1406.66 1454.1 1404.83 1457.66 Q1403.03 1461.2 1403.03 1468.33 Q1403.03 1475.44 1404.83 1479.01 Q1406.66 1482.55 1410.27 1482.55 Q1413.91 1482.55 1415.71 1479.01 Q1417.54 1475.44 1417.54 1468.33 Q1417.54 1461.2 1415.71 1457.66 Q1413.91 1454.1 1410.27 1454.1 M1410.27 1450.39 Q1416.08 1450.39 1419.14 1455 Q1422.22 1459.58 1422.22 1468.33 Q1422.22 1477.06 1419.14 1481.67 Q1416.08 1486.25 1410.27 1486.25 Q1404.46 1486.25 1401.39 1481.67 Q1398.33 1477.06 1398.33 1468.33 Q1398.33 1459.58 1401.39 1455 Q1404.46 1450.39 1410.27 1450.39 Z" fill="#000000" fill-rule="nonzero" fill-opacity="1" /><path clip-path="url(#clip260)" d="M1906.84 1466.95 Q1910.19 1467.66 1912.07 1469.93 Q1913.97 1472.2 1913.97 1475.53 Q1913.97 1480.65 1910.45 1483.45 Q1906.93 1486.25 1900.45 1486.25 Q1898.27 1486.25 1895.96 1485.81 Q1893.67 1485.39 1891.21 1484.54 L1891.21 1480.02 Q1893.16 1481.16 1895.47 1481.74 Q1897.79 1482.32 1900.31 1482.32 Q1904.71 1482.32 1907 1480.58 Q1909.32 1478.84 1909.32 1475.53 Q1909.32 1472.48 1907.16 1470.77 Q1905.03 1469.03 1901.21 1469.03 L1897.19 1469.03 L1897.19 1465.19 L1901.4 1465.19 Q1904.85 1465.19 1906.68 1463.82 Q1908.51 1462.43 1908.51 1459.84 Q1908.51 1457.18 1906.61 1455.77 Q1904.73 1454.33 1901.21 1454.33 Q1899.29 1454.33 1897.09 1454.75 Q1894.89 1455.16 1892.26 1456.04 L1892.26 1451.88 Q1894.92 1451.14 1897.23 1450.77 Q1899.57 1450.39 1901.63 1450.39 Q1906.95 1450.39 1910.06 1452.83 Q1913.16 1455.23 1913.16 1459.35 Q1913.16 1462.22 1911.51 1464.21 Q1909.87 1466.18 1906.84 1466.95 Z" fill="#000000" fill-rule="nonzero" fill-opacity="1" /><path clip-path="url(#clip260)" d="M1932.83 1454.1 Q1929.22 1454.1 1927.39 1457.66 Q1925.59 1461.2 1925.59 1468.33 Q1925.59 1475.44 1927.39 1479.01 Q1929.22 1482.55 1932.83 1482.55 Q1936.47 1482.55 1938.27 1479.01 Q1940.1 1475.44 1940.1 1468.33 Q1940.1 1461.2 1938.27 1457.66 Q1936.47 1454.1 1932.83 1454.1 M1932.83 1450.39 Q1938.64 1450.39 1941.7 1455 Q1944.78 1459.58 1944.78 1468.33 Q1944.78 1477.06 1941.7 1481.67 Q1938.64 1486.25 1932.83 1486.25 Q1927.02 1486.25 1923.94 1481.67 Q1920.89 1477.06 1920.89 1468.33 Q1920.89 1459.58 1923.94 1455 Q1927.02 1450.39 1932.83 1450.39 Z" fill="#000000" fill-rule="nonzero" fill-opacity="1" /><path clip-path="url(#clip260)" d="M1963 1454.1 Q1959.38 1454.1 1957.56 1457.66 Q1955.75 1461.2 1955.75 1468.33 Q1955.75 1475.44 1957.56 1479.01 Q1959.38 1482.55 1963 1482.55 Q1966.63 1482.55 1968.44 1479.01 Q1970.26 1475.44 1970.26 1468.33 Q1970.26 1461.2 1968.44 1457.66 Q1966.63 1454.1 1963 1454.1 M1963 1450.39 Q1968.81 1450.39 1971.86 1455 Q1974.94 1459.58 1974.94 1468.33 Q1974.94 1477.06 1971.86 1481.67 Q1968.81 1486.25 1963 1486.25 Q1957.19 1486.25 1954.11 1481.67 Q1951.05 1477.06 1951.05 1468.33 Q1951.05 1459.58 1954.11 1455 Q1957.19 1450.39 1963 1450.39 Z" fill="#000000" fill-rule="nonzero" fill-opacity="1" /><path clip-path="url(#clip260)" d="M1197.27 1525.81 L1197.27 1543.66 L1205.36 1543.66 Q1209.84 1543.66 1212.29 1541.34 Q1214.74 1539.02 1214.74 1534.72 Q1214.74 1530.45 1212.29 1528.13 Q1209.84 1525.81 1205.36 1525.81 L1197.27 1525.81 M1190.84 1520.52 L1205.36 1520.52 Q1213.34 1520.52 1217.42 1524.15 Q1221.52 1527.75 1221.52 1534.72 Q1221.52 1541.75 1217.42 1545.35 Q1213.34 1548.95 1205.36 1548.95 L1197.27 1548.95 L1197.27 1568.04 L1190.84 1568.04 L1190.84 1520.52 Z" fill="#000000" fill-rule="nonzero" fill-opacity="1" /><path clip-path="url(#clip260)" d="M1258.06 1548.76 L1258.06 1551.62 L1231.14 1551.62 Q1231.52 1557.67 1234.76 1560.85 Q1238.04 1564 1243.87 1564 Q1247.24 1564 1250.39 1563.17 Q1253.58 1562.35 1256.69 1560.69 L1256.69 1566.23 Q1253.54 1567.57 1250.23 1568.27 Q1246.92 1568.97 1243.52 1568.97 Q1234.99 1568.97 1229.99 1564 Q1225.03 1559.04 1225.03 1550.57 Q1225.03 1541.82 1229.74 1536.69 Q1234.48 1531.54 1242.5 1531.54 Q1249.69 1531.54 1253.86 1536.18 Q1258.06 1540.8 1258.06 1548.76 M1252.21 1547.04 Q1252.14 1542.23 1249.5 1539.37 Q1246.89 1536.5 1242.56 1536.5 Q1237.66 1536.5 1234.7 1539.27 Q1231.77 1542.04 1231.33 1547.07 L1252.21 1547.04 Z" fill="#000000" fill-rule="nonzero" fill-opacity="1" /><path clip-path="url(#clip260)" d="M1288.33 1537.87 Q1287.35 1537.3 1286.17 1537.04 Q1285.02 1536.76 1283.62 1536.76 Q1278.66 1536.76 1275.98 1540 Q1273.34 1543.22 1273.34 1549.27 L1273.34 1568.04 L1267.45 1568.04 L1267.45 1532.4 L1273.34 1532.4 L1273.34 1537.93 Q1275.19 1534.69 1278.15 1533.13 Q1281.11 1531.54 1285.34 1531.54 Q1285.95 1531.54 1286.68 1531.63 Q1287.41 1531.7 1288.3 1531.85 L1288.33 1537.87 Z" fill="#000000" fill-rule="nonzero" fill-opacity="1" /><path clip-path="url(#clip260)" d="M1294.48 1532.4 L1300.33 1532.4 L1300.33 1568.04 L1294.48 1568.04 L1294.48 1532.4 M1294.48 1518.52 L1300.33 1518.52 L1300.33 1525.93 L1294.48 1525.93 L1294.48 1518.52 Z" fill="#000000" fill-rule="nonzero" fill-opacity="1" /><path clip-path="url(#clip260)" d="M1326.4 1536.5 Q1321.69 1536.5 1318.95 1540.19 Q1316.21 1543.85 1316.21 1550.25 Q1316.21 1556.65 1318.92 1560.34 Q1321.66 1564 1326.4 1564 Q1331.08 1564 1333.82 1560.31 Q1336.55 1556.62 1336.55 1550.25 Q1336.55 1543.92 1333.82 1540.23 Q1331.08 1536.5 1326.4 1536.5 M1326.4 1531.54 Q1334.04 1531.54 1338.4 1536.5 Q1342.76 1541.47 1342.76 1550.25 Q1342.76 1559 1338.4 1564 Q1334.04 1568.97 1326.4 1568.97 Q1318.73 1568.97 1314.37 1564 Q1310.04 1559 1310.04 1550.25 Q1310.04 1541.47 1314.37 1536.5 Q1318.73 1531.54 1326.4 1531.54 Z" fill="#000000" fill-rule="nonzero" fill-opacity="1" /><path clip-path="url(#clip260)" d="M1375.92 1537.81 L1375.92 1518.52 L1381.78 1518.52 L1381.78 1568.04 L1375.92 1568.04 L1375.92 1562.7 Q1374.08 1565.88 1371.25 1567.44 Q1368.44 1568.97 1364.5 1568.97 Q1358.04 1568.97 1353.96 1563.81 Q1349.92 1558.65 1349.92 1550.25 Q1349.92 1541.85 1353.96 1536.69 Q1358.04 1531.54 1364.5 1531.54 Q1368.44 1531.54 1371.25 1533.1 Q1374.08 1534.62 1375.92 1537.81 M1355.97 1550.25 Q1355.97 1556.71 1358.61 1560.4 Q1361.28 1564.07 1365.93 1564.07 Q1370.58 1564.07 1373.25 1560.4 Q1375.92 1556.71 1375.92 1550.25 Q1375.92 1543.79 1373.25 1540.13 Q1370.58 1536.44 1365.93 1536.44 Q1361.28 1536.44 1358.61 1540.13 Q1355.97 1543.79 1355.97 1550.25 Z" fill="#000000" fill-rule="nonzero" fill-opacity="1" /><polyline clip-path="url(#clip260)" style="stroke:#000000; stroke-linecap:round; stroke-linejoin:round; stroke-width:4; stroke-opacity:1; fill:none" points="219.866,1423.18 219.866,47.2441 "/>
<polyline clip-path="url(#clip260)" style="stroke:#000000; stroke-linecap:round; stroke-linejoin:round; stroke-width:4; stroke-opacity:1; fill:none" points="219.866,1324.92 238.764,1324.92 "/>
<polyline clip-path="url(#clip260)" style="stroke:#000000; stroke-linecap:round; stroke-linejoin:round; stroke-width:4; stroke-opacity:1; fill:none" points="219.866,984.745 238.764,984.745 "/>
<polyline clip-path="url(#clip260)" style="stroke:#000000; stroke-linecap:round; stroke-linejoin:round; stroke-width:4; stroke-opacity:1; fill:none" points="219.866,644.572 238.764,644.572 "/>
<polyline clip-path="url(#clip260)" style="stroke:#000000; stroke-linecap:round; stroke-linejoin:round; stroke-width:4; stroke-opacity:1; fill:none" points="219.866,304.4 238.764,304.4 "/>
<path clip-path="url(#clip260)" d="M128.288 1310.72 Q124.677 1310.72 122.848 1314.28 Q121.043 1317.82 121.043 1324.95 Q121.043 1332.06 122.848 1335.62 Q124.677 1339.17 128.288 1339.17 Q131.922 1339.17 133.728 1335.62 Q135.556 1332.06 135.556 1324.95 Q135.556 1317.82 133.728 1314.28 Q131.922 1310.72 128.288 1310.72 M128.288 1307.01 Q134.098 1307.01 137.154 1311.62 Q140.232 1316.2 140.232 1324.95 Q140.232 1333.68 137.154 1338.29 Q134.098 1342.87 128.288 1342.87 Q122.478 1342.87 119.399 1338.29 Q116.343 1333.68 116.343 1324.95 Q116.343 1316.2 119.399 1311.62 Q122.478 1307.01 128.288 1307.01 Z" fill="#000000" fill-rule="nonzero" fill-opacity="1" /><path clip-path="url(#clip260)" d="M148.45 1336.32 L153.334 1336.32 L153.334 1342.2 L148.45 1342.2 L148.45 1336.32 Z" fill="#000000" fill-rule="nonzero" fill-opacity="1" /><path clip-path="url(#clip260)" d="M167.547 1338.26 L183.866 1338.26 L183.866 1342.2 L161.922 1342.2 L161.922 1338.26 Q164.584 1335.51 169.167 1330.88 Q173.774 1326.23 174.954 1324.88 Q177.2 1322.36 178.079 1320.62 Q178.982 1318.86 178.982 1317.17 Q178.982 1314.42 177.038 1312.68 Q175.116 1310.95 172.014 1310.95 Q169.815 1310.95 167.362 1311.71 Q164.931 1312.48 162.153 1314.03 L162.153 1309.3 Q164.977 1308.17 167.431 1307.59 Q169.885 1307.01 171.922 1307.01 Q177.292 1307.01 180.487 1309.7 Q183.681 1312.38 183.681 1316.87 Q183.681 1319 182.871 1320.92 Q182.084 1322.82 179.977 1325.42 Q179.399 1326.09 176.297 1329.3 Q173.195 1332.5 167.547 1338.26 Z" fill="#000000" fill-rule="nonzero" fill-opacity="1" /><path clip-path="url(#clip260)" d="M126.205 970.544 Q122.593 970.544 120.765 974.109 Q118.959 977.65 118.959 984.78 Q118.959 991.886 120.765 995.451 Q122.593 998.993 126.205 998.993 Q129.839 998.993 131.644 995.451 Q133.473 991.886 133.473 984.78 Q133.473 977.65 131.644 974.109 Q129.839 970.544 126.205 970.544 M126.205 966.84 Q132.015 966.84 135.07 971.447 Q138.149 976.03 138.149 984.78 Q138.149 993.507 135.07 998.113 Q132.015 1002.7 126.205 1002.7 Q120.394 1002.7 117.316 998.113 Q114.26 993.507 114.26 984.78 Q114.26 976.03 117.316 971.447 Q120.394 966.84 126.205 966.84 Z" fill="#000000" fill-rule="nonzero" fill-opacity="1" /><path clip-path="url(#clip260)" d="M146.366 996.146 L151.251 996.146 L151.251 1002.03 L146.366 1002.03 L146.366 996.146 Z" fill="#000000" fill-rule="nonzero" fill-opacity="1" /><path clip-path="url(#clip260)" d="M174.283 971.539 L162.477 989.988 L174.283 989.988 L174.283 971.539 M173.056 967.465 L178.936 967.465 L178.936 989.988 L183.866 989.988 L183.866 993.877 L178.936 993.877 L178.936 1002.03 L174.283 1002.03 L174.283 993.877 L158.681 993.877 L158.681 989.363 L173.056 967.465 Z" fill="#000000" fill-rule="nonzero" fill-opacity="1" /><path clip-path="url(#clip260)" d="M126.529 630.371 Q122.918 630.371 121.089 633.936 Q119.283 637.478 119.283 644.607 Q119.283 651.714 121.089 655.278 Q122.918 658.82 126.529 658.82 Q130.163 658.82 131.968 655.278 Q133.797 651.714 133.797 644.607 Q133.797 637.478 131.968 633.936 Q130.163 630.371 126.529 630.371 M126.529 626.667 Q132.339 626.667 135.394 631.274 Q138.473 635.857 138.473 644.607 Q138.473 653.334 135.394 657.94 Q132.339 662.524 126.529 662.524 Q120.718 662.524 117.64 657.94 Q114.584 653.334 114.584 644.607 Q114.584 635.857 117.64 631.274 Q120.718 626.667 126.529 626.667 Z" fill="#000000" fill-rule="nonzero" fill-opacity="1" /><path clip-path="url(#clip260)" d="M146.691 655.973 L151.575 655.973 L151.575 661.852 L146.691 661.852 L146.691 655.973 Z" fill="#000000" fill-rule="nonzero" fill-opacity="1" /><path clip-path="url(#clip260)" d="M172.339 642.709 Q169.19 642.709 167.339 644.862 Q165.51 647.014 165.51 650.764 Q165.51 654.491 167.339 656.667 Q169.19 658.82 172.339 658.82 Q175.487 658.82 177.315 656.667 Q179.167 654.491 179.167 650.764 Q179.167 647.014 177.315 644.862 Q175.487 642.709 172.339 642.709 M181.621 628.056 L181.621 632.316 Q179.862 631.482 178.056 631.042 Q176.274 630.603 174.514 630.603 Q169.885 630.603 167.431 633.728 Q165.001 636.853 164.653 643.172 Q166.019 641.158 168.079 640.093 Q170.139 639.005 172.616 639.005 Q177.825 639.005 180.834 642.177 Q183.866 645.325 183.866 650.764 Q183.866 656.089 180.718 659.306 Q177.57 662.524 172.339 662.524 Q166.343 662.524 163.172 657.94 Q160.001 653.334 160.001 644.607 Q160.001 636.413 163.89 631.552 Q167.778 626.667 174.329 626.667 Q176.089 626.667 177.871 627.015 Q179.676 627.362 181.621 628.056 Z" fill="#000000" fill-rule="nonzero" fill-opacity="1" /><path clip-path="url(#clip260)" d="M126.783 290.198 Q123.172 290.198 121.343 293.763 Q119.538 297.305 119.538 304.434 Q119.538 311.541 121.343 315.106 Q123.172 318.647 126.783 318.647 Q130.417 318.647 132.223 315.106 Q134.052 311.541 134.052 304.434 Q134.052 297.305 132.223 293.763 Q130.417 290.198 126.783 290.198 M126.783 286.495 Q132.593 286.495 135.649 291.101 Q138.728 295.684 138.728 304.434 Q138.728 313.161 135.649 317.768 Q132.593 322.351 126.783 322.351 Q120.973 322.351 117.894 317.768 Q114.839 313.161 114.839 304.434 Q114.839 295.684 117.894 291.101 Q120.973 286.495 126.783 286.495 Z" fill="#000000" fill-rule="nonzero" fill-opacity="1" /><path clip-path="url(#clip260)" d="M146.945 315.8 L151.829 315.8 L151.829 321.68 L146.945 321.68 L146.945 315.8 Z" fill="#000000" fill-rule="nonzero" fill-opacity="1" /><path clip-path="url(#clip260)" d="M172.014 305.268 Q168.681 305.268 166.76 307.05 Q164.862 308.832 164.862 311.957 Q164.862 315.082 166.76 316.865 Q168.681 318.647 172.014 318.647 Q175.348 318.647 177.269 316.865 Q179.19 315.059 179.19 311.957 Q179.19 308.832 177.269 307.05 Q175.371 305.268 172.014 305.268 M167.339 303.277 Q164.329 302.536 162.64 300.476 Q160.973 298.416 160.973 295.453 Q160.973 291.309 163.913 288.902 Q166.876 286.495 172.014 286.495 Q177.176 286.495 180.116 288.902 Q183.056 291.309 183.056 295.453 Q183.056 298.416 181.366 300.476 Q179.7 302.536 176.714 303.277 Q180.093 304.064 181.968 306.356 Q183.866 308.647 183.866 311.957 Q183.866 316.981 180.788 319.666 Q177.732 322.351 172.014 322.351 Q166.297 322.351 163.218 319.666 Q160.163 316.981 160.163 311.957 Q160.163 308.647 162.061 306.356 Q163.959 304.064 167.339 303.277 M165.626 295.893 Q165.626 298.578 167.292 300.083 Q168.982 301.587 172.014 301.587 Q175.024 301.587 176.714 300.083 Q178.426 298.578 178.426 295.893 Q178.426 293.208 176.714 291.703 Q175.024 290.198 172.014 290.198 Q168.982 290.198 167.292 291.703 Q165.626 293.208 165.626 295.893 Z" fill="#000000" fill-rule="nonzero" fill-opacity="1" /><path clip-path="url(#clip260)" d="M18.0438 1012.92 L24.314 1012.92 Q22.5634 1016.58 21.704 1019.82 Q20.8447 1023.07 20.8447 1026.09 Q20.8447 1031.34 22.8817 1034.21 Q24.9187 1037.04 28.6745 1037.04 Q31.8255 1037.04 33.4488 1035.16 Q35.0402 1033.25 36.0269 1027.97 L36.8226 1024.09 Q38.1912 1016.89 41.6605 1013.49 Q45.098 1010.05 50.8908 1010.05 Q57.7976 1010.05 61.3624 1014.7 Q64.9272 1019.31 64.9272 1028.26 Q64.9272 1031.63 64.1633 1035.45 Q63.3994 1039.24 61.9035 1043.31 L55.2831 1043.31 Q57.4793 1039.4 58.5933 1035.64 Q59.7073 1031.89 59.7073 1028.26 Q59.7073 1022.75 57.543 1019.76 Q55.3786 1016.77 51.3682 1016.77 Q47.8671 1016.77 45.8937 1018.93 Q43.9204 1021.06 42.9337 1025.97 L42.1698 1029.88 Q40.7375 1037.07 37.682 1040.29 Q34.6264 1043.5 29.1837 1043.5 Q22.8817 1043.5 19.2532 1039.08 Q15.6248 1034.62 15.6248 1026.82 Q15.6248 1023.48 16.2295 1020.01 Q16.8343 1016.54 18.0438 1012.92 Z" fill="#000000" fill-rule="nonzero" fill-opacity="1" /><path clip-path="url(#clip260)" d="M18.2347 994.487 L28.3562 994.487 L28.3562 982.424 L32.9077 982.424 L32.9077 994.487 L52.2594 994.487 Q56.6199 994.487 57.8613 993.31 Q59.1026 992.1 59.1026 988.44 L59.1026 982.424 L64.0042 982.424 L64.0042 988.44 Q64.0042 995.219 61.4897 997.797 Q58.9434 1000.38 52.2594 1000.38 L32.9077 1000.38 L32.9077 1004.67 L28.3562 1004.67 L28.3562 1000.38 L18.2347 1000.38 L18.2347 994.487 Z" fill="#000000" fill-rule="nonzero" fill-opacity="1" /><path clip-path="url(#clip260)" d="M32.4621 960.908 Q32.4621 965.619 36.1542 968.356 Q39.8145 971.093 46.212 971.093 Q52.6095 971.093 56.3017 968.388 Q59.9619 965.651 59.9619 960.908 Q59.9619 956.229 56.2698 953.492 Q52.5777 950.755 46.212 950.755 Q39.8781 950.755 36.186 953.492 Q32.4621 956.229 32.4621 960.908 M27.4968 960.908 Q27.4968 953.269 32.4621 948.909 Q37.4273 944.548 46.212 944.548 Q54.9649 944.548 59.9619 948.909 Q64.9272 953.269 64.9272 960.908 Q64.9272 968.579 59.9619 972.939 Q54.9649 977.268 46.212 977.268 Q37.4273 977.268 32.4621 972.939 Q27.4968 968.579 27.4968 960.908 Z" fill="#000000" fill-rule="nonzero" fill-opacity="1" /><path clip-path="url(#clip260)" d="M33.8307 914.184 Q33.2578 915.17 33.0032 916.348 Q32.7167 917.494 32.7167 918.894 Q32.7167 923.86 35.9632 926.533 Q39.1779 929.175 45.2253 929.175 L64.0042 929.175 L64.0042 935.063 L28.3562 935.063 L28.3562 929.175 L33.8944 929.175 Q30.6479 927.329 29.0883 924.369 Q27.4968 921.409 27.4968 917.176 Q27.4968 916.571 27.5923 915.839 Q27.656 915.107 27.8151 914.216 L33.8307 914.184 Z" fill="#000000" fill-rule="nonzero" fill-opacity="1" /><path clip-path="url(#clip260)" d="M46.0847 891.84 Q46.0847 898.938 47.7079 901.675 Q49.3312 904.412 53.2461 904.412 Q56.3653 904.412 58.2114 902.375 Q60.0256 900.307 60.0256 896.774 Q60.0256 891.904 56.5881 888.976 Q53.1188 886.016 47.3897 886.016 L46.0847 886.016 L46.0847 891.84 M43.6657 880.159 L64.0042 880.159 L64.0042 886.016 L58.5933 886.016 Q61.8398 888.021 63.3994 891.013 Q64.9272 894.005 64.9272 898.333 Q64.9272 903.808 61.8716 907.054 Q58.7843 910.269 53.6281 910.269 Q47.6125 910.269 44.5569 906.259 Q41.5014 902.216 41.5014 894.227 L41.5014 886.016 L40.9285 886.016 Q36.8862 886.016 34.6901 888.689 Q32.4621 891.331 32.4621 896.137 Q32.4621 899.193 33.1941 902.089 Q33.9262 904.985 35.3903 907.659 L29.9795 907.659 Q28.7381 904.444 28.1334 901.421 Q27.4968 898.397 27.4968 895.532 Q27.4968 887.798 31.5072 883.979 Q35.5176 880.159 43.6657 880.159 Z" fill="#000000" fill-rule="nonzero" fill-opacity="1" /><path clip-path="url(#clip260)" d="M45.7664 844.638 Q39.4007 844.638 35.8996 847.28 Q32.3984 849.89 32.3984 854.633 Q32.3984 859.343 35.8996 861.985 Q39.4007 864.595 45.7664 864.595 Q52.1003 864.595 55.6014 861.985 Q59.1026 859.343 59.1026 854.633 Q59.1026 849.89 55.6014 847.28 Q52.1003 844.638 45.7664 844.638 M59.58 838.782 Q68.683 838.782 73.1071 842.824 Q77.5631 846.866 77.5631 855.206 Q77.5631 858.293 77.0857 861.03 Q76.6401 863.767 75.6852 866.346 L69.9879 866.346 Q71.3884 863.767 72.0568 861.253 Q72.7252 858.739 72.7252 856.129 Q72.7252 850.368 69.7015 847.503 Q66.7096 844.638 60.6303 844.638 L57.7339 844.638 Q60.885 846.453 62.4446 849.285 Q64.0042 852.118 64.0042 856.065 Q64.0042 862.622 59.0071 866.632 Q54.01 870.642 45.7664 870.642 Q37.491 870.642 32.4939 866.632 Q27.4968 862.622 27.4968 856.065 Q27.4968 852.118 29.0564 849.285 Q30.616 846.453 33.7671 844.638 L28.3562 844.638 L28.3562 838.782 L59.58 838.782 Z" fill="#000000" fill-rule="nonzero" fill-opacity="1" /><path clip-path="url(#clip260)" d="M44.7161 796.227 L47.5806 796.227 L47.5806 823.154 Q53.6281 822.772 56.8109 819.526 Q59.9619 816.247 59.9619 810.423 Q59.9619 807.049 59.1344 803.898 Q58.3069 800.715 56.6518 797.596 L62.1899 797.596 Q63.5267 800.747 64.227 804.057 Q64.9272 807.367 64.9272 810.773 Q64.9272 819.303 59.9619 824.3 Q54.9967 829.265 46.5303 829.265 Q37.7774 829.265 32.6531 824.555 Q27.4968 819.812 27.4968 811.791 Q27.4968 804.598 32.1438 800.429 Q36.7589 796.227 44.7161 796.227 M42.9973 802.084 Q38.1912 802.147 35.3266 804.789 Q32.4621 807.399 32.4621 811.728 Q32.4621 816.629 35.2312 819.589 Q38.0002 822.518 43.0292 822.963 L42.9973 802.084 Z" fill="#000000" fill-rule="nonzero" fill-opacity="1" /><path clip-path="url(#clip260)" d="M14.479 765.895 L14.479 760.038 L64.0042 760.038 L64.0042 765.895 L14.479 765.895 Z" fill="#000000" fill-rule="nonzero" fill-opacity="1" /><path clip-path="url(#clip260)" d="M44.7161 717.293 L47.5806 717.293 L47.5806 744.219 Q53.6281 743.838 56.8109 740.591 Q59.9619 737.313 59.9619 731.488 Q59.9619 728.114 59.1344 724.963 Q58.3069 721.78 56.6518 718.661 L62.1899 718.661 Q63.5267 721.812 64.227 725.122 Q64.9272 728.432 64.9272 731.838 Q64.9272 740.368 59.9619 745.365 Q54.9967 750.331 46.5303 750.331 Q37.7774 750.331 32.6531 745.62 Q27.4968 740.877 27.4968 732.857 Q27.4968 725.663 32.1438 721.494 Q36.7589 717.293 44.7161 717.293 M42.9973 723.149 Q38.1912 723.213 35.3266 725.854 Q32.4621 728.464 32.4621 732.793 Q32.4621 737.695 35.2312 740.655 Q38.0002 743.583 43.0292 744.028 L42.9973 723.149 Z" fill="#000000" fill-rule="nonzero" fill-opacity="1" /><path clip-path="url(#clip260)" d="M28.3562 711.882 L28.3562 705.675 L58.275 694.535 L28.3562 683.395 L28.3562 677.189 L64.0042 690.557 L64.0042 698.514 L28.3562 711.882 Z" fill="#000000" fill-rule="nonzero" fill-opacity="1" /><path clip-path="url(#clip260)" d="M44.7161 638.612 L47.5806 638.612 L47.5806 665.539 Q53.6281 665.157 56.8109 661.911 Q59.9619 658.633 59.9619 652.808 Q59.9619 649.434 59.1344 646.283 Q58.3069 643.1 56.6518 639.981 L62.1899 639.981 Q63.5267 643.132 64.227 646.442 Q64.9272 649.752 64.9272 653.158 Q64.9272 661.688 59.9619 666.685 Q54.9967 671.65 46.5303 671.65 Q37.7774 671.65 32.6531 666.94 Q27.4968 662.197 27.4968 654.177 Q27.4968 646.983 32.1438 642.814 Q36.7589 638.612 44.7161 638.612 M42.9973 644.469 Q38.1912 644.532 35.3266 647.174 Q32.4621 649.784 32.4621 654.113 Q32.4621 659.014 35.2312 661.975 Q38.0002 664.903 43.0292 665.348 L42.9973 644.469 Z" fill="#000000" fill-rule="nonzero" fill-opacity="1" /><path clip-path="url(#clip260)" d="M14.479 629 L14.479 623.144 L64.0042 623.144 L64.0042 629 L14.479 629 Z" fill="#000000" fill-rule="nonzero" fill-opacity="1" /><path clip-path="url(#clip260)" d="M14.479 590.71 L14.479 577.215 L19.0304 577.215 L19.0304 584.854 L68.0464 584.854 L68.0464 577.215 L72.5979 577.215 L72.5979 590.71 L14.479 590.71 Z" fill="#000000" fill-rule="nonzero" fill-opacity="1" /><path clip-path="url(#clip260)" d="M58.657 559.073 L77.5631 559.073 L77.5631 564.961 L28.3562 564.961 L28.3562 559.073 L33.7671 559.073 Q30.5842 557.227 29.0564 554.426 Q27.4968 551.593 27.4968 547.678 Q27.4968 541.185 32.6531 537.143 Q37.8093 533.069 46.212 533.069 Q54.6147 533.069 59.771 537.143 Q64.9272 541.185 64.9272 547.678 Q64.9272 551.593 63.3994 554.426 Q61.8398 557.227 58.657 559.073 M46.212 539.148 Q39.7508 539.148 36.0905 541.822 Q32.3984 544.464 32.3984 549.111 Q32.3984 553.758 36.0905 556.431 Q39.7508 559.073 46.212 559.073 Q52.6732 559.073 56.3653 556.431 Q60.0256 553.758 60.0256 549.111 Q60.0256 544.464 56.3653 541.822 Q52.6732 539.148 46.212 539.148 Z" fill="#000000" fill-rule="nonzero" fill-opacity="1" /><path clip-path="url(#clip260)" d="M55.9197 522.534 L55.9197 515.818 L64.0042 515.818 L64.0042 522.534 L55.9197 522.534 Z" fill="#000000" fill-rule="nonzero" fill-opacity="1" /><path clip-path="url(#clip260)" d="M49.9359 503.246 L28.3562 503.246 L28.3562 497.389 L49.7131 497.389 Q54.7739 497.389 57.3202 495.416 Q59.8346 493.442 59.8346 489.496 Q59.8346 484.753 56.8109 482.016 Q53.7872 479.247 48.5673 479.247 L28.3562 479.247 L28.3562 473.39 L64.0042 473.39 L64.0042 479.247 L58.5296 479.247 Q61.7762 481.379 63.3676 484.212 Q64.9272 487.013 64.9272 490.737 Q64.9272 496.88 61.1078 500.063 Q57.2883 503.246 49.9359 503.246 M27.4968 488.509 L27.4968 488.509 Z" fill="#000000" fill-rule="nonzero" fill-opacity="1" /><path clip-path="url(#clip260)" d="M55.9197 460.5 L55.9197 453.784 L64.0042 453.784 L64.0042 460.5 L55.9197 460.5 Z" fill="#000000" fill-rule="nonzero" fill-opacity="1" /><path clip-path="url(#clip260)" d="M14.479 426.921 L72.5979 426.921 L72.5979 440.416 L68.0464 440.416 L68.0464 432.809 L19.0304 432.809 L19.0304 440.416 L14.479 440.416 L14.479 426.921 Z" fill="#000000" fill-rule="nonzero" fill-opacity="1" /><polyline clip-path="url(#clip262)" style="stroke:#009af9; stroke-linecap:round; stroke-linejoin:round; stroke-width:12; stroke-opacity:1; fill:none" points="280.231,809.388 285.759,804.118 291.287,798.848 296.815,793.577 302.343,789.045 307.871,786.075 313.399,780.805 318.926,775.534 324.454,770.264 329.982,764.994 335.51,759.723 341.038,754.453 346.566,749.182 352.094,743.912 357.622,738.642 363.15,733.371 368.678,728.101 374.206,725.951 379.733,727.154 385.261,726.459 390.789,725.758 396.317,726.961 401.845,726.294 407.373,721.548 412.901,720.215 418.429,715.813 423.957,712.664 429.485,707.393 435.013,702.123 440.541,696.852 446.068,693.681 451.596,688.492 457.124,685.704 462.652,685.414 468.18,686.236 473.708,685.721 479.236,680.45 484.764,675.18 490.292,669.909 495.82,665.646 501.348,663.145 506.875,663.002 512.403,662.098 517.931,660.556 523.459,659.863 528.987,656.173 534.515,652.335 540.043,647.797 545.571,643.097 551.099,637.827 556.627,633.781 562.155,630.149 567.683,626.018 573.21,620.747 578.738,616.143 584.266,615.238 589.794,613.334 595.322,612.361 600.85,610.162 606.378,604.892 611.906,599.621 617.434,594.51 622.962,591.713 628.49,590.24 634.017,585.383 639.545,580.112 645.073,575.385 650.601,573.475 656.129,573.337 661.657,572.548 667.185,569.688 672.713,567.379 678.241,564.526 683.769,560.699 689.297,558.639 694.824,559.551 700.352,559.746 705.88,560.011 711.408,560.157 716.936,556.557 722.464,554.483 727.992,552.916 733.52,553.083 739.048,552.174 744.576,547.308 750.104,544.376 755.632,541.297 761.159,536.027 766.687,530.756 772.215,525.486 777.743,520.384 783.271,517.68 788.799,517.826 794.327,517.7 799.855,518.264 805.383,518.558 810.911,519.8 816.439,521.864 821.966,524.583 827.494,526.983 833.022,525.438 838.55,524.696 844.078,525.729 849.606,525.962 855.134,528.161 860.662,530.749 866.19,531.539 871.718,531.079 877.246,533.825 882.773,536.364 888.301,539.602 893.829,543.134 899.357,548.777 904.885,553.21 910.413,554.691 915.941,556.318 921.469,557.571 926.997,559.33 932.525,562.579 938.053,568.222 943.581,573.866 949.108,579.509 954.636,583.918 960.164,589.561 965.692,595.205 971.22,600.102 976.748,605.746 982.276,611.389 987.804,617.033 993.332,622.676 998.86,628.32 1004.39,633.964 1009.92,639.607 1015.44,643.788 1020.97,647.689 1026.5,652.701 1032.03,658.344 1037.56,663.988 1043.08,669.631 1048.61,672.726 1054.14,675.325 1059.67,680.086 1065.19,685.167 1070.72,688.315 1076.25,690.785 1081.78,695.062 1087.31,700.065 1092.83,705.708 1098.36,710.667 1103.89,716.311 1109.42,721.782 1114.95,727.425 1120.47,733.069 1126,738.712 1131.53,744.356 1137.06,749.218 1142.59,754.862 1148.11,760.506 1153.64,766.149 1159.17,770.609 1164.7,776.253 1170.22,780.619 1175.75,783.218 1181.28,785.5 1186.81,791.144 1192.34,796.227 1197.86,799.059 1203.39,803.281 1208.92,808.262 1214.45,812.135 1219.98,813.339 1225.5,814.542 1231.03,815.992 1236.56,820.074 1242.09,825.718 1247.62,830.48 1253.14,832.351 1258.67,833.554 1264.2,834.757 1269.73,836.708 1275.26,838.424 1280.78,840.955 1286.31,844.025 1291.84,846.712 1297.37,848.72 1302.89,849.923 1308.42,855.567 1313.95,861.21 1319.48,864.198 1325.01,868.481 1330.53,874.125 1336.06,876.659 1341.59,877.91 1347.12,879.113 1352.65,880.316 1358.17,882.263 1363.7,884.47 1369.23,887.467 1374.76,892.52 1380.29,895.363 1385.81,897.982 1391.34,902.371 1396.87,906.555 1402.4,910.303 1407.93,912.36 1413.45,916.197 1418.98,919.61 1424.51,920.169 1430.04,922.13 1435.56,926.421 1441.09,930.587 1446.62,934.355 1452.15,936.092 1457.68,937.296 1463.2,938.588 1468.73,940.588 1474.26,942.768 1479.79,943.971 1485.32,945.175 1490.84,946.378 1496.37,947.581 1501.9,948.785 1507.43,949.988 1512.96,951.191 1518.48,953.658 1524.01,956.3 1529.54,958.832 1535.07,962.631 1540.6,967.719 1546.12,972.455 1551.65,974.347 1557.18,975.55 1562.71,976.754 1568.23,978.122 1573.76,979.313 1579.29,982.197 1584.82,984.034 1590.35,986.662 1595.87,988.854 1601.4,992.15 1606.93,996.207 1612.46,997.41 1617.99,998.613 1623.51,1001.79 1629.04,1006.43 1634.57,1007.64 1640.1,1008.84 1645.63,1010.15 1651.15,1011.69 1656.68,1014.92 1662.21,1019.11 1667.74,1020.31 1673.26,1021.52 1678.79,1022.37 1684.32,1022.72 1689.85,1024.02 1695.38,1022.99 1700.9,1022.17 1706.43,1021.48 1711.96,1020.2 1717.49,1021.74 1723.02,1023.31 1728.54,1024.52 1734.07,1025.72 1739.6,1026.4 1745.13,1027.02 1750.66,1026.34 1756.18,1027.77 1761.71,1028.97 1767.24,1028.85 1772.77,1027.94 1778.3,1027.81 1783.82,1027.21 1789.35,1028.47 1794.88,1031.46 1800.41,1032.67 1805.93,1033.87 1811.46,1034.21 1816.99,1035.5 1822.52,1036.42 1828.05,1038.13 1833.57,1039.33 1839.1,1040.53 1844.63,1040.3 1850.16,1041.83 1855.69,1043.46 1861.21,1045.06 1866.74,1046.75 1872.27,1048.68 1877.8,1049.89 1883.33,1051.09 1888.85,1052.29 1894.38,1053.5 1899.91,1053.02 1905.44,1051.39 1910.97,1052.02 1916.49,1051.37 1922.02,1052.97 1927.55,1052.01 1933.08,1051.64 1938.6,1051.78 1944.13,1052.02 1949.66,1051.85 1955.19,1049.53 1960.72,1050.14 1966.24,1050.94 1971.77,1051.89 1977.3,1053.09 1982.83,1054.18 1988.36,1053.44 1993.88,1050.57 1999.41,1047.86 2004.94,1042.59 2010.47,1037.91 2016,1034.86 2021.52,1032.95 2027.05,1028.72 2032.58,1023.45 2038.11,1020.54 2043.64,1016.5 2049.16,1012.44 2054.69,1007.58 2060.22,1002.31 2065.75,998.667 2071.27,995.152 2076.8,992.184 2082.33,992.489 2087.86,987.856 2093.39,982.79 2098.91,980.137 2104.44,974.866 2109.97,969.596 2115.5,964.325 2121.03,959.055 2126.55,953.785 2132.08,949.475 2137.61,944.736 2143.14,939.466 2148.67,934.195 2154.19,928.925 2159.72,923.655 2165.25,918.833 2170.78,913.563 2176.3,908.293 2181.83,903.022 2187.36,897.967 2192.89,896.311 2198.42,895.351 2203.94,894.582 2209.47,890.187 2215,884.917 2220.53,879.646 2226.06,874.376 2231.58,869.106 2237.11,863.835 2242.64,858.565 2248.17,853.294 2253.7,848.024 2259.22,842.753 2264.75,837.551 2270.28,833.467 2275.81,829.598 2281.34,825.2 2286.86,819.929 2292.39,814.659 "/>
<polyline clip-path="url(#clip262)" style="stroke:#e26f46; stroke-linecap:round; stroke-linejoin:round; stroke-width:12; stroke-opacity:1; fill:none" points="280.231,803.908 285.759,793.157 291.287,782.406 296.815,771.655 302.343,761.798 307.871,753.835 313.399,743.084 318.926,732.333 324.454,721.582 329.982,710.831 335.51,700.08 341.038,689.329 346.566,678.578 352.094,667.827 357.622,657.076 363.15,646.325 368.678,635.574 374.206,628.604 379.733,625.699 385.261,620.492 390.789,615.279 396.317,612.373 401.845,607.2 407.373,597.085 412.901,591.105 418.429,581.407 423.957,573.226 429.485,562.475 435.013,551.724 440.541,540.972 446.068,532.766 451.596,522.112 457.124,514.37 462.652,509.655 468.18,506.287 473.708,501.298 479.236,490.547 484.764,479.796 490.292,469.045 495.82,459.514 501.348,452.119 506.875,447.582 512.403,442.122 517.931,435.89 523.459,430.686 528.987,424.205 534.515,417.323 540.043,408.267 545.571,399.058 551.099,388.307 556.627,380.864 562.155,372.099 567.683,363.337 573.21,352.585 578.738,342.642 584.266,337.182 589.794,330.509 595.322,324.967 600.85,317.938 606.378,307.186 611.906,296.435 617.434,286.115 622.962,278.361 628.49,272.212 634.017,261.962 639.545,251.211 645.073,241.927 650.601,235.249 656.129,238.364 661.657,234.53 667.185,226.7 672.713,223.95 678.241,218.65 683.769,210.584 689.297,208.509 694.824,214.463 700.352,210.334 705.88,206.291 711.408,202.104 716.936,193.378 722.464,186.501 727.992,185.412 733.52,181.25 739.048,175.785 744.576,165.524 750.104,157.607 755.632,149.511 761.159,138.76 766.687,128.009 772.215,117.258 777.743,106.712 783.271,102.287 788.799,98.1008 794.327,93.8747 799.855,90.1941 805.383,86.1857 810.911,93.0327 816.439,100.935 821.966,111.221 827.494,117.726 833.022,113.116 838.55,114.601 844.078,120.88 849.606,125 855.134,134.431 860.662,144.912 866.19,149.009 871.718,146.377 877.246,155.913 882.773,166.263 888.301,177.085 893.829,187.905 899.357,206.643 904.885,219.478 910.413,221.06 915.941,220.221 921.469,217.555 926.997,218.929 932.525,231.197 938.053,249.935 943.581,268.673 949.108,287.412 954.636,300.129 960.164,318.867 965.692,337.605 971.22,354.328 976.748,373.066 982.276,391.805 987.804,410.543 993.332,429.281 998.86,448.02 1004.39,466.758 1009.92,485.496 1015.44,497.106 1020.97,507.35 1026.5,523.007 1032.03,541.745 1037.56,560.483 1043.08,579.222 1048.61,585.537 1054.14,589.434 1059.67,603.871 1065.19,619.865 1070.72,626.44 1076.25,629.708 1081.78,641.786 1087.31,657.401 1092.83,676.139 1098.36,691.54 1103.89,710.278 1109.42,728.55 1114.95,747.288 1120.47,766.026 1126,784.765 1131.53,803.503 1137.06,818.435 1142.59,837.174 1148.11,855.912 1153.64,874.65 1159.17,887.619 1164.7,906.357 1170.22,918.872 1175.75,922.768 1181.28,925.12 1186.81,943.859 1192.34,959.865 1197.86,964.901 1203.39,976.71 1208.92,993.658 1214.45,1003.77 1219.98,1000.86 1225.5,997.955 1231.03,996.249 1236.56,1007.38 1242.09,1026.12 1247.62,1040.56 1253.14,1040.91 1258.67,1038 1264.2,1035.1 1269.73,1035.83 1275.26,1035.43 1280.78,1038.99 1286.31,1045.19 1291.84,1049.51 1297.37,1050.53 1302.89,1047.62 1308.42,1066.36 1313.95,1085.1 1319.48,1096.66 1325.01,1111.72 1330.53,1130.46 1336.06,1134.04 1341.59,1131.37 1347.12,1128.46 1352.65,1125.56 1358.17,1126.28 1363.7,1128.26 1369.23,1134.1 1374.76,1149.96 1380.29,1155.05 1385.81,1159.04 1391.34,1171.66 1396.87,1183.29 1402.4,1192.79 1407.93,1194.04 1413.45,1206.94 1418.98,1219.66 1424.51,1219 1430.04,1221.06 1435.56,1234.36 1441.09,1245.89 1446.62,1255.49 1452.15,1255.18 1457.68,1252.28 1463.2,1249.81 1468.73,1250.78 1474.26,1252.64 1479.79,1249.73 1485.32,1246.83 1490.84,1243.92 1496.37,1241.02 1501.9,1238.11 1507.43,1235.2 1512.96,1232.3 1518.48,1235.55 1524.01,1239.66 1529.54,1243.23 1535.07,1252.98 1540.6,1269.35 1546.12,1283.67 1551.65,1284.12 1557.18,1281.22 1562.71,1278.31 1568.23,1276.21 1573.76,1277.94 1579.29,1287.83 1584.82,1296.28 1590.35,1304.5 1595.87,1312.26 1601.4,1322.55 1606.93,1333.56 1612.46,1330.65 1617.99,1327.74 1623.51,1336.06 1629.04,1350.6 1634.57,1347.7 1640.1,1344.79 1645.63,1350.27 1651.15,1355.42 1656.68,1365.95 1662.21,1377.58 1667.74,1374.67 1673.26,1371.77 1678.79,1371.25 1684.32,1374.77 1689.85,1378.68 1695.38,1379.37 1700.9,1380.48 1706.43,1375.28 1711.96,1374.18 1717.49,1381.84 1723.02,1384.24 1728.54,1381.33 1734.07,1378.43 1739.6,1375.73 1745.13,1372.13 1750.66,1366.94 1756.18,1365.11 1761.71,1362.2 1767.24,1357.69 1772.77,1352.22 1778.3,1347.7 1783.82,1343.91 1789.35,1350.8 1794.88,1362.37 1800.41,1359.46 1805.93,1356.56 1811.46,1352.61 1816.99,1359.46 1822.52,1364.11 1828.05,1363.66 1833.57,1360.75 1839.1,1357.85 1844.63,1353.2 1850.16,1351.87 1855.69,1353.45 1861.21,1355.1 1866.74,1361.46 1872.27,1367.32 1877.8,1364.41 1883.33,1361.51 1888.85,1358.6 1894.38,1355.7 1899.91,1350.76 1905.44,1349.83 1910.97,1355.03 1916.49,1350.11 1922.02,1356.96 1927.55,1352.49 1933.08,1348.78 1938.6,1347.48 1944.13,1343.41 1949.66,1338.84 1955.19,1333.12 1960.72,1336.8 1966.24,1339.52 1971.77,1336.3 1977.3,1333.39 1982.83,1330.35 1988.36,1325.09 1993.88,1319.17 1999.41,1315.34 2004.94,1304.59 2010.47,1295.44 2016,1290.68 2021.52,1288.2 2027.05,1280.26 2032.58,1269.51 2038.11,1261.61 2043.64,1252.36 2049.16,1244.05 2054.69,1234.43 2060.22,1223.68 2065.75,1214.9 2071.27,1206.28 2076.8,1198.31 2082.33,1194.32 2087.86,1185.29 2093.39,1174.79 2098.91,1167.21 2104.44,1156.46 2109.97,1145.71 2115.5,1134.95 2121.03,1124.2 2126.55,1113.45 2132.08,1104.59 2137.61,1094.49 2143.14,1083.74 2148.67,1072.99 2154.19,1062.23 2159.72,1051.48 2165.25,1041.28 2170.78,1030.53 2176.3,1019.77 2181.83,1009.02 2187.36,998.533 2192.89,992.162 2198.42,986.635 2203.94,981.339 2209.47,971.649 2215,960.898 2220.53,950.147 2226.06,939.396 2231.58,928.645 2237.11,917.894 2242.64,907.143 2248.17,896.392 2253.7,885.641 2259.22,874.89 2264.75,864.222 2270.28,854.908 2275.81,845.855 2281.34,836.161 2286.86,825.41 2292.39,814.659 "/>
<polyline clip-path="url(#clip262)" style="stroke:#3da44d; stroke-linecap:round; stroke-linejoin:round; stroke-width:12; stroke-opacity:1; fill:none" points="280.231,644.577 285.759,644.581 291.287,644.585 296.815,644.59 302.343,644.597 307.871,644.613 313.399,644.617 318.926,644.621 324.454,644.626 329.982,644.63 335.51,644.634 341.038,644.639 346.566,644.643 352.094,644.647 357.622,644.652 363.15,644.656 368.678,644.66 374.206,644.68 379.733,644.715 385.261,644.742 390.789,644.768 396.317,644.804 401.845,644.83 407.373,644.837 412.901,644.861 418.429,644.869 423.957,644.884 429.485,644.888 435.013,644.892 440.541,644.896 446.068,644.911 451.596,644.916 457.124,644.932 462.652,644.96 468.18,644.994 473.708,645.021 479.236,645.026 484.764,645.03 490.292,645.034 495.82,645.044 501.348,645.061 506.875,645.09 512.403,645.116 517.931,645.138 523.459,645.165 528.987,645.16 534.515,645.157 540.043,645.159 545.571,645.161 551.099,645.165 556.627,645.163 562.155,645.175 567.683,645.181 573.21,645.185 578.738,645.193 584.266,645.218 589.794,645.239 595.322,645.264 600.85,645.283 606.378,645.287 611.906,645.291 617.434,645.295 622.962,645.311 628.49,645.334 634.017,645.34 639.545,645.344 645.073,645.346 650.601,645.366 656.129,645.343 661.657,645.359 667.185,645.375 672.713,645.364 678.241,645.362 683.769,645.367 689.297,645.354 694.824,645.326 700.352,645.356 705.88,645.388 711.408,645.418 716.936,645.43 722.464,645.45 727.992,645.437 733.52,645.468 739.048,645.493 744.576,645.499 750.104,645.515 755.632,645.53 761.159,645.534 766.687,645.539 772.215,645.543 777.743,645.548 783.271,645.543 788.799,645.573 794.327,645.6 799.855,645.633 805.383,645.664 810.911,645.634 816.439,645.607 821.966,645.572 827.494,645.559 833.022,645.571 838.55,645.551 844.078,645.521 849.606,645.496 855.134,645.461 860.662,645.423 866.19,645.405 871.718,645.417 877.246,645.388 882.773,645.351 888.301,645.319 893.829,645.292 899.357,645.238 904.885,645.208 910.413,645.217 915.941,645.244 921.469,645.279 926.997,645.292 932.525,645.251 938.053,645.197 943.581,645.143 949.108,645.089 954.636,645.06 960.164,645.006 965.692,644.952 971.22,644.902 976.748,644.848 982.276,644.794 987.804,644.74 993.332,644.686 998.86,644.632 1004.39,644.578 1009.92,644.524 1015.44,644.5 1020.97,644.481 1026.5,644.44 1032.03,644.386 1037.56,644.332 1043.08,644.278 1048.61,644.276 1054.14,644.283 1059.67,644.247 1065.19,644.204 1070.72,644.201 1076.25,644.211 1081.78,644.184 1087.31,644.143 1092.83,644.089 1098.36,644.049 1103.89,643.995 1109.42,643.942 1114.95,643.888 1120.47,643.834 1126,643.78 1131.53,643.726 1137.06,643.688 1142.59,643.634 1148.11,643.58 1153.64,643.526 1159.17,643.496 1164.7,643.442 1170.22,643.414 1175.75,643.421 1181.28,643.435 1186.81,643.381 1192.34,643.339 1197.86,643.341 1203.39,643.316 1208.92,643.266 1214.45,643.247 1219.98,643.283 1225.5,643.319 1231.03,643.349 1236.56,643.327 1242.09,643.273 1247.62,643.237 1253.14,643.259 1258.67,643.295 1264.2,643.33 1269.73,643.351 1275.26,643.376 1280.78,643.385 1286.31,643.383 1291.84,643.389 1297.37,643.408 1302.89,643.444 1308.42,643.39 1313.95,643.336 1319.48,643.296 1325.01,643.249 1330.53,643.195 1336.06,643.204 1341.59,643.239 1347.12,643.274 1352.65,643.31 1358.17,643.331 1363.7,643.346 1369.23,643.345 1374.76,643.303 1380.29,643.306 1385.81,643.313 1391.34,643.284 1396.87,643.26 1402.4,643.244 1407.93,643.262 1413.45,643.225 1418.98,643.183 1424.51,643.194 1430.04,643.206 1435.56,643.172 1441.09,643.147 1446.62,643.131 1452.15,643.156 1457.68,643.192 1463.2,643.226 1468.73,643.245 1474.26,643.261 1479.79,643.297 1485.32,643.332 1490.84,643.368 1496.37,643.404 1501.9,643.439 1507.43,643.475 1512.96,643.511 1518.48,643.521 1524.01,643.527 1529.54,643.536 1535.07,643.519 1540.6,643.474 1546.12,643.439 1551.65,643.46 1557.18,643.496 1562.71,643.532 1568.23,643.564 1573.76,643.568 1579.29,643.538 1584.82,643.504 1590.35,643.483 1595.87,643.458 1601.4,643.431 1606.93,643.409 1612.46,643.445 1617.99,643.481 1623.51,643.466 1629.04,643.427 1634.57,643.463 1640.1,643.498 1645.63,643.478 1651.15,643.463 1656.68,643.434 1662.21,643.409 1667.74,643.445 1673.26,643.48 1678.79,643.495 1684.32,643.476 1689.85,643.466 1695.38,643.448 1700.9,643.429 1706.43,643.456 1711.96,643.447 1717.49,643.414 1723.02,643.419 1728.54,643.454 1734.07,643.49 1739.6,643.517 1745.13,643.55 1750.66,643.577 1756.18,643.608 1761.71,643.644 1767.24,643.673 1772.77,643.698 1778.3,643.727 1783.82,643.745 1789.35,643.715 1794.88,643.675 1800.41,643.711 1805.93,643.746 1811.46,643.778 1816.99,643.748 1822.52,643.728 1828.05,643.754 1833.57,643.789 1839.1,643.825 1844.63,643.854 1850.16,643.883 1855.69,643.893 1861.21,643.903 1866.74,643.882 1872.27,643.867 1877.8,643.903 1883.33,643.938 1888.85,643.974 1894.38,644.01 1899.91,644.037 1905.44,644.022 1910.97,643.995 1916.49,644.02 1922.02,643.994 1927.55,644.012 1933.08,644.033 1938.6,644.043 1944.13,644.074 1949.66,644.103 1955.19,644.112 1960.72,644.095 1966.24,644.087 1971.77,644.121 1977.3,644.157 1982.83,644.192 1988.36,644.218 1993.88,644.221 1999.41,644.211 2004.94,644.216 2010.47,644.217 2016,644.209 2021.52,644.201 2027.05,644.2 2032.58,644.204 2038.11,644.22 2043.64,644.23 2049.16,644.234 2054.69,644.236 2060.22,644.24 2065.75,644.252 2071.27,644.265 2076.8,644.28 2082.33,644.312 2087.86,644.313 2093.39,644.318 2098.91,644.335 2104.44,644.339 2109.97,644.344 2115.5,644.348 2121.03,644.352 2126.55,644.356 2132.08,644.36 2137.61,644.367 2143.14,644.372 2148.67,644.376 2154.19,644.38 2159.72,644.384 2165.25,644.391 2170.78,644.395 2176.3,644.4 2181.83,644.404 2187.36,644.409 2192.89,644.431 2198.42,644.456 2203.94,644.482 2209.47,644.491 2215,644.495 2220.53,644.499 2226.06,644.504 2231.58,644.508 2237.11,644.512 2242.64,644.517 2248.17,644.521 2253.7,644.525 2259.22,644.53 2264.75,644.534 2270.28,644.544 2275.81,644.555 2281.34,644.564 2286.86,644.568 2292.39,644.572 "/>
<path clip-path="url(#clip260)" d="M1588.54 300.469 L2281.66 300.469 L2281.66 93.1086 L1588.54 93.1086  Z" fill="#ffffff" fill-rule="evenodd" fill-opacity="1"/>
<polyline clip-path="url(#clip260)" style="stroke:#000000; stroke-linecap:round; stroke-linejoin:round; stroke-width:4; stroke-opacity:1; fill:none" points="1588.54,300.469 2281.66,300.469 2281.66,93.1086 1588.54,93.1086 1588.54,300.469 "/>
<polyline clip-path="url(#clip260)" style="stroke:#009af9; stroke-linecap:round; stroke-linejoin:round; stroke-width:12; stroke-opacity:1; fill:none" points="1612.23,144.949 1754.43,144.949 "/>
<path clip-path="url(#clip260)" d="M1778.13 127.669 L1799.98 127.669 L1799.98 131.604 L1782.8 131.604 L1782.8 141.835 L1799.26 141.835 L1799.26 145.77 L1782.8 145.77 L1782.8 158.293 L1800.39 158.293 L1800.39 162.229 L1778.13 162.229 L1778.13 127.669 Z" fill="#000000" fill-rule="nonzero" fill-opacity="1" /><path clip-path="url(#clip260)" d="M1828.8 128.803 L1828.8 133.363 Q1826.13 132.09 1823.77 131.465 Q1821.41 130.84 1819.21 130.84 Q1815.39 130.84 1813.31 132.321 Q1811.25 133.803 1811.25 136.534 Q1811.25 138.826 1812.62 140.007 Q1814 141.164 1817.85 141.882 L1820.67 142.46 Q1825.9 143.456 1828.38 145.979 Q1830.88 148.479 1830.88 152.692 Q1830.88 157.715 1827.5 160.307 Q1824.14 162.9 1817.64 162.9 Q1815.19 162.9 1812.41 162.344 Q1809.65 161.789 1806.69 160.701 L1806.69 155.886 Q1809.54 157.483 1812.27 158.293 Q1815 159.104 1817.64 159.104 Q1821.64 159.104 1823.82 157.53 Q1826 155.956 1826 153.039 Q1826 150.493 1824.42 149.057 Q1822.87 147.622 1819.31 146.905 L1816.46 146.349 Q1811.23 145.307 1808.89 143.085 Q1806.55 140.863 1806.55 136.905 Q1806.55 132.321 1809.77 129.682 Q1813.01 127.044 1818.68 127.044 Q1821.11 127.044 1823.63 127.483 Q1826.16 127.923 1828.8 128.803 Z" fill="#000000" fill-rule="nonzero" fill-opacity="1" /><path clip-path="url(#clip260)" d="M1857.69 170.099 L1857.69 173.409 L1833.06 173.409 L1833.06 170.099 L1857.69 170.099 Z" fill="#000000" fill-rule="nonzero" fill-opacity="1" /><path clip-path="url(#clip260)" d="M1861.87 127.669 L1866.55 127.669 L1866.55 141.835 L1883.54 141.835 L1883.54 127.669 L1888.22 127.669 L1888.22 162.229 L1883.54 162.229 L1883.54 145.77 L1866.55 145.77 L1866.55 162.229 L1861.87 162.229 L1861.87 127.669 Z" fill="#000000" fill-rule="nonzero" fill-opacity="1" /><path clip-path="url(#clip260)" d="M1908.12 164.636 Q1906.32 169.266 1904.61 170.678 Q1902.89 172.09 1900.02 172.09 L1896.62 172.09 L1896.62 168.525 L1899.12 168.525 Q1900.88 168.525 1901.85 167.692 Q1902.82 166.858 1904 163.756 L1904.77 161.812 L1894.28 136.303 L1898.8 136.303 L1906.9 156.581 L1915 136.303 L1919.51 136.303 L1908.12 164.636 Z" fill="#000000" fill-rule="nonzero" fill-opacity="1" /><path clip-path="url(#clip260)" d="M1942.45 140.238 L1942.45 126.21 L1946.71 126.21 L1946.71 162.229 L1942.45 162.229 L1942.45 158.34 Q1941.11 160.655 1939.05 161.789 Q1937.01 162.9 1934.14 162.9 Q1929.44 162.9 1926.48 159.15 Q1923.54 155.4 1923.54 149.289 Q1923.54 143.178 1926.48 139.428 Q1929.44 135.678 1934.14 135.678 Q1937.01 135.678 1939.05 136.812 Q1941.11 137.923 1942.45 140.238 M1927.94 149.289 Q1927.94 153.988 1929.86 156.673 Q1931.81 159.335 1935.18 159.335 Q1938.56 159.335 1940.51 156.673 Q1942.45 153.988 1942.45 149.289 Q1942.45 144.59 1940.51 141.928 Q1938.56 139.243 1935.18 139.243 Q1931.81 139.243 1929.86 141.928 Q1927.94 144.59 1927.94 149.289 Z" fill="#000000" fill-rule="nonzero" fill-opacity="1" /><path clip-path="url(#clip260)" d="M1970.51 140.284 Q1969.79 139.868 1968.93 139.682 Q1968.1 139.474 1967.08 139.474 Q1963.47 139.474 1961.53 141.835 Q1959.61 144.173 1959.61 148.571 L1959.61 162.229 L1955.32 162.229 L1955.32 136.303 L1959.61 136.303 L1959.61 140.331 Q1960.95 137.969 1963.1 136.835 Q1965.25 135.678 1968.33 135.678 Q1968.77 135.678 1969.3 135.747 Q1969.84 135.794 1970.49 135.909 L1970.51 140.284 Z" fill="#000000" fill-rule="nonzero" fill-opacity="1" /><path clip-path="url(#clip260)" d="M1983.98 139.289 Q1980.55 139.289 1978.56 141.974 Q1976.57 144.636 1976.57 149.289 Q1976.57 153.942 1978.54 156.627 Q1980.53 159.289 1983.98 159.289 Q1987.38 159.289 1989.37 156.604 Q1991.37 153.918 1991.37 149.289 Q1991.37 144.682 1989.37 141.997 Q1987.38 139.289 1983.98 139.289 M1983.98 135.678 Q1989.54 135.678 1992.71 139.289 Q1995.88 142.9 1995.88 149.289 Q1995.88 155.655 1992.71 159.289 Q1989.54 162.9 1983.98 162.9 Q1978.4 162.9 1975.23 159.289 Q1972.08 155.655 1972.08 149.289 Q1972.08 142.9 1975.23 139.289 Q1978.4 135.678 1983.98 135.678 Z" fill="#000000" fill-rule="nonzero" fill-opacity="1" /><path clip-path="url(#clip260)" d="M2022.64 170.099 L2022.64 173.409 L1998.01 173.409 L1998.01 170.099 L2022.64 170.099 Z" fill="#000000" fill-rule="nonzero" fill-opacity="1" /><path clip-path="url(#clip260)" d="M2043.22 146.025 Q2044.72 146.534 2046.13 148.201 Q2047.57 149.868 2049 152.784 L2053.75 162.229 L2048.73 162.229 L2044.3 153.363 Q2042.59 149.891 2040.97 148.756 Q2039.37 147.622 2036.6 147.622 L2031.5 147.622 L2031.5 162.229 L2026.83 162.229 L2026.83 127.669 L2037.38 127.669 Q2043.31 127.669 2046.23 130.145 Q2049.14 132.622 2049.14 137.622 Q2049.14 140.886 2047.61 143.039 Q2046.11 145.192 2043.22 146.025 M2031.5 131.511 L2031.5 143.78 L2037.38 143.78 Q2040.76 143.78 2042.48 142.229 Q2044.21 140.655 2044.21 137.622 Q2044.21 134.59 2042.48 133.062 Q2040.76 131.511 2037.38 131.511 L2031.5 131.511 Z" fill="#000000" fill-rule="nonzero" fill-opacity="1" /><path clip-path="url(#clip260)" d="M2079.63 148.201 L2079.63 150.284 L2060.05 150.284 Q2060.32 154.682 2062.68 156.997 Q2065.07 159.289 2069.3 159.289 Q2071.76 159.289 2074.05 158.687 Q2076.36 158.085 2078.63 156.881 L2078.63 160.909 Q2076.34 161.881 2073.93 162.391 Q2071.53 162.9 2069.05 162.9 Q2062.85 162.9 2059.21 159.289 Q2055.6 155.678 2055.6 149.52 Q2055.6 143.155 2059.03 139.428 Q2062.48 135.678 2068.31 135.678 Q2073.54 135.678 2076.57 139.057 Q2079.63 142.414 2079.63 148.201 M2075.37 146.951 Q2075.32 143.456 2073.4 141.372 Q2071.5 139.289 2068.36 139.289 Q2064.79 139.289 2062.64 141.303 Q2060.51 143.317 2060.18 146.974 L2075.37 146.951 Z" fill="#000000" fill-rule="nonzero" fill-opacity="1" /><path clip-path="url(#clip260)" d="M2103.15 137.067 L2103.15 141.094 Q2101.34 140.169 2099.4 139.706 Q2097.45 139.243 2095.37 139.243 Q2092.2 139.243 2090.6 140.215 Q2089.03 141.187 2089.03 143.131 Q2089.03 144.613 2090.16 145.469 Q2091.3 146.303 2094.72 147.067 L2096.18 147.391 Q2100.72 148.363 2102.61 150.145 Q2104.54 151.905 2104.54 155.076 Q2104.54 158.687 2101.67 160.793 Q2098.82 162.9 2093.82 162.9 Q2091.73 162.9 2089.47 162.483 Q2087.22 162.09 2084.72 161.28 L2084.72 156.881 Q2087.08 158.108 2089.37 158.733 Q2091.67 159.335 2093.91 159.335 Q2096.92 159.335 2098.54 158.317 Q2100.16 157.275 2100.16 155.4 Q2100.16 153.664 2098.98 152.738 Q2097.82 151.812 2093.86 150.956 L2092.38 150.608 Q2088.42 149.775 2086.67 148.062 Q2084.91 146.326 2084.91 143.317 Q2084.91 139.659 2087.5 137.669 Q2090.09 135.678 2094.86 135.678 Q2097.22 135.678 2099.3 136.025 Q2101.39 136.372 2103.15 137.067 Z" fill="#000000" fill-rule="nonzero" fill-opacity="1" /><path clip-path="url(#clip260)" d="M2133.49 148.201 L2133.49 150.284 L2113.91 150.284 Q2114.19 154.682 2116.55 156.997 Q2118.93 159.289 2123.17 159.289 Q2125.62 159.289 2127.92 158.687 Q2130.23 158.085 2132.5 156.881 L2132.5 160.909 Q2130.21 161.881 2127.8 162.391 Q2125.39 162.9 2122.92 162.9 Q2116.71 162.9 2113.08 159.289 Q2109.47 155.678 2109.47 149.52 Q2109.47 143.155 2112.89 139.428 Q2116.34 135.678 2122.17 135.678 Q2127.41 135.678 2130.44 139.057 Q2133.49 142.414 2133.49 148.201 M2129.23 146.951 Q2129.19 143.456 2127.27 141.372 Q2125.37 139.289 2122.22 139.289 Q2118.66 139.289 2116.5 141.303 Q2114.37 143.317 2114.05 146.974 L2129.23 146.951 Z" fill="#000000" fill-rule="nonzero" fill-opacity="1" /><path clip-path="url(#clip260)" d="M2155.51 140.284 Q2154.79 139.868 2153.93 139.682 Q2153.1 139.474 2152.08 139.474 Q2148.47 139.474 2146.53 141.835 Q2144.6 144.173 2144.6 148.571 L2144.6 162.229 L2140.32 162.229 L2140.32 136.303 L2144.6 136.303 L2144.6 140.331 Q2145.95 137.969 2148.1 136.835 Q2150.25 135.678 2153.33 135.678 Q2153.77 135.678 2154.3 135.747 Q2154.84 135.794 2155.48 135.909 L2155.51 140.284 Z" fill="#000000" fill-rule="nonzero" fill-opacity="1" /><path clip-path="url(#clip260)" d="M2156.92 136.303 L2161.43 136.303 L2169.54 158.062 L2177.64 136.303 L2182.15 136.303 L2172.43 162.229 L2166.64 162.229 L2156.92 136.303 Z" fill="#000000" fill-rule="nonzero" fill-opacity="1" /><path clip-path="url(#clip260)" d="M2198.08 139.289 Q2194.65 139.289 2192.66 141.974 Q2190.67 144.636 2190.67 149.289 Q2190.67 153.942 2192.64 156.627 Q2194.63 159.289 2198.08 159.289 Q2201.48 159.289 2203.47 156.604 Q2205.46 153.918 2205.46 149.289 Q2205.46 144.682 2203.47 141.997 Q2201.48 139.289 2198.08 139.289 M2198.08 135.678 Q2203.63 135.678 2206.8 139.289 Q2209.97 142.9 2209.97 149.289 Q2209.97 155.655 2206.8 159.289 Q2203.63 162.9 2198.08 162.9 Q2192.5 162.9 2189.33 159.289 Q2186.18 155.655 2186.18 149.289 Q2186.18 142.9 2189.33 139.289 Q2192.5 135.678 2198.08 135.678 Z" fill="#000000" fill-rule="nonzero" fill-opacity="1" /><path clip-path="url(#clip260)" d="M2217.04 136.303 L2221.29 136.303 L2221.29 162.229 L2217.04 162.229 L2217.04 136.303 M2217.04 126.21 L2221.29 126.21 L2221.29 131.604 L2217.04 131.604 L2217.04 126.21 Z" fill="#000000" fill-rule="nonzero" fill-opacity="1" /><path clip-path="url(#clip260)" d="M2245.23 140.284 Q2244.51 139.868 2243.66 139.682 Q2242.82 139.474 2241.8 139.474 Q2238.19 139.474 2236.25 141.835 Q2234.33 144.173 2234.33 148.571 L2234.33 162.229 L2230.04 162.229 L2230.04 136.303 L2234.33 136.303 L2234.33 140.331 Q2235.67 137.969 2237.82 136.835 Q2239.97 135.678 2243.05 135.678 Q2243.49 135.678 2244.03 135.747 Q2244.56 135.794 2245.21 135.909 L2245.23 140.284 Z" fill="#000000" fill-rule="nonzero" fill-opacity="1" /><polyline clip-path="url(#clip260)" style="stroke:#e26f46; stroke-linecap:round; stroke-linejoin:round; stroke-width:12; stroke-opacity:1; fill:none" points="1612.23,196.789 1754.43,196.789 "/>
<path clip-path="url(#clip260)" d="M1778.13 179.509 L1797.99 179.509 L1797.99 183.444 L1782.8 183.444 L1782.8 193.629 L1796.5 193.629 L1796.5 197.564 L1782.8 197.564 L1782.8 214.069 L1778.13 214.069 L1778.13 179.509 Z" fill="#000000" fill-rule="nonzero" fill-opacity="1" /><path clip-path="url(#clip260)" d="M1821.78 197.865 Q1823.29 198.374 1824.7 200.041 Q1826.13 201.708 1827.57 204.624 L1832.31 214.069 L1827.29 214.069 L1822.87 205.203 Q1821.16 201.731 1819.54 200.596 Q1817.94 199.462 1815.16 199.462 L1810.07 199.462 L1810.07 214.069 L1805.39 214.069 L1805.39 179.509 L1815.95 179.509 Q1821.88 179.509 1824.79 181.985 Q1827.71 184.462 1827.71 189.462 Q1827.71 192.726 1826.18 194.879 Q1824.68 197.032 1821.78 197.865 M1810.07 183.351 L1810.07 195.62 L1815.95 195.62 Q1819.33 195.62 1821.04 194.069 Q1822.78 192.495 1822.78 189.462 Q1822.78 186.43 1821.04 184.902 Q1819.33 183.351 1815.95 183.351 L1810.07 183.351 Z" fill="#000000" fill-rule="nonzero" fill-opacity="1" /><path clip-path="url(#clip260)" d="M1857.85 221.939 L1857.85 225.249 L1833.22 225.249 L1833.22 221.939 L1857.85 221.939 Z" fill="#000000" fill-rule="nonzero" fill-opacity="1" /><path clip-path="url(#clip260)" d="M1862.04 179.509 L1866.71 179.509 L1866.71 193.675 L1883.7 193.675 L1883.7 179.509 L1888.38 179.509 L1888.38 214.069 L1883.7 214.069 L1883.7 197.61 L1866.71 197.61 L1866.71 214.069 L1862.04 214.069 L1862.04 179.509 Z" fill="#000000" fill-rule="nonzero" fill-opacity="1" /><path clip-path="url(#clip260)" d="M1908.29 216.476 Q1906.48 221.106 1904.77 222.518 Q1903.06 223.93 1900.18 223.93 L1896.78 223.93 L1896.78 220.365 L1899.28 220.365 Q1901.04 220.365 1902.01 219.532 Q1902.99 218.698 1904.17 215.596 L1904.93 213.652 L1894.44 188.143 L1898.96 188.143 L1907.06 208.421 L1915.16 188.143 L1919.68 188.143 L1908.29 216.476 Z" fill="#000000" fill-rule="nonzero" fill-opacity="1" /><path clip-path="url(#clip260)" d="M1942.62 192.078 L1942.62 178.05 L1946.87 178.05 L1946.87 214.069 L1942.62 214.069 L1942.62 210.18 Q1941.27 212.495 1939.21 213.629 Q1937.18 214.74 1934.31 214.74 Q1929.61 214.74 1926.64 210.99 Q1923.7 207.24 1923.7 201.129 Q1923.7 195.018 1926.64 191.268 Q1929.61 187.518 1934.31 187.518 Q1937.18 187.518 1939.21 188.652 Q1941.27 189.763 1942.62 192.078 M1928.1 201.129 Q1928.1 205.828 1930.02 208.513 Q1931.97 211.175 1935.35 211.175 Q1938.73 211.175 1940.67 208.513 Q1942.62 205.828 1942.62 201.129 Q1942.62 196.43 1940.67 193.768 Q1938.73 191.083 1935.35 191.083 Q1931.97 191.083 1930.02 193.768 Q1928.1 196.43 1928.1 201.129 Z" fill="#000000" fill-rule="nonzero" fill-opacity="1" /><path clip-path="url(#clip260)" d="M1970.67 192.124 Q1969.95 191.708 1969.1 191.522 Q1968.26 191.314 1967.24 191.314 Q1963.63 191.314 1961.69 193.675 Q1959.77 196.013 1959.77 200.411 L1959.77 214.069 L1955.49 214.069 L1955.49 188.143 L1959.77 188.143 L1959.77 192.171 Q1961.11 189.809 1963.26 188.675 Q1965.42 187.518 1968.49 187.518 Q1968.93 187.518 1969.47 187.587 Q1970 187.634 1970.65 187.749 L1970.67 192.124 Z" fill="#000000" fill-rule="nonzero" fill-opacity="1" /><path clip-path="url(#clip260)" d="M1984.14 191.129 Q1980.72 191.129 1978.73 193.814 Q1976.74 196.476 1976.74 201.129 Q1976.74 205.782 1978.7 208.467 Q1980.69 211.129 1984.14 211.129 Q1987.55 211.129 1989.54 208.444 Q1991.53 205.758 1991.53 201.129 Q1991.53 196.522 1989.54 193.837 Q1987.55 191.129 1984.14 191.129 M1984.14 187.518 Q1989.7 187.518 1992.87 191.129 Q1996.04 194.74 1996.04 201.129 Q1996.04 207.495 1992.87 211.129 Q1989.7 214.74 1984.14 214.74 Q1978.56 214.74 1975.39 211.129 Q1972.24 207.495 1972.24 201.129 Q1972.24 194.74 1975.39 191.129 Q1978.56 187.518 1984.14 187.518 Z" fill="#000000" fill-rule="nonzero" fill-opacity="1" /><path clip-path="url(#clip260)" d="M2022.8 221.939 L2022.8 225.249 L1998.17 225.249 L1998.17 221.939 L2022.8 221.939 Z" fill="#000000" fill-rule="nonzero" fill-opacity="1" /><path clip-path="url(#clip260)" d="M2043.38 197.865 Q2044.88 198.374 2046.3 200.041 Q2047.73 201.708 2049.17 204.624 L2053.91 214.069 L2048.89 214.069 L2044.47 205.203 Q2042.75 201.731 2041.13 200.596 Q2039.54 199.462 2036.76 199.462 L2031.67 199.462 L2031.67 214.069 L2026.99 214.069 L2026.99 179.509 L2037.55 179.509 Q2043.47 179.509 2046.39 181.985 Q2049.3 184.462 2049.3 189.462 Q2049.3 192.726 2047.78 194.879 Q2046.27 197.032 2043.38 197.865 M2031.67 183.351 L2031.67 195.62 L2037.55 195.62 Q2040.92 195.62 2042.64 194.069 Q2044.37 192.495 2044.37 189.462 Q2044.37 186.43 2042.64 184.902 Q2040.92 183.351 2037.55 183.351 L2031.67 183.351 Z" fill="#000000" fill-rule="nonzero" fill-opacity="1" /><path clip-path="url(#clip260)" d="M2079.79 200.041 L2079.79 202.124 L2060.21 202.124 Q2060.49 206.522 2062.85 208.837 Q2065.23 211.129 2069.47 211.129 Q2071.92 211.129 2074.21 210.527 Q2076.53 209.925 2078.8 208.721 L2078.8 212.749 Q2076.5 213.721 2074.1 214.231 Q2071.69 214.74 2069.21 214.74 Q2063.01 214.74 2059.37 211.129 Q2055.76 207.518 2055.76 201.36 Q2055.76 194.995 2059.19 191.268 Q2062.64 187.518 2068.47 187.518 Q2073.7 187.518 2076.73 190.897 Q2079.79 194.254 2079.79 200.041 M2075.53 198.791 Q2075.48 195.296 2073.56 193.212 Q2071.67 191.129 2068.52 191.129 Q2064.95 191.129 2062.8 193.143 Q2060.67 195.157 2060.35 198.814 L2075.53 198.791 Z" fill="#000000" fill-rule="nonzero" fill-opacity="1" /><path clip-path="url(#clip260)" d="M2103.31 188.907 L2103.31 192.934 Q2101.5 192.009 2099.56 191.546 Q2097.61 191.083 2095.53 191.083 Q2092.36 191.083 2090.76 192.055 Q2089.19 193.027 2089.19 194.971 Q2089.19 196.453 2090.32 197.309 Q2091.46 198.143 2094.88 198.907 L2096.34 199.231 Q2100.88 200.203 2102.78 201.985 Q2104.7 203.745 2104.7 206.916 Q2104.7 210.527 2101.83 212.633 Q2098.98 214.74 2093.98 214.74 Q2091.9 214.74 2089.63 214.323 Q2087.38 213.93 2084.88 213.12 L2084.88 208.721 Q2087.24 209.948 2089.54 210.573 Q2091.83 211.175 2094.07 211.175 Q2097.08 211.175 2098.7 210.157 Q2100.32 209.115 2100.32 207.24 Q2100.32 205.504 2099.14 204.578 Q2097.98 203.652 2094.03 202.796 L2092.55 202.448 Q2088.59 201.615 2086.83 199.902 Q2085.07 198.166 2085.07 195.157 Q2085.07 191.499 2087.66 189.509 Q2090.25 187.518 2095.02 187.518 Q2097.38 187.518 2099.47 187.865 Q2101.55 188.212 2103.31 188.907 Z" fill="#000000" fill-rule="nonzero" fill-opacity="1" /><path clip-path="url(#clip260)" d="M2133.66 200.041 L2133.66 202.124 L2114.07 202.124 Q2114.35 206.522 2116.71 208.837 Q2119.1 211.129 2123.33 211.129 Q2125.79 211.129 2128.08 210.527 Q2130.39 209.925 2132.66 208.721 L2132.66 212.749 Q2130.37 213.721 2127.96 214.231 Q2125.55 214.74 2123.08 214.74 Q2116.87 214.74 2113.24 211.129 Q2109.63 207.518 2109.63 201.36 Q2109.63 194.995 2113.05 191.268 Q2116.5 187.518 2122.34 187.518 Q2127.57 187.518 2130.6 190.897 Q2133.66 194.254 2133.66 200.041 M2129.4 198.791 Q2129.35 195.296 2127.43 193.212 Q2125.53 191.129 2122.38 191.129 Q2118.82 191.129 2116.67 193.143 Q2114.54 195.157 2114.21 198.814 L2129.4 198.791 Z" fill="#000000" fill-rule="nonzero" fill-opacity="1" /><path clip-path="url(#clip260)" d="M2155.67 192.124 Q2154.95 191.708 2154.1 191.522 Q2153.26 191.314 2152.24 191.314 Q2148.63 191.314 2146.69 193.675 Q2144.77 196.013 2144.77 200.411 L2144.77 214.069 L2140.48 214.069 L2140.48 188.143 L2144.77 188.143 L2144.77 192.171 Q2146.11 189.809 2148.26 188.675 Q2150.42 187.518 2153.49 187.518 Q2153.93 187.518 2154.47 187.587 Q2155 187.634 2155.65 187.749 L2155.67 192.124 Z" fill="#000000" fill-rule="nonzero" fill-opacity="1" /><path clip-path="url(#clip260)" d="M2157.08 188.143 L2161.6 188.143 L2169.7 209.902 L2177.8 188.143 L2182.31 188.143 L2172.59 214.069 L2166.8 214.069 L2157.08 188.143 Z" fill="#000000" fill-rule="nonzero" fill-opacity="1" /><path clip-path="url(#clip260)" d="M2198.24 191.129 Q2194.81 191.129 2192.82 193.814 Q2190.83 196.476 2190.83 201.129 Q2190.83 205.782 2192.8 208.467 Q2194.79 211.129 2198.24 211.129 Q2201.64 211.129 2203.63 208.444 Q2205.62 205.758 2205.62 201.129 Q2205.62 196.522 2203.63 193.837 Q2201.64 191.129 2198.24 191.129 M2198.24 187.518 Q2203.79 187.518 2206.97 191.129 Q2210.14 194.74 2210.14 201.129 Q2210.14 207.495 2206.97 211.129 Q2203.79 214.74 2198.24 214.74 Q2192.66 214.74 2189.49 211.129 Q2186.34 207.495 2186.34 201.129 Q2186.34 194.74 2189.49 191.129 Q2192.66 187.518 2198.24 187.518 Z" fill="#000000" fill-rule="nonzero" fill-opacity="1" /><path clip-path="url(#clip260)" d="M2217.2 188.143 L2221.46 188.143 L2221.46 214.069 L2217.2 214.069 L2217.2 188.143 M2217.2 178.05 L2221.46 178.05 L2221.46 183.444 L2217.2 183.444 L2217.2 178.05 Z" fill="#000000" fill-rule="nonzero" fill-opacity="1" /><path clip-path="url(#clip260)" d="M2245.39 192.124 Q2244.67 191.708 2243.82 191.522 Q2242.98 191.314 2241.97 191.314 Q2238.35 191.314 2236.41 193.675 Q2234.49 196.013 2234.49 200.411 L2234.49 214.069 L2230.21 214.069 L2230.21 188.143 L2234.49 188.143 L2234.49 192.171 Q2235.83 189.809 2237.98 188.675 Q2240.14 187.518 2243.22 187.518 Q2243.66 187.518 2244.19 187.587 Q2244.72 187.634 2245.37 187.749 L2245.39 192.124 Z" fill="#000000" fill-rule="nonzero" fill-opacity="1" /><polyline clip-path="url(#clip260)" style="stroke:#3da44d; stroke-linecap:round; stroke-linejoin:round; stroke-width:12; stroke-opacity:1; fill:none" points="1612.23,248.629 1754.43,248.629 "/>
<path clip-path="url(#clip260)" d="M1778.13 231.349 L1784.42 231.349 L1799.75 260.261 L1799.75 231.349 L1804.28 231.349 L1804.28 265.909 L1797.99 265.909 L1782.66 236.997 L1782.66 265.909 L1778.13 265.909 L1778.13 231.349 Z" fill="#000000" fill-rule="nonzero" fill-opacity="1" /><path clip-path="url(#clip260)" d="M1827.62 234.52 Q1822.52 234.52 1819.51 238.316 Q1816.53 242.112 1816.53 248.663 Q1816.53 255.191 1819.51 258.987 Q1822.52 262.784 1827.62 262.784 Q1832.71 262.784 1835.67 258.987 Q1838.66 255.191 1838.66 248.663 Q1838.66 242.112 1835.67 238.316 Q1832.71 234.52 1827.62 234.52 M1827.62 230.724 Q1834.88 230.724 1839.24 235.608 Q1843.59 240.469 1843.59 248.663 Q1843.59 256.835 1839.24 261.719 Q1834.88 266.58 1827.62 266.58 Q1820.32 266.58 1815.95 261.719 Q1811.6 256.858 1811.6 248.663 Q1811.6 240.469 1815.95 235.608 Q1820.32 230.724 1827.62 230.724 Z" fill="#000000" fill-rule="nonzero" fill-opacity="1" /><path clip-path="url(#clip260)" d="M1870.42 273.779 L1870.42 277.089 L1845.79 277.089 L1845.79 273.779 L1870.42 273.779 Z" fill="#000000" fill-rule="nonzero" fill-opacity="1" /><path clip-path="url(#clip260)" d="M1874.61 231.349 L1879.28 231.349 L1879.28 245.515 L1896.27 245.515 L1896.27 231.349 L1900.95 231.349 L1900.95 265.909 L1896.27 265.909 L1896.27 249.45 L1879.28 249.45 L1879.28 265.909 L1874.61 265.909 L1874.61 231.349 Z" fill="#000000" fill-rule="nonzero" fill-opacity="1" /><path clip-path="url(#clip260)" d="M1920.86 268.316 Q1919.05 272.946 1917.34 274.358 Q1915.62 275.77 1912.75 275.77 L1909.35 275.77 L1909.35 272.205 L1911.85 272.205 Q1913.61 272.205 1914.58 271.372 Q1915.56 270.538 1916.74 267.436 L1917.5 265.492 L1907.01 239.983 L1911.53 239.983 L1919.63 260.261 L1927.73 239.983 L1932.24 239.983 L1920.86 268.316 Z" fill="#000000" fill-rule="nonzero" fill-opacity="1" /><path clip-path="url(#clip260)" d="M1955.18 243.918 L1955.18 229.89 L1959.44 229.89 L1959.44 265.909 L1955.18 265.909 L1955.18 262.02 Q1953.84 264.335 1951.78 265.469 Q1949.74 266.58 1946.87 266.58 Q1942.18 266.58 1939.21 262.83 Q1936.27 259.08 1936.27 252.969 Q1936.27 246.858 1939.21 243.108 Q1942.18 239.358 1946.87 239.358 Q1949.74 239.358 1951.78 240.492 Q1953.84 241.603 1955.18 243.918 M1940.67 252.969 Q1940.67 257.668 1942.59 260.353 Q1944.54 263.015 1947.92 263.015 Q1951.3 263.015 1953.24 260.353 Q1955.18 257.668 1955.18 252.969 Q1955.18 248.27 1953.24 245.608 Q1951.3 242.923 1947.92 242.923 Q1944.54 242.923 1942.59 245.608 Q1940.67 248.27 1940.67 252.969 Z" fill="#000000" fill-rule="nonzero" fill-opacity="1" /><path clip-path="url(#clip260)" d="M1983.24 243.964 Q1982.52 243.548 1981.67 243.362 Q1980.83 243.154 1979.81 243.154 Q1976.2 243.154 1974.26 245.515 Q1972.34 247.853 1972.34 252.251 L1972.34 265.909 L1968.05 265.909 L1968.05 239.983 L1972.34 239.983 L1972.34 244.011 Q1973.68 241.649 1975.83 240.515 Q1977.99 239.358 1981.06 239.358 Q1981.5 239.358 1982.04 239.427 Q1982.57 239.474 1983.22 239.589 L1983.24 243.964 Z" fill="#000000" fill-rule="nonzero" fill-opacity="1" /><path clip-path="url(#clip260)" d="M1996.71 242.969 Q1993.29 242.969 1991.3 245.654 Q1989.3 248.316 1989.3 252.969 Q1989.3 257.622 1991.27 260.307 Q1993.26 262.969 1996.71 262.969 Q2000.11 262.969 2002.11 260.284 Q2004.1 257.598 2004.1 252.969 Q2004.1 248.362 2002.11 245.677 Q2000.11 242.969 1996.71 242.969 M1996.71 239.358 Q2002.27 239.358 2005.44 242.969 Q2008.61 246.58 2008.61 252.969 Q2008.61 259.335 2005.44 262.969 Q2002.27 266.58 1996.71 266.58 Q1991.13 266.58 1987.96 262.969 Q1984.81 259.335 1984.81 252.969 Q1984.81 246.58 1987.96 242.969 Q1991.13 239.358 1996.71 239.358 Z" fill="#000000" fill-rule="nonzero" fill-opacity="1" /><path clip-path="url(#clip260)" d="M2035.37 273.779 L2035.37 277.089 L2010.74 277.089 L2010.74 273.779 L2035.37 273.779 Z" fill="#000000" fill-rule="nonzero" fill-opacity="1" /><path clip-path="url(#clip260)" d="M2055.95 249.705 Q2057.45 250.214 2058.86 251.881 Q2060.3 253.548 2061.74 256.464 L2066.48 265.909 L2061.46 265.909 L2057.04 257.043 Q2055.32 253.571 2053.7 252.436 Q2052.11 251.302 2049.33 251.302 L2044.24 251.302 L2044.24 265.909 L2039.56 265.909 L2039.56 231.349 L2050.11 231.349 Q2056.04 231.349 2058.96 233.825 Q2061.87 236.302 2061.87 241.302 Q2061.87 244.566 2060.35 246.719 Q2058.84 248.872 2055.95 249.705 M2044.24 235.191 L2044.24 247.46 L2050.11 247.46 Q2053.49 247.46 2055.21 245.909 Q2056.94 244.335 2056.94 241.302 Q2056.94 238.27 2055.21 236.742 Q2053.49 235.191 2050.11 235.191 L2044.24 235.191 Z" fill="#000000" fill-rule="nonzero" fill-opacity="1" /><path clip-path="url(#clip260)" d="M2092.36 251.881 L2092.36 253.964 L2072.78 253.964 Q2073.05 258.362 2075.42 260.677 Q2077.8 262.969 2082.04 262.969 Q2084.49 262.969 2086.78 262.367 Q2089.1 261.765 2091.36 260.561 L2091.36 264.589 Q2089.07 265.561 2086.67 266.071 Q2084.26 266.58 2081.78 266.58 Q2075.58 266.58 2071.94 262.969 Q2068.33 259.358 2068.33 253.2 Q2068.33 246.835 2071.76 243.108 Q2075.21 239.358 2081.04 239.358 Q2086.27 239.358 2089.3 242.737 Q2092.36 246.094 2092.36 251.881 M2088.1 250.631 Q2088.05 247.136 2086.13 245.052 Q2084.23 242.969 2081.09 242.969 Q2077.52 242.969 2075.37 244.983 Q2073.24 246.997 2072.92 250.654 L2088.1 250.631 Z" fill="#000000" fill-rule="nonzero" fill-opacity="1" /><path clip-path="url(#clip260)" d="M2115.88 240.747 L2115.88 244.774 Q2114.07 243.849 2112.13 243.386 Q2110.18 242.923 2108.1 242.923 Q2104.93 242.923 2103.33 243.895 Q2101.76 244.867 2101.76 246.811 Q2101.76 248.293 2102.89 249.149 Q2104.03 249.983 2107.45 250.747 L2108.91 251.071 Q2113.45 252.043 2115.35 253.825 Q2117.27 255.585 2117.27 258.756 Q2117.27 262.367 2114.4 264.473 Q2111.55 266.58 2106.55 266.58 Q2104.47 266.58 2102.2 266.163 Q2099.95 265.77 2097.45 264.96 L2097.45 260.561 Q2099.81 261.788 2102.11 262.413 Q2104.4 263.015 2106.64 263.015 Q2109.65 263.015 2111.27 261.997 Q2112.89 260.955 2112.89 259.08 Q2112.89 257.344 2111.71 256.418 Q2110.55 255.492 2106.6 254.636 L2105.11 254.288 Q2101.16 253.455 2099.4 251.742 Q2097.64 250.006 2097.64 246.997 Q2097.64 243.339 2100.23 241.349 Q2102.82 239.358 2107.59 239.358 Q2109.95 239.358 2112.04 239.705 Q2114.12 240.052 2115.88 240.747 Z" fill="#000000" fill-rule="nonzero" fill-opacity="1" /><path clip-path="url(#clip260)" d="M2146.23 251.881 L2146.23 253.964 L2126.64 253.964 Q2126.92 258.362 2129.28 260.677 Q2131.67 262.969 2135.9 262.969 Q2138.35 262.969 2140.65 262.367 Q2142.96 261.765 2145.23 260.561 L2145.23 264.589 Q2142.94 265.561 2140.53 266.071 Q2138.12 266.58 2135.65 266.58 Q2129.44 266.58 2125.81 262.969 Q2122.2 259.358 2122.2 253.2 Q2122.2 246.835 2125.62 243.108 Q2129.07 239.358 2134.91 239.358 Q2140.14 239.358 2143.17 242.737 Q2146.23 246.094 2146.23 251.881 M2141.97 250.631 Q2141.92 247.136 2140 245.052 Q2138.1 242.969 2134.95 242.969 Q2131.39 242.969 2129.23 244.983 Q2127.11 246.997 2126.78 250.654 L2141.97 250.631 Z" fill="#000000" fill-rule="nonzero" fill-opacity="1" /><path clip-path="url(#clip260)" d="M2168.24 243.964 Q2167.52 243.548 2166.67 243.362 Q2165.83 243.154 2164.81 243.154 Q2161.2 243.154 2159.26 245.515 Q2157.34 247.853 2157.34 252.251 L2157.34 265.909 L2153.05 265.909 L2153.05 239.983 L2157.34 239.983 L2157.34 244.011 Q2158.68 241.649 2160.83 240.515 Q2162.98 239.358 2166.06 239.358 Q2166.5 239.358 2167.04 239.427 Q2167.57 239.474 2168.22 239.589 L2168.24 243.964 Z" fill="#000000" fill-rule="nonzero" fill-opacity="1" /><path clip-path="url(#clip260)" d="M2169.65 239.983 L2174.16 239.983 L2182.27 261.742 L2190.37 239.983 L2194.88 239.983 L2185.16 265.909 L2179.37 265.909 L2169.65 239.983 Z" fill="#000000" fill-rule="nonzero" fill-opacity="1" /><path clip-path="url(#clip260)" d="M2210.81 242.969 Q2207.38 242.969 2205.39 245.654 Q2203.4 248.316 2203.4 252.969 Q2203.4 257.622 2205.37 260.307 Q2207.36 262.969 2210.81 262.969 Q2214.21 262.969 2216.2 260.284 Q2218.19 257.598 2218.19 252.969 Q2218.19 248.362 2216.2 245.677 Q2214.21 242.969 2210.81 242.969 M2210.81 239.358 Q2216.36 239.358 2219.54 242.969 Q2222.71 246.58 2222.71 252.969 Q2222.71 259.335 2219.54 262.969 Q2216.36 266.58 2210.81 266.58 Q2205.23 266.58 2202.06 262.969 Q2198.91 259.335 2198.91 252.969 Q2198.91 246.58 2202.06 242.969 Q2205.23 239.358 2210.81 239.358 Z" fill="#000000" fill-rule="nonzero" fill-opacity="1" /><path clip-path="url(#clip260)" d="M2229.77 239.983 L2234.03 239.983 L2234.03 265.909 L2229.77 265.909 L2229.77 239.983 M2229.77 229.89 L2234.03 229.89 L2234.03 235.284 L2229.77 235.284 L2229.77 229.89 Z" fill="#000000" fill-rule="nonzero" fill-opacity="1" /><path clip-path="url(#clip260)" d="M2257.96 243.964 Q2257.24 243.548 2256.39 243.362 Q2255.55 243.154 2254.53 243.154 Q2250.92 243.154 2248.98 245.515 Q2247.06 247.853 2247.06 252.251 L2247.06 265.909 L2242.78 265.909 L2242.78 239.983 L2247.06 239.983 L2247.06 244.011 Q2248.4 241.649 2250.55 240.515 Q2252.71 239.358 2255.78 239.358 Q2256.22 239.358 2256.76 239.427 Q2257.29 239.474 2257.94 239.589 L2257.96 243.964 Z" fill="#000000" fill-rule="nonzero" fill-opacity="1" /></svg>
