<?xml version="1.0" encoding="utf-8"?>
<svg xmlns="http://www.w3.org/2000/svg" xmlns:xlink="http://www.w3.org/1999/xlink" width="800" height="150" viewBox="0 0 3200 600">
<defs>
  <clipPath id="clip730">
    <rect x="0" y="0" width="3200" height="600"/>
  </clipPath>
</defs>
<path clip-path="url(#clip730)" d="M0 600 L3200 600 L3200 0 L0 0  Z" fill="#ffffff" fill-rule="evenodd" fill-opacity="1"/>
<defs>
  <clipPath id="clip731">
    <rect x="640" y="0" width="2241" height="600"/>
  </clipPath>
</defs>
<path clip-path="url(#clip730)" d="M206.234 521.288 L2533.98 521.288 L2533.98 47.2441 L206.234 47.2441  Z" fill="#ffffff" fill-rule="evenodd" fill-opacity="1"/>
<defs>
  <clipPath id="clip732">
    <rect x="206" y="47" width="2329" height="475"/>
  </clipPath>
</defs>
<polyline clip-path="url(#clip732)" style="stroke:#000000; stroke-linecap:round; stroke-linejoin:round; stroke-width:2; stroke-opacity:0.1; fill:none" points="206.234,521.288 206.234,47.2441 "/>
<polyline clip-path="url(#clip732)" style="stroke:#000000; stroke-linecap:round; stroke-linejoin:round; stroke-width:2; stroke-opacity:0.1; fill:none" points="373.498,521.288 373.498,47.2441 "/>
<polyline clip-path="url(#clip732)" style="stroke:#000000; stroke-linecap:round; stroke-linejoin:round; stroke-width:2; stroke-opacity:0.1; fill:none" points="540.761,521.288 540.761,47.2441 "/>
<polyline clip-path="url(#clip732)" style="stroke:#000000; stroke-linecap:round; stroke-linejoin:round; stroke-width:2; stroke-opacity:0.1; fill:none" points="708.025,521.288 708.025,47.2441 "/>
<polyline clip-path="url(#clip732)" style="stroke:#000000; stroke-linecap:round; stroke-linejoin:round; stroke-width:2; stroke-opacity:0.1; fill:none" points="875.288,521.288 875.288,47.2441 "/>
<polyline clip-path="url(#clip732)" style="stroke:#000000; stroke-linecap:round; stroke-linejoin:round; stroke-width:2; stroke-opacity:0.1; fill:none" points="1042.55,521.288 1042.55,47.2441 "/>
<polyline clip-path="url(#clip732)" style="stroke:#000000; stroke-linecap:round; stroke-linejoin:round; stroke-width:2; stroke-opacity:0.1; fill:none" points="1209.82,521.288 1209.82,47.2441 "/>
<polyline clip-path="url(#clip732)" style="stroke:#000000; stroke-linecap:round; stroke-linejoin:round; stroke-width:2; stroke-opacity:0.1; fill:none" points="1377.08,521.288 1377.08,47.2441 "/>
<polyline clip-path="url(#clip732)" style="stroke:#000000; stroke-linecap:round; stroke-linejoin:round; stroke-width:2; stroke-opacity:0.1; fill:none" points="1544.34,521.288 1544.34,47.2441 "/>
<polyline clip-path="url(#clip732)" style="stroke:#000000; stroke-linecap:round; stroke-linejoin:round; stroke-width:2; stroke-opacity:0.1; fill:none" points="1711.61,521.288 1711.61,47.2441 "/>
<polyline clip-path="url(#clip732)" style="stroke:#000000; stroke-linecap:round; stroke-linejoin:round; stroke-width:2; stroke-opacity:0.1; fill:none" points="1878.87,521.288 1878.87,47.2441 "/>
<polyline clip-path="url(#clip732)" style="stroke:#000000; stroke-linecap:round; stroke-linejoin:round; stroke-width:2; stroke-opacity:0.1; fill:none" points="2046.13,521.288 2046.13,47.2441 "/>
<polyline clip-path="url(#clip732)" style="stroke:#000000; stroke-linecap:round; stroke-linejoin:round; stroke-width:2; stroke-opacity:0.1; fill:none" points="2213.4,521.288 2213.4,47.2441 "/>
<polyline clip-path="url(#clip732)" style="stroke:#000000; stroke-linecap:round; stroke-linejoin:round; stroke-width:2; stroke-opacity:0.1; fill:none" points="2380.66,521.288 2380.66,47.2441 "/>
<polyline clip-path="url(#clip732)" style="stroke:#000000; stroke-linecap:round; stroke-linejoin:round; stroke-width:2; stroke-opacity:0.1; fill:none" points="206.234,469.251 2533.98,469.251 "/>
<polyline clip-path="url(#clip732)" style="stroke:#000000; stroke-linecap:round; stroke-linejoin:round; stroke-width:2; stroke-opacity:0.1; fill:none" points="206.234,372.701 2533.98,372.701 "/>
<polyline clip-path="url(#clip732)" style="stroke:#000000; stroke-linecap:round; stroke-linejoin:round; stroke-width:2; stroke-opacity:0.1; fill:none" points="206.234,276.15 2533.98,276.15 "/>
<polyline clip-path="url(#clip732)" style="stroke:#000000; stroke-linecap:round; stroke-linejoin:round; stroke-width:2; stroke-opacity:0.1; fill:none" points="206.234,179.6 2533.98,179.6 "/>
<polyline clip-path="url(#clip732)" style="stroke:#000000; stroke-linecap:round; stroke-linejoin:round; stroke-width:2; stroke-opacity:0.1; fill:none" points="206.234,83.049 2533.98,83.049 "/>
<polyline clip-path="url(#clip730)" style="stroke:#000000; stroke-linecap:round; stroke-linejoin:round; stroke-width:4; stroke-opacity:1; fill:none" points="206.234,521.288 2533.98,521.288 "/>
<polyline clip-path="url(#clip730)" style="stroke:#000000; stroke-linecap:round; stroke-linejoin:round; stroke-width:4; stroke-opacity:1; fill:none" points="206.234,521.288 206.234,502.39 "/>
<polyline clip-path="url(#clip730)" style="stroke:#000000; stroke-linecap:round; stroke-linejoin:round; stroke-width:4; stroke-opacity:1; fill:none" points="373.498,521.288 373.498,502.39 "/>
<polyline clip-path="url(#clip730)" style="stroke:#000000; stroke-linecap:round; stroke-linejoin:round; stroke-width:4; stroke-opacity:1; fill:none" points="540.761,521.288 540.761,502.39 "/>
<polyline clip-path="url(#clip730)" style="stroke:#000000; stroke-linecap:round; stroke-linejoin:round; stroke-width:4; stroke-opacity:1; fill:none" points="708.025,521.288 708.025,502.39 "/>
<polyline clip-path="url(#clip730)" style="stroke:#000000; stroke-linecap:round; stroke-linejoin:round; stroke-width:4; stroke-opacity:1; fill:none" points="875.288,521.288 875.288,502.39 "/>
<polyline clip-path="url(#clip730)" style="stroke:#000000; stroke-linecap:round; stroke-linejoin:round; stroke-width:4; stroke-opacity:1; fill:none" points="1042.55,521.288 1042.55,502.39 "/>
<polyline clip-path="url(#clip730)" style="stroke:#000000; stroke-linecap:round; stroke-linejoin:round; stroke-width:4; stroke-opacity:1; fill:none" points="1209.82,521.288 1209.82,502.39 "/>
<polyline clip-path="url(#clip730)" style="stroke:#000000; stroke-linecap:round; stroke-linejoin:round; stroke-width:4; stroke-opacity:1; fill:none" points="1377.08,521.288 1377.08,502.39 "/>
<polyline clip-path="url(#clip730)" style="stroke:#000000; stroke-linecap:round; stroke-linejoin:round; stroke-width:4; stroke-opacity:1; fill:none" points="1544.34,521.288 1544.34,502.39 "/>
<polyline clip-path="url(#clip730)" style="stroke:#000000; stroke-linecap:round; stroke-linejoin:round; stroke-width:4; stroke-opacity:1; fill:none" points="1711.61,521.288 1711.61,502.39 "/>
<polyline clip-path="url(#clip730)" style="stroke:#000000; stroke-linecap:round; stroke-linejoin:round; stroke-width:4; stroke-opacity:1; fill:none" points="1878.87,521.288 1878.87,502.39 "/>
<polyline clip-path="url(#clip730)" style="stroke:#000000; stroke-linecap:round; stroke-linejoin:round; stroke-width:4; stroke-opacity:1; fill:none" points="2046.13,521.288 2046.13,502.39 "/>
<polyline clip-path="url(#clip730)" style="stroke:#000000; stroke-linecap:round; stroke-linejoin:round; stroke-width:4; stroke-opacity:1; fill:none" points="2213.4,521.288 2213.4,502.39 "/>
<polyline clip-path="url(#clip730)" style="stroke:#000000; stroke-linecap:round; stroke-linejoin:round; stroke-width:4; stroke-opacity:1; fill:none" points="2380.66,521.288 2380.66,502.39 "/>
<path clip-path="url(#clip730)" d="M196.616 586.153 L204.255 586.153 L204.255 559.787 L195.945 561.454 L195.945 557.195 L204.209 555.528 L208.885 555.528 L208.885 586.153 L216.524 586.153 L216.524 590.088 L196.616 590.088 L196.616 586.153 Z" fill="#000000" fill-rule="nonzero" fill-opacity="1" /><path clip-path="url(#clip730)" d="M348.51 586.153 L356.148 586.153 L356.148 559.787 L347.838 561.454 L347.838 557.195 L356.102 555.528 L360.778 555.528 L360.778 586.153 L368.417 586.153 L368.417 590.088 L348.51 590.088 L348.51 586.153 Z" fill="#000000" fill-rule="nonzero" fill-opacity="1" /><path clip-path="url(#clip730)" d="M392.028 571.454 Q395.384 572.171 397.259 574.44 Q399.157 576.708 399.157 580.042 Q399.157 585.157 395.639 587.958 Q392.12 590.759 385.639 590.759 Q383.463 590.759 381.148 590.319 Q378.857 589.903 376.403 589.046 L376.403 584.532 Q378.347 585.667 380.662 586.245 Q382.977 586.824 385.5 586.824 Q389.898 586.824 392.19 585.088 Q394.505 583.352 394.505 580.042 Q394.505 576.986 392.352 575.273 Q390.222 573.537 386.403 573.537 L382.375 573.537 L382.375 569.694 L386.588 569.694 Q390.037 569.694 391.866 568.329 Q393.695 566.94 393.695 564.347 Q393.695 561.685 391.796 560.273 Q389.921 558.838 386.403 558.838 Q384.482 558.838 382.283 559.255 Q380.083 559.671 377.445 560.551 L377.445 556.384 Q380.107 555.644 382.421 555.273 Q384.759 554.903 386.82 554.903 Q392.144 554.903 395.245 557.333 Q398.347 559.741 398.347 563.861 Q398.347 566.732 396.704 568.722 Q395.06 570.69 392.028 571.454 Z" fill="#000000" fill-rule="nonzero" fill-opacity="1" /><path clip-path="url(#clip730)" d="M520.032 586.153 L536.352 586.153 L536.352 590.088 L514.407 590.088 L514.407 586.153 Q517.069 583.398 521.653 578.768 Q526.259 574.116 527.44 572.773 Q529.685 570.25 530.565 568.514 Q531.467 566.755 531.467 565.065 Q531.467 562.31 529.523 560.574 Q527.602 558.838 524.5 558.838 Q522.301 558.838 519.847 559.602 Q517.417 560.366 514.639 561.917 L514.639 557.195 Q517.463 556.06 519.917 555.482 Q522.37 554.903 524.407 554.903 Q529.778 554.903 532.972 557.588 Q536.166 560.273 536.166 564.764 Q536.166 566.894 535.356 568.815 Q534.569 570.713 532.463 573.306 Q531.884 573.977 528.782 577.194 Q525.68 580.389 520.032 586.153 Z" fill="#000000" fill-rule="nonzero" fill-opacity="1" /><path clip-path="url(#clip730)" d="M546.213 555.528 L564.569 555.528 L564.569 559.463 L550.495 559.463 L550.495 567.935 Q551.514 567.588 552.532 567.426 Q553.551 567.241 554.569 567.241 Q560.356 567.241 563.736 570.412 Q567.115 573.583 567.115 579 Q567.115 584.579 563.643 587.68 Q560.171 590.759 553.852 590.759 Q551.676 590.759 549.407 590.389 Q547.162 590.018 544.754 589.278 L544.754 584.579 Q546.838 585.713 549.06 586.268 Q551.282 586.824 553.759 586.824 Q557.764 586.824 560.102 584.718 Q562.439 582.611 562.439 579 Q562.439 575.389 560.102 573.282 Q557.764 571.176 553.759 571.176 Q551.884 571.176 550.009 571.593 Q548.157 572.009 546.213 572.889 L546.213 555.528 Z" fill="#000000" fill-rule="nonzero" fill-opacity="1" /><path clip-path="url(#clip730)" d="M697.319 571.454 Q700.675 572.171 702.55 574.44 Q704.448 576.708 704.448 580.042 Q704.448 585.157 700.93 587.958 Q697.411 590.759 690.93 590.759 Q688.754 590.759 686.439 590.319 Q684.148 589.903 681.694 589.046 L681.694 584.532 Q683.638 585.667 685.953 586.245 Q688.268 586.824 690.791 586.824 Q695.189 586.824 697.481 585.088 Q699.796 583.352 699.796 580.042 Q699.796 576.986 697.643 575.273 Q695.513 573.537 691.694 573.537 L687.666 573.537 L687.666 569.694 L691.879 569.694 Q695.328 569.694 697.157 568.329 Q698.986 566.94 698.986 564.347 Q698.986 561.685 697.087 560.273 Q695.212 558.838 691.694 558.838 Q689.773 558.838 687.574 559.255 Q685.375 559.671 682.736 560.551 L682.736 556.384 Q685.398 555.644 687.712 555.273 Q690.05 554.903 692.111 554.903 Q697.435 554.903 700.536 557.333 Q703.638 559.741 703.638 563.861 Q703.638 566.732 701.995 568.722 Q700.351 570.69 697.319 571.454 Z" fill="#000000" fill-rule="nonzero" fill-opacity="1" /><path clip-path="url(#clip730)" d="M712.134 555.528 L734.356 555.528 L734.356 557.519 L721.81 590.088 L716.925 590.088 L728.731 559.463 L712.134 559.463 L712.134 555.528 Z" fill="#000000" fill-rule="nonzero" fill-opacity="1" /><path clip-path="url(#clip730)" d="M863.552 559.602 L851.747 578.051 L863.552 578.051 L863.552 559.602 M862.325 555.528 L868.205 555.528 L868.205 578.051 L873.136 578.051 L873.136 581.94 L868.205 581.94 L868.205 590.088 L863.552 590.088 L863.552 581.94 L847.951 581.94 L847.951 577.426 L862.325 555.528 Z" fill="#000000" fill-rule="nonzero" fill-opacity="1" /><path clip-path="url(#clip730)" d="M881.006 589.37 L881.006 585.111 Q882.765 585.944 884.571 586.384 Q886.376 586.824 888.112 586.824 Q892.742 586.824 895.173 583.722 Q897.626 580.597 897.973 574.255 Q896.631 576.245 894.571 577.31 Q892.51 578.375 890.011 578.375 Q884.825 578.375 881.793 575.25 Q878.784 572.102 878.784 566.662 Q878.784 561.338 881.932 558.12 Q885.08 554.903 890.311 554.903 Q896.307 554.903 899.455 559.509 Q902.626 564.093 902.626 572.843 Q902.626 581.014 898.737 585.898 Q894.872 590.759 888.321 590.759 Q886.561 590.759 884.756 590.412 Q882.95 590.065 881.006 589.37 M890.311 574.718 Q893.46 574.718 895.288 572.565 Q897.14 570.412 897.14 566.662 Q897.14 562.935 895.288 560.782 Q893.46 558.607 890.311 558.607 Q887.163 558.607 885.311 560.782 Q883.483 562.935 883.483 566.662 Q883.483 570.412 885.311 572.565 Q887.163 574.718 890.311 574.718 Z" fill="#000000" fill-rule="nonzero" fill-opacity="1" /><path clip-path="url(#clip730)" d="M1028.57 570.944 Q1025.42 570.944 1023.57 573.097 Q1021.74 575.25 1021.74 579 Q1021.74 582.727 1023.57 584.903 Q1025.42 587.055 1028.57 587.055 Q1031.72 587.055 1033.55 584.903 Q1035.4 582.727 1035.4 579 Q1035.4 575.25 1033.55 573.097 Q1031.72 570.944 1028.57 570.944 M1037.85 556.292 L1037.85 560.551 Q1036.09 559.718 1034.29 559.278 Q1032.51 558.838 1030.75 558.838 Q1026.12 558.838 1023.66 561.963 Q1021.23 565.088 1020.89 571.407 Q1022.25 569.394 1024.31 568.329 Q1026.37 567.241 1028.85 567.241 Q1034.06 567.241 1037.07 570.412 Q1040.1 573.56 1040.1 579 Q1040.1 584.324 1036.95 587.542 Q1033.8 590.759 1028.57 590.759 Q1022.58 590.759 1019.4 586.176 Q1016.23 581.569 1016.23 572.843 Q1016.23 564.648 1020.12 559.787 Q1024.01 554.903 1030.56 554.903 Q1032.32 554.903 1034.1 555.25 Q1035.91 555.597 1037.85 556.292 Z" fill="#000000" fill-rule="nonzero" fill-opacity="1" /><path clip-path="url(#clip730)" d="M1048.96 586.153 L1056.6 586.153 L1056.6 559.787 L1048.29 561.454 L1048.29 557.195 L1056.56 555.528 L1061.23 555.528 L1061.23 586.153 L1068.87 586.153 L1068.87 590.088 L1048.96 590.088 L1048.96 586.153 Z" fill="#000000" fill-rule="nonzero" fill-opacity="1" /><path clip-path="url(#clip730)" d="M1183.5 555.528 L1205.72 555.528 L1205.72 557.519 L1193.17 590.088 L1188.29 590.088 L1200.09 559.463 L1183.5 559.463 L1183.5 555.528 Z" fill="#000000" fill-rule="nonzero" fill-opacity="1" /><path clip-path="url(#clip730)" d="M1229.01 571.454 Q1232.36 572.171 1234.24 574.44 Q1236.13 576.708 1236.13 580.042 Q1236.13 585.157 1232.62 587.958 Q1229.1 590.759 1222.62 590.759 Q1220.44 590.759 1218.13 590.319 Q1215.83 589.903 1213.38 589.046 L1213.38 584.532 Q1215.32 585.667 1217.64 586.245 Q1219.95 586.824 1222.48 586.824 Q1226.88 586.824 1229.17 585.088 Q1231.48 583.352 1231.48 580.042 Q1231.48 576.986 1229.33 575.273 Q1227.2 573.537 1223.38 573.537 L1219.35 573.537 L1219.35 569.694 L1223.57 569.694 Q1227.01 569.694 1228.84 568.329 Q1230.67 566.94 1230.67 564.347 Q1230.67 561.685 1228.77 560.273 Q1226.9 558.838 1223.38 558.838 Q1221.46 558.838 1219.26 559.255 Q1217.06 559.671 1214.42 560.551 L1214.42 556.384 Q1217.08 555.644 1219.4 555.273 Q1221.74 554.903 1223.8 554.903 Q1229.12 554.903 1232.22 557.333 Q1235.32 559.741 1235.32 563.861 Q1235.32 566.732 1233.68 568.722 Q1232.04 570.69 1229.01 571.454 Z" fill="#000000" fill-rule="nonzero" fill-opacity="1" /><path clip-path="url(#clip730)" d="M1362.45 573.676 Q1359.12 573.676 1357.19 575.458 Q1355.3 577.241 1355.3 580.366 Q1355.3 583.491 1357.19 585.273 Q1359.12 587.055 1362.45 587.055 Q1365.78 587.055 1367.7 585.273 Q1369.63 583.468 1369.63 580.366 Q1369.63 577.241 1367.7 575.458 Q1365.81 573.676 1362.45 573.676 M1357.77 571.685 Q1354.76 570.944 1353.07 568.884 Q1351.41 566.824 1351.41 563.861 Q1351.41 559.718 1354.35 557.31 Q1357.31 554.903 1362.45 554.903 Q1367.61 554.903 1370.55 557.31 Q1373.49 559.718 1373.49 563.861 Q1373.49 566.824 1371.8 568.884 Q1370.13 570.944 1367.15 571.685 Q1370.53 572.472 1372.4 574.764 Q1374.3 577.056 1374.3 580.366 Q1374.3 585.389 1371.22 588.074 Q1368.17 590.759 1362.45 590.759 Q1356.73 590.759 1353.65 588.074 Q1350.6 585.389 1350.6 580.366 Q1350.6 577.056 1352.5 574.764 Q1354.39 572.472 1357.77 571.685 M1356.06 564.301 Q1356.06 566.986 1357.73 568.491 Q1359.42 569.995 1362.45 569.995 Q1365.46 569.995 1367.15 568.491 Q1368.86 566.986 1368.86 564.301 Q1368.86 561.616 1367.15 560.111 Q1365.46 558.607 1362.45 558.607 Q1359.42 558.607 1357.73 560.111 Q1356.06 561.616 1356.06 564.301 Z" fill="#000000" fill-rule="nonzero" fill-opacity="1" /><path clip-path="url(#clip730)" d="M1382.66 555.528 L1401.01 555.528 L1401.01 559.463 L1386.94 559.463 L1386.94 567.935 Q1387.96 567.588 1388.98 567.426 Q1390 567.241 1391.01 567.241 Q1396.8 567.241 1400.18 570.412 Q1403.56 573.583 1403.56 579 Q1403.56 584.579 1400.09 587.68 Q1396.62 590.759 1390.3 590.759 Q1388.12 590.759 1385.85 590.389 Q1383.61 590.018 1381.2 589.278 L1381.2 584.579 Q1383.28 585.713 1385.5 586.268 Q1387.73 586.824 1390.2 586.824 Q1394.21 586.824 1396.55 584.718 Q1398.88 582.611 1398.88 579 Q1398.88 575.389 1396.55 573.282 Q1394.21 571.176 1390.2 571.176 Q1388.33 571.176 1386.45 571.593 Q1384.6 572.009 1382.66 572.889 L1382.66 555.528 Z" fill="#000000" fill-rule="nonzero" fill-opacity="1" /><path clip-path="url(#clip730)" d="M1519.92 589.37 L1519.92 585.111 Q1521.68 585.944 1523.49 586.384 Q1525.29 586.824 1527.03 586.824 Q1531.66 586.824 1534.09 583.722 Q1536.54 580.597 1536.89 574.255 Q1535.55 576.245 1533.49 577.31 Q1531.43 578.375 1528.93 578.375 Q1523.74 578.375 1520.71 575.25 Q1517.7 572.102 1517.7 566.662 Q1517.7 561.338 1520.85 558.12 Q1524 554.903 1529.23 554.903 Q1535.22 554.903 1538.37 559.509 Q1541.54 564.093 1541.54 572.843 Q1541.54 581.014 1537.65 585.898 Q1533.79 590.759 1527.24 590.759 Q1525.48 590.759 1523.67 590.412 Q1521.87 590.065 1519.92 589.37 M1529.23 574.718 Q1532.37 574.718 1534.2 572.565 Q1536.06 570.412 1536.06 566.662 Q1536.06 562.935 1534.2 560.782 Q1532.37 558.607 1529.23 558.607 Q1526.08 558.607 1524.23 560.782 Q1522.4 562.935 1522.4 566.662 Q1522.4 570.412 1524.23 572.565 Q1526.08 574.718 1529.23 574.718 Z" fill="#000000" fill-rule="nonzero" fill-opacity="1" /><path clip-path="url(#clip730)" d="M1548.76 555.528 L1570.99 555.528 L1570.99 557.519 L1558.44 590.088 L1553.56 590.088 L1565.36 559.463 L1548.76 559.463 L1548.76 555.528 Z" fill="#000000" fill-rule="nonzero" fill-opacity="1" /><path clip-path="url(#clip730)" d="M1671.31 586.153 L1678.94 586.153 L1678.94 559.787 L1670.63 561.454 L1670.63 557.195 L1678.9 555.528 L1683.57 555.528 L1683.57 586.153 L1691.21 586.153 L1691.21 590.088 L1671.31 590.088 L1671.31 586.153 Z" fill="#000000" fill-rule="nonzero" fill-opacity="1" /><path clip-path="url(#clip730)" d="M1710.66 558.607 Q1707.05 558.607 1705.22 562.171 Q1703.41 565.713 1703.41 572.843 Q1703.41 579.949 1705.22 583.514 Q1707.05 587.055 1710.66 587.055 Q1714.29 587.055 1716.1 583.514 Q1717.93 579.949 1717.93 572.843 Q1717.93 565.713 1716.1 562.171 Q1714.29 558.607 1710.66 558.607 M1710.66 554.903 Q1716.47 554.903 1719.52 559.509 Q1722.6 564.093 1722.6 572.843 Q1722.6 581.569 1719.52 586.176 Q1716.47 590.759 1710.66 590.759 Q1704.85 590.759 1701.77 586.176 Q1698.71 581.569 1698.71 572.843 Q1698.71 564.093 1701.77 559.509 Q1704.85 554.903 1710.66 554.903 Z" fill="#000000" fill-rule="nonzero" fill-opacity="1" /><path clip-path="url(#clip730)" d="M1730.96 589.37 L1730.96 585.111 Q1732.72 585.944 1734.52 586.384 Q1736.33 586.824 1738.06 586.824 Q1742.69 586.824 1745.12 583.722 Q1747.58 580.597 1747.93 574.255 Q1746.58 576.245 1744.52 577.31 Q1742.46 578.375 1739.96 578.375 Q1734.78 578.375 1731.74 575.25 Q1728.74 572.102 1728.74 566.662 Q1728.74 561.338 1731.88 558.12 Q1735.03 554.903 1740.26 554.903 Q1746.26 554.903 1749.41 559.509 Q1752.58 564.093 1752.58 572.843 Q1752.58 581.014 1748.69 585.898 Q1744.82 590.759 1738.27 590.759 Q1736.51 590.759 1734.71 590.412 Q1732.9 590.065 1730.96 589.37 M1740.26 574.718 Q1743.41 574.718 1745.24 572.565 Q1747.09 570.412 1747.09 566.662 Q1747.09 562.935 1745.24 560.782 Q1743.41 558.607 1740.26 558.607 Q1737.12 558.607 1735.26 560.782 Q1733.43 562.935 1733.43 566.662 Q1733.43 570.412 1735.26 572.565 Q1737.12 574.718 1740.26 574.718 Z" fill="#000000" fill-rule="nonzero" fill-opacity="1" /><path clip-path="url(#clip730)" d="M1839.09 586.153 L1846.73 586.153 L1846.73 559.787 L1838.42 561.454 L1838.42 557.195 L1846.68 555.528 L1851.36 555.528 L1851.36 586.153 L1859 586.153 L1859 590.088 L1839.09 590.088 L1839.09 586.153 Z" fill="#000000" fill-rule="nonzero" fill-opacity="1" /><path clip-path="url(#clip730)" d="M1872.47 586.153 L1888.79 586.153 L1888.79 590.088 L1866.84 590.088 L1866.84 586.153 Q1869.51 583.398 1874.09 578.768 Q1878.7 574.116 1879.88 572.773 Q1882.12 570.25 1883 568.514 Q1883.9 566.755 1883.9 565.065 Q1883.9 562.31 1881.96 560.574 Q1880.04 558.838 1876.94 558.838 Q1874.74 558.838 1872.28 559.602 Q1869.85 560.366 1867.08 561.917 L1867.08 557.195 Q1869.9 556.06 1872.35 555.482 Q1874.81 554.903 1876.84 554.903 Q1882.21 554.903 1885.41 557.588 Q1888.6 560.273 1888.6 564.764 Q1888.6 566.894 1887.79 568.815 Q1887.01 570.713 1884.9 573.306 Q1884.32 573.977 1881.22 577.194 Q1878.12 580.389 1872.47 586.153 Z" fill="#000000" fill-rule="nonzero" fill-opacity="1" /><path clip-path="url(#clip730)" d="M1899.41 586.153 L1907.05 586.153 L1907.05 559.787 L1898.74 561.454 L1898.74 557.195 L1907.01 555.528 L1911.68 555.528 L1911.68 586.153 L1919.32 586.153 L1919.32 590.088 L1899.41 590.088 L1899.41 586.153 Z" fill="#000000" fill-rule="nonzero" fill-opacity="1" /><path clip-path="url(#clip730)" d="M2006.06 586.153 L2013.7 586.153 L2013.7 559.787 L2005.39 561.454 L2005.39 557.195 L2013.66 555.528 L2018.33 555.528 L2018.33 586.153 L2025.97 586.153 L2025.97 590.088 L2006.06 590.088 L2006.06 586.153 Z" fill="#000000" fill-rule="nonzero" fill-opacity="1" /><path clip-path="url(#clip730)" d="M2049.58 571.454 Q2052.94 572.171 2054.81 574.44 Q2056.71 576.708 2056.71 580.042 Q2056.71 585.157 2053.19 587.958 Q2049.67 590.759 2043.19 590.759 Q2041.02 590.759 2038.7 590.319 Q2036.41 589.903 2033.96 589.046 L2033.96 584.532 Q2035.9 585.667 2038.22 586.245 Q2040.53 586.824 2043.05 586.824 Q2047.45 586.824 2049.74 585.088 Q2052.06 583.352 2052.06 580.042 Q2052.06 576.986 2049.91 575.273 Q2047.78 573.537 2043.96 573.537 L2039.93 573.537 L2039.93 569.694 L2044.14 569.694 Q2047.59 569.694 2049.42 568.329 Q2051.25 566.94 2051.25 564.347 Q2051.25 561.685 2049.35 560.273 Q2047.48 558.838 2043.96 558.838 Q2042.04 558.838 2039.84 559.255 Q2037.64 559.671 2035 560.551 L2035 556.384 Q2037.66 555.644 2039.98 555.273 Q2042.31 554.903 2044.37 554.903 Q2049.7 554.903 2052.8 557.333 Q2055.9 559.741 2055.9 563.861 Q2055.9 566.732 2054.26 568.722 Q2052.61 570.69 2049.58 571.454 Z" fill="#000000" fill-rule="nonzero" fill-opacity="1" /><path clip-path="url(#clip730)" d="M2079.74 571.454 Q2083.1 572.171 2084.98 574.44 Q2086.87 576.708 2086.87 580.042 Q2086.87 585.157 2083.35 587.958 Q2079.84 590.759 2073.35 590.759 Q2071.18 590.759 2068.86 590.319 Q2066.57 589.903 2064.12 589.046 L2064.12 584.532 Q2066.06 585.667 2068.38 586.245 Q2070.69 586.824 2073.22 586.824 Q2077.61 586.824 2079.91 585.088 Q2082.22 583.352 2082.22 580.042 Q2082.22 576.986 2080.07 575.273 Q2077.94 573.537 2074.12 573.537 L2070.09 573.537 L2070.09 569.694 L2074.3 569.694 Q2077.75 569.694 2079.58 568.329 Q2081.41 566.94 2081.41 564.347 Q2081.41 561.685 2079.51 560.273 Q2077.64 558.838 2074.12 558.838 Q2072.2 558.838 2070 559.255 Q2067.8 559.671 2065.16 560.551 L2065.16 556.384 Q2067.82 555.644 2070.14 555.273 Q2072.48 554.903 2074.54 554.903 Q2079.86 554.903 2082.96 557.333 Q2086.06 559.741 2086.06 563.861 Q2086.06 566.732 2084.42 568.722 Q2082.78 570.69 2079.74 571.454 Z" fill="#000000" fill-rule="nonzero" fill-opacity="1" /><path clip-path="url(#clip730)" d="M2173.5 586.153 L2181.14 586.153 L2181.14 559.787 L2172.83 561.454 L2172.83 557.195 L2181.09 555.528 L2185.77 555.528 L2185.77 586.153 L2193.41 586.153 L2193.41 590.088 L2173.5 590.088 L2173.5 586.153 Z" fill="#000000" fill-rule="nonzero" fill-opacity="1" /><path clip-path="url(#clip730)" d="M2215.7 559.602 L2203.89 578.051 L2215.7 578.051 L2215.7 559.602 M2214.47 555.528 L2220.35 555.528 L2220.35 578.051 L2225.28 578.051 L2225.28 581.94 L2220.35 581.94 L2220.35 590.088 L2215.7 590.088 L2215.7 581.94 L2200.1 581.94 L2200.1 577.426 L2214.47 555.528 Z" fill="#000000" fill-rule="nonzero" fill-opacity="1" /><path clip-path="url(#clip730)" d="M2233.06 555.528 L2251.42 555.528 L2251.42 559.463 L2237.34 559.463 L2237.34 567.935 Q2238.36 567.588 2239.38 567.426 Q2240.4 567.241 2241.42 567.241 Q2247.2 567.241 2250.58 570.412 Q2253.96 573.583 2253.96 579 Q2253.96 584.579 2250.49 587.68 Q2247.02 590.759 2240.7 590.759 Q2238.52 590.759 2236.26 590.389 Q2234.01 590.018 2231.6 589.278 L2231.6 584.579 Q2233.69 585.713 2235.91 586.268 Q2238.13 586.824 2240.61 586.824 Q2244.61 586.824 2246.95 584.718 Q2249.29 582.611 2249.29 579 Q2249.29 575.389 2246.95 573.282 Q2244.61 571.176 2240.61 571.176 Q2238.73 571.176 2236.86 571.593 Q2235.01 572.009 2233.06 572.889 L2233.06 555.528 Z" fill="#000000" fill-rule="nonzero" fill-opacity="1" /><path clip-path="url(#clip730)" d="M2340.72 586.153 L2348.36 586.153 L2348.36 559.787 L2340.05 561.454 L2340.05 557.195 L2348.31 555.528 L2352.99 555.528 L2352.99 586.153 L2360.63 586.153 L2360.63 590.088 L2340.72 590.088 L2340.72 586.153 Z" fill="#000000" fill-rule="nonzero" fill-opacity="1" /><path clip-path="url(#clip730)" d="M2370.12 555.528 L2388.47 555.528 L2388.47 559.463 L2374.4 559.463 L2374.4 567.935 Q2375.42 567.588 2376.44 567.426 Q2377.45 567.241 2378.47 567.241 Q2384.26 567.241 2387.64 570.412 Q2391.02 573.583 2391.02 579 Q2391.02 584.579 2387.55 587.68 Q2384.07 590.759 2377.75 590.759 Q2375.58 590.759 2373.31 590.389 Q2371.07 590.018 2368.66 589.278 L2368.66 584.579 Q2370.74 585.713 2372.96 586.268 Q2375.19 586.824 2377.66 586.824 Q2381.67 586.824 2384 584.718 Q2386.34 582.611 2386.34 579 Q2386.34 575.389 2384 573.282 Q2381.67 571.176 2377.66 571.176 Q2375.79 571.176 2373.91 571.593 Q2372.06 572.009 2370.12 572.889 L2370.12 555.528 Z" fill="#000000" fill-rule="nonzero" fill-opacity="1" /><path clip-path="url(#clip730)" d="M2399.05 555.528 L2421.27 555.528 L2421.27 557.519 L2408.73 590.088 L2403.84 590.088 L2415.65 559.463 L2399.05 559.463 L2399.05 555.528 Z" fill="#000000" fill-rule="nonzero" fill-opacity="1" /><polyline clip-path="url(#clip730)" style="stroke:#000000; stroke-linecap:round; stroke-linejoin:round; stroke-width:4; stroke-opacity:1; fill:none" points="206.234,521.288 206.234,47.2441 "/>
<polyline clip-path="url(#clip730)" style="stroke:#000000; stroke-linecap:round; stroke-linejoin:round; stroke-width:4; stroke-opacity:1; fill:none" points="206.234,469.251 221.163,469.251 "/>
<polyline clip-path="url(#clip730)" style="stroke:#000000; stroke-linecap:round; stroke-linejoin:round; stroke-width:4; stroke-opacity:1; fill:none" points="206.234,372.701 221.163,372.701 "/>
<polyline clip-path="url(#clip730)" style="stroke:#000000; stroke-linecap:round; stroke-linejoin:round; stroke-width:4; stroke-opacity:1; fill:none" points="206.234,276.15 221.163,276.15 "/>
<polyline clip-path="url(#clip730)" style="stroke:#000000; stroke-linecap:round; stroke-linejoin:round; stroke-width:4; stroke-opacity:1; fill:none" points="206.234,179.6 221.163,179.6 "/>
<polyline clip-path="url(#clip730)" style="stroke:#000000; stroke-linecap:round; stroke-linejoin:round; stroke-width:4; stroke-opacity:1; fill:none" points="206.234,83.049 221.163,83.049 "/>
<path clip-path="url(#clip730)" d="M146.29 455.05 Q142.679 455.05 140.85 458.615 Q139.045 462.156 139.045 469.286 Q139.045 476.392 140.85 479.957 Q142.679 483.499 146.29 483.499 Q149.924 483.499 151.73 479.957 Q153.558 476.392 153.558 469.286 Q153.558 462.156 151.73 458.615 Q149.924 455.05 146.29 455.05 M146.29 451.346 Q152.1 451.346 155.156 455.953 Q158.234 460.536 158.234 469.286 Q158.234 478.013 155.156 482.619 Q152.1 487.203 146.29 487.203 Q140.48 487.203 137.401 482.619 Q134.346 478.013 134.346 469.286 Q134.346 460.536 137.401 455.953 Q140.48 451.346 146.29 451.346 Z" fill="#000000" fill-rule="nonzero" fill-opacity="1" /><path clip-path="url(#clip730)" d="M111.151 386.046 L127.471 386.046 L127.471 389.981 L105.526 389.981 L105.526 386.046 Q108.188 383.291 112.772 378.661 Q117.378 374.009 118.559 372.666 Q120.804 370.143 121.684 368.407 Q122.586 366.648 122.586 364.958 Q122.586 362.203 120.642 360.467 Q118.721 358.731 115.619 358.731 Q113.42 358.731 110.966 359.495 Q108.536 360.259 105.758 361.81 L105.758 357.087 Q108.582 355.953 111.036 355.374 Q113.489 354.796 115.526 354.796 Q120.897 354.796 124.091 357.481 Q127.285 360.166 127.285 364.657 Q127.285 366.786 126.475 368.708 Q125.688 370.606 123.582 373.198 Q123.003 373.87 119.901 377.087 Q116.799 380.282 111.151 386.046 Z" fill="#000000" fill-rule="nonzero" fill-opacity="1" /><path clip-path="url(#clip730)" d="M137.332 355.421 L155.688 355.421 L155.688 359.356 L141.614 359.356 L141.614 367.828 Q142.633 367.481 143.651 367.319 Q144.67 367.134 145.688 367.134 Q151.475 367.134 154.855 370.305 Q158.234 373.476 158.234 378.893 Q158.234 384.471 154.762 387.573 Q151.29 390.652 144.971 390.652 Q142.795 390.652 140.526 390.282 Q138.281 389.911 135.873 389.171 L135.873 384.471 Q137.957 385.606 140.179 386.161 Q142.401 386.717 144.878 386.717 Q148.883 386.717 151.22 384.61 Q153.558 382.504 153.558 378.893 Q153.558 375.282 151.22 373.175 Q148.883 371.069 144.878 371.069 Q143.003 371.069 141.128 371.485 Q139.276 371.902 137.332 372.782 L137.332 355.421 Z" fill="#000000" fill-rule="nonzero" fill-opacity="1" /><path clip-path="url(#clip730)" d="M106.174 258.87 L124.531 258.87 L124.531 262.805 L110.457 262.805 L110.457 271.277 Q111.475 270.93 112.494 270.768 Q113.512 270.583 114.531 270.583 Q120.318 270.583 123.697 273.754 Q127.077 276.926 127.077 282.342 Q127.077 287.921 123.605 291.023 Q120.133 294.101 113.813 294.101 Q111.637 294.101 109.369 293.731 Q107.124 293.361 104.716 292.62 L104.716 287.921 Q106.799 289.055 109.022 289.611 Q111.244 290.166 113.721 290.166 Q117.725 290.166 120.063 288.06 Q122.401 285.953 122.401 282.342 Q122.401 278.731 120.063 276.625 Q117.725 274.518 113.721 274.518 Q111.846 274.518 109.971 274.935 Q108.119 275.352 106.174 276.231 L106.174 258.87 Z" fill="#000000" fill-rule="nonzero" fill-opacity="1" /><path clip-path="url(#clip730)" d="M146.29 261.949 Q142.679 261.949 140.85 265.514 Q139.045 269.055 139.045 276.185 Q139.045 283.291 140.85 286.856 Q142.679 290.398 146.29 290.398 Q149.924 290.398 151.73 286.856 Q153.558 283.291 153.558 276.185 Q153.558 269.055 151.73 265.514 Q149.924 261.949 146.29 261.949 M146.29 258.245 Q152.1 258.245 155.156 262.852 Q158.234 267.435 158.234 276.185 Q158.234 284.912 155.156 289.518 Q152.1 294.101 146.29 294.101 Q140.48 294.101 137.401 289.518 Q134.346 284.912 134.346 276.185 Q134.346 267.435 137.401 262.852 Q140.48 258.245 146.29 258.245 Z" fill="#000000" fill-rule="nonzero" fill-opacity="1" /><path clip-path="url(#clip730)" d="M105.943 162.32 L128.165 162.32 L128.165 164.31 L115.619 196.88 L110.735 196.88 L122.54 166.255 L105.943 166.255 L105.943 162.32 Z" fill="#000000" fill-rule="nonzero" fill-opacity="1" /><path clip-path="url(#clip730)" d="M137.332 162.32 L155.688 162.32 L155.688 166.255 L141.614 166.255 L141.614 174.727 Q142.633 174.38 143.651 174.218 Q144.67 174.032 145.688 174.032 Q151.475 174.032 154.855 177.204 Q158.234 180.375 158.234 185.792 Q158.234 191.37 154.762 194.472 Q151.29 197.551 144.971 197.551 Q142.795 197.551 140.526 197.18 Q138.281 196.81 135.873 196.069 L135.873 191.37 Q137.957 192.505 140.179 193.06 Q142.401 193.616 144.878 193.616 Q148.883 193.616 151.22 191.509 Q153.558 189.403 153.558 185.792 Q153.558 182.181 151.22 180.074 Q148.883 177.968 144.878 177.968 Q143.003 177.968 141.128 178.384 Q139.276 178.801 137.332 179.681 L137.332 162.32 Z" fill="#000000" fill-rule="nonzero" fill-opacity="1" /><path clip-path="url(#clip730)" d="M76.7765 96.3938 L84.4153 96.3938 L84.4153 70.0282 L76.1052 71.6949 L76.1052 67.4356 L84.369 65.769 L89.0449 65.769 L89.0449 96.3938 L96.6838 96.3938 L96.6838 100.329 L76.7765 100.329 L76.7765 96.3938 Z" fill="#000000" fill-rule="nonzero" fill-opacity="1" /><path clip-path="url(#clip730)" d="M116.128 68.8477 Q112.517 68.8477 110.688 72.4125 Q108.883 75.9541 108.883 83.0837 Q108.883 90.1901 110.688 93.7549 Q112.517 97.2966 116.128 97.2966 Q119.762 97.2966 121.568 93.7549 Q123.397 90.1901 123.397 83.0837 Q123.397 75.9541 121.568 72.4125 Q119.762 68.8477 116.128 68.8477 M116.128 65.144 Q121.938 65.144 124.994 69.7504 Q128.072 74.3337 128.072 83.0837 Q128.072 91.8105 124.994 96.417 Q121.938 101 116.128 101 Q110.318 101 107.239 96.417 Q104.184 91.8105 104.184 83.0837 Q104.184 74.3337 107.239 69.7504 Q110.318 65.144 116.128 65.144 Z" fill="#000000" fill-rule="nonzero" fill-opacity="1" /><path clip-path="url(#clip730)" d="M146.29 68.8477 Q142.679 68.8477 140.85 72.4125 Q139.045 75.9541 139.045 83.0837 Q139.045 90.1901 140.85 93.7549 Q142.679 97.2966 146.29 97.2966 Q149.924 97.2966 151.73 93.7549 Q153.558 90.1901 153.558 83.0837 Q153.558 75.9541 151.73 72.4125 Q149.924 68.8477 146.29 68.8477 M146.29 65.144 Q152.1 65.144 155.156 69.7504 Q158.234 74.3337 158.234 83.0837 Q158.234 91.8105 155.156 96.417 Q152.1 101 146.29 101 Q140.48 101 137.401 96.417 Q134.346 91.8105 134.346 83.0837 Q134.346 74.3337 137.401 69.7504 Q140.48 65.144 146.29 65.144 Z" fill="#000000" fill-rule="nonzero" fill-opacity="1" /><path clip-path="url(#clip730)" d="M-33.6708 340.348 L-33.6708 330.767 L-1.33305 318.641 L-33.6708 306.45 L-33.6708 296.87 L13.8492 296.87 L13.8492 303.14 L-27.878 303.14 L4.71437 315.394 L4.71437 321.855 L-27.878 334.109 L13.8492 334.109 L13.8492 340.348 L-33.6708 340.348 Z" fill="#000000" fill-rule="nonzero" fill-opacity="1" /><path clip-path="url(#clip730)" d="M-33.6708 288.34 L-33.6708 281.847 L6.49677 271.853 L-33.6708 261.891 L-33.6708 254.665 L6.49677 244.671 L-33.6708 234.709 L-33.6708 228.184 L13.8492 240.12 L13.8492 248.204 L-27.4006 258.23 L13.8492 268.352 L13.8492 276.436 L-33.6708 288.34 Z" fill="#000000" fill-rule="nonzero" fill-opacity="1" /><path clip-path="url(#clip732)" d="M206.234 269.971 L220.173 279.24 L234.112 289.667 L248.05 298.164 L261.989 302.026 L275.927 306.66 L289.866 315.543 L303.805 313.998 L317.743 432.887 L331.682 469.251 L345.621 469.251 L359.559 469.251 L373.498 469.251 L387.436 469.251 L401.375 442.514 L415.314 306.85 L429.252 285.805 L443.191 218.22 L457.13 213.585 L471.068 220.151 L485.007 233.668 L498.945 264.564 L512.884 242.551 L526.823 260.316 L540.761 315.929 L554.7 289.667 L568.639 296.233 L582.577 297.391 L596.516 291.598 L610.454 281.557 L624.393 266.109 L638.332 241.392 L652.27 273.805 L666.209 346.848 L680.148 412.077 L694.086 452.023 L708.025 469.251 L721.963 440.188 L735.902 304.091 L749.841 197.65 L763.779 178.827 L777.718 157.586 L791.657 157.586 L805.595 169.944 L819.534 193.889 L833.472 208.179 L847.411 215.13 L861.35 235.985 L875.288 257.999 L889.227 272.674 L903.166 281.943 L917.104 285.033 L931.043 283.102 L944.981 281.943 L958.92 279.626 L972.859 263.405 L986.797 294.951 L1000.74 373.686 L1014.67 416.235 L1028.61 423.467 L1042.55 391.138 L1056.49 340.959 L1070.43 265.208 L1084.37 206.438 L1098.31 189.255 L1112.25 170.717 L1126.18 170.331 L1140.12 183.848 L1154.06 206.634 L1168 221.696 L1181.94 226.716 L1195.88 244.868 L1209.82 265.336 L1223.75 279.626 L1237.69 287.736 L1251.63 291.984 L1265.57 291.212 L1279.51 293.529 L1293.45 298.936 L1307.39 292.466 L1321.32 423.316 L1335.26 469.251 L1349.2 469.251 L1363.14 469.251 L1377.08 469.251 L1391.02 469.251 L1404.96 432.965 L1418.89 248.338 L1432.83 263.019 L1446.77 193.889 L1460.71 210.11 L1474.65 195.434 L1488.59 211.268 L1502.53 221.309 L1516.47 222.468 L1530.4 241.778 L1544.34 299.322 L1558.28 273.447 L1572.22 278.467 L1586.16 277.695 L1600.1 269.585 L1614.04 249.502 L1627.97 213.585 L1641.91 180.176 L1655.85 323.278 L1669.79 469.251 L1683.73 469.251 L1697.67 469.251 L1711.61 469.251 L1725.54 469.251 L1739.48 438.226 L1753.42 178.81 L1767.36 176.124 L1781.3 113.945 L1795.24 137.117 L1809.18 125.531 L1823.11 152.565 L1837.05 171.103 L1850.99 183.075 L1864.93 210.496 L1878.87 269.198 L1892.81 245.254 L1906.75 251.819 L1920.69 251.433 L1934.62 246.413 L1948.56 235.213 L1962.5 208.951 L1976.44 182.493 L1990.38 309.772 L2004.32 469.251 L2018.26 469.251 L2032.19 469.251 L2046.13 469.251 L2060.07 469.251 L2074.01 383.419 L2087.95 173.605 L2101.89 184.234 L2115.83 118.966 L2129.76 142.138 L2143.7 128.621 L2157.64 152.179 L2171.58 171.103 L2185.52 183.848 L2199.46 208.565 L2213.4 269.198 L2227.34 245.64 L2241.27 249.502 L2255.21 247.185 L2269.15 240.62 L2283.09 218.992 L2297.03 168.4 L2310.97 127.171 L2324.91 195.389 L2338.84 356.547 L2352.78 440.309 L2366.72 469.251 L2380.66 469.251 L2394.6 407.884 L2408.54 261.301 L2422.48 128.033 L2436.41 106.221 L2450.35 83.049 L2464.29 86.1386 L2478.23 99.2695 L2492.17 125.917 L2506.11 147.545 L2520.05 163.379 L2533.98 193.889 L2533.98 469.251 L2520.05 469.251 L2506.11 469.251 L2492.17 469.251 L2478.23 469.251 L2464.29 469.251 L2450.35 469.251 L2436.41 469.251 L2422.48 469.251 L2408.54 469.251 L2394.6 469.251 L2380.66 469.251 L2366.72 469.251 L2352.78 469.251 L2338.84 469.251 L2324.91 469.251 L2310.97 469.251 L2297.03 469.251 L2283.09 469.251 L2269.15 469.251 L2255.21 469.251 L2241.27 469.251 L2227.34 469.251 L2213.4 469.251 L2199.46 469.251 L2185.52 469.251 L2171.58 469.251 L2157.64 469.251 L2143.7 469.251 L2129.76 469.251 L2115.83 469.251 L2101.89 469.251 L2087.95 469.251 L2074.01 469.251 L2060.07 469.251 L2046.13 469.251 L2032.19 469.251 L2018.26 469.251 L2004.32 469.251 L1990.38 469.251 L1976.44 469.251 L1962.5 469.251 L1948.56 469.251 L1934.62 469.251 L1920.69 469.251 L1906.75 469.251 L1892.81 469.251 L1878.87 469.251 L1864.93 469.251 L1850.99 469.251 L1837.05 469.251 L1823.11 469.251 L1809.18 469.251 L1795.24 469.251 L1781.3 469.251 L1767.36 469.251 L1753.42 469.251 L1739.48 469.251 L1725.54 469.251 L1711.61 469.251 L1697.67 469.251 L1683.73 469.251 L1669.79 469.251 L1655.85 469.251 L1641.91 469.251 L1627.97 469.251 L1614.04 469.251 L1600.1 469.251 L1586.16 469.251 L1572.22 469.251 L1558.28 469.251 L1544.34 469.251 L1530.4 469.251 L1516.47 469.251 L1502.53 469.251 L1488.59 469.251 L1474.65 469.251 L1460.71 469.251 L1446.77 469.251 L1432.83 469.251 L1418.89 469.251 L1404.96 469.251 L1391.02 469.251 L1377.08 469.251 L1363.14 469.251 L1349.2 469.251 L1335.26 469.251 L1321.32 469.251 L1307.39 469.251 L1293.45 469.251 L1279.51 469.251 L1265.57 469.251 L1251.63 469.251 L1237.69 469.251 L1223.75 469.251 L1209.82 469.251 L1195.88 469.251 L1181.94 469.251 L1168 469.251 L1154.06 469.251 L1140.12 469.251 L1126.18 469.251 L1112.25 469.251 L1098.31 469.251 L1084.37 469.251 L1070.43 469.251 L1056.49 469.251 L1042.55 469.251 L1028.61 469.251 L1014.67 469.251 L1000.74 469.251 L986.797 469.251 L972.859 469.251 L958.92 469.251 L944.981 469.251 L931.043 469.251 L917.104 469.251 L903.166 469.251 L889.227 469.251 L875.288 469.251 L861.35 469.251 L847.411 469.251 L833.472 469.251 L819.534 469.251 L805.595 469.251 L791.657 469.251 L777.718 469.251 L763.779 469.251 L749.841 469.251 L735.902 469.251 L721.963 469.251 L708.025 469.251 L694.086 469.251 L680.148 469.251 L666.209 469.251 L652.27 469.251 L638.332 469.251 L624.393 469.251 L610.454 469.251 L596.516 469.251 L582.577 469.251 L568.639 469.251 L554.7 469.251 L540.761 469.251 L526.823 469.251 L512.884 469.251 L498.945 469.251 L485.007 469.251 L471.068 469.251 L457.13 469.251 L443.191 469.251 L429.252 469.251 L415.314 469.251 L401.375 469.251 L387.436 469.251 L373.498 469.251 L359.559 469.251 L345.621 469.251 L331.682 469.251 L317.743 469.251 L303.805 469.251 L289.866 469.251 L275.927 469.251 L261.989 469.251 L248.05 469.251 L234.112 469.251 L220.173 469.251 L206.234 469.251  Z" fill="#009af9" fill-rule="evenodd" fill-opacity="1"/>
<polyline clip-path="url(#clip732)" style="stroke:#009af9; stroke-linecap:round; stroke-linejoin:round; stroke-width:4; stroke-opacity:1; fill:none" points="206.234,269.971 220.173,279.24 234.112,289.667 248.05,298.164 261.989,302.026 275.927,306.66 289.866,315.543 303.805,313.998 317.743,432.887 331.682,469.251 345.621,469.251 359.559,469.251 373.498,469.251 387.436,469.251 401.375,442.514 415.314,306.85 429.252,285.805 443.191,218.22 457.13,213.585 471.068,220.151 485.007,233.668 498.945,264.564 512.884,242.551 526.823,260.316 540.761,315.929 554.7,289.667 568.639,296.233 582.577,297.391 596.516,291.598 610.454,281.557 624.393,266.109 638.332,241.392 652.27,273.805 666.209,346.848 680.148,412.077 694.086,452.023 708.025,469.251 721.963,440.188 735.902,304.091 749.841,197.65 763.779,178.827 777.718,157.586 791.657,157.586 805.595,169.944 819.534,193.889 833.472,208.179 847.411,215.13 861.35,235.985 875.288,257.999 889.227,272.674 903.166,281.943 917.104,285.033 931.043,283.102 944.981,281.943 958.92,279.626 972.859,263.405 986.797,294.951 1000.74,373.686 1014.67,416.235 1028.61,423.467 1042.55,391.138 1056.49,340.959 1070.43,265.208 1084.37,206.438 1098.31,189.255 1112.25,170.717 1126.18,170.331 1140.12,183.848 1154.06,206.634 1168,221.696 1181.94,226.716 1195.88,244.868 1209.82,265.336 1223.75,279.626 1237.69,287.736 1251.63,291.984 1265.57,291.212 1279.51,293.529 1293.45,298.936 1307.39,292.466 1321.32,423.316 1335.26,469.251 1349.2,469.251 1363.14,469.251 1377.08,469.251 1391.02,469.251 1404.96,432.965 1418.89,248.338 1432.83,263.019 1446.77,193.889 1460.71,210.11 1474.65,195.434 1488.59,211.268 1502.53,221.309 1516.47,222.468 1530.4,241.778 1544.34,299.322 1558.28,273.447 1572.22,278.467 1586.16,277.695 1600.1,269.585 1614.04,249.502 1627.97,213.585 1641.91,180.176 1655.85,323.278 1669.79,469.251 1683.73,469.251 1697.67,469.251 1711.61,469.251 1725.54,469.251 1739.48,438.226 1753.42,178.81 1767.36,176.124 1781.3,113.945 1795.24,137.117 1809.18,125.531 1823.11,152.565 1837.05,171.103 1850.99,183.075 1864.93,210.496 1878.87,269.198 1892.81,245.254 1906.75,251.819 1920.69,251.433 1934.62,246.413 1948.56,235.213 1962.5,208.951 1976.44,182.493 1990.38,309.772 2004.32,469.251 2018.26,469.251 2032.19,469.251 2046.13,469.251 2060.07,469.251 2074.01,383.419 2087.95,173.605 2101.89,184.234 2115.83,118.966 2129.76,142.138 2143.7,128.621 2157.64,152.179 2171.58,171.103 2185.52,183.848 2199.46,208.565 2213.4,269.198 2227.34,245.64 2241.27,249.502 2255.21,247.185 2269.15,240.62 2283.09,218.992 2297.03,168.4 2310.97,127.171 2324.91,195.389 2338.84,356.547 2352.78,440.309 2366.72,469.251 2380.66,469.251 2394.6,407.884 2408.54,261.301 2422.48,128.033 2436.41,106.221 2450.35,83.049 2464.29,86.1386 2478.23,99.2695 2492.17,125.917 2506.11,147.545 2520.05,163.379 2533.98,193.889 "/>
<path clip-path="url(#clip732)" d="M206.234 269.971 L220.173 279.24 L234.112 289.667 L248.05 298.164 L261.989 302.026 L275.927 306.66 L289.866 315.543 L303.805 313.998 L317.743 309.75 L331.682 278.296 L345.621 240.233 L359.559 220.923 L373.498 214.358 L387.436 218.606 L401.375 263.405 L415.314 301.253 L429.252 285.805 L443.191 218.22 L457.13 213.585 L471.068 220.151 L485.007 233.668 L498.945 264.564 L512.884 242.551 L526.823 260.316 L540.761 315.929 L554.7 289.667 L568.639 296.233 L582.577 297.391 L596.516 291.598 L610.454 281.557 L624.393 266.109 L638.332 241.392 L652.27 217.834 L666.209 198.523 L680.148 185.393 L694.086 174.965 L708.025 161.409 L721.963 188.317 L735.902 186.551 L749.841 189.255 L763.779 178.827 L777.718 157.586 L791.657 157.586 L805.595 169.944 L819.534 193.889 L833.472 208.179 L847.411 215.13 L861.35 235.985 L875.288 257.999 L889.227 272.674 L903.166 281.943 L917.104 285.033 L931.043 283.102 L944.981 281.943 L958.92 279.626 L972.859 263.405 L986.797 241.778 L1000.74 219.765 L1014.67 203.544 L1028.61 191.186 L1042.55 189.641 L1056.49 195.434 L1070.43 200.841 L1084.37 200.841 L1098.31 189.255 L1112.25 170.717 L1126.18 170.331 L1140.12 183.848 L1154.06 206.634 L1168 221.696 L1181.94 226.716 L1195.88 244.868 L1209.82 265.336 L1223.75 279.626 L1237.69 287.736 L1251.63 291.984 L1265.57 291.212 L1279.51 293.529 L1293.45 298.936 L1307.39 289.667 L1321.32 274.992 L1335.26 237.358 L1349.2 197.751 L1363.14 177.282 L1377.08 176.124 L1391.02 186.551 L1404.96 273.447 L1418.89 237.144 L1432.83 263.019 L1446.77 193.889 L1460.71 210.11 L1474.65 195.434 L1488.59 211.268 L1502.53 221.309 L1516.47 222.468 L1530.4 241.778 L1544.34 299.322 L1558.28 273.447 L1572.22 278.467 L1586.16 277.695 L1600.1 269.585 L1614.04 249.502 L1627.97 213.585 L1641.91 174.579 L1655.85 152.565 L1669.79 128.449 L1683.73 98.8833 L1697.67 91.9316 L1711.61 91.9316 L1725.54 97.7247 L1739.48 180.758 L1753.42 145.228 L1767.36 176.124 L1781.3 113.945 L1795.24 137.117 L1809.18 125.531 L1823.11 152.565 L1837.05 171.103 L1850.99 183.075 L1864.93 210.496 L1878.87 269.198 L1892.81 245.254 L1906.75 251.819 L1920.69 251.433 L1934.62 246.413 L1948.56 235.213 L1962.5 208.951 L1976.44 176.896 L1990.38 161.448 L2004.32 136.559 L2018.26 105.449 L2032.19 97.3385 L2046.13 98.4971 L2060.07 106.994 L2074.01 193.117 L2087.95 156.814 L2101.89 184.234 L2115.83 118.966 L2129.76 142.138 L2143.7 128.621 L2157.64 152.179 L2171.58 171.103 L2185.52 183.848 L2199.46 208.565 L2213.4 269.198 L2227.34 245.64 L2241.27 249.502 L2255.21 247.185 L2269.15 240.62 L2283.09 218.992 L2297.03 168.4 L2310.97 124.373 L2324.91 105.835 L2338.84 104.676 L2352.78 98.8833 L2366.72 60.6604 L2380.66 94.2432 L2394.6 100.042 L2408.54 107.38 L2422.48 111.242 L2436.41 106.221 L2450.35 83.049 L2464.29 86.1386 L2478.23 99.2695 L2492.17 125.917 L2506.11 147.545 L2520.05 163.379 L2533.98 193.889 L2533.98 193.889 L2520.05 163.379 L2506.11 147.545 L2492.17 125.917 L2478.23 99.2695 L2464.29 86.1386 L2450.35 83.049 L2436.41 106.221 L2422.48 128.033 L2408.54 261.301 L2394.6 407.884 L2380.66 469.251 L2366.72 469.251 L2352.78 440.309 L2338.84 356.547 L2324.91 195.389 L2310.97 127.171 L2297.03 168.4 L2283.09 218.992 L2269.15 240.62 L2255.21 247.185 L2241.27 249.502 L2227.34 245.64 L2213.4 269.198 L2199.46 208.565 L2185.52 183.848 L2171.58 171.103 L2157.64 152.179 L2143.7 128.621 L2129.76 142.138 L2115.83 118.966 L2101.89 184.234 L2087.95 173.605 L2074.01 383.419 L2060.07 469.251 L2046.13 469.251 L2032.19 469.251 L2018.26 469.251 L2004.32 469.251 L1990.38 309.772 L1976.44 182.493 L1962.5 208.951 L1948.56 235.213 L1934.62 246.413 L1920.69 251.433 L1906.75 251.819 L1892.81 245.254 L1878.87 269.198 L1864.93 210.496 L1850.99 183.075 L1837.05 171.103 L1823.11 152.565 L1809.18 125.531 L1795.24 137.117 L1781.3 113.945 L1767.36 176.124 L1753.42 178.81 L1739.48 438.226 L1725.54 469.251 L1711.61 469.251 L1697.67 469.251 L1683.73 469.251 L1669.79 469.251 L1655.85 323.278 L1641.91 180.176 L1627.97 213.585 L1614.04 249.502 L1600.1 269.585 L1586.16 277.695 L1572.22 278.467 L1558.28 273.447 L1544.34 299.322 L1530.4 241.778 L1516.47 222.468 L1502.53 221.309 L1488.59 211.268 L1474.65 195.434 L1460.71 210.11 L1446.77 193.889 L1432.83 263.019 L1418.89 248.338 L1404.96 432.965 L1391.02 469.251 L1377.08 469.251 L1363.14 469.251 L1349.2 469.251 L1335.26 469.251 L1321.32 423.316 L1307.39 292.466 L1293.45 298.936 L1279.51 293.529 L1265.57 291.212 L1251.63 291.984 L1237.69 287.736 L1223.75 279.626 L1209.82 265.336 L1195.88 244.868 L1181.94 226.716 L1168 221.696 L1154.06 206.634 L1140.12 183.848 L1126.18 170.331 L1112.25 170.717 L1098.31 189.255 L1084.37 206.438 L1070.43 265.208 L1056.49 340.959 L1042.55 391.138 L1028.61 423.467 L1014.67 416.235 L1000.74 373.686 L986.797 294.951 L972.859 263.405 L958.92 279.626 L944.981 281.943 L931.043 283.102 L917.104 285.033 L903.166 281.943 L889.227 272.674 L875.288 257.999 L861.35 235.985 L847.411 215.13 L833.472 208.179 L819.534 193.889 L805.595 169.944 L791.657 157.586 L777.718 157.586 L763.779 178.827 L749.841 197.65 L735.902 304.091 L721.963 440.188 L708.025 469.251 L694.086 452.023 L680.148 412.077 L666.209 346.848 L652.27 273.805 L638.332 241.392 L624.393 266.109 L610.454 281.557 L596.516 291.598 L582.577 297.391 L568.639 296.233 L554.7 289.667 L540.761 315.929 L526.823 260.316 L512.884 242.551 L498.945 264.564 L485.007 233.668 L471.068 220.151 L457.13 213.585 L443.191 218.22 L429.252 285.805 L415.314 306.85 L401.375 442.514 L387.436 469.251 L373.498 469.251 L359.559 469.251 L345.621 469.251 L331.682 469.251 L317.743 432.887 L303.805 313.998 L289.866 315.543 L275.927 306.66 L261.989 302.026 L248.05 298.164 L234.112 289.667 L220.173 279.24 L206.234 269.971  Z" fill="#e26f46" fill-rule="evenodd" fill-opacity="1"/>
<polyline clip-path="url(#clip732)" style="stroke:#e26f46; stroke-linecap:round; stroke-linejoin:round; stroke-width:4; stroke-opacity:1; fill:none" points="206.234,269.971 220.173,279.24 234.112,289.667 248.05,298.164 261.989,302.026 275.927,306.66 289.866,315.543 303.805,313.998 317.743,309.75 331.682,278.296 345.621,240.233 359.559,220.923 373.498,214.358 387.436,218.606 401.375,263.405 415.314,301.253 429.252,285.805 443.191,218.22 457.13,213.585 471.068,220.151 485.007,233.668 498.945,264.564 512.884,242.551 526.823,260.316 540.761,315.929 554.7,289.667 568.639,296.233 582.577,297.391 596.516,291.598 610.454,281.557 624.393,266.109 638.332,241.392 652.27,217.834 666.209,198.523 680.148,185.393 694.086,174.965 708.025,161.409 721.963,188.317 735.902,186.551 749.841,189.255 763.779,178.827 777.718,157.586 791.657,157.586 805.595,169.944 819.534,193.889 833.472,208.179 847.411,215.13 861.35,235.985 875.288,257.999 889.227,272.674 903.166,281.943 917.104,285.033 931.043,283.102 944.981,281.943 958.92,279.626 972.859,263.405 986.797,241.778 1000.74,219.765 1014.67,203.544 1028.61,191.186 1042.55,189.641 1056.49,195.434 1070.43,200.841 1084.37,200.841 1098.31,189.255 1112.25,170.717 1126.18,170.331 1140.12,183.848 1154.06,206.634 1168,221.696 1181.94,226.716 1195.88,244.868 1209.82,265.336 1223.75,279.626 1237.69,287.736 1251.63,291.984 1265.57,291.212 1279.51,293.529 1293.45,298.936 1307.39,289.667 1321.32,274.992 1335.26,237.358 1349.2,197.751 1363.14,177.282 1377.08,176.124 1391.02,186.551 1404.96,273.447 1418.89,237.144 1432.83,263.019 1446.77,193.889 1460.71,210.11 1474.65,195.434 1488.59,211.268 1502.53,221.309 1516.47,222.468 1530.4,241.778 1544.34,299.322 1558.28,273.447 1572.22,278.467 1586.16,277.695 1600.1,269.585 1614.04,249.502 1627.97,213.585 1641.91,174.579 1655.85,152.565 1669.79,128.449 1683.73,98.8833 1697.67,91.9316 1711.61,91.9316 1725.54,97.7247 1739.48,180.758 1753.42,145.228 1767.36,176.124 1781.3,113.945 1795.24,137.117 1809.18,125.531 1823.11,152.565 1837.05,171.103 1850.99,183.075 1864.93,210.496 1878.87,269.198 1892.81,245.254 1906.75,251.819 1920.69,251.433 1934.62,246.413 1948.56,235.213 1962.5,208.951 1976.44,176.896 1990.38,161.448 2004.32,136.559 2018.26,105.449 2032.19,97.3385 2046.13,98.4971 2060.07,106.994 2074.01,193.117 2087.95,156.814 2101.89,184.234 2115.83,118.966 2129.76,142.138 2143.7,128.621 2157.64,152.179 2171.58,171.103 2185.52,183.848 2199.46,208.565 2213.4,269.198 2227.34,245.64 2241.27,249.502 2255.21,247.185 2269.15,240.62 2283.09,218.992 2297.03,168.4 2310.97,124.373 2324.91,105.835 2338.84,104.676 2352.78,98.8833 2366.72,60.6604 2380.66,94.2432 2394.6,100.042 2408.54,107.38 2422.48,111.242 2436.41,106.221 2450.35,83.049 2464.29,86.1386 2478.23,99.2695 2492.17,125.917 2506.11,147.545 2520.05,163.379 2533.98,193.889 "/>
<path clip-path="url(#clip732)" d="M206.234 269.971 L220.173 279.24 L234.112 289.667 L248.05 298.164 L261.989 302.026 L275.927 306.66 L289.866 315.543 L303.805 313.998 L317.743 309.75 L331.682 278.296 L345.621 240.233 L359.559 220.923 L373.498 214.358 L387.436 218.606 L401.375 263.405 L415.314 262.633 L429.252 247.185 L443.191 218.22 L457.13 213.585 L471.068 220.151 L485.007 233.668 L498.945 241.392 L512.884 242.551 L526.823 260.316 L540.761 277.309 L554.7 289.667 L568.639 296.233 L582.577 297.391 L596.516 291.598 L610.454 281.557 L624.393 266.109 L638.332 241.392 L652.27 217.834 L666.209 198.523 L680.148 185.393 L694.086 174.965 L708.025 161.409 L721.963 179.213 L735.902 186.551 L749.841 189.255 L763.779 178.827 L777.718 157.586 L791.657 157.586 L805.595 169.944 L819.534 193.889 L833.472 208.179 L847.411 215.13 L861.35 235.985 L875.288 257.999 L889.227 272.674 L903.166 281.943 L917.104 285.033 L931.043 283.102 L944.981 281.943 L958.92 279.626 L972.859 263.405 L986.797 241.778 L1000.74 219.765 L1014.67 203.544 L1028.61 191.186 L1042.55 189.641 L1056.49 195.434 L1070.43 200.841 L1084.37 200.841 L1098.31 189.255 L1112.25 170.717 L1126.18 170.331 L1140.12 183.848 L1154.06 206.634 L1168 221.696 L1181.94 226.716 L1195.88 244.868 L1209.82 265.336 L1223.75 279.626 L1237.69 287.736 L1251.63 291.984 L1265.57 291.212 L1279.51 293.529 L1293.45 298.936 L1307.39 289.667 L1321.32 274.992 L1335.26 237.358 L1349.2 197.751 L1363.14 177.282 L1377.08 176.124 L1391.02 186.551 L1404.96 234.826 L1418.89 237.144 L1432.83 224.399 L1446.77 193.889 L1460.71 186.937 L1474.65 195.434 L1488.59 211.268 L1502.53 221.309 L1516.47 222.468 L1530.4 241.778 L1544.34 260.702 L1558.28 273.447 L1572.22 278.467 L1586.16 277.695 L1600.1 269.585 L1614.04 249.502 L1627.97 213.585 L1641.91 174.579 L1655.85 152.565 L1669.79 128.449 L1683.73 98.8833 L1697.67 91.9316 L1711.61 91.9316 L1725.54 97.7247 L1739.48 142.138 L1753.42 145.228 L1767.36 137.503 L1781.3 113.945 L1795.24 113.945 L1809.18 125.531 L1823.11 152.565 L1837.05 171.103 L1850.99 183.075 L1864.93 210.496 L1878.87 230.578 L1892.81 245.254 L1906.75 251.819 L1920.69 251.433 L1934.62 246.413 L1948.56 235.213 L1962.5 208.951 L1976.44 176.896 L1990.38 161.448 L2004.32 136.559 L2018.26 105.449 L2032.19 97.3385 L2046.13 98.4971 L2060.07 106.994 L2074.01 154.496 L2087.95 156.814 L2101.89 145.614 L2115.83 118.966 L2129.76 118.966 L2143.7 128.621 L2157.64 152.179 L2171.58 171.103 L2185.52 183.848 L2199.46 208.565 L2213.4 230.578 L2227.34 245.64 L2241.27 249.502 L2255.21 247.185 L2269.15 240.62 L2283.09 218.992 L2297.03 168.4 L2310.97 124.373 L2324.91 105.835 L2338.84 104.676 L2352.78 98.8833 L2366.72 60.6604 L2380.66 94.2432 L2394.6 100.042 L2408.54 107.38 L2422.48 111.242 L2436.41 106.221 L2450.35 83.049 L2464.29 86.1386 L2478.23 99.2695 L2492.17 125.917 L2506.11 147.545 L2520.05 163.379 L2533.98 193.889 L2533.98 193.889 L2520.05 163.379 L2506.11 147.545 L2492.17 125.917 L2478.23 99.2695 L2464.29 86.1386 L2450.35 83.049 L2436.41 106.221 L2422.48 111.242 L2408.54 107.38 L2394.6 100.042 L2380.66 94.2432 L2366.72 60.6604 L2352.78 98.8833 L2338.84 104.676 L2324.91 105.835 L2310.97 124.373 L2297.03 168.4 L2283.09 218.992 L2269.15 240.62 L2255.21 247.185 L2241.27 249.502 L2227.34 245.64 L2213.4 269.198 L2199.46 208.565 L2185.52 183.848 L2171.58 171.103 L2157.64 152.179 L2143.7 128.621 L2129.76 142.138 L2115.83 118.966 L2101.89 184.234 L2087.95 156.814 L2074.01 193.117 L2060.07 106.994 L2046.13 98.4971 L2032.19 97.3385 L2018.26 105.449 L2004.32 136.559 L1990.38 161.448 L1976.44 176.896 L1962.5 208.951 L1948.56 235.213 L1934.62 246.413 L1920.69 251.433 L1906.75 251.819 L1892.81 245.254 L1878.87 269.198 L1864.93 210.496 L1850.99 183.075 L1837.05 171.103 L1823.11 152.565 L1809.18 125.531 L1795.24 137.117 L1781.3 113.945 L1767.36 176.124 L1753.42 145.228 L1739.48 180.758 L1725.54 97.7247 L1711.61 91.9316 L1697.67 91.9316 L1683.73 98.8833 L1669.79 128.449 L1655.85 152.565 L1641.91 174.579 L1627.97 213.585 L1614.04 249.502 L1600.1 269.585 L1586.16 277.695 L1572.22 278.467 L1558.28 273.447 L1544.34 299.322 L1530.4 241.778 L1516.47 222.468 L1502.53 221.309 L1488.59 211.268 L1474.65 195.434 L1460.71 210.11 L1446.77 193.889 L1432.83 263.019 L1418.89 237.144 L1404.96 273.447 L1391.02 186.551 L1377.08 176.124 L1363.14 177.282 L1349.2 197.751 L1335.26 237.358 L1321.32 274.992 L1307.39 289.667 L1293.45 298.936 L1279.51 293.529 L1265.57 291.212 L1251.63 291.984 L1237.69 287.736 L1223.75 279.626 L1209.82 265.336 L1195.88 244.868 L1181.94 226.716 L1168 221.696 L1154.06 206.634 L1140.12 183.848 L1126.18 170.331 L1112.25 170.717 L1098.31 189.255 L1084.37 200.841 L1070.43 200.841 L1056.49 195.434 L1042.55 189.641 L1028.61 191.186 L1014.67 203.544 L1000.74 219.765 L986.797 241.778 L972.859 263.405 L958.92 279.626 L944.981 281.943 L931.043 283.102 L917.104 285.033 L903.166 281.943 L889.227 272.674 L875.288 257.999 L861.35 235.985 L847.411 215.13 L833.472 208.179 L819.534 193.889 L805.595 169.944 L791.657 157.586 L777.718 157.586 L763.779 178.827 L749.841 189.255 L735.902 186.551 L721.963 188.317 L708.025 161.409 L694.086 174.965 L680.148 185.393 L666.209 198.523 L652.27 217.834 L638.332 241.392 L624.393 266.109 L610.454 281.557 L596.516 291.598 L582.577 297.391 L568.639 296.233 L554.7 289.667 L540.761 315.929 L526.823 260.316 L512.884 242.551 L498.945 264.564 L485.007 233.668 L471.068 220.151 L457.13 213.585 L443.191 218.22 L429.252 285.805 L415.314 301.253 L401.375 263.405 L387.436 218.606 L373.498 214.358 L359.559 220.923 L345.621 240.233 L331.682 278.296 L317.743 309.75 L303.805 313.998 L289.866 315.543 L275.927 306.66 L261.989 302.026 L248.05 298.164 L234.112 289.667 L220.173 279.24 L206.234 269.971  Z" fill="#3da44d" fill-rule="evenodd" fill-opacity="1"/>
<polyline clip-path="url(#clip732)" style="stroke:#3da44d; stroke-linecap:round; stroke-linejoin:round; stroke-width:4; stroke-opacity:1; fill:none" points="206.234,269.971 220.173,279.24 234.112,289.667 248.05,298.164 261.989,302.026 275.927,306.66 289.866,315.543 303.805,313.998 317.743,309.75 331.682,278.296 345.621,240.233 359.559,220.923 373.498,214.358 387.436,218.606 401.375,263.405 415.314,262.633 429.252,247.185 443.191,218.22 457.13,213.585 471.068,220.151 485.007,233.668 498.945,241.392 512.884,242.551 526.823,260.316 540.761,277.309 554.7,289.667 568.639,296.233 582.577,297.391 596.516,291.598 610.454,281.557 624.393,266.109 638.332,241.392 652.27,217.834 666.209,198.523 680.148,185.393 694.086,174.965 708.025,161.409 721.963,179.213 735.902,186.551 749.841,189.255 763.779,178.827 777.718,157.586 791.657,157.586 805.595,169.944 819.534,193.889 833.472,208.179 847.411,215.13 861.35,235.985 875.288,257.999 889.227,272.674 903.166,281.943 917.104,285.033 931.043,283.102 944.981,281.943 958.92,279.626 972.859,263.405 986.797,241.778 1000.74,219.765 1014.67,203.544 1028.61,191.186 1042.55,189.641 1056.49,195.434 1070.43,200.841 1084.37,200.841 1098.31,189.255 1112.25,170.717 1126.18,170.331 1140.12,183.848 1154.06,206.634 1168,221.696 1181.94,226.716 1195.88,244.868 1209.82,265.336 1223.75,279.626 1237.69,287.736 1251.63,291.984 1265.57,291.212 1279.51,293.529 1293.45,298.936 1307.39,289.667 1321.32,274.992 1335.26,237.358 1349.2,197.751 1363.14,177.282 1377.08,176.124 1391.02,186.551 1404.96,234.826 1418.89,237.144 1432.83,224.399 1446.77,193.889 1460.71,186.937 1474.65,195.434 1488.59,211.268 1502.53,221.309 1516.47,222.468 1530.4,241.778 1544.34,260.702 1558.28,273.447 1572.22,278.467 1586.16,277.695 1600.1,269.585 1614.04,249.502 1627.97,213.585 1641.91,174.579 1655.85,152.565 1669.79,128.449 1683.73,98.8833 1697.67,91.9316 1711.61,91.9316 1725.54,97.7247 1739.48,142.138 1753.42,145.228 1767.36,137.503 1781.3,113.945 1795.24,113.945 1809.18,125.531 1823.11,152.565 1837.05,171.103 1850.99,183.075 1864.93,210.496 1878.87,230.578 1892.81,245.254 1906.75,251.819 1920.69,251.433 1934.62,246.413 1948.56,235.213 1962.5,208.951 1976.44,176.896 1990.38,161.448 2004.32,136.559 2018.26,105.449 2032.19,97.3385 2046.13,98.4971 2060.07,106.994 2074.01,154.496 2087.95,156.814 2101.89,145.614 2115.83,118.966 2129.76,118.966 2143.7,128.621 2157.64,152.179 2171.58,171.103 2185.52,183.848 2199.46,208.565 2213.4,230.578 2227.34,245.64 2241.27,249.502 2255.21,247.185 2269.15,240.62 2283.09,218.992 2297.03,168.4 2310.97,124.373 2324.91,105.835 2338.84,104.676 2352.78,98.8833 2366.72,60.6604 2380.66,94.2432 2394.6,100.042 2408.54,107.38 2422.48,111.242 2436.41,106.221 2450.35,83.049 2464.29,86.1386 2478.23,99.2695 2492.17,125.917 2506.11,147.545 2520.05,163.379 2533.98,193.889 "/>
<path clip-path="url(#clip732)" d="M206.234 469.251 L220.173 469.251 L234.112 469.251 L248.05 469.251 L261.989 469.251 L275.927 469.251 L289.866 469.251 L303.805 469.251 L317.743 469.251 L331.682 486.416 L345.621 507.872 L359.559 507.872 L373.498 507.872 L387.436 507.872 L401.375 469.251 L415.314 469.251 L429.252 469.251 L443.191 469.251 L457.13 469.251 L471.068 469.251 L485.007 469.251 L498.945 469.251 L512.884 469.251 L526.823 469.251 L540.761 469.251 L554.7 469.251 L568.639 469.251 L582.577 469.251 L596.516 469.251 L610.454 469.251 L624.393 469.251 L638.332 469.251 L652.27 469.251 L666.209 469.251 L680.148 469.251 L694.086 469.251 L708.025 480.49 L721.963 469.251 L735.902 469.251 L749.841 469.251 L763.779 469.251 L777.718 469.251 L791.657 469.251 L805.595 469.251 L819.534 469.251 L833.472 469.251 L847.411 469.251 L861.35 469.251 L875.288 469.251 L889.227 469.251 L903.166 469.251 L917.104 469.251 L931.043 469.251 L944.981 469.251 L958.92 469.251 L972.859 469.251 L986.797 469.251 L1000.74 469.251 L1014.67 469.251 L1028.61 469.251 L1042.55 469.251 L1056.49 469.251 L1070.43 469.251 L1084.37 469.251 L1098.31 469.251 L1112.25 469.251 L1126.18 469.251 L1140.12 469.251 L1154.06 469.251 L1168 469.251 L1181.94 469.251 L1195.88 469.251 L1209.82 469.251 L1223.75 469.251 L1237.69 469.251 L1251.63 469.251 L1265.57 469.251 L1279.51 469.251 L1293.45 469.251 L1307.39 469.251 L1321.32 469.251 L1335.26 486.416 L1349.2 507.872 L1363.14 507.872 L1377.08 507.872 L1391.02 507.872 L1404.96 469.251 L1418.89 469.251 L1432.83 469.251 L1446.77 469.251 L1460.71 469.251 L1474.65 469.251 L1488.59 469.251 L1502.53 469.251 L1516.47 469.251 L1530.4 469.251 L1544.34 469.251 L1558.28 469.251 L1572.22 469.251 L1586.16 469.251 L1600.1 469.251 L1614.04 469.251 L1627.97 469.251 L1641.91 469.251 L1655.85 469.251 L1669.79 486.416 L1683.73 507.872 L1697.67 507.872 L1711.61 507.872 L1725.54 507.872 L1739.48 469.251 L1753.42 469.251 L1767.36 469.251 L1781.3 469.251 L1795.24 469.251 L1809.18 469.251 L1823.11 469.251 L1837.05 469.251 L1850.99 469.251 L1864.93 469.251 L1878.87 469.251 L1892.81 469.251 L1906.75 469.251 L1920.69 469.251 L1934.62 469.251 L1948.56 469.251 L1962.5 469.251 L1976.44 469.251 L1990.38 469.251 L2004.32 486.416 L2018.26 507.872 L2032.19 507.872 L2046.13 507.872 L2060.07 507.872 L2074.01 469.251 L2087.95 469.251 L2101.89 469.251 L2115.83 469.251 L2129.76 469.251 L2143.7 469.251 L2157.64 469.251 L2171.58 469.251 L2185.52 469.251 L2199.46 469.251 L2213.4 469.251 L2227.34 469.251 L2241.27 469.251 L2255.21 469.251 L2269.15 469.251 L2283.09 469.251 L2297.03 469.251 L2310.97 469.251 L2324.91 469.251 L2338.84 469.251 L2352.78 469.251 L2366.72 502.067 L2380.66 470.802 L2394.6 469.251 L2408.54 469.251 L2422.48 469.251 L2436.41 469.251 L2450.35 469.251 L2464.29 469.251 L2478.23 469.251 L2492.17 469.251 L2506.11 469.251 L2520.05 469.251 L2533.98 469.251 L2533.98 469.251 L2520.05 469.251 L2506.11 469.251 L2492.17 469.251 L2478.23 469.251 L2464.29 469.251 L2450.35 469.251 L2436.41 469.251 L2422.48 469.251 L2408.54 469.251 L2394.6 469.251 L2380.66 469.251 L2366.72 469.251 L2352.78 469.251 L2338.84 469.251 L2324.91 469.251 L2310.97 469.251 L2297.03 469.251 L2283.09 469.251 L2269.15 469.251 L2255.21 469.251 L2241.27 469.251 L2227.34 469.251 L2213.4 469.251 L2199.46 469.251 L2185.52 469.251 L2171.58 469.251 L2157.64 469.251 L2143.7 469.251 L2129.76 469.251 L2115.83 469.251 L2101.89 469.251 L2087.95 469.251 L2074.01 469.251 L2060.07 469.251 L2046.13 469.251 L2032.19 469.251 L2018.26 469.251 L2004.32 469.251 L1990.38 469.251 L1976.44 469.251 L1962.5 469.251 L1948.56 469.251 L1934.62 469.251 L1920.69 469.251 L1906.75 469.251 L1892.81 469.251 L1878.87 469.251 L1864.93 469.251 L1850.99 469.251 L1837.05 469.251 L1823.11 469.251 L1809.18 469.251 L1795.24 469.251 L1781.3 469.251 L1767.36 469.251 L1753.42 469.251 L1739.48 469.251 L1725.54 469.251 L1711.61 469.251 L1697.67 469.251 L1683.73 469.251 L1669.79 469.251 L1655.85 469.251 L1641.91 469.251 L1627.97 469.251 L1614.04 469.251 L1600.1 469.251 L1586.16 469.251 L1572.22 469.251 L1558.28 469.251 L1544.34 469.251 L1530.4 469.251 L1516.47 469.251 L1502.53 469.251 L1488.59 469.251 L1474.65 469.251 L1460.71 469.251 L1446.77 469.251 L1432.83 469.251 L1418.89 469.251 L1404.96 469.251 L1391.02 469.251 L1377.08 469.251 L1363.14 469.251 L1349.2 469.251 L1335.26 469.251 L1321.32 469.251 L1307.39 469.251 L1293.45 469.251 L1279.51 469.251 L1265.57 469.251 L1251.63 469.251 L1237.69 469.251 L1223.75 469.251 L1209.82 469.251 L1195.88 469.251 L1181.94 469.251 L1168 469.251 L1154.06 469.251 L1140.12 469.251 L1126.18 469.251 L1112.25 469.251 L1098.31 469.251 L1084.37 469.251 L1070.43 469.251 L1056.49 469.251 L1042.55 469.251 L1028.61 469.251 L1014.67 469.251 L1000.74 469.251 L986.797 469.251 L972.859 469.251 L958.92 469.251 L944.981 469.251 L931.043 469.251 L917.104 469.251 L903.166 469.251 L889.227 469.251 L875.288 469.251 L861.35 469.251 L847.411 469.251 L833.472 469.251 L819.534 469.251 L805.595 469.251 L791.657 469.251 L777.718 469.251 L763.779 469.251 L749.841 469.251 L735.902 469.251 L721.963 469.251 L708.025 469.251 L694.086 469.251 L680.148 469.251 L666.209 469.251 L652.27 469.251 L638.332 469.251 L624.393 469.251 L610.454 469.251 L596.516 469.251 L582.577 469.251 L568.639 469.251 L554.7 469.251 L540.761 469.251 L526.823 469.251 L512.884 469.251 L498.945 469.251 L485.007 469.251 L471.068 469.251 L457.13 469.251 L443.191 469.251 L429.252 469.251 L415.314 469.251 L401.375 469.251 L387.436 469.251 L373.498 469.251 L359.559 469.251 L345.621 469.251 L331.682 469.251 L317.743 469.251 L303.805 469.251 L289.866 469.251 L275.927 469.251 L261.989 469.251 L248.05 469.251 L234.112 469.251 L220.173 469.251 L206.234 469.251  Z" fill="#c271d2" fill-rule="evenodd" fill-opacity="1"/>
<polyline clip-path="url(#clip732)" style="stroke:#c271d2; stroke-linecap:round; stroke-linejoin:round; stroke-width:4; stroke-opacity:1; fill:none" points="206.234,469.251 220.173,469.251 234.112,469.251 248.05,469.251 261.989,469.251 275.927,469.251 289.866,469.251 303.805,469.251 317.743,469.251 331.682,486.416 345.621,507.872 359.559,507.872 373.498,507.872 387.436,507.872 401.375,469.251 415.314,469.251 429.252,469.251 443.191,469.251 457.13,469.251 471.068,469.251 485.007,469.251 498.945,469.251 512.884,469.251 526.823,469.251 540.761,469.251 554.7,469.251 568.639,469.251 582.577,469.251 596.516,469.251 610.454,469.251 624.393,469.251 638.332,469.251 652.27,469.251 666.209,469.251 680.148,469.251 694.086,469.251 708.025,480.49 721.963,469.251 735.902,469.251 749.841,469.251 763.779,469.251 777.718,469.251 791.657,469.251 805.595,469.251 819.534,469.251 833.472,469.251 847.411,469.251 861.35,469.251 875.288,469.251 889.227,469.251 903.166,469.251 917.104,469.251 931.043,469.251 944.981,469.251 958.92,469.251 972.859,469.251 986.797,469.251 1000.74,469.251 1014.67,469.251 1028.61,469.251 1042.55,469.251 1056.49,469.251 1070.43,469.251 1084.37,469.251 1098.31,469.251 1112.25,469.251 1126.18,469.251 1140.12,469.251 1154.06,469.251 1168,469.251 1181.94,469.251 1195.88,469.251 1209.82,469.251 1223.75,469.251 1237.69,469.251 1251.63,469.251 1265.57,469.251 1279.51,469.251 1293.45,469.251 1307.39,469.251 1321.32,469.251 1335.26,486.416 1349.2,507.872 1363.14,507.872 1377.08,507.872 1391.02,507.872 1404.96,469.251 1418.89,469.251 1432.83,469.251 1446.77,469.251 1460.71,469.251 1474.65,469.251 1488.59,469.251 1502.53,469.251 1516.47,469.251 1530.4,469.251 1544.34,469.251 1558.28,469.251 1572.22,469.251 1586.16,469.251 1600.1,469.251 1614.04,469.251 1627.97,469.251 1641.91,469.251 1655.85,469.251 1669.79,486.416 1683.73,507.872 1697.67,507.872 1711.61,507.872 1725.54,507.872 1739.48,469.251 1753.42,469.251 1767.36,469.251 1781.3,469.251 1795.24,469.251 1809.18,469.251 1823.11,469.251 1837.05,469.251 1850.99,469.251 1864.93,469.251 1878.87,469.251 1892.81,469.251 1906.75,469.251 1920.69,469.251 1934.62,469.251 1948.56,469.251 1962.5,469.251 1976.44,469.251 1990.38,469.251 2004.32,486.416 2018.26,507.872 2032.19,507.872 2046.13,507.872 2060.07,507.872 2074.01,469.251 2087.95,469.251 2101.89,469.251 2115.83,469.251 2129.76,469.251 2143.7,469.251 2157.64,469.251 2171.58,469.251 2185.52,469.251 2199.46,469.251 2213.4,469.251 2227.34,469.251 2241.27,469.251 2255.21,469.251 2269.15,469.251 2283.09,469.251 2297.03,469.251 2310.97,469.251 2324.91,469.251 2338.84,469.251 2352.78,469.251 2366.72,502.067 2380.66,470.802 2394.6,469.251 2408.54,469.251 2422.48,469.251 2436.41,469.251 2450.35,469.251 2464.29,469.251 2478.23,469.251 2492.17,469.251 2506.11,469.251 2520.05,469.251 2533.98,469.251 "/>
<path clip-path="url(#clip730)" d="M2632.2 403.747 L3152.76 403.747 L3152.76 144.547 L2632.2 144.547  Z" fill="#ffffff" fill-rule="evenodd" fill-opacity="1"/>
<polyline clip-path="url(#clip730)" style="stroke:#000000; stroke-linecap:round; stroke-linejoin:round; stroke-width:4; stroke-opacity:1; fill:none" points="2632.2,403.747 3152.76,403.747 3152.76,144.547 2632.2,144.547 2632.2,403.747 "/>
<path clip-path="url(#clip730)" d="M2664.94 217.123 L2861.38 217.123 L2861.38 175.651 L2664.94 175.651 L2664.94 217.123  Z" fill="#009af9" fill-rule="evenodd" fill-opacity="1"/>
<polyline clip-path="url(#clip730)" style="stroke:#009af9; stroke-linecap:round; stroke-linejoin:round; stroke-width:4; stroke-opacity:1; fill:none" points="2664.94,175.651 2861.38,175.651 "/>
<path clip-path="url(#clip730)" d="M2901.52 180.381 L2901.52 187.742 L2910.3 187.742 L2910.3 191.052 L2901.52 191.052 L2901.52 205.126 Q2901.52 208.297 2902.38 209.2 Q2903.26 210.103 2905.92 210.103 L2910.3 210.103 L2910.3 213.667 L2905.92 213.667 Q2900.99 213.667 2899.12 211.839 Q2897.24 209.987 2897.24 205.126 L2897.24 191.052 L2894.12 191.052 L2894.12 187.742 L2897.24 187.742 L2897.24 180.381 L2901.52 180.381 Z" fill="#000000" fill-rule="nonzero" fill-opacity="1" /><path clip-path="url(#clip730)" d="M2937.45 198.019 L2937.45 213.667 L2933.19 213.667 L2933.19 198.158 Q2933.19 194.478 2931.75 192.649 Q2930.32 190.82 2927.45 190.82 Q2924 190.82 2922.01 193.019 Q2920.02 195.218 2920.02 199.015 L2920.02 213.667 L2915.74 213.667 L2915.74 177.649 L2920.02 177.649 L2920.02 191.769 Q2921.55 189.431 2923.61 188.274 Q2925.69 187.117 2928.4 187.117 Q2932.87 187.117 2935.16 189.894 Q2937.45 192.649 2937.45 198.019 Z" fill="#000000" fill-rule="nonzero" fill-opacity="1" /><path clip-path="url(#clip730)" d="M2968.12 199.64 L2968.12 201.723 L2948.54 201.723 Q2948.81 206.121 2951.18 208.436 Q2953.56 210.728 2957.8 210.728 Q2960.25 210.728 2962.54 210.126 Q2964.86 209.524 2967.12 208.32 L2967.12 212.348 Q2964.83 213.32 2962.43 213.829 Q2960.02 214.339 2957.54 214.339 Q2951.34 214.339 2947.7 210.728 Q2944.09 207.117 2944.09 200.959 Q2944.09 194.593 2947.52 190.867 Q2950.97 187.117 2956.8 187.117 Q2962.03 187.117 2965.06 190.496 Q2968.12 193.853 2968.12 199.64 M2963.86 198.39 Q2963.81 194.894 2961.89 192.811 Q2959.99 190.728 2956.85 190.728 Q2953.28 190.728 2951.13 192.742 Q2949 194.756 2948.68 198.413 L2963.86 198.39 Z" fill="#000000" fill-rule="nonzero" fill-opacity="1" /><path clip-path="url(#clip730)" d="M2990.13 191.723 Q2989.42 191.306 2988.56 191.121 Q2987.73 190.913 2986.71 190.913 Q2983.1 190.913 2981.15 193.274 Q2979.23 195.612 2979.23 200.01 L2979.23 213.667 L2974.95 213.667 L2974.95 187.742 L2979.23 187.742 L2979.23 191.769 Q2980.57 189.408 2982.73 188.274 Q2984.88 187.117 2987.96 187.117 Q2988.4 187.117 2988.93 187.186 Q2989.46 187.232 2990.11 187.348 L2990.13 191.723 Z" fill="#000000" fill-rule="nonzero" fill-opacity="1" /><path clip-path="url(#clip730)" d="M3013.95 192.718 Q3015.55 189.848 3017.77 188.482 Q3019.99 187.117 3023 187.117 Q3027.05 187.117 3029.25 189.964 Q3031.45 192.788 3031.45 198.019 L3031.45 213.667 L3027.17 213.667 L3027.17 198.158 Q3027.17 194.431 3025.85 192.626 Q3024.53 190.82 3021.82 190.82 Q3018.51 190.82 3016.59 193.019 Q3014.67 195.218 3014.67 199.015 L3014.67 213.667 L3010.39 213.667 L3010.39 198.158 Q3010.39 194.408 3009.07 192.626 Q3007.75 190.82 3004.99 190.82 Q3001.73 190.82 2999.81 193.043 Q2997.89 195.242 2997.89 199.015 L2997.89 213.667 L2993.61 213.667 L2993.61 187.742 L2997.89 187.742 L2997.89 191.769 Q2999.35 189.385 3001.38 188.251 Q3003.42 187.117 3006.22 187.117 Q3009.05 187.117 3011.01 188.552 Q3013 189.987 3013.95 192.718 Z" fill="#000000" fill-rule="nonzero" fill-opacity="1" /><path clip-path="url(#clip730)" d="M3051.73 200.635 Q3046.57 200.635 3044.58 201.816 Q3042.59 202.996 3042.59 205.843 Q3042.59 208.112 3044.07 209.455 Q3045.57 210.774 3048.14 210.774 Q3051.68 210.774 3053.81 208.274 Q3055.97 205.751 3055.97 201.584 L3055.97 200.635 L3051.73 200.635 M3060.23 198.876 L3060.23 213.667 L3055.97 213.667 L3055.97 209.732 Q3054.51 212.093 3052.33 213.228 Q3050.16 214.339 3047.01 214.339 Q3043.03 214.339 3040.67 212.117 Q3038.33 209.871 3038.33 206.121 Q3038.33 201.746 3041.24 199.524 Q3044.18 197.302 3049.99 197.302 L3055.97 197.302 L3055.97 196.885 Q3055.97 193.945 3054.02 192.348 Q3052.1 190.728 3048.61 190.728 Q3046.38 190.728 3044.28 191.26 Q3042.17 191.793 3040.23 192.857 L3040.23 188.922 Q3042.56 188.019 3044.76 187.58 Q3046.96 187.117 3049.04 187.117 Q3054.67 187.117 3057.45 190.033 Q3060.23 192.95 3060.23 198.876 Z" fill="#000000" fill-rule="nonzero" fill-opacity="1" /><path clip-path="url(#clip730)" d="M3069 177.649 L3073.26 177.649 L3073.26 213.667 L3069 213.667 L3069 177.649 Z" fill="#000000" fill-rule="nonzero" fill-opacity="1" /><path clip-path="url(#clip730)" d="M2664.94 268.963 L2861.38 268.963 L2861.38 227.491 L2664.94 227.491 L2664.94 268.963  Z" fill="#e26f46" fill-rule="evenodd" fill-opacity="1"/>
<polyline clip-path="url(#clip730)" style="stroke:#e26f46; stroke-linecap:round; stroke-linejoin:round; stroke-width:4; stroke-opacity:1; fill:none" points="2664.94,227.491 2861.38,227.491 "/>
<path clip-path="url(#clip730)" d="M2912.54 240.346 L2912.54 244.373 Q2910.74 243.447 2908.79 242.984 Q2906.85 242.521 2904.76 242.521 Q2901.59 242.521 2899.99 243.494 Q2898.42 244.466 2898.42 246.41 Q2898.42 247.892 2899.55 248.748 Q2900.69 249.582 2904.12 250.345 L2905.57 250.67 Q2910.11 251.642 2912.01 253.424 Q2913.93 255.183 2913.93 258.355 Q2913.93 261.966 2911.06 264.072 Q2908.21 266.179 2903.21 266.179 Q2901.13 266.179 2898.86 265.762 Q2896.62 265.369 2894.12 264.558 L2894.12 260.16 Q2896.48 261.387 2898.77 262.012 Q2901.06 262.614 2903.3 262.614 Q2906.31 262.614 2907.93 261.595 Q2909.55 260.554 2909.55 258.679 Q2909.55 256.943 2908.37 256.017 Q2907.22 255.091 2903.26 254.234 L2901.78 253.887 Q2897.82 253.054 2896.06 251.341 Q2894.3 249.605 2894.3 246.596 Q2894.3 242.938 2896.89 240.947 Q2899.49 238.957 2904.25 238.957 Q2906.62 238.957 2908.7 239.304 Q2910.78 239.651 2912.54 240.346 Z" fill="#000000" fill-rule="nonzero" fill-opacity="1" /><path clip-path="url(#clip730)" d="M2930.76 242.568 Q2927.33 242.568 2925.34 245.253 Q2923.35 247.915 2923.35 252.568 Q2923.35 257.22 2925.32 259.906 Q2927.31 262.568 2930.76 262.568 Q2934.16 262.568 2936.15 259.882 Q2938.14 257.197 2938.14 252.568 Q2938.14 247.961 2936.15 245.276 Q2934.16 242.568 2930.76 242.568 M2930.76 238.957 Q2936.31 238.957 2939.49 242.568 Q2942.66 246.179 2942.66 252.568 Q2942.66 258.933 2939.49 262.568 Q2936.31 266.179 2930.76 266.179 Q2925.18 266.179 2922.01 262.568 Q2918.86 258.933 2918.86 252.568 Q2918.86 246.179 2922.01 242.568 Q2925.18 238.957 2930.76 238.957 Z" fill="#000000" fill-rule="nonzero" fill-opacity="1" /><path clip-path="url(#clip730)" d="M2949.72 229.489 L2953.98 229.489 L2953.98 265.507 L2949.72 265.507 L2949.72 229.489 Z" fill="#000000" fill-rule="nonzero" fill-opacity="1" /><path clip-path="url(#clip730)" d="M2974.67 252.475 Q2969.51 252.475 2967.52 253.656 Q2965.53 254.836 2965.53 257.683 Q2965.53 259.952 2967.01 261.295 Q2968.51 262.614 2971.08 262.614 Q2974.62 262.614 2976.75 260.114 Q2978.91 257.591 2978.91 253.424 L2978.91 252.475 L2974.67 252.475 M2983.17 250.716 L2983.17 265.507 L2978.91 265.507 L2978.91 261.572 Q2977.45 263.933 2975.27 265.068 Q2973.1 266.179 2969.95 266.179 Q2965.97 266.179 2963.61 263.957 Q2961.27 261.711 2961.27 257.961 Q2961.27 253.586 2964.18 251.364 Q2967.12 249.142 2972.93 249.142 L2978.91 249.142 L2978.91 248.725 Q2978.91 245.785 2976.96 244.188 Q2975.04 242.568 2971.55 242.568 Q2969.32 242.568 2967.22 243.1 Q2965.11 243.633 2963.17 244.697 L2963.17 240.762 Q2965.5 239.859 2967.7 239.42 Q2969.9 238.957 2971.99 238.957 Q2977.61 238.957 2980.39 241.873 Q2983.17 244.79 2983.17 250.716 Z" fill="#000000" fill-rule="nonzero" fill-opacity="1" /><path clip-path="url(#clip730)" d="M3006.96 243.563 Q3006.24 243.146 3005.39 242.961 Q3004.55 242.753 3003.54 242.753 Q2999.92 242.753 2997.98 245.114 Q2996.06 247.452 2996.06 251.85 L2996.06 265.507 L2991.78 265.507 L2991.78 239.582 L2996.06 239.582 L2996.06 243.609 Q2997.4 241.248 2999.55 240.114 Q3001.71 238.957 3004.79 238.957 Q3005.23 238.957 3005.76 239.026 Q3006.29 239.072 3006.94 239.188 L3006.96 243.563 Z" fill="#000000" fill-rule="nonzero" fill-opacity="1" /><path clip-path="url(#clip730)" d="M2664.94 320.803 L2861.38 320.803 L2861.38 279.331 L2664.94 279.331 L2664.94 320.803  Z" fill="#3da44d" fill-rule="evenodd" fill-opacity="1"/>
<polyline clip-path="url(#clip730)" style="stroke:#3da44d; stroke-linecap:round; stroke-linejoin:round; stroke-width:4; stroke-opacity:1; fill:none" points="2664.94,279.331 2861.38,279.331 "/>
<path clip-path="url(#clip730)" d="M2913.03 295.357 L2913.03 281.329 L2917.29 281.329 L2917.29 317.347 L2913.03 317.347 L2913.03 313.459 Q2911.68 315.773 2909.62 316.908 Q2907.59 318.019 2904.72 318.019 Q2900.02 318.019 2897.06 314.269 Q2894.12 310.519 2894.12 304.408 Q2894.12 298.297 2897.06 294.547 Q2900.02 290.797 2904.72 290.797 Q2907.59 290.797 2909.62 291.931 Q2911.68 293.042 2913.03 295.357 M2898.51 304.408 Q2898.51 309.107 2900.43 311.792 Q2902.38 314.454 2905.76 314.454 Q2909.14 314.454 2911.08 311.792 Q2913.03 309.107 2913.03 304.408 Q2913.03 299.709 2911.08 297.047 Q2909.14 294.361 2905.76 294.361 Q2902.38 294.361 2900.43 297.047 Q2898.51 299.709 2898.51 304.408 Z" fill="#000000" fill-rule="nonzero" fill-opacity="1" /><path clip-path="url(#clip730)" d="M2926.06 291.422 L2930.32 291.422 L2930.32 317.347 L2926.06 317.347 L2926.06 291.422 M2926.06 281.329 L2930.32 281.329 L2930.32 286.723 L2926.06 286.723 L2926.06 281.329 Z" fill="#000000" fill-rule="nonzero" fill-opacity="1" /><path clip-path="url(#clip730)" d="M2955.76 292.186 L2955.76 296.213 Q2953.95 295.287 2952.01 294.824 Q2950.06 294.361 2947.98 294.361 Q2944.81 294.361 2943.21 295.334 Q2941.64 296.306 2941.64 298.25 Q2941.64 299.732 2942.77 300.588 Q2943.91 301.422 2947.33 302.185 L2948.79 302.51 Q2953.33 303.482 2955.23 305.264 Q2957.15 307.023 2957.15 310.195 Q2957.15 313.806 2954.28 315.912 Q2951.43 318.019 2946.43 318.019 Q2944.35 318.019 2942.08 317.602 Q2939.83 317.209 2937.33 316.398 L2937.33 312 Q2939.69 313.227 2941.99 313.852 Q2944.28 314.454 2946.52 314.454 Q2949.53 314.454 2951.15 313.435 Q2952.77 312.394 2952.77 310.519 Q2952.77 308.783 2951.59 307.857 Q2950.43 306.931 2946.48 306.074 L2944.99 305.727 Q2941.04 304.894 2939.28 303.181 Q2937.52 301.445 2937.52 298.436 Q2937.52 294.778 2940.11 292.787 Q2942.7 290.797 2947.47 290.797 Q2949.83 290.797 2951.92 291.144 Q2954 291.491 2955.76 292.186 Z" fill="#000000" fill-rule="nonzero" fill-opacity="1" /><path clip-path="url(#clip730)" d="M2982.59 292.417 L2982.59 296.398 Q2980.78 295.403 2978.95 294.917 Q2977.15 294.408 2975.3 294.408 Q2971.15 294.408 2968.86 297.047 Q2966.57 299.662 2966.57 304.408 Q2966.57 309.153 2968.86 311.792 Q2971.15 314.408 2975.3 314.408 Q2977.15 314.408 2978.95 313.922 Q2980.78 313.412 2982.59 312.417 L2982.59 316.352 Q2980.8 317.185 2978.88 317.602 Q2976.99 318.019 2974.83 318.019 Q2968.98 318.019 2965.53 314.338 Q2962.08 310.658 2962.08 304.408 Q2962.08 298.065 2965.55 294.431 Q2969.05 290.797 2975.11 290.797 Q2977.08 290.797 2978.95 291.213 Q2980.83 291.607 2982.59 292.417 Z" fill="#000000" fill-rule="nonzero" fill-opacity="1" /><path clip-path="url(#clip730)" d="M3011.55 301.699 L3011.55 317.347 L3007.29 317.347 L3007.29 301.838 Q3007.29 298.158 3005.85 296.329 Q3004.42 294.5 3001.55 294.5 Q2998.1 294.5 2996.11 296.699 Q2994.11 298.898 2994.11 302.695 L2994.11 317.347 L2989.83 317.347 L2989.83 281.329 L2994.11 281.329 L2994.11 295.449 Q2995.64 293.111 2997.7 291.954 Q2999.79 290.797 3002.49 290.797 Q3006.96 290.797 3009.25 293.574 Q3011.55 296.329 3011.55 301.699 Z" fill="#000000" fill-rule="nonzero" fill-opacity="1" /><path clip-path="url(#clip730)" d="M3031.82 304.315 Q3026.66 304.315 3024.67 305.496 Q3022.68 306.676 3022.68 309.523 Q3022.68 311.792 3024.16 313.135 Q3025.67 314.454 3028.23 314.454 Q3031.78 314.454 3033.91 311.954 Q3036.06 309.431 3036.06 305.264 L3036.06 304.315 L3031.82 304.315 M3040.32 302.556 L3040.32 317.347 L3036.06 317.347 L3036.06 313.412 Q3034.6 315.773 3032.42 316.908 Q3030.25 318.019 3027.1 318.019 Q3023.12 318.019 3020.76 315.797 Q3018.42 313.551 3018.42 309.801 Q3018.42 305.426 3021.34 303.204 Q3024.28 300.982 3030.09 300.982 L3036.06 300.982 L3036.06 300.565 Q3036.06 297.625 3034.11 296.028 Q3032.19 294.408 3028.7 294.408 Q3026.48 294.408 3024.37 294.94 Q3022.26 295.473 3020.32 296.537 L3020.32 292.602 Q3022.66 291.699 3024.86 291.26 Q3027.05 290.797 3029.14 290.797 Q3034.76 290.797 3037.54 293.713 Q3040.32 296.63 3040.32 302.556 Z" fill="#000000" fill-rule="nonzero" fill-opacity="1" /><path clip-path="url(#clip730)" d="M3064.11 295.403 Q3063.4 294.986 3062.54 294.801 Q3061.71 294.593 3060.69 294.593 Q3057.08 294.593 3055.13 296.954 Q3053.21 299.292 3053.21 303.69 L3053.21 317.347 L3048.93 317.347 L3048.93 291.422 L3053.21 291.422 L3053.21 295.449 Q3054.55 293.088 3056.71 291.954 Q3058.86 290.797 3061.94 290.797 Q3062.38 290.797 3062.91 290.866 Q3063.44 290.912 3064.09 291.028 L3064.11 295.403 Z" fill="#000000" fill-rule="nonzero" fill-opacity="1" /><path clip-path="url(#clip730)" d="M3084.81 304.084 Q3084.81 299.454 3082.89 296.908 Q3080.99 294.361 3077.54 294.361 Q3074.11 294.361 3072.19 296.908 Q3070.29 299.454 3070.29 304.084 Q3070.29 308.69 3072.19 311.236 Q3074.11 313.783 3077.54 313.783 Q3080.99 313.783 3082.89 311.236 Q3084.81 308.69 3084.81 304.084 M3089.07 314.13 Q3089.07 320.75 3086.13 323.968 Q3083.19 327.209 3077.12 327.209 Q3074.88 327.209 3072.89 326.861 Q3070.9 326.537 3069.02 325.843 L3069.02 321.699 Q3070.9 322.718 3072.73 323.204 Q3074.55 323.69 3076.45 323.69 Q3080.64 323.69 3082.73 321.491 Q3084.81 319.315 3084.81 314.894 L3084.81 312.787 Q3083.49 315.079 3081.43 316.213 Q3079.37 317.347 3076.5 317.347 Q3071.73 317.347 3068.81 313.713 Q3065.9 310.079 3065.9 304.084 Q3065.9 298.065 3068.81 294.431 Q3071.73 290.797 3076.5 290.797 Q3079.37 290.797 3081.43 291.931 Q3083.49 293.065 3084.81 295.357 L3084.81 291.422 L3089.07 291.422 L3089.07 314.13 Z" fill="#000000" fill-rule="nonzero" fill-opacity="1" /><path clip-path="url(#clip730)" d="M3120.02 303.32 L3120.02 305.403 L3100.43 305.403 Q3100.71 309.801 3103.07 312.116 Q3105.46 314.408 3109.69 314.408 Q3112.15 314.408 3114.44 313.806 Q3116.75 313.204 3119.02 312 L3119.02 316.028 Q3116.73 317 3114.32 317.509 Q3111.91 318.019 3109.44 318.019 Q3103.23 318.019 3099.6 314.408 Q3095.99 310.797 3095.99 304.639 Q3095.99 298.273 3099.42 294.547 Q3102.86 290.797 3108.7 290.797 Q3113.93 290.797 3116.96 294.176 Q3120.02 297.533 3120.02 303.32 M3115.76 302.07 Q3115.71 298.574 3113.79 296.491 Q3111.89 294.408 3108.74 294.408 Q3105.18 294.408 3103.03 296.422 Q3100.9 298.436 3100.57 302.093 L3115.76 302.07 Z" fill="#000000" fill-rule="nonzero" fill-opacity="1" /><path clip-path="url(#clip730)" d="M2664.94 372.643 L2861.38 372.643 L2861.38 331.171 L2664.94 331.171 L2664.94 372.643  Z" fill="#c271d2" fill-rule="evenodd" fill-opacity="1"/>
<polyline clip-path="url(#clip730)" style="stroke:#c271d2; stroke-linecap:round; stroke-linejoin:round; stroke-width:4; stroke-opacity:1; fill:none" points="2664.94,331.171 2861.38,331.171 "/>
<path clip-path="url(#clip730)" d="M2914.62 344.257 L2914.62 348.238 Q2912.82 347.243 2910.99 346.757 Q2909.18 346.248 2907.33 346.248 Q2903.19 346.248 2900.9 348.887 Q2898.61 351.502 2898.61 356.248 Q2898.61 360.993 2900.9 363.632 Q2903.19 366.248 2907.33 366.248 Q2909.18 366.248 2910.99 365.762 Q2912.82 365.252 2914.62 364.257 L2914.62 368.192 Q2912.84 369.025 2910.92 369.442 Q2909.02 369.859 2906.87 369.859 Q2901.01 369.859 2897.56 366.178 Q2894.12 362.498 2894.12 356.248 Q2894.12 349.905 2897.59 346.271 Q2901.08 342.637 2907.15 342.637 Q2909.12 342.637 2910.99 343.053 Q2912.87 343.447 2914.62 344.257 Z" fill="#000000" fill-rule="nonzero" fill-opacity="1" /><path clip-path="url(#clip730)" d="M2943.58 353.539 L2943.58 369.187 L2939.32 369.187 L2939.32 353.678 Q2939.32 349.998 2937.89 348.169 Q2936.45 346.34 2933.58 346.34 Q2930.13 346.34 2928.14 348.539 Q2926.15 350.738 2926.15 354.535 L2926.15 369.187 L2921.87 369.187 L2921.87 333.169 L2926.15 333.169 L2926.15 347.289 Q2927.68 344.951 2929.74 343.794 Q2931.82 342.637 2934.53 342.637 Q2939 342.637 2941.29 345.414 Q2943.58 348.169 2943.58 353.539 Z" fill="#000000" fill-rule="nonzero" fill-opacity="1" /><path clip-path="url(#clip730)" d="M2963.86 356.155 Q2958.7 356.155 2956.71 357.336 Q2954.72 358.516 2954.72 361.363 Q2954.72 363.632 2956.2 364.975 Q2957.7 366.294 2960.27 366.294 Q2963.81 366.294 2965.94 363.794 Q2968.1 361.271 2968.1 357.104 L2968.1 356.155 L2963.86 356.155 M2972.36 354.396 L2972.36 369.187 L2968.1 369.187 L2968.1 365.252 Q2966.64 367.613 2964.46 368.748 Q2962.29 369.859 2959.14 369.859 Q2955.16 369.859 2952.8 367.637 Q2950.46 365.391 2950.46 361.641 Q2950.46 357.266 2953.37 355.044 Q2956.31 352.822 2962.12 352.822 L2968.1 352.822 L2968.1 352.405 Q2968.1 349.465 2966.15 347.868 Q2964.23 346.248 2960.74 346.248 Q2958.51 346.248 2956.41 346.78 Q2954.3 347.313 2952.36 348.377 L2952.36 344.442 Q2954.69 343.539 2956.89 343.1 Q2959.09 342.637 2961.18 342.637 Q2966.8 342.637 2969.58 345.553 Q2972.36 348.47 2972.36 354.396 Z" fill="#000000" fill-rule="nonzero" fill-opacity="1" /><path clip-path="url(#clip730)" d="M2996.15 347.243 Q2995.43 346.826 2994.58 346.641 Q2993.74 346.433 2992.73 346.433 Q2989.11 346.433 2987.17 348.794 Q2985.25 351.132 2985.25 355.53 L2985.25 369.187 L2980.97 369.187 L2980.97 343.262 L2985.25 343.262 L2985.25 347.289 Q2986.59 344.928 2988.74 343.794 Q2990.9 342.637 2993.98 342.637 Q2994.42 342.637 2994.95 342.706 Q2995.48 342.752 2996.13 342.868 L2996.15 347.243 Z" fill="#000000" fill-rule="nonzero" fill-opacity="1" /><path clip-path="url(#clip730)" d="M3016.85 355.924 Q3016.85 351.294 3014.92 348.748 Q3013.03 346.201 3009.58 346.201 Q3006.15 346.201 3004.23 348.748 Q3002.33 351.294 3002.33 355.924 Q3002.33 360.53 3004.23 363.076 Q3006.15 365.623 3009.58 365.623 Q3013.03 365.623 3014.92 363.076 Q3016.85 360.53 3016.85 355.924 M3021.11 365.97 Q3021.11 372.59 3018.17 375.808 Q3015.23 379.049 3009.16 379.049 Q3006.92 379.049 3004.92 378.701 Q3002.93 378.377 3001.06 377.683 L3001.06 373.539 Q3002.93 374.558 3004.76 375.044 Q3006.59 375.53 3008.49 375.53 Q3012.68 375.53 3014.76 373.331 Q3016.85 371.155 3016.85 366.734 L3016.85 364.627 Q3015.53 366.919 3013.47 368.053 Q3011.41 369.187 3008.54 369.187 Q3003.77 369.187 3000.85 365.553 Q2997.93 361.919 2997.93 355.924 Q2997.93 349.905 3000.85 346.271 Q3003.77 342.637 3008.54 342.637 Q3011.41 342.637 3013.47 343.771 Q3015.53 344.905 3016.85 347.197 L3016.85 343.262 L3021.11 343.262 L3021.11 365.97 Z" fill="#000000" fill-rule="nonzero" fill-opacity="1" /><path clip-path="url(#clip730)" d="M3052.05 355.16 L3052.05 357.243 L3032.47 357.243 Q3032.75 361.641 3035.11 363.956 Q3037.49 366.248 3041.73 366.248 Q3044.18 366.248 3046.48 365.646 Q3048.79 365.044 3051.06 363.84 L3051.06 367.868 Q3048.77 368.84 3046.36 369.349 Q3043.95 369.859 3041.48 369.859 Q3035.27 369.859 3031.64 366.248 Q3028.03 362.637 3028.03 356.479 Q3028.03 350.113 3031.45 346.387 Q3034.9 342.637 3040.73 342.637 Q3045.97 342.637 3049 346.016 Q3052.05 349.373 3052.05 355.16 M3047.79 353.91 Q3047.75 350.414 3045.83 348.331 Q3043.93 346.248 3040.78 346.248 Q3037.22 346.248 3035.06 348.262 Q3032.93 350.276 3032.61 353.933 L3047.79 353.91 Z" fill="#000000" fill-rule="nonzero" fill-opacity="1" /></svg>
