<?xml version="1.0" encoding="utf-8"?>
<svg xmlns="http://www.w3.org/2000/svg" xmlns:xlink="http://www.w3.org/1999/xlink" width="800" height="300" viewBox="0 0 3200 1200">
<defs>
  <clipPath id="clip840">
    <rect x="0" y="0" width="3200" height="1200"/>
  </clipPath>
</defs>
<path clip-path="url(#clip840)" d="M0 1200 L3200 1200 L3200 0 L0 0  Z" fill="#ffffff" fill-rule="evenodd" fill-opacity="1"/>
<defs>
  <clipPath id="clip841">
    <rect x="194" y="647" width="2959" height="459"/>
  </clipPath>
</defs>
<path clip-path="url(#clip840)" d="M194.274 505.568 L3152.76 505.568 L3152.76 47.2441 L194.274 47.2441  Z" fill="#ffffff" fill-rule="evenodd" fill-opacity="1"/>
<defs>
  <clipPath id="clip842">
    <rect x="194" y="47" width="2959" height="459"/>
  </clipPath>
</defs>
<polyline clip-path="url(#clip842)" style="stroke:#000000; stroke-linecap:round; stroke-linejoin:round; stroke-width:2; stroke-opacity:0.1; fill:none" points="278.005,505.568 278.005,47.2441 "/>
<polyline clip-path="url(#clip842)" style="stroke:#000000; stroke-linecap:round; stroke-linejoin:round; stroke-width:2; stroke-opacity:0.1; fill:none" points="1108.67,505.568 1108.67,47.2441 "/>
<polyline clip-path="url(#clip842)" style="stroke:#000000; stroke-linecap:round; stroke-linejoin:round; stroke-width:2; stroke-opacity:0.1; fill:none" points="1939.33,505.568 1939.33,47.2441 "/>
<polyline clip-path="url(#clip842)" style="stroke:#000000; stroke-linecap:round; stroke-linejoin:round; stroke-width:2; stroke-opacity:0.1; fill:none" points="2769.99,505.568 2769.99,47.2441 "/>
<polyline clip-path="url(#clip842)" style="stroke:#000000; stroke-linecap:round; stroke-linejoin:round; stroke-width:2; stroke-opacity:0.1; fill:none" points="194.274,492.596 3152.76,492.596 "/>
<polyline clip-path="url(#clip842)" style="stroke:#000000; stroke-linecap:round; stroke-linejoin:round; stroke-width:2; stroke-opacity:0.1; fill:none" points="194.274,384.501 3152.76,384.501 "/>
<polyline clip-path="url(#clip842)" style="stroke:#000000; stroke-linecap:round; stroke-linejoin:round; stroke-width:2; stroke-opacity:0.1; fill:none" points="194.274,276.406 3152.76,276.406 "/>
<polyline clip-path="url(#clip842)" style="stroke:#000000; stroke-linecap:round; stroke-linejoin:round; stroke-width:2; stroke-opacity:0.1; fill:none" points="194.274,168.311 3152.76,168.311 "/>
<polyline clip-path="url(#clip842)" style="stroke:#000000; stroke-linecap:round; stroke-linejoin:round; stroke-width:2; stroke-opacity:0.1; fill:none" points="194.274,60.2155 3152.76,60.2155 "/>
<polyline clip-path="url(#clip840)" style="stroke:#000000; stroke-linecap:round; stroke-linejoin:round; stroke-width:4; stroke-opacity:1; fill:none" points="194.274,505.568 3152.76,505.568 "/>
<polyline clip-path="url(#clip840)" style="stroke:#000000; stroke-linecap:round; stroke-linejoin:round; stroke-width:4; stroke-opacity:1; fill:none" points="278.005,505.568 278.005,486.67 "/>
<polyline clip-path="url(#clip840)" style="stroke:#000000; stroke-linecap:round; stroke-linejoin:round; stroke-width:4; stroke-opacity:1; fill:none" points="1108.67,505.568 1108.67,486.67 "/>
<polyline clip-path="url(#clip840)" style="stroke:#000000; stroke-linecap:round; stroke-linejoin:round; stroke-width:4; stroke-opacity:1; fill:none" points="1939.33,505.568 1939.33,486.67 "/>
<polyline clip-path="url(#clip840)" style="stroke:#000000; stroke-linecap:round; stroke-linejoin:round; stroke-width:4; stroke-opacity:1; fill:none" points="2769.99,505.568 2769.99,486.67 "/>
<path clip-path="url(#clip840)" d="M278.005 542.887 Q274.394 542.887 272.565 546.451 Q270.759 549.993 270.759 557.123 Q270.759 564.229 272.565 567.794 Q274.394 571.335 278.005 571.335 Q281.639 571.335 283.444 567.794 Q285.273 564.229 285.273 557.123 Q285.273 549.993 283.444 546.451 Q281.639 542.887 278.005 542.887 M278.005 539.183 Q283.815 539.183 286.87 543.789 Q289.949 548.373 289.949 557.123 Q289.949 565.849 286.87 570.456 Q283.815 575.039 278.005 575.039 Q272.194 575.039 269.116 570.456 Q266.06 565.849 266.06 557.123 Q266.06 548.373 269.116 543.789 Q272.194 539.183 278.005 539.183 Z" fill="#000000" fill-rule="nonzero" fill-opacity="1" /><path clip-path="url(#clip840)" d="M1083.36 539.808 L1101.72 539.808 L1101.72 543.743 L1087.65 543.743 L1087.65 552.215 Q1088.67 551.868 1089.68 551.706 Q1090.7 551.521 1091.72 551.521 Q1097.51 551.521 1100.89 554.692 Q1104.27 557.863 1104.27 563.28 Q1104.27 568.859 1100.8 571.96 Q1097.32 575.039 1091 575.039 Q1088.83 575.039 1086.56 574.669 Q1084.31 574.298 1081.91 573.558 L1081.91 568.859 Q1083.99 569.993 1086.21 570.548 Q1088.43 571.104 1090.91 571.104 Q1094.92 571.104 1097.25 568.998 Q1099.59 566.891 1099.59 563.28 Q1099.59 559.669 1097.25 557.562 Q1094.92 555.456 1090.91 555.456 Q1089.04 555.456 1087.16 555.873 Q1085.31 556.289 1083.36 557.169 L1083.36 539.808 Z" fill="#000000" fill-rule="nonzero" fill-opacity="1" /><path clip-path="url(#clip840)" d="M1123.48 542.887 Q1119.87 542.887 1118.04 546.451 Q1116.23 549.993 1116.23 557.123 Q1116.23 564.229 1118.04 567.794 Q1119.87 571.335 1123.48 571.335 Q1127.11 571.335 1128.92 567.794 Q1130.75 564.229 1130.75 557.123 Q1130.75 549.993 1128.92 546.451 Q1127.11 542.887 1123.48 542.887 M1123.48 539.183 Q1129.29 539.183 1132.35 543.789 Q1135.42 548.373 1135.42 557.123 Q1135.42 565.849 1132.35 570.456 Q1129.29 575.039 1123.48 575.039 Q1117.67 575.039 1114.59 570.456 Q1111.54 565.849 1111.54 557.123 Q1111.54 548.373 1114.59 543.789 Q1117.67 539.183 1123.48 539.183 Z" fill="#000000" fill-rule="nonzero" fill-opacity="1" /><path clip-path="url(#clip840)" d="M1898.93 570.433 L1906.57 570.433 L1906.57 544.067 L1898.26 545.734 L1898.26 541.475 L1906.53 539.808 L1911.2 539.808 L1911.2 570.433 L1918.84 570.433 L1918.84 574.368 L1898.93 574.368 L1898.93 570.433 Z" fill="#000000" fill-rule="nonzero" fill-opacity="1" /><path clip-path="url(#clip840)" d="M1938.28 542.887 Q1934.67 542.887 1932.84 546.451 Q1931.04 549.993 1931.04 557.123 Q1931.04 564.229 1932.84 567.794 Q1934.67 571.335 1938.28 571.335 Q1941.92 571.335 1943.72 567.794 Q1945.55 564.229 1945.55 557.123 Q1945.55 549.993 1943.72 546.451 Q1941.92 542.887 1938.28 542.887 M1938.28 539.183 Q1944.09 539.183 1947.15 543.789 Q1950.23 548.373 1950.23 557.123 Q1950.23 565.849 1947.15 570.456 Q1944.09 575.039 1938.28 575.039 Q1932.47 575.039 1929.4 570.456 Q1926.34 565.849 1926.34 557.123 Q1926.34 548.373 1929.4 543.789 Q1932.47 539.183 1938.28 539.183 Z" fill="#000000" fill-rule="nonzero" fill-opacity="1" /><path clip-path="url(#clip840)" d="M1968.45 542.887 Q1964.84 542.887 1963.01 546.451 Q1961.2 549.993 1961.2 557.123 Q1961.2 564.229 1963.01 567.794 Q1964.84 571.335 1968.45 571.335 Q1972.08 571.335 1973.89 567.794 Q1975.72 564.229 1975.72 557.123 Q1975.72 549.993 1973.89 546.451 Q1972.08 542.887 1968.45 542.887 M1968.45 539.183 Q1974.26 539.183 1977.31 543.789 Q1980.39 548.373 1980.39 557.123 Q1980.39 565.849 1977.31 570.456 Q1974.26 575.039 1968.45 575.039 Q1962.64 575.039 1959.56 570.456 Q1956.5 565.849 1956.5 557.123 Q1956.5 548.373 1959.56 543.789 Q1962.64 539.183 1968.45 539.183 Z" fill="#000000" fill-rule="nonzero" fill-opacity="1" /><path clip-path="url(#clip840)" d="M2729.59 570.433 L2737.23 570.433 L2737.23 544.067 L2728.92 545.734 L2728.92 541.475 L2737.19 539.808 L2741.86 539.808 L2741.86 570.433 L2749.5 570.433 L2749.5 574.368 L2729.59 574.368 L2729.59 570.433 Z" fill="#000000" fill-rule="nonzero" fill-opacity="1" /><path clip-path="url(#clip840)" d="M2758.99 539.808 L2777.35 539.808 L2777.35 543.743 L2763.27 543.743 L2763.27 552.215 Q2764.29 551.868 2765.31 551.706 Q2766.33 551.521 2767.35 551.521 Q2773.14 551.521 2776.52 554.692 Q2779.89 557.863 2779.89 563.28 Q2779.89 568.859 2776.42 571.96 Q2772.95 575.039 2766.63 575.039 Q2764.45 575.039 2762.19 574.669 Q2759.94 574.298 2757.53 573.558 L2757.53 568.859 Q2759.62 569.993 2761.84 570.548 Q2764.06 571.104 2766.54 571.104 Q2770.54 571.104 2772.88 568.998 Q2775.22 566.891 2775.22 563.28 Q2775.22 559.669 2772.88 557.562 Q2770.54 555.456 2766.54 555.456 Q2764.66 555.456 2762.79 555.873 Q2760.94 556.289 2758.99 557.169 L2758.99 539.808 Z" fill="#000000" fill-rule="nonzero" fill-opacity="1" /><path clip-path="url(#clip840)" d="M2799.11 542.887 Q2795.5 542.887 2793.67 546.451 Q2791.86 549.993 2791.86 557.123 Q2791.86 564.229 2793.67 567.794 Q2795.5 571.335 2799.11 571.335 Q2802.74 571.335 2804.55 567.794 Q2806.38 564.229 2806.38 557.123 Q2806.38 549.993 2804.55 546.451 Q2802.74 542.887 2799.11 542.887 M2799.11 539.183 Q2804.92 539.183 2807.97 543.789 Q2811.05 548.373 2811.05 557.123 Q2811.05 565.849 2807.97 570.456 Q2804.92 575.039 2799.11 575.039 Q2793.3 575.039 2790.22 570.456 Q2787.16 565.849 2787.16 557.123 Q2787.16 548.373 2790.22 543.789 Q2793.3 539.183 2799.11 539.183 Z" fill="#000000" fill-rule="nonzero" fill-opacity="1" /><polyline clip-path="url(#clip840)" style="stroke:#000000; stroke-linecap:round; stroke-linejoin:round; stroke-width:4; stroke-opacity:1; fill:none" points="194.274,505.568 194.274,47.2441 "/>
<polyline clip-path="url(#clip840)" style="stroke:#000000; stroke-linecap:round; stroke-linejoin:round; stroke-width:4; stroke-opacity:1; fill:none" points="194.274,492.596 213.172,492.596 "/>
<polyline clip-path="url(#clip840)" style="stroke:#000000; stroke-linecap:round; stroke-linejoin:round; stroke-width:4; stroke-opacity:1; fill:none" points="194.274,384.501 213.172,384.501 "/>
<polyline clip-path="url(#clip840)" style="stroke:#000000; stroke-linecap:round; stroke-linejoin:round; stroke-width:4; stroke-opacity:1; fill:none" points="194.274,276.406 213.172,276.406 "/>
<polyline clip-path="url(#clip840)" style="stroke:#000000; stroke-linecap:round; stroke-linejoin:round; stroke-width:4; stroke-opacity:1; fill:none" points="194.274,168.311 213.172,168.311 "/>
<polyline clip-path="url(#clip840)" style="stroke:#000000; stroke-linecap:round; stroke-linejoin:round; stroke-width:4; stroke-opacity:1; fill:none" points="194.274,60.2155 213.172,60.2155 "/>
<path clip-path="url(#clip840)" d="M58.9365 478.395 Q55.3254 478.395 53.4967 481.96 Q51.6912 485.502 51.6912 492.631 Q51.6912 499.738 53.4967 503.302 Q55.3254 506.844 58.9365 506.844 Q62.5707 506.844 64.3763 503.302 Q66.205 499.738 66.205 492.631 Q66.205 485.502 64.3763 481.96 Q62.5707 478.395 58.9365 478.395 M58.9365 474.691 Q64.7467 474.691 67.8022 479.298 Q70.8809 483.881 70.8809 492.631 Q70.8809 501.358 67.8022 505.964 Q64.7467 510.548 58.9365 510.548 Q53.1264 510.548 50.0477 505.964 Q46.9921 501.358 46.9921 492.631 Q46.9921 483.881 50.0477 479.298 Q53.1264 474.691 58.9365 474.691 Z" fill="#000000" fill-rule="nonzero" fill-opacity="1" /><path clip-path="url(#clip840)" d="M79.0984 503.997 L83.9827 503.997 L83.9827 509.876 L79.0984 509.876 L79.0984 503.997 Z" fill="#000000" fill-rule="nonzero" fill-opacity="1" /><path clip-path="url(#clip840)" d="M104.168 478.395 Q100.557 478.395 98.728 481.96 Q96.9224 485.502 96.9224 492.631 Q96.9224 499.738 98.728 503.302 Q100.557 506.844 104.168 506.844 Q107.802 506.844 109.608 503.302 Q111.436 499.738 111.436 492.631 Q111.436 485.502 109.608 481.96 Q107.802 478.395 104.168 478.395 M104.168 474.691 Q109.978 474.691 113.033 479.298 Q116.112 483.881 116.112 492.631 Q116.112 501.358 113.033 505.964 Q109.978 510.548 104.168 510.548 Q98.3576 510.548 95.2789 505.964 Q92.2234 501.358 92.2234 492.631 Q92.2234 483.881 95.2789 479.298 Q98.3576 474.691 104.168 474.691 Z" fill="#000000" fill-rule="nonzero" fill-opacity="1" /><path clip-path="url(#clip840)" d="M134.33 478.395 Q130.719 478.395 128.89 481.96 Q127.084 485.502 127.084 492.631 Q127.084 499.738 128.89 503.302 Q130.719 506.844 134.33 506.844 Q137.964 506.844 139.769 503.302 Q141.598 499.738 141.598 492.631 Q141.598 485.502 139.769 481.96 Q137.964 478.395 134.33 478.395 M134.33 474.691 Q140.14 474.691 143.195 479.298 Q146.274 483.881 146.274 492.631 Q146.274 501.358 143.195 505.964 Q140.14 510.548 134.33 510.548 Q128.519 510.548 125.441 505.964 Q122.385 501.358 122.385 492.631 Q122.385 483.881 125.441 479.298 Q128.519 474.691 134.33 474.691 Z" fill="#000000" fill-rule="nonzero" fill-opacity="1" /><path clip-path="url(#clip840)" d="M59.9319 370.3 Q56.3208 370.3 54.4921 373.865 Q52.6865 377.406 52.6865 384.536 Q52.6865 391.642 54.4921 395.207 Q56.3208 398.749 59.9319 398.749 Q63.5661 398.749 65.3717 395.207 Q67.2004 391.642 67.2004 384.536 Q67.2004 377.406 65.3717 373.865 Q63.5661 370.3 59.9319 370.3 M59.9319 366.596 Q65.742 366.596 68.7976 371.203 Q71.8763 375.786 71.8763 384.536 Q71.8763 393.263 68.7976 397.869 Q65.742 402.453 59.9319 402.453 Q54.1217 402.453 51.043 397.869 Q47.9875 393.263 47.9875 384.536 Q47.9875 375.786 51.043 371.203 Q54.1217 366.596 59.9319 366.596 Z" fill="#000000" fill-rule="nonzero" fill-opacity="1" /><path clip-path="url(#clip840)" d="M80.0938 395.902 L84.978 395.902 L84.978 401.781 L80.0938 401.781 L80.0938 395.902 Z" fill="#000000" fill-rule="nonzero" fill-opacity="1" /><path clip-path="url(#clip840)" d="M99.1909 397.846 L115.51 397.846 L115.51 401.781 L93.566 401.781 L93.566 397.846 Q96.228 395.091 100.811 390.462 Q105.418 385.809 106.598 384.466 Q108.844 381.943 109.723 380.207 Q110.626 378.448 110.626 376.758 Q110.626 374.004 108.682 372.267 Q106.76 370.531 103.658 370.531 Q101.459 370.531 99.0057 371.295 Q96.5752 372.059 93.7974 373.61 L93.7974 368.888 Q96.6215 367.754 99.0752 367.175 Q101.529 366.596 103.566 366.596 Q108.936 366.596 112.131 369.281 Q115.325 371.967 115.325 376.457 Q115.325 378.587 114.515 380.508 Q113.728 382.406 111.621 384.999 Q111.043 385.67 107.941 388.888 Q104.839 392.082 99.1909 397.846 Z" fill="#000000" fill-rule="nonzero" fill-opacity="1" /><path clip-path="url(#clip840)" d="M125.371 367.221 L143.728 367.221 L143.728 371.156 L129.654 371.156 L129.654 379.629 Q130.672 379.281 131.691 379.119 Q132.709 378.934 133.728 378.934 Q139.515 378.934 142.894 382.105 Q146.274 385.277 146.274 390.693 Q146.274 396.272 142.802 399.374 Q139.33 402.453 133.01 402.453 Q130.834 402.453 128.566 402.082 Q126.32 401.712 123.913 400.971 L123.913 396.272 Q125.996 397.406 128.219 397.962 Q130.441 398.517 132.918 398.517 Q136.922 398.517 139.26 396.411 Q141.598 394.304 141.598 390.693 Q141.598 387.082 139.26 384.976 Q136.922 382.869 132.918 382.869 Q131.043 382.869 129.168 383.286 Q127.316 383.703 125.371 384.582 L125.371 367.221 Z" fill="#000000" fill-rule="nonzero" fill-opacity="1" /><path clip-path="url(#clip840)" d="M58.9365 262.205 Q55.3254 262.205 53.4967 265.769 Q51.6912 269.311 51.6912 276.441 Q51.6912 283.547 53.4967 287.112 Q55.3254 290.654 58.9365 290.654 Q62.5707 290.654 64.3763 287.112 Q66.205 283.547 66.205 276.441 Q66.205 269.311 64.3763 265.769 Q62.5707 262.205 58.9365 262.205 M58.9365 258.501 Q64.7467 258.501 67.8022 263.107 Q70.8809 267.691 70.8809 276.441 Q70.8809 285.168 67.8022 289.774 Q64.7467 294.357 58.9365 294.357 Q53.1264 294.357 50.0477 289.774 Q46.9921 285.168 46.9921 276.441 Q46.9921 267.691 50.0477 263.107 Q53.1264 258.501 58.9365 258.501 Z" fill="#000000" fill-rule="nonzero" fill-opacity="1" /><path clip-path="url(#clip840)" d="M79.0984 287.806 L83.9827 287.806 L83.9827 293.686 L79.0984 293.686 L79.0984 287.806 Z" fill="#000000" fill-rule="nonzero" fill-opacity="1" /><path clip-path="url(#clip840)" d="M94.2141 259.126 L112.57 259.126 L112.57 263.061 L98.4965 263.061 L98.4965 271.533 Q99.515 271.186 100.534 271.024 Q101.552 270.839 102.571 270.839 Q108.358 270.839 111.737 274.01 Q115.117 277.181 115.117 282.598 Q115.117 288.177 111.645 291.279 Q108.172 294.357 101.853 294.357 Q99.677 294.357 97.4085 293.987 Q95.1632 293.617 92.7558 292.876 L92.7558 288.177 Q94.8391 289.311 97.0613 289.867 Q99.2835 290.422 101.76 290.422 Q105.765 290.422 108.103 288.316 Q110.441 286.209 110.441 282.598 Q110.441 278.987 108.103 276.881 Q105.765 274.774 101.76 274.774 Q99.8854 274.774 98.0104 275.191 Q96.1585 275.607 94.2141 276.487 L94.2141 259.126 Z" fill="#000000" fill-rule="nonzero" fill-opacity="1" /><path clip-path="url(#clip840)" d="M134.33 262.205 Q130.719 262.205 128.89 265.769 Q127.084 269.311 127.084 276.441 Q127.084 283.547 128.89 287.112 Q130.719 290.654 134.33 290.654 Q137.964 290.654 139.769 287.112 Q141.598 283.547 141.598 276.441 Q141.598 269.311 139.769 265.769 Q137.964 262.205 134.33 262.205 M134.33 258.501 Q140.14 258.501 143.195 263.107 Q146.274 267.691 146.274 276.441 Q146.274 285.168 143.195 289.774 Q140.14 294.357 134.33 294.357 Q128.519 294.357 125.441 289.774 Q122.385 285.168 122.385 276.441 Q122.385 267.691 125.441 263.107 Q128.519 258.501 134.33 258.501 Z" fill="#000000" fill-rule="nonzero" fill-opacity="1" /><path clip-path="url(#clip840)" d="M59.9319 154.109 Q56.3208 154.109 54.4921 157.674 Q52.6865 161.216 52.6865 168.345 Q52.6865 175.452 54.4921 179.017 Q56.3208 182.558 59.9319 182.558 Q63.5661 182.558 65.3717 179.017 Q67.2004 175.452 67.2004 168.345 Q67.2004 161.216 65.3717 157.674 Q63.5661 154.109 59.9319 154.109 M59.9319 150.406 Q65.742 150.406 68.7976 155.012 Q71.8763 159.596 71.8763 168.345 Q71.8763 177.072 68.7976 181.679 Q65.742 186.262 59.9319 186.262 Q54.1217 186.262 51.043 181.679 Q47.9875 177.072 47.9875 168.345 Q47.9875 159.596 51.043 155.012 Q54.1217 150.406 59.9319 150.406 Z" fill="#000000" fill-rule="nonzero" fill-opacity="1" /><path clip-path="url(#clip840)" d="M80.0938 179.711 L84.978 179.711 L84.978 185.591 L80.0938 185.591 L80.0938 179.711 Z" fill="#000000" fill-rule="nonzero" fill-opacity="1" /><path clip-path="url(#clip840)" d="M93.9826 151.031 L116.205 151.031 L116.205 153.021 L103.658 185.591 L98.7743 185.591 L110.58 154.966 L93.9826 154.966 L93.9826 151.031 Z" fill="#000000" fill-rule="nonzero" fill-opacity="1" /><path clip-path="url(#clip840)" d="M125.371 151.031 L143.728 151.031 L143.728 154.966 L129.654 154.966 L129.654 163.438 Q130.672 163.091 131.691 162.929 Q132.709 162.744 133.728 162.744 Q139.515 162.744 142.894 165.915 Q146.274 169.086 146.274 174.503 Q146.274 180.082 142.802 183.183 Q139.33 186.262 133.01 186.262 Q130.834 186.262 128.566 185.892 Q126.32 185.521 123.913 184.781 L123.913 180.082 Q125.996 181.216 128.219 181.771 Q130.441 182.327 132.918 182.327 Q136.922 182.327 139.26 180.22 Q141.598 178.114 141.598 174.503 Q141.598 170.892 139.26 168.785 Q136.922 166.679 132.918 166.679 Q131.043 166.679 129.168 167.095 Q127.316 167.512 125.371 168.392 L125.371 151.031 Z" fill="#000000" fill-rule="nonzero" fill-opacity="1" /><path clip-path="url(#clip840)" d="M49.7467 73.5604 L57.3856 73.5604 L57.3856 47.1948 L49.0754 48.8614 L49.0754 44.6022 L57.3393 42.9355 L62.0152 42.9355 L62.0152 73.5604 L69.654 73.5604 L69.654 77.4955 L49.7467 77.4955 L49.7467 73.5604 Z" fill="#000000" fill-rule="nonzero" fill-opacity="1" /><path clip-path="url(#clip840)" d="M79.0984 71.6159 L83.9827 71.6159 L83.9827 77.4955 L79.0984 77.4955 L79.0984 71.6159 Z" fill="#000000" fill-rule="nonzero" fill-opacity="1" /><path clip-path="url(#clip840)" d="M104.168 46.0142 Q100.557 46.0142 98.728 49.579 Q96.9224 53.1207 96.9224 60.2502 Q96.9224 67.3567 98.728 70.9215 Q100.557 74.4631 104.168 74.4631 Q107.802 74.4631 109.608 70.9215 Q111.436 67.3567 111.436 60.2502 Q111.436 53.1207 109.608 49.579 Q107.802 46.0142 104.168 46.0142 M104.168 42.3105 Q109.978 42.3105 113.033 46.917 Q116.112 51.5003 116.112 60.2502 Q116.112 68.977 113.033 73.5835 Q109.978 78.1668 104.168 78.1668 Q98.3576 78.1668 95.2789 73.5835 Q92.2234 68.977 92.2234 60.2502 Q92.2234 51.5003 95.2789 46.917 Q98.3576 42.3105 104.168 42.3105 Z" fill="#000000" fill-rule="nonzero" fill-opacity="1" /><path clip-path="url(#clip840)" d="M134.33 46.0142 Q130.719 46.0142 128.89 49.579 Q127.084 53.1207 127.084 60.2502 Q127.084 67.3567 128.89 70.9215 Q130.719 74.4631 134.33 74.4631 Q137.964 74.4631 139.769 70.9215 Q141.598 67.3567 141.598 60.2502 Q141.598 53.1207 139.769 49.579 Q137.964 46.0142 134.33 46.0142 M134.33 42.3105 Q140.14 42.3105 143.195 46.917 Q146.274 51.5003 146.274 60.2502 Q146.274 68.977 143.195 73.5835 Q140.14 78.1668 134.33 78.1668 Q128.519 78.1668 125.441 73.5835 Q122.385 68.977 122.385 60.2502 Q122.385 51.5003 125.441 46.917 Q128.519 42.3105 134.33 42.3105 Z" fill="#000000" fill-rule="nonzero" fill-opacity="1" /><polyline clip-path="url(#clip842)" style="stroke:#0000ff; stroke-linecap:round; stroke-linejoin:round; stroke-width:8; stroke-opacity:1; fill:none" points="294.618,269.488 311.231,279.865 327.844,291.539 344.457,301.052 361.071,305.376 377.684,310.564 394.297,320.509 410.91,318.779 427.524,314.023 444.137,298.025 460.75,279.433 477.363,257.814 493.976,250.463 510.59,255.219 527.203,262.137 543.816,261.273 560.429,243.977 577.043,211.549 593.656,206.36 610.269,213.711 626.882,228.844 643.495,237.492 660.109,238.789 676.722,258.678 693.335,277.703 709.948,291.539 726.562,298.89 743.175,300.187 759.788,293.701 776.401,282.459 793.014,265.164 809.628,237.492 826.241,211.116 842.854,189.497 859.467,174.796 876.08,163.122 892.694,160.528 909.307,167.878 925.92,176.094 942.533,179.12 959.147,167.446 975.76,143.665 992.373,143.665 1008.99,157.501 1025.6,184.309 1042.21,200.307 1058.83,208.09 1075.44,231.438 1092.05,256.084 1108.67,272.515 1125.28,282.892 1141.89,286.351 1158.51,284.189 1175.12,282.892 1191.73,280.297 1208.34,262.137 1224.96,237.924 1241.57,213.278 1258.18,195.118 1274.8,181.282 1291.41,179.553 1308.02,186.038 1324.64,192.092 1341.25,192.092 1357.86,179.12 1374.48,158.366 1391.09,157.934 1407.7,173.067 1424.32,198.577 1440.93,215.44 1457.54,221.061 1474.16,241.383 1490.77,264.299 1507.38,280.297 1524,289.377 1540.61,294.134 1557.22,293.269 1573.84,295.863 1590.45,301.916 1607.06,291.539 1623.68,275.109 1640.29,252.193 1656.9,231.871 1673.51,208.955 1690.13,207.657 1706.74,219.332 1723.35,230.141 1739.97,232.736 1756.58,218.467 1773.19,184.309 1789.81,176.526 1806.42,186.038 1823.03,203.766 1839.65,215.008 1856.26,216.305 1872.87,237.924 1889.49,259.111 1906.1,273.379 1922.71,279 1939.33,278.136 1955.94,269.056 1972.55,246.572 1989.17,206.36 2005.78,162.69 2022.39,138.044 2039.01,130.261 2055.62,121.181 2072.23,113.398 2088.85,113.398 2105.46,119.884 2122.07,126.37 2138.69,129.829 2155.3,121.181 2171.91,94.806 2188.52,94.806 2205.14,107.777 2221.75,138.044 2238.36,158.798 2254.98,172.202 2271.59,202.901 2288.2,225.385 2304.82,241.816 2321.43,249.166 2338.04,248.734 2354.66,243.113 2371.27,230.574 2387.88,201.172 2404.5,165.284 2421.11,147.989 2437.72,139.341 2454.34,128.532 2470.95,119.452 2487.56,120.749 2504.18,130.261 2520.79,140.206 2537.4,142.8 2554.02,130.261 2570.63,100.427 2587.24,100.427 2603.86,111.236 2620.47,137.612 2637.08,158.798 2653.69,173.067 2670.31,200.739 2686.92,225.385 2703.53,242.248 2720.15,246.572 2736.76,243.977 2753.37,236.627 2769.99,212.414 2786.6,155.772 2803.21,106.48 2819.83,85.726 2836.44,84.4289 2853.05,77.9431 2869.67,71.8898 2886.28,74.4841 2902.89,79.2403 2919.51,87.4555 2936.12,91.7793 2952.73,86.1584 2969.35,60.2155 2985.96,63.6746 3002.57,78.3755 3019.19,108.21 3035.8,132.423 3052.41,150.151 3069.03,184.309 "/>
<polyline clip-path="url(#clip842)" style="stroke:#ff0000; stroke-linecap:round; stroke-linejoin:round; stroke-width:8; stroke-opacity:1; fill:none" points="294.618,492.596 311.231,492.596 327.844,492.596 344.457,492.596 361.071,492.596 377.684,492.596 394.297,492.596 410.91,492.596 427.524,400.689 444.137,229.408 460.75,127.057 477.363,62.3043 493.976,60.2155 510.59,162.567 527.203,358.913 543.816,488.419 560.429,492.596 577.043,492.596 593.656,492.596 610.269,492.596 626.882,492.596 643.495,492.596 660.109,492.596 676.722,492.596 693.335,492.596 709.948,492.596 726.562,492.596 743.175,492.596 759.788,492.596 776.401,492.596 793.014,492.596 809.628,492.596 826.241,450.821 842.854,381.89 859.467,323.404 876.08,285.806 892.694,262.829 909.307,304.605 925.92,404.867 942.533,486.33 959.147,492.596 975.76,492.596 992.373,492.596 1008.99,492.596 1025.6,492.596 1042.21,492.596 1058.83,492.596 1075.44,492.596 1092.05,492.596 1108.67,492.596 1125.28,492.596 1141.89,492.596 1158.51,492.596 1175.12,492.596 1191.73,492.596 1208.34,492.596 1224.96,452.909 1241.57,377.713 1258.18,333.848 1274.8,319.226 1291.41,342.203 1308.02,383.979 1324.64,444.554 1341.25,488.419 1357.86,492.596 1374.48,492.596 1391.09,492.596 1407.7,492.596 1424.32,492.596 1440.93,492.596 1457.54,492.596 1474.16,492.596 1490.77,492.596 1507.38,492.596 1524,492.596 1540.61,492.596 1557.22,492.596 1573.84,492.596 1590.45,492.596 1607.06,490.508 1623.68,381.89 1640.29,189.721 1656.9,108.258 1673.51,89.4587 1690.13,152.123 1706.74,254.474 1723.35,373.535 1739.97,484.241 1756.58,492.596 1773.19,492.596 1789.81,492.596 1806.42,492.596 1823.03,492.596 1839.65,492.596 1856.26,492.596 1872.87,492.596 1889.49,492.596 1906.1,492.596 1922.71,492.596 1939.33,492.596 1955.94,492.596 1972.55,492.596 1989.17,492.596 2005.78,488.419 2022.39,365.18 2039.01,221.053 2055.62,156.3 2072.23,106.169 2088.85,114.524 2105.46,170.922 2122.07,300.427 2138.69,467.531 2155.3,492.596 2171.91,492.596 2188.52,492.596 2205.14,492.596 2221.75,492.596 2238.36,492.596 2254.98,492.596 2271.59,492.596 2288.2,492.596 2304.82,492.596 2321.43,492.596 2338.04,492.596 2354.66,492.596 2371.27,492.596 2387.88,492.596 2404.5,488.419 2421.11,381.89 2437.72,239.852 2454.34,137.501 2470.95,85.2811 2487.56,110.347 2504.18,206.431 2520.79,350.558 2537.4,480.064 2554.02,492.596 2570.63,492.596 2587.24,492.596 2603.86,492.596 2620.47,492.596 2637.08,492.596 2653.69,492.596 2670.31,492.596 2686.92,492.596 2703.53,492.596 2720.15,492.596 2736.76,492.596 2753.37,492.596 2769.99,492.596 2786.6,492.596 2803.21,490.508 2819.83,425.755 2836.44,304.605 2853.05,237.763 2869.67,187.632 2886.28,212.698 2902.89,262.829 2919.51,377.713 2936.12,480.064 2952.73,492.596 2969.35,492.596 2985.96,492.596 3002.57,492.596 3019.19,492.596 3035.8,492.596 3052.41,492.596 3069.03,492.596 "/>
<path clip-path="url(#clip842)" d="M278.005 963.892 L278.005 -411.08 L1075.44 -411.08 L1075.44 963.892 L278.005 963.892  Z" fill="#008000" fill-rule="evenodd" fill-opacity="0.25"/>
<polyline clip-path="url(#clip842)" style="stroke:#000000; stroke-linecap:round; stroke-linejoin:round; stroke-width:0; stroke-opacity:0.25; fill:none" points="278.005,963.892 278.005,-411.08 1075.44,-411.08 1075.44,963.892 278.005,963.892 "/>
<path clip-path="url(#clip840)" d="M2273.2 490.29 L3054.14 490.29 L3054.14 282.93 L2273.2 282.93  Z" fill="#ffffff" fill-rule="evenodd" fill-opacity="1"/>
<polyline clip-path="url(#clip840)" style="stroke:#000000; stroke-linecap:round; stroke-linejoin:round; stroke-width:4; stroke-opacity:1; fill:none" points="2273.2,490.29 3054.14,490.29 3054.14,282.93 2273.2,282.93 2273.2,490.29 "/>
<polyline clip-path="url(#clip840)" style="stroke:#0000ff; stroke-linecap:round; stroke-linejoin:round; stroke-width:8; stroke-opacity:1; fill:none" points="2306.07,334.77 2503.31,334.77 "/>
<path clip-path="url(#clip840)" d="M2555.09 330.06 L2555.09 316.032 L2559.35 316.032 L2559.35 352.05 L2555.09 352.05 L2555.09 348.162 Q2553.75 350.476 2551.69 351.611 Q2549.65 352.722 2546.78 352.722 Q2542.08 352.722 2539.12 348.972 Q2536.18 345.222 2536.18 339.111 Q2536.18 333 2539.12 329.25 Q2542.08 325.5 2546.78 325.5 Q2549.65 325.5 2551.69 326.634 Q2553.75 327.745 2555.09 330.06 M2540.58 339.111 Q2540.58 343.81 2542.5 346.495 Q2544.44 349.157 2547.82 349.157 Q2551.2 349.157 2553.15 346.495 Q2555.09 343.81 2555.09 339.111 Q2555.09 334.412 2553.15 331.75 Q2551.2 329.064 2547.82 329.064 Q2544.44 329.064 2542.5 331.75 Q2540.58 334.412 2540.58 339.111 Z" fill="#000000" fill-rule="nonzero" fill-opacity="1" /><path clip-path="url(#clip840)" d="M2590.3 338.023 L2590.3 340.106 L2570.71 340.106 Q2570.99 344.504 2573.35 346.819 Q2575.74 349.111 2579.97 349.111 Q2582.43 349.111 2584.72 348.509 Q2587.03 347.907 2589.3 346.703 L2589.3 350.731 Q2587.01 351.703 2584.6 352.212 Q2582.2 352.722 2579.72 352.722 Q2573.52 352.722 2569.88 349.111 Q2566.27 345.5 2566.27 339.342 Q2566.27 332.976 2569.7 329.25 Q2573.15 325.5 2578.98 325.5 Q2584.21 325.5 2587.24 328.879 Q2590.3 332.236 2590.3 338.023 M2586.04 336.773 Q2585.99 333.277 2584.07 331.194 Q2582.17 329.111 2579.02 329.111 Q2575.46 329.111 2573.31 331.125 Q2571.18 333.138 2570.85 336.796 L2586.04 336.773 Z" fill="#000000" fill-rule="nonzero" fill-opacity="1" /><path clip-path="url(#clip840)" d="M2617.47 331.101 Q2619.07 328.231 2621.29 326.865 Q2623.52 325.5 2626.52 325.5 Q2630.58 325.5 2632.77 328.347 Q2634.97 331.171 2634.97 336.402 L2634.97 352.05 L2630.69 352.05 L2630.69 336.541 Q2630.69 332.814 2629.37 331.009 Q2628.05 329.203 2625.34 329.203 Q2622.03 329.203 2620.11 331.402 Q2618.19 333.601 2618.19 337.398 L2618.19 352.05 L2613.91 352.05 L2613.91 336.541 Q2613.91 332.791 2612.59 331.009 Q2611.27 329.203 2608.52 329.203 Q2605.25 329.203 2603.33 331.426 Q2601.41 333.625 2601.41 337.398 L2601.41 352.05 L2597.13 352.05 L2597.13 326.125 L2601.41 326.125 L2601.41 330.152 Q2602.87 327.768 2604.9 326.634 Q2606.94 325.5 2609.74 325.5 Q2612.57 325.5 2614.53 326.935 Q2616.52 328.37 2617.47 331.101 Z" fill="#000000" fill-rule="nonzero" fill-opacity="1" /><path clip-path="url(#clip840)" d="M2655.25 339.018 Q2650.09 339.018 2648.1 340.199 Q2646.11 341.379 2646.11 344.226 Q2646.11 346.495 2647.59 347.837 Q2649.09 349.157 2651.66 349.157 Q2655.2 349.157 2657.33 346.657 Q2659.49 344.134 2659.49 339.967 L2659.49 339.018 L2655.25 339.018 M2663.75 337.259 L2663.75 352.05 L2659.49 352.05 L2659.49 348.115 Q2658.03 350.476 2655.85 351.611 Q2653.68 352.722 2650.53 352.722 Q2646.55 352.722 2644.19 350.499 Q2641.85 348.254 2641.85 344.504 Q2641.85 340.129 2644.77 337.907 Q2647.71 335.685 2653.52 335.685 L2659.49 335.685 L2659.49 335.268 Q2659.49 332.328 2657.54 330.731 Q2655.62 329.111 2652.13 329.111 Q2649.9 329.111 2647.8 329.643 Q2645.69 330.176 2643.75 331.24 L2643.75 327.305 Q2646.08 326.402 2648.28 325.963 Q2650.48 325.5 2652.57 325.5 Q2658.19 325.5 2660.97 328.416 Q2663.75 331.333 2663.75 337.259 Z" fill="#000000" fill-rule="nonzero" fill-opacity="1" /><path clip-path="url(#clip840)" d="M2694.07 336.402 L2694.07 352.05 L2689.81 352.05 L2689.81 336.541 Q2689.81 332.861 2688.38 331.032 Q2686.94 329.203 2684.07 329.203 Q2680.62 329.203 2678.63 331.402 Q2676.64 333.601 2676.64 337.398 L2676.64 352.05 L2672.36 352.05 L2672.36 326.125 L2676.64 326.125 L2676.64 330.152 Q2678.17 327.814 2680.23 326.657 Q2682.31 325.5 2685.02 325.5 Q2689.49 325.5 2691.78 328.277 Q2694.07 331.032 2694.07 336.402 Z" fill="#000000" fill-rule="nonzero" fill-opacity="1" /><path clip-path="url(#clip840)" d="M2719.63 330.06 L2719.63 316.032 L2723.89 316.032 L2723.89 352.05 L2719.63 352.05 L2719.63 348.162 Q2718.28 350.476 2716.22 351.611 Q2714.19 352.722 2711.32 352.722 Q2706.62 352.722 2703.65 348.972 Q2700.71 345.222 2700.71 339.111 Q2700.71 333 2703.65 329.25 Q2706.62 325.5 2711.32 325.5 Q2714.19 325.5 2716.22 326.634 Q2718.28 327.745 2719.63 330.06 M2705.11 339.111 Q2705.11 343.81 2707.03 346.495 Q2708.98 349.157 2712.36 349.157 Q2715.74 349.157 2717.68 346.495 Q2719.63 343.81 2719.63 339.111 Q2719.63 334.412 2717.68 331.75 Q2715.74 329.064 2712.36 329.064 Q2708.98 329.064 2707.03 331.75 Q2705.11 334.412 2705.11 339.111 Z" fill="#000000" fill-rule="nonzero" fill-opacity="1" /><polyline clip-path="url(#clip840)" style="stroke:#ff0000; stroke-linecap:round; stroke-linejoin:round; stroke-width:8; stroke-opacity:1; fill:none" points="2306.07,386.61 2503.31,386.61 "/>
<path clip-path="url(#clip840)" d="M2554.6 378.729 L2554.6 382.756 Q2552.8 381.83 2550.85 381.367 Q2548.91 380.904 2546.83 380.904 Q2543.65 380.904 2542.06 381.877 Q2540.48 382.849 2540.48 384.793 Q2540.48 386.275 2541.62 387.131 Q2542.75 387.965 2546.18 388.728 L2547.64 389.053 Q2552.17 390.025 2554.07 391.807 Q2555.99 393.566 2555.99 396.738 Q2555.99 400.349 2553.12 402.455 Q2550.27 404.562 2545.28 404.562 Q2543.19 404.562 2540.92 404.145 Q2538.68 403.752 2536.18 402.941 L2536.18 398.543 Q2538.54 399.77 2540.83 400.395 Q2543.12 400.997 2545.37 400.997 Q2548.38 400.997 2550 399.978 Q2551.62 398.937 2551.62 397.062 Q2551.62 395.326 2550.44 394.4 Q2549.28 393.474 2545.32 392.617 L2543.84 392.27 Q2539.88 391.437 2538.12 389.724 Q2536.36 387.988 2536.36 384.978 Q2536.36 381.321 2538.96 379.33 Q2541.55 377.34 2546.32 377.34 Q2548.68 377.34 2550.76 377.687 Q2552.84 378.034 2554.6 378.729 Z" fill="#000000" fill-rule="nonzero" fill-opacity="1" /><path clip-path="url(#clip840)" d="M2572.82 380.951 Q2569.4 380.951 2567.4 383.636 Q2565.41 386.298 2565.41 390.951 Q2565.41 395.603 2567.38 398.289 Q2569.37 400.951 2572.82 400.951 Q2576.22 400.951 2578.21 398.265 Q2580.21 395.58 2580.21 390.951 Q2580.21 386.344 2578.21 383.659 Q2576.22 380.951 2572.82 380.951 M2572.82 377.34 Q2578.38 377.34 2581.55 380.951 Q2584.72 384.562 2584.72 390.951 Q2584.72 397.316 2581.55 400.951 Q2578.38 404.562 2572.82 404.562 Q2567.24 404.562 2564.07 400.951 Q2560.92 397.316 2560.92 390.951 Q2560.92 384.562 2564.07 380.951 Q2567.24 377.34 2572.82 377.34 Z" fill="#000000" fill-rule="nonzero" fill-opacity="1" /><path clip-path="url(#clip840)" d="M2591.78 367.872 L2596.04 367.872 L2596.04 403.89 L2591.78 403.89 L2591.78 367.872 Z" fill="#000000" fill-rule="nonzero" fill-opacity="1" /><path clip-path="url(#clip840)" d="M2616.73 390.858 Q2611.57 390.858 2609.58 392.039 Q2607.59 393.219 2607.59 396.066 Q2607.59 398.335 2609.07 399.677 Q2610.58 400.997 2613.15 400.997 Q2616.69 400.997 2618.82 398.497 Q2620.97 395.974 2620.97 391.807 L2620.97 390.858 L2616.73 390.858 M2625.23 389.099 L2625.23 403.89 L2620.97 403.89 L2620.97 399.955 Q2619.51 402.316 2617.33 403.451 Q2615.16 404.562 2612.01 404.562 Q2608.03 404.562 2605.67 402.339 Q2603.33 400.094 2603.33 396.344 Q2603.33 391.969 2606.25 389.747 Q2609.19 387.525 2615 387.525 L2620.97 387.525 L2620.97 387.108 Q2620.97 384.168 2619.02 382.571 Q2617.1 380.951 2613.61 380.951 Q2611.39 380.951 2609.28 381.483 Q2607.17 382.016 2605.23 383.08 L2605.23 379.145 Q2607.57 378.242 2609.77 377.803 Q2611.96 377.34 2614.05 377.34 Q2619.67 377.34 2622.45 380.256 Q2625.23 383.173 2625.23 389.099 Z" fill="#000000" fill-rule="nonzero" fill-opacity="1" /><path clip-path="url(#clip840)" d="M2649.02 381.946 Q2648.31 381.529 2647.45 381.344 Q2646.62 381.136 2645.6 381.136 Q2641.99 381.136 2640.04 383.497 Q2638.12 385.835 2638.12 390.233 L2638.12 403.89 L2633.84 403.89 L2633.84 377.965 L2638.12 377.965 L2638.12 381.992 Q2639.46 379.631 2641.62 378.497 Q2643.77 377.34 2646.85 377.34 Q2647.29 377.34 2647.82 377.409 Q2648.35 377.455 2649 377.571 L2649.02 381.946 Z" fill="#000000" fill-rule="nonzero" fill-opacity="1" /><path clip-path="url(#clip840)" d="M2306.07 459.186 L2503.31 459.186 L2503.31 417.714 L2306.07 417.714 L2306.07 459.186  Z" fill="#008000" fill-rule="evenodd" fill-opacity="0.25"/>
<polyline clip-path="url(#clip840)" style="stroke:#000000; stroke-linecap:round; stroke-linejoin:round; stroke-width:0.8; stroke-opacity:1; fill:none" points="2306.07,459.186 2503.31,459.186 2503.31,417.714 2306.07,417.714 2306.07,459.186 "/>
<path clip-path="url(#clip840)" d="M2548.08 432.791 Q2544.65 432.791 2542.66 435.476 Q2540.67 438.138 2540.67 442.791 Q2540.67 447.443 2542.64 450.129 Q2544.63 452.791 2548.08 452.791 Q2551.48 452.791 2553.47 450.105 Q2555.46 447.42 2555.46 442.791 Q2555.46 438.184 2553.47 435.499 Q2551.48 432.791 2548.08 432.791 M2548.08 429.18 Q2553.63 429.18 2556.8 432.791 Q2559.97 436.402 2559.97 442.791 Q2559.97 449.156 2556.8 452.791 Q2553.63 456.402 2548.08 456.402 Q2542.5 456.402 2539.33 452.791 Q2536.18 449.156 2536.18 442.791 Q2536.18 436.402 2539.33 432.791 Q2542.5 429.18 2548.08 429.18 Z" fill="#000000" fill-rule="nonzero" fill-opacity="1" /><path clip-path="url(#clip840)" d="M2571.15 451.842 L2571.15 465.591 L2566.87 465.591 L2566.87 429.805 L2571.15 429.805 L2571.15 433.74 Q2572.5 431.425 2574.53 430.314 Q2576.59 429.18 2579.44 429.18 Q2584.16 429.18 2587.1 432.93 Q2590.07 436.68 2590.07 442.791 Q2590.07 448.902 2587.1 452.652 Q2584.16 456.402 2579.44 456.402 Q2576.59 456.402 2574.53 455.291 Q2572.5 454.156 2571.15 451.842 M2585.65 442.791 Q2585.65 438.092 2583.7 435.43 Q2581.78 432.744 2578.4 432.744 Q2575.02 432.744 2573.08 435.43 Q2571.15 438.092 2571.15 442.791 Q2571.15 447.49 2573.08 450.175 Q2575.02 452.837 2578.4 452.837 Q2581.78 452.837 2583.7 450.175 Q2585.65 447.49 2585.65 442.791 Z" fill="#000000" fill-rule="nonzero" fill-opacity="1" /><path clip-path="url(#clip840)" d="M2601.34 422.444 L2601.34 429.805 L2610.11 429.805 L2610.11 433.115 L2601.34 433.115 L2601.34 447.189 Q2601.34 450.36 2602.2 451.263 Q2603.08 452.166 2605.74 452.166 L2610.11 452.166 L2610.11 455.73 L2605.74 455.73 Q2600.81 455.73 2598.93 453.902 Q2597.06 452.05 2597.06 447.189 L2597.06 433.115 L2593.93 433.115 L2593.93 429.805 L2597.06 429.805 L2597.06 422.444 L2601.34 422.444 Z" fill="#000000" fill-rule="nonzero" fill-opacity="1" /><path clip-path="url(#clip840)" d="M2615.71 429.805 L2619.97 429.805 L2619.97 455.73 L2615.71 455.73 L2615.71 429.805 M2615.71 419.712 L2619.97 419.712 L2619.97 425.106 L2615.71 425.106 L2615.71 419.712 Z" fill="#000000" fill-rule="nonzero" fill-opacity="1" /><path clip-path="url(#clip840)" d="M2649.07 434.781 Q2650.67 431.911 2652.89 430.545 Q2655.11 429.18 2658.12 429.18 Q2662.17 429.18 2664.37 432.027 Q2666.57 434.851 2666.57 440.082 L2666.57 455.73 L2662.29 455.73 L2662.29 440.221 Q2662.29 436.494 2660.97 434.689 Q2659.65 432.883 2656.94 432.883 Q2653.63 432.883 2651.71 435.082 Q2649.79 437.281 2649.79 441.078 L2649.79 455.73 L2645.51 455.73 L2645.51 440.221 Q2645.51 436.471 2644.19 434.689 Q2642.87 432.883 2640.11 432.883 Q2636.85 432.883 2634.93 435.106 Q2633.01 437.305 2633.01 441.078 L2633.01 455.73 L2628.72 455.73 L2628.72 429.805 L2633.01 429.805 L2633.01 433.832 Q2634.46 431.448 2636.5 430.314 Q2638.54 429.18 2641.34 429.18 Q2644.16 429.18 2646.13 430.615 Q2648.12 432.05 2649.07 434.781 Z" fill="#000000" fill-rule="nonzero" fill-opacity="1" /><path clip-path="url(#clip840)" d="M2675.07 429.805 L2679.33 429.805 L2679.33 455.73 L2675.07 455.73 L2675.07 429.805 M2675.07 419.712 L2679.33 419.712 L2679.33 425.106 L2675.07 425.106 L2675.07 419.712 Z" fill="#000000" fill-rule="nonzero" fill-opacity="1" /><path clip-path="url(#clip840)" d="M2704.76 430.569 L2704.76 434.596 Q2702.96 433.67 2701.01 433.207 Q2699.07 432.744 2696.99 432.744 Q2693.82 432.744 2692.22 433.717 Q2690.64 434.689 2690.64 436.633 Q2690.64 438.115 2691.78 438.971 Q2692.91 439.805 2696.34 440.568 L2697.8 440.893 Q2702.33 441.865 2704.23 443.647 Q2706.15 445.406 2706.15 448.578 Q2706.15 452.189 2703.28 454.295 Q2700.44 456.402 2695.44 456.402 Q2693.35 456.402 2691.08 455.985 Q2688.84 455.592 2686.34 454.781 L2686.34 450.383 Q2688.7 451.61 2690.99 452.235 Q2693.28 452.837 2695.53 452.837 Q2698.54 452.837 2700.16 451.818 Q2701.78 450.777 2701.78 448.902 Q2701.78 447.166 2700.6 446.24 Q2699.44 445.314 2695.48 444.457 L2694 444.11 Q2690.04 443.277 2688.28 441.564 Q2686.52 439.828 2686.52 436.818 Q2686.52 433.161 2689.12 431.17 Q2691.71 429.18 2696.48 429.18 Q2698.84 429.18 2700.92 429.527 Q2703.01 429.874 2704.76 430.569 Z" fill="#000000" fill-rule="nonzero" fill-opacity="1" /><path clip-path="url(#clip840)" d="M2724.72 442.698 Q2719.56 442.698 2717.57 443.879 Q2715.58 445.059 2715.58 447.906 Q2715.58 450.175 2717.06 451.517 Q2718.56 452.837 2721.13 452.837 Q2724.67 452.837 2726.8 450.337 Q2728.95 447.814 2728.95 443.647 L2728.95 442.698 L2724.72 442.698 M2733.21 440.939 L2733.21 455.73 L2728.95 455.73 L2728.95 451.795 Q2727.5 454.156 2725.32 455.291 Q2723.14 456.402 2720 456.402 Q2716.01 456.402 2713.65 454.179 Q2711.32 451.934 2711.32 448.184 Q2711.32 443.809 2714.23 441.587 Q2717.17 439.365 2722.98 439.365 L2728.95 439.365 L2728.95 438.948 Q2728.95 436.008 2727.01 434.411 Q2725.09 432.791 2721.59 432.791 Q2719.37 432.791 2717.26 433.323 Q2715.16 433.856 2713.21 434.92 L2713.21 430.985 Q2715.55 430.082 2717.75 429.643 Q2719.95 429.18 2722.03 429.18 Q2727.66 429.18 2730.44 432.096 Q2733.21 435.013 2733.21 440.939 Z" fill="#000000" fill-rule="nonzero" fill-opacity="1" /><path clip-path="url(#clip840)" d="M2746.2 422.444 L2746.2 429.805 L2754.97 429.805 L2754.97 433.115 L2746.2 433.115 L2746.2 447.189 Q2746.2 450.36 2747.06 451.263 Q2747.94 452.166 2750.6 452.166 L2754.97 452.166 L2754.97 455.73 L2750.6 455.73 Q2745.67 455.73 2743.79 453.902 Q2741.92 452.05 2741.92 447.189 L2741.92 433.115 L2738.79 433.115 L2738.79 429.805 L2741.92 429.805 L2741.92 422.444 L2746.2 422.444 Z" fill="#000000" fill-rule="nonzero" fill-opacity="1" /><path clip-path="url(#clip840)" d="M2760.57 429.805 L2764.83 429.805 L2764.83 455.73 L2760.57 455.73 L2760.57 429.805 M2760.57 419.712 L2764.83 419.712 L2764.83 425.106 L2760.57 425.106 L2760.57 419.712 Z" fill="#000000" fill-rule="nonzero" fill-opacity="1" /><path clip-path="url(#clip840)" d="M2783.79 432.791 Q2780.37 432.791 2778.38 435.476 Q2776.38 438.138 2776.38 442.791 Q2776.38 447.443 2778.35 450.129 Q2780.34 452.791 2783.79 452.791 Q2787.2 452.791 2789.19 450.105 Q2791.18 447.42 2791.18 442.791 Q2791.18 438.184 2789.19 435.499 Q2787.2 432.791 2783.79 432.791 M2783.79 429.18 Q2789.35 429.18 2792.52 432.791 Q2795.69 436.402 2795.69 442.791 Q2795.69 449.156 2792.52 452.791 Q2789.35 456.402 2783.79 456.402 Q2778.21 456.402 2775.04 452.791 Q2771.89 449.156 2771.89 442.791 Q2771.89 436.402 2775.04 432.791 Q2778.21 429.18 2783.79 429.18 Z" fill="#000000" fill-rule="nonzero" fill-opacity="1" /><path clip-path="url(#clip840)" d="M2824.3 440.082 L2824.3 455.73 L2820.04 455.73 L2820.04 440.221 Q2820.04 436.541 2818.61 434.712 Q2817.17 432.883 2814.3 432.883 Q2810.85 432.883 2808.86 435.082 Q2806.87 437.281 2806.87 441.078 L2806.87 455.73 L2802.59 455.73 L2802.59 429.805 L2806.87 429.805 L2806.87 433.832 Q2808.4 431.494 2810.46 430.337 Q2812.54 429.18 2815.25 429.18 Q2819.72 429.18 2822.01 431.957 Q2824.3 434.712 2824.3 440.082 Z" fill="#000000" fill-rule="nonzero" fill-opacity="1" /><path clip-path="url(#clip840)" d="M2845.39 429.805 L2849.65 429.805 L2854.97 450.036 L2860.27 429.805 L2865.3 429.805 L2870.62 450.036 L2875.92 429.805 L2880.18 429.805 L2873.4 455.73 L2868.38 455.73 L2862.8 434.481 L2857.19 455.73 L2852.17 455.73 L2845.39 429.805 Z" fill="#000000" fill-rule="nonzero" fill-opacity="1" /><path clip-path="url(#clip840)" d="M2886.64 429.805 L2890.9 429.805 L2890.9 455.73 L2886.64 455.73 L2886.64 429.805 M2886.64 419.712 L2890.9 419.712 L2890.9 425.106 L2886.64 425.106 L2886.64 419.712 Z" fill="#000000" fill-rule="nonzero" fill-opacity="1" /><path clip-path="url(#clip840)" d="M2921.36 440.082 L2921.36 455.73 L2917.1 455.73 L2917.1 440.221 Q2917.1 436.541 2915.67 434.712 Q2914.23 432.883 2911.36 432.883 Q2907.91 432.883 2905.92 435.082 Q2903.93 437.281 2903.93 441.078 L2903.93 455.73 L2899.65 455.73 L2899.65 429.805 L2903.93 429.805 L2903.93 433.832 Q2905.46 431.494 2907.52 430.337 Q2909.6 429.18 2912.31 429.18 Q2916.78 429.18 2919.07 431.957 Q2921.36 434.712 2921.36 440.082 Z" fill="#000000" fill-rule="nonzero" fill-opacity="1" /><path clip-path="url(#clip840)" d="M2946.92 433.74 L2946.92 419.712 L2951.18 419.712 L2951.18 455.73 L2946.92 455.73 L2946.92 451.842 Q2945.57 454.156 2943.51 455.291 Q2941.48 456.402 2938.61 456.402 Q2933.91 456.402 2930.94 452.652 Q2928 448.902 2928 442.791 Q2928 436.68 2930.94 432.93 Q2933.91 429.18 2938.61 429.18 Q2941.48 429.18 2943.51 430.314 Q2945.57 431.425 2946.92 433.74 M2932.4 442.791 Q2932.4 447.49 2934.32 450.175 Q2936.27 452.837 2939.65 452.837 Q2943.03 452.837 2944.97 450.175 Q2946.92 447.49 2946.92 442.791 Q2946.92 438.092 2944.97 435.43 Q2943.03 432.744 2939.65 432.744 Q2936.27 432.744 2934.32 435.43 Q2932.4 438.092 2932.4 442.791 Z" fill="#000000" fill-rule="nonzero" fill-opacity="1" /><path clip-path="url(#clip840)" d="M2969.99 432.791 Q2966.57 432.791 2964.58 435.476 Q2962.59 438.138 2962.59 442.791 Q2962.59 447.443 2964.56 450.129 Q2966.55 452.791 2969.99 452.791 Q2973.4 452.791 2975.39 450.105 Q2977.38 447.42 2977.38 442.791 Q2977.38 438.184 2975.39 435.499 Q2973.4 432.791 2969.99 432.791 M2969.99 429.18 Q2975.55 429.18 2978.72 432.791 Q2981.89 436.402 2981.89 442.791 Q2981.89 449.156 2978.72 452.791 Q2975.55 456.402 2969.99 456.402 Q2964.42 456.402 2961.24 452.791 Q2958.1 449.156 2958.1 442.791 Q2958.1 436.402 2961.24 432.791 Q2964.42 429.18 2969.99 429.18 Z" fill="#000000" fill-rule="nonzero" fill-opacity="1" /><path clip-path="url(#clip840)" d="M2986.48 429.805 L2990.74 429.805 L2996.06 450.036 L3001.36 429.805 L3006.38 429.805 L3011.71 450.036 L3017.01 429.805 L3021.27 429.805 L3014.49 455.73 L3009.46 455.73 L3003.88 434.481 L2998.28 455.73 L2993.26 455.73 L2986.48 429.805 Z" fill="#000000" fill-rule="nonzero" fill-opacity="1" /><path clip-path="url(#clip840)" d="M194.274 1105.57 L3152.76 1105.57 L3152.76 647.244 L194.274 647.244  Z" fill="#ffffff" fill-rule="evenodd" fill-opacity="1"/>
<polyline clip-path="url(#clip841)" style="stroke:#000000; stroke-linecap:round; stroke-linejoin:round; stroke-width:2; stroke-opacity:0.1; fill:none" points="261.292,1105.57 261.292,647.244 "/>
<polyline clip-path="url(#clip841)" style="stroke:#000000; stroke-linecap:round; stroke-linejoin:round; stroke-width:2; stroke-opacity:0.1; fill:none" points="1096.93,1105.57 1096.93,647.244 "/>
<polyline clip-path="url(#clip841)" style="stroke:#000000; stroke-linecap:round; stroke-linejoin:round; stroke-width:2; stroke-opacity:0.1; fill:none" points="1932.56,1105.57 1932.56,647.244 "/>
<polyline clip-path="url(#clip841)" style="stroke:#000000; stroke-linecap:round; stroke-linejoin:round; stroke-width:2; stroke-opacity:0.1; fill:none" points="2768.2,1105.57 2768.2,647.244 "/>
<polyline clip-path="url(#clip841)" style="stroke:#000000; stroke-linecap:round; stroke-linejoin:round; stroke-width:2; stroke-opacity:0.1; fill:none" points="194.274,1092.6 3152.76,1092.6 "/>
<polyline clip-path="url(#clip841)" style="stroke:#000000; stroke-linecap:round; stroke-linejoin:round; stroke-width:2; stroke-opacity:0.1; fill:none" points="194.274,984.501 3152.76,984.501 "/>
<polyline clip-path="url(#clip841)" style="stroke:#000000; stroke-linecap:round; stroke-linejoin:round; stroke-width:2; stroke-opacity:0.1; fill:none" points="194.274,876.406 3152.76,876.406 "/>
<polyline clip-path="url(#clip841)" style="stroke:#000000; stroke-linecap:round; stroke-linejoin:round; stroke-width:2; stroke-opacity:0.1; fill:none" points="194.274,768.311 3152.76,768.311 "/>
<polyline clip-path="url(#clip841)" style="stroke:#000000; stroke-linecap:round; stroke-linejoin:round; stroke-width:2; stroke-opacity:0.1; fill:none" points="194.274,660.216 3152.76,660.216 "/>
<polyline clip-path="url(#clip840)" style="stroke:#000000; stroke-linecap:round; stroke-linejoin:round; stroke-width:4; stroke-opacity:1; fill:none" points="194.274,1105.57 3152.76,1105.57 "/>
<polyline clip-path="url(#clip840)" style="stroke:#000000; stroke-linecap:round; stroke-linejoin:round; stroke-width:4; stroke-opacity:1; fill:none" points="261.292,1105.57 261.292,1086.67 "/>
<polyline clip-path="url(#clip840)" style="stroke:#000000; stroke-linecap:round; stroke-linejoin:round; stroke-width:4; stroke-opacity:1; fill:none" points="1096.93,1105.57 1096.93,1086.67 "/>
<polyline clip-path="url(#clip840)" style="stroke:#000000; stroke-linecap:round; stroke-linejoin:round; stroke-width:4; stroke-opacity:1; fill:none" points="1932.56,1105.57 1932.56,1086.67 "/>
<polyline clip-path="url(#clip840)" style="stroke:#000000; stroke-linecap:round; stroke-linejoin:round; stroke-width:4; stroke-opacity:1; fill:none" points="2768.2,1105.57 2768.2,1086.67 "/>
<path clip-path="url(#clip840)" d="M261.292 1142.89 Q257.681 1142.89 255.852 1146.45 Q254.047 1149.99 254.047 1157.12 Q254.047 1164.23 255.852 1167.79 Q257.681 1171.34 261.292 1171.34 Q264.926 1171.34 266.732 1167.79 Q268.56 1164.23 268.56 1157.12 Q268.56 1149.99 266.732 1146.45 Q264.926 1142.89 261.292 1142.89 M261.292 1139.18 Q267.102 1139.18 270.158 1143.79 Q273.236 1148.37 273.236 1157.12 Q273.236 1165.85 270.158 1170.46 Q267.102 1175.04 261.292 1175.04 Q255.482 1175.04 252.403 1170.46 Q249.348 1165.85 249.348 1157.12 Q249.348 1148.37 252.403 1143.79 Q255.482 1139.18 261.292 1139.18 Z" fill="#000000" fill-rule="nonzero" fill-opacity="1" /><path clip-path="url(#clip840)" d="M1071.63 1139.81 L1089.98 1139.81 L1089.98 1143.74 L1075.91 1143.74 L1075.91 1152.22 Q1076.93 1151.87 1077.95 1151.71 Q1078.96 1151.52 1079.98 1151.52 Q1085.77 1151.52 1089.15 1154.69 Q1092.53 1157.86 1092.53 1163.28 Q1092.53 1168.86 1089.06 1171.96 Q1085.58 1175.04 1079.26 1175.04 Q1077.09 1175.04 1074.82 1174.67 Q1072.58 1174.3 1070.17 1173.56 L1070.17 1168.86 Q1072.25 1169.99 1074.47 1170.55 Q1076.7 1171.1 1079.17 1171.1 Q1083.18 1171.1 1085.51 1169 Q1087.85 1166.89 1087.85 1163.28 Q1087.85 1159.67 1085.51 1157.56 Q1083.18 1155.46 1079.17 1155.46 Q1077.3 1155.46 1075.42 1155.87 Q1073.57 1156.29 1071.63 1157.17 L1071.63 1139.81 Z" fill="#000000" fill-rule="nonzero" fill-opacity="1" /><path clip-path="url(#clip840)" d="M1111.74 1142.89 Q1108.13 1142.89 1106.3 1146.45 Q1104.5 1149.99 1104.5 1157.12 Q1104.5 1164.23 1106.3 1167.79 Q1108.13 1171.34 1111.74 1171.34 Q1115.38 1171.34 1117.18 1167.79 Q1119.01 1164.23 1119.01 1157.12 Q1119.01 1149.99 1117.18 1146.45 Q1115.38 1142.89 1111.74 1142.89 M1111.74 1139.18 Q1117.55 1139.18 1120.61 1143.79 Q1123.69 1148.37 1123.69 1157.12 Q1123.69 1165.85 1120.61 1170.46 Q1117.55 1175.04 1111.74 1175.04 Q1105.93 1175.04 1102.85 1170.46 Q1099.8 1165.85 1099.8 1157.12 Q1099.8 1148.37 1102.85 1143.79 Q1105.93 1139.18 1111.74 1139.18 Z" fill="#000000" fill-rule="nonzero" fill-opacity="1" /><path clip-path="url(#clip840)" d="M1892.17 1170.43 L1899.81 1170.43 L1899.81 1144.07 L1891.5 1145.73 L1891.5 1141.47 L1899.76 1139.81 L1904.44 1139.81 L1904.44 1170.43 L1912.08 1170.43 L1912.08 1174.37 L1892.17 1174.37 L1892.17 1170.43 Z" fill="#000000" fill-rule="nonzero" fill-opacity="1" /><path clip-path="url(#clip840)" d="M1931.52 1142.89 Q1927.91 1142.89 1926.08 1146.45 Q1924.27 1149.99 1924.27 1157.12 Q1924.27 1164.23 1926.08 1167.79 Q1927.91 1171.34 1931.52 1171.34 Q1935.15 1171.34 1936.96 1167.79 Q1938.79 1164.23 1938.79 1157.12 Q1938.79 1149.99 1936.96 1146.45 Q1935.15 1142.89 1931.52 1142.89 M1931.52 1139.18 Q1937.33 1139.18 1940.39 1143.79 Q1943.46 1148.37 1943.46 1157.12 Q1943.46 1165.85 1940.39 1170.46 Q1937.33 1175.04 1931.52 1175.04 Q1925.71 1175.04 1922.63 1170.46 Q1919.58 1165.85 1919.58 1157.12 Q1919.58 1148.37 1922.63 1143.79 Q1925.71 1139.18 1931.52 1139.18 Z" fill="#000000" fill-rule="nonzero" fill-opacity="1" /><path clip-path="url(#clip840)" d="M1961.68 1142.89 Q1958.07 1142.89 1956.24 1146.45 Q1954.44 1149.99 1954.44 1157.12 Q1954.44 1164.23 1956.24 1167.79 Q1958.07 1171.34 1961.68 1171.34 Q1965.32 1171.34 1967.12 1167.79 Q1968.95 1164.23 1968.95 1157.12 Q1968.95 1149.99 1967.12 1146.45 Q1965.32 1142.89 1961.68 1142.89 M1961.68 1139.18 Q1967.49 1139.18 1970.55 1143.79 Q1973.63 1148.37 1973.63 1157.12 Q1973.63 1165.85 1970.55 1170.46 Q1967.49 1175.04 1961.68 1175.04 Q1955.87 1175.04 1952.79 1170.46 Q1949.74 1165.85 1949.74 1157.12 Q1949.74 1148.37 1952.79 1143.79 Q1955.87 1139.18 1961.68 1139.18 Z" fill="#000000" fill-rule="nonzero" fill-opacity="1" /><path clip-path="url(#clip840)" d="M2727.8 1170.43 L2735.44 1170.43 L2735.44 1144.07 L2727.13 1145.73 L2727.13 1141.47 L2735.4 1139.81 L2740.07 1139.81 L2740.07 1170.43 L2747.71 1170.43 L2747.71 1174.37 L2727.8 1174.37 L2727.8 1170.43 Z" fill="#000000" fill-rule="nonzero" fill-opacity="1" /><path clip-path="url(#clip840)" d="M2757.2 1139.81 L2775.56 1139.81 L2775.56 1143.74 L2761.48 1143.74 L2761.48 1152.22 Q2762.5 1151.87 2763.52 1151.71 Q2764.54 1151.52 2765.56 1151.52 Q2771.34 1151.52 2774.72 1154.69 Q2778.1 1157.86 2778.1 1163.28 Q2778.1 1168.86 2774.63 1171.96 Q2771.16 1175.04 2764.84 1175.04 Q2762.66 1175.04 2760.4 1174.67 Q2758.15 1174.3 2755.74 1173.56 L2755.74 1168.86 Q2757.83 1169.99 2760.05 1170.55 Q2762.27 1171.1 2764.75 1171.1 Q2768.75 1171.1 2771.09 1169 Q2773.43 1166.89 2773.43 1163.28 Q2773.43 1159.67 2771.09 1157.56 Q2768.75 1155.46 2764.75 1155.46 Q2762.87 1155.46 2761 1155.87 Q2759.15 1156.29 2757.2 1157.17 L2757.2 1139.81 Z" fill="#000000" fill-rule="nonzero" fill-opacity="1" /><path clip-path="url(#clip840)" d="M2797.32 1142.89 Q2793.71 1142.89 2791.88 1146.45 Q2790.07 1149.99 2790.07 1157.12 Q2790.07 1164.23 2791.88 1167.79 Q2793.71 1171.34 2797.32 1171.34 Q2800.95 1171.34 2802.76 1167.79 Q2804.59 1164.23 2804.59 1157.12 Q2804.59 1149.99 2802.76 1146.45 Q2800.95 1142.89 2797.32 1142.89 M2797.32 1139.18 Q2803.13 1139.18 2806.18 1143.79 Q2809.26 1148.37 2809.26 1157.12 Q2809.26 1165.85 2806.18 1170.46 Q2803.13 1175.04 2797.32 1175.04 Q2791.51 1175.04 2788.43 1170.46 Q2785.37 1165.85 2785.37 1157.12 Q2785.37 1148.37 2788.43 1143.79 Q2791.51 1139.18 2797.32 1139.18 Z" fill="#000000" fill-rule="nonzero" fill-opacity="1" /><polyline clip-path="url(#clip840)" style="stroke:#000000; stroke-linecap:round; stroke-linejoin:round; stroke-width:4; stroke-opacity:1; fill:none" points="194.274,1105.57 194.274,647.244 "/>
<polyline clip-path="url(#clip840)" style="stroke:#000000; stroke-linecap:round; stroke-linejoin:round; stroke-width:4; stroke-opacity:1; fill:none" points="194.274,1092.6 213.172,1092.6 "/>
<polyline clip-path="url(#clip840)" style="stroke:#000000; stroke-linecap:round; stroke-linejoin:round; stroke-width:4; stroke-opacity:1; fill:none" points="194.274,984.501 213.172,984.501 "/>
<polyline clip-path="url(#clip840)" style="stroke:#000000; stroke-linecap:round; stroke-linejoin:round; stroke-width:4; stroke-opacity:1; fill:none" points="194.274,876.406 213.172,876.406 "/>
<polyline clip-path="url(#clip840)" style="stroke:#000000; stroke-linecap:round; stroke-linejoin:round; stroke-width:4; stroke-opacity:1; fill:none" points="194.274,768.311 213.172,768.311 "/>
<polyline clip-path="url(#clip840)" style="stroke:#000000; stroke-linecap:round; stroke-linejoin:round; stroke-width:4; stroke-opacity:1; fill:none" points="194.274,660.216 213.172,660.216 "/>
<path clip-path="url(#clip840)" d="M58.9365 1078.4 Q55.3254 1078.4 53.4967 1081.96 Q51.6912 1085.5 51.6912 1092.63 Q51.6912 1099.74 53.4967 1103.3 Q55.3254 1106.84 58.9365 1106.84 Q62.5707 1106.84 64.3763 1103.3 Q66.205 1099.74 66.205 1092.63 Q66.205 1085.5 64.3763 1081.96 Q62.5707 1078.4 58.9365 1078.4 M58.9365 1074.69 Q64.7467 1074.69 67.8022 1079.3 Q70.8809 1083.88 70.8809 1092.63 Q70.8809 1101.36 67.8022 1105.96 Q64.7467 1110.55 58.9365 1110.55 Q53.1264 1110.55 50.0477 1105.96 Q46.9921 1101.36 46.9921 1092.63 Q46.9921 1083.88 50.0477 1079.3 Q53.1264 1074.69 58.9365 1074.69 Z" fill="#000000" fill-rule="nonzero" fill-opacity="1" /><path clip-path="url(#clip840)" d="M79.0984 1104 L83.9827 1104 L83.9827 1109.88 L79.0984 1109.88 L79.0984 1104 Z" fill="#000000" fill-rule="nonzero" fill-opacity="1" /><path clip-path="url(#clip840)" d="M104.168 1078.4 Q100.557 1078.4 98.728 1081.96 Q96.9224 1085.5 96.9224 1092.63 Q96.9224 1099.74 98.728 1103.3 Q100.557 1106.84 104.168 1106.84 Q107.802 1106.84 109.608 1103.3 Q111.436 1099.74 111.436 1092.63 Q111.436 1085.5 109.608 1081.96 Q107.802 1078.4 104.168 1078.4 M104.168 1074.69 Q109.978 1074.69 113.033 1079.3 Q116.112 1083.88 116.112 1092.63 Q116.112 1101.36 113.033 1105.96 Q109.978 1110.55 104.168 1110.55 Q98.3576 1110.55 95.2789 1105.96 Q92.2234 1101.36 92.2234 1092.63 Q92.2234 1083.88 95.2789 1079.3 Q98.3576 1074.69 104.168 1074.69 Z" fill="#000000" fill-rule="nonzero" fill-opacity="1" /><path clip-path="url(#clip840)" d="M134.33 1078.4 Q130.719 1078.4 128.89 1081.96 Q127.084 1085.5 127.084 1092.63 Q127.084 1099.74 128.89 1103.3 Q130.719 1106.84 134.33 1106.84 Q137.964 1106.84 139.769 1103.3 Q141.598 1099.74 141.598 1092.63 Q141.598 1085.5 139.769 1081.96 Q137.964 1078.4 134.33 1078.4 M134.33 1074.69 Q140.14 1074.69 143.195 1079.3 Q146.274 1083.88 146.274 1092.63 Q146.274 1101.36 143.195 1105.96 Q140.14 1110.55 134.33 1110.55 Q128.519 1110.55 125.441 1105.96 Q122.385 1101.36 122.385 1092.63 Q122.385 1083.88 125.441 1079.3 Q128.519 1074.69 134.33 1074.69 Z" fill="#000000" fill-rule="nonzero" fill-opacity="1" /><path clip-path="url(#clip840)" d="M59.9319 970.3 Q56.3208 970.3 54.4921 973.865 Q52.6865 977.406 52.6865 984.536 Q52.6865 991.642 54.4921 995.207 Q56.3208 998.749 59.9319 998.749 Q63.5661 998.749 65.3717 995.207 Q67.2004 991.642 67.2004 984.536 Q67.2004 977.406 65.3717 973.865 Q63.5661 970.3 59.9319 970.3 M59.9319 966.596 Q65.742 966.596 68.7976 971.203 Q71.8763 975.786 71.8763 984.536 Q71.8763 993.263 68.7976 997.869 Q65.742 1002.45 59.9319 1002.45 Q54.1217 1002.45 51.043 997.869 Q47.9875 993.263 47.9875 984.536 Q47.9875 975.786 51.043 971.203 Q54.1217 966.596 59.9319 966.596 Z" fill="#000000" fill-rule="nonzero" fill-opacity="1" /><path clip-path="url(#clip840)" d="M80.0938 995.902 L84.978 995.902 L84.978 1001.78 L80.0938 1001.78 L80.0938 995.902 Z" fill="#000000" fill-rule="nonzero" fill-opacity="1" /><path clip-path="url(#clip840)" d="M99.1909 997.846 L115.51 997.846 L115.51 1001.78 L93.566 1001.78 L93.566 997.846 Q96.228 995.091 100.811 990.462 Q105.418 985.809 106.598 984.466 Q108.844 981.943 109.723 980.207 Q110.626 978.448 110.626 976.758 Q110.626 974.004 108.682 972.267 Q106.76 970.531 103.658 970.531 Q101.459 970.531 99.0057 971.295 Q96.5752 972.059 93.7974 973.61 L93.7974 968.888 Q96.6215 967.754 99.0752 967.175 Q101.529 966.596 103.566 966.596 Q108.936 966.596 112.131 969.281 Q115.325 971.967 115.325 976.457 Q115.325 978.587 114.515 980.508 Q113.728 982.406 111.621 984.999 Q111.043 985.67 107.941 988.888 Q104.839 992.082 99.1909 997.846 Z" fill="#000000" fill-rule="nonzero" fill-opacity="1" /><path clip-path="url(#clip840)" d="M125.371 967.221 L143.728 967.221 L143.728 971.156 L129.654 971.156 L129.654 979.629 Q130.672 979.281 131.691 979.119 Q132.709 978.934 133.728 978.934 Q139.515 978.934 142.894 982.105 Q146.274 985.277 146.274 990.693 Q146.274 996.272 142.802 999.374 Q139.33 1002.45 133.01 1002.45 Q130.834 1002.45 128.566 1002.08 Q126.32 1001.71 123.913 1000.97 L123.913 996.272 Q125.996 997.406 128.219 997.962 Q130.441 998.517 132.918 998.517 Q136.922 998.517 139.26 996.411 Q141.598 994.304 141.598 990.693 Q141.598 987.082 139.26 984.976 Q136.922 982.869 132.918 982.869 Q131.043 982.869 129.168 983.286 Q127.316 983.703 125.371 984.582 L125.371 967.221 Z" fill="#000000" fill-rule="nonzero" fill-opacity="1" /><path clip-path="url(#clip840)" d="M58.9365 862.205 Q55.3254 862.205 53.4967 865.769 Q51.6912 869.311 51.6912 876.441 Q51.6912 883.547 53.4967 887.112 Q55.3254 890.654 58.9365 890.654 Q62.5707 890.654 64.3763 887.112 Q66.205 883.547 66.205 876.441 Q66.205 869.311 64.3763 865.769 Q62.5707 862.205 58.9365 862.205 M58.9365 858.501 Q64.7467 858.501 67.8022 863.107 Q70.8809 867.691 70.8809 876.441 Q70.8809 885.168 67.8022 889.774 Q64.7467 894.357 58.9365 894.357 Q53.1264 894.357 50.0477 889.774 Q46.9921 885.168 46.9921 876.441 Q46.9921 867.691 50.0477 863.107 Q53.1264 858.501 58.9365 858.501 Z" fill="#000000" fill-rule="nonzero" fill-opacity="1" /><path clip-path="url(#clip840)" d="M79.0984 887.806 L83.9827 887.806 L83.9827 893.686 L79.0984 893.686 L79.0984 887.806 Z" fill="#000000" fill-rule="nonzero" fill-opacity="1" /><path clip-path="url(#clip840)" d="M94.2141 859.126 L112.57 859.126 L112.57 863.061 L98.4965 863.061 L98.4965 871.533 Q99.515 871.186 100.534 871.024 Q101.552 870.839 102.571 870.839 Q108.358 870.839 111.737 874.01 Q115.117 877.181 115.117 882.598 Q115.117 888.177 111.645 891.279 Q108.172 894.357 101.853 894.357 Q99.677 894.357 97.4085 893.987 Q95.1632 893.617 92.7558 892.876 L92.7558 888.177 Q94.8391 889.311 97.0613 889.867 Q99.2835 890.422 101.76 890.422 Q105.765 890.422 108.103 888.316 Q110.441 886.209 110.441 882.598 Q110.441 878.987 108.103 876.881 Q105.765 874.774 101.76 874.774 Q99.8854 874.774 98.0104 875.191 Q96.1585 875.607 94.2141 876.487 L94.2141 859.126 Z" fill="#000000" fill-rule="nonzero" fill-opacity="1" /><path clip-path="url(#clip840)" d="M134.33 862.205 Q130.719 862.205 128.89 865.769 Q127.084 869.311 127.084 876.441 Q127.084 883.547 128.89 887.112 Q130.719 890.654 134.33 890.654 Q137.964 890.654 139.769 887.112 Q141.598 883.547 141.598 876.441 Q141.598 869.311 139.769 865.769 Q137.964 862.205 134.33 862.205 M134.33 858.501 Q140.14 858.501 143.195 863.107 Q146.274 867.691 146.274 876.441 Q146.274 885.168 143.195 889.774 Q140.14 894.357 134.33 894.357 Q128.519 894.357 125.441 889.774 Q122.385 885.168 122.385 876.441 Q122.385 867.691 125.441 863.107 Q128.519 858.501 134.33 858.501 Z" fill="#000000" fill-rule="nonzero" fill-opacity="1" /><path clip-path="url(#clip840)" d="M59.9319 754.109 Q56.3208 754.109 54.4921 757.674 Q52.6865 761.216 52.6865 768.345 Q52.6865 775.452 54.4921 779.017 Q56.3208 782.558 59.9319 782.558 Q63.5661 782.558 65.3717 779.017 Q67.2004 775.452 67.2004 768.345 Q67.2004 761.216 65.3717 757.674 Q63.5661 754.109 59.9319 754.109 M59.9319 750.406 Q65.742 750.406 68.7976 755.012 Q71.8763 759.596 71.8763 768.345 Q71.8763 777.072 68.7976 781.679 Q65.742 786.262 59.9319 786.262 Q54.1217 786.262 51.043 781.679 Q47.9875 777.072 47.9875 768.345 Q47.9875 759.596 51.043 755.012 Q54.1217 750.406 59.9319 750.406 Z" fill="#000000" fill-rule="nonzero" fill-opacity="1" /><path clip-path="url(#clip840)" d="M80.0938 779.711 L84.978 779.711 L84.978 785.591 L80.0938 785.591 L80.0938 779.711 Z" fill="#000000" fill-rule="nonzero" fill-opacity="1" /><path clip-path="url(#clip840)" d="M93.9826 751.031 L116.205 751.031 L116.205 753.021 L103.658 785.591 L98.7743 785.591 L110.58 754.966 L93.9826 754.966 L93.9826 751.031 Z" fill="#000000" fill-rule="nonzero" fill-opacity="1" /><path clip-path="url(#clip840)" d="M125.371 751.031 L143.728 751.031 L143.728 754.966 L129.654 754.966 L129.654 763.438 Q130.672 763.091 131.691 762.929 Q132.709 762.744 133.728 762.744 Q139.515 762.744 142.894 765.915 Q146.274 769.086 146.274 774.503 Q146.274 780.082 142.802 783.183 Q139.33 786.262 133.01 786.262 Q130.834 786.262 128.566 785.892 Q126.32 785.521 123.913 784.781 L123.913 780.082 Q125.996 781.216 128.219 781.771 Q130.441 782.327 132.918 782.327 Q136.922 782.327 139.26 780.22 Q141.598 778.114 141.598 774.503 Q141.598 770.892 139.26 768.785 Q136.922 766.679 132.918 766.679 Q131.043 766.679 129.168 767.095 Q127.316 767.512 125.371 768.392 L125.371 751.031 Z" fill="#000000" fill-rule="nonzero" fill-opacity="1" /><path clip-path="url(#clip840)" d="M49.7467 673.56 L57.3856 673.56 L57.3856 647.195 L49.0754 648.861 L49.0754 644.602 L57.3393 642.936 L62.0152 642.936 L62.0152 673.56 L69.654 673.56 L69.654 677.496 L49.7467 677.496 L49.7467 673.56 Z" fill="#000000" fill-rule="nonzero" fill-opacity="1" /><path clip-path="url(#clip840)" d="M79.0984 671.616 L83.9827 671.616 L83.9827 677.496 L79.0984 677.496 L79.0984 671.616 Z" fill="#000000" fill-rule="nonzero" fill-opacity="1" /><path clip-path="url(#clip840)" d="M104.168 646.014 Q100.557 646.014 98.728 649.579 Q96.9224 653.121 96.9224 660.25 Q96.9224 667.357 98.728 670.921 Q100.557 674.463 104.168 674.463 Q107.802 674.463 109.608 670.921 Q111.436 667.357 111.436 660.25 Q111.436 653.121 109.608 649.579 Q107.802 646.014 104.168 646.014 M104.168 642.311 Q109.978 642.311 113.033 646.917 Q116.112 651.5 116.112 660.25 Q116.112 668.977 113.033 673.584 Q109.978 678.167 104.168 678.167 Q98.3576 678.167 95.2789 673.584 Q92.2234 668.977 92.2234 660.25 Q92.2234 651.5 95.2789 646.917 Q98.3576 642.311 104.168 642.311 Z" fill="#000000" fill-rule="nonzero" fill-opacity="1" /><path clip-path="url(#clip840)" d="M134.33 646.014 Q130.719 646.014 128.89 649.579 Q127.084 653.121 127.084 660.25 Q127.084 667.357 128.89 670.921 Q130.719 674.463 134.33 674.463 Q137.964 674.463 139.769 670.921 Q141.598 667.357 141.598 660.25 Q141.598 653.121 139.769 649.579 Q137.964 646.014 134.33 646.014 M134.33 642.311 Q140.14 642.311 143.195 646.917 Q146.274 651.5 146.274 660.25 Q146.274 668.977 143.195 673.584 Q140.14 678.167 134.33 678.167 Q128.519 678.167 125.441 673.584 Q122.385 668.977 122.385 660.25 Q122.385 651.5 125.441 646.917 Q128.519 642.311 134.33 642.311 Z" fill="#000000" fill-rule="nonzero" fill-opacity="1" /><polyline clip-path="url(#clip841)" style="stroke:#0000ff; stroke-linecap:round; stroke-linejoin:round; stroke-width:8; stroke-opacity:1; fill:none" points="278.005,869.488 294.717,879.865 311.43,891.539 328.143,901.052 344.855,905.376 361.568,910.564 378.281,920.509 394.994,918.779 411.706,914.023 428.419,898.025 445.132,879.433 461.844,857.814 478.557,850.463 495.27,855.219 511.982,862.137 528.695,861.273 545.408,843.977 562.12,811.549 578.833,806.36 595.546,813.711 612.259,828.844 628.971,837.492 645.684,838.789 662.397,858.678 679.109,877.703 695.822,891.539 712.535,898.89 729.247,900.187 745.96,893.701 762.673,882.459 779.386,865.164 796.098,837.492 812.811,811.116 829.524,789.497 846.236,774.796 862.949,763.122 879.662,760.528 896.374,767.878 913.087,776.094 929.8,779.12 946.513,767.446 963.225,743.665 979.938,743.665 996.651,757.501 1013.36,784.309 1030.08,800.307 1046.79,808.09 1063.5,831.438 1080.21,856.084 1096.93,872.515 1113.64,882.892 1130.35,886.351 1147.06,884.189 1163.78,882.892 1180.49,880.297 1197.2,862.137 1213.92,837.924 1230.63,813.278 1247.34,795.118 1264.05,781.282 1280.77,779.553 1297.48,786.038 1314.19,792.092 1330.9,792.092 1347.62,779.12 1364.33,758.366 1381.04,757.934 1397.76,773.067 1414.47,798.577 1431.18,815.44 1447.89,821.061 1464.61,841.383 1481.32,864.299 1498.03,880.297 1514.74,889.377 1531.46,894.134 1548.17,893.269 1564.88,895.863 1581.6,901.916 1598.31,891.539 1615.02,875.109 1631.73,852.193 1648.45,831.871 1665.16,808.955 1681.87,807.657 1698.58,819.332 1715.3,830.141 1732.01,832.736 1748.72,818.467 1765.43,784.309 1782.15,776.526 1798.86,786.038 1815.57,803.766 1832.29,815.008 1849,816.305 1865.71,837.924 1882.42,859.111 1899.14,873.379 1915.85,879 1932.56,878.136 1949.27,869.056 1965.99,846.572 1982.7,806.36 1999.41,762.69 2016.13,738.044 2032.84,730.261 2049.55,721.181 2066.26,713.398 2082.98,713.398 2099.69,719.884 2116.4,726.37 2133.11,729.829 2149.83,721.181 2166.54,694.806 2183.25,694.806 2199.96,707.777 2216.68,738.044 2233.39,758.798 2250.1,772.202 2266.82,802.901 2283.53,825.385 2300.24,841.816 2316.95,849.166 2333.67,848.734 2350.38,843.113 2367.09,830.574 2383.8,801.172 2400.52,765.284 2417.23,747.989 2433.94,739.341 2450.66,728.532 2467.37,719.452 2484.08,720.749 2500.79,730.261 2517.51,740.206 2534.22,742.8 2550.93,730.261 2567.64,700.427 2584.36,700.427 2601.07,711.236 2617.78,737.612 2634.5,758.798 2651.21,773.067 2667.92,800.739 2684.63,825.385 2701.35,842.248 2718.06,846.572 2734.77,843.977 2751.48,836.627 2768.2,812.414 2784.91,755.772 2801.62,706.48 2818.33,685.726 2835.05,684.429 2851.76,677.943 2868.47,671.89 2885.19,674.484 2901.9,679.24 2918.61,687.456 2935.32,691.779 2952.04,686.158 2968.75,660.216 2985.46,663.675 3002.17,678.376 3018.89,708.21 3035.6,732.423 3052.31,750.151 3069.03,784.309 "/>
<polyline clip-path="url(#clip841)" style="stroke:#ff0000; stroke-linecap:round; stroke-linejoin:round; stroke-width:8; stroke-opacity:1; fill:none" points="278.005,1092.6 294.717,1092.6 311.43,1092.6 328.143,1092.6 344.855,1092.6 361.568,1092.6 378.281,1092.6 394.994,1092.6 411.706,1000.69 428.419,829.408 445.132,727.057 461.844,662.304 478.557,660.216 495.27,762.567 511.982,958.913 528.695,1088.42 545.408,1092.6 562.12,1092.6 578.833,1092.6 595.546,1092.6 612.259,1092.6 628.971,1092.6 645.684,1092.6 662.397,1092.6 679.109,1092.6 695.822,1092.6 712.535,1092.6 729.247,1092.6 745.96,1092.6 762.673,1092.6 779.386,1092.6 796.098,1092.6 812.811,1050.82 829.524,981.89 846.236,923.404 862.949,885.806 879.662,862.829 896.374,904.605 913.087,1004.87 929.8,1086.33 946.513,1092.6 963.225,1092.6 979.938,1092.6 996.651,1092.6 1013.36,1092.6 1030.08,1092.6 1046.79,1092.6 1063.5,1092.6 1080.21,1092.6 1096.93,1092.6 1113.64,1092.6 1130.35,1092.6 1147.06,1092.6 1163.78,1092.6 1180.49,1092.6 1197.2,1092.6 1213.92,1052.91 1230.63,977.713 1247.34,933.848 1264.05,919.226 1280.77,942.203 1297.48,983.979 1314.19,1044.55 1330.9,1088.42 1347.62,1092.6 1364.33,1092.6 1381.04,1092.6 1397.76,1092.6 1414.47,1092.6 1431.18,1092.6 1447.89,1092.6 1464.61,1092.6 1481.32,1092.6 1498.03,1092.6 1514.74,1092.6 1531.46,1092.6 1548.17,1092.6 1564.88,1092.6 1581.6,1092.6 1598.31,1090.51 1615.02,981.89 1631.73,789.721 1648.45,708.258 1665.16,689.459 1681.87,752.123 1698.58,854.474 1715.3,973.535 1732.01,1084.24 1748.72,1092.6 1765.43,1092.6 1782.15,1092.6 1798.86,1092.6 1815.57,1092.6 1832.29,1092.6 1849,1092.6 1865.71,1092.6 1882.42,1092.6 1899.14,1092.6 1915.85,1092.6 1932.56,1092.6 1949.27,1092.6 1965.99,1092.6 1982.7,1092.6 1999.41,1088.42 2016.13,965.18 2032.84,821.053 2049.55,756.3 2066.26,706.169 2082.98,714.524 2099.69,770.922 2116.4,900.427 2133.11,1067.53 2149.83,1092.6 2166.54,1092.6 2183.25,1092.6 2199.96,1092.6 2216.68,1092.6 2233.39,1092.6 2250.1,1092.6 2266.82,1092.6 2283.53,1092.6 2300.24,1092.6 2316.95,1092.6 2333.67,1092.6 2350.38,1092.6 2367.09,1092.6 2383.8,1092.6 2400.52,1088.42 2417.23,981.89 2433.94,839.852 2450.66,737.501 2467.37,685.281 2484.08,710.347 2500.79,806.431 2517.51,950.558 2534.22,1080.06 2550.93,1092.6 2567.64,1092.6 2584.36,1092.6 2601.07,1092.6 2617.78,1092.6 2634.5,1092.6 2651.21,1092.6 2667.92,1092.6 2684.63,1092.6 2701.35,1092.6 2718.06,1092.6 2734.77,1092.6 2751.48,1092.6 2768.2,1092.6 2784.91,1092.6 2801.62,1090.51 2818.33,1025.75 2835.05,904.605 2851.76,837.763 2868.47,787.632 2885.19,812.698 2901.9,862.829 2918.61,977.713 2935.32,1080.06 2952.04,1092.6 2968.75,1092.6 2985.46,1092.6 3002.17,1092.6 3018.89,1092.6 3035.6,1092.6 3052.31,1092.6 3069.03,1092.6 "/>
<path clip-path="url(#clip841)" d="M662.397 1563.89 L662.397 188.92 L1464.61 188.92 L1464.61 1563.89 L662.397 1563.89  Z" fill="#008000" fill-rule="evenodd" fill-opacity="0.25"/>
<polyline clip-path="url(#clip841)" style="stroke:#000000; stroke-linecap:round; stroke-linejoin:round; stroke-width:0; stroke-opacity:0.25; fill:none" points="662.397,1563.89 662.397,188.92 1464.61,188.92 1464.61,1563.89 662.397,1563.89 "/>
</svg>
