<?xml version="1.0" encoding="utf-8"?>
<svg xmlns="http://www.w3.org/2000/svg" xmlns:xlink="http://www.w3.org/1999/xlink" width="600" height="400" viewBox="0 0 2400 1600">
<defs>
  <clipPath id="clip860">
    <rect x="0" y="0" width="2400" height="1600"/>
  </clipPath>
</defs>
<path clip-path="url(#clip860)" d="M0 1600 L2400 1600 L2400 0 L0 0  Z" fill="#ffffff" fill-rule="evenodd" fill-opacity="1"/>
<defs>
  <clipPath id="clip861">
    <rect x="219" y="47" width="2134" height="1377"/>
  </clipPath>
</defs>
<path clip-path="url(#clip860)" d="M219.866 1423.18 L2352.76 1423.18 L2352.76 47.2441 L219.866 47.2441  Z" fill="#ffffff" fill-rule="evenodd" fill-opacity="1"/>
<polyline clip-path="url(#clip861)" style="stroke:#000000; stroke-linecap:round; stroke-linejoin:round; stroke-width:2; stroke-opacity:0.1; fill:none" points="274.703,1423.18 274.703,47.2441 "/>
<polyline clip-path="url(#clip861)" style="stroke:#000000; stroke-linecap:round; stroke-linejoin:round; stroke-width:2; stroke-opacity:0.1; fill:none" points="827.494,1423.18 827.494,47.2441 "/>
<polyline clip-path="url(#clip861)" style="stroke:#000000; stroke-linecap:round; stroke-linejoin:round; stroke-width:2; stroke-opacity:0.1; fill:none" points="1380.29,1423.18 1380.29,47.2441 "/>
<polyline clip-path="url(#clip861)" style="stroke:#000000; stroke-linecap:round; stroke-linejoin:round; stroke-width:2; stroke-opacity:0.1; fill:none" points="1933.08,1423.18 1933.08,47.2441 "/>
<polyline clip-path="url(#clip861)" style="stroke:#000000; stroke-linecap:round; stroke-linejoin:round; stroke-width:2; stroke-opacity:0.1; fill:none" points="219.866,1419.44 2352.76,1419.44 "/>
<polyline clip-path="url(#clip861)" style="stroke:#000000; stroke-linecap:round; stroke-linejoin:round; stroke-width:2; stroke-opacity:0.1; fill:none" points="219.866,1091.7 2352.76,1091.7 "/>
<polyline clip-path="url(#clip861)" style="stroke:#000000; stroke-linecap:round; stroke-linejoin:round; stroke-width:2; stroke-opacity:0.1; fill:none" points="219.866,763.954 2352.76,763.954 "/>
<polyline clip-path="url(#clip861)" style="stroke:#000000; stroke-linecap:round; stroke-linejoin:round; stroke-width:2; stroke-opacity:0.1; fill:none" points="219.866,436.21 2352.76,436.21 "/>
<polyline clip-path="url(#clip861)" style="stroke:#000000; stroke-linecap:round; stroke-linejoin:round; stroke-width:2; stroke-opacity:0.1; fill:none" points="219.866,108.466 2352.76,108.466 "/>
<polyline clip-path="url(#clip860)" style="stroke:#000000; stroke-linecap:round; stroke-linejoin:round; stroke-width:4; stroke-opacity:1; fill:none" points="219.866,1423.18 2352.76,1423.18 "/>
<polyline clip-path="url(#clip860)" style="stroke:#000000; stroke-linecap:round; stroke-linejoin:round; stroke-width:4; stroke-opacity:1; fill:none" points="274.703,1423.18 274.703,1404.28 "/>
<polyline clip-path="url(#clip860)" style="stroke:#000000; stroke-linecap:round; stroke-linejoin:round; stroke-width:4; stroke-opacity:1; fill:none" points="827.494,1423.18 827.494,1404.28 "/>
<polyline clip-path="url(#clip860)" style="stroke:#000000; stroke-linecap:round; stroke-linejoin:round; stroke-width:4; stroke-opacity:1; fill:none" points="1380.29,1423.18 1380.29,1404.28 "/>
<polyline clip-path="url(#clip860)" style="stroke:#000000; stroke-linecap:round; stroke-linejoin:round; stroke-width:4; stroke-opacity:1; fill:none" points="1933.08,1423.18 1933.08,1404.28 "/>
<path clip-path="url(#clip860)" d="M274.703 1454.1 Q271.092 1454.1 269.263 1457.66 Q267.458 1461.2 267.458 1468.33 Q267.458 1475.44 269.263 1479.01 Q271.092 1482.55 274.703 1482.55 Q278.337 1482.55 280.143 1479.01 Q281.972 1475.44 281.972 1468.33 Q281.972 1461.2 280.143 1457.66 Q278.337 1454.1 274.703 1454.1 M274.703 1450.39 Q280.513 1450.39 283.569 1455 Q286.648 1459.58 286.648 1468.33 Q286.648 1477.06 283.569 1481.67 Q280.513 1486.25 274.703 1486.25 Q268.893 1486.25 265.814 1481.67 Q262.759 1477.06 262.759 1468.33 Q262.759 1459.58 265.814 1455 Q268.893 1450.39 274.703 1450.39 Z" fill="#000000" fill-rule="nonzero" fill-opacity="1" /><path clip-path="url(#clip860)" d="M787.101 1481.64 L794.74 1481.64 L794.74 1455.28 L786.43 1456.95 L786.43 1452.69 L794.694 1451.02 L799.37 1451.02 L799.37 1481.64 L807.008 1481.64 L807.008 1485.58 L787.101 1485.58 L787.101 1481.64 Z" fill="#000000" fill-rule="nonzero" fill-opacity="1" /><path clip-path="url(#clip860)" d="M826.453 1454.1 Q822.842 1454.1 821.013 1457.66 Q819.207 1461.2 819.207 1468.33 Q819.207 1475.44 821.013 1479.01 Q822.842 1482.55 826.453 1482.55 Q830.087 1482.55 831.892 1479.01 Q833.721 1475.44 833.721 1468.33 Q833.721 1461.2 831.892 1457.66 Q830.087 1454.1 826.453 1454.1 M826.453 1450.39 Q832.263 1450.39 835.318 1455 Q838.397 1459.58 838.397 1468.33 Q838.397 1477.06 835.318 1481.67 Q832.263 1486.25 826.453 1486.25 Q820.643 1486.25 817.564 1481.67 Q814.508 1477.06 814.508 1468.33 Q814.508 1459.58 817.564 1455 Q820.643 1450.39 826.453 1450.39 Z" fill="#000000" fill-rule="nonzero" fill-opacity="1" /><path clip-path="url(#clip860)" d="M856.615 1454.1 Q853.003 1454.1 851.175 1457.66 Q849.369 1461.2 849.369 1468.33 Q849.369 1475.44 851.175 1479.01 Q853.003 1482.55 856.615 1482.55 Q860.249 1482.55 862.054 1479.01 Q863.883 1475.44 863.883 1468.33 Q863.883 1461.2 862.054 1457.66 Q860.249 1454.1 856.615 1454.1 M856.615 1450.39 Q862.425 1450.39 865.48 1455 Q868.559 1459.58 868.559 1468.33 Q868.559 1477.06 865.48 1481.67 Q862.425 1486.25 856.615 1486.25 Q850.804 1486.25 847.726 1481.67 Q844.67 1477.06 844.67 1468.33 Q844.67 1459.58 847.726 1455 Q850.804 1450.39 856.615 1450.39 Z" fill="#000000" fill-rule="nonzero" fill-opacity="1" /><path clip-path="url(#clip860)" d="M1343.98 1481.64 L1360.3 1481.64 L1360.3 1485.58 L1338.35 1485.58 L1338.35 1481.64 Q1341.01 1478.89 1345.6 1474.26 Q1350.2 1469.61 1351.39 1468.27 Q1353.63 1465.74 1354.51 1464.01 Q1355.41 1462.25 1355.41 1460.56 Q1355.41 1457.8 1353.47 1456.07 Q1351.55 1454.33 1348.45 1454.33 Q1346.25 1454.33 1343.79 1455.09 Q1341.36 1455.86 1338.58 1457.41 L1338.58 1452.69 Q1341.41 1451.55 1343.86 1450.97 Q1346.32 1450.39 1348.35 1450.39 Q1353.72 1450.39 1356.92 1453.08 Q1360.11 1455.77 1360.11 1460.26 Q1360.11 1462.39 1359.3 1464.31 Q1358.51 1466.2 1356.41 1468.8 Q1355.83 1469.47 1352.73 1472.69 Q1349.63 1475.88 1343.98 1481.64 Z" fill="#000000" fill-rule="nonzero" fill-opacity="1" /><path clip-path="url(#clip860)" d="M1380.11 1454.1 Q1376.5 1454.1 1374.67 1457.66 Q1372.87 1461.2 1372.87 1468.33 Q1372.87 1475.44 1374.67 1479.01 Q1376.5 1482.55 1380.11 1482.55 Q1383.75 1482.55 1385.55 1479.01 Q1387.38 1475.44 1387.38 1468.33 Q1387.38 1461.2 1385.55 1457.66 Q1383.75 1454.1 1380.11 1454.1 M1380.11 1450.39 Q1385.92 1450.39 1388.98 1455 Q1392.06 1459.58 1392.06 1468.33 Q1392.06 1477.06 1388.98 1481.67 Q1385.92 1486.25 1380.11 1486.25 Q1374.3 1486.25 1371.22 1481.67 Q1368.17 1477.06 1368.17 1468.33 Q1368.17 1459.58 1371.22 1455 Q1374.3 1450.39 1380.11 1450.39 Z" fill="#000000" fill-rule="nonzero" fill-opacity="1" /><path clip-path="url(#clip860)" d="M1410.27 1454.1 Q1406.66 1454.1 1404.83 1457.66 Q1403.03 1461.2 1403.03 1468.33 Q1403.03 1475.44 1404.83 1479.01 Q1406.66 1482.55 1410.27 1482.55 Q1413.91 1482.55 1415.71 1479.01 Q1417.54 1475.44 1417.54 1468.33 Q1417.54 1461.2 1415.71 1457.66 Q1413.91 1454.1 1410.27 1454.1 M1410.27 1450.39 Q1416.08 1450.39 1419.14 1455 Q1422.22 1459.58 1422.22 1468.33 Q1422.22 1477.06 1419.14 1481.67 Q1416.08 1486.25 1410.27 1486.25 Q1404.46 1486.25 1401.39 1481.67 Q1398.33 1477.06 1398.33 1468.33 Q1398.33 1459.58 1401.39 1455 Q1404.46 1450.39 1410.27 1450.39 Z" fill="#000000" fill-rule="nonzero" fill-opacity="1" /><path clip-path="url(#clip860)" d="M1906.84 1466.95 Q1910.19 1467.66 1912.07 1469.93 Q1913.97 1472.2 1913.97 1475.53 Q1913.97 1480.65 1910.45 1483.45 Q1906.93 1486.25 1900.45 1486.25 Q1898.27 1486.25 1895.96 1485.81 Q1893.67 1485.39 1891.21 1484.54 L1891.21 1480.02 Q1893.16 1481.16 1895.47 1481.74 Q1897.79 1482.32 1900.31 1482.32 Q1904.71 1482.32 1907 1480.58 Q1909.32 1478.84 1909.32 1475.53 Q1909.32 1472.48 1907.16 1470.77 Q1905.03 1469.03 1901.21 1469.03 L1897.19 1469.03 L1897.19 1465.19 L1901.4 1465.19 Q1904.85 1465.19 1906.68 1463.82 Q1908.51 1462.43 1908.51 1459.84 Q1908.51 1457.18 1906.61 1455.77 Q1904.73 1454.33 1901.21 1454.33 Q1899.29 1454.33 1897.09 1454.75 Q1894.89 1455.16 1892.26 1456.04 L1892.26 1451.88 Q1894.92 1451.14 1897.23 1450.77 Q1899.57 1450.39 1901.63 1450.39 Q1906.95 1450.39 1910.06 1452.83 Q1913.16 1455.23 1913.16 1459.35 Q1913.16 1462.22 1911.51 1464.21 Q1909.87 1466.18 1906.84 1466.95 Z" fill="#000000" fill-rule="nonzero" fill-opacity="1" /><path clip-path="url(#clip860)" d="M1932.83 1454.1 Q1929.22 1454.1 1927.39 1457.66 Q1925.59 1461.2 1925.59 1468.33 Q1925.59 1475.44 1927.39 1479.01 Q1929.22 1482.55 1932.83 1482.55 Q1936.47 1482.55 1938.27 1479.01 Q1940.1 1475.44 1940.1 1468.33 Q1940.1 1461.2 1938.27 1457.66 Q1936.47 1454.1 1932.83 1454.1 M1932.83 1450.39 Q1938.64 1450.39 1941.7 1455 Q1944.78 1459.58 1944.78 1468.33 Q1944.78 1477.06 1941.7 1481.67 Q1938.64 1486.25 1932.83 1486.25 Q1927.02 1486.25 1923.94 1481.67 Q1920.89 1477.06 1920.89 1468.33 Q1920.89 1459.58 1923.94 1455 Q1927.02 1450.39 1932.83 1450.39 Z" fill="#000000" fill-rule="nonzero" fill-opacity="1" /><path clip-path="url(#clip860)" d="M1963 1454.1 Q1959.38 1454.1 1957.56 1457.66 Q1955.75 1461.2 1955.75 1468.33 Q1955.75 1475.44 1957.56 1479.01 Q1959.38 1482.55 1963 1482.55 Q1966.63 1482.55 1968.44 1479.01 Q1970.26 1475.44 1970.26 1468.33 Q1970.26 1461.2 1968.44 1457.66 Q1966.63 1454.1 1963 1454.1 M1963 1450.39 Q1968.81 1450.39 1971.86 1455 Q1974.94 1459.58 1974.94 1468.33 Q1974.94 1477.06 1971.86 1481.67 Q1968.81 1486.25 1963 1486.25 Q1957.19 1486.25 1954.11 1481.67 Q1951.05 1477.06 1951.05 1468.33 Q1951.05 1459.58 1954.11 1455 Q1957.19 1450.39 1963 1450.39 Z" fill="#000000" fill-rule="nonzero" fill-opacity="1" /><path clip-path="url(#clip860)" d="M1197.27 1525.81 L1197.27 1543.66 L1205.36 1543.66 Q1209.84 1543.66 1212.29 1541.34 Q1214.74 1539.02 1214.74 1534.72 Q1214.74 1530.45 1212.29 1528.13 Q1209.84 1525.81 1205.36 1525.81 L1197.27 1525.81 M1190.84 1520.52 L1205.36 1520.52 Q1213.34 1520.52 1217.42 1524.15 Q1221.52 1527.75 1221.52 1534.72 Q1221.52 1541.75 1217.42 1545.35 Q1213.34 1548.95 1205.36 1548.95 L1197.27 1548.95 L1197.27 1568.04 L1190.84 1568.04 L1190.84 1520.52 Z" fill="#000000" fill-rule="nonzero" fill-opacity="1" /><path clip-path="url(#clip860)" d="M1258.06 1548.76 L1258.06 1551.62 L1231.14 1551.62 Q1231.52 1557.67 1234.76 1560.85 Q1238.04 1564 1243.87 1564 Q1247.24 1564 1250.39 1563.17 Q1253.58 1562.35 1256.69 1560.69 L1256.69 1566.23 Q1253.54 1567.57 1250.23 1568.27 Q1246.92 1568.97 1243.52 1568.97 Q1234.99 1568.97 1229.99 1564 Q1225.03 1559.04 1225.03 1550.57 Q1225.03 1541.82 1229.74 1536.69 Q1234.48 1531.54 1242.5 1531.54 Q1249.69 1531.54 1253.86 1536.18 Q1258.06 1540.8 1258.06 1548.76 M1252.21 1547.04 Q1252.14 1542.23 1249.5 1539.37 Q1246.89 1536.5 1242.56 1536.5 Q1237.66 1536.5 1234.7 1539.27 Q1231.77 1542.04 1231.33 1547.07 L1252.21 1547.04 Z" fill="#000000" fill-rule="nonzero" fill-opacity="1" /><path clip-path="url(#clip860)" d="M1288.33 1537.87 Q1287.35 1537.3 1286.17 1537.04 Q1285.02 1536.76 1283.62 1536.76 Q1278.66 1536.76 1275.98 1540 Q1273.34 1543.22 1273.34 1549.27 L1273.34 1568.04 L1267.45 1568.04 L1267.45 1532.4 L1273.34 1532.4 L1273.34 1537.93 Q1275.19 1534.69 1278.15 1533.13 Q1281.11 1531.54 1285.34 1531.54 Q1285.95 1531.54 1286.68 1531.63 Q1287.41 1531.7 1288.3 1531.85 L1288.33 1537.87 Z" fill="#000000" fill-rule="nonzero" fill-opacity="1" /><path clip-path="url(#clip860)" d="M1294.48 1532.4 L1300.33 1532.4 L1300.33 1568.04 L1294.48 1568.04 L1294.48 1532.4 M1294.48 1518.52 L1300.33 1518.52 L1300.33 1525.93 L1294.48 1525.93 L1294.48 1518.52 Z" fill="#000000" fill-rule="nonzero" fill-opacity="1" /><path clip-path="url(#clip860)" d="M1326.4 1536.5 Q1321.69 1536.5 1318.95 1540.19 Q1316.21 1543.85 1316.21 1550.25 Q1316.21 1556.65 1318.92 1560.34 Q1321.66 1564 1326.4 1564 Q1331.08 1564 1333.82 1560.31 Q1336.55 1556.62 1336.55 1550.25 Q1336.55 1543.92 1333.82 1540.23 Q1331.08 1536.5 1326.4 1536.5 M1326.4 1531.54 Q1334.04 1531.54 1338.4 1536.5 Q1342.76 1541.47 1342.76 1550.25 Q1342.76 1559 1338.4 1564 Q1334.04 1568.97 1326.4 1568.97 Q1318.73 1568.97 1314.37 1564 Q1310.04 1559 1310.04 1550.25 Q1310.04 1541.47 1314.37 1536.5 Q1318.73 1531.54 1326.4 1531.54 Z" fill="#000000" fill-rule="nonzero" fill-opacity="1" /><path clip-path="url(#clip860)" d="M1375.92 1537.81 L1375.92 1518.52 L1381.78 1518.52 L1381.78 1568.04 L1375.92 1568.04 L1375.92 1562.7 Q1374.08 1565.88 1371.25 1567.44 Q1368.44 1568.97 1364.5 1568.97 Q1358.04 1568.97 1353.96 1563.81 Q1349.92 1558.65 1349.92 1550.25 Q1349.92 1541.85 1353.96 1536.69 Q1358.04 1531.54 1364.5 1531.54 Q1368.44 1531.54 1371.25 1533.1 Q1374.08 1534.62 1375.92 1537.81 M1355.97 1550.25 Q1355.97 1556.71 1358.61 1560.4 Q1361.28 1564.07 1365.93 1564.07 Q1370.58 1564.07 1373.25 1560.4 Q1375.92 1556.71 1375.92 1550.25 Q1375.92 1543.79 1373.25 1540.13 Q1370.58 1536.44 1365.93 1536.44 Q1361.28 1536.44 1358.61 1540.13 Q1355.97 1543.79 1355.97 1550.25 Z" fill="#000000" fill-rule="nonzero" fill-opacity="1" /><polyline clip-path="url(#clip860)" style="stroke:#000000; stroke-linecap:round; stroke-linejoin:round; stroke-width:4; stroke-opacity:1; fill:none" points="219.866,1423.18 219.866,47.2441 "/>
<polyline clip-path="url(#clip860)" style="stroke:#000000; stroke-linecap:round; stroke-linejoin:round; stroke-width:4; stroke-opacity:1; fill:none" points="219.866,1419.44 238.764,1419.44 "/>
<polyline clip-path="url(#clip860)" style="stroke:#000000; stroke-linecap:round; stroke-linejoin:round; stroke-width:4; stroke-opacity:1; fill:none" points="219.866,1091.7 238.764,1091.7 "/>
<polyline clip-path="url(#clip860)" style="stroke:#000000; stroke-linecap:round; stroke-linejoin:round; stroke-width:4; stroke-opacity:1; fill:none" points="219.866,763.954 238.764,763.954 "/>
<polyline clip-path="url(#clip860)" style="stroke:#000000; stroke-linecap:round; stroke-linejoin:round; stroke-width:4; stroke-opacity:1; fill:none" points="219.866,436.21 238.764,436.21 "/>
<polyline clip-path="url(#clip860)" style="stroke:#000000; stroke-linecap:round; stroke-linejoin:round; stroke-width:4; stroke-opacity:1; fill:none" points="219.866,108.466 238.764,108.466 "/>
<path clip-path="url(#clip860)" d="M127.339 1405.24 Q123.728 1405.24 121.899 1408.8 Q120.093 1412.35 120.093 1419.48 Q120.093 1426.58 121.899 1430.15 Q123.728 1433.69 127.339 1433.69 Q130.973 1433.69 132.779 1430.15 Q134.607 1426.58 134.607 1419.48 Q134.607 1412.35 132.779 1408.8 Q130.973 1405.24 127.339 1405.24 M127.339 1401.54 Q133.149 1401.54 136.204 1406.14 Q139.283 1410.73 139.283 1419.48 Q139.283 1428.2 136.204 1432.81 Q133.149 1437.39 127.339 1437.39 Q121.529 1437.39 118.45 1432.81 Q115.394 1428.2 115.394 1419.48 Q115.394 1410.73 118.45 1406.14 Q121.529 1401.54 127.339 1401.54 Z" fill="#000000" fill-rule="nonzero" fill-opacity="1" /><path clip-path="url(#clip860)" d="M147.501 1430.84 L152.385 1430.84 L152.385 1436.72 L147.501 1436.72 L147.501 1430.84 Z" fill="#000000" fill-rule="nonzero" fill-opacity="1" /><path clip-path="url(#clip860)" d="M176.737 1418.09 Q180.093 1418.8 181.968 1421.07 Q183.866 1423.34 183.866 1426.68 Q183.866 1431.79 180.348 1434.59 Q176.829 1437.39 170.348 1437.39 Q168.172 1437.39 165.857 1436.95 Q163.565 1436.54 161.112 1435.68 L161.112 1431.17 Q163.056 1432.3 165.371 1432.88 Q167.686 1433.46 170.209 1433.46 Q174.607 1433.46 176.899 1431.72 Q179.214 1429.99 179.214 1426.68 Q179.214 1423.62 177.061 1421.91 Q174.931 1420.17 171.112 1420.17 L167.084 1420.17 L167.084 1416.33 L171.297 1416.33 Q174.746 1416.33 176.575 1414.96 Q178.403 1413.57 178.403 1410.98 Q178.403 1408.32 176.505 1406.91 Q174.63 1405.47 171.112 1405.47 Q169.19 1405.47 166.991 1405.89 Q164.792 1406.3 162.153 1407.18 L162.153 1403.02 Q164.815 1402.28 167.13 1401.91 Q169.468 1401.54 171.528 1401.54 Q176.852 1401.54 179.954 1403.97 Q183.056 1406.37 183.056 1410.49 Q183.056 1413.37 181.413 1415.36 Q179.769 1417.32 176.737 1418.09 Z" fill="#000000" fill-rule="nonzero" fill-opacity="1" /><path clip-path="url(#clip860)" d="M126.205 1077.5 Q122.593 1077.5 120.765 1081.06 Q118.959 1084.6 118.959 1091.73 Q118.959 1098.84 120.765 1102.4 Q122.593 1105.95 126.205 1105.95 Q129.839 1105.95 131.644 1102.4 Q133.473 1098.84 133.473 1091.73 Q133.473 1084.6 131.644 1081.06 Q129.839 1077.5 126.205 1077.5 M126.205 1073.79 Q132.015 1073.79 135.07 1078.4 Q138.149 1082.98 138.149 1091.73 Q138.149 1100.46 135.07 1105.07 Q132.015 1109.65 126.205 1109.65 Q120.394 1109.65 117.316 1105.07 Q114.26 1100.46 114.26 1091.73 Q114.26 1082.98 117.316 1078.4 Q120.394 1073.79 126.205 1073.79 Z" fill="#000000" fill-rule="nonzero" fill-opacity="1" /><path clip-path="url(#clip860)" d="M146.366 1103.1 L151.251 1103.1 L151.251 1108.98 L146.366 1108.98 L146.366 1103.1 Z" fill="#000000" fill-rule="nonzero" fill-opacity="1" /><path clip-path="url(#clip860)" d="M174.283 1078.49 L162.477 1096.94 L174.283 1096.94 L174.283 1078.49 M173.056 1074.42 L178.936 1074.42 L178.936 1096.94 L183.866 1096.94 L183.866 1100.83 L178.936 1100.83 L178.936 1108.98 L174.283 1108.98 L174.283 1100.83 L158.681 1100.83 L158.681 1096.32 L173.056 1074.42 Z" fill="#000000" fill-rule="nonzero" fill-opacity="1" /><path clip-path="url(#clip860)" d="M127.686 749.752 Q124.075 749.752 122.246 753.317 Q120.441 756.859 120.441 763.988 Q120.441 771.095 122.246 774.66 Q124.075 778.201 127.686 778.201 Q131.32 778.201 133.126 774.66 Q134.954 771.095 134.954 763.988 Q134.954 756.859 133.126 753.317 Q131.32 749.752 127.686 749.752 M127.686 746.049 Q133.496 746.049 136.552 750.655 Q139.63 755.238 139.63 763.988 Q139.63 772.715 136.552 777.322 Q133.496 781.905 127.686 781.905 Q121.876 781.905 118.797 777.322 Q115.742 772.715 115.742 763.988 Q115.742 755.238 118.797 750.655 Q121.876 746.049 127.686 746.049 Z" fill="#000000" fill-rule="nonzero" fill-opacity="1" /><path clip-path="url(#clip860)" d="M147.848 775.354 L152.732 775.354 L152.732 781.234 L147.848 781.234 L147.848 775.354 Z" fill="#000000" fill-rule="nonzero" fill-opacity="1" /><path clip-path="url(#clip860)" d="M162.964 746.674 L181.32 746.674 L181.32 750.609 L167.246 750.609 L167.246 759.081 Q168.264 758.734 169.283 758.572 Q170.302 758.386 171.32 758.386 Q177.107 758.386 180.487 761.558 Q183.866 764.729 183.866 770.146 Q183.866 775.724 180.394 778.826 Q176.922 781.905 170.602 781.905 Q168.427 781.905 166.158 781.534 Q163.913 781.164 161.505 780.423 L161.505 775.724 Q163.589 776.859 165.811 777.414 Q168.033 777.97 170.51 777.97 Q174.514 777.97 176.852 775.863 Q179.19 773.757 179.19 770.146 Q179.19 766.535 176.852 764.428 Q174.514 762.322 170.51 762.322 Q168.635 762.322 166.76 762.738 Q164.908 763.155 162.964 764.035 L162.964 746.674 Z" fill="#000000" fill-rule="nonzero" fill-opacity="1" /><path clip-path="url(#clip860)" d="M126.529 422.008 Q122.918 422.008 121.089 425.573 Q119.283 429.115 119.283 436.244 Q119.283 443.351 121.089 446.916 Q122.918 450.457 126.529 450.457 Q130.163 450.457 131.968 446.916 Q133.797 443.351 133.797 436.244 Q133.797 429.115 131.968 425.573 Q130.163 422.008 126.529 422.008 M126.529 418.305 Q132.339 418.305 135.394 422.911 Q138.473 427.494 138.473 436.244 Q138.473 444.971 135.394 449.578 Q132.339 454.161 126.529 454.161 Q120.718 454.161 117.64 449.578 Q114.584 444.971 114.584 436.244 Q114.584 427.494 117.64 422.911 Q120.718 418.305 126.529 418.305 Z" fill="#000000" fill-rule="nonzero" fill-opacity="1" /><path clip-path="url(#clip860)" d="M146.691 447.61 L151.575 447.61 L151.575 453.49 L146.691 453.49 L146.691 447.61 Z" fill="#000000" fill-rule="nonzero" fill-opacity="1" /><path clip-path="url(#clip860)" d="M172.339 434.346 Q169.19 434.346 167.339 436.499 Q165.51 438.652 165.51 442.402 Q165.51 446.129 167.339 448.304 Q169.19 450.457 172.339 450.457 Q175.487 450.457 177.315 448.304 Q179.167 446.129 179.167 442.402 Q179.167 438.652 177.315 436.499 Q175.487 434.346 172.339 434.346 M181.621 419.694 L181.621 423.953 Q179.862 423.119 178.056 422.68 Q176.274 422.24 174.514 422.24 Q169.885 422.24 167.431 425.365 Q165.001 428.49 164.653 434.809 Q166.019 432.795 168.079 431.73 Q170.139 430.643 172.616 430.643 Q177.825 430.643 180.834 433.814 Q183.866 436.962 183.866 442.402 Q183.866 447.726 180.718 450.943 Q177.57 454.161 172.339 454.161 Q166.343 454.161 163.172 449.578 Q160.001 444.971 160.001 436.244 Q160.001 428.05 163.89 423.189 Q167.778 418.305 174.329 418.305 Q176.089 418.305 177.871 418.652 Q179.676 418.999 181.621 419.694 Z" fill="#000000" fill-rule="nonzero" fill-opacity="1" /><path clip-path="url(#clip860)" d="M127.593 94.2644 Q123.982 94.2644 122.154 97.8292 Q120.348 101.371 120.348 108.5 Q120.348 115.607 122.154 119.172 Q123.982 122.713 127.593 122.713 Q131.228 122.713 133.033 119.172 Q134.862 115.607 134.862 108.5 Q134.862 101.371 133.033 97.8292 Q131.228 94.2644 127.593 94.2644 M127.593 90.5607 Q133.404 90.5607 136.459 95.1672 Q139.538 99.7505 139.538 108.5 Q139.538 117.227 136.459 121.834 Q133.404 126.417 127.593 126.417 Q121.783 126.417 118.705 121.834 Q115.649 117.227 115.649 108.5 Q115.649 99.7505 118.705 95.1672 Q121.783 90.5607 127.593 90.5607 Z" fill="#000000" fill-rule="nonzero" fill-opacity="1" /><path clip-path="url(#clip860)" d="M147.755 119.866 L152.64 119.866 L152.64 125.746 L147.755 125.746 L147.755 119.866 Z" fill="#000000" fill-rule="nonzero" fill-opacity="1" /><path clip-path="url(#clip860)" d="M161.644 91.1857 L183.866 91.1857 L183.866 93.1765 L171.32 125.746 L166.436 125.746 L178.241 95.1209 L161.644 95.1209 L161.644 91.1857 Z" fill="#000000" fill-rule="nonzero" fill-opacity="1" /><path clip-path="url(#clip860)" d="M18.0438 1012.92 L24.314 1012.92 Q22.5634 1016.58 21.704 1019.82 Q20.8447 1023.07 20.8447 1026.09 Q20.8447 1031.34 22.8817 1034.21 Q24.9187 1037.04 28.6745 1037.04 Q31.8255 1037.04 33.4488 1035.16 Q35.0402 1033.25 36.0269 1027.97 L36.8226 1024.09 Q38.1912 1016.89 41.6605 1013.49 Q45.098 1010.05 50.8908 1010.05 Q57.7976 1010.05 61.3624 1014.7 Q64.9272 1019.31 64.9272 1028.26 Q64.9272 1031.63 64.1633 1035.45 Q63.3994 1039.24 61.9035 1043.31 L55.2831 1043.31 Q57.4793 1039.4 58.5933 1035.64 Q59.7073 1031.89 59.7073 1028.26 Q59.7073 1022.75 57.543 1019.76 Q55.3786 1016.77 51.3682 1016.77 Q47.8671 1016.77 45.8937 1018.93 Q43.9204 1021.06 42.9337 1025.97 L42.1698 1029.88 Q40.7375 1037.07 37.682 1040.29 Q34.6264 1043.5 29.1837 1043.5 Q22.8817 1043.5 19.2532 1039.08 Q15.6248 1034.62 15.6248 1026.82 Q15.6248 1023.48 16.2295 1020.01 Q16.8343 1016.54 18.0438 1012.92 Z" fill="#000000" fill-rule="nonzero" fill-opacity="1" /><path clip-path="url(#clip860)" d="M18.2347 994.487 L28.3562 994.487 L28.3562 982.424 L32.9077 982.424 L32.9077 994.487 L52.2594 994.487 Q56.6199 994.487 57.8613 993.31 Q59.1026 992.1 59.1026 988.44 L59.1026 982.424 L64.0042 982.424 L64.0042 988.44 Q64.0042 995.219 61.4897 997.797 Q58.9434 1000.38 52.2594 1000.38 L32.9077 1000.38 L32.9077 1004.67 L28.3562 1004.67 L28.3562 1000.38 L18.2347 1000.38 L18.2347 994.487 Z" fill="#000000" fill-rule="nonzero" fill-opacity="1" /><path clip-path="url(#clip860)" d="M32.4621 960.908 Q32.4621 965.619 36.1542 968.356 Q39.8145 971.093 46.212 971.093 Q52.6095 971.093 56.3017 968.388 Q59.9619 965.651 59.9619 960.908 Q59.9619 956.229 56.2698 953.492 Q52.5777 950.755 46.212 950.755 Q39.8781 950.755 36.186 953.492 Q32.4621 956.229 32.4621 960.908 M27.4968 960.908 Q27.4968 953.269 32.4621 948.909 Q37.4273 944.548 46.212 944.548 Q54.9649 944.548 59.9619 948.909 Q64.9272 953.269 64.9272 960.908 Q64.9272 968.579 59.9619 972.939 Q54.9649 977.268 46.212 977.268 Q37.4273 977.268 32.4621 972.939 Q27.4968 968.579 27.4968 960.908 Z" fill="#000000" fill-rule="nonzero" fill-opacity="1" /><path clip-path="url(#clip860)" d="M33.8307 914.184 Q33.2578 915.17 33.0032 916.348 Q32.7167 917.494 32.7167 918.894 Q32.7167 923.86 35.9632 926.533 Q39.1779 929.175 45.2253 929.175 L64.0042 929.175 L64.0042 935.063 L28.3562 935.063 L28.3562 929.175 L33.8944 929.175 Q30.6479 927.329 29.0883 924.369 Q27.4968 921.409 27.4968 917.176 Q27.4968 916.571 27.5923 915.839 Q27.656 915.107 27.8151 914.216 L33.8307 914.184 Z" fill="#000000" fill-rule="nonzero" fill-opacity="1" /><path clip-path="url(#clip860)" d="M46.0847 891.84 Q46.0847 898.938 47.7079 901.675 Q49.3312 904.412 53.2461 904.412 Q56.3653 904.412 58.2114 902.375 Q60.0256 900.307 60.0256 896.774 Q60.0256 891.904 56.5881 888.976 Q53.1188 886.016 47.3897 886.016 L46.0847 886.016 L46.0847 891.84 M43.6657 880.159 L64.0042 880.159 L64.0042 886.016 L58.5933 886.016 Q61.8398 888.021 63.3994 891.013 Q64.9272 894.005 64.9272 898.333 Q64.9272 903.808 61.8716 907.054 Q58.7843 910.269 53.6281 910.269 Q47.6125 910.269 44.5569 906.259 Q41.5014 902.216 41.5014 894.227 L41.5014 886.016 L40.9285 886.016 Q36.8862 886.016 34.6901 888.689 Q32.4621 891.331 32.4621 896.137 Q32.4621 899.193 33.1941 902.089 Q33.9262 904.985 35.3903 907.659 L29.9795 907.659 Q28.7381 904.444 28.1334 901.421 Q27.4968 898.397 27.4968 895.532 Q27.4968 887.798 31.5072 883.979 Q35.5176 880.159 43.6657 880.159 Z" fill="#000000" fill-rule="nonzero" fill-opacity="1" /><path clip-path="url(#clip860)" d="M45.7664 844.638 Q39.4007 844.638 35.8996 847.28 Q32.3984 849.89 32.3984 854.633 Q32.3984 859.343 35.8996 861.985 Q39.4007 864.595 45.7664 864.595 Q52.1003 864.595 55.6014 861.985 Q59.1026 859.343 59.1026 854.633 Q59.1026 849.89 55.6014 847.28 Q52.1003 844.638 45.7664 844.638 M59.58 838.782 Q68.683 838.782 73.1071 842.824 Q77.5631 846.866 77.5631 855.206 Q77.5631 858.293 77.0857 861.03 Q76.6401 863.767 75.6852 866.346 L69.9879 866.346 Q71.3884 863.767 72.0568 861.253 Q72.7252 858.739 72.7252 856.129 Q72.7252 850.368 69.7015 847.503 Q66.7096 844.638 60.6303 844.638 L57.7339 844.638 Q60.885 846.453 62.4446 849.285 Q64.0042 852.118 64.0042 856.065 Q64.0042 862.622 59.0071 866.632 Q54.01 870.642 45.7664 870.642 Q37.491 870.642 32.4939 866.632 Q27.4968 862.622 27.4968 856.065 Q27.4968 852.118 29.0564 849.285 Q30.616 846.453 33.7671 844.638 L28.3562 844.638 L28.3562 838.782 L59.58 838.782 Z" fill="#000000" fill-rule="nonzero" fill-opacity="1" /><path clip-path="url(#clip860)" d="M44.7161 796.227 L47.5806 796.227 L47.5806 823.154 Q53.6281 822.772 56.8109 819.526 Q59.9619 816.247 59.9619 810.423 Q59.9619 807.049 59.1344 803.898 Q58.3069 800.715 56.6518 797.596 L62.1899 797.596 Q63.5267 800.747 64.227 804.057 Q64.9272 807.367 64.9272 810.773 Q64.9272 819.303 59.9619 824.3 Q54.9967 829.265 46.5303 829.265 Q37.7774 829.265 32.6531 824.555 Q27.4968 819.812 27.4968 811.791 Q27.4968 804.598 32.1438 800.429 Q36.7589 796.227 44.7161 796.227 M42.9973 802.084 Q38.1912 802.147 35.3266 804.789 Q32.4621 807.399 32.4621 811.728 Q32.4621 816.629 35.2312 819.589 Q38.0002 822.518 43.0292 822.963 L42.9973 802.084 Z" fill="#000000" fill-rule="nonzero" fill-opacity="1" /><path clip-path="url(#clip860)" d="M14.479 765.895 L14.479 760.038 L64.0042 760.038 L64.0042 765.895 L14.479 765.895 Z" fill="#000000" fill-rule="nonzero" fill-opacity="1" /><path clip-path="url(#clip860)" d="M44.7161 717.293 L47.5806 717.293 L47.5806 744.219 Q53.6281 743.838 56.8109 740.591 Q59.9619 737.313 59.9619 731.488 Q59.9619 728.114 59.1344 724.963 Q58.3069 721.78 56.6518 718.661 L62.1899 718.661 Q63.5267 721.812 64.227 725.122 Q64.9272 728.432 64.9272 731.838 Q64.9272 740.368 59.9619 745.365 Q54.9967 750.331 46.5303 750.331 Q37.7774 750.331 32.6531 745.62 Q27.4968 740.877 27.4968 732.857 Q27.4968 725.663 32.1438 721.494 Q36.7589 717.293 44.7161 717.293 M42.9973 723.149 Q38.1912 723.213 35.3266 725.854 Q32.4621 728.464 32.4621 732.793 Q32.4621 737.695 35.2312 740.655 Q38.0002 743.583 43.0292 744.028 L42.9973 723.149 Z" fill="#000000" fill-rule="nonzero" fill-opacity="1" /><path clip-path="url(#clip860)" d="M28.3562 711.882 L28.3562 705.675 L58.275 694.535 L28.3562 683.395 L28.3562 677.189 L64.0042 690.557 L64.0042 698.514 L28.3562 711.882 Z" fill="#000000" fill-rule="nonzero" fill-opacity="1" /><path clip-path="url(#clip860)" d="M44.7161 638.612 L47.5806 638.612 L47.5806 665.539 Q53.6281 665.157 56.8109 661.911 Q59.9619 658.633 59.9619 652.808 Q59.9619 649.434 59.1344 646.283 Q58.3069 643.1 56.6518 639.981 L62.1899 639.981 Q63.5267 643.132 64.227 646.442 Q64.9272 649.752 64.9272 653.158 Q64.9272 661.688 59.9619 666.685 Q54.9967 671.65 46.5303 671.65 Q37.7774 671.65 32.6531 666.94 Q27.4968 662.197 27.4968 654.177 Q27.4968 646.983 32.1438 642.814 Q36.7589 638.612 44.7161 638.612 M42.9973 644.469 Q38.1912 644.532 35.3266 647.174 Q32.4621 649.784 32.4621 654.113 Q32.4621 659.014 35.2312 661.975 Q38.0002 664.903 43.0292 665.348 L42.9973 644.469 Z" fill="#000000" fill-rule="nonzero" fill-opacity="1" /><path clip-path="url(#clip860)" d="M14.479 629 L14.479 623.144 L64.0042 623.144 L64.0042 629 L14.479 629 Z" fill="#000000" fill-rule="nonzero" fill-opacity="1" /><path clip-path="url(#clip860)" d="M14.479 590.71 L14.479 577.215 L19.0304 577.215 L19.0304 584.854 L68.0464 584.854 L68.0464 577.215 L72.5979 577.215 L72.5979 590.71 L14.479 590.71 Z" fill="#000000" fill-rule="nonzero" fill-opacity="1" /><path clip-path="url(#clip860)" d="M58.657 559.073 L77.5631 559.073 L77.5631 564.961 L28.3562 564.961 L28.3562 559.073 L33.7671 559.073 Q30.5842 557.227 29.0564 554.426 Q27.4968 551.593 27.4968 547.678 Q27.4968 541.185 32.6531 537.143 Q37.8093 533.069 46.212 533.069 Q54.6147 533.069 59.771 537.143 Q64.9272 541.185 64.9272 547.678 Q64.9272 551.593 63.3994 554.426 Q61.8398 557.227 58.657 559.073 M46.212 539.148 Q39.7508 539.148 36.0905 541.822 Q32.3984 544.464 32.3984 549.111 Q32.3984 553.758 36.0905 556.431 Q39.7508 559.073 46.212 559.073 Q52.6732 559.073 56.3653 556.431 Q60.0256 553.758 60.0256 549.111 Q60.0256 544.464 56.3653 541.822 Q52.6732 539.148 46.212 539.148 Z" fill="#000000" fill-rule="nonzero" fill-opacity="1" /><path clip-path="url(#clip860)" d="M55.9197 522.534 L55.9197 515.818 L64.0042 515.818 L64.0042 522.534 L55.9197 522.534 Z" fill="#000000" fill-rule="nonzero" fill-opacity="1" /><path clip-path="url(#clip860)" d="M49.9359 503.246 L28.3562 503.246 L28.3562 497.389 L49.7131 497.389 Q54.7739 497.389 57.3202 495.416 Q59.8346 493.442 59.8346 489.496 Q59.8346 484.753 56.8109 482.016 Q53.7872 479.247 48.5673 479.247 L28.3562 479.247 L28.3562 473.39 L64.0042 473.39 L64.0042 479.247 L58.5296 479.247 Q61.7762 481.379 63.3676 484.212 Q64.9272 487.013 64.9272 490.737 Q64.9272 496.88 61.1078 500.063 Q57.2883 503.246 49.9359 503.246 M27.4968 488.509 L27.4968 488.509 Z" fill="#000000" fill-rule="nonzero" fill-opacity="1" /><path clip-path="url(#clip860)" d="M55.9197 460.5 L55.9197 453.784 L64.0042 453.784 L64.0042 460.5 L55.9197 460.5 Z" fill="#000000" fill-rule="nonzero" fill-opacity="1" /><path clip-path="url(#clip860)" d="M14.479 426.921 L72.5979 426.921 L72.5979 440.416 L68.0464 440.416 L68.0464 432.809 L19.0304 432.809 L19.0304 440.416 L14.479 440.416 L14.479 426.921 Z" fill="#000000" fill-rule="nonzero" fill-opacity="1" /><polyline clip-path="url(#clip861)" style="stroke:#009af9; stroke-linecap:round; stroke-linejoin:round; stroke-width:12; stroke-opacity:1; fill:none" points="280.231,753.798 285.759,743.642 291.287,733.486 296.815,723.331 302.343,714.954 307.871,710.347 313.399,700.191 318.926,690.035 324.454,679.88 329.982,669.724 335.51,659.568 341.038,649.413 346.566,639.257 352.094,629.101 357.622,618.946 363.15,608.79 368.678,598.634 374.206,596.002 379.733,601.456 385.261,602.332 390.789,603.194 396.317,608.647 401.845,609.589 407.373,600.699 412.901,600.036 418.429,591.975 423.957,586.933 429.485,576.777 435.013,566.621 440.541,556.466 446.068,551.372 451.596,541.411 457.124,537.241 462.652,539.094 468.18,543.628 473.708,544.937 479.236,534.782 484.764,524.626 490.292,514.47 495.82,506.742 501.348,503.264 506.875,505.471 512.403,505.843 517.931,504.678 523.459,505.558 528.987,497.836 534.515,489.885 540.043,481.026 545.571,471.748 551.099,461.593 556.627,453.322 562.155,447.118 567.683,439.352 573.21,429.196 578.738,420.647 584.266,421.018 589.794,418.977 595.322,419.184 600.85,416.433 606.378,406.278 611.906,396.122 617.434,386.211 622.962,382.02 628.49,381.021 634.017,371.861 639.545,361.705 645.073,352.386 650.601,350.333 656.129,348.079 661.657,347.86 667.185,343.515 672.713,337.919 678.241,332.119 683.769,324.896 689.297,319.684 694.824,319.047 700.352,322.068 705.88,325.259 711.408,328.163 716.936,322.037 722.464,319.587 727.992,315.334 733.52,318.29 739.048,318.65 744.576,309.469 750.104,304.953 755.632,300.08 761.159,289.925 766.687,279.769 772.215,269.613 777.743,259.864 783.271,254.014 788.799,256.92 794.327,258.997 799.855,262.909 805.383,266.168 810.911,266.041 816.439,267.858 821.966,270.326 827.494,274.01 833.022,271.886 838.55,268.704 844.078,268.252 849.606,266.572 855.134,267.917 860.662,269.86 866.19,269.93 871.718,270.035 877.246,273.025 882.773,274.894 888.301,278.668 893.829,283.359 899.357,290.008 904.885,296.331 910.413,300.027 915.941,305.594 921.469,311.061 926.997,315.745 932.525,318.707 938.053,325.356 943.581,332.005 949.108,338.654 954.636,344.971 960.164,351.62 965.692,358.269 971.22,363.77 976.748,370.419 982.276,377.068 987.804,383.717 993.332,390.366 998.86,397.015 1004.39,403.664 1009.92,410.313 1015.44,416.569 1020.97,422.748 1026.5,429.227 1032.03,435.876 1037.56,442.525 1043.08,449.175 1048.61,455.137 1054.14,460.966 1059.67,467.378 1065.19,473.875 1070.72,479.852 1076.25,485.647 1081.78,491.928 1087.31,498.405 1092.83,505.054 1098.36,511.518 1103.89,518.167 1109.42,524.551 1114.95,531.2 1120.47,537.849 1126,544.498 1131.53,551.147 1137.06,557.586 1142.59,564.235 1148.11,570.884 1153.64,577.533 1159.17,583.864 1164.7,590.513 1170.22,596.818 1175.75,602.647 1181.28,608.391 1186.81,615.04 1192.34,621.538 1197.86,627.43 1203.39,633.696 1208.92,639.325 1214.45,645.498 1219.98,650.951 1225.5,656.404 1231.03,661.924 1236.56,668.153 1242.09,674.802 1247.62,681.213 1253.14,686.847 1258.67,692.3 1264.2,697.753 1269.73,703.408 1275.26,708.999 1280.78,714.81 1286.31,720.766 1291.84,726.619 1297.37,732.289 1302.89,737.742 1308.42,744.391 1313.95,751.04 1319.48,753.601 1325.01,758.155 1330.53,764.804 1336.06,770.615 1341.59,776.081 1347.12,781.535 1352.65,786.988 1358.17,792.642 1363.7,798.365 1369.23,804.301 1374.76,810.791 1380.29,816.686 1385.81,822.521 1391.34,828.832 1396.87,835.088 1402.4,841.227 1407.93,846.91 1413.45,851.335 1418.98,854.551 1424.51,856.677 1430.04,861.593 1435.56,867.204 1441.09,873.455 1446.62,879.599 1452.15,885.196 1457.68,890.649 1463.2,896.127 1468.73,901.794 1474.26,907.511 1479.79,912.964 1485.32,918.417 1490.84,923.871 1496.37,929.324 1501.9,934.777 1507.43,940.231 1512.96,945.684 1518.48,951.477 1524.01,957.318 1529.54,963.129 1535.07,969.282 1540.6,975.578 1546.12,981.982 1551.65,987.621 1557.18,993.074 1562.71,998.528 1568.23,1004.03 1573.76,1006.73 1579.29,1009.94 1584.82,1010.73 1590.35,1014.12 1595.87,1016.43 1601.4,1020.69 1606.93,1026.91 1612.46,1032.36 1617.99,1037.82 1623.51,1042.86 1629.04,1048.85 1634.57,1054.31 1640.1,1059.76 1645.63,1060.62 1651.15,1062.44 1656.68,1066.36 1662.21,1072.62 1667.74,1078.07 1673.26,1083.53 1678.79,1086.5 1684.32,1085.53 1689.85,1087.3 1695.38,1083.67 1700.9,1080.48 1706.43,1081.37 1711.96,1078 1717.49,1078.33 1723.02,1081.84 1728.54,1087.29 1734.07,1092.74 1739.6,1096.44 1745.13,1100.5 1750.66,1101.41 1756.18,1106.92 1761.71,1112.38 1767.24,1114.64 1772.77,1114.99 1778.3,1117.23 1783.82,1117.59 1789.35,1117.49 1794.88,1120.05 1800.41,1125.5 1805.93,1130.96 1811.46,1134.34 1816.99,1134.35 1822.52,1134.5 1828.05,1140.09 1833.57,1145.55 1839.1,1151 1844.63,1152.98 1850.16,1158.52 1855.69,1162.71 1861.21,1166.72 1866.74,1168.26 1872.27,1170.88 1877.8,1176.34 1883.33,1181.79 1888.85,1187.24 1894.38,1192.7 1899.91,1194.1 1905.44,1189.54 1910.97,1188.48 1916.49,1189.34 1922.02,1190.32 1927.55,1189.93 1933.08,1190.94 1938.6,1192.15 1944.13,1195.29 1949.66,1197.42 1955.19,1193.52 1960.72,1193.28 1966.24,1194.19 1971.77,1199.02 1977.3,1204.47 1982.83,1209.66 1988.36,1210.42 1993.88,1204.92 1999.41,1198.71 2004.94,1188.55 2010.47,1179.31 2016,1172.57 2021.52,1168.08 2027.05,1159.52 2032.58,1149.37 2038.11,1144.89 2043.64,1137.71 2049.16,1129.88 2054.69,1120.37 2060.22,1110.21 2065.75,1103.97 2071.27,1098.05 2076.8,1093.45 2082.33,1096.73 2087.86,1087.56 2093.39,1077.9 2098.91,1074.05 2104.44,1063.89 2109.97,1053.74 2115.5,1043.58 2121.03,1033.43 2126.55,1023.27 2132.08,1015.01 2137.61,1006.13 2143.14,995.977 2148.67,985.821 2154.19,975.666 2159.72,965.51 2165.25,956.438 2170.78,946.282 2176.3,936.126 2181.83,925.97 2187.36,916.333 2192.89,914.892 2198.42,915.13 2203.94,915.827 2209.47,907.783 2215,897.628 2220.53,887.472 2226.06,877.316 2231.58,867.16 2237.11,857.005 2242.64,846.849 2248.17,836.693 2253.7,826.538 2259.22,816.382 2264.75,806.391 2270.28,799.096 2275.81,792.317 2281.34,784.265 2286.86,774.109 2292.39,763.954 "/>
<polyline clip-path="url(#clip861)" style="stroke:#e26f46; stroke-linecap:round; stroke-linejoin:round; stroke-width:12; stroke-opacity:1; fill:none" points="280.231,772.26 285.759,780.566 291.287,788.872 296.815,797.179 302.343,805.089 307.871,812.158 313.399,820.465 318.926,828.771 324.454,837.077 329.982,845.384 335.51,853.69 341.038,861.996 346.566,870.302 352.094,878.609 357.622,886.915 363.15,895.221 368.678,903.528 374.206,910.157 379.733,914.985 385.261,920.833 390.789,926.685 396.317,931.513 401.845,937.346 407.373,945.37 412.901,951.561 418.429,959.401 423.957,966.568 429.485,974.874 435.013,983.18 440.541,991.486 446.068,998.665 451.596,1006.93 457.124,1013.9 462.652,1019.53 468.18,1024.56 473.708,1030.31 479.236,1038.62 484.764,1046.93 490.292,1055.23 495.82,1063 501.348,1069.82 506.875,1075.37 512.403,1081.33 517.931,1087.63 523.459,1093.48 528.987,1097.86 534.515,1102.61 540.043,1109.47 545.571,1116.36 551.099,1124.67 556.627,1129.94 562.155,1137.36 567.683,1144.26 573.21,1152.57 578.738,1160.52 584.266,1166.48 589.794,1172.97 595.322,1178.97 600.85,1185.63 606.378,1193.93 611.906,1202.24 617.434,1210.15 622.962,1217.13 628.49,1223.39 634.017,1231.48 639.545,1239.79 645.073,1246.74 650.601,1253.24 656.129,1248.81 661.657,1252.77 667.185,1259.78 672.713,1260.74 678.241,1264.45 683.769,1270.76 689.297,1271.1 694.824,1264.06 700.352,1269.43 705.88,1274.76 711.408,1280.15 716.936,1287.56 722.464,1294.15 727.992,1293.71 733.52,1299.1 739.048,1305.06 744.576,1313.15 750.104,1320.2 755.632,1327.33 761.159,1335.63 766.687,1343.94 772.215,1352.25 777.743,1360.46 783.271,1363.19 788.799,1368.59 794.327,1373.75 799.855,1378.92 805.383,1384.24 810.911,1376.38 816.439,1367.99 821.966,1357.19 827.494,1350.98 833.022,1355.16 838.55,1352.23 844.078,1344.89 849.606,1339.53 855.134,1329.29 860.662,1318.09 866.19,1313.35 871.718,1316.08 877.246,1306.28 882.773,1295.2 888.301,1284.23 893.829,1273.58 899.357,1254.79 904.885,1242.45 910.413,1241.71 915.941,1244.28 921.469,1248.85 926.997,1248.67 932.525,1235.83 938.053,1217.04 943.581,1198.25 949.108,1179.46 954.636,1167.25 960.164,1148.46 965.692,1129.67 971.22,1112.74 976.748,1093.95 982.276,1075.16 987.804,1056.38 993.332,1037.59 998.86,1018.8 1004.39,1000.02 1009.92,981.23 1015.44,970.221 1020.97,960.702 1026.5,945.277 1032.03,926.49 1037.56,907.703 1043.08,888.917 1048.61,883.684 1054.14,881.09 1059.67,866.996 1065.19,851.203 1070.72,845.687 1076.25,843.779 1081.78,832.26 1087.31,816.88 1092.83,798.093 1098.36,782.948 1103.89,764.161 1109.42,745.803 1114.95,727.016 1120.47,708.229 1126,689.443 1131.53,670.656 1137.06,656.021 1142.59,637.234 1148.11,618.448 1153.64,599.661 1159.17,587.169 1164.7,568.382 1170.22,556.385 1175.75,553.792 1181.28,552.883 1186.81,534.097 1192.34,518.29 1197.86,514.453 1203.39,503.227 1208.92,486.085 1214.45,476.713 1219.98,481.541 1225.5,486.369 1231.03,489.888 1236.56,479.403 1242.09,460.616 1247.62,446.518 1253.14,447.795 1258.67,452.623 1264.2,457.451 1269.73,458.305 1275.26,460.405 1280.78,458.175 1286.31,453.073 1291.84,450.009 1297.37,450.56 1302.89,455.388 1308.42,436.601 1313.95,417.814 1319.48,405.619 1325.01,390.21 1330.53,371.423 1336.06,369.172 1341.59,373.748 1347.12,378.576 1352.65,383.404 1358.17,384.279 1363.7,383.771 1369.23,379.06 1374.76,363.414 1380.29,359.52 1385.81,356.816 1391.34,344.704 1396.87,333.679 1402.4,324.975 1407.93,325.259 1413.45,312.207 1418.98,298.956 1424.51,300.171 1430.04,299.313 1435.56,286.214 1441.09,275.289 1446.62,266.475 1452.15,268.464 1457.68,273.292 1463.2,277.644 1468.73,278.238 1474.26,277.871 1479.79,282.699 1485.32,287.527 1490.84,292.355 1496.37,297.183 1501.9,302.011 1507.43,306.839 1512.96,311.667 1518.48,309.774 1524.01,306.952 1529.54,304.713 1535.07,295.736 1540.6,279.451 1546.12,265.489 1551.65,266.655 1557.18,271.483 1562.71,276.311 1568.23,280.263 1573.76,279.018 1579.29,268.904 1584.82,259.567 1590.35,251.361 1595.87,243.308 1601.4,233.09 1606.93,222.74 1612.46,227.568 1617.99,232.396 1623.51,224.637 1629.04,210.285 1634.57,215.113 1640.1,219.941 1645.63,213.928 1651.15,208.606 1656.68,198.01 1662.21,186.978 1667.74,191.806 1673.26,196.634 1678.79,197.981 1684.32,193.527 1689.85,189.561 1695.38,187.353 1700.9,184.837 1706.43,190.683 1711.96,190.549 1717.49,181.94 1723.02,180.233 1728.54,185.061 1734.07,189.889 1739.6,193.892 1745.13,199.033 1750.66,204.872 1756.18,208.53 1761.71,213.359 1767.24,218.898 1772.77,224.863 1778.3,230.407 1783.82,234.512 1789.35,226.609 1794.88,214.409 1800.41,219.237 1805.93,224.065 1811.46,229.353 1816.99,221.534 1822.52,216.2 1828.05,218.355 1833.57,223.183 1839.1,228.011 1844.63,233.612 1850.16,236.714 1855.69,236.147 1861.21,235.429 1866.74,228.671 1872.27,222.825 1877.8,227.653 1883.33,232.481 1888.85,237.309 1894.38,242.137 1899.91,247.867 1905.44,247.149 1910.97,240.801 1916.49,246.322 1922.02,238.836 1927.55,243.441 1933.08,247.669 1938.6,249.292 1944.13,254.638 1949.66,260.205 1955.19,265.026 1960.72,260.636 1966.24,257.704 1971.77,262.672 1977.3,267.5 1982.83,272.386 1988.36,278.261 1993.88,282.759 1999.41,284.713 2004.94,293.019 2010.47,299.851 2016,302.652 2021.52,303.676 2027.05,309.401 2032.58,317.707 2038.11,324.748 2043.64,332.391 2049.16,338.763 2054.69,346.029 2060.22,354.335 2065.75,361.769 2071.27,369.132 2076.8,376.201 2082.33,381.512 2087.86,388.236 2093.39,396.433 2098.91,403.333 2104.44,411.639 2109.97,419.945 2115.5,428.252 2121.03,436.558 2126.55,444.864 2132.08,451.703 2137.61,459.724 2143.14,468.03 2148.67,476.336 2154.19,484.643 2159.72,492.949 2165.25,501.014 2170.78,509.32 2176.3,517.626 2181.83,525.933 2187.36,534.124 2192.89,540.488 2198.42,546.478 2203.94,552.366 2209.47,560.202 2215,568.508 2220.53,576.814 2226.06,585.121 2231.58,593.427 2237.11,601.733 2242.64,610.039 2248.17,618.346 2253.7,626.652 2259.22,634.958 2264.75,643.228 2270.28,650.897 2275.81,658.45 2281.34,666.288 2286.86,674.594 2292.39,682.901 "/>
<polyline clip-path="url(#clip861)" style="stroke:#3da44d; stroke-linecap:round; stroke-linejoin:round; stroke-width:12; stroke-opacity:1; fill:none" points="280.231,444.307 285.759,452.404 291.287,460.501 296.815,468.598 302.343,475.122 307.871,478.309 313.399,486.407 318.926,494.504 324.454,502.601 329.982,510.698 335.51,518.795 341.038,526.893 346.566,534.99 352.094,543.087 357.622,551.184 363.15,559.281 368.678,567.379 374.206,568.819 379.733,563.105 385.261,561.441 390.789,559.79 396.317,554.077 401.845,552.355 407.373,559.332 412.901,559.03 418.429,565.274 423.957,568.846 429.485,576.944 435.013,585.041 440.541,593.138 446.068,596.757 451.596,604.682 457.124,607.482 462.652,604.954 468.18,600.054 473.708,598.007 479.236,606.104 484.764,614.201 490.292,622.298 495.82,628.247 501.348,630.437 506.875,627.595 512.403,626.378 517.931,626.519 523.459,624.852 528.987,631.276 534.515,637.857 540.043,644.971 545.571,652.464 551.099,660.561 556.627,667.362 562.155,671.963 567.683,678.07 573.21,686.167 578.738,692.843 584.266,691.626 589.794,692.543 595.322,691.471 600.85,693.017 606.378,701.114 611.906,709.211 617.434,717.14 622.962,719.96 628.49,719.955 634.017,727.172 639.545,735.269 645.073,742.791 650.601,743.718 656.129,746.381 661.657,745.989 667.185,748.945 672.713,753.906 678.241,758.663 683.769,764.356 689.297,769.053 694.824,770.603 700.352,767.042 705.88,763.33 711.408,759.872 716.936,764.404 722.464,765.683 727.992,769.611 733.52,766.108 739.048,764.9 744.576,772.135 750.104,775.242 755.632,778.665 761.159,786.762 766.687,794.859 772.215,802.956 777.743,810.694 783.271,815.637 788.799,812.177 794.327,809.51 799.855,805.16 805.383,801.387 810.911,802.587 816.439,802.08 821.966,801.319 827.494,798.792 833.022,800.114 838.55,803.415 844.078,804.838 849.606,807.107 855.134,807.294 860.662,807.07 866.19,807.648 871.718,807.132 877.246,805.751 882.773,805.578 888.301,803.643 893.829,800.824 899.357,797.364 904.885,793.289 910.413,789.976 915.941,784.477 921.469,778.788 926.997,774.489 932.525,773.565 938.053,770.105 943.581,766.644 949.108,763.184 954.636,759.097 960.164,755.636 965.692,752.176 971.22,749.506 976.748,746.045 982.276,742.585 987.804,739.125 993.332,735.664 998.86,732.204 1004.39,728.744 1009.92,725.284 1015.44,721.081 1020.97,716.736 1026.5,712.955 1032.03,709.495 1037.56,706.035 1043.08,702.574 1048.61,697.821 1054.14,692.815 1059.67,688.907 1065.19,685.161 1070.72,680.434 1076.25,675.364 1081.78,671.21 1087.31,667.424 1092.83,663.964 1098.36,660.156 1103.89,656.696 1109.42,653.418 1114.95,649.958 1120.47,646.498 1126,643.038 1131.53,639.577 1137.06,635.721 1142.59,632.26 1148.11,628.8 1153.64,625.34 1159.17,621.279 1164.7,617.818 1170.22,613.71 1175.75,608.705 1181.28,603.538 1186.81,600.078 1192.34,596.333 1197.86,591.446 1203.39,587.265 1208.92,584.506 1214.45,580.147 1219.98,574.434 1225.5,568.72 1231.03,563.131 1236.56,558.879 1242.09,555.418 1247.62,551.511 1253.14,546.136 1258.67,540.422 1264.2,534.709 1269.73,529.374 1275.26,523.921 1280.78,518.881 1286.31,514.114 1291.84,509.154 1297.37,503.848 1302.89,498.135 1308.42,494.674 1313.95,491.214 1319.48,490.566 1325.01,488.546 1330.53,485.086 1336.06,480.048 1341.59,474.358 1347.12,468.645 1352.65,462.931 1358.17,457.594 1363.7,452.39 1369.23,447.587 1374.76,443.827 1380.29,438.945 1385.81,433.95 1391.34,429.853 1396.87,425.652 1402.4,421.23 1407.93,415.949 1413.45,413.714 1418.98,412.615 1424.51,410.463 1430.04,406.048 1435.56,402.732 1441.09,398.522 1446.62,394.11 1452.15,388.667 1457.68,382.953 1463.2,377.285 1468.73,371.976 1474.26,366.758 1479.79,361.044 1485.32,355.33 1490.84,349.617 1496.37,343.903 1501.9,338.189 1507.43,332.476 1512.96,326.762 1518.48,321.69 1524.01,316.706 1529.54,311.667 1535.07,307.27 1540.6,303.779 1546.12,299.858 1551.65,294.494 1557.18,288.78 1562.71,283.066 1568.23,277.436 1573.76,275.107 1579.29,273.563 1584.82,274.133 1590.35,272.157 1595.87,271.154 1601.4,268.667 1606.93,264.402 1612.46,258.688 1617.99,252.975 1623.51,249.423 1629.04,245.935 1634.57,240.221 1640.1,234.508 1645.63,234.537 1651.15,233.594 1656.68,231.472 1662.21,227.272 1667.74,221.558 1673.26,215.845 1678.79,212.892 1684.32,214.381 1689.85,213.293 1695.38,216.905 1700.9,220.149 1706.43,218.476 1711.96,221.552 1717.49,222.434 1723.02,219.434 1728.54,213.721 1734.07,208.007 1739.6,204.018 1745.13,199.544 1750.66,197.844 1756.18,192.242 1761.71,186.528 1767.24,183.638 1772.77,182.441 1778.3,179.57 1783.82,178.626 1789.35,179.809 1794.88,179.158 1800.41,173.444 1805.93,167.731 1811.46,163.846 1816.99,164.917 1822.52,165.503 1828.05,160.044 1833.57,154.33 1839.1,148.617 1844.63,145.973 1850.16,140.424 1855.69,136.637 1861.21,133.033 1866.74,132.546 1872.27,130.941 1877.8,125.227 1883.33,119.514 1888.85,113.8 1894.38,108.086 1899.91,105.955 1905.44,110.202 1910.97,112.048 1916.49,110.444 1922.02,110.571 1927.55,110.252 1933.08,108.69 1938.6,107.316 1944.13,103.657 1949.66,100.879 1955.19,103.737 1960.72,104.554 1966.24,104.099 1971.77,98.9405 1977.3,93.2269 1982.83,87.7457 1988.36,86.1857 1993.88,90.5552 1999.41,95.9425 2004.94,104.04 2010.47,111.508 2016,117.257 2021.52,121.197 2027.05,128.193 2032.58,136.29 2038.11,139.364 2043.64,144.826 2049.16,151.066 2054.69,158.72 2060.22,166.817 2065.75,171.45 2071.27,175.801 2076.8,178.987 2082.33,175.191 2087.86,182.613 2093.39,190.274 2098.91,192.787 2104.44,200.885 2109.97,208.982 2115.5,217.079 2121.03,225.176 2126.55,233.273 2132.08,239.847 2137.61,246.809 2143.14,254.907 2148.67,263.004 2154.19,271.101 2159.72,279.198 2165.25,286.337 2170.78,294.434 2176.3,302.531 2181.83,310.628 2187.36,318.267 2192.89,318.654 2198.42,317.554 2203.94,316.049 2209.47,322.278 2215,330.375 2220.53,338.472 2226.06,346.569 2231.58,354.666 2237.11,362.764 2242.64,370.861 2248.17,378.958 2253.7,387.055 2259.22,395.152 2264.75,403.104 2270.28,408.67 2275.81,413.779 2281.34,420.015 2286.86,428.112 2292.39,436.21 "/>
<path clip-path="url(#clip860)" d="M290.963 300.469 L984.087 300.469 L984.087 93.1086 L290.963 93.1086  Z" fill="#ffffff" fill-rule="evenodd" fill-opacity="1"/>
<polyline clip-path="url(#clip860)" style="stroke:#000000; stroke-linecap:round; stroke-linejoin:round; stroke-width:4; stroke-opacity:1; fill:none" points="290.963,300.469 984.087,300.469 984.087,93.1086 290.963,93.1086 290.963,300.469 "/>
<polyline clip-path="url(#clip860)" style="stroke:#009af9; stroke-linecap:round; stroke-linejoin:round; stroke-width:12; stroke-opacity:1; fill:none" points="314.661,144.949 456.854,144.949 "/>
<path clip-path="url(#clip860)" d="M480.553 127.669 L502.405 127.669 L502.405 131.604 L485.229 131.604 L485.229 141.835 L501.687 141.835 L501.687 145.77 L485.229 145.77 L485.229 158.293 L502.821 158.293 L502.821 162.229 L480.553 162.229 L480.553 127.669 Z" fill="#000000" fill-rule="nonzero" fill-opacity="1" /><path clip-path="url(#clip860)" d="M531.224 128.803 L531.224 133.363 Q528.562 132.09 526.201 131.465 Q523.84 130.84 521.641 130.84 Q517.821 130.84 515.738 132.321 Q513.678 133.803 513.678 136.534 Q513.678 138.826 515.043 140.007 Q516.432 141.164 520.275 141.882 L523.099 142.46 Q528.33 143.456 530.807 145.979 Q533.307 148.479 533.307 152.692 Q533.307 157.715 529.928 160.307 Q526.571 162.9 520.066 162.9 Q517.613 162.9 514.835 162.344 Q512.08 161.789 509.117 160.701 L509.117 155.886 Q511.965 157.483 514.696 158.293 Q517.428 159.104 520.066 159.104 Q524.071 159.104 526.247 157.53 Q528.423 155.956 528.423 153.039 Q528.423 150.493 526.849 149.057 Q525.298 147.622 521.733 146.905 L518.886 146.349 Q513.654 145.307 511.317 143.085 Q508.979 140.863 508.979 136.905 Q508.979 132.321 512.196 129.682 Q515.437 127.044 521.108 127.044 Q523.539 127.044 526.062 127.483 Q528.585 127.923 531.224 128.803 Z" fill="#000000" fill-rule="nonzero" fill-opacity="1" /><path clip-path="url(#clip860)" d="M560.113 170.099 L560.113 173.409 L535.483 173.409 L535.483 170.099 L560.113 170.099 Z" fill="#000000" fill-rule="nonzero" fill-opacity="1" /><path clip-path="url(#clip860)" d="M564.302 127.669 L568.978 127.669 L568.978 141.835 L585.969 141.835 L585.969 127.669 L590.645 127.669 L590.645 162.229 L585.969 162.229 L585.969 145.77 L568.978 145.77 L568.978 162.229 L564.302 162.229 L564.302 127.669 Z" fill="#000000" fill-rule="nonzero" fill-opacity="1" /><path clip-path="url(#clip860)" d="M610.552 164.636 Q608.747 169.266 607.034 170.678 Q605.321 172.09 602.45 172.09 L599.048 172.09 L599.048 168.525 L601.547 168.525 Q603.307 168.525 604.279 167.692 Q605.251 166.858 606.432 163.756 L607.196 161.812 L596.71 136.303 L601.223 136.303 L609.325 156.581 L617.427 136.303 L621.941 136.303 L610.552 164.636 Z" fill="#000000" fill-rule="nonzero" fill-opacity="1" /><path clip-path="url(#clip860)" d="M644.881 140.238 L644.881 126.21 L649.14 126.21 L649.14 162.229 L644.881 162.229 L644.881 158.34 Q643.538 160.655 641.478 161.789 Q639.441 162.9 636.57 162.9 Q631.871 162.9 628.908 159.15 Q625.969 155.4 625.969 149.289 Q625.969 143.178 628.908 139.428 Q631.871 135.678 636.57 135.678 Q639.441 135.678 641.478 136.812 Q643.538 137.923 644.881 140.238 M630.367 149.289 Q630.367 153.988 632.288 156.673 Q634.233 159.335 637.612 159.335 Q640.992 159.335 642.936 156.673 Q644.881 153.988 644.881 149.289 Q644.881 144.59 642.936 141.928 Q640.992 139.243 637.612 139.243 Q634.233 139.243 632.288 141.928 Q630.367 144.59 630.367 149.289 Z" fill="#000000" fill-rule="nonzero" fill-opacity="1" /><path clip-path="url(#clip860)" d="M672.936 140.284 Q672.218 139.868 671.362 139.682 Q670.529 139.474 669.51 139.474 Q665.899 139.474 663.955 141.835 Q662.033 144.173 662.033 148.571 L662.033 162.229 L657.751 162.229 L657.751 136.303 L662.033 136.303 L662.033 140.331 Q663.376 137.969 665.529 136.835 Q667.681 135.678 670.76 135.678 Q671.2 135.678 671.732 135.747 Q672.265 135.794 672.913 135.909 L672.936 140.284 Z" fill="#000000" fill-rule="nonzero" fill-opacity="1" /><path clip-path="url(#clip860)" d="M686.408 139.289 Q682.982 139.289 680.992 141.974 Q679.001 144.636 679.001 149.289 Q679.001 153.942 680.968 156.627 Q682.959 159.289 686.408 159.289 Q689.811 159.289 691.802 156.604 Q693.792 153.918 693.792 149.289 Q693.792 144.682 691.802 141.997 Q689.811 139.289 686.408 139.289 M686.408 135.678 Q691.964 135.678 695.135 139.289 Q698.306 142.9 698.306 149.289 Q698.306 155.655 695.135 159.289 Q691.964 162.9 686.408 162.9 Q680.829 162.9 677.658 159.289 Q674.51 155.655 674.51 149.289 Q674.51 142.9 677.658 139.289 Q680.829 135.678 686.408 135.678 Z" fill="#000000" fill-rule="nonzero" fill-opacity="1" /><path clip-path="url(#clip860)" d="M725.065 170.099 L725.065 173.409 L700.436 173.409 L700.436 170.099 L725.065 170.099 Z" fill="#000000" fill-rule="nonzero" fill-opacity="1" /><path clip-path="url(#clip860)" d="M745.644 146.025 Q747.149 146.534 748.561 148.201 Q749.996 149.868 751.431 152.784 L756.176 162.229 L751.153 162.229 L746.732 153.363 Q745.019 149.891 743.399 148.756 Q741.801 147.622 739.024 147.622 L733.931 147.622 L733.931 162.229 L729.255 162.229 L729.255 127.669 L739.811 127.669 Q745.737 127.669 748.653 130.145 Q751.57 132.622 751.57 137.622 Q751.57 140.886 750.042 143.039 Q748.537 145.192 745.644 146.025 M733.931 131.511 L733.931 143.78 L739.811 143.78 Q743.19 143.78 744.903 142.229 Q746.639 140.655 746.639 137.622 Q746.639 134.59 744.903 133.062 Q743.19 131.511 739.811 131.511 L733.931 131.511 Z" fill="#000000" fill-rule="nonzero" fill-opacity="1" /><path clip-path="url(#clip860)" d="M782.056 148.201 L782.056 150.284 L762.473 150.284 Q762.75 154.682 765.111 156.997 Q767.496 159.289 771.732 159.289 Q774.185 159.289 776.477 158.687 Q778.792 158.085 781.06 156.881 L781.06 160.909 Q778.769 161.881 776.361 162.391 Q773.954 162.9 771.477 162.9 Q765.273 162.9 761.639 159.289 Q758.028 155.678 758.028 149.52 Q758.028 143.155 761.454 139.428 Q764.903 135.678 770.736 135.678 Q775.968 135.678 779 139.057 Q782.056 142.414 782.056 148.201 M777.797 146.951 Q777.75 143.456 775.829 141.372 Q773.931 139.289 770.783 139.289 Q767.218 139.289 765.065 141.303 Q762.936 143.317 762.611 146.974 L777.797 146.951 Z" fill="#000000" fill-rule="nonzero" fill-opacity="1" /><path clip-path="url(#clip860)" d="M805.574 137.067 L805.574 141.094 Q803.769 140.169 801.824 139.706 Q799.88 139.243 797.796 139.243 Q794.625 139.243 793.028 140.215 Q791.454 141.187 791.454 143.131 Q791.454 144.613 792.588 145.469 Q793.722 146.303 797.148 147.067 L798.607 147.391 Q803.144 148.363 805.042 150.145 Q806.963 151.905 806.963 155.076 Q806.963 158.687 804.093 160.793 Q801.246 162.9 796.246 162.9 Q794.162 162.9 791.894 162.483 Q789.648 162.09 787.148 161.28 L787.148 156.881 Q789.509 158.108 791.801 158.733 Q794.093 159.335 796.338 159.335 Q799.347 159.335 800.968 158.317 Q802.588 157.275 802.588 155.4 Q802.588 153.664 801.408 152.738 Q800.25 151.812 796.292 150.956 L794.81 150.608 Q790.852 149.775 789.093 148.062 Q787.334 146.326 787.334 143.317 Q787.334 139.659 789.926 137.669 Q792.519 135.678 797.287 135.678 Q799.648 135.678 801.732 136.025 Q803.815 136.372 805.574 137.067 Z" fill="#000000" fill-rule="nonzero" fill-opacity="1" /><path clip-path="url(#clip860)" d="M835.921 148.201 L835.921 150.284 L816.338 150.284 Q816.616 154.682 818.977 156.997 Q821.361 159.289 825.597 159.289 Q828.051 159.289 830.343 158.687 Q832.657 158.085 834.926 156.881 L834.926 160.909 Q832.634 161.881 830.227 162.391 Q827.819 162.9 825.343 162.9 Q819.139 162.9 815.505 159.289 Q811.894 155.678 811.894 149.52 Q811.894 143.155 815.32 139.428 Q818.769 135.678 824.602 135.678 Q829.833 135.678 832.866 139.057 Q835.921 142.414 835.921 148.201 M831.662 146.951 Q831.616 143.456 829.694 141.372 Q827.796 139.289 824.648 139.289 Q821.083 139.289 818.931 141.303 Q816.801 143.317 816.477 146.974 L831.662 146.951 Z" fill="#000000" fill-rule="nonzero" fill-opacity="1" /><path clip-path="url(#clip860)" d="M857.935 140.284 Q857.217 139.868 856.361 139.682 Q855.528 139.474 854.509 139.474 Q850.898 139.474 848.954 141.835 Q847.032 144.173 847.032 148.571 L847.032 162.229 L842.75 162.229 L842.75 136.303 L847.032 136.303 L847.032 140.331 Q848.375 137.969 850.528 136.835 Q852.68 135.678 855.759 135.678 Q856.199 135.678 856.731 135.747 Q857.264 135.794 857.912 135.909 L857.935 140.284 Z" fill="#000000" fill-rule="nonzero" fill-opacity="1" /><path clip-path="url(#clip860)" d="M859.347 136.303 L863.861 136.303 L871.963 158.062 L880.065 136.303 L884.578 136.303 L874.856 162.229 L869.069 162.229 L859.347 136.303 Z" fill="#000000" fill-rule="nonzero" fill-opacity="1" /><path clip-path="url(#clip860)" d="M900.504 139.289 Q897.078 139.289 895.088 141.974 Q893.097 144.636 893.097 149.289 Q893.097 153.942 895.064 156.627 Q897.055 159.289 900.504 159.289 Q903.907 159.289 905.898 156.604 Q907.888 153.918 907.888 149.289 Q907.888 144.682 905.898 141.997 Q903.907 139.289 900.504 139.289 M900.504 135.678 Q906.06 135.678 909.231 139.289 Q912.402 142.9 912.402 149.289 Q912.402 155.655 909.231 159.289 Q906.06 162.9 900.504 162.9 Q894.926 162.9 891.754 159.289 Q888.606 155.655 888.606 149.289 Q888.606 142.9 891.754 139.289 Q894.926 135.678 900.504 135.678 Z" fill="#000000" fill-rule="nonzero" fill-opacity="1" /><path clip-path="url(#clip860)" d="M919.462 136.303 L923.722 136.303 L923.722 162.229 L919.462 162.229 L919.462 136.303 M919.462 126.21 L923.722 126.21 L923.722 131.604 L919.462 131.604 L919.462 126.21 Z" fill="#000000" fill-rule="nonzero" fill-opacity="1" /><path clip-path="url(#clip860)" d="M947.657 140.284 Q946.939 139.868 946.083 139.682 Q945.249 139.474 944.231 139.474 Q940.62 139.474 938.675 141.835 Q936.754 144.173 936.754 148.571 L936.754 162.229 L932.472 162.229 L932.472 136.303 L936.754 136.303 L936.754 140.331 Q938.097 137.969 940.249 136.835 Q942.402 135.678 945.481 135.678 Q945.921 135.678 946.453 135.747 Q946.985 135.794 947.634 135.909 L947.657 140.284 Z" fill="#000000" fill-rule="nonzero" fill-opacity="1" /><polyline clip-path="url(#clip860)" style="stroke:#e26f46; stroke-linecap:round; stroke-linejoin:round; stroke-width:12; stroke-opacity:1; fill:none" points="314.661,196.789 456.854,196.789 "/>
<path clip-path="url(#clip860)" d="M480.553 179.509 L500.414 179.509 L500.414 183.444 L485.229 183.444 L485.229 193.629 L498.932 193.629 L498.932 197.564 L485.229 197.564 L485.229 214.069 L480.553 214.069 L480.553 179.509 Z" fill="#000000" fill-rule="nonzero" fill-opacity="1" /><path clip-path="url(#clip860)" d="M524.21 197.865 Q525.715 198.374 527.127 200.041 Q528.562 201.708 529.997 204.624 L534.742 214.069 L529.719 214.069 L525.298 205.203 Q523.585 201.731 521.965 200.596 Q520.367 199.462 517.59 199.462 L512.497 199.462 L512.497 214.069 L507.821 214.069 L507.821 179.509 L518.377 179.509 Q524.303 179.509 527.219 181.985 Q530.136 184.462 530.136 189.462 Q530.136 192.726 528.608 194.879 Q527.103 197.032 524.21 197.865 M512.497 183.351 L512.497 195.62 L518.377 195.62 Q521.756 195.62 523.469 194.069 Q525.205 192.495 525.205 189.462 Q525.205 186.43 523.469 184.902 Q521.756 183.351 518.377 183.351 L512.497 183.351 Z" fill="#000000" fill-rule="nonzero" fill-opacity="1" /><path clip-path="url(#clip860)" d="M560.275 221.939 L560.275 225.249 L535.645 225.249 L535.645 221.939 L560.275 221.939 Z" fill="#000000" fill-rule="nonzero" fill-opacity="1" /><path clip-path="url(#clip860)" d="M564.464 179.509 L569.14 179.509 L569.14 193.675 L586.131 193.675 L586.131 179.509 L590.807 179.509 L590.807 214.069 L586.131 214.069 L586.131 197.61 L569.14 197.61 L569.14 214.069 L564.464 214.069 L564.464 179.509 Z" fill="#000000" fill-rule="nonzero" fill-opacity="1" /><path clip-path="url(#clip860)" d="M610.714 216.476 Q608.909 221.106 607.196 222.518 Q605.483 223.93 602.612 223.93 L599.21 223.93 L599.21 220.365 L601.71 220.365 Q603.469 220.365 604.441 219.532 Q605.413 218.698 606.594 215.596 L607.358 213.652 L596.872 188.143 L601.385 188.143 L609.487 208.421 L617.589 188.143 L622.103 188.143 L610.714 216.476 Z" fill="#000000" fill-rule="nonzero" fill-opacity="1" /><path clip-path="url(#clip860)" d="M645.043 192.078 L645.043 178.05 L649.302 178.05 L649.302 214.069 L645.043 214.069 L645.043 210.18 Q643.7 212.495 641.64 213.629 Q639.603 214.74 636.732 214.74 Q632.033 214.74 629.071 210.99 Q626.131 207.24 626.131 201.129 Q626.131 195.018 629.071 191.268 Q632.033 187.518 636.732 187.518 Q639.603 187.518 641.64 188.652 Q643.7 189.763 645.043 192.078 M630.529 201.129 Q630.529 205.828 632.45 208.513 Q634.395 211.175 637.774 211.175 Q641.154 211.175 643.098 208.513 Q645.043 205.828 645.043 201.129 Q645.043 196.43 643.098 193.768 Q641.154 191.083 637.774 191.083 Q634.395 191.083 632.45 193.768 Q630.529 196.43 630.529 201.129 Z" fill="#000000" fill-rule="nonzero" fill-opacity="1" /><path clip-path="url(#clip860)" d="M673.098 192.124 Q672.38 191.708 671.524 191.522 Q670.691 191.314 669.672 191.314 Q666.061 191.314 664.117 193.675 Q662.195 196.013 662.195 200.411 L662.195 214.069 L657.913 214.069 L657.913 188.143 L662.195 188.143 L662.195 192.171 Q663.538 189.809 665.691 188.675 Q667.843 187.518 670.922 187.518 Q671.362 187.518 671.894 187.587 Q672.427 187.634 673.075 187.749 L673.098 192.124 Z" fill="#000000" fill-rule="nonzero" fill-opacity="1" /><path clip-path="url(#clip860)" d="M686.57 191.129 Q683.144 191.129 681.154 193.814 Q679.163 196.476 679.163 201.129 Q679.163 205.782 681.13 208.467 Q683.121 211.129 686.57 211.129 Q689.973 211.129 691.964 208.444 Q693.954 205.758 693.954 201.129 Q693.954 196.522 691.964 193.837 Q689.973 191.129 686.57 191.129 M686.57 187.518 Q692.126 187.518 695.297 191.129 Q698.468 194.74 698.468 201.129 Q698.468 207.495 695.297 211.129 Q692.126 214.74 686.57 214.74 Q680.992 214.74 677.82 211.129 Q674.672 207.495 674.672 201.129 Q674.672 194.74 677.82 191.129 Q680.992 187.518 686.57 187.518 Z" fill="#000000" fill-rule="nonzero" fill-opacity="1" /><path clip-path="url(#clip860)" d="M725.227 221.939 L725.227 225.249 L700.598 225.249 L700.598 221.939 L725.227 221.939 Z" fill="#000000" fill-rule="nonzero" fill-opacity="1" /><path clip-path="url(#clip860)" d="M745.806 197.865 Q747.311 198.374 748.723 200.041 Q750.158 201.708 751.593 204.624 L756.338 214.069 L751.315 214.069 L746.894 205.203 Q745.181 201.731 743.561 200.596 Q741.963 199.462 739.186 199.462 L734.093 199.462 L734.093 214.069 L729.417 214.069 L729.417 179.509 L739.973 179.509 Q745.899 179.509 748.815 181.985 Q751.732 184.462 751.732 189.462 Q751.732 192.726 750.204 194.879 Q748.699 197.032 745.806 197.865 M734.093 183.351 L734.093 195.62 L739.973 195.62 Q743.352 195.62 745.065 194.069 Q746.801 192.495 746.801 189.462 Q746.801 186.43 745.065 184.902 Q743.352 183.351 739.973 183.351 L734.093 183.351 Z" fill="#000000" fill-rule="nonzero" fill-opacity="1" /><path clip-path="url(#clip860)" d="M782.218 200.041 L782.218 202.124 L762.635 202.124 Q762.912 206.522 765.273 208.837 Q767.658 211.129 771.894 211.129 Q774.347 211.129 776.639 210.527 Q778.954 209.925 781.222 208.721 L781.222 212.749 Q778.931 213.721 776.523 214.231 Q774.116 214.74 771.639 214.74 Q765.436 214.74 761.801 211.129 Q758.19 207.518 758.19 201.36 Q758.19 194.995 761.616 191.268 Q765.065 187.518 770.898 187.518 Q776.13 187.518 779.162 190.897 Q782.218 194.254 782.218 200.041 M777.959 198.791 Q777.912 195.296 775.991 193.212 Q774.093 191.129 770.945 191.129 Q767.38 191.129 765.227 193.143 Q763.098 195.157 762.773 198.814 L777.959 198.791 Z" fill="#000000" fill-rule="nonzero" fill-opacity="1" /><path clip-path="url(#clip860)" d="M805.736 188.907 L805.736 192.934 Q803.931 192.009 801.986 191.546 Q800.042 191.083 797.958 191.083 Q794.787 191.083 793.19 192.055 Q791.616 193.027 791.616 194.971 Q791.616 196.453 792.75 197.309 Q793.884 198.143 797.31 198.907 L798.769 199.231 Q803.306 200.203 805.204 201.985 Q807.125 203.745 807.125 206.916 Q807.125 210.527 804.255 212.633 Q801.408 214.74 796.408 214.74 Q794.324 214.74 792.056 214.323 Q789.81 213.93 787.31 213.12 L787.31 208.721 Q789.671 209.948 791.963 210.573 Q794.255 211.175 796.5 211.175 Q799.509 211.175 801.13 210.157 Q802.75 209.115 802.75 207.24 Q802.75 205.504 801.57 204.578 Q800.412 203.652 796.454 202.796 L794.972 202.448 Q791.014 201.615 789.255 199.902 Q787.496 198.166 787.496 195.157 Q787.496 191.499 790.088 189.509 Q792.681 187.518 797.449 187.518 Q799.81 187.518 801.894 187.865 Q803.977 188.212 805.736 188.907 Z" fill="#000000" fill-rule="nonzero" fill-opacity="1" /><path clip-path="url(#clip860)" d="M836.083 200.041 L836.083 202.124 L816.5 202.124 Q816.778 206.522 819.139 208.837 Q821.523 211.129 825.759 211.129 Q828.213 211.129 830.505 210.527 Q832.819 209.925 835.088 208.721 L835.088 212.749 Q832.796 213.721 830.389 214.231 Q827.981 214.74 825.505 214.74 Q819.301 214.74 815.667 211.129 Q812.056 207.518 812.056 201.36 Q812.056 194.995 815.482 191.268 Q818.931 187.518 824.764 187.518 Q829.995 187.518 833.028 190.897 Q836.083 194.254 836.083 200.041 M831.824 198.791 Q831.778 195.296 829.856 193.212 Q827.958 191.129 824.81 191.129 Q821.245 191.129 819.093 193.143 Q816.963 195.157 816.639 198.814 L831.824 198.791 Z" fill="#000000" fill-rule="nonzero" fill-opacity="1" /><path clip-path="url(#clip860)" d="M858.097 192.124 Q857.379 191.708 856.523 191.522 Q855.69 191.314 854.671 191.314 Q851.06 191.314 849.116 193.675 Q847.194 196.013 847.194 200.411 L847.194 214.069 L842.912 214.069 L842.912 188.143 L847.194 188.143 L847.194 192.171 Q848.537 189.809 850.69 188.675 Q852.842 187.518 855.921 187.518 Q856.361 187.518 856.893 187.587 Q857.426 187.634 858.074 187.749 L858.097 192.124 Z" fill="#000000" fill-rule="nonzero" fill-opacity="1" /><path clip-path="url(#clip860)" d="M859.509 188.143 L864.023 188.143 L872.125 209.902 L880.227 188.143 L884.74 188.143 L875.018 214.069 L869.231 214.069 L859.509 188.143 Z" fill="#000000" fill-rule="nonzero" fill-opacity="1" /><path clip-path="url(#clip860)" d="M900.666 191.129 Q897.24 191.129 895.25 193.814 Q893.259 196.476 893.259 201.129 Q893.259 205.782 895.226 208.467 Q897.217 211.129 900.666 211.129 Q904.069 211.129 906.06 208.444 Q908.05 205.758 908.05 201.129 Q908.05 196.522 906.06 193.837 Q904.069 191.129 900.666 191.129 M900.666 187.518 Q906.222 187.518 909.393 191.129 Q912.564 194.74 912.564 201.129 Q912.564 207.495 909.393 211.129 Q906.222 214.74 900.666 214.74 Q895.088 214.74 891.916 211.129 Q888.768 207.495 888.768 201.129 Q888.768 194.74 891.916 191.129 Q895.088 187.518 900.666 187.518 Z" fill="#000000" fill-rule="nonzero" fill-opacity="1" /><path clip-path="url(#clip860)" d="M919.624 188.143 L923.884 188.143 L923.884 214.069 L919.624 214.069 L919.624 188.143 M919.624 178.05 L923.884 178.05 L923.884 183.444 L919.624 183.444 L919.624 178.05 Z" fill="#000000" fill-rule="nonzero" fill-opacity="1" /><path clip-path="url(#clip860)" d="M947.819 192.124 Q947.101 191.708 946.245 191.522 Q945.411 191.314 944.393 191.314 Q940.782 191.314 938.837 193.675 Q936.916 196.013 936.916 200.411 L936.916 214.069 L932.634 214.069 L932.634 188.143 L936.916 188.143 L936.916 192.171 Q938.259 189.809 940.411 188.675 Q942.564 187.518 945.643 187.518 Q946.083 187.518 946.615 187.587 Q947.147 187.634 947.796 187.749 L947.819 192.124 Z" fill="#000000" fill-rule="nonzero" fill-opacity="1" /><polyline clip-path="url(#clip860)" style="stroke:#3da44d; stroke-linecap:round; stroke-linejoin:round; stroke-width:12; stroke-opacity:1; fill:none" points="314.661,248.629 456.854,248.629 "/>
<path clip-path="url(#clip860)" d="M480.553 231.349 L486.849 231.349 L502.173 260.261 L502.173 231.349 L506.71 231.349 L506.71 265.909 L500.414 265.909 L485.09 236.997 L485.09 265.909 L480.553 265.909 L480.553 231.349 Z" fill="#000000" fill-rule="nonzero" fill-opacity="1" /><path clip-path="url(#clip860)" d="M530.043 234.52 Q524.951 234.52 521.941 238.316 Q518.955 242.112 518.955 248.663 Q518.955 255.191 521.941 258.987 Q524.951 262.784 530.043 262.784 Q535.136 262.784 538.099 258.987 Q541.085 255.191 541.085 248.663 Q541.085 242.112 538.099 238.316 Q535.136 234.52 530.043 234.52 M530.043 230.724 Q537.312 230.724 541.664 235.608 Q546.015 240.469 546.015 248.663 Q546.015 256.835 541.664 261.719 Q537.312 266.58 530.043 266.58 Q522.752 266.58 518.377 261.719 Q514.025 256.858 514.025 248.663 Q514.025 240.469 518.377 235.608 Q522.752 230.724 530.043 230.724 Z" fill="#000000" fill-rule="nonzero" fill-opacity="1" /><path clip-path="url(#clip860)" d="M572.844 273.779 L572.844 277.089 L548.214 277.089 L548.214 273.779 L572.844 273.779 Z" fill="#000000" fill-rule="nonzero" fill-opacity="1" /><path clip-path="url(#clip860)" d="M577.034 231.349 L581.71 231.349 L581.71 245.515 L598.7 245.515 L598.7 231.349 L603.376 231.349 L603.376 265.909 L598.7 265.909 L598.7 249.45 L581.71 249.45 L581.71 265.909 L577.034 265.909 L577.034 231.349 Z" fill="#000000" fill-rule="nonzero" fill-opacity="1" /><path clip-path="url(#clip860)" d="M623.283 268.316 Q621.478 272.946 619.765 274.358 Q618.052 275.77 615.182 275.77 L611.779 275.77 L611.779 272.205 L614.279 272.205 Q616.038 272.205 617.01 271.372 Q617.983 270.538 619.163 267.436 L619.927 265.492 L609.441 239.983 L613.955 239.983 L622.057 260.261 L630.158 239.983 L634.672 239.983 L623.283 268.316 Z" fill="#000000" fill-rule="nonzero" fill-opacity="1" /><path clip-path="url(#clip860)" d="M657.612 243.918 L657.612 229.89 L661.871 229.89 L661.871 265.909 L657.612 265.909 L657.612 262.02 Q656.269 264.335 654.209 265.469 Q652.172 266.58 649.302 266.58 Q644.603 266.58 641.64 262.83 Q638.7 259.08 638.7 252.969 Q638.7 246.858 641.64 243.108 Q644.603 239.358 649.302 239.358 Q652.172 239.358 654.209 240.492 Q656.269 241.603 657.612 243.918 M643.098 252.969 Q643.098 257.668 645.019 260.353 Q646.964 263.015 650.344 263.015 Q653.723 263.015 655.668 260.353 Q657.612 257.668 657.612 252.969 Q657.612 248.27 655.668 245.608 Q653.723 242.923 650.344 242.923 Q646.964 242.923 645.019 245.608 Q643.098 248.27 643.098 252.969 Z" fill="#000000" fill-rule="nonzero" fill-opacity="1" /><path clip-path="url(#clip860)" d="M685.667 243.964 Q684.95 243.548 684.093 243.362 Q683.26 243.154 682.242 243.154 Q678.63 243.154 676.686 245.515 Q674.765 247.853 674.765 252.251 L674.765 265.909 L670.482 265.909 L670.482 239.983 L674.765 239.983 L674.765 244.011 Q676.107 241.649 678.26 240.515 Q680.413 239.358 683.492 239.358 Q683.931 239.358 684.464 239.427 Q684.996 239.474 685.644 239.589 L685.667 243.964 Z" fill="#000000" fill-rule="nonzero" fill-opacity="1" /><path clip-path="url(#clip860)" d="M699.14 242.969 Q695.714 242.969 693.723 245.654 Q691.732 248.316 691.732 252.969 Q691.732 257.622 693.7 260.307 Q695.691 262.969 699.14 262.969 Q702.542 262.969 704.533 260.284 Q706.524 257.598 706.524 252.969 Q706.524 248.362 704.533 245.677 Q702.542 242.969 699.14 242.969 M699.14 239.358 Q704.695 239.358 707.866 242.969 Q711.038 246.58 711.038 252.969 Q711.038 259.335 707.866 262.969 Q704.695 266.58 699.14 266.58 Q693.561 266.58 690.39 262.969 Q687.241 259.335 687.241 252.969 Q687.241 246.58 690.39 242.969 Q693.561 239.358 699.14 239.358 Z" fill="#000000" fill-rule="nonzero" fill-opacity="1" /><path clip-path="url(#clip860)" d="M737.797 273.779 L737.797 277.089 L713.167 277.089 L713.167 273.779 L737.797 273.779 Z" fill="#000000" fill-rule="nonzero" fill-opacity="1" /><path clip-path="url(#clip860)" d="M758.375 249.705 Q759.88 250.214 761.292 251.881 Q762.727 253.548 764.162 256.464 L768.908 265.909 L763.885 265.909 L759.463 257.043 Q757.75 253.571 756.13 252.436 Q754.533 251.302 751.755 251.302 L746.662 251.302 L746.662 265.909 L741.987 265.909 L741.987 231.349 L752.542 231.349 Q758.468 231.349 761.385 233.825 Q764.301 236.302 764.301 241.302 Q764.301 244.566 762.773 246.719 Q761.269 248.872 758.375 249.705 M746.662 235.191 L746.662 247.46 L752.542 247.46 Q755.922 247.46 757.635 245.909 Q759.371 244.335 759.371 241.302 Q759.371 238.27 757.635 236.742 Q755.922 235.191 752.542 235.191 L746.662 235.191 Z" fill="#000000" fill-rule="nonzero" fill-opacity="1" /><path clip-path="url(#clip860)" d="M794.787 251.881 L794.787 253.964 L775.204 253.964 Q775.482 258.362 777.843 260.677 Q780.227 262.969 784.463 262.969 Q786.917 262.969 789.209 262.367 Q791.523 261.765 793.792 260.561 L793.792 264.589 Q791.5 265.561 789.093 266.071 Q786.685 266.58 784.209 266.58 Q778.005 266.58 774.371 262.969 Q770.76 259.358 770.76 253.2 Q770.76 246.835 774.185 243.108 Q777.635 239.358 783.468 239.358 Q788.699 239.358 791.732 242.737 Q794.787 246.094 794.787 251.881 M790.528 250.631 Q790.482 247.136 788.56 245.052 Q786.662 242.969 783.514 242.969 Q779.949 242.969 777.797 244.983 Q775.667 246.997 775.343 250.654 L790.528 250.631 Z" fill="#000000" fill-rule="nonzero" fill-opacity="1" /><path clip-path="url(#clip860)" d="M818.306 240.747 L818.306 244.774 Q816.5 243.849 814.556 243.386 Q812.611 242.923 810.528 242.923 Q807.357 242.923 805.759 243.895 Q804.185 244.867 804.185 246.811 Q804.185 248.293 805.32 249.149 Q806.454 249.983 809.88 250.747 L811.338 251.071 Q815.875 252.043 817.773 253.825 Q819.694 255.585 819.694 258.756 Q819.694 262.367 816.824 264.473 Q813.977 266.58 808.977 266.58 Q806.894 266.58 804.625 266.163 Q802.38 265.77 799.88 264.96 L799.88 260.561 Q802.241 261.788 804.533 262.413 Q806.824 263.015 809.07 263.015 Q812.079 263.015 813.699 261.997 Q815.32 260.955 815.32 259.08 Q815.32 257.344 814.139 256.418 Q812.982 255.492 809.023 254.636 L807.542 254.288 Q803.583 253.455 801.824 251.742 Q800.065 250.006 800.065 246.997 Q800.065 243.339 802.658 241.349 Q805.25 239.358 810.019 239.358 Q812.38 239.358 814.463 239.705 Q816.546 240.052 818.306 240.747 Z" fill="#000000" fill-rule="nonzero" fill-opacity="1" /><path clip-path="url(#clip860)" d="M848.653 251.881 L848.653 253.964 L829.069 253.964 Q829.347 258.362 831.708 260.677 Q834.093 262.969 838.329 262.969 Q840.782 262.969 843.074 262.367 Q845.389 261.765 847.657 260.561 L847.657 264.589 Q845.366 265.561 842.958 266.071 Q840.551 266.58 838.074 266.58 Q831.87 266.58 828.236 262.969 Q824.625 259.358 824.625 253.2 Q824.625 246.835 828.051 243.108 Q831.5 239.358 837.333 239.358 Q842.565 239.358 845.597 242.737 Q848.653 246.094 848.653 251.881 M844.393 250.631 Q844.347 247.136 842.426 245.052 Q840.528 242.969 837.38 242.969 Q833.815 242.969 831.662 244.983 Q829.532 246.997 829.208 250.654 L844.393 250.631 Z" fill="#000000" fill-rule="nonzero" fill-opacity="1" /><path clip-path="url(#clip860)" d="M870.666 243.964 Q869.949 243.548 869.092 243.362 Q868.259 243.154 867.241 243.154 Q863.629 243.154 861.685 245.515 Q859.764 247.853 859.764 252.251 L859.764 265.909 L855.481 265.909 L855.481 239.983 L859.764 239.983 L859.764 244.011 Q861.106 241.649 863.259 240.515 Q865.412 239.358 868.491 239.358 Q868.93 239.358 869.463 239.427 Q869.995 239.474 870.643 239.589 L870.666 243.964 Z" fill="#000000" fill-rule="nonzero" fill-opacity="1" /><path clip-path="url(#clip860)" d="M872.078 239.983 L876.592 239.983 L884.694 261.742 L892.796 239.983 L897.31 239.983 L887.588 265.909 L881.801 265.909 L872.078 239.983 Z" fill="#000000" fill-rule="nonzero" fill-opacity="1" /><path clip-path="url(#clip860)" d="M913.236 242.969 Q909.81 242.969 907.819 245.654 Q905.828 248.316 905.828 252.969 Q905.828 257.622 907.796 260.307 Q909.787 262.969 913.236 262.969 Q916.638 262.969 918.629 260.284 Q920.62 257.598 920.62 252.969 Q920.62 248.362 918.629 245.677 Q916.638 242.969 913.236 242.969 M913.236 239.358 Q918.791 239.358 921.962 242.969 Q925.134 246.58 925.134 252.969 Q925.134 259.335 921.962 262.969 Q918.791 266.58 913.236 266.58 Q907.657 266.58 904.486 262.969 Q901.338 259.335 901.338 252.969 Q901.338 246.58 904.486 242.969 Q907.657 239.358 913.236 239.358 Z" fill="#000000" fill-rule="nonzero" fill-opacity="1" /><path clip-path="url(#clip860)" d="M932.194 239.983 L936.453 239.983 L936.453 265.909 L932.194 265.909 L932.194 239.983 M932.194 229.89 L936.453 229.89 L936.453 235.284 L932.194 235.284 L932.194 229.89 Z" fill="#000000" fill-rule="nonzero" fill-opacity="1" /><path clip-path="url(#clip860)" d="M960.388 243.964 Q959.671 243.548 958.814 243.362 Q957.981 243.154 956.962 243.154 Q953.351 243.154 951.407 245.515 Q949.485 247.853 949.485 252.251 L949.485 265.909 L945.203 265.909 L945.203 239.983 L949.485 239.983 L949.485 244.011 Q950.828 241.649 952.981 240.515 Q955.134 239.358 958.212 239.358 Q958.652 239.358 959.184 239.427 Q959.717 239.474 960.365 239.589 L960.388 243.964 Z" fill="#000000" fill-rule="nonzero" fill-opacity="1" /></svg>
