<?xml version="1.0" encoding="utf-8"?>
<svg xmlns="http://www.w3.org/2000/svg" xmlns:xlink="http://www.w3.org/1999/xlink" width="600" height="400" viewBox="0 0 2400 1600">
<defs>
  <clipPath id="clip260">
    <rect x="0" y="0" width="2400" height="1600"/>
  </clipPath>
</defs>
<path clip-path="url(#clip260)" d="M0 1600 L2400 1600 L2400 0 L0 0  Z" fill="#ffffff" fill-rule="evenodd" fill-opacity="1"/>
<defs>
  <clipPath id="clip261">
    <rect x="235" y="923" width="2118" height="501"/>
  </clipPath>
</defs>
<path clip-path="url(#clip260)" d="M235.283 623.18 L2352.76 623.18 L2352.76 123.472 L235.283 123.472  Z" fill="#ffffff" fill-rule="evenodd" fill-opacity="1"/>
<defs>
  <clipPath id="clip262">
    <rect x="235" y="123" width="2118" height="501"/>
  </clipPath>
</defs>
<polyline clip-path="url(#clip262)" style="stroke:#000000; stroke-linecap:round; stroke-linejoin:round; stroke-width:2; stroke-opacity:0.1; fill:none" points="603.539,623.18 603.539,123.472 "/>
<polyline clip-path="url(#clip262)" style="stroke:#000000; stroke-linecap:round; stroke-linejoin:round; stroke-width:2; stroke-opacity:0.1; fill:none" points="1063.86,623.18 1063.86,123.472 "/>
<polyline clip-path="url(#clip262)" style="stroke:#000000; stroke-linecap:round; stroke-linejoin:round; stroke-width:2; stroke-opacity:0.1; fill:none" points="1524.18,623.18 1524.18,123.472 "/>
<polyline clip-path="url(#clip262)" style="stroke:#000000; stroke-linecap:round; stroke-linejoin:round; stroke-width:2; stroke-opacity:0.1; fill:none" points="1984.5,623.18 1984.5,123.472 "/>
<polyline clip-path="url(#clip262)" style="stroke:#000000; stroke-linecap:round; stroke-linejoin:round; stroke-width:2; stroke-opacity:0.1; fill:none" points="235.283,609.037 2352.76,609.037 "/>
<polyline clip-path="url(#clip262)" style="stroke:#000000; stroke-linecap:round; stroke-linejoin:round; stroke-width:2; stroke-opacity:0.1; fill:none" points="235.283,491.182 2352.76,491.182 "/>
<polyline clip-path="url(#clip262)" style="stroke:#000000; stroke-linecap:round; stroke-linejoin:round; stroke-width:2; stroke-opacity:0.1; fill:none" points="235.283,373.326 2352.76,373.326 "/>
<polyline clip-path="url(#clip262)" style="stroke:#000000; stroke-linecap:round; stroke-linejoin:round; stroke-width:2; stroke-opacity:0.1; fill:none" points="235.283,255.47 2352.76,255.47 "/>
<polyline clip-path="url(#clip262)" style="stroke:#000000; stroke-linecap:round; stroke-linejoin:round; stroke-width:2; stroke-opacity:0.1; fill:none" points="235.283,137.615 2352.76,137.615 "/>
<polyline clip-path="url(#clip260)" style="stroke:#000000; stroke-linecap:round; stroke-linejoin:round; stroke-width:4; stroke-opacity:1; fill:none" points="235.283,623.18 2352.76,623.18 "/>
<polyline clip-path="url(#clip260)" style="stroke:#000000; stroke-linecap:round; stroke-linejoin:round; stroke-width:4; stroke-opacity:1; fill:none" points="603.539,623.18 603.539,604.282 "/>
<polyline clip-path="url(#clip260)" style="stroke:#000000; stroke-linecap:round; stroke-linejoin:round; stroke-width:4; stroke-opacity:1; fill:none" points="1063.86,623.18 1063.86,604.282 "/>
<polyline clip-path="url(#clip260)" style="stroke:#000000; stroke-linecap:round; stroke-linejoin:round; stroke-width:4; stroke-opacity:1; fill:none" points="1524.18,623.18 1524.18,604.282 "/>
<polyline clip-path="url(#clip260)" style="stroke:#000000; stroke-linecap:round; stroke-linejoin:round; stroke-width:4; stroke-opacity:1; fill:none" points="1984.5,623.18 1984.5,604.282 "/>
<path clip-path="url(#clip260)" d="M593.817 651.02 L612.173 651.02 L612.173 654.955 L598.099 654.955 L598.099 663.427 Q599.118 663.08 600.136 662.918 Q601.155 662.733 602.173 662.733 Q607.96 662.733 611.34 665.904 Q614.72 669.075 614.72 674.492 Q614.72 680.071 611.247 683.172 Q607.775 686.251 601.456 686.251 Q599.28 686.251 597.011 685.881 Q594.766 685.51 592.359 684.77 L592.359 680.071 Q594.442 681.205 596.664 681.76 Q598.886 682.316 601.363 682.316 Q605.368 682.316 607.706 680.21 Q610.044 678.103 610.044 674.492 Q610.044 670.881 607.706 668.774 Q605.368 666.668 601.363 666.668 Q599.488 666.668 597.613 667.085 Q595.761 667.501 593.817 668.381 L593.817 651.02 Z" fill="#000000" fill-rule="nonzero" fill-opacity="1" /><path clip-path="url(#clip260)" d="M1038.55 681.645 L1046.19 681.645 L1046.19 655.279 L1037.88 656.946 L1037.88 652.687 L1046.14 651.02 L1050.82 651.02 L1050.82 681.645 L1058.45 681.645 L1058.45 685.58 L1038.55 685.58 L1038.55 681.645 Z" fill="#000000" fill-rule="nonzero" fill-opacity="1" /><path clip-path="url(#clip260)" d="M1077.9 654.099 Q1074.29 654.099 1072.46 657.663 Q1070.65 661.205 1070.65 668.335 Q1070.65 675.441 1072.46 679.006 Q1074.29 682.547 1077.9 682.547 Q1081.53 682.547 1083.34 679.006 Q1085.17 675.441 1085.17 668.335 Q1085.17 661.205 1083.34 657.663 Q1081.53 654.099 1077.9 654.099 M1077.9 650.395 Q1083.71 650.395 1086.76 655.001 Q1089.84 659.585 1089.84 668.335 Q1089.84 677.061 1086.76 681.668 Q1083.71 686.251 1077.9 686.251 Q1072.09 686.251 1069.01 681.668 Q1065.95 677.061 1065.95 668.335 Q1065.95 659.585 1069.01 655.001 Q1072.09 650.395 1077.9 650.395 Z" fill="#000000" fill-rule="nonzero" fill-opacity="1" /><path clip-path="url(#clip260)" d="M1499.36 681.645 L1507 681.645 L1507 655.279 L1498.69 656.946 L1498.69 652.687 L1506.96 651.02 L1511.63 651.02 L1511.63 681.645 L1519.27 681.645 L1519.27 685.58 L1499.36 685.58 L1499.36 681.645 Z" fill="#000000" fill-rule="nonzero" fill-opacity="1" /><path clip-path="url(#clip260)" d="M1528.76 651.02 L1547.12 651.02 L1547.12 654.955 L1533.05 654.955 L1533.05 663.427 Q1534.06 663.08 1535.08 662.918 Q1536.1 662.733 1537.12 662.733 Q1542.91 662.733 1546.29 665.904 Q1549.67 669.075 1549.67 674.492 Q1549.67 680.071 1546.19 683.172 Q1542.72 686.251 1536.4 686.251 Q1534.23 686.251 1531.96 685.881 Q1529.71 685.51 1527.3 684.77 L1527.3 680.071 Q1529.39 681.205 1531.61 681.76 Q1533.83 682.316 1536.31 682.316 Q1540.31 682.316 1542.65 680.21 Q1544.99 678.103 1544.99 674.492 Q1544.99 670.881 1542.65 668.774 Q1540.31 666.668 1536.31 666.668 Q1534.43 666.668 1532.56 667.085 Q1530.71 667.501 1528.76 668.381 L1528.76 651.02 Z" fill="#000000" fill-rule="nonzero" fill-opacity="1" /><path clip-path="url(#clip260)" d="M1963.27 681.645 L1979.59 681.645 L1979.59 685.58 L1957.65 685.58 L1957.65 681.645 Q1960.31 678.89 1964.89 674.26 Q1969.5 669.608 1970.68 668.265 Q1972.93 665.742 1973.81 664.006 Q1974.71 662.247 1974.71 660.557 Q1974.71 657.802 1972.76 656.066 Q1970.84 654.33 1967.74 654.33 Q1965.54 654.33 1963.09 655.094 Q1960.66 655.858 1957.88 657.409 L1957.88 652.687 Q1960.7 651.552 1963.16 650.974 Q1965.61 650.395 1967.65 650.395 Q1973.02 650.395 1976.21 653.08 Q1979.41 655.765 1979.41 660.256 Q1979.41 662.386 1978.6 664.307 Q1977.81 666.205 1975.7 668.798 Q1975.12 669.469 1972.02 672.686 Q1968.92 675.881 1963.27 681.645 Z" fill="#000000" fill-rule="nonzero" fill-opacity="1" /><path clip-path="url(#clip260)" d="M1999.41 654.099 Q1995.8 654.099 1993.97 657.663 Q1992.16 661.205 1992.16 668.335 Q1992.16 675.441 1993.97 679.006 Q1995.8 682.547 1999.41 682.547 Q2003.04 682.547 2004.85 679.006 Q2006.68 675.441 2006.68 668.335 Q2006.68 661.205 2004.85 657.663 Q2003.04 654.099 1999.41 654.099 M1999.41 650.395 Q2005.22 650.395 2008.27 655.001 Q2011.35 659.585 2011.35 668.335 Q2011.35 677.061 2008.27 681.668 Q2005.22 686.251 1999.41 686.251 Q1993.6 686.251 1990.52 681.668 Q1987.46 677.061 1987.46 668.335 Q1987.46 659.585 1990.52 655.001 Q1993.6 650.395 1999.41 650.395 Z" fill="#000000" fill-rule="nonzero" fill-opacity="1" /><path clip-path="url(#clip260)" d="M1218.71 720.524 L1225.14 720.524 L1225.14 740.003 L1248.5 740.003 L1248.5 720.524 L1254.93 720.524 L1254.93 768.044 L1248.5 768.044 L1248.5 745.414 L1225.14 745.414 L1225.14 768.044 L1218.71 768.044 L1218.71 720.524 Z" fill="#000000" fill-rule="nonzero" fill-opacity="1" /><path clip-path="url(#clip260)" d="M1281.29 736.502 Q1276.58 736.502 1273.84 740.194 Q1271.1 743.854 1271.1 750.252 Q1271.1 756.649 1273.81 760.341 Q1276.55 764.002 1281.29 764.002 Q1285.97 764.002 1288.7 760.31 Q1291.44 756.617 1291.44 750.252 Q1291.44 743.918 1288.7 740.226 Q1285.97 736.502 1281.29 736.502 M1281.29 731.537 Q1288.93 731.537 1293.29 736.502 Q1297.65 741.467 1297.65 750.252 Q1297.65 759.005 1293.29 764.002 Q1288.93 768.967 1281.29 768.967 Q1273.62 768.967 1269.26 764.002 Q1264.93 759.005 1264.93 750.252 Q1264.93 741.467 1269.26 736.502 Q1273.62 731.537 1281.29 731.537 Z" fill="#000000" fill-rule="nonzero" fill-opacity="1" /><path clip-path="url(#clip260)" d="M1306.75 753.976 L1306.75 732.396 L1312.61 732.396 L1312.61 753.753 Q1312.61 758.814 1314.58 761.36 Q1316.55 763.874 1320.5 763.874 Q1325.24 763.874 1327.98 760.851 Q1330.75 757.827 1330.75 752.607 L1330.75 732.396 L1336.61 732.396 L1336.61 768.044 L1330.75 768.044 L1330.75 762.569 Q1328.62 765.816 1325.78 767.407 Q1322.98 768.967 1319.26 768.967 Q1313.12 768.967 1309.93 765.147 Q1306.75 761.328 1306.75 753.976 M1321.49 731.537 L1321.49 731.537 Z" fill="#000000" fill-rule="nonzero" fill-opacity="1" /><path clip-path="url(#clip260)" d="M1369.33 737.87 Q1368.34 737.297 1367.16 737.043 Q1366.02 736.756 1364.62 736.756 Q1359.65 736.756 1356.98 740.003 Q1354.33 743.218 1354.33 749.265 L1354.33 768.044 L1348.45 768.044 L1348.45 732.396 L1354.33 732.396 L1354.33 737.934 Q1356.18 734.688 1359.14 733.128 Q1362.1 731.537 1366.33 731.537 Q1366.94 731.537 1367.67 731.632 Q1368.4 731.696 1369.29 731.855 L1369.33 737.87 Z" fill="#000000" fill-rule="nonzero" fill-opacity="1" /><polyline clip-path="url(#clip260)" style="stroke:#000000; stroke-linecap:round; stroke-linejoin:round; stroke-width:4; stroke-opacity:1; fill:none" points="235.283,623.18 235.283,123.472 "/>
<polyline clip-path="url(#clip260)" style="stroke:#000000; stroke-linecap:round; stroke-linejoin:round; stroke-width:4; stroke-opacity:1; fill:none" points="235.283,609.037 254.18,609.037 "/>
<polyline clip-path="url(#clip260)" style="stroke:#000000; stroke-linecap:round; stroke-linejoin:round; stroke-width:4; stroke-opacity:1; fill:none" points="235.283,491.182 254.18,491.182 "/>
<polyline clip-path="url(#clip260)" style="stroke:#000000; stroke-linecap:round; stroke-linejoin:round; stroke-width:4; stroke-opacity:1; fill:none" points="235.283,373.326 254.18,373.326 "/>
<polyline clip-path="url(#clip260)" style="stroke:#000000; stroke-linecap:round; stroke-linejoin:round; stroke-width:4; stroke-opacity:1; fill:none" points="235.283,255.47 254.18,255.47 "/>
<polyline clip-path="url(#clip260)" style="stroke:#000000; stroke-linecap:round; stroke-linejoin:round; stroke-width:4; stroke-opacity:1; fill:none" points="235.283,137.615 254.18,137.615 "/>
<path clip-path="url(#clip260)" d="M187.338 594.836 Q183.727 594.836 181.899 598.401 Q180.093 601.942 180.093 609.072 Q180.093 616.178 181.899 619.743 Q183.727 623.285 187.338 623.285 Q190.973 623.285 192.778 619.743 Q194.607 616.178 194.607 609.072 Q194.607 601.942 192.778 598.401 Q190.973 594.836 187.338 594.836 M187.338 591.132 Q193.149 591.132 196.204 595.739 Q199.283 600.322 199.283 609.072 Q199.283 617.799 196.204 622.405 Q193.149 626.988 187.338 626.988 Q181.528 626.988 178.45 622.405 Q175.394 617.799 175.394 609.072 Q175.394 600.322 178.45 595.739 Q181.528 591.132 187.338 591.132 Z" fill="#000000" fill-rule="nonzero" fill-opacity="1" /><path clip-path="url(#clip260)" d="M147.987 504.526 L155.626 504.526 L155.626 478.161 L147.316 479.827 L147.316 475.568 L155.579 473.902 L160.255 473.902 L160.255 504.526 L167.894 504.526 L167.894 508.462 L147.987 508.462 L147.987 504.526 Z" fill="#000000" fill-rule="nonzero" fill-opacity="1" /><path clip-path="url(#clip260)" d="M187.338 476.98 Q183.727 476.98 181.899 480.545 Q180.093 484.087 180.093 491.216 Q180.093 498.323 181.899 501.888 Q183.727 505.429 187.338 505.429 Q190.973 505.429 192.778 501.888 Q194.607 498.323 194.607 491.216 Q194.607 484.087 192.778 480.545 Q190.973 476.98 187.338 476.98 M187.338 473.277 Q193.149 473.277 196.204 477.883 Q199.283 482.466 199.283 491.216 Q199.283 499.943 196.204 504.55 Q193.149 509.133 187.338 509.133 Q181.528 509.133 178.45 504.55 Q175.394 499.943 175.394 491.216 Q175.394 482.466 178.45 477.883 Q181.528 473.277 187.338 473.277 Z" fill="#000000" fill-rule="nonzero" fill-opacity="1" /><path clip-path="url(#clip260)" d="M151.204 386.671 L167.524 386.671 L167.524 390.606 L145.579 390.606 L145.579 386.671 Q148.241 383.916 152.825 379.287 Q157.431 374.634 158.612 373.291 Q160.857 370.768 161.737 369.032 Q162.64 367.273 162.64 365.583 Q162.64 362.828 160.695 361.092 Q158.774 359.356 155.672 359.356 Q153.473 359.356 151.019 360.12 Q148.589 360.884 145.811 362.435 L145.811 357.713 Q148.635 356.578 151.089 356 Q153.542 355.421 155.579 355.421 Q160.95 355.421 164.144 358.106 Q167.339 360.791 167.339 365.282 Q167.339 367.412 166.528 369.333 Q165.741 371.231 163.635 373.824 Q163.056 374.495 159.954 377.713 Q156.853 380.907 151.204 386.671 Z" fill="#000000" fill-rule="nonzero" fill-opacity="1" /><path clip-path="url(#clip260)" d="M187.338 359.125 Q183.727 359.125 181.899 362.689 Q180.093 366.231 180.093 373.361 Q180.093 380.467 181.899 384.032 Q183.727 387.574 187.338 387.574 Q190.973 387.574 192.778 384.032 Q194.607 380.467 194.607 373.361 Q194.607 366.231 192.778 362.689 Q190.973 359.125 187.338 359.125 M187.338 355.421 Q193.149 355.421 196.204 360.027 Q199.283 364.611 199.283 373.361 Q199.283 382.088 196.204 386.694 Q193.149 391.277 187.338 391.277 Q181.528 391.277 178.45 386.694 Q175.394 382.088 175.394 373.361 Q175.394 364.611 178.45 360.027 Q181.528 355.421 187.338 355.421 Z" fill="#000000" fill-rule="nonzero" fill-opacity="1" /><path clip-path="url(#clip260)" d="M161.343 254.116 Q164.7 254.834 166.575 257.102 Q168.473 259.371 168.473 262.704 Q168.473 267.82 164.954 270.621 Q161.436 273.422 154.954 273.422 Q152.778 273.422 150.464 272.982 Q148.172 272.565 145.718 271.709 L145.718 267.195 Q147.663 268.329 149.978 268.908 Q152.292 269.487 154.815 269.487 Q159.214 269.487 161.505 267.75 Q163.82 266.014 163.82 262.704 Q163.82 259.649 161.667 257.936 Q159.538 256.2 155.718 256.2 L151.691 256.2 L151.691 252.357 L155.903 252.357 Q159.353 252.357 161.181 250.991 Q163.01 249.602 163.01 247.01 Q163.01 244.348 161.112 242.936 Q159.237 241.501 155.718 241.501 Q153.797 241.501 151.598 241.917 Q149.399 242.334 146.76 243.214 L146.76 239.047 Q149.422 238.306 151.737 237.936 Q154.075 237.565 156.135 237.565 Q161.459 237.565 164.561 239.996 Q167.663 242.403 167.663 246.524 Q167.663 249.394 166.019 251.385 Q164.376 253.352 161.343 254.116 Z" fill="#000000" fill-rule="nonzero" fill-opacity="1" /><path clip-path="url(#clip260)" d="M187.338 241.269 Q183.727 241.269 181.899 244.834 Q180.093 248.376 180.093 255.505 Q180.093 262.612 181.899 266.176 Q183.727 269.718 187.338 269.718 Q190.973 269.718 192.778 266.176 Q194.607 262.612 194.607 255.505 Q194.607 248.376 192.778 244.834 Q190.973 241.269 187.338 241.269 M187.338 237.565 Q193.149 237.565 196.204 242.172 Q199.283 246.755 199.283 255.505 Q199.283 264.232 196.204 268.838 Q193.149 273.422 187.338 273.422 Q181.528 273.422 178.45 268.838 Q175.394 264.232 175.394 255.505 Q175.394 246.755 178.45 242.172 Q181.528 237.565 187.338 237.565 Z" fill="#000000" fill-rule="nonzero" fill-opacity="1" /><path clip-path="url(#clip260)" d="M160.024 124.409 L148.218 142.858 L160.024 142.858 L160.024 124.409 M158.797 120.335 L164.677 120.335 L164.677 142.858 L169.607 142.858 L169.607 146.747 L164.677 146.747 L164.677 154.895 L160.024 154.895 L160.024 146.747 L144.422 146.747 L144.422 142.233 L158.797 120.335 Z" fill="#000000" fill-rule="nonzero" fill-opacity="1" /><path clip-path="url(#clip260)" d="M187.338 123.413 Q183.727 123.413 181.899 126.978 Q180.093 130.52 180.093 137.65 Q180.093 144.756 181.899 148.321 Q183.727 151.862 187.338 151.862 Q190.973 151.862 192.778 148.321 Q194.607 144.756 194.607 137.65 Q194.607 130.52 192.778 126.978 Q190.973 123.413 187.338 123.413 M187.338 119.71 Q193.149 119.71 196.204 124.316 Q199.283 128.9 199.283 137.65 Q199.283 146.376 196.204 150.983 Q193.149 155.566 187.338 155.566 Q181.528 155.566 178.45 150.983 Q175.394 146.376 175.394 137.65 Q175.394 128.9 178.45 124.316 Q181.528 119.71 187.338 119.71 Z" fill="#000000" fill-rule="nonzero" fill-opacity="1" /><path clip-path="url(#clip260)" d="M44.6408 474.159 L44.6408 460.663 L49.1923 460.663 L49.1923 468.302 L98.2083 468.302 L98.2083 460.663 L102.76 460.663 L102.76 474.159 L44.6408 474.159 Z" fill="#000000" fill-rule="nonzero" fill-opacity="1" /><path clip-path="url(#clip260)" d="M46.646 447.932 L46.646 438.352 L78.9838 426.225 L46.646 414.035 L46.646 404.454 L94.166 404.454 L94.166 410.725 L52.4388 410.725 L85.0312 422.978 L85.0312 429.44 L52.4388 441.694 L94.166 441.694 L94.166 447.932 L46.646 447.932 Z" fill="#000000" fill-rule="nonzero" fill-opacity="1" /><path clip-path="url(#clip260)" d="M46.646 395.924 L46.646 389.431 L86.8136 379.437 L46.646 369.475 L46.646 362.25 L86.8136 352.255 L46.646 342.293 L46.646 335.768 L94.166 347.704 L94.166 355.788 L52.9163 365.814 L94.166 375.936 L94.166 384.02 L46.646 395.924 Z" fill="#000000" fill-rule="nonzero" fill-opacity="1" /><path clip-path="url(#clip260)" d="M72.6499 297.861 L94.166 297.861 L94.166 303.717 L72.8409 303.717 Q67.7802 303.717 65.2657 305.69 Q62.7513 307.664 62.7513 311.61 Q62.7513 316.353 65.775 319.09 Q68.7987 321.827 74.0186 321.827 L94.166 321.827 L94.166 327.716 L44.6408 327.716 L44.6408 321.827 L64.0562 321.827 Q60.8416 319.727 59.2501 316.894 Q57.6587 314.029 57.6587 310.305 Q57.6587 304.163 61.4781 301.012 Q65.2657 297.861 72.6499 297.861 Z" fill="#000000" fill-rule="nonzero" fill-opacity="1" /><path clip-path="url(#clip260)" d="M44.6408 272.493 L102.76 272.493 L102.76 285.988 L98.2083 285.988 L98.2083 278.381 L49.1923 278.381 L49.1923 285.988 L44.6408 285.988 L44.6408 272.493 Z" fill="#000000" fill-rule="nonzero" fill-opacity="1" /><path clip-path="url(#clip260)" d="M1079.22 9.54393 L1096.4 9.54393 L1096.4 15.3367 L1086.67 15.3367 L1086.67 77.7206 L1096.4 77.7206 L1096.4 83.5134 L1079.22 83.5134 L1079.22 9.54393 Z" fill="#000000" fill-rule="nonzero" fill-opacity="1" /><path clip-path="url(#clip260)" d="M1119.32 12.096 L1119.32 34.5785 L1112.44 34.5785 L1112.44 12.096 L1119.32 12.096 M1134.64 12.096 L1134.64 34.5785 L1127.75 34.5785 L1127.75 12.096 L1134.64 12.096 Z" fill="#000000" fill-rule="nonzero" fill-opacity="1" /><path clip-path="url(#clip260)" d="M1183 49.9314 Q1183 41.7081 1179.6 37.0496 Q1176.24 32.3505 1170.33 32.3505 Q1164.41 32.3505 1161.01 37.0496 Q1157.65 41.7081 1157.65 49.9314 Q1157.65 58.1548 1161.01 62.8538 Q1164.41 67.5124 1170.33 67.5124 Q1176.24 67.5124 1179.6 62.8538 Q1183 58.1548 1183 49.9314 M1157.65 34.0924 Q1160 30.0415 1163.56 28.0971 Q1167.17 26.1121 1172.15 26.1121 Q1180.41 26.1121 1185.56 32.6746 Q1190.74 39.2371 1190.74 49.9314 Q1190.74 60.6258 1185.56 67.1883 Q1180.41 73.7508 1172.15 73.7508 Q1167.17 73.7508 1163.56 71.8063 Q1160 69.8214 1157.65 65.7705 L1157.65 72.576 L1150.15 72.576 L1150.15 9.54393 L1157.65 9.54393 L1157.65 34.0924 Z" fill="#000000" fill-rule="nonzero" fill-opacity="1" /><path clip-path="url(#clip260)" d="M1223.72 49.7694 Q1214.68 49.7694 1211.2 51.8354 Q1207.71 53.9013 1207.71 58.8839 Q1207.71 62.8538 1210.31 65.2034 Q1212.94 67.5124 1217.44 67.5124 Q1223.63 67.5124 1227.36 63.1374 Q1231.13 58.7219 1231.13 51.4303 L1231.13 49.7694 L1223.72 49.7694 M1238.58 46.6907 L1238.58 72.576 L1231.13 72.576 L1231.13 65.6895 Q1228.58 69.8214 1224.77 71.8063 Q1220.96 73.7508 1215.45 73.7508 Q1208.48 73.7508 1204.35 69.8619 Q1200.26 65.9325 1200.26 59.3701 Q1200.26 51.7138 1205.37 47.825 Q1210.51 43.9361 1220.68 43.9361 L1231.13 43.9361 L1231.13 43.2069 Q1231.13 38.0623 1227.73 35.2672 Q1224.36 32.4315 1218.25 32.4315 Q1214.36 32.4315 1210.67 33.3632 Q1206.99 34.295 1203.58 36.1584 L1203.58 29.2718 Q1207.67 27.692 1211.52 26.9223 Q1215.37 26.1121 1219.02 26.1121 Q1228.86 26.1121 1233.72 31.2163 Q1238.58 36.3204 1238.58 46.6907 Z" fill="#000000" fill-rule="nonzero" fill-opacity="1" /><path clip-path="url(#clip260)" d="M1261.31 14.324 L1261.31 27.2059 L1276.66 27.2059 L1276.66 32.9987 L1261.31 32.9987 L1261.31 57.6282 Q1261.31 63.1779 1262.81 64.7578 Q1264.35 66.3376 1269.01 66.3376 L1276.66 66.3376 L1276.66 72.576 L1269.01 72.576 Q1260.38 72.576 1257.1 69.3758 Q1253.81 66.1351 1253.81 57.6282 L1253.81 32.9987 L1248.35 32.9987 L1248.35 27.2059 L1253.81 27.2059 L1253.81 14.324 L1261.31 14.324 Z" fill="#000000" fill-rule="nonzero" fill-opacity="1" /><path clip-path="url(#clip260)" d="M1293.84 14.324 L1293.84 27.2059 L1309.19 27.2059 L1309.19 32.9987 L1293.84 32.9987 L1293.84 57.6282 Q1293.84 63.1779 1295.34 64.7578 Q1296.88 66.3376 1301.53 66.3376 L1309.19 66.3376 L1309.19 72.576 L1301.53 72.576 Q1292.91 72.576 1289.62 69.3758 Q1286.34 66.1351 1286.34 57.6282 L1286.34 32.9987 L1280.87 32.9987 L1280.87 27.2059 L1286.34 27.2059 L1286.34 14.324 L1293.84 14.324 Z" fill="#000000" fill-rule="nonzero" fill-opacity="1" /><path clip-path="url(#clip260)" d="M1357.8 48.0275 L1357.8 51.6733 L1323.53 51.6733 Q1324.02 59.3701 1328.15 63.421 Q1332.32 67.4314 1339.73 67.4314 Q1344.03 67.4314 1348.04 66.3781 Q1352.09 65.3249 1356.06 63.2184 L1356.06 70.267 Q1352.05 71.9684 1347.84 72.8596 Q1343.62 73.7508 1339.29 73.7508 Q1328.43 73.7508 1322.07 67.4314 Q1315.75 61.1119 1315.75 50.3365 Q1315.75 39.1965 1321.75 32.6746 Q1327.78 26.1121 1337.99 26.1121 Q1347.15 26.1121 1352.45 32.0264 Q1357.8 37.9003 1357.8 48.0275 M1350.35 45.84 Q1350.27 39.7232 1346.9 36.0774 Q1343.58 32.4315 1338.07 32.4315 Q1331.83 32.4315 1328.07 35.9558 Q1324.34 39.4801 1323.77 45.8805 L1350.35 45.84 Z" fill="#000000" fill-rule="nonzero" fill-opacity="1" /><path clip-path="url(#clip260)" d="M1396.32 34.1734 Q1395.07 33.4443 1393.57 33.1202 Q1392.11 32.7556 1390.33 32.7556 Q1384.01 32.7556 1380.61 36.8875 Q1377.25 40.9789 1377.25 48.6757 L1377.25 72.576 L1369.75 72.576 L1369.75 27.2059 L1377.25 27.2059 L1377.25 34.2544 Q1379.59 30.1225 1383.36 28.1376 Q1387.13 26.1121 1392.52 26.1121 Q1393.29 26.1121 1394.22 26.2337 Q1395.15 26.3147 1396.28 26.5172 L1396.32 34.1734 Z" fill="#000000" fill-rule="nonzero" fill-opacity="1" /><path clip-path="url(#clip260)" d="M1423.02 76.7889 Q1419.86 84.8907 1416.86 87.3618 Q1413.87 89.8329 1408.84 89.8329 L1402.89 89.8329 L1402.89 83.5945 L1407.26 83.5945 Q1410.34 83.5945 1412.04 82.1361 Q1413.74 80.6778 1415.81 75.2496 L1417.15 71.8468 L1398.8 27.2059 L1406.7 27.2059 L1420.87 62.6918 L1435.05 27.2059 L1442.95 27.2059 L1423.02 76.7889 Z" fill="#000000" fill-rule="nonzero" fill-opacity="1" /><path clip-path="url(#clip260)" d="M1460.29 12.096 L1460.29 34.5785 L1453.4 34.5785 L1453.4 12.096 L1460.29 12.096 M1475.6 12.096 L1475.6 34.5785 L1468.71 34.5785 L1468.71 12.096 L1475.6 12.096 Z" fill="#000000" fill-rule="nonzero" fill-opacity="1" /><path clip-path="url(#clip260)" d="M1508.82 9.54393 L1508.82 83.5134 L1491.64 83.5134 L1491.64 77.7206 L1501.32 77.7206 L1501.32 15.3367 L1491.64 15.3367 L1491.64 9.54393 L1508.82 9.54393 Z" fill="#000000" fill-rule="nonzero" fill-opacity="1" /><polyline clip-path="url(#clip262)" style="stroke:#009af9; stroke-linecap:round; stroke-linejoin:round; stroke-width:4; stroke-opacity:1; fill:none" points="235.283,583.408 327.347,577.334 419.411,577.334 511.475,577.334 603.539,609.037 695.603,609.037 787.667,609.037 879.731,609.037 971.795,609.037 1063.86,609.037 1155.92,609.037 1247.99,385.112 1340.05,361.54 1432.12,137.615 1524.18,137.615 1616.24,137.615 1708.31,137.615 1800.37,360.92 1892.44,360.92 1984.5,360.92 2076.56,609.037 2168.63,609.037 2260.69,609.037 2352.76,609.037 "/>
<polyline clip-path="url(#clip262)" style="stroke:#e26f46; stroke-linecap:round; stroke-linejoin:round; stroke-width:4; stroke-opacity:1; fill:none" points="235.283,609.037 327.347,609.037 419.411,609.037 511.475,609.037 603.539,609.037 695.603,609.037 787.667,609.037 879.731,609.037 971.795,609.037 1063.86,609.037 1155.92,609.037 1247.99,609.037 1340.05,609.037 1432.12,609.037 1524.18,609.037 1616.24,609.037 1708.31,609.037 1800.37,609.037 1892.44,609.037 1984.5,609.037 2076.56,609.037 2168.63,609.037 2260.69,609.037 2352.76,609.037 "/>
<polyline clip-path="url(#clip262)" style="stroke:#3da44d; stroke-linecap:round; stroke-linejoin:round; stroke-width:4; stroke-opacity:1; fill:none" points="235.283,385.112 327.347,385.112 419.411,361.54 511.475,361.54 603.539,137.615 695.603,137.615 787.667,137.615 879.731,137.615 971.795,137.615 1063.86,137.615 1155.92,137.615 1247.99,360.92 1340.05,609.037 1432.12,609.037 1524.18,609.037 1616.24,609.037 1708.31,609.037 1800.37,609.037 1892.44,609.037 1984.5,609.037 2076.56,609.037 2168.63,609.037 2260.69,609.037 2352.76,609.037 "/>
<polyline clip-path="url(#clip262)" style="stroke:#c271d2; stroke-linecap:round; stroke-linejoin:round; stroke-width:4; stroke-opacity:1; fill:none" points="235.283,609.037 327.347,609.037 419.411,609.037 511.475,609.037 603.539,385.112 695.603,385.112 787.667,360.92 879.731,609.037 971.795,609.037 1063.86,609.037 1155.92,609.037 1247.99,609.037 1340.05,609.037 1432.12,609.037 1524.18,609.037 1616.24,609.037 1708.31,609.037 1800.37,609.037 1892.44,609.037 1984.5,609.037 2076.56,609.037 2168.63,609.037 2260.69,609.037 2352.76,609.037 "/>
<polyline clip-path="url(#clip262)" style="stroke:#ac8d18; stroke-linecap:round; stroke-linejoin:round; stroke-width:4; stroke-opacity:1; fill:none" points="235.283,609.037 327.347,609.037 419.411,385.112 511.475,385.112 603.539,361.54 695.603,361.54 787.667,361.54 879.731,361.54 971.795,361.54 1063.86,361.54 1155.92,361.54 1247.99,361.54 1340.05,361.54 1432.12,361.54 1524.18,361.54 1616.24,137.615 1708.31,137.615 1800.37,137.615 1892.44,261.414 1984.5,509.531 2076.56,609.037 2168.63,609.037 2260.69,609.037 2352.76,609.037 "/>
<polyline clip-path="url(#clip262)" style="stroke:#00a9ad; stroke-linecap:round; stroke-linejoin:round; stroke-width:4; stroke-opacity:1; fill:none" points="235.283,609.037 327.347,385.112 419.411,385.112 511.475,285.046 603.539,285.046 695.603,285.046 787.667,508.998 879.731,609.037 971.795,609.037 1063.86,609.037 1155.92,609.037 1247.99,385.112 1340.05,161.186 1432.12,137.615 1524.18,137.615 1616.24,360.92 1708.31,609.037 1800.37,609.037 1892.44,609.037 1984.5,609.037 2076.56,609.037 2168.63,609.037 2260.69,609.037 2352.76,609.037 "/>
<polyline clip-path="url(#clip262)" style="stroke:#ed5d92; stroke-linecap:round; stroke-linejoin:round; stroke-width:4; stroke-opacity:1; fill:none" points="235.283,385.112 327.347,609.037 419.411,609.037 511.475,385.112 603.539,385.112 695.603,385.112 787.667,385.112 879.731,385.112 971.795,385.112 1063.86,385.112 1155.92,385.112 1247.99,385.112 1340.05,361.54 1432.12,137.615 1524.18,137.615 1616.24,360.92 1708.31,609.037 1800.37,609.037 1892.44,609.037 1984.5,609.037 2076.56,609.037 2168.63,609.037 2260.69,609.037 2352.76,609.037 "/>
<polyline clip-path="url(#clip262)" style="stroke:#c68125; stroke-linecap:round; stroke-linejoin:round; stroke-width:4; stroke-opacity:1; fill:none" points="235.283,385.112 327.347,385.112 419.411,161.186 511.475,137.615 603.539,137.615 695.603,385.732 787.667,609.037 879.731,609.037 971.795,609.037 1063.86,609.037 1155.92,609.037 1247.99,609.037 1340.05,609.037 1432.12,609.037 1524.18,609.037 1616.24,609.037 1708.31,609.037 1800.37,609.037 1892.44,609.037 1984.5,609.037 2076.56,609.037 2168.63,609.037 2260.69,609.037 2352.76,609.037 "/>
<polyline clip-path="url(#clip262)" style="stroke:#00a98d; stroke-linecap:round; stroke-linejoin:round; stroke-width:4; stroke-opacity:1; fill:none" points="235.283,609.037 327.347,609.037 419.411,385.112 511.475,385.112 603.539,385.112 695.603,385.112 787.667,385.112 879.731,361.54 971.795,361.54 1063.86,137.615 1155.92,137.615 1247.99,137.615 1340.05,137.615 1432.12,137.615 1524.18,137.615 1616.24,137.615 1708.31,137.615 1800.37,151.686 1892.44,259.786 1984.5,507.903 2076.56,609.037 2168.63,609.037 2260.69,609.037 2352.76,609.037 "/>
<polyline clip-path="url(#clip262)" style="stroke:#8e971d; stroke-linecap:round; stroke-linejoin:round; stroke-width:4; stroke-opacity:1; fill:none" points="235.283,609.037 327.347,609.037 419.411,609.037 511.475,609.037 603.539,609.037 695.603,609.037 787.667,609.037 879.731,609.037 971.795,609.037 1063.86,609.037 1155.92,609.037 1247.99,609.037 1340.05,609.037 1432.12,609.037 1524.18,609.037 1616.24,609.037 1708.31,609.037 1800.37,609.037 1892.44,609.037 1984.5,609.037 2076.56,609.037 2168.63,609.037 2260.69,609.037 2352.76,609.037 "/>
<polyline clip-path="url(#clip262)" style="stroke:#00a8cb; stroke-linecap:round; stroke-linejoin:round; stroke-width:4; stroke-opacity:1; fill:none" points="235.283,609.037 327.347,609.037 419.411,609.037 511.475,609.037 603.539,609.037 695.603,609.037 787.667,609.037 879.731,609.037 971.795,609.037 1063.86,609.037 1155.92,609.037 1247.99,609.037 1340.05,609.037 1432.12,609.037 1524.18,552.112 1616.24,609.037 1708.31,609.037 1800.37,609.037 1892.44,609.037 1984.5,609.037 2076.56,609.037 2168.63,609.037 2260.69,609.037 2352.76,609.037 "/>
<polyline clip-path="url(#clip262)" style="stroke:#9b7fe8; stroke-linecap:round; stroke-linejoin:round; stroke-width:4; stroke-opacity:1; fill:none" points="235.283,609.037 327.347,609.037 419.411,609.037 511.475,385.112 603.539,296.574 695.603,296.574 787.667,296.574 879.731,296.574 971.795,296.574 1063.86,296.574 1155.92,296.574 1247.99,296.574 1340.05,296.574 1432.12,296.574 1524.18,137.615 1616.24,137.615 1708.31,137.615 1800.37,385.732 1892.44,609.037 1984.5,609.037 2076.56,609.037 2168.63,609.037 2260.69,609.037 2352.76,609.037 "/>
<path clip-path="url(#clip260)" d="M2018.46 814.049 L2282.17 814.049 L2282.17 140.129 L2018.46 140.129  Z" fill="#ffffff" fill-rule="evenodd" fill-opacity="1"/>
<polyline clip-path="url(#clip260)" style="stroke:#000000; stroke-linecap:round; stroke-linejoin:round; stroke-width:4; stroke-opacity:1; fill:none" points="2018.46,814.049 2282.17,814.049 2282.17,140.129 2018.46,140.129 2018.46,814.049 "/>
<polyline clip-path="url(#clip260)" style="stroke:#009af9; stroke-linecap:round; stroke-linejoin:round; stroke-width:4; stroke-opacity:1; fill:none" points="2041.99,191.969 2183.15,191.969 "/>
<path clip-path="url(#clip260)" d="M2207.35 205.314 L2214.99 205.314 L2214.99 178.948 L2206.68 180.615 L2206.68 176.356 L2214.94 174.689 L2219.62 174.689 L2219.62 205.314 L2227.26 205.314 L2227.26 209.249 L2207.35 209.249 L2207.35 205.314 Z" fill="#000000" fill-rule="nonzero" fill-opacity="1" /><polyline clip-path="url(#clip260)" style="stroke:#e26f46; stroke-linecap:round; stroke-linejoin:round; stroke-width:4; stroke-opacity:1; fill:none" points="2041.99,243.809 2183.15,243.809 "/>
<path clip-path="url(#clip260)" d="M2212.3 257.154 L2228.62 257.154 L2228.62 261.089 L2206.68 261.089 L2206.68 257.154 Q2209.34 254.399 2213.92 249.77 Q2218.53 245.117 2219.71 243.774 Q2221.96 241.251 2222.84 239.515 Q2223.74 237.756 2223.74 236.066 Q2223.74 233.311 2221.79 231.575 Q2219.87 229.839 2216.77 229.839 Q2214.57 229.839 2212.12 230.603 Q2209.69 231.367 2206.91 232.918 L2206.91 228.196 Q2209.73 227.061 2212.19 226.483 Q2214.64 225.904 2216.68 225.904 Q2222.05 225.904 2225.24 228.589 Q2228.44 231.274 2228.44 235.765 Q2228.44 237.895 2227.63 239.816 Q2226.84 241.714 2224.73 244.307 Q2224.16 244.978 2221.05 248.196 Q2217.95 251.39 2212.3 257.154 Z" fill="#000000" fill-rule="nonzero" fill-opacity="1" /><polyline clip-path="url(#clip260)" style="stroke:#3da44d; stroke-linecap:round; stroke-linejoin:round; stroke-width:4; stroke-opacity:1; fill:none" points="2041.99,295.649 2183.15,295.649 "/>
<path clip-path="url(#clip260)" d="M2222.3 294.295 Q2225.66 295.012 2227.54 297.281 Q2229.43 299.549 2229.43 302.883 Q2229.43 307.999 2225.91 310.799 Q2222.4 313.6 2215.91 313.6 Q2213.74 313.6 2211.42 313.161 Q2209.13 312.744 2206.68 311.887 L2206.68 307.374 Q2208.62 308.508 2210.94 309.086 Q2213.25 309.665 2215.78 309.665 Q2220.17 309.665 2222.47 307.929 Q2224.78 306.193 2224.78 302.883 Q2224.78 299.827 2222.63 298.114 Q2220.5 296.378 2216.68 296.378 L2212.65 296.378 L2212.65 292.536 L2216.86 292.536 Q2220.31 292.536 2222.14 291.17 Q2223.97 289.781 2223.97 287.188 Q2223.97 284.526 2222.07 283.114 Q2220.2 281.679 2216.68 281.679 Q2214.76 281.679 2212.56 282.096 Q2210.36 282.513 2207.72 283.392 L2207.72 279.226 Q2210.38 278.485 2212.7 278.114 Q2215.04 277.744 2217.1 277.744 Q2222.42 277.744 2225.52 280.175 Q2228.62 282.582 2228.62 286.702 Q2228.62 289.573 2226.98 291.563 Q2225.34 293.531 2222.3 294.295 Z" fill="#000000" fill-rule="nonzero" fill-opacity="1" /><polyline clip-path="url(#clip260)" style="stroke:#c271d2; stroke-linecap:round; stroke-linejoin:round; stroke-width:4; stroke-opacity:1; fill:none" points="2041.99,347.489 2183.15,347.489 "/>
<path clip-path="url(#clip260)" d="M2222.28 334.283 L2210.47 352.732 L2222.28 352.732 L2222.28 334.283 M2221.05 330.209 L2226.93 330.209 L2226.93 352.732 L2231.86 352.732 L2231.86 356.621 L2226.93 356.621 L2226.93 364.769 L2222.28 364.769 L2222.28 356.621 L2206.68 356.621 L2206.68 352.107 L2221.05 330.209 Z" fill="#000000" fill-rule="nonzero" fill-opacity="1" /><polyline clip-path="url(#clip260)" style="stroke:#ac8d18; stroke-linecap:round; stroke-linejoin:round; stroke-width:4; stroke-opacity:1; fill:none" points="2041.99,399.329 2183.15,399.329 "/>
<path clip-path="url(#clip260)" d="M2208.14 382.049 L2226.49 382.049 L2226.49 385.984 L2212.42 385.984 L2212.42 394.456 Q2213.44 394.109 2214.46 393.947 Q2215.47 393.762 2216.49 393.762 Q2222.28 393.762 2225.66 396.933 Q2229.04 400.105 2229.04 405.521 Q2229.04 411.1 2225.57 414.202 Q2222.1 417.28 2215.78 417.28 Q2213.6 417.28 2211.33 416.91 Q2209.09 416.54 2206.68 415.799 L2206.68 411.1 Q2208.76 412.234 2210.98 412.79 Q2213.21 413.345 2215.68 413.345 Q2219.69 413.345 2222.03 411.239 Q2224.36 409.132 2224.36 405.521 Q2224.36 401.91 2222.03 399.804 Q2219.69 397.697 2215.68 397.697 Q2213.81 397.697 2211.93 398.114 Q2210.08 398.53 2208.14 399.41 L2208.14 382.049 Z" fill="#000000" fill-rule="nonzero" fill-opacity="1" /><polyline clip-path="url(#clip260)" style="stroke:#00a9ad; stroke-linecap:round; stroke-linejoin:round; stroke-width:4; stroke-opacity:1; fill:none" points="2041.99,451.169 2183.15,451.169 "/>
<path clip-path="url(#clip260)" d="M2219.02 449.306 Q2215.87 449.306 2214.02 451.458 Q2212.19 453.611 2212.19 457.361 Q2212.19 461.088 2214.02 463.264 Q2215.87 465.417 2219.02 465.417 Q2222.16 465.417 2223.99 463.264 Q2225.85 461.088 2225.85 457.361 Q2225.85 453.611 2223.99 451.458 Q2222.16 449.306 2219.02 449.306 M2228.3 434.653 L2228.3 438.912 Q2226.54 438.079 2224.73 437.639 Q2222.95 437.199 2221.19 437.199 Q2216.56 437.199 2214.11 440.324 Q2211.68 443.449 2211.33 449.769 Q2212.7 447.755 2214.76 446.69 Q2216.82 445.602 2219.29 445.602 Q2224.5 445.602 2227.51 448.773 Q2230.54 451.921 2230.54 457.361 Q2230.54 462.685 2227.4 465.903 Q2224.25 469.12 2219.02 469.12 Q2213.02 469.12 2209.85 464.537 Q2206.68 459.931 2206.68 451.204 Q2206.68 443.009 2210.57 438.148 Q2214.46 433.264 2221.01 433.264 Q2222.77 433.264 2224.55 433.611 Q2226.35 433.958 2228.3 434.653 Z" fill="#000000" fill-rule="nonzero" fill-opacity="1" /><polyline clip-path="url(#clip260)" style="stroke:#ed5d92; stroke-linecap:round; stroke-linejoin:round; stroke-width:4; stroke-opacity:1; fill:none" points="2041.99,503.009 2183.15,503.009 "/>
<path clip-path="url(#clip260)" d="M2206.68 485.729 L2228.9 485.729 L2228.9 487.72 L2216.35 520.289 L2211.47 520.289 L2223.28 489.664 L2206.68 489.664 L2206.68 485.729 Z" fill="#000000" fill-rule="nonzero" fill-opacity="1" /><polyline clip-path="url(#clip260)" style="stroke:#c68125; stroke-linecap:round; stroke-linejoin:round; stroke-width:4; stroke-opacity:1; fill:none" points="2041.99,554.849 2183.15,554.849 "/>
<path clip-path="url(#clip260)" d="M2218.53 555.717 Q2215.2 555.717 2213.28 557.499 Q2211.38 559.282 2211.38 562.407 Q2211.38 565.532 2213.28 567.314 Q2215.2 569.097 2218.53 569.097 Q2221.86 569.097 2223.79 567.314 Q2225.71 565.509 2225.71 562.407 Q2225.71 559.282 2223.79 557.499 Q2221.89 555.717 2218.53 555.717 M2213.85 553.726 Q2210.85 552.986 2209.16 550.925 Q2207.49 548.865 2207.49 545.902 Q2207.49 541.759 2210.43 539.351 Q2213.39 536.944 2218.53 536.944 Q2223.69 536.944 2226.63 539.351 Q2229.57 541.759 2229.57 545.902 Q2229.57 548.865 2227.88 550.925 Q2226.22 552.986 2223.23 553.726 Q2226.61 554.513 2228.48 556.805 Q2230.38 559.097 2230.38 562.407 Q2230.38 567.43 2227.3 570.115 Q2224.25 572.8 2218.53 572.8 Q2212.81 572.8 2209.73 570.115 Q2206.68 567.43 2206.68 562.407 Q2206.68 559.097 2208.58 556.805 Q2210.47 554.513 2213.85 553.726 M2212.14 546.342 Q2212.14 549.027 2213.81 550.532 Q2215.5 552.037 2218.53 552.037 Q2221.54 552.037 2223.23 550.532 Q2224.94 549.027 2224.94 546.342 Q2224.94 543.657 2223.23 542.152 Q2221.54 540.648 2218.53 540.648 Q2215.5 540.648 2213.81 542.152 Q2212.14 543.657 2212.14 546.342 Z" fill="#000000" fill-rule="nonzero" fill-opacity="1" /><polyline clip-path="url(#clip260)" style="stroke:#00a98d; stroke-linecap:round; stroke-linejoin:round; stroke-width:4; stroke-opacity:1; fill:none" points="2041.99,606.689 2183.15,606.689 "/>
<path clip-path="url(#clip260)" d="M2208.9 623.251 L2208.9 618.992 Q2210.66 619.826 2212.47 620.265 Q2214.27 620.705 2216.01 620.705 Q2220.64 620.705 2223.07 617.603 Q2225.52 614.478 2225.87 608.136 Q2224.53 610.127 2222.47 611.191 Q2220.41 612.256 2217.91 612.256 Q2212.72 612.256 2209.69 609.131 Q2206.68 605.983 2206.68 600.543 Q2206.68 595.219 2209.83 592.002 Q2212.97 588.784 2218.21 588.784 Q2224.2 588.784 2227.35 593.391 Q2230.52 597.974 2230.52 606.724 Q2230.52 614.895 2226.63 619.779 Q2222.77 624.64 2216.22 624.64 Q2214.46 624.64 2212.65 624.293 Q2210.85 623.946 2208.9 623.251 M2218.21 608.599 Q2221.35 608.599 2223.18 606.446 Q2225.04 604.293 2225.04 600.543 Q2225.04 596.816 2223.18 594.664 Q2221.35 592.488 2218.21 592.488 Q2215.06 592.488 2213.21 594.664 Q2211.38 596.816 2211.38 600.543 Q2211.38 604.293 2213.21 606.446 Q2215.06 608.599 2218.21 608.599 Z" fill="#000000" fill-rule="nonzero" fill-opacity="1" /><polyline clip-path="url(#clip260)" style="stroke:#8e971d; stroke-linecap:round; stroke-linejoin:round; stroke-width:4; stroke-opacity:1; fill:none" points="2041.99,658.529 2183.15,658.529 "/>
<path clip-path="url(#clip260)" d="M2207.35 671.874 L2214.99 671.874 L2214.99 645.508 L2206.68 647.175 L2206.68 642.916 L2214.94 641.249 L2219.62 641.249 L2219.62 671.874 L2227.26 671.874 L2227.26 675.809 L2207.35 675.809 L2207.35 671.874 Z" fill="#000000" fill-rule="nonzero" fill-opacity="1" /><path clip-path="url(#clip260)" d="M2246.7 644.328 Q2243.09 644.328 2241.26 647.893 Q2239.46 651.434 2239.46 658.564 Q2239.46 665.67 2241.26 669.235 Q2243.09 672.777 2246.7 672.777 Q2250.34 672.777 2252.14 669.235 Q2253.97 665.67 2253.97 658.564 Q2253.97 651.434 2252.14 647.893 Q2250.34 644.328 2246.7 644.328 M2246.7 640.624 Q2252.51 640.624 2255.57 645.231 Q2258.65 649.814 2258.65 658.564 Q2258.65 667.291 2255.57 671.897 Q2252.51 676.48 2246.7 676.48 Q2240.89 676.48 2237.81 671.897 Q2234.76 667.291 2234.76 658.564 Q2234.76 649.814 2237.81 645.231 Q2240.89 640.624 2246.7 640.624 Z" fill="#000000" fill-rule="nonzero" fill-opacity="1" /><polyline clip-path="url(#clip260)" style="stroke:#00a8cb; stroke-linecap:round; stroke-linejoin:round; stroke-width:4; stroke-opacity:1; fill:none" points="2041.99,710.369 2183.15,710.369 "/>
<path clip-path="url(#clip260)" d="M2207.35 723.714 L2214.99 723.714 L2214.99 697.348 L2206.68 699.015 L2206.68 694.756 L2214.94 693.089 L2219.62 693.089 L2219.62 723.714 L2227.26 723.714 L2227.26 727.649 L2207.35 727.649 L2207.35 723.714 Z" fill="#000000" fill-rule="nonzero" fill-opacity="1" /><path clip-path="url(#clip260)" d="M2237.51 723.714 L2245.15 723.714 L2245.15 697.348 L2236.84 699.015 L2236.84 694.756 L2245.1 693.089 L2249.78 693.089 L2249.78 723.714 L2257.42 723.714 L2257.42 727.649 L2237.51 727.649 L2237.51 723.714 Z" fill="#000000" fill-rule="nonzero" fill-opacity="1" /><polyline clip-path="url(#clip260)" style="stroke:#9b7fe8; stroke-linecap:round; stroke-linejoin:round; stroke-width:4; stroke-opacity:1; fill:none" points="2041.99,762.209 2183.15,762.209 "/>
<path clip-path="url(#clip260)" d="M2207.35 775.554 L2214.99 775.554 L2214.99 749.188 L2206.68 750.855 L2206.68 746.596 L2214.94 744.929 L2219.62 744.929 L2219.62 775.554 L2227.26 775.554 L2227.26 779.489 L2207.35 779.489 L2207.35 775.554 Z" fill="#000000" fill-rule="nonzero" fill-opacity="1" /><path clip-path="url(#clip260)" d="M2240.73 775.554 L2257.05 775.554 L2257.05 779.489 L2235.1 779.489 L2235.1 775.554 Q2237.77 772.799 2242.35 768.17 Q2246.96 763.517 2248.14 762.174 Q2250.38 759.651 2251.26 757.915 Q2252.16 756.156 2252.16 754.466 Q2252.16 751.711 2250.22 749.975 Q2248.3 748.239 2245.2 748.239 Q2243 748.239 2240.54 749.003 Q2238.11 749.767 2235.34 751.318 L2235.34 746.596 Q2238.16 745.461 2240.61 744.883 Q2243.07 744.304 2245.1 744.304 Q2250.47 744.304 2253.67 746.989 Q2256.86 749.674 2256.86 754.165 Q2256.86 756.295 2256.05 758.216 Q2255.27 760.114 2253.16 762.707 Q2252.58 763.378 2249.48 766.596 Q2246.38 769.79 2240.73 775.554 Z" fill="#000000" fill-rule="nonzero" fill-opacity="1" /><path clip-path="url(#clip260)" d="M235.283 1423.18 L2352.76 1423.18 L2352.76 923.472 L235.283 923.472  Z" fill="#ffffff" fill-rule="evenodd" fill-opacity="1"/>
<polyline clip-path="url(#clip261)" style="stroke:#000000; stroke-linecap:round; stroke-linejoin:round; stroke-width:2; stroke-opacity:0.1; fill:none" points="603.539,1423.18 603.539,923.472 "/>
<polyline clip-path="url(#clip261)" style="stroke:#000000; stroke-linecap:round; stroke-linejoin:round; stroke-width:2; stroke-opacity:0.1; fill:none" points="1063.86,1423.18 1063.86,923.472 "/>
<polyline clip-path="url(#clip261)" style="stroke:#000000; stroke-linecap:round; stroke-linejoin:round; stroke-width:2; stroke-opacity:0.1; fill:none" points="1524.18,1423.18 1524.18,923.472 "/>
<polyline clip-path="url(#clip261)" style="stroke:#000000; stroke-linecap:round; stroke-linejoin:round; stroke-width:2; stroke-opacity:0.1; fill:none" points="1984.5,1423.18 1984.5,923.472 "/>
<polyline clip-path="url(#clip261)" style="stroke:#000000; stroke-linecap:round; stroke-linejoin:round; stroke-width:2; stroke-opacity:0.1; fill:none" points="235.283,1409.04 2352.76,1409.04 "/>
<polyline clip-path="url(#clip261)" style="stroke:#000000; stroke-linecap:round; stroke-linejoin:round; stroke-width:2; stroke-opacity:0.1; fill:none" points="235.283,1304.82 2352.76,1304.82 "/>
<polyline clip-path="url(#clip261)" style="stroke:#000000; stroke-linecap:round; stroke-linejoin:round; stroke-width:2; stroke-opacity:0.1; fill:none" points="235.283,1200.6 2352.76,1200.6 "/>
<polyline clip-path="url(#clip261)" style="stroke:#000000; stroke-linecap:round; stroke-linejoin:round; stroke-width:2; stroke-opacity:0.1; fill:none" points="235.283,1096.38 2352.76,1096.38 "/>
<polyline clip-path="url(#clip261)" style="stroke:#000000; stroke-linecap:round; stroke-linejoin:round; stroke-width:2; stroke-opacity:0.1; fill:none" points="235.283,992.166 2352.76,992.166 "/>
<polyline clip-path="url(#clip260)" style="stroke:#000000; stroke-linecap:round; stroke-linejoin:round; stroke-width:4; stroke-opacity:1; fill:none" points="235.283,1423.18 2352.76,1423.18 "/>
<polyline clip-path="url(#clip260)" style="stroke:#000000; stroke-linecap:round; stroke-linejoin:round; stroke-width:4; stroke-opacity:1; fill:none" points="603.539,1423.18 603.539,1404.28 "/>
<polyline clip-path="url(#clip260)" style="stroke:#000000; stroke-linecap:round; stroke-linejoin:round; stroke-width:4; stroke-opacity:1; fill:none" points="1063.86,1423.18 1063.86,1404.28 "/>
<polyline clip-path="url(#clip260)" style="stroke:#000000; stroke-linecap:round; stroke-linejoin:round; stroke-width:4; stroke-opacity:1; fill:none" points="1524.18,1423.18 1524.18,1404.28 "/>
<polyline clip-path="url(#clip260)" style="stroke:#000000; stroke-linecap:round; stroke-linejoin:round; stroke-width:4; stroke-opacity:1; fill:none" points="1984.5,1423.18 1984.5,1404.28 "/>
<path clip-path="url(#clip260)" d="M593.817 1451.02 L612.173 1451.02 L612.173 1454.96 L598.099 1454.96 L598.099 1463.43 Q599.118 1463.08 600.136 1462.92 Q601.155 1462.73 602.173 1462.73 Q607.96 1462.73 611.34 1465.9 Q614.72 1469.08 614.72 1474.49 Q614.72 1480.07 611.247 1483.17 Q607.775 1486.25 601.456 1486.25 Q599.28 1486.25 597.011 1485.88 Q594.766 1485.51 592.359 1484.77 L592.359 1480.07 Q594.442 1481.2 596.664 1481.76 Q598.886 1482.32 601.363 1482.32 Q605.368 1482.32 607.706 1480.21 Q610.044 1478.1 610.044 1474.49 Q610.044 1470.88 607.706 1468.77 Q605.368 1466.67 601.363 1466.67 Q599.488 1466.67 597.613 1467.08 Q595.761 1467.5 593.817 1468.38 L593.817 1451.02 Z" fill="#000000" fill-rule="nonzero" fill-opacity="1" /><path clip-path="url(#clip260)" d="M1038.55 1481.64 L1046.19 1481.64 L1046.19 1455.28 L1037.88 1456.95 L1037.88 1452.69 L1046.14 1451.02 L1050.82 1451.02 L1050.82 1481.64 L1058.45 1481.64 L1058.45 1485.58 L1038.55 1485.58 L1038.55 1481.64 Z" fill="#000000" fill-rule="nonzero" fill-opacity="1" /><path clip-path="url(#clip260)" d="M1077.9 1454.1 Q1074.29 1454.1 1072.46 1457.66 Q1070.65 1461.2 1070.65 1468.33 Q1070.65 1475.44 1072.46 1479.01 Q1074.29 1482.55 1077.9 1482.55 Q1081.53 1482.55 1083.34 1479.01 Q1085.17 1475.44 1085.17 1468.33 Q1085.17 1461.2 1083.34 1457.66 Q1081.53 1454.1 1077.9 1454.1 M1077.9 1450.39 Q1083.71 1450.39 1086.76 1455 Q1089.84 1459.58 1089.84 1468.33 Q1089.84 1477.06 1086.76 1481.67 Q1083.71 1486.25 1077.9 1486.25 Q1072.09 1486.25 1069.01 1481.67 Q1065.95 1477.06 1065.95 1468.33 Q1065.95 1459.58 1069.01 1455 Q1072.09 1450.39 1077.9 1450.39 Z" fill="#000000" fill-rule="nonzero" fill-opacity="1" /><path clip-path="url(#clip260)" d="M1499.36 1481.64 L1507 1481.64 L1507 1455.28 L1498.69 1456.95 L1498.69 1452.69 L1506.96 1451.02 L1511.63 1451.02 L1511.63 1481.64 L1519.27 1481.64 L1519.27 1485.58 L1499.36 1485.58 L1499.36 1481.64 Z" fill="#000000" fill-rule="nonzero" fill-opacity="1" /><path clip-path="url(#clip260)" d="M1528.76 1451.02 L1547.12 1451.02 L1547.12 1454.96 L1533.05 1454.96 L1533.05 1463.43 Q1534.06 1463.08 1535.08 1462.92 Q1536.1 1462.73 1537.12 1462.73 Q1542.91 1462.73 1546.29 1465.9 Q1549.67 1469.08 1549.67 1474.49 Q1549.67 1480.07 1546.19 1483.17 Q1542.72 1486.25 1536.4 1486.25 Q1534.23 1486.25 1531.96 1485.88 Q1529.71 1485.51 1527.3 1484.77 L1527.3 1480.07 Q1529.39 1481.2 1531.61 1481.76 Q1533.83 1482.32 1536.31 1482.32 Q1540.31 1482.32 1542.65 1480.21 Q1544.99 1478.1 1544.99 1474.49 Q1544.99 1470.88 1542.65 1468.77 Q1540.31 1466.67 1536.31 1466.67 Q1534.43 1466.67 1532.56 1467.08 Q1530.71 1467.5 1528.76 1468.38 L1528.76 1451.02 Z" fill="#000000" fill-rule="nonzero" fill-opacity="1" /><path clip-path="url(#clip260)" d="M1963.27 1481.64 L1979.59 1481.64 L1979.59 1485.58 L1957.65 1485.58 L1957.65 1481.64 Q1960.31 1478.89 1964.89 1474.26 Q1969.5 1469.61 1970.68 1468.27 Q1972.93 1465.74 1973.81 1464.01 Q1974.71 1462.25 1974.71 1460.56 Q1974.71 1457.8 1972.76 1456.07 Q1970.84 1454.33 1967.74 1454.33 Q1965.54 1454.33 1963.09 1455.09 Q1960.66 1455.86 1957.88 1457.41 L1957.88 1452.69 Q1960.7 1451.55 1963.16 1450.97 Q1965.61 1450.39 1967.65 1450.39 Q1973.02 1450.39 1976.21 1453.08 Q1979.41 1455.77 1979.41 1460.26 Q1979.41 1462.39 1978.6 1464.31 Q1977.81 1466.2 1975.7 1468.8 Q1975.12 1469.47 1972.02 1472.69 Q1968.92 1475.88 1963.27 1481.64 Z" fill="#000000" fill-rule="nonzero" fill-opacity="1" /><path clip-path="url(#clip260)" d="M1999.41 1454.1 Q1995.8 1454.1 1993.97 1457.66 Q1992.16 1461.2 1992.16 1468.33 Q1992.16 1475.44 1993.97 1479.01 Q1995.8 1482.55 1999.41 1482.55 Q2003.04 1482.55 2004.85 1479.01 Q2006.68 1475.44 2006.68 1468.33 Q2006.68 1461.2 2004.85 1457.66 Q2003.04 1454.1 1999.41 1454.1 M1999.41 1450.39 Q2005.22 1450.39 2008.27 1455 Q2011.35 1459.58 2011.35 1468.33 Q2011.35 1477.06 2008.27 1481.67 Q2005.22 1486.25 1999.41 1486.25 Q1993.6 1486.25 1990.52 1481.67 Q1987.46 1477.06 1987.46 1468.33 Q1987.46 1459.58 1990.52 1455 Q1993.6 1450.39 1999.41 1450.39 Z" fill="#000000" fill-rule="nonzero" fill-opacity="1" /><path clip-path="url(#clip260)" d="M1218.71 1520.52 L1225.14 1520.52 L1225.14 1540 L1248.5 1540 L1248.5 1520.52 L1254.93 1520.52 L1254.93 1568.04 L1248.5 1568.04 L1248.5 1545.41 L1225.14 1545.41 L1225.14 1568.04 L1218.71 1568.04 L1218.71 1520.52 Z" fill="#000000" fill-rule="nonzero" fill-opacity="1" /><path clip-path="url(#clip260)" d="M1281.29 1536.5 Q1276.58 1536.5 1273.84 1540.19 Q1271.1 1543.85 1271.1 1550.25 Q1271.1 1556.65 1273.81 1560.34 Q1276.55 1564 1281.29 1564 Q1285.97 1564 1288.7 1560.31 Q1291.44 1556.62 1291.44 1550.25 Q1291.44 1543.92 1288.7 1540.23 Q1285.97 1536.5 1281.29 1536.5 M1281.29 1531.54 Q1288.93 1531.54 1293.29 1536.5 Q1297.65 1541.47 1297.65 1550.25 Q1297.65 1559 1293.29 1564 Q1288.93 1568.97 1281.29 1568.97 Q1273.62 1568.97 1269.26 1564 Q1264.93 1559 1264.93 1550.25 Q1264.93 1541.47 1269.26 1536.5 Q1273.62 1531.54 1281.29 1531.54 Z" fill="#000000" fill-rule="nonzero" fill-opacity="1" /><path clip-path="url(#clip260)" d="M1306.75 1553.98 L1306.75 1532.4 L1312.61 1532.4 L1312.61 1553.75 Q1312.61 1558.81 1314.58 1561.36 Q1316.55 1563.87 1320.5 1563.87 Q1325.24 1563.87 1327.98 1560.85 Q1330.75 1557.83 1330.75 1552.61 L1330.75 1532.4 L1336.61 1532.4 L1336.61 1568.04 L1330.75 1568.04 L1330.75 1562.57 Q1328.62 1565.82 1325.78 1567.41 Q1322.98 1568.97 1319.26 1568.97 Q1313.12 1568.97 1309.93 1565.15 Q1306.75 1561.33 1306.75 1553.98 M1321.49 1531.54 L1321.49 1531.54 Z" fill="#000000" fill-rule="nonzero" fill-opacity="1" /><path clip-path="url(#clip260)" d="M1369.33 1537.87 Q1368.34 1537.3 1367.16 1537.04 Q1366.02 1536.76 1364.62 1536.76 Q1359.65 1536.76 1356.98 1540 Q1354.33 1543.22 1354.33 1549.27 L1354.33 1568.04 L1348.45 1568.04 L1348.45 1532.4 L1354.33 1532.4 L1354.33 1537.93 Q1356.18 1534.69 1359.14 1533.13 Q1362.1 1531.54 1366.33 1531.54 Q1366.94 1531.54 1367.67 1531.63 Q1368.4 1531.7 1369.29 1531.85 L1369.33 1537.87 Z" fill="#000000" fill-rule="nonzero" fill-opacity="1" /><polyline clip-path="url(#clip260)" style="stroke:#000000; stroke-linecap:round; stroke-linejoin:round; stroke-width:4; stroke-opacity:1; fill:none" points="235.283,1423.18 235.283,923.472 "/>
<polyline clip-path="url(#clip260)" style="stroke:#000000; stroke-linecap:round; stroke-linejoin:round; stroke-width:4; stroke-opacity:1; fill:none" points="235.283,1409.04 254.18,1409.04 "/>
<polyline clip-path="url(#clip260)" style="stroke:#000000; stroke-linecap:round; stroke-linejoin:round; stroke-width:4; stroke-opacity:1; fill:none" points="235.283,1304.82 254.18,1304.82 "/>
<polyline clip-path="url(#clip260)" style="stroke:#000000; stroke-linecap:round; stroke-linejoin:round; stroke-width:4; stroke-opacity:1; fill:none" points="235.283,1200.6 254.18,1200.6 "/>
<polyline clip-path="url(#clip260)" style="stroke:#000000; stroke-linecap:round; stroke-linejoin:round; stroke-width:4; stroke-opacity:1; fill:none" points="235.283,1096.38 254.18,1096.38 "/>
<polyline clip-path="url(#clip260)" style="stroke:#000000; stroke-linecap:round; stroke-linejoin:round; stroke-width:4; stroke-opacity:1; fill:none" points="235.283,992.166 254.18,992.166 "/>
<path clip-path="url(#clip260)" d="M187.338 1394.84 Q183.727 1394.84 181.899 1398.4 Q180.093 1401.94 180.093 1409.07 Q180.093 1416.18 181.899 1419.74 Q183.727 1423.28 187.338 1423.28 Q190.973 1423.28 192.778 1419.74 Q194.607 1416.18 194.607 1409.07 Q194.607 1401.94 192.778 1398.4 Q190.973 1394.84 187.338 1394.84 M187.338 1391.13 Q193.149 1391.13 196.204 1395.74 Q199.283 1400.32 199.283 1409.07 Q199.283 1417.8 196.204 1422.41 Q193.149 1426.99 187.338 1426.99 Q181.528 1426.99 178.45 1422.41 Q175.394 1417.8 175.394 1409.07 Q175.394 1400.32 178.45 1395.74 Q181.528 1391.13 187.338 1391.13 Z" fill="#000000" fill-rule="nonzero" fill-opacity="1" /><path clip-path="url(#clip260)" d="M121.043 1318.16 L137.362 1318.16 L137.362 1322.1 L115.418 1322.1 L115.418 1318.16 Q118.08 1315.41 122.663 1310.78 Q127.269 1306.13 128.45 1304.78 Q130.695 1302.26 131.575 1300.53 Q132.478 1298.77 132.478 1297.08 Q132.478 1294.32 130.533 1292.59 Q128.612 1290.85 125.51 1290.85 Q123.311 1290.85 120.857 1291.61 Q118.427 1292.38 115.649 1293.93 L115.649 1289.21 Q118.473 1288.07 120.927 1287.49 Q123.38 1286.91 125.418 1286.91 Q130.788 1286.91 133.982 1289.6 Q137.177 1292.28 137.177 1296.78 Q137.177 1298.91 136.367 1300.83 Q135.579 1302.72 133.473 1305.32 Q132.894 1305.99 129.792 1309.21 Q126.691 1312.4 121.043 1318.16 Z" fill="#000000" fill-rule="nonzero" fill-opacity="1" /><path clip-path="url(#clip260)" d="M157.177 1290.62 Q153.566 1290.62 151.737 1294.18 Q149.931 1297.72 149.931 1304.85 Q149.931 1311.96 151.737 1315.53 Q153.566 1319.07 157.177 1319.07 Q160.811 1319.07 162.616 1315.53 Q164.445 1311.96 164.445 1304.85 Q164.445 1297.72 162.616 1294.18 Q160.811 1290.62 157.177 1290.62 M157.177 1286.91 Q162.987 1286.91 166.042 1291.52 Q169.121 1296.1 169.121 1304.85 Q169.121 1313.58 166.042 1318.19 Q162.987 1322.77 157.177 1322.77 Q151.366 1322.77 148.288 1318.19 Q145.232 1313.58 145.232 1304.85 Q145.232 1296.1 148.288 1291.52 Q151.366 1286.91 157.177 1286.91 Z" fill="#000000" fill-rule="nonzero" fill-opacity="1" /><path clip-path="url(#clip260)" d="M187.338 1290.62 Q183.727 1290.62 181.899 1294.18 Q180.093 1297.72 180.093 1304.85 Q180.093 1311.96 181.899 1315.53 Q183.727 1319.07 187.338 1319.07 Q190.973 1319.07 192.778 1315.53 Q194.607 1311.96 194.607 1304.85 Q194.607 1297.72 192.778 1294.18 Q190.973 1290.62 187.338 1290.62 M187.338 1286.91 Q193.149 1286.91 196.204 1291.52 Q199.283 1296.1 199.283 1304.85 Q199.283 1313.58 196.204 1318.19 Q193.149 1322.77 187.338 1322.77 Q181.528 1322.77 178.45 1318.19 Q175.394 1313.58 175.394 1304.85 Q175.394 1296.1 178.45 1291.52 Q181.528 1286.91 187.338 1286.91 Z" fill="#000000" fill-rule="nonzero" fill-opacity="1" /><path clip-path="url(#clip260)" d="M129.862 1187.4 L118.056 1205.84 L129.862 1205.84 L129.862 1187.4 M128.635 1183.32 L134.515 1183.32 L134.515 1205.84 L139.445 1205.84 L139.445 1209.73 L134.515 1209.73 L134.515 1217.88 L129.862 1217.88 L129.862 1209.73 L114.26 1209.73 L114.26 1205.22 L128.635 1183.32 Z" fill="#000000" fill-rule="nonzero" fill-opacity="1" /><path clip-path="url(#clip260)" d="M157.177 1186.4 Q153.566 1186.4 151.737 1189.97 Q149.931 1193.51 149.931 1200.64 Q149.931 1207.74 151.737 1211.31 Q153.566 1214.85 157.177 1214.85 Q160.811 1214.85 162.616 1211.31 Q164.445 1207.74 164.445 1200.64 Q164.445 1193.51 162.616 1189.97 Q160.811 1186.4 157.177 1186.4 M157.177 1182.7 Q162.987 1182.7 166.042 1187.3 Q169.121 1191.89 169.121 1200.64 Q169.121 1209.36 166.042 1213.97 Q162.987 1218.55 157.177 1218.55 Q151.366 1218.55 148.288 1213.97 Q145.232 1209.36 145.232 1200.64 Q145.232 1191.89 148.288 1187.3 Q151.366 1182.7 157.177 1182.7 Z" fill="#000000" fill-rule="nonzero" fill-opacity="1" /><path clip-path="url(#clip260)" d="M187.338 1186.4 Q183.727 1186.4 181.899 1189.97 Q180.093 1193.51 180.093 1200.64 Q180.093 1207.74 181.899 1211.31 Q183.727 1214.85 187.338 1214.85 Q190.973 1214.85 192.778 1211.31 Q194.607 1207.74 194.607 1200.64 Q194.607 1193.51 192.778 1189.97 Q190.973 1186.4 187.338 1186.4 M187.338 1182.7 Q193.149 1182.7 196.204 1187.3 Q199.283 1191.89 199.283 1200.64 Q199.283 1209.36 196.204 1213.97 Q193.149 1218.55 187.338 1218.55 Q181.528 1218.55 178.45 1213.97 Q175.394 1209.36 175.394 1200.64 Q175.394 1191.89 178.45 1187.3 Q181.528 1182.7 187.338 1182.7 Z" fill="#000000" fill-rule="nonzero" fill-opacity="1" /><path clip-path="url(#clip260)" d="M127.593 1094.52 Q124.445 1094.52 122.593 1096.67 Q120.765 1098.83 120.765 1102.58 Q120.765 1106.3 122.593 1108.48 Q124.445 1110.63 127.593 1110.63 Q130.742 1110.63 132.57 1108.48 Q134.422 1106.3 134.422 1102.58 Q134.422 1098.83 132.57 1096.67 Q130.742 1094.52 127.593 1094.52 M136.876 1079.87 L136.876 1084.13 Q135.117 1083.29 133.311 1082.85 Q131.529 1082.41 129.769 1082.41 Q125.14 1082.41 122.686 1085.54 Q120.255 1088.66 119.908 1094.98 Q121.274 1092.97 123.334 1091.9 Q125.394 1090.82 127.871 1090.82 Q133.08 1090.82 136.089 1093.99 Q139.121 1097.14 139.121 1102.58 Q139.121 1107.9 135.973 1111.12 Q132.825 1114.33 127.593 1114.33 Q121.598 1114.33 118.427 1109.75 Q115.256 1105.15 115.256 1096.42 Q115.256 1088.22 119.144 1083.36 Q123.033 1078.48 129.584 1078.48 Q131.343 1078.48 133.126 1078.83 Q134.931 1079.17 136.876 1079.87 Z" fill="#000000" fill-rule="nonzero" fill-opacity="1" /><path clip-path="url(#clip260)" d="M157.177 1082.18 Q153.566 1082.18 151.737 1085.75 Q149.931 1089.29 149.931 1096.42 Q149.931 1103.52 151.737 1107.09 Q153.566 1110.63 157.177 1110.63 Q160.811 1110.63 162.616 1107.09 Q164.445 1103.52 164.445 1096.42 Q164.445 1089.29 162.616 1085.75 Q160.811 1082.18 157.177 1082.18 M157.177 1078.48 Q162.987 1078.48 166.042 1083.09 Q169.121 1087.67 169.121 1096.42 Q169.121 1105.15 166.042 1109.75 Q162.987 1114.33 157.177 1114.33 Q151.366 1114.33 148.288 1109.75 Q145.232 1105.15 145.232 1096.42 Q145.232 1087.67 148.288 1083.09 Q151.366 1078.48 157.177 1078.48 Z" fill="#000000" fill-rule="nonzero" fill-opacity="1" /><path clip-path="url(#clip260)" d="M187.338 1082.18 Q183.727 1082.18 181.899 1085.75 Q180.093 1089.29 180.093 1096.42 Q180.093 1103.52 181.899 1107.09 Q183.727 1110.63 187.338 1110.63 Q190.973 1110.63 192.778 1107.09 Q194.607 1103.52 194.607 1096.42 Q194.607 1089.29 192.778 1085.75 Q190.973 1082.18 187.338 1082.18 M187.338 1078.48 Q193.149 1078.48 196.204 1083.09 Q199.283 1087.67 199.283 1096.42 Q199.283 1105.15 196.204 1109.75 Q193.149 1114.33 187.338 1114.33 Q181.528 1114.33 178.45 1109.75 Q175.394 1105.15 175.394 1096.42 Q175.394 1087.67 178.45 1083.09 Q181.528 1078.48 187.338 1078.48 Z" fill="#000000" fill-rule="nonzero" fill-opacity="1" /><path clip-path="url(#clip260)" d="M127.015 993.034 Q123.681 993.034 121.76 994.816 Q119.862 996.599 119.862 999.724 Q119.862 1002.85 121.76 1004.63 Q123.681 1006.41 127.015 1006.41 Q130.348 1006.41 132.269 1004.63 Q134.191 1002.83 134.191 999.724 Q134.191 996.599 132.269 994.816 Q130.371 993.034 127.015 993.034 M122.339 991.043 Q119.33 990.302 117.64 988.242 Q115.973 986.182 115.973 983.219 Q115.973 979.076 118.913 976.668 Q121.876 974.261 127.015 974.261 Q132.177 974.261 135.117 976.668 Q138.056 979.076 138.056 983.219 Q138.056 986.182 136.367 988.242 Q134.7 990.302 131.714 991.043 Q135.093 991.83 136.968 994.122 Q138.867 996.414 138.867 999.724 Q138.867 1004.75 135.788 1007.43 Q132.732 1010.12 127.015 1010.12 Q121.297 1010.12 118.218 1007.43 Q115.163 1004.75 115.163 999.724 Q115.163 996.414 117.061 994.122 Q118.959 991.83 122.339 991.043 M120.626 983.659 Q120.626 986.344 122.293 987.849 Q123.982 989.353 127.015 989.353 Q130.024 989.353 131.714 987.849 Q133.427 986.344 133.427 983.659 Q133.427 980.974 131.714 979.469 Q130.024 977.965 127.015 977.965 Q123.982 977.965 122.293 979.469 Q120.626 980.974 120.626 983.659 Z" fill="#000000" fill-rule="nonzero" fill-opacity="1" /><path clip-path="url(#clip260)" d="M157.177 977.965 Q153.566 977.965 151.737 981.529 Q149.931 985.071 149.931 992.201 Q149.931 999.307 151.737 1002.87 Q153.566 1006.41 157.177 1006.41 Q160.811 1006.41 162.616 1002.87 Q164.445 999.307 164.445 992.201 Q164.445 985.071 162.616 981.529 Q160.811 977.965 157.177 977.965 M157.177 974.261 Q162.987 974.261 166.042 978.867 Q169.121 983.451 169.121 992.201 Q169.121 1000.93 166.042 1005.53 Q162.987 1010.12 157.177 1010.12 Q151.366 1010.12 148.288 1005.53 Q145.232 1000.93 145.232 992.201 Q145.232 983.451 148.288 978.867 Q151.366 974.261 157.177 974.261 Z" fill="#000000" fill-rule="nonzero" fill-opacity="1" /><path clip-path="url(#clip260)" d="M187.338 977.965 Q183.727 977.965 181.899 981.529 Q180.093 985.071 180.093 992.201 Q180.093 999.307 181.899 1002.87 Q183.727 1006.41 187.338 1006.41 Q190.973 1006.41 192.778 1002.87 Q194.607 999.307 194.607 992.201 Q194.607 985.071 192.778 981.529 Q190.973 977.965 187.338 977.965 M187.338 974.261 Q193.149 974.261 196.204 978.867 Q199.283 983.451 199.283 992.201 Q199.283 1000.93 196.204 1005.53 Q193.149 1010.12 187.338 1010.12 Q181.528 1010.12 178.45 1005.53 Q175.394 1000.93 175.394 992.201 Q175.394 983.451 178.45 978.867 Q181.528 974.261 187.338 974.261 Z" fill="#000000" fill-rule="nonzero" fill-opacity="1" /><path clip-path="url(#clip260)" d="M14.479 1274.16 L14.479 1260.66 L19.0304 1260.66 L19.0304 1268.3 L68.0464 1268.3 L68.0464 1260.66 L72.5979 1260.66 L72.5979 1274.16 L14.479 1274.16 Z" fill="#000000" fill-rule="nonzero" fill-opacity="1" /><path clip-path="url(#clip260)" d="M16.4842 1247.93 L16.4842 1238.35 L48.8219 1226.23 L16.4842 1214.03 L16.4842 1204.45 L64.0042 1204.45 L64.0042 1210.72 L22.277 1210.72 L54.8694 1222.98 L54.8694 1229.44 L22.277 1241.69 L64.0042 1241.69 L64.0042 1247.93 L16.4842 1247.93 Z" fill="#000000" fill-rule="nonzero" fill-opacity="1" /><path clip-path="url(#clip260)" d="M16.4842 1195.92 L16.4842 1189.43 L56.6518 1179.44 L16.4842 1169.47 L16.4842 1162.25 L56.6518 1152.26 L16.4842 1142.29 L16.4842 1135.77 L64.0042 1147.7 L64.0042 1155.79 L22.7544 1165.81 L64.0042 1175.94 L64.0042 1184.02 L16.4842 1195.92 Z" fill="#000000" fill-rule="nonzero" fill-opacity="1" /><path clip-path="url(#clip260)" d="M42.4881 1097.86 L64.0042 1097.86 L64.0042 1103.72 L42.679 1103.72 Q37.6183 1103.72 35.1038 1105.69 Q32.5894 1107.66 32.5894 1111.61 Q32.5894 1116.35 35.6131 1119.09 Q38.6368 1121.83 43.8567 1121.83 L64.0042 1121.83 L64.0042 1127.72 L14.479 1127.72 L14.479 1121.83 L33.8944 1121.83 Q30.6797 1119.73 29.0883 1116.89 Q27.4968 1114.03 27.4968 1110.31 Q27.4968 1104.16 31.3163 1101.01 Q35.1038 1097.86 42.4881 1097.86 Z" fill="#000000" fill-rule="nonzero" fill-opacity="1" /><path clip-path="url(#clip260)" d="M14.479 1072.49 L72.5979 1072.49 L72.5979 1085.99 L68.0464 1085.99 L68.0464 1078.38 L19.0304 1078.38 L19.0304 1085.99 L14.479 1085.99 L14.479 1072.49 Z" fill="#000000" fill-rule="nonzero" fill-opacity="1" /><path clip-path="url(#clip260)" d="M999.62 809.544 L1016.8 809.544 L1016.8 815.337 L1007.07 815.337 L1007.07 877.721 L1016.8 877.721 L1016.8 883.513 L999.62 883.513 L999.62 809.544 Z" fill="#000000" fill-rule="nonzero" fill-opacity="1" /><path clip-path="url(#clip260)" d="M1039.72 812.096 L1039.72 834.579 L1032.84 834.579 L1032.84 812.096 L1039.72 812.096 M1055.04 812.096 L1055.04 834.579 L1048.15 834.579 L1048.15 812.096 L1055.04 812.096 Z" fill="#000000" fill-rule="nonzero" fill-opacity="1" /><path clip-path="url(#clip260)" d="M1108.55 845.192 L1108.55 872.576 L1101.1 872.576 L1101.1 845.435 Q1101.1 838.994 1098.58 835.794 Q1096.07 832.594 1091.05 832.594 Q1085.01 832.594 1081.53 836.442 Q1078.05 840.29 1078.05 846.934 L1078.05 872.576 L1070.55 872.576 L1070.55 809.544 L1078.05 809.544 L1078.05 834.254 Q1080.72 830.163 1084.32 828.138 Q1087.97 826.112 1092.71 826.112 Q1100.53 826.112 1104.54 830.973 Q1108.55 835.794 1108.55 845.192 Z" fill="#000000" fill-rule="nonzero" fill-opacity="1" /><path clip-path="url(#clip260)" d="M1131.52 865.689 L1160.08 865.689 L1160.08 872.576 L1121.67 872.576 L1121.67 865.689 Q1126.33 860.869 1134.35 852.767 Q1142.41 844.625 1144.48 842.275 Q1148.41 837.86 1149.95 834.822 Q1151.53 831.743 1151.53 828.786 Q1151.53 823.965 1148.13 820.927 Q1144.76 817.889 1139.34 817.889 Q1135.49 817.889 1131.19 819.226 Q1126.94 820.562 1122.08 823.276 L1122.08 815.013 Q1127.02 813.028 1131.31 812.015 Q1135.61 811.002 1139.17 811.002 Q1148.57 811.002 1154.16 815.701 Q1159.75 820.4 1159.75 828.259 Q1159.75 831.986 1158.33 835.348 Q1156.96 838.67 1153.27 843.207 Q1152.26 844.382 1146.83 850.012 Q1141.4 855.603 1131.52 865.689 Z" fill="#000000" fill-rule="nonzero" fill-opacity="1" /><path clip-path="url(#clip260)" d="M1210.67 886.349 L1210.67 892.142 L1167.57 892.142 L1167.57 886.349 L1210.67 886.349 Z" fill="#000000" fill-rule="nonzero" fill-opacity="1" /><path clip-path="url(#clip260)" d="M1246.6 828.543 L1246.6 835.591 Q1243.44 833.971 1240.04 833.161 Q1236.64 832.351 1232.99 832.351 Q1227.44 832.351 1224.65 834.052 Q1221.89 835.753 1221.89 839.156 Q1221.89 841.749 1223.88 843.247 Q1225.86 844.706 1231.86 846.043 L1234.41 846.61 Q1242.35 848.311 1245.67 851.43 Q1249.03 854.509 1249.03 860.059 Q1249.03 866.378 1244.01 870.064 Q1239.03 873.751 1230.28 873.751 Q1226.63 873.751 1222.66 873.022 Q1218.73 872.333 1214.36 870.915 L1214.36 863.218 Q1218.49 865.365 1222.5 866.459 Q1226.51 867.512 1230.44 867.512 Q1235.71 867.512 1238.54 865.73 Q1241.38 863.907 1241.38 860.626 Q1241.38 857.588 1239.31 855.967 Q1237.29 854.347 1230.36 852.848 L1227.77 852.24 Q1220.84 850.782 1217.76 847.784 Q1214.68 844.746 1214.68 839.48 Q1214.68 833.08 1219.22 829.596 Q1223.76 826.112 1232.1 826.112 Q1236.23 826.112 1239.88 826.72 Q1243.52 827.327 1246.6 828.543 Z" fill="#000000" fill-rule="nonzero" fill-opacity="1" /><path clip-path="url(#clip260)" d="M1268.28 814.324 L1268.28 827.206 L1283.63 827.206 L1283.63 832.999 L1268.28 832.999 L1268.28 857.628 Q1268.28 863.178 1269.77 864.758 Q1271.31 866.338 1275.97 866.338 L1283.63 866.338 L1283.63 872.576 L1275.97 872.576 Q1267.34 872.576 1264.06 869.376 Q1260.78 866.135 1260.78 857.628 L1260.78 832.999 L1255.31 832.999 L1255.31 827.206 L1260.78 827.206 L1260.78 814.324 L1268.28 814.324 Z" fill="#000000" fill-rule="nonzero" fill-opacity="1" /><path clip-path="url(#clip260)" d="M1311.01 832.432 Q1305.02 832.432 1301.53 837.131 Q1298.05 841.789 1298.05 849.931 Q1298.05 858.074 1301.49 862.773 Q1304.98 867.431 1311.01 867.431 Q1316.97 867.431 1320.45 862.732 Q1323.94 858.033 1323.94 849.931 Q1323.94 841.87 1320.45 837.171 Q1316.97 832.432 1311.01 832.432 M1311.01 826.112 Q1320.74 826.112 1326.28 832.432 Q1331.83 838.751 1331.83 849.931 Q1331.83 861.071 1326.28 867.431 Q1320.74 873.751 1311.01 873.751 Q1301.25 873.751 1295.7 867.431 Q1290.19 861.071 1290.19 849.931 Q1290.19 838.751 1295.7 832.432 Q1301.25 826.112 1311.01 826.112 Z" fill="#000000" fill-rule="nonzero" fill-opacity="1" /><path clip-path="url(#clip260)" d="M1370.48 834.173 Q1369.22 833.444 1367.73 833.12 Q1366.27 832.756 1364.48 832.756 Q1358.17 832.756 1354.76 836.888 Q1351.4 840.979 1351.4 848.676 L1351.4 872.576 L1343.91 872.576 L1343.91 827.206 L1351.4 827.206 L1351.4 834.254 Q1353.75 830.123 1357.52 828.138 Q1361.28 826.112 1366.67 826.112 Q1367.44 826.112 1368.37 826.234 Q1369.31 826.315 1370.44 826.517 L1370.48 834.173 Z" fill="#000000" fill-rule="nonzero" fill-opacity="1" /><path clip-path="url(#clip260)" d="M1398.92 849.769 Q1389.88 849.769 1386.4 851.835 Q1382.92 853.901 1382.92 858.884 Q1382.92 862.854 1385.51 865.203 Q1388.14 867.512 1392.64 867.512 Q1398.84 867.512 1402.56 863.137 Q1406.33 858.722 1406.33 851.43 L1406.33 849.769 L1398.92 849.769 M1413.78 846.691 L1413.78 872.576 L1406.33 872.576 L1406.33 865.689 Q1403.78 869.821 1399.97 871.806 Q1396.16 873.751 1390.65 873.751 Q1383.69 873.751 1379.55 869.862 Q1375.46 865.933 1375.46 859.37 Q1375.46 851.714 1380.57 847.825 Q1385.71 843.936 1395.88 843.936 L1406.33 843.936 L1406.33 843.207 Q1406.33 838.062 1402.93 835.267 Q1399.57 832.432 1393.45 832.432 Q1389.56 832.432 1385.87 833.363 Q1382.19 834.295 1378.78 836.158 L1378.78 829.272 Q1382.88 827.692 1386.72 826.922 Q1390.57 826.112 1394.22 826.112 Q1404.06 826.112 1408.92 831.216 Q1413.78 836.32 1413.78 846.691 Z" fill="#000000" fill-rule="nonzero" fill-opacity="1" /><path clip-path="url(#clip260)" d="M1458.99 849.364 Q1458.99 841.263 1455.63 836.807 Q1452.31 832.351 1446.27 832.351 Q1440.28 832.351 1436.92 836.807 Q1433.59 841.263 1433.59 849.364 Q1433.59 857.426 1436.92 861.882 Q1440.28 866.338 1446.27 866.338 Q1452.31 866.338 1455.63 861.882 Q1458.99 857.426 1458.99 849.364 M1466.45 866.945 Q1466.45 878.531 1461.3 884.162 Q1456.16 889.833 1445.54 889.833 Q1441.61 889.833 1438.13 889.225 Q1434.65 888.658 1431.37 887.443 L1431.37 880.192 Q1434.65 881.974 1437.85 882.825 Q1441.05 883.675 1444.37 883.675 Q1451.7 883.675 1455.35 879.827 Q1458.99 876.019 1458.99 868.282 L1458.99 864.596 Q1456.68 868.606 1453.08 870.591 Q1449.47 872.576 1444.45 872.576 Q1436.1 872.576 1431 866.216 Q1425.9 859.856 1425.9 849.364 Q1425.9 838.832 1431 832.472 Q1436.1 826.112 1444.45 826.112 Q1449.47 826.112 1453.08 828.097 Q1456.68 830.082 1458.99 834.092 L1458.99 827.206 L1466.45 827.206 L1466.45 866.945 Z" fill="#000000" fill-rule="nonzero" fill-opacity="1" /><path clip-path="url(#clip260)" d="M1520.61 848.028 L1520.61 851.673 L1486.34 851.673 Q1486.82 859.37 1490.95 863.421 Q1495.13 867.431 1502.54 867.431 Q1506.83 867.431 1510.84 866.378 Q1514.89 865.325 1518.86 863.218 L1518.86 870.267 Q1514.85 871.968 1510.64 872.86 Q1506.43 873.751 1502.09 873.751 Q1491.24 873.751 1484.88 867.431 Q1478.56 861.112 1478.56 850.337 Q1478.56 839.197 1484.55 832.675 Q1490.59 826.112 1500.8 826.112 Q1509.95 826.112 1515.26 832.026 Q1520.61 837.9 1520.61 848.028 M1513.15 845.84 Q1513.07 839.723 1509.71 836.077 Q1506.39 832.432 1500.88 832.432 Q1494.64 832.432 1490.87 835.956 Q1487.15 839.48 1486.58 845.881 L1513.15 845.84 Z" fill="#000000" fill-rule="nonzero" fill-opacity="1" /><path clip-path="url(#clip260)" d="M1539.89 812.096 L1539.89 834.579 L1533 834.579 L1533 812.096 L1539.89 812.096 M1555.2 812.096 L1555.2 834.579 L1548.31 834.579 L1548.31 812.096 L1555.2 812.096 Z" fill="#000000" fill-rule="nonzero" fill-opacity="1" /><path clip-path="url(#clip260)" d="M1588.42 809.544 L1588.42 883.513 L1571.24 883.513 L1571.24 877.721 L1580.92 877.721 L1580.92 815.337 L1571.24 815.337 L1571.24 809.544 L1588.42 809.544 Z" fill="#000000" fill-rule="nonzero" fill-opacity="1" /><polyline clip-path="url(#clip261)" style="stroke:#009af9; stroke-linecap:round; stroke-linejoin:round; stroke-width:4; stroke-opacity:1; fill:none" points="235.283,1409.04 327.347,1409.04 419.411,1409.04 511.475,1409.04 603.539,1409.04 695.603,1409.04 787.667,1409.04 879.731,1409.04 971.795,1409.04 1063.86,1409.04 1155.92,1409.04 1247.99,1409.04 1340.05,1409.04 1432.12,1409.04 1524.18,1409.04 1616.24,1409.04 1708.31,1409.04 1800.37,1409.04 1892.44,1409.04 1984.5,1409.04 2076.56,1409.04 2168.63,1409.04 2260.69,1409.04 2352.76,1409.04 "/>
<polyline clip-path="url(#clip261)" style="stroke:#e26f46; stroke-linecap:round; stroke-linejoin:round; stroke-width:4; stroke-opacity:1; fill:none" points="235.283,1409.04 327.347,1409.04 419.411,1409.04 511.475,1409.04 603.539,1409.04 695.603,1409.04 787.667,1409.04 879.731,1409.04 971.795,1409.04 1063.86,1409.04 1155.92,1409.04 1247.99,1409.04 1340.05,1409.04 1432.12,1409.04 1524.18,1409.04 1616.24,1409.04 1708.31,1409.04 1800.37,1409.04 1892.44,1409.04 1984.5,1409.04 2076.56,1409.04 2168.63,1409.04 2260.69,1409.04 2352.76,1409.04 "/>
<polyline clip-path="url(#clip261)" style="stroke:#3da44d; stroke-linecap:round; stroke-linejoin:round; stroke-width:4; stroke-opacity:1; fill:none" points="235.283,1375.17 327.347,1341.3 419.411,1307.42 511.475,1273.55 603.539,1239.68 695.603,1205.81 787.667,1171.94 879.731,1171.94 971.795,1171.94 1063.86,1171.94 1155.92,1171.94 1247.99,1252.11 1340.05,1332.28 1432.12,1332.28 1524.18,1332.28 1616.24,1332.28 1708.31,1332.28 1800.37,1332.28 1892.44,1332.28 1984.5,1332.28 2076.56,1332.28 2168.63,1332.28 2260.69,1409.04 2352.76,1409.04 "/>
<polyline clip-path="url(#clip261)" style="stroke:#c271d2; stroke-linecap:round; stroke-linejoin:round; stroke-width:4; stroke-opacity:1; fill:none" points="235.283,1336.58 327.347,1373.35 419.411,1373.35 511.475,1373.35 603.539,1373.35 695.603,1373.35 787.667,1373.35 879.731,1409.04 971.795,1409.04 1063.86,1409.04 1155.92,1409.04 1247.99,1409.04 1340.05,1409.04 1432.12,1409.04 1524.18,1409.04 1616.24,1391.49 1708.31,1364.99 1800.37,1353.89 1892.44,1326.11 1984.5,1311.56 2076.56,1291.44 2168.63,1288.65 2260.69,1288.65 2352.76,1288.65 "/>
<polyline clip-path="url(#clip261)" style="stroke:#ac8d18; stroke-linecap:round; stroke-linejoin:round; stroke-width:4; stroke-opacity:1; fill:none" points="235.283,1375.17 327.347,1341.3 419.411,1307.42 511.475,1273.55 603.539,1270.45 695.603,1270.45 787.667,1270.45 879.731,1270.45 971.795,1270.45 1063.86,1270.45 1155.92,1270.45 1247.99,1270.45 1340.05,1270.45 1432.12,1270.45 1524.18,1270.45 1616.24,1270.45 1708.31,1270.45 1800.37,1270.45 1892.44,1270.45 1984.5,1337.2 2076.56,1409.04 2168.63,1409.04 2260.69,1409.04 2352.76,1409.04 "/>
<polyline clip-path="url(#clip261)" style="stroke:#00a9ad; stroke-linecap:round; stroke-linejoin:round; stroke-width:4; stroke-opacity:1; fill:none" points="235.283,1145.51 327.347,1145.51 419.411,1196.98 511.475,1257.29 603.539,1257.29 695.603,1323.21 787.667,1371.01 879.731,1392.1 971.795,1409.04 1063.86,1409.04 1155.92,1409.04 1247.99,1375.17 1340.05,1341.3 1432.12,1307.42 1524.18,1273.55 1616.24,1273.55 1708.31,1313.93 1800.37,1292.43 1892.44,1272.5 1984.5,1238.62 2076.56,1204.75 2168.63,1170.88 2260.69,1137.01 2352.76,1103.14 "/>
<polyline clip-path="url(#clip261)" style="stroke:#ed5d92; stroke-linecap:round; stroke-linejoin:round; stroke-width:4; stroke-opacity:1; fill:none" points="235.283,1375.17 327.347,1356.22 419.411,1342.27 511.475,1308.4 603.539,1274.53 695.603,1240.66 787.667,1206.79 879.731,1172.92 971.795,1139.05 1063.86,1105.18 1155.92,1071.31 1247.99,1037.44 1340.05,1003.56 1432.12,969.694 1524.18,937.615 1616.24,1017.78 1708.31,1097.95 1800.37,1097.95 1892.44,1178.12 1984.5,1248.7 2076.56,1328.87 2168.63,1409.04 2260.69,1409.04 2352.76,1409.04 "/>
<polyline clip-path="url(#clip261)" style="stroke:#c68125; stroke-linecap:round; stroke-linejoin:round; stroke-width:4; stroke-opacity:1; fill:none" points="235.283,1045.84 327.347,1056.21 419.411,1056.21 511.475,1056.21 603.539,1126.42 695.603,1206.59 787.667,1286.76 879.731,1366.92 971.795,1409.04 1063.86,1409.04 1155.92,1409.04 1247.99,1376.49 1340.05,1342.62 1432.12,1313.62 1524.18,1279.75 1616.24,1269.25 1708.31,1254.78 1800.37,1246.23 1892.44,1212.35 1984.5,1178.48 2076.56,1144.61 2168.63,1110.74 2260.69,1076.87 2352.76,1043 "/>
<polyline clip-path="url(#clip261)" style="stroke:#00a98d; stroke-linecap:round; stroke-linejoin:round; stroke-width:4; stroke-opacity:1; fill:none" points="235.283,1370.35 327.347,1370.35 419.411,1336.48 511.475,1336.48 603.539,1336.48 695.603,1336.48 787.667,1336.48 879.731,1315.29 971.795,1315.29 1063.86,1288.44 1155.92,1288.44 1247.99,1288.44 1340.05,1290.15 1432.12,1290.15 1524.18,1331.65 1616.24,1372.3 1708.31,1380.03 1800.37,1396.67 1892.44,1399.48 1984.5,1409.04 2076.56,1409.04 2168.63,1404.22 2260.69,1370.35 2352.76,1370.35 "/>
<polyline clip-path="url(#clip261)" style="stroke:#8e971d; stroke-linecap:round; stroke-linejoin:round; stroke-width:4; stroke-opacity:1; fill:none" points="235.283,1251.03 327.347,1267.6 419.411,1294.96 511.475,1316.36 603.539,1330.89 695.603,1339.67 787.667,1345.53 879.731,1372.56 971.795,1397.22 1063.86,1409.04 1155.92,1409.04 1247.99,1409.04 1340.05,1409.04 1432.12,1409.04 1524.18,1409.04 1616.24,1409.04 1708.31,1406.43 1800.37,1372.56 1892.44,1338.68 1984.5,1338.68 2076.56,1304.81 2168.63,1270.94 2260.69,1270.94 2352.76,1237.07 "/>
<polyline clip-path="url(#clip261)" style="stroke:#00a8cb; stroke-linecap:round; stroke-linejoin:round; stroke-width:4; stroke-opacity:1; fill:none" points="235.283,1136.92 327.347,1136.92 419.411,1217.09 511.475,1217.09 603.539,1248.7 695.603,1328.87 787.667,1328.87 879.731,1409.04 971.795,1409.04 1063.86,1409.04 1155.92,1409.04 1247.99,1409.04 1340.05,1409.04 1432.12,1409.04 1524.18,1375.17 1616.24,1375.17 1708.31,1360.9 1800.37,1340.15 1892.44,1306.28 1984.5,1272.4 2076.56,1238.53 2168.63,1204.66 2260.69,1170.79 2352.76,1136.92 "/>
<polyline clip-path="url(#clip261)" style="stroke:#9b7fe8; stroke-linecap:round; stroke-linejoin:round; stroke-width:4; stroke-opacity:1; fill:none" points="235.283,1361.98 327.347,1358.42 419.411,1358.33 511.475,1359.77 603.539,1325.9 695.603,1325.9 787.667,1303.82 879.731,1275.37 971.795,1263.12 1063.86,1260.04 1155.92,1244.58 1247.99,1235.83 1340.05,1261.55 1432.12,1252.18 1524.18,1228.6 1616.24,1228.6 1708.31,1228.6 1800.37,1294.1 1892.44,1357.91 1984.5,1409.04 2076.56,1409.04 2168.63,1402.48 2260.69,1391.57 2352.76,1361.98 "/>
<path clip-path="url(#clip260)" d="M305.865 1614.05 L569.58 1614.05 L569.58 940.129 L305.865 940.129  Z" fill="#ffffff" fill-rule="evenodd" fill-opacity="1"/>
<polyline clip-path="url(#clip260)" style="stroke:#000000; stroke-linecap:round; stroke-linejoin:round; stroke-width:4; stroke-opacity:1; fill:none" points="305.865,1614.05 569.58,1614.05 569.58,940.129 305.865,940.129 305.865,1614.05 "/>
<polyline clip-path="url(#clip260)" style="stroke:#009af9; stroke-linecap:round; stroke-linejoin:round; stroke-width:4; stroke-opacity:1; fill:none" points="329.393,991.969 470.558,991.969 "/>
<path clip-path="url(#clip260)" d="M494.756 1005.31 L502.395 1005.31 L502.395 978.948 L494.085 980.615 L494.085 976.356 L502.349 974.689 L507.025 974.689 L507.025 1005.31 L514.664 1005.31 L514.664 1009.25 L494.756 1009.25 L494.756 1005.31 Z" fill="#000000" fill-rule="nonzero" fill-opacity="1" /><polyline clip-path="url(#clip260)" style="stroke:#e26f46; stroke-linecap:round; stroke-linejoin:round; stroke-width:4; stroke-opacity:1; fill:none" points="329.393,1043.81 470.558,1043.81 "/>
<path clip-path="url(#clip260)" d="M499.71 1057.15 L516.029 1057.15 L516.029 1061.09 L494.085 1061.09 L494.085 1057.15 Q496.747 1054.4 501.33 1049.77 Q505.937 1045.12 507.117 1043.77 Q509.363 1041.25 510.242 1039.52 Q511.145 1037.76 511.145 1036.07 Q511.145 1033.31 509.201 1031.58 Q507.279 1029.84 504.178 1029.84 Q501.979 1029.84 499.525 1030.6 Q497.094 1031.37 494.317 1032.92 L494.317 1028.2 Q497.141 1027.06 499.594 1026.48 Q502.048 1025.9 504.085 1025.9 Q509.455 1025.9 512.65 1028.59 Q515.844 1031.27 515.844 1035.77 Q515.844 1037.89 515.034 1039.82 Q514.247 1041.71 512.141 1044.31 Q511.562 1044.98 508.46 1048.2 Q505.358 1051.39 499.71 1057.15 Z" fill="#000000" fill-rule="nonzero" fill-opacity="1" /><polyline clip-path="url(#clip260)" style="stroke:#3da44d; stroke-linecap:round; stroke-linejoin:round; stroke-width:4; stroke-opacity:1; fill:none" points="329.393,1095.65 470.558,1095.65 "/>
<path clip-path="url(#clip260)" d="M509.71 1094.29 Q513.066 1095.01 514.941 1097.28 Q516.84 1099.55 516.84 1102.88 Q516.84 1108 513.321 1110.8 Q509.803 1113.6 503.321 1113.6 Q501.145 1113.6 498.83 1113.16 Q496.539 1112.74 494.085 1111.89 L494.085 1107.37 Q496.03 1108.51 498.344 1109.09 Q500.659 1109.67 503.182 1109.67 Q507.58 1109.67 509.872 1107.93 Q512.187 1106.19 512.187 1102.88 Q512.187 1099.83 510.034 1098.11 Q507.904 1096.38 504.085 1096.38 L500.057 1096.38 L500.057 1092.54 L504.27 1092.54 Q507.719 1092.54 509.548 1091.17 Q511.377 1089.78 511.377 1087.19 Q511.377 1084.53 509.479 1083.11 Q507.604 1081.68 504.085 1081.68 Q502.164 1081.68 499.965 1082.1 Q497.766 1082.51 495.127 1083.39 L495.127 1079.23 Q497.789 1078.48 500.104 1078.11 Q502.442 1077.74 504.502 1077.74 Q509.826 1077.74 512.928 1080.17 Q516.029 1082.58 516.029 1086.7 Q516.029 1089.57 514.386 1091.56 Q512.742 1093.53 509.71 1094.29 Z" fill="#000000" fill-rule="nonzero" fill-opacity="1" /><polyline clip-path="url(#clip260)" style="stroke:#c271d2; stroke-linecap:round; stroke-linejoin:round; stroke-width:4; stroke-opacity:1; fill:none" points="329.393,1147.49 470.558,1147.49 "/>
<path clip-path="url(#clip260)" d="M509.687 1134.28 L497.881 1152.73 L509.687 1152.73 L509.687 1134.28 M508.46 1130.21 L514.34 1130.21 L514.34 1152.73 L519.27 1152.73 L519.27 1156.62 L514.34 1156.62 L514.34 1164.77 L509.687 1164.77 L509.687 1156.62 L494.085 1156.62 L494.085 1152.11 L508.46 1130.21 Z" fill="#000000" fill-rule="nonzero" fill-opacity="1" /><polyline clip-path="url(#clip260)" style="stroke:#ac8d18; stroke-linecap:round; stroke-linejoin:round; stroke-width:4; stroke-opacity:1; fill:none" points="329.393,1199.33 470.558,1199.33 "/>
<path clip-path="url(#clip260)" d="M495.543 1182.05 L513.9 1182.05 L513.9 1185.98 L499.826 1185.98 L499.826 1194.46 Q500.844 1194.11 501.863 1193.95 Q502.881 1193.76 503.9 1193.76 Q509.687 1193.76 513.066 1196.93 Q516.446 1200.1 516.446 1205.52 Q516.446 1211.1 512.974 1214.2 Q509.502 1217.28 503.182 1217.28 Q501.006 1217.28 498.738 1216.91 Q496.493 1216.54 494.085 1215.8 L494.085 1211.1 Q496.168 1212.23 498.391 1212.79 Q500.613 1213.35 503.09 1213.35 Q507.094 1213.35 509.432 1211.24 Q511.77 1209.13 511.77 1205.52 Q511.77 1201.91 509.432 1199.8 Q507.094 1197.7 503.09 1197.7 Q501.215 1197.7 499.34 1198.11 Q497.488 1198.53 495.543 1199.41 L495.543 1182.05 Z" fill="#000000" fill-rule="nonzero" fill-opacity="1" /><polyline clip-path="url(#clip260)" style="stroke:#00a9ad; stroke-linecap:round; stroke-linejoin:round; stroke-width:4; stroke-opacity:1; fill:none" points="329.393,1251.17 470.558,1251.17 "/>
<path clip-path="url(#clip260)" d="M506.423 1249.31 Q503.275 1249.31 501.423 1251.46 Q499.594 1253.61 499.594 1257.36 Q499.594 1261.09 501.423 1263.26 Q503.275 1265.42 506.423 1265.42 Q509.571 1265.42 511.4 1263.26 Q513.252 1261.09 513.252 1257.36 Q513.252 1253.61 511.4 1251.46 Q509.571 1249.31 506.423 1249.31 M515.705 1234.65 L515.705 1238.91 Q513.946 1238.08 512.141 1237.64 Q510.358 1237.2 508.599 1237.2 Q503.969 1237.2 501.516 1240.32 Q499.085 1243.45 498.738 1249.77 Q500.104 1247.75 502.164 1246.69 Q504.224 1245.6 506.701 1245.6 Q511.909 1245.6 514.918 1248.77 Q517.951 1251.92 517.951 1257.36 Q517.951 1262.69 514.803 1265.9 Q511.654 1269.12 506.423 1269.12 Q500.428 1269.12 497.256 1264.54 Q494.085 1259.93 494.085 1251.2 Q494.085 1243.01 497.974 1238.15 Q501.863 1233.26 508.414 1233.26 Q510.173 1233.26 511.955 1233.61 Q513.761 1233.96 515.705 1234.65 Z" fill="#000000" fill-rule="nonzero" fill-opacity="1" /><polyline clip-path="url(#clip260)" style="stroke:#ed5d92; stroke-linecap:round; stroke-linejoin:round; stroke-width:4; stroke-opacity:1; fill:none" points="329.393,1303.01 470.558,1303.01 "/>
<path clip-path="url(#clip260)" d="M494.085 1285.73 L516.307 1285.73 L516.307 1287.72 L503.761 1320.29 L498.877 1320.29 L510.682 1289.66 L494.085 1289.66 L494.085 1285.73 Z" fill="#000000" fill-rule="nonzero" fill-opacity="1" /><polyline clip-path="url(#clip260)" style="stroke:#c68125; stroke-linecap:round; stroke-linejoin:round; stroke-width:4; stroke-opacity:1; fill:none" points="329.393,1354.85 470.558,1354.85 "/>
<path clip-path="url(#clip260)" d="M505.937 1355.72 Q502.604 1355.72 500.682 1357.5 Q498.784 1359.28 498.784 1362.41 Q498.784 1365.53 500.682 1367.31 Q502.604 1369.1 505.937 1369.1 Q509.27 1369.1 511.192 1367.31 Q513.113 1365.51 513.113 1362.41 Q513.113 1359.28 511.192 1357.5 Q509.293 1355.72 505.937 1355.72 M501.261 1353.73 Q498.252 1352.99 496.562 1350.93 Q494.895 1348.87 494.895 1345.9 Q494.895 1341.76 497.835 1339.35 Q500.798 1336.94 505.937 1336.94 Q511.099 1336.94 514.039 1339.35 Q516.979 1341.76 516.979 1345.9 Q516.979 1348.87 515.289 1350.93 Q513.622 1352.99 510.636 1353.73 Q514.016 1354.51 515.891 1356.81 Q517.789 1359.1 517.789 1362.41 Q517.789 1367.43 514.71 1370.12 Q511.654 1372.8 505.937 1372.8 Q500.219 1372.8 497.141 1370.12 Q494.085 1367.43 494.085 1362.41 Q494.085 1359.1 495.983 1356.81 Q497.881 1354.51 501.261 1353.73 M499.548 1346.34 Q499.548 1349.03 501.215 1350.53 Q502.905 1352.04 505.937 1352.04 Q508.946 1352.04 510.636 1350.53 Q512.349 1349.03 512.349 1346.34 Q512.349 1343.66 510.636 1342.15 Q508.946 1340.65 505.937 1340.65 Q502.905 1340.65 501.215 1342.15 Q499.548 1343.66 499.548 1346.34 Z" fill="#000000" fill-rule="nonzero" fill-opacity="1" /><polyline clip-path="url(#clip260)" style="stroke:#00a98d; stroke-linecap:round; stroke-linejoin:round; stroke-width:4; stroke-opacity:1; fill:none" points="329.393,1406.69 470.558,1406.69 "/>
<path clip-path="url(#clip260)" d="M496.307 1423.25 L496.307 1418.99 Q498.067 1419.83 499.872 1420.27 Q501.678 1420.71 503.414 1420.71 Q508.043 1420.71 510.474 1417.6 Q512.928 1414.48 513.275 1408.14 Q511.932 1410.13 509.872 1411.19 Q507.812 1412.26 505.312 1412.26 Q500.127 1412.26 497.094 1409.13 Q494.085 1405.98 494.085 1400.54 Q494.085 1395.22 497.233 1392 Q500.381 1388.78 505.613 1388.78 Q511.608 1388.78 514.756 1393.39 Q517.928 1397.97 517.928 1406.72 Q517.928 1414.9 514.039 1419.78 Q510.173 1424.64 503.622 1424.64 Q501.863 1424.64 500.057 1424.29 Q498.252 1423.95 496.307 1423.25 M505.613 1408.6 Q508.761 1408.6 510.59 1406.45 Q512.441 1404.29 512.441 1400.54 Q512.441 1396.82 510.59 1394.66 Q508.761 1392.49 505.613 1392.49 Q502.465 1392.49 500.613 1394.66 Q498.784 1396.82 498.784 1400.54 Q498.784 1404.29 500.613 1406.45 Q502.465 1408.6 505.613 1408.6 Z" fill="#000000" fill-rule="nonzero" fill-opacity="1" /><polyline clip-path="url(#clip260)" style="stroke:#8e971d; stroke-linecap:round; stroke-linejoin:round; stroke-width:4; stroke-opacity:1; fill:none" points="329.393,1458.53 470.558,1458.53 "/>
<path clip-path="url(#clip260)" d="M494.756 1471.87 L502.395 1471.87 L502.395 1445.51 L494.085 1447.17 L494.085 1442.92 L502.349 1441.25 L507.025 1441.25 L507.025 1471.87 L514.664 1471.87 L514.664 1475.81 L494.756 1475.81 L494.756 1471.87 Z" fill="#000000" fill-rule="nonzero" fill-opacity="1" /><path clip-path="url(#clip260)" d="M534.108 1444.33 Q530.497 1444.33 528.668 1447.89 Q526.863 1451.43 526.863 1458.56 Q526.863 1465.67 528.668 1469.24 Q530.497 1472.78 534.108 1472.78 Q537.742 1472.78 539.548 1469.24 Q541.377 1465.67 541.377 1458.56 Q541.377 1451.43 539.548 1447.89 Q537.742 1444.33 534.108 1444.33 M534.108 1440.62 Q539.918 1440.62 542.974 1445.23 Q546.052 1449.81 546.052 1458.56 Q546.052 1467.29 542.974 1471.9 Q539.918 1476.48 534.108 1476.48 Q528.298 1476.48 525.219 1471.9 Q522.164 1467.29 522.164 1458.56 Q522.164 1449.81 525.219 1445.23 Q528.298 1440.62 534.108 1440.62 Z" fill="#000000" fill-rule="nonzero" fill-opacity="1" /><polyline clip-path="url(#clip260)" style="stroke:#00a8cb; stroke-linecap:round; stroke-linejoin:round; stroke-width:4; stroke-opacity:1; fill:none" points="329.393,1510.37 470.558,1510.37 "/>
<path clip-path="url(#clip260)" d="M494.756 1523.71 L502.395 1523.71 L502.395 1497.35 L494.085 1499.01 L494.085 1494.76 L502.349 1493.09 L507.025 1493.09 L507.025 1523.71 L514.664 1523.71 L514.664 1527.65 L494.756 1527.65 L494.756 1523.71 Z" fill="#000000" fill-rule="nonzero" fill-opacity="1" /><path clip-path="url(#clip260)" d="M524.918 1523.71 L532.557 1523.71 L532.557 1497.35 L524.247 1499.01 L524.247 1494.76 L532.511 1493.09 L537.187 1493.09 L537.187 1523.71 L544.826 1523.71 L544.826 1527.65 L524.918 1527.65 L524.918 1523.71 Z" fill="#000000" fill-rule="nonzero" fill-opacity="1" /><polyline clip-path="url(#clip260)" style="stroke:#9b7fe8; stroke-linecap:round; stroke-linejoin:round; stroke-width:4; stroke-opacity:1; fill:none" points="329.393,1562.21 470.558,1562.21 "/>
<path clip-path="url(#clip260)" d="M494.756 1575.55 L502.395 1575.55 L502.395 1549.19 L494.085 1550.85 L494.085 1546.6 L502.349 1544.93 L507.025 1544.93 L507.025 1575.55 L514.664 1575.55 L514.664 1579.49 L494.756 1579.49 L494.756 1575.55 Z" fill="#000000" fill-rule="nonzero" fill-opacity="1" /><path clip-path="url(#clip260)" d="M528.136 1575.55 L544.455 1575.55 L544.455 1579.49 L522.511 1579.49 L522.511 1575.55 Q525.173 1572.8 529.756 1568.17 Q534.363 1563.52 535.543 1562.17 Q537.789 1559.65 538.668 1557.92 Q539.571 1556.16 539.571 1554.47 Q539.571 1551.71 537.627 1549.98 Q535.705 1548.24 532.603 1548.24 Q530.404 1548.24 527.951 1549 Q525.52 1549.77 522.742 1551.32 L522.742 1546.6 Q525.566 1545.46 528.02 1544.88 Q530.474 1544.3 532.511 1544.3 Q537.881 1544.3 541.076 1546.99 Q544.27 1549.67 544.27 1554.17 Q544.27 1556.29 543.46 1558.22 Q542.673 1560.11 540.566 1562.71 Q539.988 1563.38 536.886 1566.6 Q533.784 1569.79 528.136 1575.55 Z" fill="#000000" fill-rule="nonzero" fill-opacity="1" /></svg>
