<?xml version="1.0" encoding="utf-8"?>
<svg xmlns="http://www.w3.org/2000/svg" xmlns:xlink="http://www.w3.org/1999/xlink" width="600" height="400" viewBox="0 0 2400 1600">
<defs>
  <clipPath id="clip550">
    <rect x="0" y="0" width="2400" height="1600"/>
  </clipPath>
</defs>
<path clip-path="url(#clip550)" d="M0 1600 L2400 1600 L2400 0 L0 0  Z" fill="#ffffff" fill-rule="evenodd" fill-opacity="1"/>
<defs>
  <clipPath id="clip551">
    <rect x="186" y="47" width="2167" height="1440"/>
  </clipPath>
</defs>
<path clip-path="url(#clip550)" d="M186.274 1486.45 L2352.76 1486.45 L2352.76 47.2441 L186.274 47.2441  Z" fill="#ffffff" fill-rule="evenodd" fill-opacity="1"/>
<polyline clip-path="url(#clip551)" style="stroke:#000000; stroke-linecap:round; stroke-linejoin:round; stroke-width:2; stroke-opacity:0.1; fill:none" points="218.803,1486.45 218.803,47.2441 "/>
<polyline clip-path="url(#clip551)" style="stroke:#000000; stroke-linecap:round; stroke-linejoin:round; stroke-width:2; stroke-opacity:0.1; fill:none" points="794.536,1486.45 794.536,47.2441 "/>
<polyline clip-path="url(#clip551)" style="stroke:#000000; stroke-linecap:round; stroke-linejoin:round; stroke-width:2; stroke-opacity:0.1; fill:none" points="1370.27,1486.45 1370.27,47.2441 "/>
<polyline clip-path="url(#clip551)" style="stroke:#000000; stroke-linecap:round; stroke-linejoin:round; stroke-width:2; stroke-opacity:0.1; fill:none" points="1946,1486.45 1946,47.2441 "/>
<polyline clip-path="url(#clip551)" style="stroke:#000000; stroke-linecap:round; stroke-linejoin:round; stroke-width:2; stroke-opacity:0.1; fill:none" points="186.274,1445.72 2352.76,1445.72 "/>
<polyline clip-path="url(#clip551)" style="stroke:#000000; stroke-linecap:round; stroke-linejoin:round; stroke-width:2; stroke-opacity:0.1; fill:none" points="186.274,1099.07 2352.76,1099.07 "/>
<polyline clip-path="url(#clip551)" style="stroke:#000000; stroke-linecap:round; stroke-linejoin:round; stroke-width:2; stroke-opacity:0.1; fill:none" points="186.274,752.426 2352.76,752.426 "/>
<polyline clip-path="url(#clip551)" style="stroke:#000000; stroke-linecap:round; stroke-linejoin:round; stroke-width:2; stroke-opacity:0.1; fill:none" points="186.274,405.78 2352.76,405.78 "/>
<polyline clip-path="url(#clip551)" style="stroke:#000000; stroke-linecap:round; stroke-linejoin:round; stroke-width:2; stroke-opacity:0.1; fill:none" points="186.274,59.1354 2352.76,59.1354 "/>
<polyline clip-path="url(#clip550)" style="stroke:#000000; stroke-linecap:round; stroke-linejoin:round; stroke-width:4; stroke-opacity:1; fill:none" points="186.274,1486.45 2352.76,1486.45 "/>
<polyline clip-path="url(#clip550)" style="stroke:#000000; stroke-linecap:round; stroke-linejoin:round; stroke-width:4; stroke-opacity:1; fill:none" points="218.803,1486.45 218.803,1467.55 "/>
<polyline clip-path="url(#clip550)" style="stroke:#000000; stroke-linecap:round; stroke-linejoin:round; stroke-width:4; stroke-opacity:1; fill:none" points="794.536,1486.45 794.536,1467.55 "/>
<polyline clip-path="url(#clip550)" style="stroke:#000000; stroke-linecap:round; stroke-linejoin:round; stroke-width:4; stroke-opacity:1; fill:none" points="1370.27,1486.45 1370.27,1467.55 "/>
<polyline clip-path="url(#clip550)" style="stroke:#000000; stroke-linecap:round; stroke-linejoin:round; stroke-width:4; stroke-opacity:1; fill:none" points="1946,1486.45 1946,1467.55 "/>
<path clip-path="url(#clip550)" d="M218.803 1517.37 Q215.192 1517.37 213.363 1520.93 Q211.558 1524.47 211.558 1531.6 Q211.558 1538.71 213.363 1542.27 Q215.192 1545.82 218.803 1545.82 Q222.437 1545.82 224.243 1542.27 Q226.071 1538.71 226.071 1531.6 Q226.071 1524.47 224.243 1520.93 Q222.437 1517.37 218.803 1517.37 M218.803 1513.66 Q224.613 1513.66 227.669 1518.27 Q230.747 1522.85 230.747 1531.6 Q230.747 1540.33 227.669 1544.94 Q224.613 1549.52 218.803 1549.52 Q212.993 1549.52 209.914 1544.94 Q206.859 1540.33 206.859 1531.6 Q206.859 1522.85 209.914 1518.27 Q212.993 1513.66 218.803 1513.66 Z" fill="#000000" fill-rule="nonzero" fill-opacity="1" /><path clip-path="url(#clip550)" d="M773.309 1544.91 L789.628 1544.91 L789.628 1548.85 L767.684 1548.85 L767.684 1544.91 Q770.346 1542.16 774.929 1537.53 Q779.536 1532.88 780.716 1531.53 Q782.962 1529.01 783.841 1527.27 Q784.744 1525.51 784.744 1523.82 Q784.744 1521.07 782.799 1519.33 Q780.878 1517.6 777.776 1517.6 Q775.577 1517.6 773.124 1518.36 Q770.693 1519.13 767.915 1520.68 L767.915 1515.95 Q770.739 1514.82 773.193 1514.24 Q775.647 1513.66 777.684 1513.66 Q783.054 1513.66 786.249 1516.35 Q789.443 1519.03 789.443 1523.52 Q789.443 1525.65 788.633 1527.57 Q787.846 1529.47 785.739 1532.07 Q785.161 1532.74 782.059 1535.95 Q778.957 1539.15 773.309 1544.91 Z" fill="#000000" fill-rule="nonzero" fill-opacity="1" /><path clip-path="url(#clip550)" d="M809.443 1517.37 Q805.832 1517.37 804.003 1520.93 Q802.198 1524.47 802.198 1531.6 Q802.198 1538.71 804.003 1542.27 Q805.832 1545.82 809.443 1545.82 Q813.077 1545.82 814.883 1542.27 Q816.711 1538.71 816.711 1531.6 Q816.711 1524.47 814.883 1520.93 Q813.077 1517.37 809.443 1517.37 M809.443 1513.66 Q815.253 1513.66 818.309 1518.27 Q821.387 1522.85 821.387 1531.6 Q821.387 1540.33 818.309 1544.94 Q815.253 1549.52 809.443 1549.52 Q803.633 1549.52 800.554 1544.94 Q797.498 1540.33 797.498 1531.6 Q797.498 1522.85 800.554 1518.27 Q803.633 1513.66 809.443 1513.66 Z" fill="#000000" fill-rule="nonzero" fill-opacity="1" /><path clip-path="url(#clip550)" d="M1358.44 1518.36 L1346.63 1536.81 L1358.44 1536.81 L1358.44 1518.36 M1357.21 1514.29 L1363.09 1514.29 L1363.09 1536.81 L1368.02 1536.81 L1368.02 1540.7 L1363.09 1540.7 L1363.09 1548.85 L1358.44 1548.85 L1358.44 1540.7 L1342.84 1540.7 L1342.84 1536.19 L1357.21 1514.29 Z" fill="#000000" fill-rule="nonzero" fill-opacity="1" /><path clip-path="url(#clip550)" d="M1385.75 1517.37 Q1382.14 1517.37 1380.31 1520.93 Q1378.51 1524.47 1378.51 1531.6 Q1378.51 1538.71 1380.31 1542.27 Q1382.14 1545.82 1385.75 1545.82 Q1389.39 1545.82 1391.19 1542.27 Q1393.02 1538.71 1393.02 1531.6 Q1393.02 1524.47 1391.19 1520.93 Q1389.39 1517.37 1385.75 1517.37 M1385.75 1513.66 Q1391.56 1513.66 1394.62 1518.27 Q1397.7 1522.85 1397.7 1531.6 Q1397.7 1540.33 1394.62 1544.94 Q1391.56 1549.52 1385.75 1549.52 Q1379.94 1549.52 1376.87 1544.94 Q1373.81 1540.33 1373.81 1531.6 Q1373.81 1522.85 1376.87 1518.27 Q1379.94 1513.66 1385.75 1513.66 Z" fill="#000000" fill-rule="nonzero" fill-opacity="1" /><path clip-path="url(#clip550)" d="M1931.41 1529.7 Q1928.26 1529.7 1926.41 1531.86 Q1924.58 1534.01 1924.58 1537.76 Q1924.58 1541.49 1926.41 1543.66 Q1928.26 1545.82 1931.41 1545.82 Q1934.55 1545.82 1936.38 1543.66 Q1938.23 1541.49 1938.23 1537.76 Q1938.23 1534.01 1936.38 1531.86 Q1934.55 1529.7 1931.41 1529.7 M1940.69 1515.05 L1940.69 1519.31 Q1938.93 1518.48 1937.12 1518.04 Q1935.34 1517.6 1933.58 1517.6 Q1928.95 1517.6 1926.5 1520.72 Q1924.07 1523.85 1923.72 1530.17 Q1925.09 1528.15 1927.15 1527.09 Q1929.21 1526 1931.68 1526 Q1936.89 1526 1939.9 1529.17 Q1942.93 1532.32 1942.93 1537.76 Q1942.93 1543.08 1939.79 1546.3 Q1936.64 1549.52 1931.41 1549.52 Q1925.41 1549.52 1922.24 1544.94 Q1919.07 1540.33 1919.07 1531.6 Q1919.07 1523.41 1922.96 1518.55 Q1926.85 1513.66 1933.4 1513.66 Q1935.16 1513.66 1936.94 1514.01 Q1938.74 1514.36 1940.69 1515.05 Z" fill="#000000" fill-rule="nonzero" fill-opacity="1" /><path clip-path="url(#clip550)" d="M1960.99 1517.37 Q1957.38 1517.37 1955.55 1520.93 Q1953.74 1524.47 1953.74 1531.6 Q1953.74 1538.71 1955.55 1542.27 Q1957.38 1545.82 1960.99 1545.82 Q1964.62 1545.82 1966.43 1542.27 Q1968.26 1538.71 1968.26 1531.6 Q1968.26 1524.47 1966.43 1520.93 Q1964.62 1517.37 1960.99 1517.37 M1960.99 1513.66 Q1966.8 1513.66 1969.85 1518.27 Q1972.93 1522.85 1972.93 1531.6 Q1972.93 1540.33 1969.85 1544.94 Q1966.8 1549.52 1960.99 1549.52 Q1955.18 1549.52 1952.1 1544.94 Q1949.04 1540.33 1949.04 1531.6 Q1949.04 1522.85 1952.1 1518.27 Q1955.18 1513.66 1960.99 1513.66 Z" fill="#000000" fill-rule="nonzero" fill-opacity="1" /><polyline clip-path="url(#clip550)" style="stroke:#000000; stroke-linecap:round; stroke-linejoin:round; stroke-width:4; stroke-opacity:1; fill:none" points="186.274,1486.45 186.274,47.2441 "/>
<polyline clip-path="url(#clip550)" style="stroke:#000000; stroke-linecap:round; stroke-linejoin:round; stroke-width:4; stroke-opacity:1; fill:none" points="186.274,1445.72 205.172,1445.72 "/>
<polyline clip-path="url(#clip550)" style="stroke:#000000; stroke-linecap:round; stroke-linejoin:round; stroke-width:4; stroke-opacity:1; fill:none" points="186.274,1099.07 205.172,1099.07 "/>
<polyline clip-path="url(#clip550)" style="stroke:#000000; stroke-linecap:round; stroke-linejoin:round; stroke-width:4; stroke-opacity:1; fill:none" points="186.274,752.426 205.172,752.426 "/>
<polyline clip-path="url(#clip550)" style="stroke:#000000; stroke-linecap:round; stroke-linejoin:round; stroke-width:4; stroke-opacity:1; fill:none" points="186.274,405.78 205.172,405.78 "/>
<polyline clip-path="url(#clip550)" style="stroke:#000000; stroke-linecap:round; stroke-linejoin:round; stroke-width:4; stroke-opacity:1; fill:none" points="186.274,59.1354 205.172,59.1354 "/>
<path clip-path="url(#clip550)" d="M62.9365 1431.51 Q59.3254 1431.51 57.4967 1435.08 Q55.6912 1438.62 55.6912 1445.75 Q55.6912 1452.86 57.4967 1456.42 Q59.3254 1459.96 62.9365 1459.96 Q66.5707 1459.96 68.3763 1456.42 Q70.205 1452.86 70.205 1445.75 Q70.205 1438.62 68.3763 1435.08 Q66.5707 1431.51 62.9365 1431.51 M62.9365 1427.81 Q68.7467 1427.81 71.8022 1432.42 Q74.8809 1437 74.8809 1445.75 Q74.8809 1454.48 71.8022 1459.08 Q68.7467 1463.67 62.9365 1463.67 Q57.1264 1463.67 54.0477 1459.08 Q50.9921 1454.48 50.9921 1445.75 Q50.9921 1437 54.0477 1432.42 Q57.1264 1427.81 62.9365 1427.81 Z" fill="#000000" fill-rule="nonzero" fill-opacity="1" /><path clip-path="url(#clip550)" d="M83.0984 1457.12 L87.9827 1457.12 L87.9827 1463 L83.0984 1463 L83.0984 1457.12 Z" fill="#000000" fill-rule="nonzero" fill-opacity="1" /><path clip-path="url(#clip550)" d="M108.168 1431.51 Q104.557 1431.51 102.728 1435.08 Q100.922 1438.62 100.922 1445.75 Q100.922 1452.86 102.728 1456.42 Q104.557 1459.96 108.168 1459.96 Q111.802 1459.96 113.608 1456.42 Q115.436 1452.86 115.436 1445.75 Q115.436 1438.62 113.608 1435.08 Q111.802 1431.51 108.168 1431.51 M108.168 1427.81 Q113.978 1427.81 117.033 1432.42 Q120.112 1437 120.112 1445.75 Q120.112 1454.48 117.033 1459.08 Q113.978 1463.67 108.168 1463.67 Q102.358 1463.67 99.2789 1459.08 Q96.2234 1454.48 96.2234 1445.75 Q96.2234 1437 99.2789 1432.42 Q102.358 1427.81 108.168 1427.81 Z" fill="#000000" fill-rule="nonzero" fill-opacity="1" /><path clip-path="url(#clip550)" d="M138.33 1431.51 Q134.719 1431.51 132.89 1435.08 Q131.084 1438.62 131.084 1445.75 Q131.084 1452.86 132.89 1456.42 Q134.719 1459.96 138.33 1459.96 Q141.964 1459.96 143.769 1456.42 Q145.598 1452.86 145.598 1445.75 Q145.598 1438.62 143.769 1435.08 Q141.964 1431.51 138.33 1431.51 M138.33 1427.81 Q144.14 1427.81 147.195 1432.42 Q150.274 1437 150.274 1445.75 Q150.274 1454.48 147.195 1459.08 Q144.14 1463.67 138.33 1463.67 Q132.519 1463.67 129.441 1459.08 Q126.385 1454.48 126.385 1445.75 Q126.385 1437 129.441 1432.42 Q132.519 1427.81 138.33 1427.81 Z" fill="#000000" fill-rule="nonzero" fill-opacity="1" /><path clip-path="url(#clip550)" d="M63.9319 1084.87 Q60.3208 1084.87 58.4921 1088.43 Q56.6865 1091.98 56.6865 1099.11 Q56.6865 1106.21 58.4921 1109.78 Q60.3208 1113.32 63.9319 1113.32 Q67.5661 1113.32 69.3717 1109.78 Q71.2004 1106.21 71.2004 1099.11 Q71.2004 1091.98 69.3717 1088.43 Q67.5661 1084.87 63.9319 1084.87 M63.9319 1081.17 Q69.742 1081.17 72.7976 1085.77 Q75.8763 1090.36 75.8763 1099.11 Q75.8763 1107.83 72.7976 1112.44 Q69.742 1117.02 63.9319 1117.02 Q58.1217 1117.02 55.043 1112.44 Q51.9875 1107.83 51.9875 1099.11 Q51.9875 1090.36 55.043 1085.77 Q58.1217 1081.17 63.9319 1081.17 Z" fill="#000000" fill-rule="nonzero" fill-opacity="1" /><path clip-path="url(#clip550)" d="M84.0938 1110.47 L88.978 1110.47 L88.978 1116.35 L84.0938 1116.35 L84.0938 1110.47 Z" fill="#000000" fill-rule="nonzero" fill-opacity="1" /><path clip-path="url(#clip550)" d="M103.191 1112.42 L119.51 1112.42 L119.51 1116.35 L97.566 1116.35 L97.566 1112.42 Q100.228 1109.66 104.811 1105.03 Q109.418 1100.38 110.598 1099.04 Q112.844 1096.51 113.723 1094.78 Q114.626 1093.02 114.626 1091.33 Q114.626 1088.57 112.682 1086.84 Q110.76 1085.1 107.658 1085.1 Q105.459 1085.1 103.006 1085.86 Q100.575 1086.63 97.7974 1088.18 L97.7974 1083.46 Q100.621 1082.32 103.075 1081.74 Q105.529 1081.17 107.566 1081.17 Q112.936 1081.17 116.131 1083.85 Q119.325 1086.54 119.325 1091.03 Q119.325 1093.16 118.515 1095.08 Q117.728 1096.98 115.621 1099.57 Q115.043 1100.24 111.941 1103.46 Q108.839 1106.65 103.191 1112.42 Z" fill="#000000" fill-rule="nonzero" fill-opacity="1" /><path clip-path="url(#clip550)" d="M129.371 1081.79 L147.728 1081.79 L147.728 1085.73 L133.654 1085.73 L133.654 1094.2 Q134.672 1093.85 135.691 1093.69 Q136.709 1093.5 137.728 1093.5 Q143.515 1093.5 146.894 1096.67 Q150.274 1099.85 150.274 1105.26 Q150.274 1110.84 146.802 1113.94 Q143.33 1117.02 137.01 1117.02 Q134.834 1117.02 132.566 1116.65 Q130.32 1116.28 127.913 1115.54 L127.913 1110.84 Q129.996 1111.98 132.219 1112.53 Q134.441 1113.09 136.918 1113.09 Q140.922 1113.09 143.26 1110.98 Q145.598 1108.87 145.598 1105.26 Q145.598 1101.65 143.26 1099.55 Q140.922 1097.44 136.918 1097.44 Q135.043 1097.44 133.168 1097.86 Q131.316 1098.27 129.371 1099.15 L129.371 1081.79 Z" fill="#000000" fill-rule="nonzero" fill-opacity="1" /><path clip-path="url(#clip550)" d="M62.9365 738.224 Q59.3254 738.224 57.4967 741.789 Q55.6912 745.331 55.6912 752.46 Q55.6912 759.567 57.4967 763.131 Q59.3254 766.673 62.9365 766.673 Q66.5707 766.673 68.3763 763.131 Q70.205 759.567 70.205 752.46 Q70.205 745.331 68.3763 741.789 Q66.5707 738.224 62.9365 738.224 M62.9365 734.521 Q68.7467 734.521 71.8022 739.127 Q74.8809 743.71 74.8809 752.46 Q74.8809 761.187 71.8022 765.794 Q68.7467 770.377 62.9365 770.377 Q57.1264 770.377 54.0477 765.794 Q50.9921 761.187 50.9921 752.46 Q50.9921 743.71 54.0477 739.127 Q57.1264 734.521 62.9365 734.521 Z" fill="#000000" fill-rule="nonzero" fill-opacity="1" /><path clip-path="url(#clip550)" d="M83.0984 763.826 L87.9827 763.826 L87.9827 769.706 L83.0984 769.706 L83.0984 763.826 Z" fill="#000000" fill-rule="nonzero" fill-opacity="1" /><path clip-path="url(#clip550)" d="M98.2141 735.146 L116.57 735.146 L116.57 739.081 L102.496 739.081 L102.496 747.553 Q103.515 747.206 104.534 747.044 Q105.552 746.858 106.571 746.858 Q112.358 746.858 115.737 750.03 Q119.117 753.201 119.117 758.618 Q119.117 764.196 115.645 767.298 Q112.172 770.377 105.853 770.377 Q103.677 770.377 101.409 770.006 Q99.1632 769.636 96.7558 768.895 L96.7558 764.196 Q98.8391 765.331 101.061 765.886 Q103.284 766.442 105.76 766.442 Q109.765 766.442 112.103 764.335 Q114.441 762.229 114.441 758.618 Q114.441 755.007 112.103 752.9 Q109.765 750.794 105.76 750.794 Q103.885 750.794 102.01 751.21 Q100.159 751.627 98.2141 752.507 L98.2141 735.146 Z" fill="#000000" fill-rule="nonzero" fill-opacity="1" /><path clip-path="url(#clip550)" d="M138.33 738.224 Q134.719 738.224 132.89 741.789 Q131.084 745.331 131.084 752.46 Q131.084 759.567 132.89 763.131 Q134.719 766.673 138.33 766.673 Q141.964 766.673 143.769 763.131 Q145.598 759.567 145.598 752.46 Q145.598 745.331 143.769 741.789 Q141.964 738.224 138.33 738.224 M138.33 734.521 Q144.14 734.521 147.195 739.127 Q150.274 743.71 150.274 752.46 Q150.274 761.187 147.195 765.794 Q144.14 770.377 138.33 770.377 Q132.519 770.377 129.441 765.794 Q126.385 761.187 126.385 752.46 Q126.385 743.71 129.441 739.127 Q132.519 734.521 138.33 734.521 Z" fill="#000000" fill-rule="nonzero" fill-opacity="1" /><path clip-path="url(#clip550)" d="M63.9319 391.579 Q60.3208 391.579 58.4921 395.144 Q56.6865 398.686 56.6865 405.815 Q56.6865 412.922 58.4921 416.486 Q60.3208 420.028 63.9319 420.028 Q67.5661 420.028 69.3717 416.486 Q71.2004 412.922 71.2004 405.815 Q71.2004 398.686 69.3717 395.144 Q67.5661 391.579 63.9319 391.579 M63.9319 387.875 Q69.742 387.875 72.7976 392.482 Q75.8763 397.065 75.8763 405.815 Q75.8763 414.542 72.7976 419.148 Q69.742 423.732 63.9319 423.732 Q58.1217 423.732 55.043 419.148 Q51.9875 414.542 51.9875 405.815 Q51.9875 397.065 55.043 392.482 Q58.1217 387.875 63.9319 387.875 Z" fill="#000000" fill-rule="nonzero" fill-opacity="1" /><path clip-path="url(#clip550)" d="M84.0938 417.181 L88.978 417.181 L88.978 423.06 L84.0938 423.06 L84.0938 417.181 Z" fill="#000000" fill-rule="nonzero" fill-opacity="1" /><path clip-path="url(#clip550)" d="M97.9826 388.5 L120.205 388.5 L120.205 390.491 L107.658 423.06 L102.774 423.06 L114.58 392.436 L97.9826 392.436 L97.9826 388.5 Z" fill="#000000" fill-rule="nonzero" fill-opacity="1" /><path clip-path="url(#clip550)" d="M129.371 388.5 L147.728 388.5 L147.728 392.436 L133.654 392.436 L133.654 400.908 Q134.672 400.561 135.691 400.399 Q136.709 400.213 137.728 400.213 Q143.515 400.213 146.894 403.385 Q150.274 406.556 150.274 411.973 Q150.274 417.551 146.802 420.653 Q143.33 423.732 137.01 423.732 Q134.834 423.732 132.566 423.361 Q130.32 422.991 127.913 422.25 L127.913 417.551 Q129.996 418.685 132.219 419.241 Q134.441 419.797 136.918 419.797 Q140.922 419.797 143.26 417.69 Q145.598 415.584 145.598 411.973 Q145.598 408.361 143.26 406.255 Q140.922 404.149 136.918 404.149 Q135.043 404.149 133.168 404.565 Q131.316 404.982 129.371 405.861 L129.371 388.5 Z" fill="#000000" fill-rule="nonzero" fill-opacity="1" /><path clip-path="url(#clip550)" d="M53.7467 72.4802 L61.3856 72.4802 L61.3856 46.1146 L53.0754 47.7813 L53.0754 43.522 L61.3393 41.8554 L66.0152 41.8554 L66.0152 72.4802 L73.654 72.4802 L73.654 76.4154 L53.7467 76.4154 L53.7467 72.4802 Z" fill="#000000" fill-rule="nonzero" fill-opacity="1" /><path clip-path="url(#clip550)" d="M83.0984 70.5358 L87.9827 70.5358 L87.9827 76.4154 L83.0984 76.4154 L83.0984 70.5358 Z" fill="#000000" fill-rule="nonzero" fill-opacity="1" /><path clip-path="url(#clip550)" d="M108.168 44.9341 Q104.557 44.9341 102.728 48.4989 Q100.922 52.0405 100.922 59.1701 Q100.922 66.2765 102.728 69.8413 Q104.557 73.383 108.168 73.383 Q111.802 73.383 113.608 69.8413 Q115.436 66.2765 115.436 59.1701 Q115.436 52.0405 113.608 48.4989 Q111.802 44.9341 108.168 44.9341 M108.168 41.2304 Q113.978 41.2304 117.033 45.8368 Q120.112 50.4201 120.112 59.1701 Q120.112 67.8969 117.033 72.5034 Q113.978 77.0867 108.168 77.0867 Q102.358 77.0867 99.2789 72.5034 Q96.2234 67.8969 96.2234 59.1701 Q96.2234 50.4201 99.2789 45.8368 Q102.358 41.2304 108.168 41.2304 Z" fill="#000000" fill-rule="nonzero" fill-opacity="1" /><path clip-path="url(#clip550)" d="M138.33 44.9341 Q134.719 44.9341 132.89 48.4989 Q131.084 52.0405 131.084 59.1701 Q131.084 66.2765 132.89 69.8413 Q134.719 73.383 138.33 73.383 Q141.964 73.383 143.769 69.8413 Q145.598 66.2765 145.598 59.1701 Q145.598 52.0405 143.769 48.4989 Q141.964 44.9341 138.33 44.9341 M138.33 41.2304 Q144.14 41.2304 147.195 45.8368 Q150.274 50.4201 150.274 59.1701 Q150.274 67.8969 147.195 72.5034 Q144.14 77.0867 138.33 77.0867 Q132.519 77.0867 129.441 72.5034 Q126.385 67.8969 126.385 59.1701 Q126.385 50.4201 129.441 45.8368 Q132.519 41.2304 138.33 41.2304 Z" fill="#000000" fill-rule="nonzero" fill-opacity="1" /><polyline clip-path="url(#clip551)" style="stroke:#009af9; stroke-linecap:round; stroke-linejoin:round; stroke-width:4; stroke-opacity:1; fill:none" points="247.59,567.813 276.376,578.771 305.163,584.497 333.949,586.376 362.736,586.034 391.523,575.959 420.309,520.204 449.096,479.958 477.883,459.302 506.669,433.982 535.456,424.151 564.242,420.974 593.029,417.629 621.816,416.068 650.602,401.659 679.389,361.272 708.176,289.443 736.962,297.461 765.749,311.136 794.536,335.722 823.322,373.913 852.109,421.059 880.895,462.548 909.682,496.768 938.469,405.892 967.255,421.241 996.042,424.201 1024.83,414.964 1053.62,389.97 1082.4,402.519 1111.19,326.855 1139.98,270.751 1168.76,243.125 1197.55,220.285 1226.34,216.851 1255.12,212.582 1283.91,191.366 1312.69,190.295 1341.48,192.705 1370.27,147.112 1399.05,91.6636 1427.84,127.686 1456.63,162.019 1485.41,211.717 1514.2,269.044 1542.99,329.726 1571.77,394.344 1600.56,432.444 1629.35,400.533 1658.13,420.89 1686.92,429.781 1715.71,425.373 1744.49,403.129 1773.28,415.911 1802.07,341.302 1830.85,277.527 1859.64,246.545 1888.43,210.035 1917.21,191.156 1946,182.848 1974.79,157.319 2003.57,152.86 2032.36,158.369 2061.15,121.212 2089.93,92.8458 2118.72,140.848 2147.51,181.653 2176.29,236.851 2205.08,294.397 2233.87,356.635 2262.65,418.89 2291.44,461.324 "/>
<polyline clip-path="url(#clip551)" style="stroke:#e26f46; stroke-linecap:round; stroke-linejoin:round; stroke-width:4; stroke-opacity:1; fill:none" points="247.59,1445.72 276.376,1445.72 305.163,1445.72 333.949,1445.72 362.736,1445.72 391.523,1445.72 420.309,1445.72 449.096,1445.72 477.883,1445.72 506.669,1445.72 535.456,1310.39 564.242,1218.24 593.029,1151.5 621.816,1124.16 650.602,1165.96 679.389,1289.43 708.176,1418.56 736.962,1445.72 765.749,1445.72 794.536,1445.72 823.322,1445.72 852.109,1445.72 880.895,1445.72 909.682,1445.72 938.469,1445.72 967.255,1445.72 996.042,1445.72 1024.83,1445.72 1053.62,1445.72 1082.4,1445.72 1111.19,1445.72 1139.98,1445.72 1168.76,1445.72 1197.55,1445.72 1226.34,1372.35 1255.12,1190.66 1283.91,988.962 1312.69,924.93 1341.48,984.665 1370.27,1129.9 1399.05,1357.64 1427.84,1445.72 1456.63,1445.72 1485.41,1445.72 1514.2,1445.72 1542.99,1445.72 1571.77,1445.72 1600.56,1445.72 1629.35,1445.72 1658.13,1445.72 1686.92,1445.72 1715.71,1445.72 1744.49,1445.72 1773.28,1445.72 1802.07,1445.72 1830.85,1445.72 1859.64,1445.72 1888.43,1445.72 1917.21,1438.14 1946,1417.63 1974.79,1397.09 2003.57,1382.48 2032.36,1396.86 2061.15,1426.53 2089.93,1445.72 2118.72,1445.72 2147.51,1445.72 2176.29,1445.72 2205.08,1445.72 2233.87,1445.72 2262.65,1445.72 2291.44,1445.72 "/>
<polyline clip-path="url(#clip551)" style="stroke:#3da44d; stroke-linecap:round; stroke-linejoin:round; stroke-width:4; stroke-opacity:1; fill:none" points="247.59,92.7676 276.376,94.5182 305.163,94.06 333.949,90.1538 362.736,91.9995 391.523,91.1403 420.309,91.0564 449.096,96.612 477.883,96.5351 506.669,91.4864 535.456,90.6926 564.242,89.6397 593.029,89.0169 621.816,89.2197 650.602,88.4392 679.389,88.6664 708.176,88.0021 736.962,87.9867 765.749,87.978 794.536,104.459 823.322,452.448 852.109,432.482 880.895,555.698 909.682,703.835 938.469,400.918 967.255,426.059 996.042,490.331 1024.83,613.68 1053.62,145.805 1082.4,88.3435 1111.19,87.9763 1139.98,87.9766 1168.76,88.02 1197.55,88.5614 1226.34,88.5729 1255.12,92.6883 1283.91,88.0288 1312.69,88.0586 1341.48,88.0614 1370.27,88.0738 1399.05,88.2898 1427.84,88.3533 1456.63,88.1317 1485.41,88.5427 1514.2,88.1701 1542.99,90.3054 1571.77,89.3249 1600.56,95.6168 1629.35,97.0164 1658.13,101.921 1686.92,108.091 1715.71,103.631 1744.49,92.6845 1773.28,90.7382 1802.07,90.6095 1830.85,106.443 1859.64,108.207 1888.43,119.327 1917.21,213.691 1946,377.333 1974.79,376.344 2003.57,404.507 2032.36,483.026 2061.15,476.14 2089.93,276.476 2118.72,197.605 2147.51,146.642 2176.29,117.179 2205.08,112.331 2233.87,105.566 2262.65,113.031 2291.44,116.858 "/>
<polyline clip-path="url(#clip551)" style="stroke:#c271d2; stroke-linecap:round; stroke-linejoin:round; stroke-width:4; stroke-opacity:1; fill:none" points="247.59,159.911 276.376,159.911 305.163,156.773 333.949,154.722 362.736,151.808 391.523,149.203 420.309,156.535 449.096,139.673 477.883,130.926 506.669,130.363 535.456,160.071 564.242,135.106 593.029,130.009 621.816,137.093 650.602,144.142 679.389,135.517 708.176,129.335 736.962,128.813 765.749,128.54 794.536,128.465 823.322,128.464 852.109,128.464 880.895,128.464 909.682,128.464 938.469,128.464 967.255,128.464 996.042,128.464 1024.83,128.464 1053.62,128.464 1082.4,128.464 1111.19,128.464 1139.98,128.464 1168.76,128.464 1197.55,128.464 1226.34,128.466 1255.12,129.091 1283.91,131.195 1312.69,129.672 1341.48,128.901 1370.27,129.306 1399.05,128.721 1427.84,128.498 1456.63,128.496 1485.41,128.648 1514.2,128.985 1542.99,129.027 1571.77,128.843 1600.56,129.97 1629.35,133.429 1658.13,150.082 1686.92,146.425 1715.71,170.093 1744.49,173.05 1773.28,145.693 1802.07,144.953 1830.85,129.953 1859.64,132.459 1888.43,137.501 1917.21,159.658 1946,360.486 1974.79,474.672 2003.57,565.396 2032.36,756.629 2061.15,903.228 2089.93,1007.53 2118.72,1025.23 2147.51,932.518 2176.29,786.867 2205.08,600.549 2233.87,414.44 2262.65,340.132 2291.44,222.359 "/>
<path clip-path="url(#clip550)" d="M258.49 1438.47 L898.446 1438.47 L898.446 1179.27 L258.49 1179.27  Z" fill="#ffffff" fill-rule="evenodd" fill-opacity="1"/>
<polyline clip-path="url(#clip550)" style="stroke:#000000; stroke-linecap:round; stroke-linejoin:round; stroke-width:4; stroke-opacity:1; fill:none" points="258.49,1438.47 898.446,1438.47 898.446,1179.27 258.49,1179.27 258.49,1438.47 "/>
<polyline clip-path="url(#clip550)" style="stroke:#009af9; stroke-linecap:round; stroke-linejoin:round; stroke-width:4; stroke-opacity:1; fill:none" points="282.562,1231.11 426.994,1231.11 "/>
<path clip-path="url(#clip550)" d="M451.066 1213.83 L457.362 1213.83 L472.686 1242.75 L472.686 1213.83 L477.224 1213.83 L477.224 1248.39 L470.927 1248.39 L455.603 1219.48 L455.603 1248.39 L451.066 1248.39 L451.066 1213.83 Z" fill="#000000" fill-rule="nonzero" fill-opacity="1" /><path clip-path="url(#clip550)" d="M486.529 1213.83 L491.205 1213.83 L491.205 1244.46 L508.034 1244.46 L508.034 1248.39 L486.529 1248.39 L486.529 1213.83 Z" fill="#000000" fill-rule="nonzero" fill-opacity="1" /><path clip-path="url(#clip550)" d="M532.455 1256.26 L532.455 1259.57 L507.825 1259.57 L507.825 1256.26 L532.455 1256.26 Z" fill="#000000" fill-rule="nonzero" fill-opacity="1" /><path clip-path="url(#clip550)" d="M536.644 1213.83 L558.496 1213.83 L558.496 1217.77 L541.32 1217.77 L541.32 1228 L557.779 1228 L557.779 1231.94 L541.32 1231.94 L541.32 1244.46 L558.913 1244.46 L558.913 1248.39 L536.644 1248.39 L536.644 1213.83 Z" fill="#000000" fill-rule="nonzero" fill-opacity="1" /><path clip-path="url(#clip550)" d="M586.112 1256.26 L586.112 1259.57 L561.482 1259.57 L561.482 1256.26 L586.112 1256.26 Z" fill="#000000" fill-rule="nonzero" fill-opacity="1" /><path clip-path="url(#clip550)" d="M594.978 1217.68 L594.978 1244.55 L600.626 1244.55 Q607.778 1244.55 611.089 1241.31 Q614.422 1238.07 614.422 1231.08 Q614.422 1224.14 611.089 1220.92 Q607.778 1217.68 600.626 1217.68 L594.978 1217.68 M590.302 1213.83 L599.908 1213.83 Q609.954 1213.83 614.653 1218.02 Q619.352 1222.19 619.352 1231.08 Q619.352 1240.01 614.63 1244.2 Q609.908 1248.39 599.908 1248.39 L590.302 1248.39 L590.302 1213.83 Z" fill="#000000" fill-rule="nonzero" fill-opacity="1" /><path clip-path="url(#clip550)" d="M648.797 1234.37 L648.797 1236.45 L629.213 1236.45 Q629.491 1240.85 631.852 1243.16 Q634.237 1245.45 638.473 1245.45 Q640.926 1245.45 643.218 1244.85 Q645.533 1244.25 647.801 1243.05 L647.801 1247.07 Q645.51 1248.05 643.102 1248.56 Q640.695 1249.07 638.218 1249.07 Q632.014 1249.07 628.38 1245.45 Q624.769 1241.84 624.769 1235.69 Q624.769 1229.32 628.195 1225.59 Q631.644 1221.84 637.477 1221.84 Q642.709 1221.84 645.741 1225.22 Q648.797 1228.58 648.797 1234.37 M644.537 1233.12 Q644.491 1229.62 642.57 1227.54 Q640.672 1225.45 637.524 1225.45 Q633.959 1225.45 631.806 1227.47 Q629.676 1229.48 629.352 1233.14 L644.537 1233.12 Z" fill="#000000" fill-rule="nonzero" fill-opacity="1" /><path clip-path="url(#clip550)" d="M675.972 1227.45 Q677.57 1224.58 679.792 1223.21 Q682.014 1221.84 685.023 1221.84 Q689.074 1221.84 691.273 1224.69 Q693.472 1227.51 693.472 1232.75 L693.472 1248.39 L689.19 1248.39 L689.19 1232.89 Q689.19 1229.16 687.871 1227.35 Q686.551 1225.55 683.843 1225.55 Q680.533 1225.55 678.611 1227.75 Q676.69 1229.95 676.69 1233.74 L676.69 1248.39 L672.408 1248.39 L672.408 1232.89 Q672.408 1229.14 671.088 1227.35 Q669.769 1225.55 667.014 1225.55 Q663.75 1225.55 661.829 1227.77 Q659.908 1229.97 659.908 1233.74 L659.908 1248.39 L655.625 1248.39 L655.625 1222.47 L659.908 1222.47 L659.908 1226.5 Q661.366 1224.11 663.403 1222.98 Q665.44 1221.84 668.241 1221.84 Q671.065 1221.84 673.033 1223.28 Q675.023 1224.71 675.972 1227.45 Z" fill="#000000" fill-rule="nonzero" fill-opacity="1" /><path clip-path="url(#clip550)" d="M713.75 1235.36 Q708.588 1235.36 706.597 1236.54 Q704.607 1237.72 704.607 1240.57 Q704.607 1242.84 706.088 1244.18 Q707.593 1245.5 710.162 1245.5 Q713.704 1245.5 715.833 1243 Q717.986 1240.48 717.986 1236.31 L717.986 1235.36 L713.75 1235.36 M722.245 1233.6 L722.245 1248.39 L717.986 1248.39 L717.986 1244.46 Q716.528 1246.82 714.352 1247.95 Q712.176 1249.07 709.028 1249.07 Q705.046 1249.07 702.685 1246.84 Q700.347 1244.6 700.347 1240.85 Q700.347 1236.47 703.264 1234.25 Q706.204 1232.03 712.014 1232.03 L717.986 1232.03 L717.986 1231.61 Q717.986 1228.67 716.042 1227.08 Q714.12 1225.45 710.625 1225.45 Q708.403 1225.45 706.296 1225.99 Q704.19 1226.52 702.245 1227.58 L702.245 1223.65 Q704.583 1222.75 706.782 1222.31 Q708.982 1221.84 711.065 1221.84 Q716.69 1221.84 719.468 1224.76 Q722.245 1227.68 722.245 1233.6 Z" fill="#000000" fill-rule="nonzero" fill-opacity="1" /><path clip-path="url(#clip550)" d="M752.569 1232.75 L752.569 1248.39 L748.31 1248.39 L748.31 1232.89 Q748.31 1229.2 746.875 1227.38 Q745.44 1225.55 742.569 1225.55 Q739.12 1225.55 737.13 1227.75 Q735.139 1229.95 735.139 1233.74 L735.139 1248.39 L730.856 1248.39 L730.856 1222.47 L735.139 1222.47 L735.139 1226.5 Q736.667 1224.16 738.727 1223 Q740.81 1221.84 743.518 1221.84 Q747.986 1221.84 750.278 1224.62 Q752.569 1227.38 752.569 1232.75 Z" fill="#000000" fill-rule="nonzero" fill-opacity="1" /><path clip-path="url(#clip550)" d="M778.125 1226.4 L778.125 1212.38 L782.384 1212.38 L782.384 1248.39 L778.125 1248.39 L778.125 1244.51 Q776.782 1246.82 774.722 1247.95 Q772.685 1249.07 769.815 1249.07 Q765.115 1249.07 762.153 1245.32 Q759.213 1241.57 759.213 1235.45 Q759.213 1229.34 762.153 1225.59 Q765.115 1221.84 769.815 1221.84 Q772.685 1221.84 774.722 1222.98 Q776.782 1224.09 778.125 1226.4 M763.611 1235.45 Q763.611 1240.15 765.532 1242.84 Q767.477 1245.5 770.856 1245.5 Q774.236 1245.5 776.18 1242.84 Q778.125 1240.15 778.125 1235.45 Q778.125 1230.76 776.18 1228.09 Q774.236 1225.41 770.856 1225.41 Q767.477 1225.41 765.532 1228.09 Q763.611 1230.76 763.611 1235.45 Z" fill="#000000" fill-rule="nonzero" fill-opacity="1" /><polyline clip-path="url(#clip550)" style="stroke:#e26f46; stroke-linecap:round; stroke-linejoin:round; stroke-width:4; stroke-opacity:1; fill:none" points="282.562,1282.95 426.994,1282.95 "/>
<path clip-path="url(#clip550)" d="M451.066 1265.67 L457.362 1265.67 L472.686 1294.59 L472.686 1265.67 L477.224 1265.67 L477.224 1300.23 L470.927 1300.23 L455.603 1271.32 L455.603 1300.23 L451.066 1300.23 L451.066 1265.67 Z" fill="#000000" fill-rule="nonzero" fill-opacity="1" /><path clip-path="url(#clip550)" d="M486.529 1265.67 L491.205 1265.67 L491.205 1296.3 L508.034 1296.3 L508.034 1300.23 L486.529 1300.23 L486.529 1265.67 Z" fill="#000000" fill-rule="nonzero" fill-opacity="1" /><path clip-path="url(#clip550)" d="M532.455 1308.1 L532.455 1311.41 L507.825 1311.41 L507.825 1308.1 L532.455 1308.1 Z" fill="#000000" fill-rule="nonzero" fill-opacity="1" /><path clip-path="url(#clip550)" d="M557.362 1266.81 L557.362 1271.37 Q554.7 1270.1 552.339 1269.47 Q549.978 1268.85 547.779 1268.85 Q543.959 1268.85 541.876 1270.33 Q539.816 1271.81 539.816 1274.54 Q539.816 1276.83 541.181 1278.01 Q542.57 1279.17 546.413 1279.89 L549.237 1280.47 Q554.468 1281.46 556.945 1283.98 Q559.445 1286.48 559.445 1290.7 Q559.445 1295.72 556.066 1298.31 Q552.709 1300.91 546.205 1300.91 Q543.751 1300.91 540.973 1300.35 Q538.219 1299.79 535.256 1298.71 L535.256 1293.89 Q538.103 1295.49 540.834 1296.3 Q543.566 1297.11 546.205 1297.11 Q550.209 1297.11 552.385 1295.54 Q554.561 1293.96 554.561 1291.04 Q554.561 1288.5 552.987 1287.06 Q551.436 1285.63 547.871 1284.91 L545.024 1284.35 Q539.793 1283.31 537.455 1281.09 Q535.117 1278.87 535.117 1274.91 Q535.117 1270.33 538.334 1267.69 Q541.575 1265.05 547.246 1265.05 Q549.677 1265.05 552.2 1265.49 Q554.723 1265.93 557.362 1266.81 Z" fill="#000000" fill-rule="nonzero" fill-opacity="1" /><path clip-path="url(#clip550)" d="M576.598 1277.29 Q573.172 1277.29 571.181 1279.98 Q569.191 1282.64 569.191 1287.29 Q569.191 1291.95 571.158 1294.63 Q573.149 1297.29 576.598 1297.29 Q580.001 1297.29 581.991 1294.61 Q583.982 1291.92 583.982 1287.29 Q583.982 1282.69 581.991 1280 Q580.001 1277.29 576.598 1277.29 M576.598 1273.68 Q582.153 1273.68 585.325 1277.29 Q588.496 1280.91 588.496 1287.29 Q588.496 1293.66 585.325 1297.29 Q582.153 1300.91 576.598 1300.91 Q571.019 1300.91 567.848 1297.29 Q564.7 1293.66 564.7 1287.29 Q564.7 1280.91 567.848 1277.29 Q571.019 1273.68 576.598 1273.68 Z" fill="#000000" fill-rule="nonzero" fill-opacity="1" /><path clip-path="url(#clip550)" d="M595.556 1264.22 L599.815 1264.22 L599.815 1300.23 L595.556 1300.23 L595.556 1264.22 Z" fill="#000000" fill-rule="nonzero" fill-opacity="1" /><path clip-path="url(#clip550)" d="M620.51 1287.2 Q615.348 1287.2 613.357 1288.38 Q611.366 1289.56 611.366 1292.41 Q611.366 1294.68 612.848 1296.02 Q614.352 1297.34 616.922 1297.34 Q620.463 1297.34 622.593 1294.84 Q624.746 1292.32 624.746 1288.15 L624.746 1287.2 L620.51 1287.2 M629.005 1285.44 L629.005 1300.23 L624.746 1300.23 L624.746 1296.3 Q623.288 1298.66 621.112 1299.79 Q618.936 1300.91 615.788 1300.91 Q611.806 1300.91 609.445 1298.68 Q607.107 1296.44 607.107 1292.69 Q607.107 1288.31 610.024 1286.09 Q612.964 1283.87 618.774 1283.87 L624.746 1283.87 L624.746 1283.45 Q624.746 1280.51 622.801 1278.92 Q620.88 1277.29 617.385 1277.29 Q615.163 1277.29 613.056 1277.83 Q610.95 1278.36 609.005 1279.42 L609.005 1275.49 Q611.343 1274.59 613.542 1274.15 Q615.741 1273.68 617.825 1273.68 Q623.45 1273.68 626.227 1276.6 Q629.005 1279.52 629.005 1285.44 Z" fill="#000000" fill-rule="nonzero" fill-opacity="1" /><path clip-path="url(#clip550)" d="M652.801 1278.29 Q652.084 1277.87 651.227 1277.69 Q650.394 1277.48 649.375 1277.48 Q645.764 1277.48 643.82 1279.84 Q641.899 1282.18 641.899 1286.58 L641.899 1300.23 L637.616 1300.23 L637.616 1274.31 L641.899 1274.31 L641.899 1278.34 Q643.241 1275.98 645.394 1274.84 Q647.547 1273.68 650.625 1273.68 Q651.065 1273.68 651.598 1273.75 Q652.13 1273.8 652.778 1273.92 L652.801 1278.29 Z" fill="#000000" fill-rule="nonzero" fill-opacity="1" /><polyline clip-path="url(#clip550)" style="stroke:#3da44d; stroke-linecap:round; stroke-linejoin:round; stroke-width:4; stroke-opacity:1; fill:none" points="282.562,1334.79 426.994,1334.79 "/>
<path clip-path="url(#clip550)" d="M451.066 1317.51 L457.362 1317.51 L472.686 1346.43 L472.686 1317.51 L477.224 1317.51 L477.224 1352.07 L470.927 1352.07 L455.603 1323.16 L455.603 1352.07 L451.066 1352.07 L451.066 1317.51 Z" fill="#000000" fill-rule="nonzero" fill-opacity="1" /><path clip-path="url(#clip550)" d="M486.529 1317.51 L491.205 1317.51 L491.205 1348.14 L508.034 1348.14 L508.034 1352.07 L486.529 1352.07 L486.529 1317.51 Z" fill="#000000" fill-rule="nonzero" fill-opacity="1" /><path clip-path="url(#clip550)" d="M532.455 1359.94 L532.455 1363.25 L507.825 1363.25 L507.825 1359.94 L532.455 1359.94 Z" fill="#000000" fill-rule="nonzero" fill-opacity="1" /><path clip-path="url(#clip550)" d="M533.566 1317.51 L538.288 1317.51 L545.556 1346.73 L552.802 1317.51 L558.056 1317.51 L565.325 1346.73 L572.57 1317.51 L577.316 1317.51 L568.635 1352.07 L562.755 1352.07 L555.464 1322.07 L548.103 1352.07 L542.223 1352.07 L533.566 1317.51 Z" fill="#000000" fill-rule="nonzero" fill-opacity="1" /><path clip-path="url(#clip550)" d="M582.292 1326.15 L586.552 1326.15 L586.552 1352.07 L582.292 1352.07 L582.292 1326.15 M582.292 1316.06 L586.552 1316.06 L586.552 1321.45 L582.292 1321.45 L582.292 1316.06 Z" fill="#000000" fill-rule="nonzero" fill-opacity="1" /><path clip-path="url(#clip550)" d="M617.014 1336.43 L617.014 1352.07 L612.755 1352.07 L612.755 1336.57 Q612.755 1332.88 611.32 1331.06 Q609.885 1329.23 607.014 1329.23 Q603.565 1329.23 601.575 1331.43 Q599.584 1333.63 599.584 1337.42 L599.584 1352.07 L595.302 1352.07 L595.302 1326.15 L599.584 1326.15 L599.584 1330.18 Q601.112 1327.84 603.172 1326.68 Q605.255 1325.52 607.964 1325.52 Q612.431 1325.52 614.723 1328.3 Q617.014 1331.06 617.014 1336.43 Z" fill="#000000" fill-rule="nonzero" fill-opacity="1" /><path clip-path="url(#clip550)" d="M642.57 1330.08 L642.57 1316.06 L646.829 1316.06 L646.829 1352.07 L642.57 1352.07 L642.57 1348.19 Q641.227 1350.5 639.167 1351.63 Q637.13 1352.75 634.26 1352.75 Q629.561 1352.75 626.598 1349 Q623.658 1345.25 623.658 1339.13 Q623.658 1333.02 626.598 1329.27 Q629.561 1325.52 634.26 1325.52 Q637.13 1325.52 639.167 1326.66 Q641.227 1327.77 642.57 1330.08 M628.056 1339.13 Q628.056 1343.83 629.977 1346.52 Q631.922 1349.18 635.301 1349.18 Q638.681 1349.18 640.625 1346.52 Q642.57 1343.83 642.57 1339.13 Q642.57 1334.44 640.625 1331.77 Q638.681 1329.09 635.301 1329.09 Q631.922 1329.09 629.977 1331.77 Q628.056 1334.44 628.056 1339.13 Z" fill="#000000" fill-rule="nonzero" fill-opacity="1" /><path clip-path="url(#clip550)" d="M675.301 1359.94 L675.301 1363.25 L650.672 1363.25 L650.672 1359.94 L675.301 1359.94 Z" fill="#000000" fill-rule="nonzero" fill-opacity="1" /><path clip-path="url(#clip550)" d="M693.519 1320.69 Q688.426 1320.69 685.417 1324.48 Q682.431 1328.28 682.431 1334.83 Q682.431 1341.36 685.417 1345.15 Q688.426 1348.95 693.519 1348.95 Q698.611 1348.95 701.574 1345.15 Q704.56 1341.36 704.56 1334.83 Q704.56 1328.28 701.574 1324.48 Q698.611 1320.69 693.519 1320.69 M693.519 1316.89 Q700.787 1316.89 705.139 1321.77 Q709.491 1326.63 709.491 1334.83 Q709.491 1343 705.139 1347.88 Q700.787 1352.75 693.519 1352.75 Q686.227 1352.75 681.852 1347.88 Q677.5 1343.02 677.5 1334.83 Q677.5 1326.63 681.852 1321.77 Q686.227 1316.89 693.519 1316.89 Z" fill="#000000" fill-rule="nonzero" fill-opacity="1" /><path clip-path="url(#clip550)" d="M729.745 1316.06 L729.745 1319.6 L725.671 1319.6 Q723.38 1319.6 722.477 1320.52 Q721.597 1321.45 721.597 1323.86 L721.597 1326.15 L728.611 1326.15 L728.611 1329.46 L721.597 1329.46 L721.597 1352.07 L717.315 1352.07 L717.315 1329.46 L713.241 1329.46 L713.241 1326.15 L717.315 1326.15 L717.315 1324.34 Q717.315 1320.01 719.329 1318.05 Q721.343 1316.06 725.718 1316.06 L729.745 1316.06 Z" fill="#000000" fill-rule="nonzero" fill-opacity="1" /><path clip-path="url(#clip550)" d="M746.435 1316.06 L746.435 1319.6 L742.361 1319.6 Q740.069 1319.6 739.167 1320.52 Q738.287 1321.45 738.287 1323.86 L738.287 1326.15 L745.301 1326.15 L745.301 1329.46 L738.287 1329.46 L738.287 1352.07 L734.005 1352.07 L734.005 1329.46 L729.93 1329.46 L729.93 1326.15 L734.005 1326.15 L734.005 1324.34 Q734.005 1320.01 736.018 1318.05 Q738.032 1316.06 742.407 1316.06 L746.435 1316.06 Z" fill="#000000" fill-rule="nonzero" fill-opacity="1" /><path clip-path="url(#clip550)" d="M766.528 1326.91 L766.528 1330.94 Q764.722 1330.01 762.778 1329.55 Q760.833 1329.09 758.75 1329.09 Q755.578 1329.09 753.981 1330.06 Q752.407 1331.03 752.407 1332.98 Q752.407 1334.46 753.541 1335.32 Q754.676 1336.15 758.102 1336.91 L759.56 1337.24 Q764.097 1338.21 765.995 1339.99 Q767.916 1341.75 767.916 1344.92 Q767.916 1348.53 765.046 1350.64 Q762.199 1352.75 757.199 1352.75 Q755.116 1352.75 752.847 1352.33 Q750.602 1351.94 748.102 1351.13 L748.102 1346.73 Q750.463 1347.95 752.754 1348.58 Q755.046 1349.18 757.291 1349.18 Q760.301 1349.18 761.921 1348.16 Q763.541 1347.12 763.541 1345.25 Q763.541 1343.51 762.361 1342.58 Q761.203 1341.66 757.245 1340.8 L755.764 1340.45 Q751.805 1339.62 750.046 1337.91 Q748.287 1336.17 748.287 1333.16 Q748.287 1329.51 750.879 1327.51 Q753.472 1325.52 758.241 1325.52 Q760.602 1325.52 762.685 1325.87 Q764.768 1326.22 766.528 1326.91 Z" fill="#000000" fill-rule="nonzero" fill-opacity="1" /><path clip-path="url(#clip550)" d="M796.25 1336.43 L796.25 1352.07 L791.99 1352.07 L791.99 1336.57 Q791.99 1332.88 790.555 1331.06 Q789.12 1329.23 786.25 1329.23 Q782.801 1329.23 780.81 1331.43 Q778.819 1333.63 778.819 1337.42 L778.819 1352.07 L774.537 1352.07 L774.537 1316.06 L778.819 1316.06 L778.819 1330.18 Q780.347 1327.84 782.407 1326.68 Q784.49 1325.52 787.199 1325.52 Q791.666 1325.52 793.958 1328.3 Q796.25 1331.06 796.25 1336.43 Z" fill="#000000" fill-rule="nonzero" fill-opacity="1" /><path clip-path="url(#clip550)" d="M814.791 1329.13 Q811.365 1329.13 809.374 1331.82 Q807.384 1334.48 807.384 1339.13 Q807.384 1343.79 809.351 1346.47 Q811.342 1349.13 814.791 1349.13 Q818.194 1349.13 820.185 1346.45 Q822.175 1343.76 822.175 1339.13 Q822.175 1334.53 820.185 1331.84 Q818.194 1329.13 814.791 1329.13 M814.791 1325.52 Q820.347 1325.52 823.518 1329.13 Q826.689 1332.75 826.689 1339.13 Q826.689 1345.5 823.518 1349.13 Q820.347 1352.75 814.791 1352.75 Q809.212 1352.75 806.041 1349.13 Q802.893 1345.5 802.893 1339.13 Q802.893 1332.75 806.041 1329.13 Q809.212 1325.52 814.791 1325.52 Z" fill="#000000" fill-rule="nonzero" fill-opacity="1" /><path clip-path="url(#clip550)" d="M848.772 1330.13 Q848.055 1329.71 847.198 1329.53 Q846.365 1329.32 845.347 1329.32 Q841.735 1329.32 839.791 1331.68 Q837.87 1334.02 837.87 1338.42 L837.87 1352.07 L833.587 1352.07 L833.587 1326.15 L837.87 1326.15 L837.87 1330.18 Q839.212 1327.82 841.365 1326.68 Q843.518 1325.52 846.597 1325.52 Q847.036 1325.52 847.569 1325.59 Q848.101 1325.64 848.749 1325.76 L848.772 1330.13 Z" fill="#000000" fill-rule="nonzero" fill-opacity="1" /><path clip-path="url(#clip550)" d="M874.374 1338.05 L874.374 1340.13 L854.791 1340.13 Q855.069 1344.53 857.43 1346.84 Q859.814 1349.13 864.05 1349.13 Q866.504 1349.13 868.795 1348.53 Q871.11 1347.93 873.379 1346.73 L873.379 1350.75 Q871.087 1351.73 868.68 1352.24 Q866.272 1352.75 863.796 1352.75 Q857.592 1352.75 853.958 1349.13 Q850.347 1345.52 850.347 1339.37 Q850.347 1333 853.772 1329.27 Q857.221 1325.52 863.055 1325.52 Q868.286 1325.52 871.319 1328.9 Q874.374 1332.26 874.374 1338.05 M870.115 1336.8 Q870.069 1333.3 868.147 1331.22 Q866.249 1329.13 863.101 1329.13 Q859.536 1329.13 857.384 1331.15 Q855.254 1333.16 854.93 1336.82 L870.115 1336.8 Z" fill="#000000" fill-rule="nonzero" fill-opacity="1" /><polyline clip-path="url(#clip550)" style="stroke:#c271d2; stroke-linecap:round; stroke-linejoin:round; stroke-width:4; stroke-opacity:1; fill:none" points="282.562,1386.63 426.994,1386.63 "/>
<path clip-path="url(#clip550)" d="M451.066 1369.35 L457.362 1369.35 L472.686 1398.27 L472.686 1369.35 L477.224 1369.35 L477.224 1403.91 L470.927 1403.91 L455.603 1375 L455.603 1403.91 L451.066 1403.91 L451.066 1369.35 Z" fill="#000000" fill-rule="nonzero" fill-opacity="1" /><path clip-path="url(#clip550)" d="M486.529 1369.35 L491.205 1369.35 L491.205 1399.98 L508.034 1399.98 L508.034 1403.91 L486.529 1403.91 L486.529 1369.35 Z" fill="#000000" fill-rule="nonzero" fill-opacity="1" /><path clip-path="url(#clip550)" d="M532.455 1411.78 L532.455 1415.09 L507.825 1415.09 L507.825 1411.78 L532.455 1411.78 Z" fill="#000000" fill-rule="nonzero" fill-opacity="1" /><path clip-path="url(#clip550)" d="M533.566 1369.35 L538.288 1369.35 L545.556 1398.57 L552.802 1369.35 L558.056 1369.35 L565.325 1398.57 L572.57 1369.35 L577.316 1369.35 L568.635 1403.91 L562.755 1403.91 L555.464 1373.91 L548.103 1403.91 L542.223 1403.91 L533.566 1369.35 Z" fill="#000000" fill-rule="nonzero" fill-opacity="1" /><path clip-path="url(#clip550)" d="M582.292 1377.99 L586.552 1377.99 L586.552 1403.91 L582.292 1403.91 L582.292 1377.99 M582.292 1367.9 L586.552 1367.9 L586.552 1373.29 L582.292 1373.29 L582.292 1367.9 Z" fill="#000000" fill-rule="nonzero" fill-opacity="1" /><path clip-path="url(#clip550)" d="M617.014 1388.27 L617.014 1403.91 L612.755 1403.91 L612.755 1388.41 Q612.755 1384.72 611.32 1382.9 Q609.885 1381.07 607.014 1381.07 Q603.565 1381.07 601.575 1383.27 Q599.584 1385.47 599.584 1389.26 L599.584 1403.91 L595.302 1403.91 L595.302 1377.99 L599.584 1377.99 L599.584 1382.02 Q601.112 1379.68 603.172 1378.52 Q605.255 1377.36 607.964 1377.36 Q612.431 1377.36 614.723 1380.14 Q617.014 1382.9 617.014 1388.27 Z" fill="#000000" fill-rule="nonzero" fill-opacity="1" /><path clip-path="url(#clip550)" d="M642.57 1381.92 L642.57 1367.9 L646.829 1367.9 L646.829 1403.91 L642.57 1403.91 L642.57 1400.03 Q641.227 1402.34 639.167 1403.47 Q637.13 1404.59 634.26 1404.59 Q629.561 1404.59 626.598 1400.84 Q623.658 1397.09 623.658 1390.97 Q623.658 1384.86 626.598 1381.11 Q629.561 1377.36 634.26 1377.36 Q637.13 1377.36 639.167 1378.5 Q641.227 1379.61 642.57 1381.92 M628.056 1390.97 Q628.056 1395.67 629.977 1398.36 Q631.922 1401.02 635.301 1401.02 Q638.681 1401.02 640.625 1398.36 Q642.57 1395.67 642.57 1390.97 Q642.57 1386.28 640.625 1383.61 Q638.681 1380.93 635.301 1380.93 Q631.922 1380.93 629.977 1383.61 Q628.056 1386.28 628.056 1390.97 Z" fill="#000000" fill-rule="nonzero" fill-opacity="1" /><path clip-path="url(#clip550)" d="M675.301 1411.78 L675.301 1415.09 L650.672 1415.09 L650.672 1411.78 L675.301 1411.78 Z" fill="#000000" fill-rule="nonzero" fill-opacity="1" /><path clip-path="url(#clip550)" d="M693.519 1372.53 Q688.426 1372.53 685.417 1376.32 Q682.431 1380.12 682.431 1386.67 Q682.431 1393.2 685.417 1396.99 Q688.426 1400.79 693.519 1400.79 Q698.611 1400.79 701.574 1396.99 Q704.56 1393.2 704.56 1386.67 Q704.56 1380.12 701.574 1376.32 Q698.611 1372.53 693.519 1372.53 M693.519 1368.73 Q700.787 1368.73 705.139 1373.61 Q709.491 1378.47 709.491 1386.67 Q709.491 1394.84 705.139 1399.72 Q700.787 1404.59 693.519 1404.59 Q686.227 1404.59 681.852 1399.72 Q677.5 1394.86 677.5 1386.67 Q677.5 1378.47 681.852 1373.61 Q686.227 1368.73 693.519 1368.73 Z" fill="#000000" fill-rule="nonzero" fill-opacity="1" /><path clip-path="url(#clip550)" d="M738.171 1388.27 L738.171 1403.91 L733.912 1403.91 L733.912 1388.41 Q733.912 1384.72 732.477 1382.9 Q731.042 1381.07 728.171 1381.07 Q724.722 1381.07 722.731 1383.27 Q720.741 1385.47 720.741 1389.26 L720.741 1403.91 L716.458 1403.91 L716.458 1377.99 L720.741 1377.99 L720.741 1382.02 Q722.268 1379.68 724.329 1378.52 Q726.412 1377.36 729.12 1377.36 Q733.588 1377.36 735.88 1380.14 Q738.171 1382.9 738.171 1388.27 Z" fill="#000000" fill-rule="nonzero" fill-opacity="1" /><path clip-path="url(#clip550)" d="M763.194 1378.75 L763.194 1382.78 Q761.389 1381.85 759.444 1381.39 Q757.5 1380.93 755.416 1380.93 Q752.245 1380.93 750.648 1381.9 Q749.074 1382.87 749.074 1384.82 Q749.074 1386.3 750.208 1387.16 Q751.342 1387.99 754.768 1388.75 L756.227 1389.08 Q760.764 1390.05 762.662 1391.83 Q764.583 1393.59 764.583 1396.76 Q764.583 1400.37 761.713 1402.48 Q758.866 1404.59 753.866 1404.59 Q751.782 1404.59 749.514 1404.17 Q747.268 1403.78 744.768 1402.97 L744.768 1398.57 Q747.129 1399.79 749.421 1400.42 Q751.713 1401.02 753.958 1401.02 Q756.967 1401.02 758.588 1400 Q760.208 1398.96 760.208 1397.09 Q760.208 1395.35 759.028 1394.42 Q757.87 1393.5 753.912 1392.64 L752.43 1392.29 Q748.472 1391.46 746.713 1389.75 Q744.954 1388.01 744.954 1385 Q744.954 1381.35 747.546 1379.35 Q750.139 1377.36 754.907 1377.36 Q757.268 1377.36 759.352 1377.71 Q761.435 1378.06 763.194 1378.75 Z" fill="#000000" fill-rule="nonzero" fill-opacity="1" /><path clip-path="url(#clip550)" d="M792.916 1388.27 L792.916 1403.91 L788.657 1403.91 L788.657 1388.41 Q788.657 1384.72 787.222 1382.9 Q785.787 1381.07 782.916 1381.07 Q779.467 1381.07 777.477 1383.27 Q775.486 1385.47 775.486 1389.26 L775.486 1403.91 L771.203 1403.91 L771.203 1367.9 L775.486 1367.9 L775.486 1382.02 Q777.014 1379.68 779.074 1378.52 Q781.157 1377.36 783.865 1377.36 Q788.333 1377.36 790.625 1380.14 Q792.916 1382.9 792.916 1388.27 Z" fill="#000000" fill-rule="nonzero" fill-opacity="1" /><path clip-path="url(#clip550)" d="M811.458 1380.97 Q808.032 1380.97 806.041 1383.66 Q804.05 1386.32 804.05 1390.97 Q804.05 1395.63 806.018 1398.31 Q808.009 1400.97 811.458 1400.97 Q814.861 1400.97 816.851 1398.29 Q818.842 1395.6 818.842 1390.97 Q818.842 1386.37 816.851 1383.68 Q814.861 1380.97 811.458 1380.97 M811.458 1377.36 Q817.013 1377.36 820.185 1380.97 Q823.356 1384.59 823.356 1390.97 Q823.356 1397.34 820.185 1400.97 Q817.013 1404.59 811.458 1404.59 Q805.879 1404.59 802.708 1400.97 Q799.56 1397.34 799.56 1390.97 Q799.56 1384.59 802.708 1380.97 Q805.879 1377.36 811.458 1377.36 Z" fill="#000000" fill-rule="nonzero" fill-opacity="1" /><path clip-path="url(#clip550)" d="M845.439 1381.97 Q844.722 1381.55 843.865 1381.37 Q843.032 1381.16 842.013 1381.16 Q838.402 1381.16 836.458 1383.52 Q834.536 1385.86 834.536 1390.26 L834.536 1403.91 L830.254 1403.91 L830.254 1377.99 L834.536 1377.99 L834.536 1382.02 Q835.879 1379.66 838.032 1378.52 Q840.185 1377.36 843.263 1377.36 Q843.703 1377.36 844.235 1377.43 Q844.768 1377.48 845.416 1377.6 L845.439 1381.97 Z" fill="#000000" fill-rule="nonzero" fill-opacity="1" /><path clip-path="url(#clip550)" d="M871.041 1389.89 L871.041 1391.97 L851.458 1391.97 Q851.735 1396.37 854.096 1398.68 Q856.481 1400.97 860.717 1400.97 Q863.171 1400.97 865.462 1400.37 Q867.777 1399.77 870.045 1398.57 L870.045 1402.59 Q867.754 1403.57 865.346 1404.08 Q862.939 1404.59 860.462 1404.59 Q854.259 1404.59 850.624 1400.97 Q847.013 1397.36 847.013 1391.21 Q847.013 1384.84 850.439 1381.11 Q853.888 1377.36 859.721 1377.36 Q864.953 1377.36 867.985 1380.74 Q871.041 1384.1 871.041 1389.89 M866.782 1388.64 Q866.735 1385.14 864.814 1383.06 Q862.916 1380.97 859.768 1380.97 Q856.203 1380.97 854.05 1382.99 Q851.921 1385 851.596 1388.66 L866.782 1388.64 Z" fill="#000000" fill-rule="nonzero" fill-opacity="1" /></svg>
