<?xml version="1.0" encoding="utf-8"?>
<svg xmlns="http://www.w3.org/2000/svg" xmlns:xlink="http://www.w3.org/1999/xlink" width="800" height="300" viewBox="0 0 3200 1200">
<defs>
  <clipPath id="clip740">
    <rect x="0" y="0" width="3200" height="1200"/>
  </clipPath>
</defs>
<path clip-path="url(#clip740)" d="M0 1200 L3200 1200 L3200 0 L0 0  Z" fill="#ffffff" fill-rule="evenodd" fill-opacity="1"/>
<defs>
  <clipPath id="clip741">
    <rect x="407" y="97" width="2747" height="1010"/>
  </clipPath>
</defs>
<path clip-path="url(#clip740)" d="M407.187 1105.57 L3152.76 1105.57 L3152.76 97.0121 L407.187 97.0121  Z" fill="#ffffff" fill-rule="evenodd" fill-opacity="1"/>
<polyline clip-path="url(#clip741)" style="stroke:#000000; stroke-linecap:round; stroke-linejoin:round; stroke-width:2; stroke-opacity:0.1; fill:none" points="484.891,1105.57 484.891,97.0121 "/>
<polyline clip-path="url(#clip741)" style="stroke:#000000; stroke-linecap:round; stroke-linejoin:round; stroke-width:2; stroke-opacity:0.1; fill:none" points="857.13,1105.57 857.13,97.0121 "/>
<polyline clip-path="url(#clip741)" style="stroke:#000000; stroke-linecap:round; stroke-linejoin:round; stroke-width:2; stroke-opacity:0.1; fill:none" points="1229.37,1105.57 1229.37,97.0121 "/>
<polyline clip-path="url(#clip741)" style="stroke:#000000; stroke-linecap:round; stroke-linejoin:round; stroke-width:2; stroke-opacity:0.1; fill:none" points="1601.61,1105.57 1601.61,97.0121 "/>
<polyline clip-path="url(#clip741)" style="stroke:#000000; stroke-linecap:round; stroke-linejoin:round; stroke-width:2; stroke-opacity:0.1; fill:none" points="1973.85,1105.57 1973.85,97.0121 "/>
<polyline clip-path="url(#clip741)" style="stroke:#000000; stroke-linecap:round; stroke-linejoin:round; stroke-width:2; stroke-opacity:0.1; fill:none" points="2346.08,1105.57 2346.08,97.0121 "/>
<polyline clip-path="url(#clip741)" style="stroke:#000000; stroke-linecap:round; stroke-linejoin:round; stroke-width:2; stroke-opacity:0.1; fill:none" points="2718.32,1105.57 2718.32,97.0121 "/>
<polyline clip-path="url(#clip741)" style="stroke:#000000; stroke-linecap:round; stroke-linejoin:round; stroke-width:2; stroke-opacity:0.1; fill:none" points="407.187,1100.51 3152.76,1100.51 "/>
<polyline clip-path="url(#clip741)" style="stroke:#000000; stroke-linecap:round; stroke-linejoin:round; stroke-width:2; stroke-opacity:0.1; fill:none" points="407.187,951.721 3152.76,951.721 "/>
<polyline clip-path="url(#clip741)" style="stroke:#000000; stroke-linecap:round; stroke-linejoin:round; stroke-width:2; stroke-opacity:0.1; fill:none" points="407.187,802.935 3152.76,802.935 "/>
<polyline clip-path="url(#clip741)" style="stroke:#000000; stroke-linecap:round; stroke-linejoin:round; stroke-width:2; stroke-opacity:0.1; fill:none" points="407.187,654.149 3152.76,654.149 "/>
<polyline clip-path="url(#clip741)" style="stroke:#000000; stroke-linecap:round; stroke-linejoin:round; stroke-width:2; stroke-opacity:0.1; fill:none" points="407.187,505.364 3152.76,505.364 "/>
<polyline clip-path="url(#clip741)" style="stroke:#000000; stroke-linecap:round; stroke-linejoin:round; stroke-width:2; stroke-opacity:0.1; fill:none" points="407.187,356.578 3152.76,356.578 "/>
<polyline clip-path="url(#clip741)" style="stroke:#000000; stroke-linecap:round; stroke-linejoin:round; stroke-width:2; stroke-opacity:0.1; fill:none" points="407.187,207.792 3152.76,207.792 "/>
<polyline clip-path="url(#clip740)" style="stroke:#000000; stroke-linecap:round; stroke-linejoin:round; stroke-width:4; stroke-opacity:1; fill:none" points="407.187,1105.57 3152.76,1105.57 "/>
<polyline clip-path="url(#clip740)" style="stroke:#000000; stroke-linecap:round; stroke-linejoin:round; stroke-width:4; stroke-opacity:1; fill:none" points="484.891,1105.57 484.891,1086.67 "/>
<polyline clip-path="url(#clip740)" style="stroke:#000000; stroke-linecap:round; stroke-linejoin:round; stroke-width:4; stroke-opacity:1; fill:none" points="857.13,1105.57 857.13,1086.67 "/>
<polyline clip-path="url(#clip740)" style="stroke:#000000; stroke-linecap:round; stroke-linejoin:round; stroke-width:4; stroke-opacity:1; fill:none" points="1229.37,1105.57 1229.37,1086.67 "/>
<polyline clip-path="url(#clip740)" style="stroke:#000000; stroke-linecap:round; stroke-linejoin:round; stroke-width:4; stroke-opacity:1; fill:none" points="1601.61,1105.57 1601.61,1086.67 "/>
<polyline clip-path="url(#clip740)" style="stroke:#000000; stroke-linecap:round; stroke-linejoin:round; stroke-width:4; stroke-opacity:1; fill:none" points="1973.85,1105.57 1973.85,1086.67 "/>
<polyline clip-path="url(#clip740)" style="stroke:#000000; stroke-linecap:round; stroke-linejoin:round; stroke-width:4; stroke-opacity:1; fill:none" points="2346.08,1105.57 2346.08,1086.67 "/>
<polyline clip-path="url(#clip740)" style="stroke:#000000; stroke-linecap:round; stroke-linejoin:round; stroke-width:4; stroke-opacity:1; fill:none" points="2718.32,1105.57 2718.32,1086.67 "/>
<path clip-path="url(#clip740)" d="M475.273 1170.43 L482.912 1170.43 L482.912 1144.07 L474.602 1145.73 L474.602 1141.47 L482.866 1139.81 L487.542 1139.81 L487.542 1170.43 L495.181 1170.43 L495.181 1174.37 L475.273 1174.37 L475.273 1170.43 Z" fill="#000000" fill-rule="nonzero" fill-opacity="1" /><path clip-path="url(#clip740)" d="M836.401 1170.43 L852.72 1170.43 L852.72 1174.37 L830.776 1174.37 L830.776 1170.43 Q833.438 1167.68 838.021 1163.05 Q842.628 1158.4 843.808 1157.05 Q846.054 1154.53 846.933 1152.79 Q847.836 1151.03 847.836 1149.34 Q847.836 1146.59 845.892 1144.85 Q843.97 1143.12 840.868 1143.12 Q838.669 1143.12 836.216 1143.88 Q833.785 1144.65 831.007 1146.2 L831.007 1141.47 Q833.831 1140.34 836.285 1139.76 Q838.739 1139.18 840.776 1139.18 Q846.146 1139.18 849.341 1141.87 Q852.535 1144.55 852.535 1149.04 Q852.535 1151.17 851.725 1153.09 Q850.938 1154.99 848.831 1157.59 Q848.253 1158.26 845.151 1161.47 Q842.049 1164.67 836.401 1170.43 Z" fill="#000000" fill-rule="nonzero" fill-opacity="1" /><path clip-path="url(#clip740)" d="M862.581 1139.81 L880.938 1139.81 L880.938 1143.74 L866.864 1143.74 L866.864 1152.22 Q867.882 1151.87 868.901 1151.71 Q869.919 1151.52 870.938 1151.52 Q876.725 1151.52 880.104 1154.69 Q883.484 1157.86 883.484 1163.28 Q883.484 1168.86 880.012 1171.96 Q876.54 1175.04 870.22 1175.04 Q868.044 1175.04 865.776 1174.67 Q863.53 1174.3 861.123 1173.56 L861.123 1168.86 Q863.206 1169.99 865.429 1170.55 Q867.651 1171.1 870.128 1171.1 Q874.132 1171.1 876.47 1169 Q878.808 1166.89 878.808 1163.28 Q878.808 1159.67 876.47 1157.56 Q874.132 1155.46 870.128 1155.46 Q868.253 1155.46 866.378 1155.87 Q864.526 1156.29 862.581 1157.17 L862.581 1139.81 Z" fill="#000000" fill-rule="nonzero" fill-opacity="1" /><path clip-path="url(#clip740)" d="M1217.63 1143.88 L1205.83 1162.33 L1217.63 1162.33 L1217.63 1143.88 M1216.41 1139.81 L1222.29 1139.81 L1222.29 1162.33 L1227.22 1162.33 L1227.22 1166.22 L1222.29 1166.22 L1222.29 1174.37 L1217.63 1174.37 L1217.63 1166.22 L1202.03 1166.22 L1202.03 1161.71 L1216.41 1139.81 Z" fill="#000000" fill-rule="nonzero" fill-opacity="1" /><path clip-path="url(#clip740)" d="M1235.09 1173.65 L1235.09 1169.39 Q1236.85 1170.22 1238.65 1170.66 Q1240.46 1171.1 1242.19 1171.1 Q1246.82 1171.1 1249.25 1168 Q1251.71 1164.88 1252.05 1158.53 Q1250.71 1160.53 1248.65 1161.59 Q1246.59 1162.65 1244.09 1162.65 Q1238.91 1162.65 1235.87 1159.53 Q1232.86 1156.38 1232.86 1150.94 Q1232.86 1145.62 1236.01 1142.4 Q1239.16 1139.18 1244.39 1139.18 Q1250.39 1139.18 1253.53 1143.79 Q1256.71 1148.37 1256.71 1157.12 Q1256.71 1165.29 1252.82 1170.18 Q1248.95 1175.04 1242.4 1175.04 Q1240.64 1175.04 1238.84 1174.69 Q1237.03 1174.34 1235.09 1173.65 M1244.39 1159 Q1247.54 1159 1249.37 1156.84 Q1251.22 1154.69 1251.22 1150.94 Q1251.22 1147.22 1249.37 1145.06 Q1247.54 1142.89 1244.39 1142.89 Q1241.24 1142.89 1239.39 1145.06 Q1237.56 1147.22 1237.56 1150.94 Q1237.56 1154.69 1239.39 1156.84 Q1241.24 1159 1244.39 1159 Z" fill="#000000" fill-rule="nonzero" fill-opacity="1" /><path clip-path="url(#clip740)" d="M1575.29 1139.81 L1597.51 1139.81 L1597.51 1141.8 L1584.96 1174.37 L1580.08 1174.37 L1591.88 1143.74 L1575.29 1143.74 L1575.29 1139.81 Z" fill="#000000" fill-rule="nonzero" fill-opacity="1" /><path clip-path="url(#clip740)" d="M1620.8 1155.73 Q1624.15 1156.45 1626.03 1158.72 Q1627.93 1160.99 1627.93 1164.32 Q1627.93 1169.44 1624.41 1172.24 Q1620.89 1175.04 1614.41 1175.04 Q1612.23 1175.04 1609.92 1174.6 Q1607.63 1174.18 1605.17 1173.33 L1605.17 1168.81 Q1607.12 1169.95 1609.43 1170.53 Q1611.75 1171.1 1614.27 1171.1 Q1618.67 1171.1 1620.96 1169.37 Q1623.27 1167.63 1623.27 1164.32 Q1623.27 1161.27 1621.12 1159.55 Q1618.99 1157.82 1615.17 1157.82 L1611.14 1157.82 L1611.14 1153.97 L1615.36 1153.97 Q1618.81 1153.97 1620.63 1152.61 Q1622.46 1151.22 1622.46 1148.63 Q1622.46 1145.97 1620.57 1144.55 Q1618.69 1143.12 1615.17 1143.12 Q1613.25 1143.12 1611.05 1143.53 Q1608.85 1143.95 1606.21 1144.83 L1606.21 1140.66 Q1608.88 1139.92 1611.19 1139.55 Q1613.53 1139.18 1615.59 1139.18 Q1620.91 1139.18 1624.01 1141.61 Q1627.12 1144.02 1627.12 1148.14 Q1627.12 1151.01 1625.47 1153 Q1623.83 1154.97 1620.8 1155.73 Z" fill="#000000" fill-rule="nonzero" fill-opacity="1" /><path clip-path="url(#clip740)" d="M1949.42 1173.65 L1949.42 1169.39 Q1951.18 1170.22 1952.99 1170.66 Q1954.79 1171.1 1956.53 1171.1 Q1961.16 1171.1 1963.59 1168 Q1966.04 1164.88 1966.39 1158.53 Q1965.05 1160.53 1962.99 1161.59 Q1960.93 1162.65 1958.43 1162.65 Q1953.24 1162.65 1950.21 1159.53 Q1947.2 1156.38 1947.2 1150.94 Q1947.2 1145.62 1950.35 1142.4 Q1953.5 1139.18 1958.73 1139.18 Q1964.73 1139.18 1967.87 1143.79 Q1971.04 1148.37 1971.04 1157.12 Q1971.04 1165.29 1967.16 1170.18 Q1963.29 1175.04 1956.74 1175.04 Q1954.98 1175.04 1953.17 1174.69 Q1951.37 1174.34 1949.42 1173.65 M1958.73 1159 Q1961.88 1159 1963.71 1156.84 Q1965.56 1154.69 1965.56 1150.94 Q1965.56 1147.22 1963.71 1145.06 Q1961.88 1142.89 1958.73 1142.89 Q1955.58 1142.89 1953.73 1145.06 Q1951.9 1147.22 1951.9 1150.94 Q1951.9 1154.69 1953.73 1156.84 Q1955.58 1159 1958.73 1159 Z" fill="#000000" fill-rule="nonzero" fill-opacity="1" /><path clip-path="url(#clip740)" d="M1978.27 1139.81 L2000.49 1139.81 L2000.49 1141.8 L1987.94 1174.37 L1983.06 1174.37 L1994.86 1143.74 L1978.27 1143.74 L1978.27 1139.81 Z" fill="#000000" fill-rule="nonzero" fill-opacity="1" /><path clip-path="url(#clip740)" d="M2306.3 1170.43 L2313.94 1170.43 L2313.94 1144.07 L2305.63 1145.73 L2305.63 1141.47 L2313.9 1139.81 L2318.57 1139.81 L2318.57 1170.43 L2326.21 1170.43 L2326.21 1174.37 L2306.3 1174.37 L2306.3 1170.43 Z" fill="#000000" fill-rule="nonzero" fill-opacity="1" /><path clip-path="url(#clip740)" d="M2339.68 1170.43 L2356 1170.43 L2356 1174.37 L2334.06 1174.37 L2334.06 1170.43 Q2336.72 1167.68 2341.3 1163.05 Q2345.91 1158.4 2347.09 1157.05 Q2349.34 1154.53 2350.22 1152.79 Q2351.12 1151.03 2351.12 1149.34 Q2351.12 1146.59 2349.17 1144.85 Q2347.25 1143.12 2344.15 1143.12 Q2341.95 1143.12 2339.5 1143.88 Q2337.07 1144.65 2334.29 1146.2 L2334.29 1141.47 Q2337.11 1140.34 2339.57 1139.76 Q2342.02 1139.18 2344.06 1139.18 Q2349.43 1139.18 2352.62 1141.87 Q2355.82 1144.55 2355.82 1149.04 Q2355.82 1151.17 2355.01 1153.09 Q2354.22 1154.99 2352.11 1157.59 Q2351.54 1158.26 2348.43 1161.47 Q2345.33 1164.67 2339.68 1170.43 Z" fill="#000000" fill-rule="nonzero" fill-opacity="1" /><path clip-path="url(#clip740)" d="M2366.63 1170.43 L2374.27 1170.43 L2374.27 1144.07 L2365.96 1145.73 L2365.96 1141.47 L2374.22 1139.81 L2378.9 1139.81 L2378.9 1170.43 L2386.54 1170.43 L2386.54 1174.37 L2366.63 1174.37 L2366.63 1170.43 Z" fill="#000000" fill-rule="nonzero" fill-opacity="1" /><path clip-path="url(#clip740)" d="M2678.43 1170.43 L2686.07 1170.43 L2686.07 1144.07 L2677.76 1145.73 L2677.76 1141.47 L2686.02 1139.81 L2690.7 1139.81 L2690.7 1170.43 L2698.33 1170.43 L2698.33 1174.37 L2678.43 1174.37 L2678.43 1170.43 Z" fill="#000000" fill-rule="nonzero" fill-opacity="1" /><path clip-path="url(#clip740)" d="M2720.63 1143.88 L2708.82 1162.33 L2720.63 1162.33 L2720.63 1143.88 M2719.4 1139.81 L2725.28 1139.81 L2725.28 1162.33 L2730.21 1162.33 L2730.21 1166.22 L2725.28 1166.22 L2725.28 1174.37 L2720.63 1174.37 L2720.63 1166.22 L2705.02 1166.22 L2705.02 1161.71 L2719.4 1139.81 Z" fill="#000000" fill-rule="nonzero" fill-opacity="1" /><path clip-path="url(#clip740)" d="M2737.99 1139.81 L2756.34 1139.81 L2756.34 1143.74 L2742.27 1143.74 L2742.27 1152.22 Q2743.29 1151.87 2744.31 1151.71 Q2745.32 1151.52 2746.34 1151.52 Q2752.13 1151.52 2755.51 1154.69 Q2758.89 1157.86 2758.89 1163.28 Q2758.89 1168.86 2755.42 1171.96 Q2751.95 1175.04 2745.63 1175.04 Q2743.45 1175.04 2741.18 1174.67 Q2738.94 1174.3 2736.53 1173.56 L2736.53 1168.86 Q2738.61 1169.99 2740.83 1170.55 Q2743.06 1171.1 2745.53 1171.1 Q2749.54 1171.1 2751.88 1169 Q2754.21 1166.89 2754.21 1163.28 Q2754.21 1159.67 2751.88 1157.56 Q2749.54 1155.46 2745.53 1155.46 Q2743.66 1155.46 2741.78 1155.87 Q2739.93 1156.29 2737.99 1157.17 L2737.99 1139.81 Z" fill="#000000" fill-rule="nonzero" fill-opacity="1" /><polyline clip-path="url(#clip740)" style="stroke:#000000; stroke-linecap:round; stroke-linejoin:round; stroke-width:4; stroke-opacity:1; fill:none" points="407.187,1105.57 407.187,97.0121 "/>
<polyline clip-path="url(#clip740)" style="stroke:#000000; stroke-linecap:round; stroke-linejoin:round; stroke-width:4; stroke-opacity:1; fill:none" points="407.187,1100.51 426.084,1100.51 "/>
<polyline clip-path="url(#clip740)" style="stroke:#000000; stroke-linecap:round; stroke-linejoin:round; stroke-width:4; stroke-opacity:1; fill:none" points="407.187,951.721 426.084,951.721 "/>
<polyline clip-path="url(#clip740)" style="stroke:#000000; stroke-linecap:round; stroke-linejoin:round; stroke-width:4; stroke-opacity:1; fill:none" points="407.187,802.935 426.084,802.935 "/>
<polyline clip-path="url(#clip740)" style="stroke:#000000; stroke-linecap:round; stroke-linejoin:round; stroke-width:4; stroke-opacity:1; fill:none" points="407.187,654.149 426.084,654.149 "/>
<polyline clip-path="url(#clip740)" style="stroke:#000000; stroke-linecap:round; stroke-linejoin:round; stroke-width:4; stroke-opacity:1; fill:none" points="407.187,505.364 426.084,505.364 "/>
<polyline clip-path="url(#clip740)" style="stroke:#000000; stroke-linecap:round; stroke-linejoin:round; stroke-width:4; stroke-opacity:1; fill:none" points="407.187,356.578 426.084,356.578 "/>
<polyline clip-path="url(#clip740)" style="stroke:#000000; stroke-linecap:round; stroke-linejoin:round; stroke-width:4; stroke-opacity:1; fill:none" points="407.187,207.792 426.084,207.792 "/>
<path clip-path="url(#clip740)" d="M46.9921 1107.41 L76.6679 1107.41 L76.6679 1111.34 L46.9921 1111.34 L46.9921 1107.41 Z" fill="#000000" fill-rule="nonzero" fill-opacity="1" /><path clip-path="url(#clip740)" d="M87.5706 1120.3 L95.2095 1120.3 L95.2095 1093.93 L86.8993 1095.6 L86.8993 1091.34 L95.1632 1089.67 L99.8391 1089.67 L99.8391 1120.3 L107.478 1120.3 L107.478 1124.23 L87.5706 1124.23 L87.5706 1120.3 Z" fill="#000000" fill-rule="nonzero" fill-opacity="1" /><path clip-path="url(#clip740)" d="M116.922 1118.35 L121.807 1118.35 L121.807 1124.23 L116.922 1124.23 L116.922 1118.35 Z" fill="#000000" fill-rule="nonzero" fill-opacity="1" /><path clip-path="url(#clip740)" d="M132.038 1089.67 L150.394 1089.67 L150.394 1093.61 L136.32 1093.61 L136.32 1102.08 Q137.339 1101.73 138.357 1101.57 Q139.376 1101.39 140.394 1101.39 Q146.181 1101.39 149.561 1104.56 Q152.941 1107.73 152.941 1113.15 Q152.941 1118.72 149.468 1121.83 Q145.996 1124.91 139.677 1124.91 Q137.501 1124.91 135.232 1124.54 Q132.987 1124.16 130.58 1123.42 L130.58 1118.72 Q132.663 1119.86 134.885 1120.41 Q137.107 1120.97 139.584 1120.97 Q143.589 1120.97 145.927 1118.86 Q148.265 1116.76 148.265 1113.15 Q148.265 1109.54 145.927 1107.43 Q143.589 1105.32 139.584 1105.32 Q137.709 1105.32 135.834 1105.74 Q133.982 1106.16 132.038 1107.04 L132.038 1089.67 Z" fill="#000000" fill-rule="nonzero" fill-opacity="1" /><path clip-path="url(#clip740)" d="M172.153 1092.75 Q168.542 1092.75 166.714 1096.32 Q164.908 1099.86 164.908 1106.99 Q164.908 1114.1 166.714 1117.66 Q168.542 1121.2 172.153 1121.2 Q175.788 1121.2 177.593 1117.66 Q179.422 1114.1 179.422 1106.99 Q179.422 1099.86 177.593 1096.32 Q175.788 1092.75 172.153 1092.75 M172.153 1089.05 Q177.964 1089.05 181.019 1093.66 Q184.098 1098.24 184.098 1106.99 Q184.098 1115.72 181.019 1120.32 Q177.964 1124.91 172.153 1124.91 Q166.343 1124.91 163.265 1120.32 Q160.209 1115.72 160.209 1106.99 Q160.209 1098.24 163.265 1093.66 Q166.343 1089.05 172.153 1089.05 Z" fill="#000000" fill-rule="nonzero" fill-opacity="1" /><path clip-path="url(#clip740)" d="M220.487 1098.77 L209.908 1109.4 L220.487 1119.97 L217.732 1122.78 L207.107 1112.15 L196.482 1122.78 L193.751 1119.97 L204.306 1109.4 L193.751 1098.77 L196.482 1095.97 L207.107 1106.6 L217.732 1095.97 L220.487 1098.77 Z" fill="#000000" fill-rule="nonzero" fill-opacity="1" /><path clip-path="url(#clip740)" d="M232.848 1120.3 L240.486 1120.3 L240.486 1093.93 L232.176 1095.6 L232.176 1091.34 L240.44 1089.67 L245.116 1089.67 L245.116 1120.3 L252.755 1120.3 L252.755 1124.23 L232.848 1124.23 L232.848 1120.3 Z" fill="#000000" fill-rule="nonzero" fill-opacity="1" /><path clip-path="url(#clip740)" d="M272.199 1092.75 Q268.588 1092.75 266.759 1096.32 Q264.954 1099.86 264.954 1106.99 Q264.954 1114.1 266.759 1117.66 Q268.588 1121.2 272.199 1121.2 Q275.833 1121.2 277.639 1117.66 Q279.468 1114.1 279.468 1106.99 Q279.468 1099.86 277.639 1096.32 Q275.833 1092.75 272.199 1092.75 M272.199 1089.05 Q278.009 1089.05 281.065 1093.66 Q284.144 1098.24 284.144 1106.99 Q284.144 1115.72 281.065 1120.32 Q278.009 1124.91 272.199 1124.91 Q266.389 1124.91 263.31 1120.32 Q260.255 1115.72 260.255 1106.99 Q260.255 1098.24 263.31 1093.66 Q266.389 1089.05 272.199 1089.05 Z" fill="#000000" fill-rule="nonzero" fill-opacity="1" /><path clip-path="url(#clip740)" d="M284.144 1083.15 L308.255 1083.15 L308.255 1086.35 L284.144 1086.35 L284.144 1083.15 Z" fill="#000000" fill-rule="nonzero" fill-opacity="1" /><path clip-path="url(#clip740)" d="M317.114 1093.63 L323.32 1093.63 L323.32 1072.2 L316.568 1073.56 L316.568 1070.1 L323.283 1068.74 L327.082 1068.74 L327.082 1093.63 L333.288 1093.63 L333.288 1096.82 L317.114 1096.82 L317.114 1093.63 Z" fill="#000000" fill-rule="nonzero" fill-opacity="1" /><path clip-path="url(#clip740)" d="M351.4 1072.05 L341.808 1087.04 L351.4 1087.04 L351.4 1072.05 M350.403 1068.74 L355.181 1068.74 L355.181 1087.04 L359.187 1087.04 L359.187 1090.2 L355.181 1090.2 L355.181 1096.82 L351.4 1096.82 L351.4 1090.2 L338.724 1090.2 L338.724 1086.54 L350.403 1068.74 Z" fill="#000000" fill-rule="nonzero" fill-opacity="1" /><path clip-path="url(#clip740)" d="M46.9921 958.62 L76.6679 958.62 L76.6679 962.555 L46.9921 962.555 L46.9921 958.62 Z" fill="#000000" fill-rule="nonzero" fill-opacity="1" /><path clip-path="url(#clip740)" d="M87.5706 971.513 L95.2095 971.513 L95.2095 945.148 L86.8993 946.814 L86.8993 942.555 L95.1632 940.888 L99.8391 940.888 L99.8391 971.513 L107.478 971.513 L107.478 975.448 L87.5706 975.448 L87.5706 971.513 Z" fill="#000000" fill-rule="nonzero" fill-opacity="1" /><path clip-path="url(#clip740)" d="M116.922 969.569 L121.807 969.569 L121.807 975.448 L116.922 975.448 L116.922 969.569 Z" fill="#000000" fill-rule="nonzero" fill-opacity="1" /><path clip-path="url(#clip740)" d="M141.992 943.967 Q138.381 943.967 136.552 947.532 Q134.746 951.074 134.746 958.203 Q134.746 965.31 136.552 968.874 Q138.381 972.416 141.992 972.416 Q145.626 972.416 147.431 968.874 Q149.26 965.31 149.26 958.203 Q149.26 951.074 147.431 947.532 Q145.626 943.967 141.992 943.967 M141.992 940.263 Q147.802 940.263 150.857 944.87 Q153.936 949.453 153.936 958.203 Q153.936 966.93 150.857 971.536 Q147.802 976.12 141.992 976.12 Q136.181 976.12 133.103 971.536 Q130.047 966.93 130.047 958.203 Q130.047 949.453 133.103 944.87 Q136.181 940.263 141.992 940.263 Z" fill="#000000" fill-rule="nonzero" fill-opacity="1" /><path clip-path="url(#clip740)" d="M172.153 943.967 Q168.542 943.967 166.714 947.532 Q164.908 951.074 164.908 958.203 Q164.908 965.31 166.714 968.874 Q168.542 972.416 172.153 972.416 Q175.788 972.416 177.593 968.874 Q179.422 965.31 179.422 958.203 Q179.422 951.074 177.593 947.532 Q175.788 943.967 172.153 943.967 M172.153 940.263 Q177.964 940.263 181.019 944.87 Q184.098 949.453 184.098 958.203 Q184.098 966.93 181.019 971.536 Q177.964 976.12 172.153 976.12 Q166.343 976.12 163.265 971.536 Q160.209 966.93 160.209 958.203 Q160.209 949.453 163.265 944.87 Q166.343 940.263 172.153 940.263 Z" fill="#000000" fill-rule="nonzero" fill-opacity="1" /><path clip-path="url(#clip740)" d="M220.487 949.986 L209.908 960.611 L220.487 971.189 L217.732 973.99 L207.107 963.365 L196.482 973.99 L193.751 971.189 L204.306 960.611 L193.751 949.986 L196.482 947.185 L207.107 957.81 L217.732 947.185 L220.487 949.986 Z" fill="#000000" fill-rule="nonzero" fill-opacity="1" /><path clip-path="url(#clip740)" d="M232.848 971.513 L240.486 971.513 L240.486 945.148 L232.176 946.814 L232.176 942.555 L240.44 940.888 L245.116 940.888 L245.116 971.513 L252.755 971.513 L252.755 975.448 L232.848 975.448 L232.848 971.513 Z" fill="#000000" fill-rule="nonzero" fill-opacity="1" /><path clip-path="url(#clip740)" d="M272.199 943.967 Q268.588 943.967 266.759 947.532 Q264.954 951.074 264.954 958.203 Q264.954 965.31 266.759 968.874 Q268.588 972.416 272.199 972.416 Q275.833 972.416 277.639 968.874 Q279.468 965.31 279.468 958.203 Q279.468 951.074 277.639 947.532 Q275.833 943.967 272.199 943.967 M272.199 940.263 Q278.009 940.263 281.065 944.87 Q284.144 949.453 284.144 958.203 Q284.144 966.93 281.065 971.536 Q278.009 976.12 272.199 976.12 Q266.389 976.12 263.31 971.536 Q260.255 966.93 260.255 958.203 Q260.255 949.453 263.31 944.87 Q266.389 940.263 272.199 940.263 Z" fill="#000000" fill-rule="nonzero" fill-opacity="1" /><path clip-path="url(#clip740)" d="M284.144 934.365 L308.255 934.365 L308.255 937.562 L284.144 937.562 L284.144 934.365 Z" fill="#000000" fill-rule="nonzero" fill-opacity="1" /><path clip-path="url(#clip740)" d="M317.114 944.841 L323.32 944.841 L323.32 923.419 L316.568 924.773 L316.568 921.312 L323.283 919.958 L327.082 919.958 L327.082 944.841 L333.288 944.841 L333.288 948.038 L317.114 948.038 L317.114 944.841 Z" fill="#000000" fill-rule="nonzero" fill-opacity="1" /><path clip-path="url(#clip740)" d="M351.4 923.268 L341.808 938.258 L351.4 938.258 L351.4 923.268 M350.403 919.958 L355.181 919.958 L355.181 938.258 L359.187 938.258 L359.187 941.418 L355.181 941.418 L355.181 948.038 L351.4 948.038 L351.4 941.418 L338.724 941.418 L338.724 937.75 L350.403 919.958 Z" fill="#000000" fill-rule="nonzero" fill-opacity="1" /><path clip-path="url(#clip740)" d="M48.1958 809.834 L77.8716 809.834 L77.8716 813.769 L48.1958 813.769 L48.1958 809.834 Z" fill="#000000" fill-rule="nonzero" fill-opacity="1" /><path clip-path="url(#clip740)" d="M88.0104 792.103 L106.367 792.103 L106.367 796.038 L92.2928 796.038 L92.2928 804.51 Q93.3113 804.163 94.3298 804.001 Q95.3483 803.816 96.3669 803.816 Q102.154 803.816 105.533 806.987 Q108.913 810.158 108.913 815.575 Q108.913 821.153 105.441 824.255 Q101.969 827.334 95.6493 827.334 Q93.4734 827.334 91.2049 826.964 Q88.9595 826.593 86.5521 825.852 L86.5521 821.153 Q88.6354 822.288 90.8576 822.843 Q93.0798 823.399 95.5567 823.399 Q99.5613 823.399 101.899 821.292 Q104.237 819.186 104.237 815.575 Q104.237 811.964 101.899 809.857 Q99.5613 807.751 95.5567 807.751 Q93.6817 807.751 91.8067 808.167 Q89.9549 808.584 88.0104 809.464 L88.0104 792.103 Z" fill="#000000" fill-rule="nonzero" fill-opacity="1" /><path clip-path="url(#clip740)" d="M118.126 820.783 L123.01 820.783 L123.01 826.663 L118.126 826.663 L118.126 820.783 Z" fill="#000000" fill-rule="nonzero" fill-opacity="1" /><path clip-path="url(#clip740)" d="M143.195 795.181 Q139.584 795.181 137.756 798.746 Q135.95 802.288 135.95 809.417 Q135.95 816.524 137.756 820.089 Q139.584 823.63 143.195 823.63 Q146.83 823.63 148.635 820.089 Q150.464 816.524 150.464 809.417 Q150.464 802.288 148.635 798.746 Q146.83 795.181 143.195 795.181 M143.195 791.478 Q149.005 791.478 152.061 796.084 Q155.14 800.667 155.14 809.417 Q155.14 818.144 152.061 822.751 Q149.005 827.334 143.195 827.334 Q137.385 827.334 134.306 822.751 Q131.251 818.144 131.251 809.417 Q131.251 800.667 134.306 796.084 Q137.385 791.478 143.195 791.478 Z" fill="#000000" fill-rule="nonzero" fill-opacity="1" /><path clip-path="url(#clip740)" d="M173.357 795.181 Q169.746 795.181 167.917 798.746 Q166.112 802.288 166.112 809.417 Q166.112 816.524 167.917 820.089 Q169.746 823.63 173.357 823.63 Q176.991 823.63 178.797 820.089 Q180.626 816.524 180.626 809.417 Q180.626 802.288 178.797 798.746 Q176.991 795.181 173.357 795.181 M173.357 791.478 Q179.167 791.478 182.223 796.084 Q185.302 800.667 185.302 809.417 Q185.302 818.144 182.223 822.751 Q179.167 827.334 173.357 827.334 Q167.547 827.334 164.468 822.751 Q161.413 818.144 161.413 809.417 Q161.413 800.667 164.468 796.084 Q167.547 791.478 173.357 791.478 Z" fill="#000000" fill-rule="nonzero" fill-opacity="1" /><path clip-path="url(#clip740)" d="M221.69 801.2 L211.112 811.825 L221.69 822.403 L218.936 825.204 L208.311 814.579 L197.686 825.204 L194.954 822.403 L205.51 811.825 L194.954 801.2 L197.686 798.399 L208.311 809.024 L218.936 798.399 L221.69 801.2 Z" fill="#000000" fill-rule="nonzero" fill-opacity="1" /><path clip-path="url(#clip740)" d="M234.051 822.727 L241.69 822.727 L241.69 796.362 L233.38 798.029 L233.38 793.769 L241.644 792.103 L246.32 792.103 L246.32 822.727 L253.959 822.727 L253.959 826.663 L234.051 826.663 L234.051 822.727 Z" fill="#000000" fill-rule="nonzero" fill-opacity="1" /><path clip-path="url(#clip740)" d="M273.403 795.181 Q269.792 795.181 267.963 798.746 Q266.158 802.288 266.158 809.417 Q266.158 816.524 267.963 820.089 Q269.792 823.63 273.403 823.63 Q277.037 823.63 278.843 820.089 Q280.671 816.524 280.671 809.417 Q280.671 802.288 278.843 798.746 Q277.037 795.181 273.403 795.181 M273.403 791.478 Q279.213 791.478 282.269 796.084 Q285.347 800.667 285.347 809.417 Q285.347 818.144 282.269 822.751 Q279.213 827.334 273.403 827.334 Q267.593 827.334 264.514 822.751 Q261.459 818.144 261.459 809.417 Q261.459 800.667 264.514 796.084 Q267.593 791.478 273.403 791.478 Z" fill="#000000" fill-rule="nonzero" fill-opacity="1" /><path clip-path="url(#clip740)" d="M285.347 785.579 L309.459 785.579 L309.459 788.776 L285.347 788.776 L285.347 785.579 Z" fill="#000000" fill-rule="nonzero" fill-opacity="1" /><path clip-path="url(#clip740)" d="M318.317 796.055 L324.524 796.055 L324.524 774.633 L317.772 775.987 L317.772 772.526 L324.486 771.172 L328.285 771.172 L328.285 796.055 L334.492 796.055 L334.492 799.252 L318.317 799.252 L318.317 796.055 Z" fill="#000000" fill-rule="nonzero" fill-opacity="1" /><path clip-path="url(#clip740)" d="M342.203 771.172 L357.118 771.172 L357.118 774.37 L345.683 774.37 L345.683 781.253 Q346.51 780.971 347.338 780.839 Q348.165 780.689 348.993 780.689 Q353.695 780.689 356.441 783.266 Q359.187 785.842 359.187 790.243 Q359.187 794.776 356.365 797.296 Q353.544 799.798 348.41 799.798 Q346.642 799.798 344.799 799.497 Q342.974 799.196 341.018 798.594 L341.018 794.776 Q342.711 795.698 344.517 796.149 Q346.322 796.6 348.335 796.6 Q351.588 796.6 353.488 794.889 Q355.387 793.177 355.387 790.243 Q355.387 787.309 353.488 785.598 Q351.588 783.886 348.335 783.886 Q346.811 783.886 345.288 784.225 Q343.783 784.563 342.203 785.278 L342.203 771.172 Z" fill="#000000" fill-rule="nonzero" fill-opacity="1" /><path clip-path="url(#clip740)" d="M347.242 639.948 Q343.631 639.948 341.802 643.513 Q339.997 647.054 339.997 654.184 Q339.997 661.29 341.802 664.855 Q343.631 668.397 347.242 668.397 Q350.876 668.397 352.682 664.855 Q354.511 661.29 354.511 654.184 Q354.511 647.054 352.682 643.513 Q350.876 639.948 347.242 639.948 M347.242 636.244 Q353.052 636.244 356.108 640.851 Q359.187 645.434 359.187 654.184 Q359.187 662.911 356.108 667.517 Q353.052 672.101 347.242 672.101 Q341.432 672.101 338.353 667.517 Q335.298 662.911 335.298 654.184 Q335.298 645.434 338.353 640.851 Q341.432 636.244 347.242 636.244 Z" fill="#000000" fill-rule="nonzero" fill-opacity="1" /><path clip-path="url(#clip740)" d="M88.0104 494.531 L106.367 494.531 L106.367 498.466 L92.2928 498.466 L92.2928 506.939 Q93.3113 506.591 94.3298 506.429 Q95.3483 506.244 96.3669 506.244 Q102.154 506.244 105.533 509.415 Q108.913 512.587 108.913 518.003 Q108.913 523.582 105.441 526.684 Q101.969 529.762 95.6493 529.762 Q93.4734 529.762 91.2049 529.392 Q88.9595 529.022 86.5521 528.281 L86.5521 523.582 Q88.6354 524.716 90.8576 525.272 Q93.0798 525.827 95.5567 525.827 Q99.5613 525.827 101.899 523.721 Q104.237 521.614 104.237 518.003 Q104.237 514.392 101.899 512.286 Q99.5613 510.179 95.5567 510.179 Q93.6817 510.179 91.8067 510.596 Q89.9549 511.013 88.0104 511.892 L88.0104 494.531 Z" fill="#000000" fill-rule="nonzero" fill-opacity="1" /><path clip-path="url(#clip740)" d="M118.126 523.212 L123.01 523.212 L123.01 529.091 L118.126 529.091 L118.126 523.212 Z" fill="#000000" fill-rule="nonzero" fill-opacity="1" /><path clip-path="url(#clip740)" d="M143.195 497.61 Q139.584 497.61 137.756 501.175 Q135.95 504.716 135.95 511.846 Q135.95 518.952 137.756 522.517 Q139.584 526.059 143.195 526.059 Q146.83 526.059 148.635 522.517 Q150.464 518.952 150.464 511.846 Q150.464 504.716 148.635 501.175 Q146.83 497.61 143.195 497.61 M143.195 493.906 Q149.005 493.906 152.061 498.513 Q155.14 503.096 155.14 511.846 Q155.14 520.573 152.061 525.179 Q149.005 529.762 143.195 529.762 Q137.385 529.762 134.306 525.179 Q131.251 520.573 131.251 511.846 Q131.251 503.096 134.306 498.513 Q137.385 493.906 143.195 493.906 Z" fill="#000000" fill-rule="nonzero" fill-opacity="1" /><path clip-path="url(#clip740)" d="M173.357 497.61 Q169.746 497.61 167.917 501.175 Q166.112 504.716 166.112 511.846 Q166.112 518.952 167.917 522.517 Q169.746 526.059 173.357 526.059 Q176.991 526.059 178.797 522.517 Q180.626 518.952 180.626 511.846 Q180.626 504.716 178.797 501.175 Q176.991 497.61 173.357 497.61 M173.357 493.906 Q179.167 493.906 182.223 498.513 Q185.302 503.096 185.302 511.846 Q185.302 520.573 182.223 525.179 Q179.167 529.762 173.357 529.762 Q167.547 529.762 164.468 525.179 Q161.413 520.573 161.413 511.846 Q161.413 503.096 164.468 498.513 Q167.547 493.906 173.357 493.906 Z" fill="#000000" fill-rule="nonzero" fill-opacity="1" /><path clip-path="url(#clip740)" d="M221.69 503.628 L211.112 514.253 L221.69 524.832 L218.936 527.633 L208.311 517.008 L197.686 527.633 L194.954 524.832 L205.51 514.253 L194.954 503.628 L197.686 500.827 L208.311 511.452 L218.936 500.827 L221.69 503.628 Z" fill="#000000" fill-rule="nonzero" fill-opacity="1" /><path clip-path="url(#clip740)" d="M234.051 525.156 L241.69 525.156 L241.69 498.79 L233.38 500.457 L233.38 496.198 L241.644 494.531 L246.32 494.531 L246.32 525.156 L253.959 525.156 L253.959 529.091 L234.051 529.091 L234.051 525.156 Z" fill="#000000" fill-rule="nonzero" fill-opacity="1" /><path clip-path="url(#clip740)" d="M273.403 497.61 Q269.792 497.61 267.963 501.175 Q266.158 504.716 266.158 511.846 Q266.158 518.952 267.963 522.517 Q269.792 526.059 273.403 526.059 Q277.037 526.059 278.843 522.517 Q280.671 518.952 280.671 511.846 Q280.671 504.716 278.843 501.175 Q277.037 497.61 273.403 497.61 M273.403 493.906 Q279.213 493.906 282.269 498.513 Q285.347 503.096 285.347 511.846 Q285.347 520.573 282.269 525.179 Q279.213 529.762 273.403 529.762 Q267.593 529.762 264.514 525.179 Q261.459 520.573 261.459 511.846 Q261.459 503.096 264.514 498.513 Q267.593 493.906 273.403 493.906 Z" fill="#000000" fill-rule="nonzero" fill-opacity="1" /><path clip-path="url(#clip740)" d="M285.347 488.008 L309.459 488.008 L309.459 491.205 L285.347 491.205 L285.347 488.008 Z" fill="#000000" fill-rule="nonzero" fill-opacity="1" /><path clip-path="url(#clip740)" d="M318.317 498.483 L324.524 498.483 L324.524 477.061 L317.772 478.416 L317.772 474.955 L324.486 473.601 L328.285 473.601 L328.285 498.483 L334.492 498.483 L334.492 501.681 L318.317 501.681 L318.317 498.483 Z" fill="#000000" fill-rule="nonzero" fill-opacity="1" /><path clip-path="url(#clip740)" d="M342.203 473.601 L357.118 473.601 L357.118 476.798 L345.683 476.798 L345.683 483.682 Q346.51 483.4 347.338 483.268 Q348.165 483.118 348.993 483.118 Q353.695 483.118 356.441 485.694 Q359.187 488.271 359.187 492.672 Q359.187 497.205 356.365 499.725 Q353.544 502.226 348.41 502.226 Q346.642 502.226 344.799 501.925 Q342.974 501.624 341.018 501.022 L341.018 497.205 Q342.711 498.126 344.517 498.577 Q346.322 499.029 348.335 499.029 Q351.588 499.029 353.488 497.317 Q355.387 495.606 355.387 492.672 Q355.387 489.738 353.488 488.026 Q351.588 486.315 348.335 486.315 Q346.811 486.315 345.288 486.653 Q343.783 486.992 342.203 487.707 L342.203 473.601 Z" fill="#000000" fill-rule="nonzero" fill-opacity="1" /><path clip-path="url(#clip740)" d="M87.5706 376.37 L95.2095 376.37 L95.2095 350.005 L86.8993 351.671 L86.8993 347.412 L95.1632 345.745 L99.8391 345.745 L99.8391 376.37 L107.478 376.37 L107.478 380.305 L87.5706 380.305 L87.5706 376.37 Z" fill="#000000" fill-rule="nonzero" fill-opacity="1" /><path clip-path="url(#clip740)" d="M116.922 374.426 L121.807 374.426 L121.807 380.305 L116.922 380.305 L116.922 374.426 Z" fill="#000000" fill-rule="nonzero" fill-opacity="1" /><path clip-path="url(#clip740)" d="M141.992 348.824 Q138.381 348.824 136.552 352.389 Q134.746 355.931 134.746 363.06 Q134.746 370.167 136.552 373.731 Q138.381 377.273 141.992 377.273 Q145.626 377.273 147.431 373.731 Q149.26 370.167 149.26 363.06 Q149.26 355.931 147.431 352.389 Q145.626 348.824 141.992 348.824 M141.992 345.12 Q147.802 345.12 150.857 349.727 Q153.936 354.31 153.936 363.06 Q153.936 371.787 150.857 376.393 Q147.802 380.977 141.992 380.977 Q136.181 380.977 133.103 376.393 Q130.047 371.787 130.047 363.06 Q130.047 354.31 133.103 349.727 Q136.181 345.12 141.992 345.12 Z" fill="#000000" fill-rule="nonzero" fill-opacity="1" /><path clip-path="url(#clip740)" d="M172.153 348.824 Q168.542 348.824 166.714 352.389 Q164.908 355.931 164.908 363.06 Q164.908 370.167 166.714 373.731 Q168.542 377.273 172.153 377.273 Q175.788 377.273 177.593 373.731 Q179.422 370.167 179.422 363.06 Q179.422 355.931 177.593 352.389 Q175.788 348.824 172.153 348.824 M172.153 345.12 Q177.964 345.12 181.019 349.727 Q184.098 354.31 184.098 363.06 Q184.098 371.787 181.019 376.393 Q177.964 380.977 172.153 380.977 Q166.343 380.977 163.265 376.393 Q160.209 371.787 160.209 363.06 Q160.209 354.31 163.265 349.727 Q166.343 345.12 172.153 345.12 Z" fill="#000000" fill-rule="nonzero" fill-opacity="1" /><path clip-path="url(#clip740)" d="M220.487 354.843 L209.908 365.468 L220.487 376.046 L217.732 378.847 L207.107 368.222 L196.482 378.847 L193.751 376.046 L204.306 365.468 L193.751 354.843 L196.482 352.042 L207.107 362.667 L217.732 352.042 L220.487 354.843 Z" fill="#000000" fill-rule="nonzero" fill-opacity="1" /><path clip-path="url(#clip740)" d="M232.848 376.37 L240.486 376.37 L240.486 350.005 L232.176 351.671 L232.176 347.412 L240.44 345.745 L245.116 345.745 L245.116 376.37 L252.755 376.37 L252.755 380.305 L232.848 380.305 L232.848 376.37 Z" fill="#000000" fill-rule="nonzero" fill-opacity="1" /><path clip-path="url(#clip740)" d="M272.199 348.824 Q268.588 348.824 266.759 352.389 Q264.954 355.931 264.954 363.06 Q264.954 370.167 266.759 373.731 Q268.588 377.273 272.199 377.273 Q275.833 377.273 277.639 373.731 Q279.468 370.167 279.468 363.06 Q279.468 355.931 277.639 352.389 Q275.833 348.824 272.199 348.824 M272.199 345.12 Q278.009 345.12 281.065 349.727 Q284.144 354.31 284.144 363.06 Q284.144 371.787 281.065 376.393 Q278.009 380.977 272.199 380.977 Q266.389 380.977 263.31 376.393 Q260.255 371.787 260.255 363.06 Q260.255 354.31 263.31 349.727 Q266.389 345.12 272.199 345.12 Z" fill="#000000" fill-rule="nonzero" fill-opacity="1" /><path clip-path="url(#clip740)" d="M284.144 339.222 L308.255 339.222 L308.255 342.419 L284.144 342.419 L284.144 339.222 Z" fill="#000000" fill-rule="nonzero" fill-opacity="1" /><path clip-path="url(#clip740)" d="M317.114 349.698 L323.32 349.698 L323.32 328.276 L316.568 329.63 L316.568 326.169 L323.283 324.815 L327.082 324.815 L327.082 349.698 L333.288 349.698 L333.288 352.895 L317.114 352.895 L317.114 349.698 Z" fill="#000000" fill-rule="nonzero" fill-opacity="1" /><path clip-path="url(#clip740)" d="M351.4 328.125 L341.808 343.115 L351.4 343.115 L351.4 328.125 M350.403 324.815 L355.181 324.815 L355.181 343.115 L359.187 343.115 L359.187 346.275 L355.181 346.275 L355.181 352.895 L351.4 352.895 L351.4 346.275 L338.724 346.275 L338.724 342.607 L350.403 324.815 Z" fill="#000000" fill-rule="nonzero" fill-opacity="1" /><path clip-path="url(#clip740)" d="M87.5706 227.585 L95.2095 227.585 L95.2095 201.219 L86.8993 202.886 L86.8993 198.626 L95.1632 196.96 L99.8391 196.96 L99.8391 227.585 L107.478 227.585 L107.478 231.52 L87.5706 231.52 L87.5706 227.585 Z" fill="#000000" fill-rule="nonzero" fill-opacity="1" /><path clip-path="url(#clip740)" d="M116.922 225.64 L121.807 225.64 L121.807 231.52 L116.922 231.52 L116.922 225.64 Z" fill="#000000" fill-rule="nonzero" fill-opacity="1" /><path clip-path="url(#clip740)" d="M132.038 196.96 L150.394 196.96 L150.394 200.895 L136.32 200.895 L136.32 209.367 Q137.339 209.02 138.357 208.858 Q139.376 208.673 140.394 208.673 Q146.181 208.673 149.561 211.844 Q152.941 215.015 152.941 220.432 Q152.941 226.01 149.468 229.112 Q145.996 232.191 139.677 232.191 Q137.501 232.191 135.232 231.821 Q132.987 231.45 130.58 230.709 L130.58 226.01 Q132.663 227.145 134.885 227.7 Q137.107 228.256 139.584 228.256 Q143.589 228.256 145.927 226.149 Q148.265 224.043 148.265 220.432 Q148.265 216.821 145.927 214.714 Q143.589 212.608 139.584 212.608 Q137.709 212.608 135.834 213.024 Q133.982 213.441 132.038 214.321 L132.038 196.96 Z" fill="#000000" fill-rule="nonzero" fill-opacity="1" /><path clip-path="url(#clip740)" d="M172.153 200.038 Q168.542 200.038 166.714 203.603 Q164.908 207.145 164.908 214.274 Q164.908 221.381 166.714 224.946 Q168.542 228.487 172.153 228.487 Q175.788 228.487 177.593 224.946 Q179.422 221.381 179.422 214.274 Q179.422 207.145 177.593 203.603 Q175.788 200.038 172.153 200.038 M172.153 196.335 Q177.964 196.335 181.019 200.941 Q184.098 205.524 184.098 214.274 Q184.098 223.001 181.019 227.608 Q177.964 232.191 172.153 232.191 Q166.343 232.191 163.265 227.608 Q160.209 223.001 160.209 214.274 Q160.209 205.524 163.265 200.941 Q166.343 196.335 172.153 196.335 Z" fill="#000000" fill-rule="nonzero" fill-opacity="1" /><path clip-path="url(#clip740)" d="M220.487 206.057 L209.908 216.682 L220.487 227.26 L217.732 230.061 L207.107 219.436 L196.482 230.061 L193.751 227.26 L204.306 216.682 L193.751 206.057 L196.482 203.256 L207.107 213.881 L217.732 203.256 L220.487 206.057 Z" fill="#000000" fill-rule="nonzero" fill-opacity="1" /><path clip-path="url(#clip740)" d="M232.848 227.585 L240.486 227.585 L240.486 201.219 L232.176 202.886 L232.176 198.626 L240.44 196.96 L245.116 196.96 L245.116 227.585 L252.755 227.585 L252.755 231.52 L232.848 231.52 L232.848 227.585 Z" fill="#000000" fill-rule="nonzero" fill-opacity="1" /><path clip-path="url(#clip740)" d="M272.199 200.038 Q268.588 200.038 266.759 203.603 Q264.954 207.145 264.954 214.274 Q264.954 221.381 266.759 224.946 Q268.588 228.487 272.199 228.487 Q275.833 228.487 277.639 224.946 Q279.468 221.381 279.468 214.274 Q279.468 207.145 277.639 203.603 Q275.833 200.038 272.199 200.038 M272.199 196.335 Q278.009 196.335 281.065 200.941 Q284.144 205.524 284.144 214.274 Q284.144 223.001 281.065 227.608 Q278.009 232.191 272.199 232.191 Q266.389 232.191 263.31 227.608 Q260.255 223.001 260.255 214.274 Q260.255 205.524 263.31 200.941 Q266.389 196.335 272.199 196.335 Z" fill="#000000" fill-rule="nonzero" fill-opacity="1" /><path clip-path="url(#clip740)" d="M284.144 190.436 L308.255 190.436 L308.255 193.633 L284.144 193.633 L284.144 190.436 Z" fill="#000000" fill-rule="nonzero" fill-opacity="1" /><path clip-path="url(#clip740)" d="M317.114 200.912 L323.32 200.912 L323.32 179.49 L316.568 180.844 L316.568 177.383 L323.283 176.029 L327.082 176.029 L327.082 200.912 L333.288 200.912 L333.288 204.109 L317.114 204.109 L317.114 200.912 Z" fill="#000000" fill-rule="nonzero" fill-opacity="1" /><path clip-path="url(#clip740)" d="M351.4 179.339 L341.808 194.329 L351.4 194.329 L351.4 179.339 M350.403 176.029 L355.181 176.029 L355.181 194.329 L359.187 194.329 L359.187 197.489 L355.181 197.489 L355.181 204.109 L351.4 204.109 L351.4 197.489 L338.724 197.489 L338.724 193.821 L350.403 176.029 Z" fill="#000000" fill-rule="nonzero" fill-opacity="1" /><path clip-path="url(#clip740)" d="M1723.89 48.0275 L1723.89 51.6733 L1689.62 51.6733 Q1690.1 59.3701 1694.23 63.421 Q1698.41 67.4314 1705.82 67.4314 Q1710.11 67.4314 1714.12 66.3781 Q1718.17 65.3249 1722.14 63.2184 L1722.14 70.267 Q1718.13 71.9684 1713.92 72.8596 Q1709.71 73.7508 1705.37 73.7508 Q1694.52 73.7508 1688.16 67.4314 Q1681.84 61.1119 1681.84 50.3365 Q1681.84 39.1965 1687.83 32.6746 Q1693.87 26.1121 1704.08 26.1121 Q1713.23 26.1121 1718.54 32.0264 Q1723.89 37.9003 1723.89 48.0275 M1716.43 45.84 Q1716.35 39.7232 1712.99 36.0774 Q1709.67 32.4315 1704.16 32.4315 Q1697.92 32.4315 1694.15 35.9558 Q1690.43 39.4801 1689.86 45.8805 L1716.43 45.84 Z" fill="#000000" fill-rule="nonzero" fill-opacity="1" /><path clip-path="url(#clip740)" d="M1762.41 34.1734 Q1761.15 33.4443 1759.66 33.1202 Q1758.2 32.7556 1756.42 32.7556 Q1750.1 32.7556 1746.69 36.8875 Q1743.33 40.9789 1743.33 48.6757 L1743.33 72.576 L1735.84 72.576 L1735.84 27.2059 L1743.33 27.2059 L1743.33 34.2544 Q1745.68 30.1225 1749.45 28.1376 Q1753.22 26.1121 1758.6 26.1121 Q1759.37 26.1121 1760.3 26.2337 Q1761.24 26.3147 1762.37 26.5172 L1762.41 34.1734 Z" fill="#000000" fill-rule="nonzero" fill-opacity="1" /><path clip-path="url(#clip740)" d="M1795.06 34.1734 Q1793.81 33.4443 1792.31 33.1202 Q1790.85 32.7556 1789.07 32.7556 Q1782.75 32.7556 1779.34 36.8875 Q1775.98 40.9789 1775.98 48.6757 L1775.98 72.576 L1768.49 72.576 L1768.49 27.2059 L1775.98 27.2059 L1775.98 34.2544 Q1778.33 30.1225 1782.1 28.1376 Q1785.87 26.1121 1791.25 26.1121 Q1792.02 26.1121 1792.95 26.2337 Q1793.89 26.3147 1795.02 26.5172 L1795.06 34.1734 Z" fill="#000000" fill-rule="nonzero" fill-opacity="1" /><path clip-path="url(#clip740)" d="M1818.64 32.4315 Q1812.64 32.4315 1809.16 37.1306 Q1805.67 41.7891 1805.67 49.9314 Q1805.67 58.0738 1809.12 62.7728 Q1812.6 67.4314 1818.64 67.4314 Q1824.59 67.4314 1828.08 62.7323 Q1831.56 58.0333 1831.56 49.9314 Q1831.56 41.8701 1828.08 37.1711 Q1824.59 32.4315 1818.64 32.4315 M1818.64 26.1121 Q1828.36 26.1121 1833.91 32.4315 Q1839.46 38.7509 1839.46 49.9314 Q1839.46 61.0714 1833.91 67.4314 Q1828.36 73.7508 1818.64 73.7508 Q1808.87 73.7508 1803.32 67.4314 Q1797.82 61.0714 1797.82 49.9314 Q1797.82 38.7509 1803.32 32.4315 Q1808.87 26.1121 1818.64 26.1121 Z" fill="#000000" fill-rule="nonzero" fill-opacity="1" /><path clip-path="url(#clip740)" d="M1878.1 34.1734 Q1876.85 33.4443 1875.35 33.1202 Q1873.89 32.7556 1872.11 32.7556 Q1865.79 32.7556 1862.39 36.8875 Q1859.02 40.9789 1859.02 48.6757 L1859.02 72.576 L1851.53 72.576 L1851.53 27.2059 L1859.02 27.2059 L1859.02 34.2544 Q1861.37 30.1225 1865.14 28.1376 Q1868.91 26.1121 1874.3 26.1121 Q1875.07 26.1121 1876 26.2337 Q1876.93 26.3147 1878.06 26.5172 L1878.1 34.1734 Z" fill="#000000" fill-rule="nonzero" fill-opacity="1" /><polyline clip-path="url(#clip741)" style="stroke:#009af9; stroke-linecap:round; stroke-linejoin:round; stroke-width:4; stroke-opacity:1; fill:none" points="484.891,654.149 500.401,654.149 515.911,654.149 531.421,654.149 546.931,654.149 562.441,654.149 577.951,654.149 593.461,654.149 608.971,654.149 624.481,601.29 639.991,654.149 655.501,442.712 671.011,442.712 686.521,654.149 702.031,654.149 717.54,707.009 733.05,654.149 748.56,654.149 764.07,654.149 779.58,654.149 795.09,654.149 810.6,680.579 826.11,654.149 841.62,654.149 857.13,654.149 872.64,654.149 888.15,442.712 903.66,654.149 919.17,654.149 934.68,442.712 950.19,654.149 965.7,654.149 981.209,548.431 996.719,654.149 1012.23,654.149 1027.74,654.149 1043.25,1077.02 1058.76,680.579 1074.27,231.275 1089.78,865.587 1105.29,125.556 1120.8,654.149 1136.31,654.149 1151.82,654.149 1167.33,654.149 1182.84,654.149 1198.35,654.149 1213.86,654.149 1229.37,654.149 1244.88,654.149 1260.39,442.712 1275.9,654.149 1291.41,654.149 1306.92,442.712 1322.43,654.149 1337.94,865.587 1353.45,654.149 1368.96,654.149 1384.47,654.149 1399.98,654.149 1415.49,1077.02 1431,654.149 1446.51,231.275 1462.02,508.786 1477.53,231.275 1493.04,654.149 1508.55,654.149 1524.06,654.149 1539.57,654.149 1555.08,654.149 1570.59,865.587 1586.1,654.149 1601.61,654.149 1617.12,442.712 1632.63,442.712 1648.14,654.149 1663.65,654.149 1679.16,442.712 1694.67,654.149 1710.18,796.209 1725.69,865.587 1741.2,574.86 1756.71,707.009 1772.22,654.149 1787.73,971.305 1803.24,654.149 1818.75,442.712 1834.26,944.876 1849.77,442.712 1865.28,654.149 1880.79,548.431 1896.3,654.149 1911.81,231.275 1927.32,654.149 1942.83,865.587 1958.34,442.712 1973.85,865.587 1989.36,442.712 2004.87,442.712 2020.38,654.149 2035.89,654.149 2051.4,442.712 2066.91,654.149 2082.42,726.831 2097.93,654.149 2113.43,654.149 2128.94,759.868 2144.45,654.149 2159.96,971.305 2175.47,654.149 2190.98,231.275 2206.49,548.431 2222,654.149 2237.51,654.149 2253.02,759.868 2268.53,654.149 2284.04,231.275 2299.55,654.149 2315.06,1077.02 2330.57,654.149 2346.08,865.587 2361.59,654.149 2377.1,231.275 2392.61,865.587 2408.12,654.149 2423.63,231.275 2439.14,654.149 2454.65,726.831 2470.16,654.149 2485.67,759.868 2501.18,442.712 2516.69,654.149 2532.2,971.305 2547.71,654.149 2563.22,231.275 2578.73,812.727 2594.24,654.149 2609.75,654.149 2625.26,733.438 2640.77,654.149 2656.28,231.275 2671.79,654.149 2687.3,1077.02 2702.81,654.149 2718.32,865.587 2733.83,442.712 2749.34,442.712 2764.85,865.587 2780.36,654.149 2795.87,654.149 2811.38,654.149 2826.89,1007.65 2842.4,865.587 2857.91,654.149 2873.42,654.149 2888.93,654.149 2904.44,1077.02 2919.95,654.149 2935.46,231.275 2950.97,812.727 2966.48,654.149 2981.99,654.149 2997.5,654.149 3013.01,654.149 3028.52,231.275 3044.03,654.149 3059.54,1077.02 3075.05,654.149 "/>
<path clip-path="url(#clip740)" d="M498.706 234.311 L825.693 234.311 L825.693 130.631 L498.706 130.631  Z" fill="#ffffff" fill-rule="evenodd" fill-opacity="1"/>
<polyline clip-path="url(#clip740)" style="stroke:#000000; stroke-linecap:round; stroke-linejoin:round; stroke-width:4; stroke-opacity:1; fill:none" points="498.706,234.311 825.693,234.311 825.693,130.631 498.706,130.631 498.706,234.311 "/>
<polyline clip-path="url(#clip740)" style="stroke:#009af9; stroke-linecap:round; stroke-linejoin:round; stroke-width:4; stroke-opacity:1; fill:none" points="529.212,182.471 712.25,182.471 "/>
<path clip-path="url(#clip740)" d="M756.599 202.158 Q754.793 206.788 753.08 208.2 Q751.367 209.612 748.497 209.612 L745.094 209.612 L745.094 206.047 L747.594 206.047 Q749.353 206.047 750.326 205.214 Q751.298 204.38 752.478 201.278 L753.242 199.334 L742.756 173.825 L747.27 173.825 L755.372 194.103 L763.474 173.825 L767.988 173.825 L756.599 202.158 Z" fill="#000000" fill-rule="nonzero" fill-opacity="1" /><path clip-path="url(#clip740)" d="M775.279 195.815 L782.918 195.815 L782.918 169.45 L774.608 171.117 L774.608 166.857 L782.872 165.191 L787.548 165.191 L787.548 195.815 L795.186 195.815 L795.186 199.751 L775.279 199.751 L775.279 195.815 Z" fill="#000000" fill-rule="nonzero" fill-opacity="1" /></svg>
