<?xml version="1.0" encoding="utf-8"?>
<svg xmlns="http://www.w3.org/2000/svg" xmlns:xlink="http://www.w3.org/1999/xlink" width="600" height="400" viewBox="0 0 2400 1600">
<defs>
  <clipPath id="clip290">
    <rect x="0" y="0" width="2400" height="1600"/>
  </clipPath>
</defs>
<path clip-path="url(#clip290)" d="M0 1600 L2400 1600 L2400 0 L0 0  Z" fill="#ffffff" fill-rule="evenodd" fill-opacity="1"/>
<defs>
  <clipPath id="clip291">
    <rect x="232" y="47" width="2121" height="1377"/>
  </clipPath>
</defs>
<path clip-path="url(#clip290)" d="M232.389 1423.18 L2352.76 1423.18 L2352.76 47.2441 L232.389 47.2441  Z" fill="#ffffff" fill-rule="evenodd" fill-opacity="1"/>
<polyline clip-path="url(#clip291)" style="stroke:#000000; stroke-linecap:round; stroke-linejoin:round; stroke-width:2; stroke-opacity:0.1; fill:none" points="535.299,1423.18 535.299,47.2441 "/>
<polyline clip-path="url(#clip291)" style="stroke:#000000; stroke-linecap:round; stroke-linejoin:round; stroke-width:2; stroke-opacity:0.1; fill:none" points="913.936,1423.18 913.936,47.2441 "/>
<polyline clip-path="url(#clip291)" style="stroke:#000000; stroke-linecap:round; stroke-linejoin:round; stroke-width:2; stroke-opacity:0.1; fill:none" points="1292.57,1423.18 1292.57,47.2441 "/>
<polyline clip-path="url(#clip291)" style="stroke:#000000; stroke-linecap:round; stroke-linejoin:round; stroke-width:2; stroke-opacity:0.1; fill:none" points="1671.21,1423.18 1671.21,47.2441 "/>
<polyline clip-path="url(#clip291)" style="stroke:#000000; stroke-linecap:round; stroke-linejoin:round; stroke-width:2; stroke-opacity:0.1; fill:none" points="2049.85,1423.18 2049.85,47.2441 "/>
<polyline clip-path="url(#clip291)" style="stroke:#000000; stroke-linecap:round; stroke-linejoin:round; stroke-width:2; stroke-opacity:0.1; fill:none" points="232.389,1410.65 2352.76,1410.65 "/>
<polyline clip-path="url(#clip291)" style="stroke:#000000; stroke-linecap:round; stroke-linejoin:round; stroke-width:2; stroke-opacity:0.1; fill:none" points="232.389,1079.53 2352.76,1079.53 "/>
<polyline clip-path="url(#clip291)" style="stroke:#000000; stroke-linecap:round; stroke-linejoin:round; stroke-width:2; stroke-opacity:0.1; fill:none" points="232.389,748.418 2352.76,748.418 "/>
<polyline clip-path="url(#clip291)" style="stroke:#000000; stroke-linecap:round; stroke-linejoin:round; stroke-width:2; stroke-opacity:0.1; fill:none" points="232.389,417.302 2352.76,417.302 "/>
<polyline clip-path="url(#clip291)" style="stroke:#000000; stroke-linecap:round; stroke-linejoin:round; stroke-width:2; stroke-opacity:0.1; fill:none" points="232.389,86.1857 2352.76,86.1857 "/>
<polyline clip-path="url(#clip290)" style="stroke:#000000; stroke-linecap:round; stroke-linejoin:round; stroke-width:4; stroke-opacity:1; fill:none" points="232.389,1423.18 2352.76,1423.18 "/>
<polyline clip-path="url(#clip290)" style="stroke:#000000; stroke-linecap:round; stroke-linejoin:round; stroke-width:4; stroke-opacity:1; fill:none" points="535.299,1423.18 535.299,1404.28 "/>
<polyline clip-path="url(#clip290)" style="stroke:#000000; stroke-linecap:round; stroke-linejoin:round; stroke-width:4; stroke-opacity:1; fill:none" points="913.936,1423.18 913.936,1404.28 "/>
<polyline clip-path="url(#clip290)" style="stroke:#000000; stroke-linecap:round; stroke-linejoin:round; stroke-width:4; stroke-opacity:1; fill:none" points="1292.57,1423.18 1292.57,1404.28 "/>
<polyline clip-path="url(#clip290)" style="stroke:#000000; stroke-linecap:round; stroke-linejoin:round; stroke-width:4; stroke-opacity:1; fill:none" points="1671.21,1423.18 1671.21,1404.28 "/>
<polyline clip-path="url(#clip290)" style="stroke:#000000; stroke-linecap:round; stroke-linejoin:round; stroke-width:4; stroke-opacity:1; fill:none" points="2049.85,1423.18 2049.85,1404.28 "/>
<path clip-path="url(#clip290)" d="M509.061 1466.95 Q512.417 1467.66 514.292 1469.93 Q516.19 1472.2 516.19 1475.53 Q516.19 1480.65 512.672 1483.45 Q509.153 1486.25 502.672 1486.25 Q500.496 1486.25 498.181 1485.81 Q495.889 1485.39 493.436 1484.54 L493.436 1480.02 Q495.38 1481.16 497.695 1481.74 Q500.01 1482.32 502.533 1482.32 Q506.931 1482.32 509.223 1480.58 Q511.537 1478.84 511.537 1475.53 Q511.537 1472.48 509.385 1470.77 Q507.255 1469.03 503.436 1469.03 L499.408 1469.03 L499.408 1465.19 L503.621 1465.19 Q507.07 1465.19 508.899 1463.82 Q510.727 1462.43 510.727 1459.84 Q510.727 1457.18 508.829 1455.77 Q506.954 1454.33 503.436 1454.33 Q501.514 1454.33 499.315 1454.75 Q497.116 1455.16 494.477 1456.04 L494.477 1451.88 Q497.139 1451.14 499.454 1450.77 Q501.792 1450.39 503.852 1450.39 Q509.176 1450.39 512.278 1452.83 Q515.38 1455.23 515.38 1459.35 Q515.38 1462.22 513.736 1464.21 Q512.093 1466.18 509.061 1466.95 Z" fill="#000000" fill-rule="nonzero" fill-opacity="1" /><path clip-path="url(#clip290)" d="M535.635 1466.44 Q532.486 1466.44 530.635 1468.59 Q528.806 1470.74 528.806 1474.49 Q528.806 1478.22 530.635 1480.39 Q532.486 1482.55 535.635 1482.55 Q538.783 1482.55 540.611 1480.39 Q542.463 1478.22 542.463 1474.49 Q542.463 1470.74 540.611 1468.59 Q538.783 1466.44 535.635 1466.44 M544.917 1451.78 L544.917 1456.04 Q543.158 1455.21 541.352 1454.77 Q539.57 1454.33 537.81 1454.33 Q533.181 1454.33 530.727 1457.45 Q528.297 1460.58 527.949 1466.9 Q529.315 1464.89 531.375 1463.82 Q533.435 1462.73 535.912 1462.73 Q541.121 1462.73 544.13 1465.9 Q547.162 1469.05 547.162 1474.49 Q547.162 1479.82 544.014 1483.03 Q540.866 1486.25 535.635 1486.25 Q529.639 1486.25 526.468 1481.67 Q523.297 1477.06 523.297 1468.33 Q523.297 1460.14 527.185 1455.28 Q531.074 1450.39 537.625 1450.39 Q539.384 1450.39 541.167 1450.74 Q542.972 1451.09 544.917 1451.78 Z" fill="#000000" fill-rule="nonzero" fill-opacity="1" /><path clip-path="url(#clip290)" d="M565.218 1454.1 Q561.607 1454.1 559.778 1457.66 Q557.972 1461.2 557.972 1468.33 Q557.972 1475.44 559.778 1479.01 Q561.607 1482.55 565.218 1482.55 Q568.852 1482.55 570.657 1479.01 Q572.486 1475.44 572.486 1468.33 Q572.486 1461.2 570.657 1457.66 Q568.852 1454.1 565.218 1454.1 M565.218 1450.39 Q571.028 1450.39 574.083 1455 Q577.162 1459.58 577.162 1468.33 Q577.162 1477.06 574.083 1481.67 Q571.028 1486.25 565.218 1486.25 Q559.408 1486.25 556.329 1481.67 Q553.273 1477.06 553.273 1468.33 Q553.273 1459.58 556.329 1455 Q559.408 1450.39 565.218 1450.39 Z" fill="#000000" fill-rule="nonzero" fill-opacity="1" /><path clip-path="url(#clip290)" d="M887.697 1466.95 Q891.054 1467.66 892.929 1469.93 Q894.827 1472.2 894.827 1475.53 Q894.827 1480.65 891.309 1483.45 Q887.79 1486.25 881.309 1486.25 Q879.133 1486.25 876.818 1485.81 Q874.526 1485.39 872.073 1484.54 L872.073 1480.02 Q874.017 1481.16 876.332 1481.74 Q878.647 1482.32 881.17 1482.32 Q885.568 1482.32 887.859 1480.58 Q890.174 1478.84 890.174 1475.53 Q890.174 1472.48 888.022 1470.77 Q885.892 1469.03 882.072 1469.03 L878.045 1469.03 L878.045 1465.19 L882.258 1465.19 Q885.707 1465.19 887.535 1463.82 Q889.364 1462.43 889.364 1459.84 Q889.364 1457.18 887.466 1455.77 Q885.591 1454.33 882.072 1454.33 Q880.151 1454.33 877.952 1454.75 Q875.753 1455.16 873.114 1456.04 L873.114 1451.88 Q875.776 1451.14 878.091 1450.77 Q880.429 1450.39 882.489 1450.39 Q887.813 1450.39 890.915 1452.83 Q894.017 1455.23 894.017 1459.35 Q894.017 1462.22 892.373 1464.21 Q890.73 1466.18 887.697 1466.95 Z" fill="#000000" fill-rule="nonzero" fill-opacity="1" /><path clip-path="url(#clip290)" d="M903.832 1484.86 L903.832 1480.6 Q905.591 1481.44 907.396 1481.88 Q909.202 1482.32 910.938 1482.32 Q915.568 1482.32 917.998 1479.21 Q920.452 1476.09 920.799 1469.75 Q919.457 1471.74 917.396 1472.8 Q915.336 1473.87 912.836 1473.87 Q907.651 1473.87 904.619 1470.74 Q901.609 1467.59 901.609 1462.15 Q901.609 1456.83 904.758 1453.61 Q907.906 1450.39 913.137 1450.39 Q919.132 1450.39 922.281 1455 Q925.452 1459.58 925.452 1468.33 Q925.452 1476.51 921.563 1481.39 Q917.697 1486.25 911.146 1486.25 Q909.387 1486.25 907.582 1485.9 Q905.776 1485.56 903.832 1484.86 M913.137 1470.21 Q916.285 1470.21 918.114 1468.06 Q919.966 1465.9 919.966 1462.15 Q919.966 1458.43 918.114 1456.27 Q916.285 1454.1 913.137 1454.1 Q909.989 1454.1 908.137 1456.27 Q906.308 1458.43 906.308 1462.15 Q906.308 1465.9 908.137 1468.06 Q909.989 1470.21 913.137 1470.21 Z" fill="#000000" fill-rule="nonzero" fill-opacity="1" /><path clip-path="url(#clip290)" d="M943.855 1454.1 Q940.243 1454.1 938.415 1457.66 Q936.609 1461.2 936.609 1468.33 Q936.609 1475.44 938.415 1479.01 Q940.243 1482.55 943.855 1482.55 Q947.489 1482.55 949.294 1479.01 Q951.123 1475.44 951.123 1468.33 Q951.123 1461.2 949.294 1457.66 Q947.489 1454.1 943.855 1454.1 M943.855 1450.39 Q949.665 1450.39 952.72 1455 Q955.799 1459.58 955.799 1468.33 Q955.799 1477.06 952.72 1481.67 Q949.665 1486.25 943.855 1486.25 Q938.044 1486.25 934.966 1481.67 Q931.91 1477.06 931.91 1468.33 Q931.91 1459.58 934.966 1455 Q938.044 1450.39 943.855 1450.39 Z" fill="#000000" fill-rule="nonzero" fill-opacity="1" /><path clip-path="url(#clip290)" d="M1265.66 1455.09 L1253.86 1473.54 L1265.66 1473.54 L1265.66 1455.09 M1264.44 1451.02 L1270.32 1451.02 L1270.32 1473.54 L1275.25 1473.54 L1275.25 1477.43 L1270.32 1477.43 L1270.32 1485.58 L1265.66 1485.58 L1265.66 1477.43 L1250.06 1477.43 L1250.06 1472.92 L1264.44 1451.02 Z" fill="#000000" fill-rule="nonzero" fill-opacity="1" /><path clip-path="url(#clip290)" d="M1287.01 1481.64 L1303.32 1481.64 L1303.32 1485.58 L1281.38 1485.58 L1281.38 1481.64 Q1284.04 1478.89 1288.63 1474.26 Q1293.23 1469.61 1294.41 1468.27 Q1296.66 1465.74 1297.54 1464.01 Q1298.44 1462.25 1298.44 1460.56 Q1298.44 1457.8 1296.5 1456.07 Q1294.57 1454.33 1291.47 1454.33 Q1289.27 1454.33 1286.82 1455.09 Q1284.39 1455.86 1281.61 1457.41 L1281.61 1452.69 Q1284.44 1451.55 1286.89 1450.97 Q1289.34 1450.39 1291.38 1450.39 Q1296.75 1450.39 1299.95 1453.08 Q1303.14 1455.77 1303.14 1460.26 Q1303.14 1462.39 1302.33 1464.31 Q1301.54 1466.2 1299.44 1468.8 Q1298.86 1469.47 1295.76 1472.69 Q1292.65 1475.88 1287.01 1481.64 Z" fill="#000000" fill-rule="nonzero" fill-opacity="1" /><path clip-path="url(#clip290)" d="M1323.14 1454.1 Q1319.53 1454.1 1317.7 1457.66 Q1315.89 1461.2 1315.89 1468.33 Q1315.89 1475.44 1317.7 1479.01 Q1319.53 1482.55 1323.14 1482.55 Q1326.77 1482.55 1328.58 1479.01 Q1330.41 1475.44 1330.41 1468.33 Q1330.41 1461.2 1328.58 1457.66 Q1326.77 1454.1 1323.14 1454.1 M1323.14 1450.39 Q1328.95 1450.39 1332.01 1455 Q1335.08 1459.58 1335.08 1468.33 Q1335.08 1477.06 1332.01 1481.67 Q1328.95 1486.25 1323.14 1486.25 Q1317.33 1486.25 1314.25 1481.67 Q1311.2 1477.06 1311.2 1468.33 Q1311.2 1459.58 1314.25 1455 Q1317.33 1450.39 1323.14 1450.39 Z" fill="#000000" fill-rule="nonzero" fill-opacity="1" /><path clip-path="url(#clip290)" d="M1644.3 1455.09 L1632.49 1473.54 L1644.3 1473.54 L1644.3 1455.09 M1643.07 1451.02 L1648.95 1451.02 L1648.95 1473.54 L1653.88 1473.54 L1653.88 1477.43 L1648.95 1477.43 L1648.95 1485.58 L1644.3 1485.58 L1644.3 1477.43 L1628.7 1477.43 L1628.7 1472.92 L1643.07 1451.02 Z" fill="#000000" fill-rule="nonzero" fill-opacity="1" /><path clip-path="url(#clip290)" d="M1661.66 1451.02 L1680.02 1451.02 L1680.02 1454.96 L1665.94 1454.96 L1665.94 1463.43 Q1666.96 1463.08 1667.98 1462.92 Q1669 1462.73 1670.02 1462.73 Q1675.8 1462.73 1679.18 1465.9 Q1682.56 1469.08 1682.56 1474.49 Q1682.56 1480.07 1679.09 1483.17 Q1675.62 1486.25 1669.3 1486.25 Q1667.12 1486.25 1664.86 1485.88 Q1662.61 1485.51 1660.2 1484.77 L1660.2 1480.07 Q1662.29 1481.2 1664.51 1481.76 Q1666.73 1482.32 1669.21 1482.32 Q1673.21 1482.32 1675.55 1480.21 Q1677.89 1478.1 1677.89 1474.49 Q1677.89 1470.88 1675.55 1468.77 Q1673.21 1466.67 1669.21 1466.67 Q1667.33 1466.67 1665.46 1467.08 Q1663.61 1467.5 1661.66 1468.38 L1661.66 1451.02 Z" fill="#000000" fill-rule="nonzero" fill-opacity="1" /><path clip-path="url(#clip290)" d="M1701.78 1454.1 Q1698.17 1454.1 1696.34 1457.66 Q1694.53 1461.2 1694.53 1468.33 Q1694.53 1475.44 1696.34 1479.01 Q1698.17 1482.55 1701.78 1482.55 Q1705.41 1482.55 1707.22 1479.01 Q1709.04 1475.44 1709.04 1468.33 Q1709.04 1461.2 1707.22 1457.66 Q1705.41 1454.1 1701.78 1454.1 M1701.78 1450.39 Q1707.59 1450.39 1710.64 1455 Q1713.72 1459.58 1713.72 1468.33 Q1713.72 1477.06 1710.64 1481.67 Q1707.59 1486.25 1701.78 1486.25 Q1695.97 1486.25 1692.89 1481.67 Q1689.83 1477.06 1689.83 1468.33 Q1689.83 1459.58 1692.89 1455 Q1695.97 1450.39 1701.78 1450.39 Z" fill="#000000" fill-rule="nonzero" fill-opacity="1" /><path clip-path="url(#clip290)" d="M2022.94 1455.09 L2011.13 1473.54 L2022.94 1473.54 L2022.94 1455.09 M2021.71 1451.02 L2027.59 1451.02 L2027.59 1473.54 L2032.52 1473.54 L2032.52 1477.43 L2027.59 1477.43 L2027.59 1485.58 L2022.94 1485.58 L2022.94 1477.43 L2007.34 1477.43 L2007.34 1472.92 L2021.71 1451.02 Z" fill="#000000" fill-rule="nonzero" fill-opacity="1" /><path clip-path="url(#clip290)" d="M2050.25 1469.17 Q2046.92 1469.17 2045 1470.95 Q2043.1 1472.73 2043.1 1475.86 Q2043.1 1478.98 2045 1480.77 Q2046.92 1482.55 2050.25 1482.55 Q2053.58 1482.55 2055.51 1480.77 Q2057.43 1478.96 2057.43 1475.86 Q2057.43 1472.73 2055.51 1470.95 Q2053.61 1469.17 2050.25 1469.17 M2045.58 1467.18 Q2042.57 1466.44 2040.88 1464.38 Q2039.21 1462.32 2039.21 1459.35 Q2039.21 1455.21 2042.15 1452.8 Q2045.11 1450.39 2050.25 1450.39 Q2055.41 1450.39 2058.35 1452.8 Q2061.29 1455.21 2061.29 1459.35 Q2061.29 1462.32 2059.6 1464.38 Q2057.94 1466.44 2054.95 1467.18 Q2058.33 1467.96 2060.21 1470.26 Q2062.1 1472.55 2062.1 1475.86 Q2062.1 1480.88 2059.02 1483.57 Q2055.97 1486.25 2050.25 1486.25 Q2044.53 1486.25 2041.46 1483.57 Q2038.4 1480.88 2038.4 1475.86 Q2038.4 1472.55 2040.3 1470.26 Q2042.2 1467.96 2045.58 1467.18 M2043.86 1459.79 Q2043.86 1462.48 2045.53 1463.98 Q2047.22 1465.49 2050.25 1465.49 Q2053.26 1465.49 2054.95 1463.98 Q2056.66 1462.48 2056.66 1459.79 Q2056.66 1457.11 2054.95 1455.6 Q2053.26 1454.1 2050.25 1454.1 Q2047.22 1454.1 2045.53 1455.6 Q2043.86 1457.11 2043.86 1459.79 Z" fill="#000000" fill-rule="nonzero" fill-opacity="1" /><path clip-path="url(#clip290)" d="M2080.41 1454.1 Q2076.8 1454.1 2074.97 1457.66 Q2073.17 1461.2 2073.17 1468.33 Q2073.17 1475.44 2074.97 1479.01 Q2076.8 1482.55 2080.41 1482.55 Q2084.05 1482.55 2085.85 1479.01 Q2087.68 1475.44 2087.68 1468.33 Q2087.68 1461.2 2085.85 1457.66 Q2084.05 1454.1 2080.41 1454.1 M2080.41 1450.39 Q2086.22 1450.39 2089.28 1455 Q2092.36 1459.58 2092.36 1468.33 Q2092.36 1477.06 2089.28 1481.67 Q2086.22 1486.25 2080.41 1486.25 Q2074.6 1486.25 2071.52 1481.67 Q2068.47 1477.06 2068.47 1468.33 Q2068.47 1459.58 2071.52 1455 Q2074.6 1450.39 2080.41 1450.39 Z" fill="#000000" fill-rule="nonzero" fill-opacity="1" /><path clip-path="url(#clip290)" d="M1217.27 1520.52 L1223.7 1520.52 L1223.7 1540 L1247.06 1540 L1247.06 1520.52 L1253.49 1520.52 L1253.49 1568.04 L1247.06 1568.04 L1247.06 1545.41 L1223.7 1545.41 L1223.7 1568.04 L1217.27 1568.04 L1217.27 1520.52 Z" fill="#000000" fill-rule="nonzero" fill-opacity="1" /><path clip-path="url(#clip290)" d="M1279.84 1536.5 Q1275.13 1536.5 1272.39 1540.19 Q1269.66 1543.85 1269.66 1550.25 Q1269.66 1556.65 1272.36 1560.34 Q1275.1 1564 1279.84 1564 Q1284.52 1564 1287.26 1560.31 Q1289.99 1556.62 1289.99 1550.25 Q1289.99 1543.92 1287.26 1540.23 Q1284.52 1536.5 1279.84 1536.5 M1279.84 1531.54 Q1287.48 1531.54 1291.84 1536.5 Q1296.2 1541.47 1296.2 1550.25 Q1296.2 1559 1291.84 1564 Q1287.48 1568.97 1279.84 1568.97 Q1272.17 1568.97 1267.81 1564 Q1263.48 1559 1263.48 1550.25 Q1263.48 1541.47 1267.81 1536.5 Q1272.17 1531.54 1279.84 1531.54 Z" fill="#000000" fill-rule="nonzero" fill-opacity="1" /><path clip-path="url(#clip290)" d="M1305.3 1553.98 L1305.3 1532.4 L1311.16 1532.4 L1311.16 1553.75 Q1311.16 1558.81 1313.13 1561.36 Q1315.11 1563.87 1319.05 1563.87 Q1323.8 1563.87 1326.53 1560.85 Q1329.3 1557.83 1329.3 1552.61 L1329.3 1532.4 L1335.16 1532.4 L1335.16 1568.04 L1329.3 1568.04 L1329.3 1562.57 Q1327.17 1565.82 1324.34 1567.41 Q1321.54 1568.97 1317.81 1568.97 Q1311.67 1568.97 1308.49 1565.15 Q1305.3 1561.33 1305.3 1553.98 M1320.04 1531.54 L1320.04 1531.54 Z" fill="#000000" fill-rule="nonzero" fill-opacity="1" /><path clip-path="url(#clip290)" d="M1367.88 1537.87 Q1366.89 1537.3 1365.71 1537.04 Q1364.57 1536.76 1363.17 1536.76 Q1358.2 1536.76 1355.53 1540 Q1352.89 1543.22 1352.89 1549.27 L1352.89 1568.04 L1347 1568.04 L1347 1532.4 L1352.89 1532.4 L1352.89 1537.93 Q1354.73 1534.69 1357.69 1533.13 Q1360.65 1531.54 1364.89 1531.54 Q1365.49 1531.54 1366.22 1531.63 Q1366.96 1531.7 1367.85 1531.85 L1367.88 1537.87 Z" fill="#000000" fill-rule="nonzero" fill-opacity="1" /><polyline clip-path="url(#clip290)" style="stroke:#000000; stroke-linecap:round; stroke-linejoin:round; stroke-width:4; stroke-opacity:1; fill:none" points="232.389,1423.18 232.389,47.2441 "/>
<polyline clip-path="url(#clip290)" style="stroke:#000000; stroke-linecap:round; stroke-linejoin:round; stroke-width:4; stroke-opacity:1; fill:none" points="232.389,1410.65 251.287,1410.65 "/>
<polyline clip-path="url(#clip290)" style="stroke:#000000; stroke-linecap:round; stroke-linejoin:round; stroke-width:4; stroke-opacity:1; fill:none" points="232.389,1079.53 251.287,1079.53 "/>
<polyline clip-path="url(#clip290)" style="stroke:#000000; stroke-linecap:round; stroke-linejoin:round; stroke-width:4; stroke-opacity:1; fill:none" points="232.389,748.418 251.287,748.418 "/>
<polyline clip-path="url(#clip290)" style="stroke:#000000; stroke-linecap:round; stroke-linejoin:round; stroke-width:4; stroke-opacity:1; fill:none" points="232.389,417.302 251.287,417.302 "/>
<polyline clip-path="url(#clip290)" style="stroke:#000000; stroke-linecap:round; stroke-linejoin:round; stroke-width:4; stroke-opacity:1; fill:none" points="232.389,86.1857 251.287,86.1857 "/>
<path clip-path="url(#clip290)" d="M184.445 1396.45 Q180.834 1396.45 179.005 1400.01 Q177.2 1403.56 177.2 1410.69 Q177.2 1417.79 179.005 1421.36 Q180.834 1424.9 184.445 1424.9 Q188.079 1424.9 189.885 1421.36 Q191.713 1417.79 191.713 1410.69 Q191.713 1403.56 189.885 1400.01 Q188.079 1396.45 184.445 1396.45 M184.445 1392.75 Q190.255 1392.75 193.311 1397.35 Q196.389 1401.94 196.389 1410.69 Q196.389 1419.41 193.311 1424.02 Q190.255 1428.6 184.445 1428.6 Q178.635 1428.6 175.556 1424.02 Q172.501 1419.41 172.501 1410.69 Q172.501 1401.94 175.556 1397.35 Q178.635 1392.75 184.445 1392.75 Z" fill="#000000" fill-rule="nonzero" fill-opacity="1" /><path clip-path="url(#clip290)" d="M149.306 1092.88 L165.626 1092.88 L165.626 1096.81 L143.681 1096.81 L143.681 1092.88 Q146.343 1090.12 150.927 1085.49 Q155.533 1080.84 156.714 1079.5 Q158.959 1076.98 159.839 1075.24 Q160.741 1073.48 160.741 1071.79 Q160.741 1069.04 158.797 1067.3 Q156.876 1065.56 153.774 1065.56 Q151.575 1065.56 149.121 1066.33 Q146.691 1067.09 143.913 1068.64 L143.913 1063.92 Q146.737 1062.79 149.191 1062.21 Q151.644 1061.63 153.681 1061.63 Q159.052 1061.63 162.246 1064.31 Q165.44 1067 165.44 1071.49 Q165.44 1073.62 164.63 1075.54 Q163.843 1077.44 161.737 1080.03 Q161.158 1080.7 158.056 1083.92 Q154.954 1087.12 149.306 1092.88 Z" fill="#000000" fill-rule="nonzero" fill-opacity="1" /><path clip-path="url(#clip290)" d="M175.487 1062.25 L193.843 1062.25 L193.843 1066.19 L179.769 1066.19 L179.769 1074.66 Q180.788 1074.31 181.806 1074.15 Q182.825 1073.97 183.843 1073.97 Q189.63 1073.97 193.01 1077.14 Q196.389 1080.31 196.389 1085.73 Q196.389 1091.31 192.917 1094.41 Q189.445 1097.49 183.126 1097.49 Q180.95 1097.49 178.681 1097.12 Q176.436 1096.74 174.028 1096 L174.028 1091.31 Q176.112 1092.44 178.334 1092.99 Q180.556 1093.55 183.033 1093.55 Q187.038 1093.55 189.375 1091.44 Q191.713 1089.34 191.713 1085.73 Q191.713 1082.12 189.375 1080.01 Q187.038 1077.9 183.033 1077.9 Q181.158 1077.9 179.283 1078.32 Q177.431 1078.74 175.487 1079.62 L175.487 1062.25 Z" fill="#000000" fill-rule="nonzero" fill-opacity="1" /><path clip-path="url(#clip290)" d="M144.329 731.138 L162.686 731.138 L162.686 735.073 L148.612 735.073 L148.612 743.545 Q149.63 743.198 150.649 743.036 Q151.667 742.851 152.686 742.851 Q158.473 742.851 161.852 746.022 Q165.232 749.194 165.232 754.61 Q165.232 760.189 161.76 763.291 Q158.288 766.369 151.968 766.369 Q149.792 766.369 147.524 765.999 Q145.279 765.629 142.871 764.888 L142.871 760.189 Q144.954 761.323 147.177 761.879 Q149.399 762.434 151.876 762.434 Q155.88 762.434 158.218 760.328 Q160.556 758.221 160.556 754.61 Q160.556 750.999 158.218 748.893 Q155.88 746.786 151.876 746.786 Q150.001 746.786 148.126 747.203 Q146.274 747.619 144.329 748.499 L144.329 731.138 Z" fill="#000000" fill-rule="nonzero" fill-opacity="1" /><path clip-path="url(#clip290)" d="M184.445 734.217 Q180.834 734.217 179.005 737.782 Q177.2 741.323 177.2 748.453 Q177.2 755.559 179.005 759.124 Q180.834 762.666 184.445 762.666 Q188.079 762.666 189.885 759.124 Q191.713 755.559 191.713 748.453 Q191.713 741.323 189.885 737.782 Q188.079 734.217 184.445 734.217 M184.445 730.513 Q190.255 730.513 193.311 735.12 Q196.389 739.703 196.389 748.453 Q196.389 757.18 193.311 761.786 Q190.255 766.369 184.445 766.369 Q178.635 766.369 175.556 761.786 Q172.501 757.18 172.501 748.453 Q172.501 739.703 175.556 735.12 Q178.635 730.513 184.445 730.513 Z" fill="#000000" fill-rule="nonzero" fill-opacity="1" /><path clip-path="url(#clip290)" d="M144.098 400.022 L166.32 400.022 L166.32 402.013 L153.774 434.582 L148.89 434.582 L160.695 403.957 L144.098 403.957 L144.098 400.022 Z" fill="#000000" fill-rule="nonzero" fill-opacity="1" /><path clip-path="url(#clip290)" d="M175.487 400.022 L193.843 400.022 L193.843 403.957 L179.769 403.957 L179.769 412.429 Q180.788 412.082 181.806 411.92 Q182.825 411.735 183.843 411.735 Q189.63 411.735 193.01 414.906 Q196.389 418.077 196.389 423.494 Q196.389 429.073 192.917 432.174 Q189.445 435.253 183.126 435.253 Q180.95 435.253 178.681 434.883 Q176.436 434.512 174.028 433.772 L174.028 429.073 Q176.112 430.207 178.334 430.762 Q180.556 431.318 183.033 431.318 Q187.038 431.318 189.375 429.212 Q191.713 427.105 191.713 423.494 Q191.713 419.883 189.375 417.776 Q187.038 415.67 183.033 415.67 Q181.158 415.67 179.283 416.087 Q177.431 416.503 175.487 417.383 L175.487 400.022 Z" fill="#000000" fill-rule="nonzero" fill-opacity="1" /><path clip-path="url(#clip290)" d="M114.931 99.5305 L122.57 99.5305 L122.57 73.1649 L114.26 74.8316 L114.26 70.5723 L122.524 68.9057 L127.2 68.9057 L127.2 99.5305 L134.839 99.5305 L134.839 103.466 L114.931 103.466 L114.931 99.5305 Z" fill="#000000" fill-rule="nonzero" fill-opacity="1" /><path clip-path="url(#clip290)" d="M154.283 71.9844 Q150.672 71.9844 148.843 75.5492 Q147.038 79.0908 147.038 86.2204 Q147.038 93.3268 148.843 96.8916 Q150.672 100.433 154.283 100.433 Q157.917 100.433 159.723 96.8916 Q161.552 93.3268 161.552 86.2204 Q161.552 79.0908 159.723 75.5492 Q157.917 71.9844 154.283 71.9844 M154.283 68.2807 Q160.093 68.2807 163.149 72.8871 Q166.227 77.4704 166.227 86.2204 Q166.227 94.9472 163.149 99.5537 Q160.093 104.137 154.283 104.137 Q148.473 104.137 145.394 99.5537 Q142.339 94.9472 142.339 86.2204 Q142.339 77.4704 145.394 72.8871 Q148.473 68.2807 154.283 68.2807 Z" fill="#000000" fill-rule="nonzero" fill-opacity="1" /><path clip-path="url(#clip290)" d="M184.445 71.9844 Q180.834 71.9844 179.005 75.5492 Q177.2 79.0908 177.2 86.2204 Q177.2 93.3268 179.005 96.8916 Q180.834 100.433 184.445 100.433 Q188.079 100.433 189.885 96.8916 Q191.713 93.3268 191.713 86.2204 Q191.713 79.0908 189.885 75.5492 Q188.079 71.9844 184.445 71.9844 M184.445 68.2807 Q190.255 68.2807 193.311 72.8871 Q196.389 77.4704 196.389 86.2204 Q196.389 94.9472 193.311 99.5537 Q190.255 104.137 184.445 104.137 Q178.635 104.137 175.556 99.5537 Q172.501 94.9472 172.501 86.2204 Q172.501 77.4704 175.556 72.8871 Q178.635 68.2807 184.445 68.2807 Z" fill="#000000" fill-rule="nonzero" fill-opacity="1" /><path clip-path="url(#clip290)" d="M14.479 836.045 L14.479 822.549 L19.0304 822.549 L19.0304 830.188 L68.0464 830.188 L68.0464 822.549 L72.5979 822.549 L72.5979 836.045 L14.479 836.045 Z" fill="#000000" fill-rule="nonzero" fill-opacity="1" /><path clip-path="url(#clip290)" d="M16.4842 809.818 L16.4842 800.238 L48.8219 788.111 L16.4842 775.921 L16.4842 766.34 L64.0042 766.34 L64.0042 772.61 L22.277 772.61 L54.8694 784.864 L54.8694 791.326 L22.277 803.58 L64.0042 803.58 L64.0042 809.818 L16.4842 809.818 Z" fill="#000000" fill-rule="nonzero" fill-opacity="1" /><path clip-path="url(#clip290)" d="M16.4842 757.81 L16.4842 751.317 L56.6518 741.323 L16.4842 731.361 L16.4842 724.136 L56.6518 714.141 L16.4842 704.179 L16.4842 697.654 L64.0042 709.59 L64.0042 717.674 L22.7544 727.7 L64.0042 737.822 L64.0042 745.906 L16.4842 757.81 Z" fill="#000000" fill-rule="nonzero" fill-opacity="1" /><path clip-path="url(#clip290)" d="M42.4881 659.747 L64.0042 659.747 L64.0042 665.603 L42.679 665.603 Q37.6183 665.603 35.1038 667.576 Q32.5894 669.55 32.5894 673.496 Q32.5894 678.239 35.6131 680.976 Q38.6368 683.713 43.8567 683.713 L64.0042 683.713 L64.0042 689.602 L14.479 689.602 L14.479 683.713 L33.8944 683.713 Q30.6797 681.613 29.0883 678.78 Q27.4968 675.915 27.4968 672.191 Q27.4968 666.049 31.3163 662.898 Q35.1038 659.747 42.4881 659.747 Z" fill="#000000" fill-rule="nonzero" fill-opacity="1" /><path clip-path="url(#clip290)" d="M14.479 634.379 L72.5979 634.379 L72.5979 647.874 L68.0464 647.874 L68.0464 640.267 L19.0304 640.267 L19.0304 647.874 L14.479 647.874 L14.479 634.379 Z" fill="#000000" fill-rule="nonzero" fill-opacity="1" /><circle clip-path="url(#clip291)" cx="245.011" cy="86.1857" r="7.2" fill="#6b9e32" fill-rule="evenodd" fill-opacity="1" stroke="#000000" stroke-opacity="1" stroke-width="3.2"/>
<circle clip-path="url(#clip291)" cx="320.738" cy="86.1857" r="7.2" fill="#6b9e32" fill-rule="evenodd" fill-opacity="1" stroke="#000000" stroke-opacity="1" stroke-width="3.2"/>
<circle clip-path="url(#clip291)" cx="396.465" cy="86.1857" r="7.2" fill="#6b9e32" fill-rule="evenodd" fill-opacity="1" stroke="#000000" stroke-opacity="1" stroke-width="3.2"/>
<circle clip-path="url(#clip291)" cx="472.193" cy="86.1857" r="7.2" fill="#6b9e32" fill-rule="evenodd" fill-opacity="1" stroke="#000000" stroke-opacity="1" stroke-width="3.2"/>
<circle clip-path="url(#clip291)" cx="547.92" cy="86.1857" r="7.2" fill="#6b9e32" fill-rule="evenodd" fill-opacity="1" stroke="#000000" stroke-opacity="1" stroke-width="3.2"/>
<circle clip-path="url(#clip291)" cx="623.647" cy="86.1857" r="7.2" fill="#6b9e32" fill-rule="evenodd" fill-opacity="1" stroke="#000000" stroke-opacity="1" stroke-width="3.2"/>
<circle clip-path="url(#clip291)" cx="699.375" cy="86.1857" r="7.2" fill="#6b9e32" fill-rule="evenodd" fill-opacity="1" stroke="#000000" stroke-opacity="1" stroke-width="3.2"/>
<circle clip-path="url(#clip291)" cx="775.102" cy="86.1857" r="7.2" fill="#6b9e32" fill-rule="evenodd" fill-opacity="1" stroke="#000000" stroke-opacity="1" stroke-width="3.2"/>
<circle clip-path="url(#clip291)" cx="850.83" cy="86.1857" r="7.2" fill="#6b9e32" fill-rule="evenodd" fill-opacity="1" stroke="#000000" stroke-opacity="1" stroke-width="3.2"/>
<circle clip-path="url(#clip291)" cx="926.557" cy="86.1857" r="7.2" fill="#6b9e32" fill-rule="evenodd" fill-opacity="1" stroke="#000000" stroke-opacity="1" stroke-width="3.2"/>
<circle clip-path="url(#clip291)" cx="1002.28" cy="86.1857" r="7.2" fill="#6b9e32" fill-rule="evenodd" fill-opacity="1" stroke="#000000" stroke-opacity="1" stroke-width="3.2"/>
<circle clip-path="url(#clip291)" cx="1078.01" cy="86.1857" r="7.2" fill="#6b9e32" fill-rule="evenodd" fill-opacity="1" stroke="#000000" stroke-opacity="1" stroke-width="3.2"/>
<circle clip-path="url(#clip291)" cx="1153.74" cy="86.1857" r="7.2" fill="#6b9e32" fill-rule="evenodd" fill-opacity="1" stroke="#000000" stroke-opacity="1" stroke-width="3.2"/>
<circle clip-path="url(#clip291)" cx="1229.47" cy="86.1857" r="7.2" fill="#6b9e32" fill-rule="evenodd" fill-opacity="1" stroke="#000000" stroke-opacity="1" stroke-width="3.2"/>
<circle clip-path="url(#clip291)" cx="1305.19" cy="565.032" r="7.2" fill="#6b9e32" fill-rule="evenodd" fill-opacity="1" stroke="#000000" stroke-opacity="1" stroke-width="3.2"/>
<circle clip-path="url(#clip291)" cx="1380.92" cy="884.862" r="7.2" fill="#6b9e32" fill-rule="evenodd" fill-opacity="1" stroke="#000000" stroke-opacity="1" stroke-width="3.2"/>
<circle clip-path="url(#clip291)" cx="1456.65" cy="969.186" r="7.2" fill="#6b9e32" fill-rule="evenodd" fill-opacity="1" stroke="#000000" stroke-opacity="1" stroke-width="3.2"/>
<circle clip-path="url(#clip291)" cx="1532.38" cy="1064.46" r="7.2" fill="#6b9e32" fill-rule="evenodd" fill-opacity="1" stroke="#000000" stroke-opacity="1" stroke-width="3.2"/>
<circle clip-path="url(#clip291)" cx="1608.1" cy="1207.3" r="7.2" fill="#6b9e32" fill-rule="evenodd" fill-opacity="1" stroke="#000000" stroke-opacity="1" stroke-width="3.2"/>
<circle clip-path="url(#clip291)" cx="1683.83" cy="1299.51" r="7.2" fill="#6b9e32" fill-rule="evenodd" fill-opacity="1" stroke="#000000" stroke-opacity="1" stroke-width="3.2"/>
<circle clip-path="url(#clip291)" cx="1759.56" cy="1294.53" r="7.2" fill="#6b9e32" fill-rule="evenodd" fill-opacity="1" stroke="#000000" stroke-opacity="1" stroke-width="3.2"/>
<circle clip-path="url(#clip291)" cx="1835.29" cy="1316.45" r="7.2" fill="#6b9e32" fill-rule="evenodd" fill-opacity="1" stroke="#000000" stroke-opacity="1" stroke-width="3.2"/>
<circle clip-path="url(#clip291)" cx="1911.01" cy="1257.97" r="7.2" fill="#6b9e32" fill-rule="evenodd" fill-opacity="1" stroke="#000000" stroke-opacity="1" stroke-width="3.2"/>
<circle clip-path="url(#clip291)" cx="1986.74" cy="86.1857" r="7.2" fill="#6b9e32" fill-rule="evenodd" fill-opacity="1" stroke="#000000" stroke-opacity="1" stroke-width="3.2"/>
<circle clip-path="url(#clip291)" cx="2062.47" cy="86.1857" r="7.2" fill="#6b9e32" fill-rule="evenodd" fill-opacity="1" stroke="#000000" stroke-opacity="1" stroke-width="3.2"/>
<circle clip-path="url(#clip291)" cx="2138.2" cy="86.1857" r="7.2" fill="#6b9e32" fill-rule="evenodd" fill-opacity="1" stroke="#000000" stroke-opacity="1" stroke-width="3.2"/>
<circle clip-path="url(#clip291)" cx="2213.92" cy="86.1857" r="7.2" fill="#6b9e32" fill-rule="evenodd" fill-opacity="1" stroke="#000000" stroke-opacity="1" stroke-width="3.2"/>
<circle clip-path="url(#clip291)" cx="2289.65" cy="86.1857" r="7.2" fill="#6b9e32" fill-rule="evenodd" fill-opacity="1" stroke="#000000" stroke-opacity="1" stroke-width="3.2"/>
<polyline clip-path="url(#clip291)" style="stroke:#009af9; stroke-linecap:round; stroke-linejoin:round; stroke-width:4; stroke-opacity:1; fill:none" points="-3995.72,86.1857 -3920,86.1857 -3844.27,86.1857 -3768.54,86.1857 -3692.81,86.1857 -3617.09,86.1857 -3541.36,86.1857 -3465.63,86.1857 -3389.9,86.1857 -3314.18,86.1857 -3238.45,86.1857 -3162.72,86.1857 -3086.99,86.1857 -3011.27,86.1857 -2935.54,86.1857 -2859.81,86.1857 -2784.08,86.1857 -2708.36,86.1857 -2632.63,86.1857 -2556.9,86.1857 -2481.17,86.1857 -2405.45,86.1857 -2329.72,86.1857 -2253.99,86.1857 -2178.27,86.1857 -2102.54,86.1857 -2026.81,86.1857 -1951.08,86.1857 -1875.36,86.1857 -1799.63,86.1857 -1723.9,86.1857 -1648.17,86.1857 -1572.45,86.1857 -1496.72,86.1857 -1420.99,86.1857 -1345.26,86.1857 -1269.54,86.1857 -1193.81,86.1857 -1118.08,86.1857 -1042.35,86.1857 -966.627,86.1857 -890.9,86.1857 -815.173,86.1857 -739.445,86.1857 -663.718,86.1857 -587.991,86.1857 -512.263,86.1857 -436.536,86.1857 -360.808,86.1857 -285.081,86.1857 -209.354,86.1857 -133.626,86.1857 -57.8989,86.1857 17.8284,86.1857 93.5558,86.1857 169.283,86.1857 245.011,86.1857 320.738,86.1857 396.465,86.1857 472.193,86.1857 547.92,86.1857 623.647,86.1857 699.375,86.1857 775.102,86.1857 850.83,86.1857 926.557,86.1857 1002.28,86.1857 1078.01,86.1857 1153.74,86.1857 1229.47,86.1857 1305.19,86.1857 1305.19,565.032 1380.92,565.032 1380.92,884.862 1456.65,884.862 1456.65,969.186 1532.38,969.186 1532.38,1064.46 1608.1,1064.46 1608.1,1207.3 1683.83,1207.3 1683.83,1299.51 1759.56,1299.51 1759.56,1294.53 1835.29,1294.53 1835.29,1316.45 1911.01,1316.45 1911.01,1257.97 1986.74,1257.97 1986.74,86.1857 2062.47,86.1857 2138.2,86.1857 2213.92,86.1857 2289.65,86.1857 2365.38,86.1857 2441.1,86.1857 2516.83,86.1857 2592.56,86.1857 2592.56,710.705 2668.29,710.705 2668.29,1180.53 2744.01,1180.53 2744.01,86.1857 2819.74,86.1857 2895.47,86.1857 2971.2,86.1857 3046.92,86.1857 3122.65,86.1857 3198.38,86.1857 3274.11,86.1857 3349.83,86.1857 3425.56,86.1857 3501.29,86.1857 3577.02,86.1857 3652.74,86.1857 3728.47,86.1857 3804.2,86.1857 3879.92,86.1857 3955.65,86.1857 4031.38,86.1857 4107.11,86.1857 4182.83,86.1857 4258.56,86.1857 4334.29,86.1857 4410.02,86.1857 4485.74,86.1857 4561.47,86.1857 4637.2,86.1857 4712.93,86.1857 4788.65,86.1857 4864.38,86.1857 4940.11,86.1857 5015.84,86.1857 5091.56,86.1857 5167.29,86.1857 5243.02,86.1857 5243.02,305.64 5318.74,305.64 5318.74,86.1857 5394.47,86.1857 5470.2,86.1857 5545.93,86.1857 5621.65,86.1857 5697.38,86.1857 5773.11,86.1857 5848.84,86.1857 5924.56,86.1857 6000.29,86.1857 6076.02,86.1857 6151.75,86.1857 6227.47,86.1857 6303.2,86.1857 6378.93,86.1857 6454.66,86.1857 6530.38,86.1857 6606.11,86.1857 6681.84,86.1857 6757.57,86.1857 6833.29,86.1857 6909.02,86.1857 6984.75,86.1857 7060.47,86.1857 7136.2,86.1857 7211.93,86.1857 7287.66,86.1857 7363.38,86.1857 7439.11,86.1857 7514.84,86.1857 7590.57,86.1857 7666.29,86.1857 7742.02,86.1857 7817.75,86.1857 7893.48,86.1857 7969.2,86.1857 8044.93,86.1857 8120.66,86.1857 8196.39,86.1857 8272.11,86.1857 8347.84,86.1857 8347.84,491.875 8423.57,491.875 8423.57,86.1857 8499.29,86.1857 8575.02,86.1857 8575.02,338.623 8650.75,338.623 8650.75,892.942 8726.48,892.942 8726.48,1017.73 8802.2,1017.73 8802.2,1193.21 8877.93,1193.21 8877.93,345.073 8953.66,345.073 8953.66,86.1857 9029.39,86.1857 9105.11,86.1857 9180.84,86.1857 9256.57,86.1857 9332.3,86.1857 9408.02,86.1857 9483.75,86.1857 9559.48,86.1857 9635.21,86.1857 9710.93,86.1857 9786.66,86.1857 9862.39,86.1857 9938.11,86.1857 10013.8,86.1857 10089.6,86.1857 10165.3,86.1857 10241,86.1857 10316.8,86.1857 10392.5,86.1857 10468.2,86.1857 10543.9,86.1857 10619.7,86.1857 10695.4,86.1857 10771.1,86.1857 10846.8,86.1857 10922.6,86.1857 10998.3,86.1857 11074,86.1857 11149.8,86.1857 11225.5,86.1857 11301.2,86.1857 11376.9,86.1857 11376.9,850.474 11452.7,850.474 11452.7,100.939 11528.4,100.939 11528.4,86.1857 11604.1,86.1857 11679.8,86.1857 11755.6,86.1857 11831.3,86.1857 11907,86.1857 11982.8,86.1857 12058.5,86.1857 12134.2,86.1857 12209.9,86.1857 12285.7,86.1857 12361.4,86.1857 12437.1,86.1857 12512.8,86.1857 12588.6,86.1857 12664.3,86.1857 12740,86.1857 12815.8,86.1857 12891.5,86.1857 12891.5,849.292 12967.2,849.292 12967.2,86.1857 13042.9,86.1857 13118.7,86.1857 13194.4,86.1857 13270.1,86.1857 13345.8,86.1857 13421.6,86.1857 13497.3,86.1857 13573,86.1857 13648.8,86.1857 13724.5,86.1857 13800.2,86.1857 13875.9,86.1857 13951.7,86.1857 14027.4,86.1857 14103.1,86.1857 14178.8,86.1857 14254.6,86.1857 14330.3,86.1857 14406,86.1857 14481.8,86.1857 14557.5,86.1857 14633.2,86.1857 14708.9,86.1857 14784.7,86.1857 14860.4,86.1857 14936.1,86.1857 15011.8,86.1857 15087.6,86.1857 15163.3,86.1857 15239,86.1857 15314.8,86.1857 15390.5,86.1857 15466.2,86.1857 15541.9,86.1857 15617.7,86.1857 15693.4,86.1857 15769.1,86.1857 15844.9,86.1857 15920.6,86.1857 15996.3,86.1857 16072,86.1857 16147.8,86.1857 16223.5,86.1857 16299.2,86.1857 16374.9,86.1857 16450.7,86.1857 16526.4,86.1857 16602.1,86.1857 16677.9,86.1857 16753.6,86.1857 16829.3,86.1857 16905,86.1857 16980.8,86.1857 16980.8,738.707 17056.5,738.707 17056.5,86.1857 17132.2,86.1857 17207.9,86.1857 17283.7,86.1857 17359.4,86.1857 17435.1,86.1857 17510.9,86.1857 17586.6,86.1857 17662.3,86.1857 17738,86.1857 17813.8,86.1857 17889.5,86.1857 17965.2,86.1857 18040.9,86.1857 18116.7,86.1857 18192.4,86.1857 18268.1,86.1857 18343.9,86.1857 18419.6,86.1857 18495.3,86.1857 18571,86.1857 18646.8,86.1857 18722.5,86.1857 18798.2,86.1857 18798.2,668.441 18873.9,668.441 18873.9,349.033 18949.7,349.033 18949.7,86.1857 19025.4,86.1857 19101.1,86.1857 19176.9,86.1857 19252.6,86.1857 19328.3,86.1857 19404,86.1857 19479.8,86.1857 19555.5,86.1857 19631.2,86.1857 19706.9,86.1857 19706.9,708.417 19782.7,708.417 19782.7,86.1857 19858.4,86.1857 19934.1,86.1857 20009.9,86.1857 20085.6,86.1857 20161.3,86.1857 20237,86.1857 20312.8,86.1857 20388.5,86.1857 20388.5,801.592 20464.2,801.592 20464.2,86.1857 20539.9,86.1857 20615.7,86.1857 20691.4,86.1857 20767.1,86.1857 20842.9,86.1857 20842.9,313.279 20918.6,313.279 20918.6,678.787 20994.3,678.787 20994.3,1024.05 21070,1024.05 21070,86.1857 21145.8,86.1857 21221.5,86.1857 21297.2,86.1857 21372.9,86.1857 21448.7,86.1857 21524.4,86.1857 21600.1,86.1857 21675.9,86.1857 21751.6,86.1857 21827.3,86.1857 21903,86.1857 21978.8,86.1857 22054.5,86.1857 22130.2,86.1857 22205.9,86.1857 22281.7,86.1857 22357.4,86.1857 22433.1,86.1857 22508.9,86.1857 22584.6,86.1857 22660.3,86.1857 22736,86.1857 22811.8,86.1857 22887.5,86.1857 22963.2,86.1857 23039,86.1857 23114.7,86.1857 23190.4,86.1857 23266.1,86.1857 23341.9,86.1857 23417.6,86.1857 23493.3,86.1857 23569,86.1857 23644.8,86.1857 23720.5,86.1857 23796.2,86.1857 23872,86.1857 23947.7,86.1857 23947.7,441.222 24023.4,441.222 24023.4,732.072 24099.1,732.072 24099.1,642.822 24174.9,642.822 24174.9,86.1857 24250.6,86.1857 24326.3,86.1857 24402,86.1857 24477.8,86.1857 24477.8,417.359 24553.5,417.359 24553.5,1246.33 24629.2,1246.33 24629.2,86.1857 24705,86.1857 24780.7,86.1857 24856.4,86.1857 24932.1,86.1857 24932.1,371.772 25007.9,371.772 25007.9,1107.33 25083.6,1107.33 25083.6,86.1857 25159.3,86.1857 25235,86.1857 25310.8,86.1857 25310.8,93.7078 25386.5,93.7078 25386.5,239.37 25462.2,239.37 25462.2,378.196 25538,378.196 25538,1384.24 25613.7,1384.24 25613.7,1041.3 25689.4,1041.3 25689.4,1023.94 25765.1,1023.94 25765.1,1288.87 25840.9,1288.87 25840.9,1161.25 25916.6,1161.25 25916.6,1304.12 25992.3,1304.12 25992.3,1017.25 26068,1017.25 26068,751.172 26143.8,751.172 26143.8,430.752 26219.5,430.752 26219.5,86.1857 26295.2,86.1857 26371,86.1857 26446.7,86.1857 26522.4,86.1857 26598.1,86.1857 26673.9,86.1857 26749.6,86.1857 26825.3,86.1857 26901,86.1857 26976.8,86.1857 27052.5,86.1857 27128.2,86.1857 27204,86.1857 27279.7,86.1857 27355.4,86.1857 27431.1,86.1857 27506.9,86.1857 27582.6,86.1857 27658.3,86.1857 27734,86.1857 27809.8,86.1857 27885.5,86.1857 27961.2,86.1857 28037,86.1857 28112.7,86.1857 28188.4,86.1857 28264.1,86.1857 28339.9,86.1857 28415.6,86.1857 28491.3,86.1857 28567,86.1857 28642.8,86.1857 28718.5,86.1857 28794.2,86.1857 28870,86.1857 28945.7,86.1857 29021.4,86.1857 29097.1,86.1857 29172.9,86.1857 29248.6,86.1857 29324.3,86.1857 29400.1,86.1857 29475.8,86.1857 29551.5,86.1857 29627.2,86.1857 29703,86.1857 29778.7,86.1857 29854.4,86.1857 29930.1,86.1857 29930.1,466.03 30005.9,466.03 30005.9,1004.36 30081.6,1004.36 30081.6,1282.39 30157.3,1282.39 30157.3,1298.77 30233.1,1298.77 30233.1,524.299 30308.8,524.299 30308.8,86.1857 30384.5,86.1857 30460.2,86.1857 30536,86.1857 30611.7,86.1857 30687.4,86.1857 30763.1,86.1857 30838.9,86.1857 30914.6,86.1857 30990.3,86.1857 30990.3,752.831 31066.1,752.831 31066.1,126.119 31141.8,126.119 31141.8,86.1857 31217.5,86.1857 31293.2,86.1857 31369,86.1857 31369,779.466 31444.7,779.466 31444.7,86.1857 31520.4,86.1857 31596.1,86.1857 31671.9,86.1857 31747.6,86.1857 31823.3,86.1857 31899.1,86.1857 31974.8,86.1857 32050.5,86.1857 32126.2,86.1857 32202,86.1857 32277.7,86.1857 32353.4,86.1857 32429.1,86.1857 32504.9,86.1857 32580.6,86.1857 32656.3,86.1857 32732.1,86.1857 32732.1,649.323 32807.8,649.323 32807.8,86.1857 32883.5,86.1857 32959.2,86.1857 33035,86.1857 33110.7,86.1857 33186.4,86.1857 33262.1,86.1857 33337.9,86.1857 33413.6,86.1857 33489.3,86.1857 33565.1,86.1857 33640.8,86.1857 33716.5,86.1857 33792.2,86.1857 33868,86.1857 33943.7,86.1857 34019.4,86.1857 34095.1,86.1857 34170.9,86.1857 34246.6,86.1857 34322.3,86.1857 34398.1,86.1857 34473.8,86.1857 34473.8,170.484 34549.5,170.484 34549.5,86.1857 34625.2,86.1857 34625.2,88.1087 34701,88.1087 34701,86.1857 34776.7,86.1857 34852.4,86.1857 34928.1,86.1857 35003.9,86.1857 35079.6,86.1857 35155.3,86.1857 35231.1,86.1857 35306.8,86.1857 35382.5,86.1857 35458.2,86.1857 35534,86.1857 35609.7,86.1857 35685.4,86.1857 35761.2,86.1857 35836.9,86.1857 35912.6,86.1857 35988.3,86.1857 36064.1,86.1857 36139.8,86.1857 36215.5,86.1857 36291.2,86.1857 36367,86.1857 36442.7,86.1857 36518.4,86.1857 36594.2,86.1857 36669.9,86.1857 36745.6,86.1857 36745.6,208.689 36821.3,208.689 36821.3,86.1857 36897.1,86.1857 36972.8,86.1857 37048.5,86.1857 37124.2,86.1857 37200,86.1857 37275.7,86.1857 37351.4,86.1857 37427.2,86.1857 37502.9,86.1857 37578.6,86.1857 37654.3,86.1857 37730.1,86.1857 37805.8,86.1857 37881.5,86.1857 37957.2,86.1857 38033,86.1857 38108.7,86.1857 38184.4,86.1857 38260.2,86.1857 38335.9,86.1857 38411.6,86.1857 38487.3,86.1857 38563.1,86.1857 38638.8,86.1857 38714.5,86.1857 38790.2,86.1857 38866,86.1857 38941.7,86.1857 39017.4,86.1857 39093.2,86.1857 39168.9,86.1857 39244.6,86.1857 39244.6,988.76 39320.3,988.76 39320.3,290.877 39396.1,290.877 39396.1,86.1857 39471.8,86.1857 39547.5,86.1857 39623.2,86.1857 39699,86.1857 39774.7,86.1857 39850.4,86.1857 39926.2,86.1857 40001.9,86.1857 40077.6,86.1857 40153.3,86.1857 40229.1,86.1857 40304.8,86.1857 40380.5,86.1857 40380.5,828.887 40456.2,828.887 40456.2,86.1857 40532,86.1857 40607.7,86.1857 40683.4,86.1857 40759.2,86.1857 40834.9,86.1857 40910.6,86.1857 40986.3,86.1857 41062.1,86.1857 41137.8,86.1857 41213.5,86.1857 41289.2,86.1857 41365,86.1857 41440.7,86.1857 41516.4,86.1857 41592.2,86.1857 41667.9,86.1857 41743.6,86.1857 41819.3,86.1857 41895.1,86.1857 41970.8,86.1857 42046.5,86.1857 42122.3,86.1857 42198,86.1857 42273.7,86.1857 42349.4,86.1857 42425.2,86.1857 42500.9,86.1857 42576.6,86.1857 42576.6,247.692 42652.3,247.692 42652.3,86.1857 42728.1,86.1857 42803.8,86.1857 42879.5,86.1857 42955.3,86.1857 43031,86.1857 43106.7,86.1857 43182.4,86.1857 43258.2,86.1857 43333.9,86.1857 43409.6,86.1857 43485.3,86.1857 43561.1,86.1857 43636.8,86.1857 43712.5,86.1857 43788.3,86.1857 43864,86.1857 43939.7,86.1857 44015.4,86.1857 44091.2,86.1857 44166.9,86.1857 44242.6,86.1857 44318.3,86.1857 44394.1,86.1857 44469.8,86.1857 44545.5,86.1857 44621.3,86.1857 44697,86.1857 44772.7,86.1857 44848.4,86.1857 44924.2,86.1857 44999.9,86.1857 45075.6,86.1857 45151.3,86.1857 45227.1,86.1857 45302.8,86.1857 45378.5,86.1857 45454.3,86.1857 45530,86.1857 45605.7,86.1857 45681.4,86.1857 45681.4,613.278 45757.2,613.278 45757.2,1014.94 45832.9,1014.94 45832.9,86.1857 45908.6,86.1857 45984.3,86.1857 46060.1,86.1857 46135.8,86.1857 46211.5,86.1857 46287.3,86.1857 46363,86.1857 46438.7,86.1857 46438.7,826.39 46514.4,826.39 46514.4,86.1857 46590.2,86.1857 46665.9,86.1857 46741.6,86.1857 46817.3,86.1857 46893.1,86.1857 46968.8,86.1857 47044.5,86.1857 47120.3,86.1857 47196,86.1857 47271.7,86.1857 47347.4,86.1857 47423.2,86.1857 47498.9,86.1857 47574.6,86.1857 47574.6,264.573 47650.3,264.573 47650.3,942.992 47726.1,942.992 47726.1,657.885 47801.8,657.885 47801.8,86.1857 47877.5,86.1857 47953.3,86.1857 48029,86.1857 48104.7,86.1857 48180.4,86.1857 48256.2,86.1857 48331.9,86.1857 48407.6,86.1857 48483.3,86.1857 48559.1,86.1857 48634.8,86.1857 48710.5,86.1857 48786.3,86.1857 48862,86.1857 48937.7,86.1857 49013.4,86.1857 49089.2,86.1857 49089.2,354.114 49164.9,354.114 49164.9,1302.62 49240.6,1302.62 49240.6,1249.38 49316.4,1249.38 49316.4,86.1857 49392.1,86.1857 49467.8,86.1857 49543.5,86.1857 49619.3,86.1857 49695,86.1857 49770.7,86.1857 49846.4,86.1857 49922.2,86.1857 49997.9,86.1857 50073.6,86.1857 50149.4,86.1857 50225.1,86.1857 50300.8,86.1857 50376.5,86.1857 50376.5,591.101 50452.3,591.101 50452.3,970.3 50528,970.3 50528,1018.31 50603.7,1018.31 50603.7,629.474 50679.4,629.474 50679.4,86.1857 50755.2,86.1857 50830.9,86.1857 50906.6,86.1857 50982.4,86.1857 51058.1,86.1857 51133.8,86.1857 51209.5,86.1857 51285.3,86.1857 51361,86.1857 51436.7,86.1857 51512.4,86.1857 51588.2,86.1857 51663.9,86.1857 51739.6,86.1857 51815.4,86.1857 51891.1,86.1857 51966.8,86.1857 52042.5,86.1857 52042.5,985.105 52118.3,985.105 52118.3,86.1857 52194,86.1857 52269.7,86.1857 52345.4,86.1857 52421.2,86.1857 52496.9,86.1857 52572.6,86.1857 52648.4,86.1857 52724.1,86.1857 52799.8,86.1857 52875.5,86.1857 52951.3,86.1857 53027,86.1857 53102.7,86.1857 53178.4,86.1857 53254.2,86.1857 53329.9,86.1857 53405.6,86.1857 53481.4,86.1857 53557.1,86.1857 53632.8,86.1857 53708.5,86.1857 53784.3,86.1857 53860,86.1857 53935.7,86.1857 54011.4,86.1857 54087.2,86.1857 54162.9,86.1857 54238.6,86.1857 54314.4,86.1857 54390.1,86.1857 54465.8,86.1857 54541.5,86.1857 54541.5,418.74 54617.3,418.74 54617.3,86.1857 54693,86.1857 54768.7,86.1857 54844.4,86.1857 54844.4,349.185 54920.2,349.185 54920.2,967.421 54995.9,967.421 54995.9,992.069 55071.6,992.069 55071.6,949.191 55147.4,949.191 55147.4,86.1857 55223.1,86.1857 55298.8,86.1857 55374.5,86.1857 55450.3,86.1857 55526,86.1857 55601.7,86.1857 55677.5,86.1857 55753.2,86.1857 55828.9,86.1857 55904.6,86.1857 55980.4,86.1857 56056.1,86.1857 56131.8,86.1857 56207.5,86.1857 56283.3,86.1857 56359,86.1857 56434.7,86.1857 56510.5,86.1857 56586.2,86.1857 56661.9,86.1857 56661.9,503.726 56737.6,503.726 56737.6,86.1857 56813.4,86.1857 56889.1,86.1857 56964.8,86.1857 57040.5,86.1857 57116.3,86.1857 57192,86.1857 57267.7,86.1857 57343.5,86.1857 57419.2,86.1857 57494.9,86.1857 57570.6,86.1857 57646.4,86.1857 57722.1,86.1857 57797.8,86.1857 57797.8,421.226 57873.5,421.226 57873.5,652.394 57949.3,652.394 57949.3,86.1857 58025,86.1857 58100.7,86.1857 58176.5,86.1857 58252.2,86.1857 58327.9,86.1857 58403.6,86.1857 58479.4,86.1857 58555.1,86.1857 58630.8,86.1857 58706.5,86.1857 58782.3,86.1857 58858,86.1857 58933.7,86.1857 59009.5,86.1857 59085.2,86.1857 59160.9,86.1857 59236.6,86.1857 59312.4,86.1857 59388.1,86.1857 59463.8,86.1857 59539.5,86.1857 59615.3,86.1857 59691,86.1857 59766.7,86.1857 59842.5,86.1857 59918.2,86.1857 59993.9,86.1857 60069.6,86.1857 60145.4,86.1857 60221.1,86.1857 60296.8,86.1857 60372.5,86.1857 60448.3,86.1857 60524,86.1857 60599.7,86.1857 60599.7,612.667 60675.5,612.667 60675.5,900.778 60751.2,900.778 60751.2,86.1857 60826.9,86.1857 60902.6,86.1857 60978.4,86.1857 61054.1,86.1857 61129.8,86.1857 61205.5,86.1857 61281.3,86.1857 61357,86.1857 61432.7,86.1857 61508.5,86.1857 61584.2,86.1857 61659.9,86.1857 61735.6,86.1857 61811.4,86.1857 61887.1,86.1857 61962.8,86.1857 62038.6,86.1857 62038.6,602.71 62114.3,602.71 62114.3,967.397 62190,967.397 62190,86.1857 62265.7,86.1857 62341.5,86.1857 62417.2,86.1857 62417.2,317.34 62492.9,317.34 62492.9,1012.46 62568.6,1012.46 62568.6,86.1857 62644.4,86.1857 62720.1,86.1857 62795.8,86.1857 62871.6,86.1857 62947.3,86.1857 63023,86.1857 63023,335.401 63098.7,335.401 63098.7,86.1857 63174.5,86.1857 63250.2,86.1857 63325.9,86.1857 63401.6,86.1857 63401.6,372.875 63477.4,372.875 63477.4,273.036 63553.1,273.036 63553.1,507.675 63628.8,507.675 63628.8,86.1857 63704.6,86.1857 63780.3,86.1857 63856,86.1857 63931.7,86.1857 64007.5,86.1857 64083.2,86.1857 64158.9,86.1857 64234.6,86.1857 64310.4,86.1857 64386.1,86.1857 64461.8,86.1857 64537.6,86.1857 64613.3,86.1857 64689,86.1857 64764.7,86.1857 64840.5,86.1857 64916.2,86.1857 64991.9,86.1857 65067.6,86.1857 65143.4,86.1857 65219.1,86.1857 65294.8,86.1857 65370.6,86.1857 65446.3,86.1857 65522,86.1857 65597.7,86.1857 65673.5,86.1857 65749.2,86.1857 65824.9,86.1857 65900.6,86.1857 65976.4,86.1857 66052.1,86.1857 66127.8,86.1857 66203.6,86.1857 66279.3,86.1857 66355,86.1857 66430.7,86.1857 66506.5,86.1857 66582.2,86.1857 66657.9,86.1857 66733.6,86.1857 66809.4,86.1857 66885.1,86.1857 66960.8,86.1857 67036.6,86.1857 67112.3,86.1857 67188,86.1857 67263.7,86.1857 67339.5,86.1857 67415.2,86.1857 67490.9,86.1857 67566.6,86.1857 67642.4,86.1857 67718.1,86.1857 67793.8,86.1857 67869.6,86.1857 67945.3,86.1857 68021,86.1857 68096.7,86.1857 68172.5,86.1857 68248.2,86.1857 68323.9,86.1857 68399.6,86.1857 68475.4,86.1857 68551.1,86.1857 68626.8,86.1857 68702.6,86.1857 68778.3,86.1857 68854,86.1857 68929.7,86.1857 69005.5,86.1857 69081.2,86.1857 69156.9,86.1857 69232.7,86.1857 69308.4,86.1857 69384.1,86.1857 69459.8,86.1857 69535.6,86.1857 69611.3,86.1857 69687,86.1857 69762.7,86.1857 69838.5,86.1857 69914.2,86.1857 69989.9,86.1857 70065.7,86.1857 70141.4,86.1857 70217.1,86.1857 70292.8,86.1857 70368.6,86.1857 70444.3,86.1857 70520,86.1857 70595.7,86.1857 70671.5,86.1857 70747.2,86.1857 70822.9,86.1857 70898.7,86.1857 70974.4,86.1857 71050.1,86.1857 71125.8,86.1857 71201.6,86.1857 71277.3,86.1857 71353,86.1857 71428.7,86.1857 71504.5,86.1857 71580.2,86.1857 71655.9,86.1857 71731.7,86.1857 71807.4,86.1857 71883.1,86.1857 71958.8,86.1857 72034.6,86.1857 72034.6,368.69 72110.3,368.69 72110.3,86.1857 72186,86.1857 72261.7,86.1857 72337.5,86.1857 72413.2,86.1857 72488.9,86.1857 72564.7,86.1857 72640.4,86.1857 72716.1,86.1857 72791.8,86.1857 72867.6,86.1857 72943.3,86.1857 73019,86.1857 73094.7,86.1857 73170.5,86.1857 73246.2,86.1857 73246.2,93.9187 73321.9,93.9187 73321.9,86.1857 73397.7,86.1857 73473.4,86.1857 73549.1,86.1857 73624.8,86.1857 73700.6,86.1857 73776.3,86.1857 73852,86.1857 73927.7,86.1857 74003.5,86.1857 74079.2,86.1857 74154.9,86.1857 74230.7,86.1857 74306.4,86.1857 74382.1,86.1857 74457.8,86.1857 74533.6,86.1857 74609.3,86.1857 74685,86.1857 74760.7,86.1857 74836.5,86.1857 74912.2,86.1857 74987.9,86.1857 75063.7,86.1857 75139.4,86.1857 75215.1,86.1857 75290.8,86.1857 75366.6,86.1857 75442.3,86.1857 75518,86.1857 75518,426.585 75593.8,426.585 75593.8,409.286 75669.5,409.286 75669.5,86.1857 75745.2,86.1857 75820.9,86.1857 75896.7,86.1857 75972.4,86.1857 76048.1,86.1857 76123.8,86.1857 76123.8,324.655 76199.6,324.655 76199.6,86.1857 76275.3,86.1857 76351,86.1857 76426.8,86.1857 76502.5,86.1857 76578.2,86.1857 76653.9,86.1857 76729.7,86.1857 76805.4,86.1857 76881.1,86.1857 76956.8,86.1857 77032.6,86.1857 77108.3,86.1857 77184,86.1857 77184,630.692 77259.8,630.692 77259.8,1033.59 77335.5,1033.59 77335.5,901.331 77411.2,901.331 77411.2,510.62 77486.9,510.62 77486.9,833.401 77562.7,833.401 77562.7,907.941 77638.4,907.941 77638.4,556.313 77714.1,556.313 77714.1,86.1857 77789.8,86.1857 77789.8,922.106 77865.6,922.106 77865.6,1083.95 77941.3,1083.95 77941.3,627.848 78017,627.848 78017,86.1857 78092.8,86.1857 78092.8,169.789 78168.5,169.789 78168.5,86.1857 78244.2,86.1857 78319.9,86.1857 78395.7,86.1857 78471.4,86.1857 78547.1,86.1857 78622.8,86.1857 78698.6,86.1857 78774.3,86.1857 78850,86.1857 78925.8,86.1857 79001.5,86.1857 79001.5,1028.79 79077.2,1028.79 79077.2,922.764 79152.9,922.764 79152.9,486.155 79228.7,486.155 79228.7,86.1857 79304.4,86.1857 79380.1,86.1857 79455.8,86.1857 79455.8,115.801 79531.6,115.801 79531.6,1101.94 79607.3,1101.94 79607.3,332.72 79683,332.72 79683,134.798 79758.8,134.798 79758.8,427.565 79834.5,427.565 79834.5,949.123 79910.2,949.123 79910.2,86.1857 79985.9,86.1857 80061.7,86.1857 80137.4,86.1857 80213.1,86.1857 80288.8,86.1857 80364.6,86.1857 80440.3,86.1857 80516,86.1857 80591.8,86.1857 80667.5,86.1857 80743.2,86.1857 80818.9,86.1857 80894.7,86.1857 80970.4,86.1857 81046.1,86.1857 81046.1,345.743 81121.8,345.743 81121.8,982.394 81197.6,982.394 81197.6,915.378 81273.3,915.378 81273.3,937.101 81349,937.101 81349,482.832 81424.8,482.832 81424.8,86.1857 81500.5,86.1857 81576.2,86.1857 81651.9,86.1857 81727.7,86.1857 81803.4,86.1857 81879.1,86.1857 81954.9,86.1857 82030.6,86.1857 82106.3,86.1857 82182,86.1857 82257.8,86.1857 82333.5,86.1857 82409.2,86.1857 82484.9,86.1857 82560.7,86.1857 82636.4,86.1857 82712.1,86.1857 82787.9,86.1857 82863.6,86.1857 82939.3,86.1857 83015,86.1857 83090.8,86.1857 83166.5,86.1857 83242.2,86.1857 83317.9,86.1857 83393.7,86.1857 83469.4,86.1857 83545.1,86.1857 83620.9,86.1857 83696.6,86.1857 83772.3,86.1857 83848,86.1857 83923.8,86.1857 83999.5,86.1857 84075.2,86.1857 84150.9,86.1857 84226.7,86.1857 84302.4,86.1857 84378.1,86.1857 84453.9,86.1857 84529.6,86.1857 84605.3,86.1857 84681,86.1857 84756.8,86.1857 84832.5,86.1857 84908.2,86.1857 84983.9,86.1857 85059.7,86.1857 85135.4,86.1857 85211.1,86.1857 85286.9,86.1857 85362.6,86.1857 85438.3,86.1857 85514,86.1857 85589.8,86.1857 85665.5,86.1857 85741.2,86.1857 85816.9,86.1857 85892.7,86.1857 85968.4,86.1857 86044.1,86.1857 86119.9,86.1857 86195.6,86.1857 86271.3,86.1857 86347,86.1857 86422.8,86.1857 86498.5,86.1857 86574.2,86.1857 86649.9,86.1857 86725.7,86.1857 86801.4,86.1857 86877.1,86.1857 86952.9,86.1857 87028.6,86.1857 87104.3,86.1857 87180,86.1857 87255.8,86.1857 87331.5,86.1857 87407.2,86.1857 87482.9,86.1857 87558.7,86.1857 87634.4,86.1857 87710.1,86.1857 87785.9,86.1857 87861.6,86.1857 87937.3,86.1857 88013,86.1857 88088.8,86.1857 88088.8,183.542 88164.5,183.542 88164.5,1205.93 88240.2,1205.93 88240.2,875.241 88316,875.241 88316,1312.85 88391.7,1312.85 88391.7,683.158 88467.4,683.158 88467.4,675.154 88543.1,675.154 88543.1,292.344 88618.9,292.344 88618.9,86.1857 88694.6,86.1857 88770.3,86.1857 88846,86.1857 88921.8,86.1857 88997.5,86.1857 89073.2,86.1857 89149,86.1857 89224.7,86.1857 89300.4,86.1857 89376.1,86.1857 89451.9,86.1857 89527.6,86.1857 89603.3,86.1857 89679,86.1857 89754.8,86.1857 89830.5,86.1857 89906.2,86.1857 89982,86.1857 90057.7,86.1857 90133.4,86.1857 90209.1,86.1857 90284.9,86.1857 90360.6,86.1857 90436.3,86.1857 90512,86.1857 90587.8,86.1857 90663.5,86.1857 90739.2,86.1857 90815,86.1857 90890.7,86.1857 90966.4,86.1857 91042.1,86.1857 91117.9,86.1857 91193.6,86.1857 91269.3,86.1857 91345,86.1857 91420.8,86.1857 91496.5,86.1857 91572.2,86.1857 91648,86.1857 91723.7,86.1857 91799.4,86.1857 91875.1,86.1857 91950.9,86.1857 92026.6,86.1857 92102.3,86.1857 92178,86.1857 92253.8,86.1857 92329.5,86.1857 92405.2,86.1857 92481,86.1857 92556.7,86.1857 92632.4,86.1857 92708.1,86.1857 92783.9,86.1857 92859.6,86.1857 92935.3,86.1857 93011,86.1857 93086.8,86.1857 93162.5,86.1857 93238.2,86.1857 93314,86.1857 93389.7,86.1857 93465.4,86.1857 93541.1,86.1857 93616.9,86.1857 93692.6,86.1857 93768.3,86.1857 93844,86.1857 93919.8,86.1857 93995.5,86.1857 94071.2,86.1857 94147,86.1857 94222.7,86.1857 94298.4,86.1857 94374.1,86.1857 94449.9,86.1857 94525.6,86.1857 94601.3,86.1857 94677,86.1857 94752.8,86.1857 94828.5,86.1857 94904.2,86.1857 94980,86.1857 95055.7,86.1857 95131.4,86.1857 95207.1,86.1857 95282.9,86.1857 95358.6,86.1857 95434.3,86.1857 95510.1,86.1857 95585.8,86.1857 95661.5,86.1857 95737.2,86.1857 95813,86.1857 95888.7,86.1857 95964.4,86.1857 96040.1,86.1857 96115.9,86.1857 96191.6,86.1857 96267.3,86.1857 96343.1,86.1857 96418.8,86.1857 96494.5,86.1857 96570.2,86.1857 96646,86.1857 96721.7,86.1857 96797.4,86.1857 96873.1,86.1857 96948.9,86.1857 97024.6,86.1857 97100.3,86.1857 97176.1,86.1857 97251.8,86.1857 97327.5,86.1857 97403.2,86.1857 97479,86.1857 97554.7,86.1857 97630.4,86.1857 97706.1,86.1857 97781.9,86.1857 97857.6,86.1857 97933.3,86.1857 98009.1,86.1857 98084.8,86.1857 98160.5,86.1857 98236.2,86.1857 98312,86.1857 98387.7,86.1857 98463.4,86.1857 98539.1,86.1857 98614.9,86.1857 98690.6,86.1857 98766.3,86.1857 98842.1,86.1857 98917.8,86.1857 98993.5,86.1857 98993.5,310.114 99069.2,310.114 99069.2,86.1857 99145,86.1857 99220.7,86.1857 99296.4,86.1857 99372.1,86.1857 99447.9,86.1857 99523.6,86.1857 99599.3,86.1857 99675.1,86.1857 99750.8,86.1857 99826.5,86.1857 99902.2,86.1857 99978,86.1857 100054,86.1857 100129,86.1857 100205,86.1857 100281,86.1857 100357,86.1857 100432,86.1857 100508,86.1857 100584,86.1857 100660,86.1857 100735,86.1857 100811,86.1857 100887,86.1857 100962,86.1857 100962,1308.94 101038,1308.94 101038,86.1857 101114,86.1857 101190,86.1857 101265,86.1857 101341,86.1857 101417,86.1857 101417,1101.41 101493,1101.41 101493,444.025 101568,444.025 101568,86.1857 101644,86.1857 101720,86.1857 101795,86.1857 101871,86.1857 101947,86.1857 102023,86.1857 102098,86.1857 102174,86.1857 102250,86.1857 102326,86.1857 102401,86.1857 102477,86.1857 102553,86.1857 102628,86.1857 102704,86.1857 102780,86.1857 102856,86.1857 102931,86.1857 103007,86.1857 103083,86.1857 103159,86.1857 103234,86.1857 103310,86.1857 103386,86.1857 103461,86.1857 103537,86.1857 103613,86.1857 103689,86.1857 103764,86.1857 103840,86.1857 103916,86.1857 103992,86.1857 104067,86.1857 104143,86.1857 104219,86.1857 104294,86.1857 104370,86.1857 104446,86.1857 104522,86.1857 104597,86.1857 104673,86.1857 104749,86.1857 104825,86.1857 104900,86.1857 104976,86.1857 105052,86.1857 105127,86.1857 105203,86.1857 105279,86.1857 105355,86.1857 105430,86.1857 105506,86.1857 105582,86.1857 105658,86.1857 105733,86.1857 105809,86.1857 105885,86.1857 105960,86.1857 106036,86.1857 106112,86.1857 106188,86.1857 106263,86.1857 106339,86.1857 106415,86.1857 106491,86.1857 "/>
<path clip-path="url(#clip290)" d="M303.068 1377.32 L1137.18 1377.32 L1137.18 1273.64 L303.068 1273.64  Z" fill="#ffffff" fill-rule="evenodd" fill-opacity="1"/>
<polyline clip-path="url(#clip290)" style="stroke:#000000; stroke-linecap:round; stroke-linejoin:round; stroke-width:4; stroke-opacity:1; fill:none" points="303.068,1377.32 1137.18,1377.32 1137.18,1273.64 303.068,1273.64 303.068,1377.32 "/>
<polyline clip-path="url(#clip290)" style="stroke:#009af9; stroke-linecap:round; stroke-linejoin:round; stroke-width:4; stroke-opacity:1; fill:none" points="326.628,1325.48 467.986,1325.48 "/>
<path clip-path="url(#clip290)" d="M515.573 1328.73 L515.573 1330.81 L495.99 1330.81 Q496.267 1335.21 498.629 1337.52 Q501.013 1339.82 505.249 1339.82 Q507.703 1339.82 509.994 1339.21 Q512.309 1338.61 514.578 1337.41 L514.578 1341.44 Q512.286 1342.41 509.878 1342.92 Q507.471 1343.43 504.994 1343.43 Q498.791 1343.43 495.156 1339.82 Q491.545 1336.2 491.545 1330.05 Q491.545 1323.68 494.971 1319.95 Q498.42 1316.2 504.254 1316.2 Q509.485 1316.2 512.517 1319.58 Q515.573 1322.94 515.573 1328.73 M511.314 1327.48 Q511.267 1323.98 509.346 1321.9 Q507.448 1319.82 504.3 1319.82 Q500.735 1319.82 498.582 1321.83 Q496.453 1323.84 496.129 1327.5 L511.314 1327.48 Z" fill="#000000" fill-rule="nonzero" fill-opacity="1" /><path clip-path="url(#clip290)" d="M522.564 1306.74 L526.823 1306.74 L526.823 1342.76 L522.564 1342.76 L522.564 1306.74 Z" fill="#000000" fill-rule="nonzero" fill-opacity="1" /><path clip-path="url(#clip290)" d="M557.911 1328.73 L557.911 1330.81 L538.327 1330.81 Q538.605 1335.21 540.966 1337.52 Q543.351 1339.82 547.587 1339.82 Q550.04 1339.82 552.332 1339.21 Q554.647 1338.61 556.915 1337.41 L556.915 1341.44 Q554.624 1342.41 552.216 1342.92 Q549.809 1343.43 547.332 1343.43 Q541.128 1343.43 537.494 1339.82 Q533.883 1336.2 533.883 1330.05 Q533.883 1323.68 537.309 1319.95 Q540.758 1316.2 546.591 1316.2 Q551.823 1316.2 554.855 1319.58 Q557.911 1322.94 557.911 1328.73 M553.651 1327.48 Q553.605 1323.98 551.684 1321.9 Q549.786 1319.82 546.638 1319.82 Q543.073 1319.82 540.92 1321.83 Q538.79 1323.84 538.466 1327.5 L553.651 1327.48 Z" fill="#000000" fill-rule="nonzero" fill-opacity="1" /><path clip-path="url(#clip290)" d="M583.559 1317.82 L583.559 1321.81 Q581.753 1320.81 579.924 1320.32 Q578.119 1319.82 576.267 1319.82 Q572.124 1319.82 569.832 1322.45 Q567.54 1325.07 567.54 1329.82 Q567.54 1334.56 569.832 1337.2 Q572.124 1339.82 576.267 1339.82 Q578.119 1339.82 579.924 1339.33 Q581.753 1338.82 583.559 1337.82 L583.559 1341.76 Q581.776 1342.59 579.855 1343.01 Q577.957 1343.43 575.804 1343.43 Q569.948 1343.43 566.499 1339.75 Q563.05 1336.07 563.05 1329.82 Q563.05 1323.47 566.522 1319.84 Q570.017 1316.2 576.082 1316.2 Q578.049 1316.2 579.924 1316.62 Q581.799 1317.01 583.559 1317.82 Z" fill="#000000" fill-rule="nonzero" fill-opacity="1" /><path clip-path="url(#clip290)" d="M595.179 1309.47 L595.179 1316.83 L603.952 1316.83 L603.952 1320.14 L595.179 1320.14 L595.179 1334.21 Q595.179 1337.38 596.035 1338.29 Q596.915 1339.19 599.577 1339.19 L603.952 1339.19 L603.952 1342.76 L599.577 1342.76 Q594.647 1342.76 592.772 1340.93 Q590.897 1339.07 590.897 1334.21 L590.897 1320.14 L587.772 1320.14 L587.772 1316.83 L590.897 1316.83 L590.897 1309.47 L595.179 1309.47 Z" fill="#000000" fill-rule="nonzero" fill-opacity="1" /><path clip-path="url(#clip290)" d="M624.577 1320.81 Q623.859 1320.39 623.003 1320.21 Q622.17 1320 621.151 1320 Q617.54 1320 615.596 1322.36 Q613.674 1324.7 613.674 1329.1 L613.674 1342.76 L609.392 1342.76 L609.392 1316.83 L613.674 1316.83 L613.674 1320.86 Q615.017 1318.5 617.17 1317.36 Q619.322 1316.2 622.401 1316.2 Q622.841 1316.2 623.373 1316.27 Q623.906 1316.32 624.554 1316.44 L624.577 1320.81 Z" fill="#000000" fill-rule="nonzero" fill-opacity="1" /><path clip-path="url(#clip290)" d="M638.049 1319.82 Q634.623 1319.82 632.632 1322.5 Q630.642 1325.16 630.642 1329.82 Q630.642 1334.47 632.609 1337.15 Q634.6 1339.82 638.049 1339.82 Q641.452 1339.82 643.443 1337.13 Q645.433 1334.45 645.433 1329.82 Q645.433 1325.21 643.443 1322.52 Q641.452 1319.82 638.049 1319.82 M638.049 1316.2 Q643.605 1316.2 646.776 1319.82 Q649.947 1323.43 649.947 1329.82 Q649.947 1336.18 646.776 1339.82 Q643.605 1343.43 638.049 1343.43 Q632.47 1343.43 629.299 1339.82 Q626.151 1336.18 626.151 1329.82 Q626.151 1323.43 629.299 1319.82 Q632.47 1316.2 638.049 1316.2 Z" fill="#000000" fill-rule="nonzero" fill-opacity="1" /><path clip-path="url(#clip290)" d="M657.007 1306.74 L661.267 1306.74 L661.267 1342.76 L657.007 1342.76 L657.007 1306.74 Z" fill="#000000" fill-rule="nonzero" fill-opacity="1" /><path clip-path="url(#clip290)" d="M670.179 1316.83 L674.438 1316.83 L674.438 1342.76 L670.179 1342.76 L670.179 1316.83 M670.179 1306.74 L674.438 1306.74 L674.438 1312.13 L670.179 1312.13 L670.179 1306.74 Z" fill="#000000" fill-rule="nonzero" fill-opacity="1" /><path clip-path="url(#clip290)" d="M681.498 1316.83 L701.729 1316.83 L701.729 1320.72 L685.711 1339.35 L701.729 1339.35 L701.729 1342.76 L680.919 1342.76 L680.919 1338.87 L696.938 1320.23 L681.498 1320.23 L681.498 1316.83 Z" fill="#000000" fill-rule="nonzero" fill-opacity="1" /><path clip-path="url(#clip290)" d="M730.41 1328.73 L730.41 1330.81 L710.826 1330.81 Q711.104 1335.21 713.465 1337.52 Q715.85 1339.82 720.086 1339.82 Q722.539 1339.82 724.831 1339.21 Q727.146 1338.61 729.414 1337.41 L729.414 1341.44 Q727.123 1342.41 724.715 1342.92 Q722.308 1343.43 719.831 1343.43 Q713.627 1343.43 709.993 1339.82 Q706.382 1336.2 706.382 1330.05 Q706.382 1323.68 709.808 1319.95 Q713.257 1316.2 719.09 1316.2 Q724.322 1316.2 727.354 1319.58 Q730.41 1322.94 730.41 1328.73 M726.15 1327.48 Q726.104 1323.98 724.183 1321.9 Q722.285 1319.82 719.137 1319.82 Q715.572 1319.82 713.419 1321.83 Q711.289 1323.84 710.965 1327.5 L726.15 1327.48 Z" fill="#000000" fill-rule="nonzero" fill-opacity="1" /><path clip-path="url(#clip290)" d="M752.423 1320.81 Q751.706 1320.39 750.849 1320.21 Q750.016 1320 748.998 1320 Q745.386 1320 743.442 1322.36 Q741.521 1324.7 741.521 1329.1 L741.521 1342.76 L737.238 1342.76 L737.238 1316.83 L741.521 1316.83 L741.521 1320.86 Q742.863 1318.5 745.016 1317.36 Q747.169 1316.2 750.248 1316.2 Q750.687 1316.2 751.22 1316.27 Q751.752 1316.32 752.4 1316.44 L752.423 1320.81 Z" fill="#000000" fill-rule="nonzero" fill-opacity="1" /><path clip-path="url(#clip290)" d="M769.808 1327.87 L782.284 1327.87 L782.284 1331.67 L769.808 1331.67 L769.808 1327.87 Z" fill="#000000" fill-rule="nonzero" fill-opacity="1" /><path clip-path="url(#clip290)" d="M789.622 1319.42 L789.622 1315.21 L819.298 1325.97 L819.298 1329.82 L789.622 1340.58 L789.622 1336.37 L813.465 1327.92 L789.622 1319.42 Z" fill="#000000" fill-rule="nonzero" fill-opacity="1" /><path clip-path="url(#clip290)" d="M865.409 1327.11 L865.409 1342.76 L861.15 1342.76 L861.15 1327.25 Q861.15 1323.57 859.715 1321.74 Q858.279 1319.91 855.409 1319.91 Q851.96 1319.91 849.969 1322.11 Q847.979 1324.31 847.979 1328.1 L847.979 1342.76 L843.696 1342.76 L843.696 1306.74 L847.979 1306.74 L847.979 1320.86 Q849.506 1318.52 851.566 1317.36 Q853.65 1316.2 856.358 1316.2 Q860.826 1316.2 863.117 1318.98 Q865.409 1321.74 865.409 1327.11 Z" fill="#000000" fill-rule="nonzero" fill-opacity="1" /><path clip-path="url(#clip290)" d="M878.534 1338.82 L894.853 1338.82 L894.853 1342.76 L872.909 1342.76 L872.909 1338.82 Q875.571 1336.07 880.154 1331.44 Q884.761 1326.78 885.941 1325.44 Q888.187 1322.92 889.066 1321.18 Q889.969 1319.42 889.969 1317.73 Q889.969 1314.98 888.025 1313.24 Q886.103 1311.51 883.001 1311.51 Q880.802 1311.51 878.349 1312.27 Q875.918 1313.03 873.14 1314.58 L873.14 1309.86 Q875.964 1308.73 878.418 1308.15 Q880.872 1307.57 882.909 1307.57 Q888.279 1307.57 891.474 1310.26 Q894.668 1312.94 894.668 1317.43 Q894.668 1319.56 893.858 1321.48 Q893.071 1323.38 890.964 1325.97 Q890.386 1326.64 887.284 1329.86 Q884.182 1333.06 878.534 1338.82 Z" fill="#000000" fill-rule="nonzero" fill-opacity="1" /><path clip-path="url(#clip290)" d="M923.765 1350.63 L923.765 1353.94 L899.136 1353.94 L899.136 1350.63 L923.765 1350.63 Z" fill="#000000" fill-rule="nonzero" fill-opacity="1" /><path clip-path="url(#clip290)" d="M944.83 1320.76 L944.83 1306.74 L949.089 1306.74 L949.089 1342.76 L944.83 1342.76 L944.83 1338.87 Q943.487 1341.18 941.427 1342.32 Q939.39 1343.43 936.52 1343.43 Q931.821 1343.43 928.858 1339.68 Q925.918 1335.93 925.918 1329.82 Q925.918 1323.7 928.858 1319.95 Q931.821 1316.2 936.52 1316.2 Q939.39 1316.2 941.427 1317.34 Q943.487 1318.45 944.83 1320.76 M930.316 1329.82 Q930.316 1334.51 932.237 1337.2 Q934.182 1339.86 937.561 1339.86 Q940.941 1339.86 942.885 1337.2 Q944.83 1334.51 944.83 1329.82 Q944.83 1325.12 942.885 1322.45 Q940.941 1319.77 937.561 1319.77 Q934.182 1319.77 932.237 1322.45 Q930.316 1325.12 930.316 1329.82 Z" fill="#000000" fill-rule="nonzero" fill-opacity="1" /><path clip-path="url(#clip290)" d="M980.038 1328.73 L980.038 1330.81 L960.455 1330.81 Q960.733 1335.21 963.094 1337.52 Q965.478 1339.82 969.714 1339.82 Q972.168 1339.82 974.459 1339.21 Q976.774 1338.61 979.043 1337.41 L979.043 1341.44 Q976.751 1342.41 974.344 1342.92 Q971.936 1343.43 969.459 1343.43 Q963.256 1343.43 959.621 1339.82 Q956.01 1336.2 956.01 1330.05 Q956.01 1323.68 959.436 1319.95 Q962.885 1316.2 968.719 1316.2 Q973.95 1316.2 976.982 1319.58 Q980.038 1322.94 980.038 1328.73 M975.779 1327.48 Q975.732 1323.98 973.811 1321.9 Q971.913 1319.82 968.765 1319.82 Q965.2 1319.82 963.047 1321.83 Q960.918 1323.84 960.594 1327.5 L975.779 1327.48 Z" fill="#000000" fill-rule="nonzero" fill-opacity="1" /><path clip-path="url(#clip290)" d="M1007.21 1321.81 Q1008.81 1318.94 1011.03 1317.57 Q1013.26 1316.2 1016.26 1316.2 Q1020.32 1316.2 1022.51 1319.05 Q1024.71 1321.88 1024.71 1327.11 L1024.71 1342.76 L1020.43 1342.76 L1020.43 1327.25 Q1020.43 1323.52 1019.11 1321.71 Q1017.79 1319.91 1015.08 1319.91 Q1011.77 1319.91 1009.85 1322.11 Q1007.93 1324.31 1007.93 1328.1 L1007.93 1342.76 L1003.65 1342.76 L1003.65 1327.25 Q1003.65 1323.5 1002.33 1321.71 Q1001.01 1319.91 998.256 1319.91 Q994.992 1319.91 993.07 1322.13 Q991.149 1324.33 991.149 1328.1 L991.149 1342.76 L986.867 1342.76 L986.867 1316.83 L991.149 1316.83 L991.149 1320.86 Q992.607 1318.47 994.644 1317.34 Q996.681 1316.2 999.482 1316.2 Q1002.31 1316.2 1004.27 1317.64 Q1006.26 1319.07 1007.21 1321.81 Z" fill="#000000" fill-rule="nonzero" fill-opacity="1" /><path clip-path="url(#clip290)" d="M1044.99 1329.72 Q1039.83 1329.72 1037.84 1330.9 Q1035.85 1332.08 1035.85 1334.93 Q1035.85 1337.2 1037.33 1338.54 Q1038.83 1339.86 1041.4 1339.86 Q1044.95 1339.86 1047.07 1337.36 Q1049.23 1334.84 1049.23 1330.67 L1049.23 1329.72 L1044.99 1329.72 M1053.49 1327.96 L1053.49 1342.76 L1049.23 1342.76 L1049.23 1338.82 Q1047.77 1341.18 1045.59 1342.32 Q1043.42 1343.43 1040.27 1343.43 Q1036.29 1343.43 1033.93 1341.2 Q1031.59 1338.96 1031.59 1335.21 Q1031.59 1330.83 1034.51 1328.61 Q1037.45 1326.39 1043.26 1326.39 L1049.23 1326.39 L1049.23 1325.97 Q1049.23 1323.03 1047.28 1321.44 Q1045.36 1319.82 1041.87 1319.82 Q1039.64 1319.82 1037.54 1320.35 Q1035.43 1320.88 1033.49 1321.95 L1033.49 1318.01 Q1035.82 1317.11 1038.02 1316.67 Q1040.22 1316.2 1042.31 1316.2 Q1047.93 1316.2 1050.71 1319.12 Q1053.49 1322.04 1053.49 1327.96 Z" fill="#000000" fill-rule="nonzero" fill-opacity="1" /><path clip-path="url(#clip290)" d="M1083.81 1327.11 L1083.81 1342.76 L1079.55 1342.76 L1079.55 1327.25 Q1079.55 1323.57 1078.12 1321.74 Q1076.68 1319.91 1073.81 1319.91 Q1070.36 1319.91 1068.37 1322.11 Q1066.38 1324.31 1066.38 1328.1 L1066.38 1342.76 L1062.1 1342.76 L1062.1 1316.83 L1066.38 1316.83 L1066.38 1320.86 Q1067.91 1318.52 1069.97 1317.36 Q1072.05 1316.2 1074.76 1316.2 Q1079.23 1316.2 1081.52 1318.98 Q1083.81 1321.74 1083.81 1327.11 Z" fill="#000000" fill-rule="nonzero" fill-opacity="1" /><path clip-path="url(#clip290)" d="M1109.37 1320.76 L1109.37 1306.74 L1113.63 1306.74 L1113.63 1342.76 L1109.37 1342.76 L1109.37 1338.87 Q1108.02 1341.18 1105.96 1342.32 Q1103.93 1343.43 1101.06 1343.43 Q1096.36 1343.43 1093.39 1339.68 Q1090.45 1335.93 1090.45 1329.82 Q1090.45 1323.7 1093.39 1319.95 Q1096.36 1316.2 1101.06 1316.2 Q1103.93 1316.2 1105.96 1317.34 Q1108.02 1318.45 1109.37 1320.76 M1094.85 1329.82 Q1094.85 1334.51 1096.77 1337.2 Q1098.72 1339.86 1102.1 1339.86 Q1105.48 1339.86 1107.42 1337.2 Q1109.37 1334.51 1109.37 1329.82 Q1109.37 1325.12 1107.42 1322.45 Q1105.48 1319.77 1102.1 1319.77 Q1098.72 1319.77 1096.77 1322.45 Q1094.85 1325.12 1094.85 1329.82 Z" fill="#000000" fill-rule="nonzero" fill-opacity="1" /></svg>
